%TF.GenerationSoftware,KiCad,Pcbnew,8.0.8*%
%TF.CreationDate,2025-04-18T15:33:52+05:30*%
%TF.ProjectId,bandara_ckt_pcb_naveen,62616e64-6172-4615-9f63-6b745f706362,v1*%
%TF.SameCoordinates,Original*%
%TF.FileFunction,Copper,L2,Bot*%
%TF.FilePolarity,Positive*%
%FSLAX46Y46*%
G04 Gerber Fmt 4.6, Leading zero omitted, Abs format (unit mm)*
G04 Created by KiCad (PCBNEW 8.0.8) date 2025-04-18 15:33:52*
%MOMM*%
%LPD*%
G01*
G04 APERTURE LIST*
%TA.AperFunction,ComponentPad*%
%ADD10C,1.524000*%
%TD*%
%TA.AperFunction,ComponentPad*%
%ADD11R,1.524000X1.524000*%
%TD*%
%TA.AperFunction,ComponentPad*%
%ADD12C,2.000000*%
%TD*%
%TA.AperFunction,ComponentPad*%
%ADD13C,1.950000*%
%TD*%
%TA.AperFunction,ComponentPad*%
%ADD14R,1.950000X1.950000*%
%TD*%
%TA.AperFunction,ComponentPad*%
%ADD15C,1.600000*%
%TD*%
%TA.AperFunction,ComponentPad*%
%ADD16R,1.600000X1.600000*%
%TD*%
%TA.AperFunction,ComponentPad*%
%ADD17O,1.600000X1.600000*%
%TD*%
%TA.AperFunction,ViaPad*%
%ADD18C,0.700000*%
%TD*%
%TA.AperFunction,Conductor*%
%ADD19C,0.200000*%
%TD*%
G04 APERTURE END LIST*
D10*
%TO.P,U6,8,NC*%
%TO.N,unconnected-(U6-NC-Pad8)*%
X132810000Y-105810000D03*
%TO.P,U6,7,+Vs*%
%TO.N,+VSW*%
X130270000Y-105810000D03*
%TO.P,U6,6,Vout*%
%TO.N,Net-(U6-Vout)*%
X127730000Y-105810000D03*
%TO.P,U6,5,NULL*%
%TO.N,unconnected-(U6-NULL-Pad5)*%
X125190000Y-105810000D03*
%TO.P,U6,4,-Vs*%
%TO.N,-VSW*%
X125190000Y-98190000D03*
%TO.P,U6,3,+IN*%
%TO.N,GND*%
X127730000Y-98190000D03*
%TO.P,U6,2,-IN*%
%TO.N,Net-(U6--IN)*%
X130270000Y-98190000D03*
D11*
%TO.P,U6,1,NULL*%
%TO.N,unconnected-(U6-NULL-Pad1)*%
X132810000Y-98190000D03*
%TD*%
%TO.P,U5,1,NULL*%
%TO.N,unconnected-(U5-NULL-Pad1)*%
X132310000Y-72690000D03*
D10*
%TO.P,U5,2,-IN*%
%TO.N,Net-(J1-Pin_2)*%
X129770000Y-72690000D03*
%TO.P,U5,3,+IN*%
%TO.N,GND*%
X127230000Y-72690000D03*
%TO.P,U5,4,-Vs*%
%TO.N,-VSW*%
X124690000Y-72690000D03*
%TO.P,U5,5,NULL*%
%TO.N,unconnected-(U5-NULL-Pad5)*%
X124690000Y-80310000D03*
%TO.P,U5,6,Vout*%
%TO.N,Net-(U5-Vout)*%
X127230000Y-80310000D03*
%TO.P,U5,7,+Vs*%
%TO.N,+VSW*%
X129770000Y-80310000D03*
%TO.P,U5,8,NC*%
%TO.N,unconnected-(U5-NC-Pad8)*%
X132310000Y-80310000D03*
%TD*%
%TO.P,U3,8,NC*%
%TO.N,unconnected-(U3-NC-Pad8)*%
X99500000Y-59000000D03*
%TO.P,U3,7,+Vs*%
%TO.N,+VSW*%
X99500000Y-61540000D03*
%TO.P,U3,6,Vout*%
%TO.N,Net-(J1-Pin_1)*%
X99500000Y-64080000D03*
%TO.P,U3,5,NULL*%
%TO.N,unconnected-(U3-NULL-Pad5)*%
X99500000Y-66620000D03*
%TO.P,U3,4,-Vs*%
%TO.N,-VSW*%
X91880000Y-66620000D03*
%TO.P,U3,3,+IN*%
%TO.N,Net-(U1-VOUT)*%
X91880000Y-64080000D03*
%TO.P,U3,2,-IN*%
%TO.N,Net-(U3--IN)*%
X91880000Y-61540000D03*
D11*
%TO.P,U3,1,NULL*%
%TO.N,unconnected-(U3-NULL-Pad1)*%
X91880000Y-59000000D03*
%TD*%
D12*
%TO.P,TP18,1,1*%
%TO.N,Net-(U6-Vout)*%
X126500000Y-109000000D03*
%TD*%
%TO.P,TP17,1,1*%
%TO.N,+VSW*%
X131000000Y-113500000D03*
%TD*%
%TO.P,TP16,1,1*%
%TO.N,-VSW*%
X125000000Y-90500000D03*
%TD*%
%TO.P,TP15,1,1*%
%TO.N,Net-(U5-Vout)*%
X125500000Y-84500000D03*
%TD*%
%TO.P,TP14,1,1*%
%TO.N,+VSW*%
X130000000Y-87500000D03*
%TD*%
%TO.P,TP13,1,1*%
%TO.N,-VSW*%
X124500000Y-65500000D03*
%TD*%
%TO.P,TP12,1,1*%
%TO.N,Net-(J1-Pin_2)*%
X130000000Y-68500000D03*
%TD*%
%TO.P,TP11,1,1*%
%TO.N,+5V*%
X55000000Y-58200000D03*
%TD*%
%TO.P,TP10,1,1*%
%TO.N,-VSW*%
X55200000Y-62600000D03*
%TD*%
%TO.P,TP9,1,1*%
%TO.N,+VSW*%
X103000000Y-59500000D03*
%TD*%
%TO.P,TP8,1,1*%
%TO.N,Net-(J1-Pin_1)*%
X103000000Y-64500000D03*
%TD*%
%TO.P,TP7,1,1*%
%TO.N,Net-(U2-AIN0)*%
X119000000Y-119500000D03*
%TD*%
%TO.P,TP6,1,1*%
%TO.N,-VSW*%
X87500000Y-67500000D03*
%TD*%
%TO.P,TP5,1,1*%
%TO.N,+VSW*%
X74000000Y-68800000D03*
%TD*%
%TO.P,TP4,1,1*%
%TO.N,Net-(U1-VOUT)*%
X74500000Y-57500000D03*
%TD*%
%TO.P,TP3,1,1*%
%TO.N,+3.3V*%
X80200000Y-71600000D03*
%TD*%
%TO.P,TP2,1,1*%
%TO.N,+5V*%
X86600000Y-71800000D03*
%TD*%
%TO.P,TP1,1,1*%
%TO.N,GND*%
X90000000Y-71800000D03*
%TD*%
D13*
%TO.P,J1,2,Pin_2*%
%TO.N,Net-(J1-Pin_2)*%
X116500000Y-62000000D03*
D14*
%TO.P,J1,1,Pin_1*%
%TO.N,Net-(J1-Pin_1)*%
X111500000Y-62000000D03*
%TD*%
D15*
%TO.P,C8,2*%
%TO.N,GND*%
X51000000Y-66500000D03*
%TO.P,C8,1*%
%TO.N,-VSW*%
X51000000Y-70000000D03*
%TD*%
D16*
%TO.P,A1,1,NC*%
%TO.N,unconnected-(A1-NC-Pad1)*%
X78325000Y-76370000D03*
D17*
%TO.P,A1,2,IOREF*%
%TO.N,unconnected-(A1-IOREF-Pad2)*%
X80865000Y-76370000D03*
%TO.P,A1,3,~{RESET}*%
%TO.N,unconnected-(A1-~{RESET}-Pad3)*%
X83405000Y-76370000D03*
%TO.P,A1,4,3V3*%
%TO.N,+3.3V*%
X85945000Y-76370000D03*
%TO.P,A1,5,+5V*%
%TO.N,+5V*%
X88485000Y-76370000D03*
%TO.P,A1,6,GND*%
%TO.N,GND*%
X91025000Y-76370000D03*
%TO.P,A1,7,GND*%
X93565000Y-76370000D03*
%TO.P,A1,8,VIN*%
%TO.N,unconnected-(A1-VIN-Pad8)*%
X96105000Y-76370000D03*
%TO.P,A1,9,A0*%
%TO.N,unconnected-(A1-A0-Pad9)*%
X101185000Y-76370000D03*
%TO.P,A1,10,A1*%
%TO.N,unconnected-(A1-A1-Pad10)*%
X103725000Y-76370000D03*
%TO.P,A1,11,A2*%
%TO.N,unconnected-(A1-A2-Pad11)*%
X106265000Y-76370000D03*
%TO.P,A1,12,A3*%
%TO.N,unconnected-(A1-A3-Pad12)*%
X108805000Y-76370000D03*
%TO.P,A1,13,SDA/A4*%
%TO.N,Net-(U1-SDA)*%
X111345000Y-76370000D03*
%TO.P,A1,14,SCL/A5*%
%TO.N,Net-(U1-SCL)*%
X113885000Y-76370000D03*
%TO.P,A1,15,D0/RX*%
%TO.N,unconnected-(A1-D0{slash}RX-Pad15)*%
X113885000Y-124630000D03*
%TO.P,A1,16,D1/TX*%
%TO.N,unconnected-(A1-D1{slash}TX-Pad16)*%
X111345000Y-124630000D03*
%TO.P,A1,17,D2*%
%TO.N,unconnected-(A1-D2-Pad17)*%
X108805000Y-124630000D03*
%TO.P,A1,18,D3*%
%TO.N,unconnected-(A1-D3-Pad18)*%
X106265000Y-124630000D03*
%TO.P,A1,19,D4*%
%TO.N,unconnected-(A1-D4-Pad19)*%
X103725000Y-124630000D03*
%TO.P,A1,20,D5*%
%TO.N,unconnected-(A1-D5-Pad20)*%
X101185000Y-124630000D03*
%TO.P,A1,21,D6*%
%TO.N,unconnected-(A1-D6-Pad21)*%
X98645000Y-124630000D03*
%TO.P,A1,22,D7*%
%TO.N,unconnected-(A1-D7-Pad22)*%
X96105000Y-124630000D03*
%TO.P,A1,23,D8*%
%TO.N,unconnected-(A1-D8-Pad23)*%
X92045000Y-124630000D03*
%TO.P,A1,24,D9*%
%TO.N,unconnected-(A1-D9-Pad24)*%
X89505000Y-124630000D03*
%TO.P,A1,25,D10*%
%TO.N,unconnected-(A1-D10-Pad25)*%
X86965000Y-124630000D03*
%TO.P,A1,26,D11*%
%TO.N,unconnected-(A1-D11-Pad26)*%
X84425000Y-124630000D03*
%TO.P,A1,27,D12*%
%TO.N,unconnected-(A1-D12-Pad27)*%
X81885000Y-124630000D03*
%TO.P,A1,28,D13*%
%TO.N,unconnected-(A1-D13-Pad28)*%
X79345000Y-124630000D03*
%TO.P,A1,29,GND*%
%TO.N,GND*%
X76805000Y-124630000D03*
%TO.P,A1,30,AREF*%
%TO.N,unconnected-(A1-AREF-Pad30)*%
X74265000Y-124630000D03*
%TO.P,A1,31,SDA/A4*%
%TO.N,Net-(U2-SDA)*%
X71725000Y-124630000D03*
%TO.P,A1,32,SCL/A5*%
%TO.N,Net-(U2-SCL)*%
X69185000Y-124630000D03*
%TD*%
D18*
%TO.N,GND*%
X121600000Y-116400000D03*
X135200000Y-108000000D03*
X127400000Y-95200000D03*
X122200000Y-91800000D03*
X134400000Y-88000000D03*
X133600000Y-83400000D03*
X125800000Y-74200000D03*
%TO.N,Net-(U1-VOUT)*%
X127596630Y-123196630D03*
%TO.N,GND*%
X126000000Y-121200000D03*
%TO.N,+5V*%
X125400000Y-119000000D03*
X123400000Y-115600000D03*
%TO.N,Net-(U2-SDA)*%
X129675000Y-119200000D03*
X126600000Y-127600000D03*
%TO.N,GND*%
X107800000Y-60600000D03*
X86587500Y-64387500D03*
X76400000Y-66400000D03*
X66000000Y-66400000D03*
%TO.N,+5V*%
X86000000Y-58200000D03*
X86000000Y-59800000D03*
X85800000Y-61575000D03*
X85000000Y-67000000D03*
%TO.N,GND*%
X80400000Y-67800000D03*
X84800000Y-68600000D03*
%TO.N,Net-(U3--IN)*%
X94000000Y-63600000D03*
X92200000Y-69400000D03*
%TO.N,Net-(J1-Pin_1)*%
X100000000Y-71600000D03*
%TO.N,Net-(U3--IN)*%
X90000000Y-63800000D03*
X89200000Y-60600000D03*
%TO.N,GND*%
X117400000Y-118000000D03*
%TD*%
D19*
%TO.N,GND*%
X120000000Y-118000000D02*
X121600000Y-116400000D01*
X117400000Y-118000000D02*
X120000000Y-118000000D01*
X133600000Y-95200000D02*
X135200000Y-96800000D01*
X135200000Y-96800000D02*
X135200000Y-108000000D01*
X127400000Y-95200000D02*
X133600000Y-95200000D01*
X130600000Y-91800000D02*
X122200000Y-91800000D01*
X134400000Y-88000000D02*
X130600000Y-91800000D01*
X133600000Y-80098105D02*
X133600000Y-83400000D01*
X127701895Y-74200000D02*
X133600000Y-80098105D01*
X125800000Y-74200000D02*
X127701895Y-74200000D01*
%TO.N,Net-(U1-VOUT)*%
X127600000Y-123200000D02*
X127596630Y-123196630D01*
X127600000Y-127600000D02*
X127600000Y-123200000D01*
X126950000Y-128250000D02*
X127600000Y-127600000D01*
X110200000Y-112600000D02*
X125850000Y-128250000D01*
X110200000Y-62080761D02*
X110200000Y-112600000D01*
X108069239Y-59950000D02*
X110200000Y-62080761D01*
X107530761Y-59950000D02*
X108069239Y-59950000D01*
X125850000Y-128250000D02*
X126950000Y-128250000D01*
X104530761Y-62950000D02*
X107530761Y-59950000D01*
X93010000Y-62950000D02*
X104530761Y-62950000D01*
X91880000Y-64080000D02*
X93010000Y-62950000D01*
%TO.N,GND*%
X124750000Y-119950000D02*
X126000000Y-121200000D01*
X124750000Y-118350000D02*
X124750000Y-119950000D01*
X117400000Y-118000000D02*
X124400000Y-118000000D01*
X124400000Y-118000000D02*
X124750000Y-118350000D01*
%TO.N,+5V*%
X125400000Y-117600000D02*
X125400000Y-119000000D01*
X123400000Y-115600000D02*
X125400000Y-117600000D01*
%TO.N,Net-(U2-SDA)*%
X129675000Y-119200000D02*
X129400000Y-119200000D01*
X129400000Y-119200000D02*
X126600000Y-122000000D01*
X126600000Y-122000000D02*
X126600000Y-127600000D01*
%TO.N,GND*%
X107800000Y-65000000D02*
X107800000Y-60600000D01*
X100000000Y-72800000D02*
X107800000Y-65000000D01*
X91000000Y-72800000D02*
X100000000Y-72800000D01*
X90000000Y-71800000D02*
X91000000Y-72800000D01*
X84800000Y-68119239D02*
X84800000Y-68600000D01*
X86587500Y-66331739D02*
X84800000Y-68119239D01*
X86587500Y-64387500D02*
X86587500Y-66331739D01*
X66000000Y-66400000D02*
X76400000Y-66400000D01*
%TO.N,+5V*%
X86000000Y-59800000D02*
X86000000Y-58200000D01*
X85800000Y-61600000D02*
X85800000Y-61575000D01*
X85000000Y-62400000D02*
X85800000Y-61600000D01*
X85000000Y-67000000D02*
X85000000Y-62400000D01*
%TO.N,GND*%
X84000000Y-67800000D02*
X80400000Y-67800000D01*
X84800000Y-68600000D02*
X84000000Y-67800000D01*
X86800000Y-68600000D02*
X84800000Y-68600000D01*
X90000000Y-71800000D02*
X86800000Y-68600000D01*
X91025000Y-72825000D02*
X90000000Y-71800000D01*
X91025000Y-76370000D02*
X91025000Y-72825000D01*
%TO.N,Net-(U3--IN)*%
X94000000Y-67600000D02*
X94000000Y-63600000D01*
X92200000Y-69400000D02*
X94000000Y-67600000D01*
%TO.N,Net-(J1-Pin_1)*%
X100562000Y-71038000D02*
X100000000Y-71600000D01*
X100562000Y-65142000D02*
X100562000Y-71038000D01*
X99500000Y-64080000D02*
X100562000Y-65142000D01*
%TO.N,Net-(U3--IN)*%
X89200000Y-63000000D02*
X90000000Y-63800000D01*
X89200000Y-60600000D02*
X89200000Y-63000000D01*
%TD*%
%TA.AperFunction,Conductor*%
%TO.N,+5V*%
G36*
X138242539Y-53219685D02*
G01*
X138288294Y-53272489D01*
X138299500Y-53324000D01*
X138299500Y-130375500D01*
X138279815Y-130442539D01*
X138227011Y-130488294D01*
X138175500Y-130499500D01*
X40624500Y-130499500D01*
X40557461Y-130479815D01*
X40511706Y-130427011D01*
X40500500Y-130375500D01*
X40500500Y-124629998D01*
X67879532Y-124629998D01*
X67879532Y-124630001D01*
X67899364Y-124856686D01*
X67899366Y-124856697D01*
X67958258Y-125076488D01*
X67958261Y-125076497D01*
X68054431Y-125282732D01*
X68054432Y-125282734D01*
X68184954Y-125469141D01*
X68345858Y-125630045D01*
X68345861Y-125630047D01*
X68532266Y-125760568D01*
X68738504Y-125856739D01*
X68958308Y-125915635D01*
X69120230Y-125929801D01*
X69184998Y-125935468D01*
X69185000Y-125935468D01*
X69185002Y-125935468D01*
X69241673Y-125930509D01*
X69411692Y-125915635D01*
X69631496Y-125856739D01*
X69837734Y-125760568D01*
X70024139Y-125630047D01*
X70185047Y-125469139D01*
X70315568Y-125282734D01*
X70342618Y-125224724D01*
X70388790Y-125172285D01*
X70455983Y-125153133D01*
X70522865Y-125173348D01*
X70567382Y-125224725D01*
X70594429Y-125282728D01*
X70594432Y-125282734D01*
X70724954Y-125469141D01*
X70885858Y-125630045D01*
X70885861Y-125630047D01*
X71072266Y-125760568D01*
X71278504Y-125856739D01*
X71498308Y-125915635D01*
X71660230Y-125929801D01*
X71724998Y-125935468D01*
X71725000Y-125935468D01*
X71725002Y-125935468D01*
X71781673Y-125930509D01*
X71951692Y-125915635D01*
X72171496Y-125856739D01*
X72377734Y-125760568D01*
X72564139Y-125630047D01*
X72725047Y-125469139D01*
X72855568Y-125282734D01*
X72882618Y-125224724D01*
X72928790Y-125172285D01*
X72995983Y-125153133D01*
X73062865Y-125173348D01*
X73107382Y-125224725D01*
X73134429Y-125282728D01*
X73134432Y-125282734D01*
X73264954Y-125469141D01*
X73425858Y-125630045D01*
X73425861Y-125630047D01*
X73612266Y-125760568D01*
X73818504Y-125856739D01*
X74038308Y-125915635D01*
X74200230Y-125929801D01*
X74264998Y-125935468D01*
X74265000Y-125935468D01*
X74265002Y-125935468D01*
X74321673Y-125930509D01*
X74491692Y-125915635D01*
X74711496Y-125856739D01*
X74917734Y-125760568D01*
X75104139Y-125630047D01*
X75265047Y-125469139D01*
X75395568Y-125282734D01*
X75422618Y-125224724D01*
X75468790Y-125172285D01*
X75535983Y-125153133D01*
X75602865Y-125173348D01*
X75647382Y-125224725D01*
X75674429Y-125282728D01*
X75674432Y-125282734D01*
X75804954Y-125469141D01*
X75965858Y-125630045D01*
X75965861Y-125630047D01*
X76152266Y-125760568D01*
X76358504Y-125856739D01*
X76578308Y-125915635D01*
X76740230Y-125929801D01*
X76804998Y-125935468D01*
X76805000Y-125935468D01*
X76805002Y-125935468D01*
X76861673Y-125930509D01*
X77031692Y-125915635D01*
X77251496Y-125856739D01*
X77457734Y-125760568D01*
X77644139Y-125630047D01*
X77805047Y-125469139D01*
X77935568Y-125282734D01*
X77962618Y-125224724D01*
X78008790Y-125172285D01*
X78075983Y-125153133D01*
X78142865Y-125173348D01*
X78187382Y-125224725D01*
X78214429Y-125282728D01*
X78214432Y-125282734D01*
X78344954Y-125469141D01*
X78505858Y-125630045D01*
X78505861Y-125630047D01*
X78692266Y-125760568D01*
X78898504Y-125856739D01*
X79118308Y-125915635D01*
X79280230Y-125929801D01*
X79344998Y-125935468D01*
X79345000Y-125935468D01*
X79345002Y-125935468D01*
X79401673Y-125930509D01*
X79571692Y-125915635D01*
X79791496Y-125856739D01*
X79997734Y-125760568D01*
X80184139Y-125630047D01*
X80345047Y-125469139D01*
X80475568Y-125282734D01*
X80502618Y-125224724D01*
X80548790Y-125172285D01*
X80615983Y-125153133D01*
X80682865Y-125173348D01*
X80727382Y-125224725D01*
X80754429Y-125282728D01*
X80754432Y-125282734D01*
X80884954Y-125469141D01*
X81045858Y-125630045D01*
X81045861Y-125630047D01*
X81232266Y-125760568D01*
X81438504Y-125856739D01*
X81658308Y-125915635D01*
X81820230Y-125929801D01*
X81884998Y-125935468D01*
X81885000Y-125935468D01*
X81885002Y-125935468D01*
X81941673Y-125930509D01*
X82111692Y-125915635D01*
X82331496Y-125856739D01*
X82537734Y-125760568D01*
X82724139Y-125630047D01*
X82885047Y-125469139D01*
X83015568Y-125282734D01*
X83042618Y-125224724D01*
X83088790Y-125172285D01*
X83155983Y-125153133D01*
X83222865Y-125173348D01*
X83267382Y-125224725D01*
X83294429Y-125282728D01*
X83294432Y-125282734D01*
X83424954Y-125469141D01*
X83585858Y-125630045D01*
X83585861Y-125630047D01*
X83772266Y-125760568D01*
X83978504Y-125856739D01*
X84198308Y-125915635D01*
X84360230Y-125929801D01*
X84424998Y-125935468D01*
X84425000Y-125935468D01*
X84425002Y-125935468D01*
X84481673Y-125930509D01*
X84651692Y-125915635D01*
X84871496Y-125856739D01*
X85077734Y-125760568D01*
X85264139Y-125630047D01*
X85425047Y-125469139D01*
X85555568Y-125282734D01*
X85582618Y-125224724D01*
X85628790Y-125172285D01*
X85695983Y-125153133D01*
X85762865Y-125173348D01*
X85807382Y-125224725D01*
X85834429Y-125282728D01*
X85834432Y-125282734D01*
X85964954Y-125469141D01*
X86125858Y-125630045D01*
X86125861Y-125630047D01*
X86312266Y-125760568D01*
X86518504Y-125856739D01*
X86738308Y-125915635D01*
X86900230Y-125929801D01*
X86964998Y-125935468D01*
X86965000Y-125935468D01*
X86965002Y-125935468D01*
X87021673Y-125930509D01*
X87191692Y-125915635D01*
X87411496Y-125856739D01*
X87617734Y-125760568D01*
X87804139Y-125630047D01*
X87965047Y-125469139D01*
X88095568Y-125282734D01*
X88122618Y-125224724D01*
X88168790Y-125172285D01*
X88235983Y-125153133D01*
X88302865Y-125173348D01*
X88347382Y-125224725D01*
X88374429Y-125282728D01*
X88374432Y-125282734D01*
X88504954Y-125469141D01*
X88665858Y-125630045D01*
X88665861Y-125630047D01*
X88852266Y-125760568D01*
X89058504Y-125856739D01*
X89278308Y-125915635D01*
X89440230Y-125929801D01*
X89504998Y-125935468D01*
X89505000Y-125935468D01*
X89505002Y-125935468D01*
X89561673Y-125930509D01*
X89731692Y-125915635D01*
X89951496Y-125856739D01*
X90157734Y-125760568D01*
X90344139Y-125630047D01*
X90505047Y-125469139D01*
X90635568Y-125282734D01*
X90662618Y-125224724D01*
X90708790Y-125172285D01*
X90775983Y-125153133D01*
X90842865Y-125173348D01*
X90887382Y-125224725D01*
X90914429Y-125282728D01*
X90914432Y-125282734D01*
X91044954Y-125469141D01*
X91205858Y-125630045D01*
X91205861Y-125630047D01*
X91392266Y-125760568D01*
X91598504Y-125856739D01*
X91818308Y-125915635D01*
X91980230Y-125929801D01*
X92044998Y-125935468D01*
X92045000Y-125935468D01*
X92045002Y-125935468D01*
X92101673Y-125930509D01*
X92271692Y-125915635D01*
X92491496Y-125856739D01*
X92697734Y-125760568D01*
X92884139Y-125630047D01*
X93045047Y-125469139D01*
X93175568Y-125282734D01*
X93271739Y-125076496D01*
X93330635Y-124856692D01*
X93350468Y-124630000D01*
X93350468Y-124629998D01*
X94799532Y-124629998D01*
X94799532Y-124630001D01*
X94819364Y-124856686D01*
X94819366Y-124856697D01*
X94878258Y-125076488D01*
X94878261Y-125076497D01*
X94974431Y-125282732D01*
X94974432Y-125282734D01*
X95104954Y-125469141D01*
X95265858Y-125630045D01*
X95265861Y-125630047D01*
X95452266Y-125760568D01*
X95658504Y-125856739D01*
X95878308Y-125915635D01*
X96040230Y-125929801D01*
X96104998Y-125935468D01*
X96105000Y-125935468D01*
X96105002Y-125935468D01*
X96161673Y-125930509D01*
X96331692Y-125915635D01*
X96551496Y-125856739D01*
X96757734Y-125760568D01*
X96944139Y-125630047D01*
X97105047Y-125469139D01*
X97235568Y-125282734D01*
X97262618Y-125224724D01*
X97308790Y-125172285D01*
X97375983Y-125153133D01*
X97442865Y-125173348D01*
X97487382Y-125224725D01*
X97514429Y-125282728D01*
X97514432Y-125282734D01*
X97644954Y-125469141D01*
X97805858Y-125630045D01*
X97805861Y-125630047D01*
X97992266Y-125760568D01*
X98198504Y-125856739D01*
X98418308Y-125915635D01*
X98580230Y-125929801D01*
X98644998Y-125935468D01*
X98645000Y-125935468D01*
X98645002Y-125935468D01*
X98701673Y-125930509D01*
X98871692Y-125915635D01*
X99091496Y-125856739D01*
X99297734Y-125760568D01*
X99484139Y-125630047D01*
X99645047Y-125469139D01*
X99775568Y-125282734D01*
X99802618Y-125224724D01*
X99848790Y-125172285D01*
X99915983Y-125153133D01*
X99982865Y-125173348D01*
X100027382Y-125224725D01*
X100054429Y-125282728D01*
X100054432Y-125282734D01*
X100184954Y-125469141D01*
X100345858Y-125630045D01*
X100345861Y-125630047D01*
X100532266Y-125760568D01*
X100738504Y-125856739D01*
X100958308Y-125915635D01*
X101120230Y-125929801D01*
X101184998Y-125935468D01*
X101185000Y-125935468D01*
X101185002Y-125935468D01*
X101241673Y-125930509D01*
X101411692Y-125915635D01*
X101631496Y-125856739D01*
X101837734Y-125760568D01*
X102024139Y-125630047D01*
X102185047Y-125469139D01*
X102315568Y-125282734D01*
X102342618Y-125224724D01*
X102388790Y-125172285D01*
X102455983Y-125153133D01*
X102522865Y-125173348D01*
X102567382Y-125224725D01*
X102594429Y-125282728D01*
X102594432Y-125282734D01*
X102724954Y-125469141D01*
X102885858Y-125630045D01*
X102885861Y-125630047D01*
X103072266Y-125760568D01*
X103278504Y-125856739D01*
X103498308Y-125915635D01*
X103660230Y-125929801D01*
X103724998Y-125935468D01*
X103725000Y-125935468D01*
X103725002Y-125935468D01*
X103781673Y-125930509D01*
X103951692Y-125915635D01*
X104171496Y-125856739D01*
X104377734Y-125760568D01*
X104564139Y-125630047D01*
X104725047Y-125469139D01*
X104855568Y-125282734D01*
X104882618Y-125224724D01*
X104928790Y-125172285D01*
X104995983Y-125153133D01*
X105062865Y-125173348D01*
X105107382Y-125224725D01*
X105134429Y-125282728D01*
X105134432Y-125282734D01*
X105264954Y-125469141D01*
X105425858Y-125630045D01*
X105425861Y-125630047D01*
X105612266Y-125760568D01*
X105818504Y-125856739D01*
X106038308Y-125915635D01*
X106200230Y-125929801D01*
X106264998Y-125935468D01*
X106265000Y-125935468D01*
X106265002Y-125935468D01*
X106321673Y-125930509D01*
X106491692Y-125915635D01*
X106711496Y-125856739D01*
X106917734Y-125760568D01*
X107104139Y-125630047D01*
X107265047Y-125469139D01*
X107395568Y-125282734D01*
X107422618Y-125224724D01*
X107468790Y-125172285D01*
X107535983Y-125153133D01*
X107602865Y-125173348D01*
X107647382Y-125224725D01*
X107674429Y-125282728D01*
X107674432Y-125282734D01*
X107804954Y-125469141D01*
X107965858Y-125630045D01*
X107965861Y-125630047D01*
X108152266Y-125760568D01*
X108358504Y-125856739D01*
X108578308Y-125915635D01*
X108740230Y-125929801D01*
X108804998Y-125935468D01*
X108805000Y-125935468D01*
X108805002Y-125935468D01*
X108861673Y-125930509D01*
X109031692Y-125915635D01*
X109251496Y-125856739D01*
X109457734Y-125760568D01*
X109644139Y-125630047D01*
X109805047Y-125469139D01*
X109935568Y-125282734D01*
X109962618Y-125224724D01*
X110008790Y-125172285D01*
X110075983Y-125153133D01*
X110142865Y-125173348D01*
X110187382Y-125224725D01*
X110214429Y-125282728D01*
X110214432Y-125282734D01*
X110344954Y-125469141D01*
X110505858Y-125630045D01*
X110505861Y-125630047D01*
X110692266Y-125760568D01*
X110898504Y-125856739D01*
X111118308Y-125915635D01*
X111280230Y-125929801D01*
X111344998Y-125935468D01*
X111345000Y-125935468D01*
X111345002Y-125935468D01*
X111401673Y-125930509D01*
X111571692Y-125915635D01*
X111791496Y-125856739D01*
X111997734Y-125760568D01*
X112184139Y-125630047D01*
X112345047Y-125469139D01*
X112475568Y-125282734D01*
X112502618Y-125224724D01*
X112548790Y-125172285D01*
X112615983Y-125153133D01*
X112682865Y-125173348D01*
X112727382Y-125224725D01*
X112754429Y-125282728D01*
X112754432Y-125282734D01*
X112884954Y-125469141D01*
X113045858Y-125630045D01*
X113045861Y-125630047D01*
X113232266Y-125760568D01*
X113438504Y-125856739D01*
X113658308Y-125915635D01*
X113820230Y-125929801D01*
X113884998Y-125935468D01*
X113885000Y-125935468D01*
X113885002Y-125935468D01*
X113941673Y-125930509D01*
X114111692Y-125915635D01*
X114331496Y-125856739D01*
X114537734Y-125760568D01*
X114724139Y-125630047D01*
X114885047Y-125469139D01*
X115015568Y-125282734D01*
X115111739Y-125076496D01*
X115170635Y-124856692D01*
X115190468Y-124630000D01*
X115170635Y-124403308D01*
X115111739Y-124183504D01*
X115015568Y-123977266D01*
X114885047Y-123790861D01*
X114885045Y-123790858D01*
X114724141Y-123629954D01*
X114537734Y-123499432D01*
X114537732Y-123499431D01*
X114331497Y-123403261D01*
X114331488Y-123403258D01*
X114111697Y-123344366D01*
X114111693Y-123344365D01*
X114111692Y-123344365D01*
X114111691Y-123344364D01*
X114111686Y-123344364D01*
X113885002Y-123324532D01*
X113884998Y-123324532D01*
X113658313Y-123344364D01*
X113658302Y-123344366D01*
X113438511Y-123403258D01*
X113438502Y-123403261D01*
X113232267Y-123499431D01*
X113232265Y-123499432D01*
X113045858Y-123629954D01*
X112884954Y-123790858D01*
X112754432Y-123977265D01*
X112754431Y-123977267D01*
X112727382Y-124035275D01*
X112681209Y-124087714D01*
X112614016Y-124106866D01*
X112547135Y-124086650D01*
X112502618Y-124035275D01*
X112475568Y-123977267D01*
X112475567Y-123977265D01*
X112345045Y-123790858D01*
X112184141Y-123629954D01*
X111997734Y-123499432D01*
X111997732Y-123499431D01*
X111791497Y-123403261D01*
X111791488Y-123403258D01*
X111571697Y-123344366D01*
X111571693Y-123344365D01*
X111571692Y-123344365D01*
X111571691Y-123344364D01*
X111571686Y-123344364D01*
X111345002Y-123324532D01*
X111344998Y-123324532D01*
X111118313Y-123344364D01*
X111118302Y-123344366D01*
X110898511Y-123403258D01*
X110898502Y-123403261D01*
X110692267Y-123499431D01*
X110692265Y-123499432D01*
X110505858Y-123629954D01*
X110344954Y-123790858D01*
X110214432Y-123977265D01*
X110214431Y-123977267D01*
X110187382Y-124035275D01*
X110141209Y-124087714D01*
X110074016Y-124106866D01*
X110007135Y-124086650D01*
X109962618Y-124035275D01*
X109935568Y-123977267D01*
X109935567Y-123977265D01*
X109805045Y-123790858D01*
X109644141Y-123629954D01*
X109457734Y-123499432D01*
X109457732Y-123499431D01*
X109251497Y-123403261D01*
X109251488Y-123403258D01*
X109031697Y-123344366D01*
X109031693Y-123344365D01*
X109031692Y-123344365D01*
X109031691Y-123344364D01*
X109031686Y-123344364D01*
X108805002Y-123324532D01*
X108804998Y-123324532D01*
X108578313Y-123344364D01*
X108578302Y-123344366D01*
X108358511Y-123403258D01*
X108358502Y-123403261D01*
X108152267Y-123499431D01*
X108152265Y-123499432D01*
X107965858Y-123629954D01*
X107804954Y-123790858D01*
X107674432Y-123977265D01*
X107674431Y-123977267D01*
X107647382Y-124035275D01*
X107601209Y-124087714D01*
X107534016Y-124106866D01*
X107467135Y-124086650D01*
X107422618Y-124035275D01*
X107395568Y-123977267D01*
X107395567Y-123977265D01*
X107265045Y-123790858D01*
X107104141Y-123629954D01*
X106917734Y-123499432D01*
X106917732Y-123499431D01*
X106711497Y-123403261D01*
X106711488Y-123403258D01*
X106491697Y-123344366D01*
X106491693Y-123344365D01*
X106491692Y-123344365D01*
X106491691Y-123344364D01*
X106491686Y-123344364D01*
X106265002Y-123324532D01*
X106264998Y-123324532D01*
X106038313Y-123344364D01*
X106038302Y-123344366D01*
X105818511Y-123403258D01*
X105818502Y-123403261D01*
X105612267Y-123499431D01*
X105612265Y-123499432D01*
X105425858Y-123629954D01*
X105264954Y-123790858D01*
X105134432Y-123977265D01*
X105134431Y-123977267D01*
X105107382Y-124035275D01*
X105061209Y-124087714D01*
X104994016Y-124106866D01*
X104927135Y-124086650D01*
X104882618Y-124035275D01*
X104855568Y-123977267D01*
X104855567Y-123977265D01*
X104725045Y-123790858D01*
X104564141Y-123629954D01*
X104377734Y-123499432D01*
X104377732Y-123499431D01*
X104171497Y-123403261D01*
X104171488Y-123403258D01*
X103951697Y-123344366D01*
X103951693Y-123344365D01*
X103951692Y-123344365D01*
X103951691Y-123344364D01*
X103951686Y-123344364D01*
X103725002Y-123324532D01*
X103724998Y-123324532D01*
X103498313Y-123344364D01*
X103498302Y-123344366D01*
X103278511Y-123403258D01*
X103278502Y-123403261D01*
X103072267Y-123499431D01*
X103072265Y-123499432D01*
X102885858Y-123629954D01*
X102724954Y-123790858D01*
X102594432Y-123977265D01*
X102594431Y-123977267D01*
X102567382Y-124035275D01*
X102521209Y-124087714D01*
X102454016Y-124106866D01*
X102387135Y-124086650D01*
X102342618Y-124035275D01*
X102315568Y-123977267D01*
X102315567Y-123977265D01*
X102185045Y-123790858D01*
X102024141Y-123629954D01*
X101837734Y-123499432D01*
X101837732Y-123499431D01*
X101631497Y-123403261D01*
X101631488Y-123403258D01*
X101411697Y-123344366D01*
X101411693Y-123344365D01*
X101411692Y-123344365D01*
X101411691Y-123344364D01*
X101411686Y-123344364D01*
X101185002Y-123324532D01*
X101184998Y-123324532D01*
X100958313Y-123344364D01*
X100958302Y-123344366D01*
X100738511Y-123403258D01*
X100738502Y-123403261D01*
X100532267Y-123499431D01*
X100532265Y-123499432D01*
X100345858Y-123629954D01*
X100184954Y-123790858D01*
X100054432Y-123977265D01*
X100054431Y-123977267D01*
X100027382Y-124035275D01*
X99981209Y-124087714D01*
X99914016Y-124106866D01*
X99847135Y-124086650D01*
X99802618Y-124035275D01*
X99775568Y-123977267D01*
X99775567Y-123977265D01*
X99645045Y-123790858D01*
X99484141Y-123629954D01*
X99297734Y-123499432D01*
X99297732Y-123499431D01*
X99091497Y-123403261D01*
X99091488Y-123403258D01*
X98871697Y-123344366D01*
X98871693Y-123344365D01*
X98871692Y-123344365D01*
X98871691Y-123344364D01*
X98871686Y-123344364D01*
X98645002Y-123324532D01*
X98644998Y-123324532D01*
X98418313Y-123344364D01*
X98418302Y-123344366D01*
X98198511Y-123403258D01*
X98198502Y-123403261D01*
X97992267Y-123499431D01*
X97992265Y-123499432D01*
X97805858Y-123629954D01*
X97644954Y-123790858D01*
X97514432Y-123977265D01*
X97514431Y-123977267D01*
X97487382Y-124035275D01*
X97441209Y-124087714D01*
X97374016Y-124106866D01*
X97307135Y-124086650D01*
X97262618Y-124035275D01*
X97235568Y-123977267D01*
X97235567Y-123977265D01*
X97105045Y-123790858D01*
X96944141Y-123629954D01*
X96757734Y-123499432D01*
X96757732Y-123499431D01*
X96551497Y-123403261D01*
X96551488Y-123403258D01*
X96331697Y-123344366D01*
X96331693Y-123344365D01*
X96331692Y-123344365D01*
X96331691Y-123344364D01*
X96331686Y-123344364D01*
X96105002Y-123324532D01*
X96104998Y-123324532D01*
X95878313Y-123344364D01*
X95878302Y-123344366D01*
X95658511Y-123403258D01*
X95658502Y-123403261D01*
X95452267Y-123499431D01*
X95452265Y-123499432D01*
X95265858Y-123629954D01*
X95104954Y-123790858D01*
X94974432Y-123977265D01*
X94974431Y-123977267D01*
X94878261Y-124183502D01*
X94878258Y-124183511D01*
X94819366Y-124403302D01*
X94819364Y-124403313D01*
X94799532Y-124629998D01*
X93350468Y-124629998D01*
X93330635Y-124403308D01*
X93271739Y-124183504D01*
X93175568Y-123977266D01*
X93045047Y-123790861D01*
X93045045Y-123790858D01*
X92884141Y-123629954D01*
X92697734Y-123499432D01*
X92697732Y-123499431D01*
X92491497Y-123403261D01*
X92491488Y-123403258D01*
X92271697Y-123344366D01*
X92271693Y-123344365D01*
X92271692Y-123344365D01*
X92271691Y-123344364D01*
X92271686Y-123344364D01*
X92045002Y-123324532D01*
X92044998Y-123324532D01*
X91818313Y-123344364D01*
X91818302Y-123344366D01*
X91598511Y-123403258D01*
X91598502Y-123403261D01*
X91392267Y-123499431D01*
X91392265Y-123499432D01*
X91205858Y-123629954D01*
X91044954Y-123790858D01*
X90914432Y-123977265D01*
X90914431Y-123977267D01*
X90887382Y-124035275D01*
X90841209Y-124087714D01*
X90774016Y-124106866D01*
X90707135Y-124086650D01*
X90662618Y-124035275D01*
X90635568Y-123977267D01*
X90635567Y-123977265D01*
X90505045Y-123790858D01*
X90344141Y-123629954D01*
X90157734Y-123499432D01*
X90157732Y-123499431D01*
X89951497Y-123403261D01*
X89951488Y-123403258D01*
X89731697Y-123344366D01*
X89731693Y-123344365D01*
X89731692Y-123344365D01*
X89731691Y-123344364D01*
X89731686Y-123344364D01*
X89505002Y-123324532D01*
X89504998Y-123324532D01*
X89278313Y-123344364D01*
X89278302Y-123344366D01*
X89058511Y-123403258D01*
X89058502Y-123403261D01*
X88852267Y-123499431D01*
X88852265Y-123499432D01*
X88665858Y-123629954D01*
X88504954Y-123790858D01*
X88374432Y-123977265D01*
X88374431Y-123977267D01*
X88347382Y-124035275D01*
X88301209Y-124087714D01*
X88234016Y-124106866D01*
X88167135Y-124086650D01*
X88122618Y-124035275D01*
X88095568Y-123977267D01*
X88095567Y-123977265D01*
X87965045Y-123790858D01*
X87804141Y-123629954D01*
X87617734Y-123499432D01*
X87617732Y-123499431D01*
X87411497Y-123403261D01*
X87411488Y-123403258D01*
X87191697Y-123344366D01*
X87191693Y-123344365D01*
X87191692Y-123344365D01*
X87191691Y-123344364D01*
X87191686Y-123344364D01*
X86965002Y-123324532D01*
X86964998Y-123324532D01*
X86738313Y-123344364D01*
X86738302Y-123344366D01*
X86518511Y-123403258D01*
X86518502Y-123403261D01*
X86312267Y-123499431D01*
X86312265Y-123499432D01*
X86125858Y-123629954D01*
X85964954Y-123790858D01*
X85834432Y-123977265D01*
X85834431Y-123977267D01*
X85807382Y-124035275D01*
X85761209Y-124087714D01*
X85694016Y-124106866D01*
X85627135Y-124086650D01*
X85582618Y-124035275D01*
X85555568Y-123977267D01*
X85555567Y-123977265D01*
X85425045Y-123790858D01*
X85264141Y-123629954D01*
X85077734Y-123499432D01*
X85077732Y-123499431D01*
X84871497Y-123403261D01*
X84871488Y-123403258D01*
X84651697Y-123344366D01*
X84651693Y-123344365D01*
X84651692Y-123344365D01*
X84651691Y-123344364D01*
X84651686Y-123344364D01*
X84425002Y-123324532D01*
X84424998Y-123324532D01*
X84198313Y-123344364D01*
X84198302Y-123344366D01*
X83978511Y-123403258D01*
X83978502Y-123403261D01*
X83772267Y-123499431D01*
X83772265Y-123499432D01*
X83585858Y-123629954D01*
X83424954Y-123790858D01*
X83294432Y-123977265D01*
X83294431Y-123977267D01*
X83267382Y-124035275D01*
X83221209Y-124087714D01*
X83154016Y-124106866D01*
X83087135Y-124086650D01*
X83042618Y-124035275D01*
X83015568Y-123977267D01*
X83015567Y-123977265D01*
X82885045Y-123790858D01*
X82724141Y-123629954D01*
X82537734Y-123499432D01*
X82537732Y-123499431D01*
X82331497Y-123403261D01*
X82331488Y-123403258D01*
X82111697Y-123344366D01*
X82111693Y-123344365D01*
X82111692Y-123344365D01*
X82111691Y-123344364D01*
X82111686Y-123344364D01*
X81885002Y-123324532D01*
X81884998Y-123324532D01*
X81658313Y-123344364D01*
X81658302Y-123344366D01*
X81438511Y-123403258D01*
X81438502Y-123403261D01*
X81232267Y-123499431D01*
X81232265Y-123499432D01*
X81045858Y-123629954D01*
X80884954Y-123790858D01*
X80754432Y-123977265D01*
X80754431Y-123977267D01*
X80727382Y-124035275D01*
X80681209Y-124087714D01*
X80614016Y-124106866D01*
X80547135Y-124086650D01*
X80502618Y-124035275D01*
X80475568Y-123977267D01*
X80475567Y-123977265D01*
X80345045Y-123790858D01*
X80184141Y-123629954D01*
X79997734Y-123499432D01*
X79997732Y-123499431D01*
X79791497Y-123403261D01*
X79791488Y-123403258D01*
X79571697Y-123344366D01*
X79571693Y-123344365D01*
X79571692Y-123344365D01*
X79571691Y-123344364D01*
X79571686Y-123344364D01*
X79345002Y-123324532D01*
X79344998Y-123324532D01*
X79118313Y-123344364D01*
X79118302Y-123344366D01*
X78898511Y-123403258D01*
X78898502Y-123403261D01*
X78692267Y-123499431D01*
X78692265Y-123499432D01*
X78505858Y-123629954D01*
X78344954Y-123790858D01*
X78214432Y-123977265D01*
X78214431Y-123977267D01*
X78187382Y-124035275D01*
X78141209Y-124087714D01*
X78074016Y-124106866D01*
X78007135Y-124086650D01*
X77962618Y-124035275D01*
X77935568Y-123977267D01*
X77935567Y-123977265D01*
X77805045Y-123790858D01*
X77644141Y-123629954D01*
X77457734Y-123499432D01*
X77457732Y-123499431D01*
X77251497Y-123403261D01*
X77251488Y-123403258D01*
X77031697Y-123344366D01*
X77031693Y-123344365D01*
X77031692Y-123344365D01*
X77031691Y-123344364D01*
X77031686Y-123344364D01*
X76805002Y-123324532D01*
X76804998Y-123324532D01*
X76578313Y-123344364D01*
X76578302Y-123344366D01*
X76358511Y-123403258D01*
X76358502Y-123403261D01*
X76152267Y-123499431D01*
X76152265Y-123499432D01*
X75965858Y-123629954D01*
X75804954Y-123790858D01*
X75674432Y-123977265D01*
X75674431Y-123977267D01*
X75647382Y-124035275D01*
X75601209Y-124087714D01*
X75534016Y-124106866D01*
X75467135Y-124086650D01*
X75422618Y-124035275D01*
X75395568Y-123977267D01*
X75395567Y-123977265D01*
X75265045Y-123790858D01*
X75104141Y-123629954D01*
X74917734Y-123499432D01*
X74917732Y-123499431D01*
X74711497Y-123403261D01*
X74711488Y-123403258D01*
X74491697Y-123344366D01*
X74491693Y-123344365D01*
X74491692Y-123344365D01*
X74491691Y-123344364D01*
X74491686Y-123344364D01*
X74265002Y-123324532D01*
X74264998Y-123324532D01*
X74038313Y-123344364D01*
X74038302Y-123344366D01*
X73818511Y-123403258D01*
X73818502Y-123403261D01*
X73612267Y-123499431D01*
X73612265Y-123499432D01*
X73425858Y-123629954D01*
X73264954Y-123790858D01*
X73134432Y-123977265D01*
X73134431Y-123977267D01*
X73107382Y-124035275D01*
X73061209Y-124087714D01*
X72994016Y-124106866D01*
X72927135Y-124086650D01*
X72882618Y-124035275D01*
X72855568Y-123977267D01*
X72855567Y-123977265D01*
X72725045Y-123790858D01*
X72564141Y-123629954D01*
X72377734Y-123499432D01*
X72377732Y-123499431D01*
X72171497Y-123403261D01*
X72171488Y-123403258D01*
X71951697Y-123344366D01*
X71951693Y-123344365D01*
X71951692Y-123344365D01*
X71951691Y-123344364D01*
X71951686Y-123344364D01*
X71725002Y-123324532D01*
X71724998Y-123324532D01*
X71498313Y-123344364D01*
X71498302Y-123344366D01*
X71278511Y-123403258D01*
X71278502Y-123403261D01*
X71072267Y-123499431D01*
X71072265Y-123499432D01*
X70885858Y-123629954D01*
X70724954Y-123790858D01*
X70594432Y-123977265D01*
X70594431Y-123977267D01*
X70567382Y-124035275D01*
X70521209Y-124087714D01*
X70454016Y-124106866D01*
X70387135Y-124086650D01*
X70342618Y-124035275D01*
X70315568Y-123977267D01*
X70315567Y-123977265D01*
X70185045Y-123790858D01*
X70024141Y-123629954D01*
X69837734Y-123499432D01*
X69837732Y-123499431D01*
X69631497Y-123403261D01*
X69631488Y-123403258D01*
X69411697Y-123344366D01*
X69411693Y-123344365D01*
X69411692Y-123344365D01*
X69411691Y-123344364D01*
X69411686Y-123344364D01*
X69185002Y-123324532D01*
X69184998Y-123324532D01*
X68958313Y-123344364D01*
X68958302Y-123344366D01*
X68738511Y-123403258D01*
X68738502Y-123403261D01*
X68532267Y-123499431D01*
X68532265Y-123499432D01*
X68345858Y-123629954D01*
X68184954Y-123790858D01*
X68054432Y-123977265D01*
X68054431Y-123977267D01*
X67958261Y-124183502D01*
X67958258Y-124183511D01*
X67899366Y-124403302D01*
X67899364Y-124403313D01*
X67879532Y-124629998D01*
X40500500Y-124629998D01*
X40500500Y-120877229D01*
X40500507Y-120875947D01*
X40969281Y-75522135D01*
X77024500Y-75522135D01*
X77024500Y-77217870D01*
X77024501Y-77217876D01*
X77030908Y-77277483D01*
X77081202Y-77412328D01*
X77081206Y-77412335D01*
X77167452Y-77527544D01*
X77167455Y-77527547D01*
X77282664Y-77613793D01*
X77282671Y-77613797D01*
X77417517Y-77664091D01*
X77417516Y-77664091D01*
X77424444Y-77664835D01*
X77477127Y-77670500D01*
X79172872Y-77670499D01*
X79232483Y-77664091D01*
X79367331Y-77613796D01*
X79482546Y-77527546D01*
X79568796Y-77412331D01*
X79619091Y-77277483D01*
X79622862Y-77242401D01*
X79649599Y-77177855D01*
X79706990Y-77138006D01*
X79776816Y-77135511D01*
X79836905Y-77171163D01*
X79847726Y-77184536D01*
X79864956Y-77209143D01*
X80025858Y-77370045D01*
X80025861Y-77370047D01*
X80212266Y-77500568D01*
X80418504Y-77596739D01*
X80418509Y-77596740D01*
X80418511Y-77596741D01*
X80471415Y-77610916D01*
X80638308Y-77655635D01*
X80800230Y-77669801D01*
X80864998Y-77675468D01*
X80865000Y-77675468D01*
X80865002Y-77675468D01*
X80921807Y-77670498D01*
X81091692Y-77655635D01*
X81311496Y-77596739D01*
X81517734Y-77500568D01*
X81704139Y-77370047D01*
X81865047Y-77209139D01*
X81995568Y-77022734D01*
X82022618Y-76964724D01*
X82068790Y-76912285D01*
X82135983Y-76893133D01*
X82202865Y-76913348D01*
X82247382Y-76964725D01*
X82274429Y-77022728D01*
X82274432Y-77022734D01*
X82404954Y-77209141D01*
X82565858Y-77370045D01*
X82565861Y-77370047D01*
X82752266Y-77500568D01*
X82958504Y-77596739D01*
X82958509Y-77596740D01*
X82958511Y-77596741D01*
X83011415Y-77610916D01*
X83178308Y-77655635D01*
X83340230Y-77669801D01*
X83404998Y-77675468D01*
X83405000Y-77675468D01*
X83405002Y-77675468D01*
X83461807Y-77670498D01*
X83631692Y-77655635D01*
X83851496Y-77596739D01*
X84057734Y-77500568D01*
X84244139Y-77370047D01*
X84405047Y-77209139D01*
X84535568Y-77022734D01*
X84562618Y-76964724D01*
X84608790Y-76912285D01*
X84675983Y-76893133D01*
X84742865Y-76913348D01*
X84787382Y-76964725D01*
X84814429Y-77022728D01*
X84814432Y-77022734D01*
X84944954Y-77209141D01*
X85105858Y-77370045D01*
X85105861Y-77370047D01*
X85292266Y-77500568D01*
X85498504Y-77596739D01*
X85498509Y-77596740D01*
X85498511Y-77596741D01*
X85551415Y-77610916D01*
X85718308Y-77655635D01*
X85880230Y-77669801D01*
X85944998Y-77675468D01*
X85945000Y-77675468D01*
X85945002Y-77675468D01*
X86001807Y-77670498D01*
X86171692Y-77655635D01*
X86391496Y-77596739D01*
X86597734Y-77500568D01*
X86784139Y-77370047D01*
X86945047Y-77209139D01*
X87075568Y-77022734D01*
X87102895Y-76964129D01*
X87149064Y-76911695D01*
X87216257Y-76892542D01*
X87283139Y-76912757D01*
X87327657Y-76964133D01*
X87354865Y-77022482D01*
X87485342Y-77208820D01*
X87646179Y-77369657D01*
X87832517Y-77500134D01*
X88038673Y-77596265D01*
X88038682Y-77596269D01*
X88234999Y-77648872D01*
X88235000Y-77648871D01*
X88235000Y-76803012D01*
X88292007Y-76835925D01*
X88419174Y-76870000D01*
X88550826Y-76870000D01*
X88677993Y-76835925D01*
X88735000Y-76803012D01*
X88735000Y-77648872D01*
X88931317Y-77596269D01*
X88931326Y-77596265D01*
X89137482Y-77500134D01*
X89323820Y-77369657D01*
X89484657Y-77208820D01*
X89615132Y-77022484D01*
X89642341Y-76964134D01*
X89688513Y-76911695D01*
X89755707Y-76892542D01*
X89822588Y-76912757D01*
X89867106Y-76964133D01*
X89894431Y-77022732D01*
X89894432Y-77022734D01*
X90024954Y-77209141D01*
X90185858Y-77370045D01*
X90185861Y-77370047D01*
X90372266Y-77500568D01*
X90578504Y-77596739D01*
X90578509Y-77596740D01*
X90578511Y-77596741D01*
X90631415Y-77610916D01*
X90798308Y-77655635D01*
X90960230Y-77669801D01*
X91024998Y-77675468D01*
X91025000Y-77675468D01*
X91025002Y-77675468D01*
X91081807Y-77670498D01*
X91251692Y-77655635D01*
X91471496Y-77596739D01*
X91677734Y-77500568D01*
X91864139Y-77370047D01*
X92025047Y-77209139D01*
X92155568Y-77022734D01*
X92182618Y-76964724D01*
X92228790Y-76912285D01*
X92295983Y-76893133D01*
X92362865Y-76913348D01*
X92407382Y-76964725D01*
X92434429Y-77022728D01*
X92434432Y-77022734D01*
X92564954Y-77209141D01*
X92725858Y-77370045D01*
X92725861Y-77370047D01*
X92912266Y-77500568D01*
X93118504Y-77596739D01*
X93118509Y-77596740D01*
X93118511Y-77596741D01*
X93171415Y-77610916D01*
X93338308Y-77655635D01*
X93500230Y-77669801D01*
X93564998Y-77675468D01*
X93565000Y-77675468D01*
X93565002Y-77675468D01*
X93621807Y-77670498D01*
X93791692Y-77655635D01*
X94011496Y-77596739D01*
X94217734Y-77500568D01*
X94404139Y-77370047D01*
X94565047Y-77209139D01*
X94695568Y-77022734D01*
X94722618Y-76964724D01*
X94768790Y-76912285D01*
X94835983Y-76893133D01*
X94902865Y-76913348D01*
X94947382Y-76964725D01*
X94974429Y-77022728D01*
X94974432Y-77022734D01*
X95104954Y-77209141D01*
X95265858Y-77370045D01*
X95265861Y-77370047D01*
X95452266Y-77500568D01*
X95658504Y-77596739D01*
X95658509Y-77596740D01*
X95658511Y-77596741D01*
X95711415Y-77610916D01*
X95878308Y-77655635D01*
X96040230Y-77669801D01*
X96104998Y-77675468D01*
X96105000Y-77675468D01*
X96105002Y-77675468D01*
X96161807Y-77670498D01*
X96331692Y-77655635D01*
X96551496Y-77596739D01*
X96757734Y-77500568D01*
X96944139Y-77370047D01*
X97105047Y-77209139D01*
X97235568Y-77022734D01*
X97331739Y-76816496D01*
X97390635Y-76596692D01*
X97410468Y-76370000D01*
X97390635Y-76143308D01*
X97331739Y-75923504D01*
X97235568Y-75717266D01*
X97105047Y-75530861D01*
X97105045Y-75530858D01*
X96944141Y-75369954D01*
X96757734Y-75239432D01*
X96757732Y-75239431D01*
X96551497Y-75143261D01*
X96551488Y-75143258D01*
X96331697Y-75084366D01*
X96331693Y-75084365D01*
X96331692Y-75084365D01*
X96331691Y-75084364D01*
X96331686Y-75084364D01*
X96105002Y-75064532D01*
X96104998Y-75064532D01*
X95878313Y-75084364D01*
X95878302Y-75084366D01*
X95658511Y-75143258D01*
X95658502Y-75143261D01*
X95452267Y-75239431D01*
X95452265Y-75239432D01*
X95265858Y-75369954D01*
X95104954Y-75530858D01*
X94974432Y-75717265D01*
X94974431Y-75717267D01*
X94947382Y-75775275D01*
X94901209Y-75827714D01*
X94834016Y-75846866D01*
X94767135Y-75826650D01*
X94722618Y-75775275D01*
X94695686Y-75717520D01*
X94695568Y-75717266D01*
X94565047Y-75530861D01*
X94565045Y-75530858D01*
X94404141Y-75369954D01*
X94217734Y-75239432D01*
X94217732Y-75239431D01*
X94011497Y-75143261D01*
X94011488Y-75143258D01*
X93791697Y-75084366D01*
X93791693Y-75084365D01*
X93791692Y-75084365D01*
X93791691Y-75084364D01*
X93791686Y-75084364D01*
X93565002Y-75064532D01*
X93564998Y-75064532D01*
X93338313Y-75084364D01*
X93338302Y-75084366D01*
X93118511Y-75143258D01*
X93118502Y-75143261D01*
X92912267Y-75239431D01*
X92912265Y-75239432D01*
X92725858Y-75369954D01*
X92564954Y-75530858D01*
X92434432Y-75717265D01*
X92434431Y-75717267D01*
X92407382Y-75775275D01*
X92361209Y-75827714D01*
X92294016Y-75846866D01*
X92227135Y-75826650D01*
X92182618Y-75775275D01*
X92155686Y-75717520D01*
X92155568Y-75717266D01*
X92025047Y-75530861D01*
X92025045Y-75530858D01*
X91864140Y-75369953D01*
X91678377Y-75239881D01*
X91634752Y-75185304D01*
X91625500Y-75138306D01*
X91625500Y-73524500D01*
X91645185Y-73457461D01*
X91697989Y-73411706D01*
X91749500Y-73400500D01*
X99913331Y-73400500D01*
X99913347Y-73400501D01*
X99920943Y-73400501D01*
X100079054Y-73400501D01*
X100079057Y-73400501D01*
X100231785Y-73359577D01*
X100293991Y-73323662D01*
X100368716Y-73280520D01*
X100480520Y-73168716D01*
X100480520Y-73168714D01*
X100490724Y-73158511D01*
X100490727Y-73158506D01*
X108280520Y-65368716D01*
X108359577Y-65231785D01*
X108400501Y-65079057D01*
X108400501Y-64920942D01*
X108400501Y-64913347D01*
X108400500Y-64913329D01*
X108400500Y-61429858D01*
X108420185Y-61362819D01*
X108472989Y-61317064D01*
X108542147Y-61307120D01*
X108605703Y-61336145D01*
X108612181Y-61342177D01*
X109563181Y-62293177D01*
X109596666Y-62354500D01*
X109599500Y-62380858D01*
X109599500Y-75110897D01*
X109579815Y-75177936D01*
X109527011Y-75223691D01*
X109457853Y-75233635D01*
X109423095Y-75223279D01*
X109325856Y-75177936D01*
X109251496Y-75143261D01*
X109251492Y-75143260D01*
X109251488Y-75143258D01*
X109031697Y-75084366D01*
X109031693Y-75084365D01*
X109031692Y-75084365D01*
X109031691Y-75084364D01*
X109031686Y-75084364D01*
X108805002Y-75064532D01*
X108804998Y-75064532D01*
X108578313Y-75084364D01*
X108578302Y-75084366D01*
X108358511Y-75143258D01*
X108358502Y-75143261D01*
X108152267Y-75239431D01*
X108152265Y-75239432D01*
X107965858Y-75369954D01*
X107804954Y-75530858D01*
X107674432Y-75717265D01*
X107674431Y-75717267D01*
X107647382Y-75775275D01*
X107601209Y-75827714D01*
X107534016Y-75846866D01*
X107467135Y-75826650D01*
X107422618Y-75775275D01*
X107395686Y-75717520D01*
X107395568Y-75717266D01*
X107265047Y-75530861D01*
X107265045Y-75530858D01*
X107104141Y-75369954D01*
X106917734Y-75239432D01*
X106917732Y-75239431D01*
X106711497Y-75143261D01*
X106711488Y-75143258D01*
X106491697Y-75084366D01*
X106491693Y-75084365D01*
X106491692Y-75084365D01*
X106491691Y-75084364D01*
X106491686Y-75084364D01*
X106265002Y-75064532D01*
X106264998Y-75064532D01*
X106038313Y-75084364D01*
X106038302Y-75084366D01*
X105818511Y-75143258D01*
X105818502Y-75143261D01*
X105612267Y-75239431D01*
X105612265Y-75239432D01*
X105425858Y-75369954D01*
X105264954Y-75530858D01*
X105134432Y-75717265D01*
X105134431Y-75717267D01*
X105107382Y-75775275D01*
X105061209Y-75827714D01*
X104994016Y-75846866D01*
X104927135Y-75826650D01*
X104882618Y-75775275D01*
X104855686Y-75717520D01*
X104855568Y-75717266D01*
X104725047Y-75530861D01*
X104725045Y-75530858D01*
X104564141Y-75369954D01*
X104377734Y-75239432D01*
X104377732Y-75239431D01*
X104171497Y-75143261D01*
X104171488Y-75143258D01*
X103951697Y-75084366D01*
X103951693Y-75084365D01*
X103951692Y-75084365D01*
X103951691Y-75084364D01*
X103951686Y-75084364D01*
X103725002Y-75064532D01*
X103724998Y-75064532D01*
X103498313Y-75084364D01*
X103498302Y-75084366D01*
X103278511Y-75143258D01*
X103278502Y-75143261D01*
X103072267Y-75239431D01*
X103072265Y-75239432D01*
X102885858Y-75369954D01*
X102724954Y-75530858D01*
X102594432Y-75717265D01*
X102594431Y-75717267D01*
X102567382Y-75775275D01*
X102521209Y-75827714D01*
X102454016Y-75846866D01*
X102387135Y-75826650D01*
X102342618Y-75775275D01*
X102315686Y-75717520D01*
X102315568Y-75717266D01*
X102185047Y-75530861D01*
X102185045Y-75530858D01*
X102024141Y-75369954D01*
X101837734Y-75239432D01*
X101837732Y-75239431D01*
X101631497Y-75143261D01*
X101631488Y-75143258D01*
X101411697Y-75084366D01*
X101411693Y-75084365D01*
X101411692Y-75084365D01*
X101411691Y-75084364D01*
X101411686Y-75084364D01*
X101185002Y-75064532D01*
X101184998Y-75064532D01*
X100958313Y-75084364D01*
X100958302Y-75084366D01*
X100738511Y-75143258D01*
X100738502Y-75143261D01*
X100532267Y-75239431D01*
X100532265Y-75239432D01*
X100345858Y-75369954D01*
X100184954Y-75530858D01*
X100054432Y-75717265D01*
X100054431Y-75717267D01*
X99958261Y-75923502D01*
X99958258Y-75923511D01*
X99899366Y-76143302D01*
X99899364Y-76143313D01*
X99879532Y-76369998D01*
X99879532Y-76370001D01*
X99899364Y-76596686D01*
X99899366Y-76596697D01*
X99958258Y-76816488D01*
X99958261Y-76816497D01*
X100054431Y-77022732D01*
X100054432Y-77022734D01*
X100184954Y-77209141D01*
X100345858Y-77370045D01*
X100345861Y-77370047D01*
X100532266Y-77500568D01*
X100738504Y-77596739D01*
X100738509Y-77596740D01*
X100738511Y-77596741D01*
X100791415Y-77610916D01*
X100958308Y-77655635D01*
X101120230Y-77669801D01*
X101184998Y-77675468D01*
X101185000Y-77675468D01*
X101185002Y-77675468D01*
X101241807Y-77670498D01*
X101411692Y-77655635D01*
X101631496Y-77596739D01*
X101837734Y-77500568D01*
X102024139Y-77370047D01*
X102185047Y-77209139D01*
X102315568Y-77022734D01*
X102342618Y-76964724D01*
X102388790Y-76912285D01*
X102455983Y-76893133D01*
X102522865Y-76913348D01*
X102567382Y-76964725D01*
X102594429Y-77022728D01*
X102594432Y-77022734D01*
X102724954Y-77209141D01*
X102885858Y-77370045D01*
X102885861Y-77370047D01*
X103072266Y-77500568D01*
X103278504Y-77596739D01*
X103278509Y-77596740D01*
X103278511Y-77596741D01*
X103331415Y-77610916D01*
X103498308Y-77655635D01*
X103660230Y-77669801D01*
X103724998Y-77675468D01*
X103725000Y-77675468D01*
X103725002Y-77675468D01*
X103781807Y-77670498D01*
X103951692Y-77655635D01*
X104171496Y-77596739D01*
X104377734Y-77500568D01*
X104564139Y-77370047D01*
X104725047Y-77209139D01*
X104855568Y-77022734D01*
X104882618Y-76964724D01*
X104928790Y-76912285D01*
X104995983Y-76893133D01*
X105062865Y-76913348D01*
X105107382Y-76964725D01*
X105134429Y-77022728D01*
X105134432Y-77022734D01*
X105264954Y-77209141D01*
X105425858Y-77370045D01*
X105425861Y-77370047D01*
X105612266Y-77500568D01*
X105818504Y-77596739D01*
X105818509Y-77596740D01*
X105818511Y-77596741D01*
X105871415Y-77610916D01*
X106038308Y-77655635D01*
X106200230Y-77669801D01*
X106264998Y-77675468D01*
X106265000Y-77675468D01*
X106265002Y-77675468D01*
X106321807Y-77670498D01*
X106491692Y-77655635D01*
X106711496Y-77596739D01*
X106917734Y-77500568D01*
X107104139Y-77370047D01*
X107265047Y-77209139D01*
X107395568Y-77022734D01*
X107422618Y-76964724D01*
X107468790Y-76912285D01*
X107535983Y-76893133D01*
X107602865Y-76913348D01*
X107647382Y-76964725D01*
X107674429Y-77022728D01*
X107674432Y-77022734D01*
X107804954Y-77209141D01*
X107965858Y-77370045D01*
X107965861Y-77370047D01*
X108152266Y-77500568D01*
X108358504Y-77596739D01*
X108358509Y-77596740D01*
X108358511Y-77596741D01*
X108411415Y-77610916D01*
X108578308Y-77655635D01*
X108740230Y-77669801D01*
X108804998Y-77675468D01*
X108805000Y-77675468D01*
X108805002Y-77675468D01*
X108861807Y-77670498D01*
X109031692Y-77655635D01*
X109251496Y-77596739D01*
X109423096Y-77516719D01*
X109492172Y-77506228D01*
X109555956Y-77534747D01*
X109594196Y-77593224D01*
X109599500Y-77629102D01*
X109599500Y-112513330D01*
X109599499Y-112513348D01*
X109599499Y-112679054D01*
X109599498Y-112679054D01*
X109599499Y-112679057D01*
X109640423Y-112831785D01*
X109657993Y-112862217D01*
X109657994Y-112862219D01*
X109657995Y-112862219D01*
X109719479Y-112968714D01*
X109719481Y-112968717D01*
X109838349Y-113087585D01*
X109838355Y-113087590D01*
X125365139Y-128614374D01*
X125365149Y-128614385D01*
X125369479Y-128618715D01*
X125369480Y-128618716D01*
X125481284Y-128730520D01*
X125568095Y-128780639D01*
X125568097Y-128780641D01*
X125618213Y-128809576D01*
X125618215Y-128809577D01*
X125770942Y-128850500D01*
X125770943Y-128850500D01*
X126863331Y-128850500D01*
X126863347Y-128850501D01*
X126870943Y-128850501D01*
X127029054Y-128850501D01*
X127029057Y-128850501D01*
X127181785Y-128809577D01*
X127231904Y-128780639D01*
X127318716Y-128730520D01*
X127430520Y-128618716D01*
X127430520Y-128618714D01*
X127440728Y-128608507D01*
X127440730Y-128608504D01*
X127958506Y-128090728D01*
X127958511Y-128090724D01*
X127968714Y-128080520D01*
X127968716Y-128080520D01*
X128080520Y-127968716D01*
X128130998Y-127881284D01*
X128159577Y-127831785D01*
X128200501Y-127679057D01*
X128200501Y-127520943D01*
X128200501Y-127513348D01*
X128200500Y-127513330D01*
X128200500Y-123844615D01*
X128220185Y-123777576D01*
X128232343Y-123761650D01*
X128288489Y-123699295D01*
X128377880Y-123544465D01*
X128433127Y-123374433D01*
X128451815Y-123196630D01*
X128433127Y-123018827D01*
X128377880Y-122848795D01*
X128288489Y-122693965D01*
X128241633Y-122641926D01*
X128168865Y-122561108D01*
X128168862Y-122561106D01*
X128168861Y-122561105D01*
X128168860Y-122561104D01*
X128024223Y-122456018D01*
X127860897Y-122383301D01*
X127860895Y-122383300D01*
X127733224Y-122356163D01*
X127686021Y-122346130D01*
X127507239Y-122346130D01*
X127403483Y-122368184D01*
X127333816Y-122362867D01*
X127278083Y-122320729D01*
X127253978Y-122255149D01*
X127269155Y-122186948D01*
X127290019Y-122159215D01*
X129383887Y-120065346D01*
X129445208Y-120031863D01*
X129497347Y-120031739D01*
X129585609Y-120050500D01*
X129764389Y-120050500D01*
X129764391Y-120050500D01*
X129939267Y-120013329D01*
X130102593Y-119940612D01*
X130247230Y-119835526D01*
X130366859Y-119702665D01*
X130456250Y-119547835D01*
X130511497Y-119377803D01*
X130530185Y-119200000D01*
X130511497Y-119022197D01*
X130463729Y-118875182D01*
X130456252Y-118852170D01*
X130456249Y-118852164D01*
X130366859Y-118697335D01*
X130297393Y-118620185D01*
X130247235Y-118564478D01*
X130247232Y-118564476D01*
X130247231Y-118564475D01*
X130247230Y-118564474D01*
X130102593Y-118459388D01*
X129939267Y-118386671D01*
X129939265Y-118386670D01*
X129811594Y-118359533D01*
X129764391Y-118349500D01*
X129585609Y-118349500D01*
X129554954Y-118356015D01*
X129410733Y-118386670D01*
X129410728Y-118386672D01*
X129247408Y-118459387D01*
X129102768Y-118564475D01*
X128983139Y-118697336D01*
X128895287Y-118849501D01*
X128875581Y-118875182D01*
X126938471Y-120812292D01*
X126877148Y-120845777D01*
X126807456Y-120840793D01*
X126751523Y-120798921D01*
X126743403Y-120786611D01*
X126718039Y-120742680D01*
X126691859Y-120697335D01*
X126572235Y-120564478D01*
X126572232Y-120564476D01*
X126572231Y-120564475D01*
X126572230Y-120564474D01*
X126427593Y-120459388D01*
X126264267Y-120386671D01*
X126264265Y-120386670D01*
X126136594Y-120359533D01*
X126089391Y-120349500D01*
X126089390Y-120349500D01*
X126050097Y-120349500D01*
X125983058Y-120329815D01*
X125962416Y-120313181D01*
X125386819Y-119737584D01*
X125353334Y-119676261D01*
X125350500Y-119649903D01*
X125350500Y-118439060D01*
X125350501Y-118439047D01*
X125350501Y-118270944D01*
X125309576Y-118118214D01*
X125309573Y-118118209D01*
X125230524Y-117981290D01*
X125230518Y-117981282D01*
X124768717Y-117519481D01*
X124768709Y-117519475D01*
X124666936Y-117460717D01*
X124666934Y-117460716D01*
X124631790Y-117440425D01*
X124631789Y-117440424D01*
X124619263Y-117437067D01*
X124479057Y-117399499D01*
X124320943Y-117399499D01*
X124313347Y-117399499D01*
X124313331Y-117399500D01*
X122029494Y-117399500D01*
X121962455Y-117379815D01*
X121916700Y-117327011D01*
X121906756Y-117257853D01*
X121935781Y-117194297D01*
X121979056Y-117162221D01*
X122027593Y-117140612D01*
X122172230Y-117035526D01*
X122291859Y-116902665D01*
X122381250Y-116747835D01*
X122436497Y-116577803D01*
X122455185Y-116400000D01*
X122436497Y-116222197D01*
X122381250Y-116052165D01*
X122291859Y-115897335D01*
X122245003Y-115845296D01*
X122172235Y-115764478D01*
X122172232Y-115764476D01*
X122172231Y-115764475D01*
X122172230Y-115764474D01*
X122027593Y-115659388D01*
X121864267Y-115586671D01*
X121864265Y-115586670D01*
X121736594Y-115559533D01*
X121689391Y-115549500D01*
X121510609Y-115549500D01*
X121479954Y-115556015D01*
X121335733Y-115586670D01*
X121335728Y-115586672D01*
X121172408Y-115659387D01*
X121027768Y-115764475D01*
X120908140Y-115897336D01*
X120818750Y-116052164D01*
X120818747Y-116052170D01*
X120763504Y-116222192D01*
X120763503Y-116222195D01*
X120748706Y-116362977D01*
X120722121Y-116427592D01*
X120713066Y-116437696D01*
X119787584Y-117363181D01*
X119726261Y-117396666D01*
X119699903Y-117399500D01*
X118058729Y-117399500D01*
X117991690Y-117379815D01*
X117975755Y-117367649D01*
X117972233Y-117364477D01*
X117972230Y-117364474D01*
X117827593Y-117259388D01*
X117664267Y-117186671D01*
X117664265Y-117186670D01*
X117536594Y-117159533D01*
X117489391Y-117149500D01*
X117310609Y-117149500D01*
X117279954Y-117156015D01*
X117135733Y-117186670D01*
X117135728Y-117186672D01*
X116972408Y-117259387D01*
X116827768Y-117364475D01*
X116708140Y-117497336D01*
X116618750Y-117652164D01*
X116618747Y-117652170D01*
X116563504Y-117822192D01*
X116563502Y-117822201D01*
X116562898Y-117827950D01*
X116536310Y-117892563D01*
X116479010Y-117932544D01*
X116409190Y-117935200D01*
X116351897Y-117902662D01*
X111949229Y-113499994D01*
X129494357Y-113499994D01*
X129494357Y-113500005D01*
X129514890Y-113747812D01*
X129514892Y-113747824D01*
X129575936Y-113988881D01*
X129675826Y-114216606D01*
X129811833Y-114424782D01*
X129811836Y-114424785D01*
X129980256Y-114607738D01*
X130176491Y-114760474D01*
X130395190Y-114878828D01*
X130630386Y-114959571D01*
X130875665Y-115000500D01*
X131124335Y-115000500D01*
X131369614Y-114959571D01*
X131604810Y-114878828D01*
X131823509Y-114760474D01*
X132019744Y-114607738D01*
X132188164Y-114424785D01*
X132324173Y-114216607D01*
X132424063Y-113988881D01*
X132485108Y-113747821D01*
X132505643Y-113500000D01*
X132485108Y-113252179D01*
X132424063Y-113011119D01*
X132405463Y-112968716D01*
X132324173Y-112783393D01*
X132188166Y-112575217D01*
X132131195Y-112513330D01*
X132019744Y-112392262D01*
X131823509Y-112239526D01*
X131823507Y-112239525D01*
X131823506Y-112239524D01*
X131604811Y-112121172D01*
X131604802Y-112121169D01*
X131369616Y-112040429D01*
X131124335Y-111999500D01*
X130875665Y-111999500D01*
X130630383Y-112040429D01*
X130395197Y-112121169D01*
X130395188Y-112121172D01*
X130176493Y-112239524D01*
X129980257Y-112392261D01*
X129811833Y-112575217D01*
X129675826Y-112783393D01*
X129575936Y-113011118D01*
X129514892Y-113252175D01*
X129514890Y-113252187D01*
X129494357Y-113499994D01*
X111949229Y-113499994D01*
X110836819Y-112387584D01*
X110803334Y-112326261D01*
X110800500Y-112299903D01*
X110800500Y-108999994D01*
X124994357Y-108999994D01*
X124994357Y-109000005D01*
X125014890Y-109247812D01*
X125014892Y-109247824D01*
X125075936Y-109488881D01*
X125175826Y-109716606D01*
X125311833Y-109924782D01*
X125311836Y-109924785D01*
X125480256Y-110107738D01*
X125676491Y-110260474D01*
X125895190Y-110378828D01*
X126130386Y-110459571D01*
X126375665Y-110500500D01*
X126624335Y-110500500D01*
X126869614Y-110459571D01*
X127104810Y-110378828D01*
X127323509Y-110260474D01*
X127519744Y-110107738D01*
X127688164Y-109924785D01*
X127824173Y-109716607D01*
X127924063Y-109488881D01*
X127985108Y-109247821D01*
X128005643Y-109000000D01*
X127985108Y-108752179D01*
X127924063Y-108511119D01*
X127824173Y-108283393D01*
X127688166Y-108075217D01*
X127666557Y-108051744D01*
X127519744Y-107892262D01*
X127323509Y-107739526D01*
X127323507Y-107739525D01*
X127323506Y-107739524D01*
X127104811Y-107621172D01*
X127104802Y-107621169D01*
X126869616Y-107540429D01*
X126624335Y-107499500D01*
X126375665Y-107499500D01*
X126130383Y-107540429D01*
X125895197Y-107621169D01*
X125895188Y-107621172D01*
X125676493Y-107739524D01*
X125480257Y-107892261D01*
X125311833Y-108075217D01*
X125175826Y-108283393D01*
X125075936Y-108511118D01*
X125014892Y-108752175D01*
X125014890Y-108752187D01*
X124994357Y-108999994D01*
X110800500Y-108999994D01*
X110800500Y-105809997D01*
X123922677Y-105809997D01*
X123922677Y-105810002D01*
X123941929Y-106030062D01*
X123941930Y-106030070D01*
X123999104Y-106243445D01*
X123999105Y-106243447D01*
X123999106Y-106243450D01*
X124032382Y-106314811D01*
X124092466Y-106443662D01*
X124092468Y-106443666D01*
X124219170Y-106624615D01*
X124219175Y-106624621D01*
X124375378Y-106780824D01*
X124375384Y-106780829D01*
X124556333Y-106907531D01*
X124556335Y-106907532D01*
X124556338Y-106907534D01*
X124756550Y-107000894D01*
X124969932Y-107058070D01*
X125127123Y-107071822D01*
X125189998Y-107077323D01*
X125190000Y-107077323D01*
X125190002Y-107077323D01*
X125245017Y-107072509D01*
X125410068Y-107058070D01*
X125623450Y-107000894D01*
X125823662Y-106907534D01*
X126004620Y-106780826D01*
X126160826Y-106624620D01*
X126287534Y-106443662D01*
X126347618Y-106314811D01*
X126393790Y-106262371D01*
X126460983Y-106243219D01*
X126527865Y-106263435D01*
X126572382Y-106314811D01*
X126632464Y-106443658D01*
X126632468Y-106443666D01*
X126759170Y-106624615D01*
X126759175Y-106624621D01*
X126915378Y-106780824D01*
X126915384Y-106780829D01*
X127096333Y-106907531D01*
X127096335Y-106907532D01*
X127096338Y-106907534D01*
X127296550Y-107000894D01*
X127509932Y-107058070D01*
X127667123Y-107071822D01*
X127729998Y-107077323D01*
X127730000Y-107077323D01*
X127730002Y-107077323D01*
X127785017Y-107072509D01*
X127950068Y-107058070D01*
X128163450Y-107000894D01*
X128363662Y-106907534D01*
X128544620Y-106780826D01*
X128700826Y-106624620D01*
X128827534Y-106443662D01*
X128887618Y-106314811D01*
X128933790Y-106262371D01*
X129000983Y-106243219D01*
X129067865Y-106263435D01*
X129112382Y-106314811D01*
X129172464Y-106443658D01*
X129172468Y-106443666D01*
X129299170Y-106624615D01*
X129299175Y-106624621D01*
X129455378Y-106780824D01*
X129455384Y-106780829D01*
X129636333Y-106907531D01*
X129636335Y-106907532D01*
X129636338Y-106907534D01*
X129836550Y-107000894D01*
X130049932Y-107058070D01*
X130207123Y-107071822D01*
X130269998Y-107077323D01*
X130270000Y-107077323D01*
X130270002Y-107077323D01*
X130325017Y-107072509D01*
X130490068Y-107058070D01*
X130703450Y-107000894D01*
X130903662Y-106907534D01*
X131084620Y-106780826D01*
X131240826Y-106624620D01*
X131367534Y-106443662D01*
X131427618Y-106314811D01*
X131473790Y-106262371D01*
X131540983Y-106243219D01*
X131607865Y-106263435D01*
X131652382Y-106314811D01*
X131712464Y-106443658D01*
X131712468Y-106443666D01*
X131839170Y-106624615D01*
X131839175Y-106624621D01*
X131995378Y-106780824D01*
X131995384Y-106780829D01*
X132176333Y-106907531D01*
X132176335Y-106907532D01*
X132176338Y-106907534D01*
X132376550Y-107000894D01*
X132589932Y-107058070D01*
X132747123Y-107071822D01*
X132809998Y-107077323D01*
X132810000Y-107077323D01*
X132810002Y-107077323D01*
X132865017Y-107072509D01*
X133030068Y-107058070D01*
X133243450Y-107000894D01*
X133443662Y-106907534D01*
X133624620Y-106780826D01*
X133780826Y-106624620D01*
X133907534Y-106443662D01*
X134000894Y-106243450D01*
X134058070Y-106030068D01*
X134077323Y-105810000D01*
X134058070Y-105589932D01*
X134000894Y-105376550D01*
X133907534Y-105176339D01*
X133780826Y-104995380D01*
X133624620Y-104839174D01*
X133624616Y-104839171D01*
X133624615Y-104839170D01*
X133443666Y-104712468D01*
X133443662Y-104712466D01*
X133443660Y-104712465D01*
X133243450Y-104619106D01*
X133243447Y-104619105D01*
X133243445Y-104619104D01*
X133030070Y-104561930D01*
X133030062Y-104561929D01*
X132810002Y-104542677D01*
X132809998Y-104542677D01*
X132589937Y-104561929D01*
X132589929Y-104561930D01*
X132376554Y-104619104D01*
X132376548Y-104619107D01*
X132176340Y-104712465D01*
X132176338Y-104712466D01*
X131995377Y-104839175D01*
X131839175Y-104995377D01*
X131712466Y-105176338D01*
X131712465Y-105176340D01*
X131652382Y-105305189D01*
X131606209Y-105357628D01*
X131539016Y-105376780D01*
X131472135Y-105356564D01*
X131427618Y-105305189D01*
X131367534Y-105176340D01*
X131367533Y-105176338D01*
X131240827Y-104995381D01*
X131240823Y-104995377D01*
X131084620Y-104839174D01*
X131084616Y-104839171D01*
X131084615Y-104839170D01*
X130903666Y-104712468D01*
X130903662Y-104712466D01*
X130903660Y-104712465D01*
X130703450Y-104619106D01*
X130703447Y-104619105D01*
X130703445Y-104619104D01*
X130490070Y-104561930D01*
X130490062Y-104561929D01*
X130270002Y-104542677D01*
X130269998Y-104542677D01*
X130049937Y-104561929D01*
X130049929Y-104561930D01*
X129836554Y-104619104D01*
X129836548Y-104619107D01*
X129636340Y-104712465D01*
X129636338Y-104712466D01*
X129455377Y-104839175D01*
X129299175Y-104995377D01*
X129172466Y-105176338D01*
X129172465Y-105176340D01*
X129112382Y-105305189D01*
X129066209Y-105357628D01*
X128999016Y-105376780D01*
X128932135Y-105356564D01*
X128887618Y-105305189D01*
X128827534Y-105176340D01*
X128827533Y-105176338D01*
X128700827Y-104995381D01*
X128700823Y-104995377D01*
X128544620Y-104839174D01*
X128544616Y-104839171D01*
X128544615Y-104839170D01*
X128363666Y-104712468D01*
X128363662Y-104712466D01*
X128363660Y-104712465D01*
X128163450Y-104619106D01*
X128163447Y-104619105D01*
X128163445Y-104619104D01*
X127950070Y-104561930D01*
X127950062Y-104561929D01*
X127730002Y-104542677D01*
X127729998Y-104542677D01*
X127509937Y-104561929D01*
X127509929Y-104561930D01*
X127296554Y-104619104D01*
X127296548Y-104619107D01*
X127096340Y-104712465D01*
X127096338Y-104712466D01*
X126915377Y-104839175D01*
X126759175Y-104995377D01*
X126632466Y-105176338D01*
X126632465Y-105176340D01*
X126572382Y-105305189D01*
X126526209Y-105357628D01*
X126459016Y-105376780D01*
X126392135Y-105356564D01*
X126347618Y-105305189D01*
X126287534Y-105176340D01*
X126287533Y-105176338D01*
X126160827Y-104995381D01*
X126160823Y-104995377D01*
X126004620Y-104839174D01*
X126004616Y-104839171D01*
X126004615Y-104839170D01*
X125823666Y-104712468D01*
X125823662Y-104712466D01*
X125823660Y-104712465D01*
X125623450Y-104619106D01*
X125623447Y-104619105D01*
X125623445Y-104619104D01*
X125410070Y-104561930D01*
X125410062Y-104561929D01*
X125190002Y-104542677D01*
X125189998Y-104542677D01*
X124969937Y-104561929D01*
X124969929Y-104561930D01*
X124756554Y-104619104D01*
X124756548Y-104619107D01*
X124556340Y-104712465D01*
X124556338Y-104712466D01*
X124375377Y-104839175D01*
X124219175Y-104995377D01*
X124092466Y-105176338D01*
X124092465Y-105176340D01*
X123999107Y-105376548D01*
X123999104Y-105376554D01*
X123941930Y-105589929D01*
X123941929Y-105589937D01*
X123922677Y-105809997D01*
X110800500Y-105809997D01*
X110800500Y-98189997D01*
X123922677Y-98189997D01*
X123922677Y-98190002D01*
X123941929Y-98410062D01*
X123941930Y-98410070D01*
X123999104Y-98623445D01*
X123999105Y-98623447D01*
X123999106Y-98623450D01*
X124032382Y-98694811D01*
X124092466Y-98823662D01*
X124092468Y-98823666D01*
X124219170Y-99004615D01*
X124219175Y-99004621D01*
X124375378Y-99160824D01*
X124375384Y-99160829D01*
X124556333Y-99287531D01*
X124556335Y-99287532D01*
X124556338Y-99287534D01*
X124756550Y-99380894D01*
X124969932Y-99438070D01*
X125127123Y-99451822D01*
X125189998Y-99457323D01*
X125190000Y-99457323D01*
X125190002Y-99457323D01*
X125245151Y-99452498D01*
X125410068Y-99438070D01*
X125623450Y-99380894D01*
X125823662Y-99287534D01*
X126004620Y-99160826D01*
X126160826Y-99004620D01*
X126287534Y-98823662D01*
X126347618Y-98694811D01*
X126393790Y-98642371D01*
X126460983Y-98623219D01*
X126527865Y-98643435D01*
X126572382Y-98694811D01*
X126632464Y-98823658D01*
X126632468Y-98823666D01*
X126759170Y-99004615D01*
X126759175Y-99004621D01*
X126915378Y-99160824D01*
X126915384Y-99160829D01*
X127096333Y-99287531D01*
X127096335Y-99287532D01*
X127096338Y-99287534D01*
X127296550Y-99380894D01*
X127509932Y-99438070D01*
X127667123Y-99451822D01*
X127729998Y-99457323D01*
X127730000Y-99457323D01*
X127730002Y-99457323D01*
X127785151Y-99452498D01*
X127950068Y-99438070D01*
X128163450Y-99380894D01*
X128363662Y-99287534D01*
X128544620Y-99160826D01*
X128700826Y-99004620D01*
X128827534Y-98823662D01*
X128887618Y-98694811D01*
X128933790Y-98642371D01*
X129000983Y-98623219D01*
X129067865Y-98643435D01*
X129112382Y-98694811D01*
X129172464Y-98823658D01*
X129172468Y-98823666D01*
X129299170Y-99004615D01*
X129299175Y-99004621D01*
X129455378Y-99160824D01*
X129455384Y-99160829D01*
X129636333Y-99287531D01*
X129636335Y-99287532D01*
X129636338Y-99287534D01*
X129836550Y-99380894D01*
X130049932Y-99438070D01*
X130207123Y-99451822D01*
X130269998Y-99457323D01*
X130270000Y-99457323D01*
X130270002Y-99457323D01*
X130325151Y-99452498D01*
X130490068Y-99438070D01*
X130703450Y-99380894D01*
X130903662Y-99287534D01*
X131084620Y-99160826D01*
X131240826Y-99004620D01*
X131321927Y-98888795D01*
X131376501Y-98845172D01*
X131445999Y-98837978D01*
X131508354Y-98869500D01*
X131543769Y-98929730D01*
X131547500Y-98959917D01*
X131547500Y-98999868D01*
X131547501Y-98999876D01*
X131553908Y-99059483D01*
X131604202Y-99194328D01*
X131604206Y-99194335D01*
X131690452Y-99309544D01*
X131690455Y-99309547D01*
X131805664Y-99395793D01*
X131805671Y-99395797D01*
X131940517Y-99446091D01*
X131940516Y-99446091D01*
X131947444Y-99446835D01*
X132000127Y-99452500D01*
X133619872Y-99452499D01*
X133679483Y-99446091D01*
X133814331Y-99395796D01*
X133929546Y-99309546D01*
X134015796Y-99194331D01*
X134066091Y-99059483D01*
X134072500Y-98999873D01*
X134072499Y-97380128D01*
X134066091Y-97320517D01*
X134015796Y-97185669D01*
X134015795Y-97185668D01*
X134015793Y-97185664D01*
X133929547Y-97070455D01*
X133929544Y-97070452D01*
X133814335Y-96984206D01*
X133814328Y-96984202D01*
X133679482Y-96933908D01*
X133679483Y-96933908D01*
X133619883Y-96927501D01*
X133619881Y-96927500D01*
X133619873Y-96927500D01*
X133619864Y-96927500D01*
X132000129Y-96927500D01*
X132000123Y-96927501D01*
X131940516Y-96933908D01*
X131805671Y-96984202D01*
X131805664Y-96984206D01*
X131690455Y-97070452D01*
X131690452Y-97070455D01*
X131604206Y-97185664D01*
X131604202Y-97185671D01*
X131553908Y-97320517D01*
X131548010Y-97375380D01*
X131547501Y-97380123D01*
X131547500Y-97380135D01*
X131547500Y-97420079D01*
X131527815Y-97487118D01*
X131475011Y-97532873D01*
X131405853Y-97542817D01*
X131342297Y-97513792D01*
X131321925Y-97491202D01*
X131240827Y-97375381D01*
X131185962Y-97320516D01*
X131084620Y-97219174D01*
X131084616Y-97219171D01*
X131084615Y-97219170D01*
X130903666Y-97092468D01*
X130903662Y-97092466D01*
X130903660Y-97092465D01*
X130703450Y-96999106D01*
X130703447Y-96999105D01*
X130703445Y-96999104D01*
X130490070Y-96941930D01*
X130490062Y-96941929D01*
X130270002Y-96922677D01*
X130269998Y-96922677D01*
X130049937Y-96941929D01*
X130049929Y-96941930D01*
X129836554Y-96999104D01*
X129836548Y-96999107D01*
X129636340Y-97092465D01*
X129636338Y-97092466D01*
X129455377Y-97219175D01*
X129299175Y-97375377D01*
X129172466Y-97556338D01*
X129172465Y-97556340D01*
X129112382Y-97685189D01*
X129066209Y-97737628D01*
X128999016Y-97756780D01*
X128932135Y-97736564D01*
X128887618Y-97685189D01*
X128827534Y-97556340D01*
X128827533Y-97556338D01*
X128700827Y-97375381D01*
X128645962Y-97320516D01*
X128544620Y-97219174D01*
X128544616Y-97219171D01*
X128544615Y-97219170D01*
X128363666Y-97092468D01*
X128363662Y-97092466D01*
X128363660Y-97092465D01*
X128163450Y-96999106D01*
X128163447Y-96999105D01*
X128163445Y-96999104D01*
X127950070Y-96941930D01*
X127950062Y-96941929D01*
X127730002Y-96922677D01*
X127729998Y-96922677D01*
X127509937Y-96941929D01*
X127509929Y-96941930D01*
X127296554Y-96999104D01*
X127296548Y-96999107D01*
X127096340Y-97092465D01*
X127096338Y-97092466D01*
X126915377Y-97219175D01*
X126759175Y-97375377D01*
X126632466Y-97556338D01*
X126632465Y-97556340D01*
X126572382Y-97685189D01*
X126526209Y-97737628D01*
X126459016Y-97756780D01*
X126392135Y-97736564D01*
X126347618Y-97685189D01*
X126287534Y-97556340D01*
X126287533Y-97556338D01*
X126160827Y-97375381D01*
X126105962Y-97320516D01*
X126004620Y-97219174D01*
X126004616Y-97219171D01*
X126004615Y-97219170D01*
X125823666Y-97092468D01*
X125823662Y-97092466D01*
X125823660Y-97092465D01*
X125623450Y-96999106D01*
X125623447Y-96999105D01*
X125623445Y-96999104D01*
X125410070Y-96941930D01*
X125410062Y-96941929D01*
X125190002Y-96922677D01*
X125189998Y-96922677D01*
X124969937Y-96941929D01*
X124969929Y-96941930D01*
X124756554Y-96999104D01*
X124756548Y-96999107D01*
X124556340Y-97092465D01*
X124556338Y-97092466D01*
X124375377Y-97219175D01*
X124219175Y-97375377D01*
X124092466Y-97556338D01*
X124092465Y-97556340D01*
X123999107Y-97756548D01*
X123999104Y-97756554D01*
X123941930Y-97969929D01*
X123941929Y-97969937D01*
X123922677Y-98189997D01*
X110800500Y-98189997D01*
X110800500Y-95200000D01*
X126544815Y-95200000D01*
X126563503Y-95377805D01*
X126563504Y-95377807D01*
X126618747Y-95547829D01*
X126618750Y-95547835D01*
X126708141Y-95702665D01*
X126749812Y-95748946D01*
X126827764Y-95835521D01*
X126827767Y-95835523D01*
X126827770Y-95835526D01*
X126972407Y-95940612D01*
X127135733Y-96013329D01*
X127310609Y-96050500D01*
X127310610Y-96050500D01*
X127489389Y-96050500D01*
X127489391Y-96050500D01*
X127664267Y-96013329D01*
X127827593Y-95940612D01*
X127972230Y-95835526D01*
X127972238Y-95835517D01*
X127975755Y-95832351D01*
X128038747Y-95802121D01*
X128058729Y-95800500D01*
X133299903Y-95800500D01*
X133366942Y-95820185D01*
X133387584Y-95836819D01*
X134563181Y-97012416D01*
X134596666Y-97073739D01*
X134599500Y-97100097D01*
X134599500Y-107348270D01*
X134579815Y-107415309D01*
X134567650Y-107431242D01*
X134508144Y-107497329D01*
X134508139Y-107497336D01*
X134418750Y-107652164D01*
X134418747Y-107652170D01*
X134363504Y-107822192D01*
X134363503Y-107822194D01*
X134344815Y-108000000D01*
X134363503Y-108177805D01*
X134363504Y-108177807D01*
X134418747Y-108347829D01*
X134418750Y-108347835D01*
X134508141Y-108502665D01*
X134549812Y-108548946D01*
X134627764Y-108635521D01*
X134627767Y-108635523D01*
X134627770Y-108635526D01*
X134772407Y-108740612D01*
X134935733Y-108813329D01*
X135110609Y-108850500D01*
X135110610Y-108850500D01*
X135289389Y-108850500D01*
X135289391Y-108850500D01*
X135464267Y-108813329D01*
X135627593Y-108740612D01*
X135772230Y-108635526D01*
X135891859Y-108502665D01*
X135981250Y-108347835D01*
X136036497Y-108177803D01*
X136055185Y-108000000D01*
X136036497Y-107822197D01*
X135981250Y-107652165D01*
X135891859Y-107497335D01*
X135891855Y-107497329D01*
X135832350Y-107431242D01*
X135802120Y-107368250D01*
X135800500Y-107348270D01*
X135800500Y-96889060D01*
X135800501Y-96889047D01*
X135800501Y-96720944D01*
X135759576Y-96568214D01*
X135759573Y-96568209D01*
X135680524Y-96431290D01*
X135680518Y-96431282D01*
X134087590Y-94838355D01*
X134087588Y-94838352D01*
X133968717Y-94719481D01*
X133968709Y-94719475D01*
X133866936Y-94660717D01*
X133866934Y-94660716D01*
X133831790Y-94640425D01*
X133831789Y-94640424D01*
X133819263Y-94637067D01*
X133679057Y-94599499D01*
X133520943Y-94599499D01*
X133513347Y-94599499D01*
X133513331Y-94599500D01*
X128058729Y-94599500D01*
X127991690Y-94579815D01*
X127975755Y-94567649D01*
X127972233Y-94564477D01*
X127972230Y-94564474D01*
X127827593Y-94459388D01*
X127664267Y-94386671D01*
X127664265Y-94386670D01*
X127536594Y-94359533D01*
X127489391Y-94349500D01*
X127310609Y-94349500D01*
X127279954Y-94356015D01*
X127135733Y-94386670D01*
X127135728Y-94386672D01*
X126972408Y-94459387D01*
X126827768Y-94564475D01*
X126708140Y-94697336D01*
X126618750Y-94852164D01*
X126618747Y-94852170D01*
X126563504Y-95022192D01*
X126563503Y-95022194D01*
X126544815Y-95200000D01*
X110800500Y-95200000D01*
X110800500Y-91800000D01*
X121344815Y-91800000D01*
X121363503Y-91977805D01*
X121363504Y-91977807D01*
X121418747Y-92147829D01*
X121418750Y-92147835D01*
X121508141Y-92302665D01*
X121533329Y-92330639D01*
X121627764Y-92435521D01*
X121627767Y-92435523D01*
X121627770Y-92435526D01*
X121772407Y-92540612D01*
X121935733Y-92613329D01*
X122110609Y-92650500D01*
X122110610Y-92650500D01*
X122289389Y-92650500D01*
X122289391Y-92650500D01*
X122464267Y-92613329D01*
X122627593Y-92540612D01*
X122772230Y-92435526D01*
X122772238Y-92435517D01*
X122775755Y-92432351D01*
X122838747Y-92402121D01*
X122858729Y-92400500D01*
X130513331Y-92400500D01*
X130513347Y-92400501D01*
X130520943Y-92400501D01*
X130679054Y-92400501D01*
X130679057Y-92400501D01*
X130831785Y-92359577D01*
X130881904Y-92330639D01*
X130968716Y-92280520D01*
X131080520Y-92168716D01*
X131080520Y-92168714D01*
X131090728Y-92158507D01*
X131090729Y-92158504D01*
X134362417Y-88886819D01*
X134423740Y-88853334D01*
X134450098Y-88850500D01*
X134489389Y-88850500D01*
X134489391Y-88850500D01*
X134664267Y-88813329D01*
X134827593Y-88740612D01*
X134972230Y-88635526D01*
X135091859Y-88502665D01*
X135181250Y-88347835D01*
X135236497Y-88177803D01*
X135255185Y-88000000D01*
X135236497Y-87822197D01*
X135181250Y-87652165D01*
X135091859Y-87497335D01*
X135045003Y-87445296D01*
X134972235Y-87364478D01*
X134972232Y-87364476D01*
X134972231Y-87364475D01*
X134972230Y-87364474D01*
X134827593Y-87259388D01*
X134664267Y-87186671D01*
X134664265Y-87186670D01*
X134536594Y-87159533D01*
X134489391Y-87149500D01*
X134310609Y-87149500D01*
X134279954Y-87156015D01*
X134135733Y-87186670D01*
X134135728Y-87186672D01*
X133972408Y-87259387D01*
X133827768Y-87364475D01*
X133708140Y-87497336D01*
X133618750Y-87652164D01*
X133618747Y-87652170D01*
X133563504Y-87822192D01*
X133563503Y-87822195D01*
X133548706Y-87962977D01*
X133522121Y-88027592D01*
X133513066Y-88037696D01*
X130387584Y-91163181D01*
X130326261Y-91196666D01*
X130299903Y-91199500D01*
X126521473Y-91199500D01*
X126454434Y-91179815D01*
X126408679Y-91127011D01*
X126398735Y-91057853D01*
X126407916Y-91025692D01*
X126424063Y-90988881D01*
X126485108Y-90747821D01*
X126505643Y-90500000D01*
X126485108Y-90252179D01*
X126424063Y-90011119D01*
X126324173Y-89783393D01*
X126188166Y-89575217D01*
X126166557Y-89551744D01*
X126019744Y-89392262D01*
X125823509Y-89239526D01*
X125823507Y-89239525D01*
X125823506Y-89239524D01*
X125604811Y-89121172D01*
X125604802Y-89121169D01*
X125369616Y-89040429D01*
X125124335Y-88999500D01*
X124875665Y-88999500D01*
X124630383Y-89040429D01*
X124395197Y-89121169D01*
X124395188Y-89121172D01*
X124176493Y-89239524D01*
X123980257Y-89392261D01*
X123811833Y-89575217D01*
X123675826Y-89783393D01*
X123575936Y-90011118D01*
X123514892Y-90252175D01*
X123514890Y-90252187D01*
X123494357Y-90499994D01*
X123494357Y-90500005D01*
X123514890Y-90747812D01*
X123514892Y-90747824D01*
X123575936Y-90988878D01*
X123575937Y-90988881D01*
X123592083Y-91025690D01*
X123600986Y-91094989D01*
X123571009Y-91158102D01*
X123511670Y-91194989D01*
X123478527Y-91199500D01*
X122858729Y-91199500D01*
X122791690Y-91179815D01*
X122775755Y-91167649D01*
X122772233Y-91164477D01*
X122772230Y-91164474D01*
X122627593Y-91059388D01*
X122464267Y-90986671D01*
X122464265Y-90986670D01*
X122336594Y-90959533D01*
X122289391Y-90949500D01*
X122110609Y-90949500D01*
X122079954Y-90956015D01*
X121935733Y-90986670D01*
X121935728Y-90986672D01*
X121772408Y-91059387D01*
X121627768Y-91164475D01*
X121508140Y-91297336D01*
X121418750Y-91452164D01*
X121418747Y-91452170D01*
X121363504Y-91622192D01*
X121363503Y-91622194D01*
X121344815Y-91800000D01*
X110800500Y-91800000D01*
X110800500Y-87499994D01*
X128494357Y-87499994D01*
X128494357Y-87500005D01*
X128514890Y-87747812D01*
X128514892Y-87747824D01*
X128575936Y-87988881D01*
X128675826Y-88216606D01*
X128811833Y-88424782D01*
X128811836Y-88424785D01*
X128980256Y-88607738D01*
X129176491Y-88760474D01*
X129395190Y-88878828D01*
X129630386Y-88959571D01*
X129875665Y-89000500D01*
X130124335Y-89000500D01*
X130369614Y-88959571D01*
X130604810Y-88878828D01*
X130823509Y-88760474D01*
X131019744Y-88607738D01*
X131188164Y-88424785D01*
X131324173Y-88216607D01*
X131424063Y-87988881D01*
X131485108Y-87747821D01*
X131493034Y-87652170D01*
X131505643Y-87500005D01*
X131505643Y-87499994D01*
X131485109Y-87252187D01*
X131485107Y-87252175D01*
X131424063Y-87011118D01*
X131324173Y-86783393D01*
X131188166Y-86575217D01*
X131166557Y-86551744D01*
X131019744Y-86392262D01*
X130823509Y-86239526D01*
X130823507Y-86239525D01*
X130823506Y-86239524D01*
X130604811Y-86121172D01*
X130604802Y-86121169D01*
X130369616Y-86040429D01*
X130124335Y-85999500D01*
X129875665Y-85999500D01*
X129630383Y-86040429D01*
X129395197Y-86121169D01*
X129395188Y-86121172D01*
X129176493Y-86239524D01*
X128980257Y-86392261D01*
X128811833Y-86575217D01*
X128675826Y-86783393D01*
X128575936Y-87011118D01*
X128514892Y-87252175D01*
X128514890Y-87252187D01*
X128494357Y-87499994D01*
X110800500Y-87499994D01*
X110800500Y-84499994D01*
X123994357Y-84499994D01*
X123994357Y-84500005D01*
X124014890Y-84747812D01*
X124014892Y-84747824D01*
X124075936Y-84988881D01*
X124175826Y-85216606D01*
X124311833Y-85424782D01*
X124311836Y-85424785D01*
X124480256Y-85607738D01*
X124676491Y-85760474D01*
X124895190Y-85878828D01*
X125130386Y-85959571D01*
X125375665Y-86000500D01*
X125624335Y-86000500D01*
X125869614Y-85959571D01*
X126104810Y-85878828D01*
X126323509Y-85760474D01*
X126519744Y-85607738D01*
X126688164Y-85424785D01*
X126824173Y-85216607D01*
X126924063Y-84988881D01*
X126985108Y-84747821D01*
X127005643Y-84500000D01*
X126985108Y-84252179D01*
X126930243Y-84035523D01*
X126924063Y-84011118D01*
X126824173Y-83783393D01*
X126688166Y-83575217D01*
X126666557Y-83551744D01*
X126519744Y-83392262D01*
X126323509Y-83239526D01*
X126323507Y-83239525D01*
X126323506Y-83239524D01*
X126104811Y-83121172D01*
X126104802Y-83121169D01*
X125869616Y-83040429D01*
X125624335Y-82999500D01*
X125375665Y-82999500D01*
X125130383Y-83040429D01*
X124895197Y-83121169D01*
X124895188Y-83121172D01*
X124676493Y-83239524D01*
X124480257Y-83392261D01*
X124311833Y-83575217D01*
X124175826Y-83783393D01*
X124075936Y-84011118D01*
X124014892Y-84252175D01*
X124014890Y-84252187D01*
X123994357Y-84499994D01*
X110800500Y-84499994D01*
X110800500Y-77732079D01*
X110820185Y-77665040D01*
X110872989Y-77619285D01*
X110942147Y-77609341D01*
X110956593Y-77612304D01*
X110982647Y-77619285D01*
X111118308Y-77655635D01*
X111280230Y-77669801D01*
X111344998Y-77675468D01*
X111345000Y-77675468D01*
X111345002Y-77675468D01*
X111401807Y-77670498D01*
X111571692Y-77655635D01*
X111791496Y-77596739D01*
X111997734Y-77500568D01*
X112184139Y-77370047D01*
X112345047Y-77209139D01*
X112475568Y-77022734D01*
X112502618Y-76964724D01*
X112548790Y-76912285D01*
X112615983Y-76893133D01*
X112682865Y-76913348D01*
X112727382Y-76964725D01*
X112754429Y-77022728D01*
X112754432Y-77022734D01*
X112884954Y-77209141D01*
X113045858Y-77370045D01*
X113045861Y-77370047D01*
X113232266Y-77500568D01*
X113438504Y-77596739D01*
X113438509Y-77596740D01*
X113438511Y-77596741D01*
X113491415Y-77610916D01*
X113658308Y-77655635D01*
X113820230Y-77669801D01*
X113884998Y-77675468D01*
X113885000Y-77675468D01*
X113885002Y-77675468D01*
X113941807Y-77670498D01*
X114111692Y-77655635D01*
X114331496Y-77596739D01*
X114537734Y-77500568D01*
X114724139Y-77370047D01*
X114885047Y-77209139D01*
X115015568Y-77022734D01*
X115111739Y-76816496D01*
X115170635Y-76596692D01*
X115190468Y-76370000D01*
X115170635Y-76143308D01*
X115111739Y-75923504D01*
X115015568Y-75717266D01*
X114885047Y-75530861D01*
X114885045Y-75530858D01*
X114724141Y-75369954D01*
X114537734Y-75239432D01*
X114537732Y-75239431D01*
X114331497Y-75143261D01*
X114331488Y-75143258D01*
X114111697Y-75084366D01*
X114111693Y-75084365D01*
X114111692Y-75084365D01*
X114111691Y-75084364D01*
X114111686Y-75084364D01*
X113885002Y-75064532D01*
X113884998Y-75064532D01*
X113658313Y-75084364D01*
X113658302Y-75084366D01*
X113438511Y-75143258D01*
X113438502Y-75143261D01*
X113232267Y-75239431D01*
X113232265Y-75239432D01*
X113045858Y-75369954D01*
X112884954Y-75530858D01*
X112754432Y-75717265D01*
X112754431Y-75717267D01*
X112727382Y-75775275D01*
X112681209Y-75827714D01*
X112614016Y-75846866D01*
X112547135Y-75826650D01*
X112502618Y-75775275D01*
X112475686Y-75717520D01*
X112475568Y-75717266D01*
X112345047Y-75530861D01*
X112345045Y-75530858D01*
X112184141Y-75369954D01*
X111997734Y-75239432D01*
X111997732Y-75239431D01*
X111791497Y-75143261D01*
X111791488Y-75143258D01*
X111571697Y-75084366D01*
X111571693Y-75084365D01*
X111571692Y-75084365D01*
X111571691Y-75084364D01*
X111571686Y-75084364D01*
X111345002Y-75064532D01*
X111344998Y-75064532D01*
X111118313Y-75084364D01*
X111118302Y-75084366D01*
X110956593Y-75127695D01*
X110886743Y-75126032D01*
X110828880Y-75086869D01*
X110801377Y-75022640D01*
X110800500Y-75007920D01*
X110800500Y-72689997D01*
X123422677Y-72689997D01*
X123422677Y-72690002D01*
X123441929Y-72910062D01*
X123441930Y-72910070D01*
X123499104Y-73123445D01*
X123499105Y-73123447D01*
X123499106Y-73123450D01*
X123592465Y-73323659D01*
X123592466Y-73323662D01*
X123719170Y-73504615D01*
X123719175Y-73504621D01*
X123875378Y-73660824D01*
X123875384Y-73660829D01*
X124056333Y-73787531D01*
X124056335Y-73787532D01*
X124056338Y-73787534D01*
X124256550Y-73880894D01*
X124469932Y-73938070D01*
X124627123Y-73951822D01*
X124689998Y-73957323D01*
X124690000Y-73957323D01*
X124690001Y-73957323D01*
X124700047Y-73956443D01*
X124823074Y-73945680D01*
X124891571Y-73959446D01*
X124941754Y-74008061D01*
X124957688Y-74076090D01*
X124957200Y-74082170D01*
X124944815Y-74199999D01*
X124963503Y-74377805D01*
X124963504Y-74377807D01*
X125018747Y-74547829D01*
X125018750Y-74547835D01*
X125108141Y-74702665D01*
X125149812Y-74748946D01*
X125227764Y-74835521D01*
X125227767Y-74835523D01*
X125227770Y-74835526D01*
X125372407Y-74940612D01*
X125535733Y-75013329D01*
X125710609Y-75050500D01*
X125710610Y-75050500D01*
X125889389Y-75050500D01*
X125889391Y-75050500D01*
X126064267Y-75013329D01*
X126227593Y-74940612D01*
X126372230Y-74835526D01*
X126372238Y-74835517D01*
X126375755Y-74832351D01*
X126438747Y-74802121D01*
X126458729Y-74800500D01*
X127401798Y-74800500D01*
X127468837Y-74820185D01*
X127489479Y-74836819D01*
X131682882Y-79030222D01*
X131716367Y-79091545D01*
X131711383Y-79161237D01*
X131669511Y-79217170D01*
X131666324Y-79219478D01*
X131495378Y-79339174D01*
X131339175Y-79495377D01*
X131212466Y-79676338D01*
X131212465Y-79676340D01*
X131152382Y-79805189D01*
X131106209Y-79857628D01*
X131039016Y-79876780D01*
X130972135Y-79856564D01*
X130927618Y-79805189D01*
X130892272Y-79729390D01*
X130867534Y-79676339D01*
X130740826Y-79495380D01*
X130584620Y-79339174D01*
X130584616Y-79339171D01*
X130584615Y-79339170D01*
X130403666Y-79212468D01*
X130403662Y-79212466D01*
X130403660Y-79212465D01*
X130203450Y-79119106D01*
X130203447Y-79119105D01*
X130203445Y-79119104D01*
X129990070Y-79061930D01*
X129990062Y-79061929D01*
X129770002Y-79042677D01*
X129769998Y-79042677D01*
X129549937Y-79061929D01*
X129549929Y-79061930D01*
X129336554Y-79119104D01*
X129336548Y-79119107D01*
X129136340Y-79212465D01*
X129136338Y-79212466D01*
X128955377Y-79339175D01*
X128799175Y-79495377D01*
X128672466Y-79676338D01*
X128672465Y-79676340D01*
X128612382Y-79805189D01*
X128566209Y-79857628D01*
X128499016Y-79876780D01*
X128432135Y-79856564D01*
X128387618Y-79805189D01*
X128352272Y-79729390D01*
X128327534Y-79676339D01*
X128200826Y-79495380D01*
X128044620Y-79339174D01*
X128044616Y-79339171D01*
X128044615Y-79339170D01*
X127863666Y-79212468D01*
X127863662Y-79212466D01*
X127863660Y-79212465D01*
X127663450Y-79119106D01*
X127663447Y-79119105D01*
X127663445Y-79119104D01*
X127450070Y-79061930D01*
X127450062Y-79061929D01*
X127230002Y-79042677D01*
X127229998Y-79042677D01*
X127009937Y-79061929D01*
X127009929Y-79061930D01*
X126796554Y-79119104D01*
X126796548Y-79119107D01*
X126596340Y-79212465D01*
X126596338Y-79212466D01*
X126415377Y-79339175D01*
X126259175Y-79495377D01*
X126132466Y-79676338D01*
X126132465Y-79676340D01*
X126072382Y-79805189D01*
X126026209Y-79857628D01*
X125959016Y-79876780D01*
X125892135Y-79856564D01*
X125847618Y-79805189D01*
X125812272Y-79729390D01*
X125787534Y-79676339D01*
X125660826Y-79495380D01*
X125504620Y-79339174D01*
X125504616Y-79339171D01*
X125504615Y-79339170D01*
X125323666Y-79212468D01*
X125323662Y-79212466D01*
X125323660Y-79212465D01*
X125123450Y-79119106D01*
X125123447Y-79119105D01*
X125123445Y-79119104D01*
X124910070Y-79061930D01*
X124910062Y-79061929D01*
X124690002Y-79042677D01*
X124689998Y-79042677D01*
X124469937Y-79061929D01*
X124469929Y-79061930D01*
X124256554Y-79119104D01*
X124256548Y-79119107D01*
X124056340Y-79212465D01*
X124056338Y-79212466D01*
X123875377Y-79339175D01*
X123719175Y-79495377D01*
X123592466Y-79676338D01*
X123592465Y-79676340D01*
X123499107Y-79876548D01*
X123499104Y-79876554D01*
X123441930Y-80089929D01*
X123441929Y-80089937D01*
X123422677Y-80309997D01*
X123422677Y-80310002D01*
X123441929Y-80530062D01*
X123441930Y-80530070D01*
X123499104Y-80743445D01*
X123499105Y-80743447D01*
X123499106Y-80743450D01*
X123532382Y-80814811D01*
X123592466Y-80943662D01*
X123592468Y-80943666D01*
X123719170Y-81124615D01*
X123719175Y-81124621D01*
X123875378Y-81280824D01*
X123875384Y-81280829D01*
X124056333Y-81407531D01*
X124056335Y-81407532D01*
X124056338Y-81407534D01*
X124256550Y-81500894D01*
X124469932Y-81558070D01*
X124627123Y-81571822D01*
X124689998Y-81577323D01*
X124690000Y-81577323D01*
X124690002Y-81577323D01*
X124745017Y-81572509D01*
X124910068Y-81558070D01*
X125123450Y-81500894D01*
X125323662Y-81407534D01*
X125504620Y-81280826D01*
X125660826Y-81124620D01*
X125787534Y-80943662D01*
X125847618Y-80814811D01*
X125893790Y-80762371D01*
X125960983Y-80743219D01*
X126027865Y-80763435D01*
X126072382Y-80814811D01*
X126132464Y-80943658D01*
X126132468Y-80943666D01*
X126259170Y-81124615D01*
X126259175Y-81124621D01*
X126415378Y-81280824D01*
X126415384Y-81280829D01*
X126596333Y-81407531D01*
X126596335Y-81407532D01*
X126596338Y-81407534D01*
X126796550Y-81500894D01*
X127009932Y-81558070D01*
X127167123Y-81571822D01*
X127229998Y-81577323D01*
X127230000Y-81577323D01*
X127230002Y-81577323D01*
X127285017Y-81572509D01*
X127450068Y-81558070D01*
X127663450Y-81500894D01*
X127863662Y-81407534D01*
X128044620Y-81280826D01*
X128200826Y-81124620D01*
X128327534Y-80943662D01*
X128387618Y-80814811D01*
X128433790Y-80762371D01*
X128500983Y-80743219D01*
X128567865Y-80763435D01*
X128612382Y-80814811D01*
X128672464Y-80943658D01*
X128672468Y-80943666D01*
X128799170Y-81124615D01*
X128799175Y-81124621D01*
X128955378Y-81280824D01*
X128955384Y-81280829D01*
X129136333Y-81407531D01*
X129136335Y-81407532D01*
X129136338Y-81407534D01*
X129336550Y-81500894D01*
X129549932Y-81558070D01*
X129707123Y-81571822D01*
X129769998Y-81577323D01*
X129770000Y-81577323D01*
X129770002Y-81577323D01*
X129825017Y-81572509D01*
X129990068Y-81558070D01*
X130203450Y-81500894D01*
X130403662Y-81407534D01*
X130584620Y-81280826D01*
X130740826Y-81124620D01*
X130867534Y-80943662D01*
X130927618Y-80814811D01*
X130973790Y-80762371D01*
X131040983Y-80743219D01*
X131107865Y-80763435D01*
X131152382Y-80814811D01*
X131212464Y-80943658D01*
X131212468Y-80943666D01*
X131339170Y-81124615D01*
X131339175Y-81124621D01*
X131495378Y-81280824D01*
X131495384Y-81280829D01*
X131676333Y-81407531D01*
X131676335Y-81407532D01*
X131676338Y-81407534D01*
X131876550Y-81500894D01*
X132089932Y-81558070D01*
X132247123Y-81571822D01*
X132309998Y-81577323D01*
X132310000Y-81577323D01*
X132310002Y-81577323D01*
X132365017Y-81572509D01*
X132530068Y-81558070D01*
X132743450Y-81500894D01*
X132784434Y-81481783D01*
X132823096Y-81463755D01*
X132892173Y-81453263D01*
X132955957Y-81481783D01*
X132994196Y-81540260D01*
X132999500Y-81576137D01*
X132999500Y-82748270D01*
X132979815Y-82815309D01*
X132967650Y-82831242D01*
X132908144Y-82897329D01*
X132908139Y-82897336D01*
X132818750Y-83052164D01*
X132818747Y-83052170D01*
X132763504Y-83222192D01*
X132763503Y-83222194D01*
X132744815Y-83400000D01*
X132763503Y-83577805D01*
X132763504Y-83577807D01*
X132818747Y-83747829D01*
X132818750Y-83747835D01*
X132908141Y-83902665D01*
X132949812Y-83948946D01*
X133027764Y-84035521D01*
X133027767Y-84035523D01*
X133027770Y-84035526D01*
X133172407Y-84140612D01*
X133335733Y-84213329D01*
X133510609Y-84250500D01*
X133510610Y-84250500D01*
X133689389Y-84250500D01*
X133689391Y-84250500D01*
X133864267Y-84213329D01*
X134027593Y-84140612D01*
X134172230Y-84035526D01*
X134291859Y-83902665D01*
X134381250Y-83747835D01*
X134436497Y-83577803D01*
X134455185Y-83400000D01*
X134436497Y-83222197D01*
X134381250Y-83052165D01*
X134291859Y-82897335D01*
X134291855Y-82897329D01*
X134232350Y-82831242D01*
X134202120Y-82768250D01*
X134200500Y-82748270D01*
X134200500Y-80019050D01*
X134200500Y-80019048D01*
X134159577Y-79866320D01*
X134130639Y-79816200D01*
X134080520Y-79729389D01*
X133968716Y-79617585D01*
X133968715Y-79617584D01*
X133964385Y-79613254D01*
X133964374Y-79613244D01*
X128189485Y-73838355D01*
X128189483Y-73838352D01*
X128115969Y-73764838D01*
X128082484Y-73703515D01*
X128087468Y-73633823D01*
X128115965Y-73589480D01*
X128200826Y-73504620D01*
X128327534Y-73323662D01*
X128387618Y-73194811D01*
X128433790Y-73142371D01*
X128500983Y-73123219D01*
X128567865Y-73143435D01*
X128612382Y-73194811D01*
X128672464Y-73323658D01*
X128672466Y-73323662D01*
X128799170Y-73504615D01*
X128799175Y-73504621D01*
X128955378Y-73660824D01*
X128955384Y-73660829D01*
X129136333Y-73787531D01*
X129136335Y-73787532D01*
X129136338Y-73787534D01*
X129336550Y-73880894D01*
X129549932Y-73938070D01*
X129707123Y-73951822D01*
X129769998Y-73957323D01*
X129770000Y-73957323D01*
X129770002Y-73957323D01*
X129825151Y-73952498D01*
X129990068Y-73938070D01*
X130203450Y-73880894D01*
X130403662Y-73787534D01*
X130584620Y-73660826D01*
X130740826Y-73504620D01*
X130821927Y-73388795D01*
X130876501Y-73345172D01*
X130945999Y-73337978D01*
X131008354Y-73369500D01*
X131043769Y-73429730D01*
X131047500Y-73459917D01*
X131047500Y-73499868D01*
X131047501Y-73499876D01*
X131053908Y-73559483D01*
X131104202Y-73694328D01*
X131104206Y-73694335D01*
X131190452Y-73809544D01*
X131190455Y-73809547D01*
X131305664Y-73895793D01*
X131305671Y-73895797D01*
X131440517Y-73946091D01*
X131440516Y-73946091D01*
X131447444Y-73946835D01*
X131500127Y-73952500D01*
X133119872Y-73952499D01*
X133179483Y-73946091D01*
X133314331Y-73895796D01*
X133429546Y-73809546D01*
X133515796Y-73694331D01*
X133566091Y-73559483D01*
X133572500Y-73499873D01*
X133572499Y-71880128D01*
X133566091Y-71820517D01*
X133558438Y-71799999D01*
X133515797Y-71685671D01*
X133515793Y-71685664D01*
X133429547Y-71570455D01*
X133429544Y-71570452D01*
X133314335Y-71484206D01*
X133314328Y-71484202D01*
X133179482Y-71433908D01*
X133179483Y-71433908D01*
X133119883Y-71427501D01*
X133119881Y-71427500D01*
X133119873Y-71427500D01*
X133119864Y-71427500D01*
X131500129Y-71427500D01*
X131500123Y-71427501D01*
X131440516Y-71433908D01*
X131305671Y-71484202D01*
X131305664Y-71484206D01*
X131190455Y-71570452D01*
X131190452Y-71570455D01*
X131104206Y-71685664D01*
X131104202Y-71685671D01*
X131053908Y-71820517D01*
X131048010Y-71875380D01*
X131047501Y-71880123D01*
X131047500Y-71880135D01*
X131047500Y-71920079D01*
X131027815Y-71987118D01*
X130975011Y-72032873D01*
X130905853Y-72042817D01*
X130842297Y-72013792D01*
X130821925Y-71991202D01*
X130740827Y-71875381D01*
X130665440Y-71799994D01*
X130584620Y-71719174D01*
X130584616Y-71719171D01*
X130584615Y-71719170D01*
X130403666Y-71592468D01*
X130403662Y-71592466D01*
X130356457Y-71570454D01*
X130203450Y-71499106D01*
X130203447Y-71499105D01*
X130203445Y-71499104D01*
X129990070Y-71441930D01*
X129990062Y-71441929D01*
X129770002Y-71422677D01*
X129769998Y-71422677D01*
X129549937Y-71441929D01*
X129549929Y-71441930D01*
X129336554Y-71499104D01*
X129336548Y-71499107D01*
X129136340Y-71592465D01*
X129136338Y-71592466D01*
X128955377Y-71719175D01*
X128799175Y-71875377D01*
X128672466Y-72056338D01*
X128672465Y-72056340D01*
X128612382Y-72185189D01*
X128566209Y-72237628D01*
X128499016Y-72256780D01*
X128432135Y-72236564D01*
X128387618Y-72185189D01*
X128349136Y-72102665D01*
X128327534Y-72056339D01*
X128251555Y-71947829D01*
X128200827Y-71875381D01*
X128125440Y-71799994D01*
X128044620Y-71719174D01*
X128044616Y-71719171D01*
X128044615Y-71719170D01*
X127863666Y-71592468D01*
X127863662Y-71592466D01*
X127816457Y-71570454D01*
X127663450Y-71499106D01*
X127663447Y-71499105D01*
X127663445Y-71499104D01*
X127450070Y-71441930D01*
X127450062Y-71441929D01*
X127230002Y-71422677D01*
X127229998Y-71422677D01*
X127009937Y-71441929D01*
X127009929Y-71441930D01*
X126796554Y-71499104D01*
X126796548Y-71499107D01*
X126596340Y-71592465D01*
X126596338Y-71592466D01*
X126415377Y-71719175D01*
X126259175Y-71875377D01*
X126132466Y-72056338D01*
X126132465Y-72056340D01*
X126072382Y-72185189D01*
X126026209Y-72237628D01*
X125959016Y-72256780D01*
X125892135Y-72236564D01*
X125847618Y-72185189D01*
X125809136Y-72102665D01*
X125787534Y-72056339D01*
X125711555Y-71947829D01*
X125660827Y-71875381D01*
X125585440Y-71799994D01*
X125504620Y-71719174D01*
X125504616Y-71719171D01*
X125504615Y-71719170D01*
X125323666Y-71592468D01*
X125323662Y-71592466D01*
X125276457Y-71570454D01*
X125123450Y-71499106D01*
X125123447Y-71499105D01*
X125123445Y-71499104D01*
X124910070Y-71441930D01*
X124910062Y-71441929D01*
X124690002Y-71422677D01*
X124689998Y-71422677D01*
X124469937Y-71441929D01*
X124469929Y-71441930D01*
X124256554Y-71499104D01*
X124256548Y-71499107D01*
X124056340Y-71592465D01*
X124056338Y-71592466D01*
X123875377Y-71719175D01*
X123719175Y-71875377D01*
X123592466Y-72056338D01*
X123592465Y-72056340D01*
X123499107Y-72256548D01*
X123499104Y-72256554D01*
X123441930Y-72469929D01*
X123441929Y-72469937D01*
X123422677Y-72689997D01*
X110800500Y-72689997D01*
X110800500Y-68499994D01*
X128494357Y-68499994D01*
X128494357Y-68500005D01*
X128514890Y-68747812D01*
X128514892Y-68747824D01*
X128575936Y-68988881D01*
X128675826Y-69216606D01*
X128811833Y-69424782D01*
X128811836Y-69424785D01*
X128980256Y-69607738D01*
X129176491Y-69760474D01*
X129395190Y-69878828D01*
X129630386Y-69959571D01*
X129875665Y-70000500D01*
X130124335Y-70000500D01*
X130369614Y-69959571D01*
X130604810Y-69878828D01*
X130823509Y-69760474D01*
X131019744Y-69607738D01*
X131188164Y-69424785D01*
X131324173Y-69216607D01*
X131424063Y-68988881D01*
X131485108Y-68747821D01*
X131487880Y-68714366D01*
X131505643Y-68500005D01*
X131505643Y-68499994D01*
X131485109Y-68252187D01*
X131485107Y-68252175D01*
X131424063Y-68011118D01*
X131324173Y-67783393D01*
X131188166Y-67575217D01*
X131118928Y-67500005D01*
X131019744Y-67392262D01*
X130823509Y-67239526D01*
X130823507Y-67239525D01*
X130823506Y-67239524D01*
X130604811Y-67121172D01*
X130604802Y-67121169D01*
X130369616Y-67040429D01*
X130124335Y-66999500D01*
X129875665Y-66999500D01*
X129630383Y-67040429D01*
X129395197Y-67121169D01*
X129395188Y-67121172D01*
X129176493Y-67239524D01*
X128980257Y-67392261D01*
X128811833Y-67575217D01*
X128675826Y-67783393D01*
X128575936Y-68011118D01*
X128514892Y-68252175D01*
X128514890Y-68252187D01*
X128494357Y-68499994D01*
X110800500Y-68499994D01*
X110800500Y-65499994D01*
X122994357Y-65499994D01*
X122994357Y-65500005D01*
X123014890Y-65747812D01*
X123014892Y-65747824D01*
X123075936Y-65988881D01*
X123175826Y-66216606D01*
X123311833Y-66424782D01*
X123311836Y-66424785D01*
X123480256Y-66607738D01*
X123676491Y-66760474D01*
X123676493Y-66760475D01*
X123823571Y-66840070D01*
X123895190Y-66878828D01*
X124130386Y-66959571D01*
X124375665Y-67000500D01*
X124624335Y-67000500D01*
X124869614Y-66959571D01*
X125104810Y-66878828D01*
X125323509Y-66760474D01*
X125519744Y-66607738D01*
X125688164Y-66424785D01*
X125824173Y-66216607D01*
X125924063Y-65988881D01*
X125985108Y-65747821D01*
X125993282Y-65649174D01*
X126005643Y-65500005D01*
X126005643Y-65499994D01*
X125985109Y-65252187D01*
X125985107Y-65252175D01*
X125924063Y-65011118D01*
X125824173Y-64783393D01*
X125688166Y-64575217D01*
X125631305Y-64513450D01*
X125519744Y-64392262D01*
X125323509Y-64239526D01*
X125323507Y-64239525D01*
X125323506Y-64239524D01*
X125104811Y-64121172D01*
X125104802Y-64121169D01*
X124869616Y-64040429D01*
X124624335Y-63999500D01*
X124375665Y-63999500D01*
X124130383Y-64040429D01*
X123895197Y-64121169D01*
X123895188Y-64121172D01*
X123676493Y-64239524D01*
X123480257Y-64392261D01*
X123311833Y-64575217D01*
X123175826Y-64783393D01*
X123075936Y-65011118D01*
X123014892Y-65252175D01*
X123014890Y-65252187D01*
X122994357Y-65499994D01*
X110800500Y-65499994D01*
X110800500Y-63599499D01*
X110820185Y-63532460D01*
X110872989Y-63486705D01*
X110924500Y-63475499D01*
X112522871Y-63475499D01*
X112522872Y-63475499D01*
X112582483Y-63469091D01*
X112717331Y-63418796D01*
X112832546Y-63332546D01*
X112918796Y-63217331D01*
X112969091Y-63082483D01*
X112975500Y-63022873D01*
X112975499Y-61999994D01*
X115019443Y-61999994D01*
X115019443Y-62000005D01*
X115039634Y-62243683D01*
X115039636Y-62243695D01*
X115099663Y-62480734D01*
X115197888Y-62704666D01*
X115331632Y-62909378D01*
X115497242Y-63089277D01*
X115497252Y-63089286D01*
X115690208Y-63239470D01*
X115690212Y-63239473D01*
X115867079Y-63335189D01*
X115905267Y-63355855D01*
X115905270Y-63355856D01*
X116136541Y-63435251D01*
X116136543Y-63435251D01*
X116136545Y-63435252D01*
X116377737Y-63475500D01*
X116377738Y-63475500D01*
X116622262Y-63475500D01*
X116622263Y-63475500D01*
X116863455Y-63435252D01*
X117094733Y-63355855D01*
X117309788Y-63239473D01*
X117502754Y-63089281D01*
X117668368Y-62909377D01*
X117802111Y-62704667D01*
X117900336Y-62480736D01*
X117960364Y-62243692D01*
X117966214Y-62173095D01*
X117980557Y-62000005D01*
X117980557Y-61999994D01*
X117960365Y-61756316D01*
X117960363Y-61756304D01*
X117939828Y-61675215D01*
X117900336Y-61519264D01*
X117802111Y-61295333D01*
X117773623Y-61251728D01*
X117668367Y-61090621D01*
X117502757Y-60910722D01*
X117502747Y-60910713D01*
X117309791Y-60760529D01*
X117309787Y-60760526D01*
X117094734Y-60644145D01*
X117094729Y-60644143D01*
X116863458Y-60564748D01*
X116660664Y-60530908D01*
X116622263Y-60524500D01*
X116377737Y-60524500D01*
X116339336Y-60530908D01*
X116136541Y-60564748D01*
X115905270Y-60644143D01*
X115905265Y-60644145D01*
X115690212Y-60760526D01*
X115690208Y-60760529D01*
X115497252Y-60910713D01*
X115497242Y-60910722D01*
X115331632Y-61090621D01*
X115197888Y-61295333D01*
X115099663Y-61519265D01*
X115039636Y-61756304D01*
X115039634Y-61756316D01*
X115019443Y-61999994D01*
X112975499Y-61999994D01*
X112975499Y-60977128D01*
X112969091Y-60917517D01*
X112966553Y-60910713D01*
X112918797Y-60782671D01*
X112918793Y-60782664D01*
X112832547Y-60667455D01*
X112832544Y-60667452D01*
X112717335Y-60581206D01*
X112717328Y-60581202D01*
X112582482Y-60530908D01*
X112582483Y-60530908D01*
X112522883Y-60524501D01*
X112522881Y-60524500D01*
X112522873Y-60524500D01*
X112522864Y-60524500D01*
X110477129Y-60524500D01*
X110477123Y-60524501D01*
X110417516Y-60530908D01*
X110282671Y-60581202D01*
X110282664Y-60581206D01*
X110167455Y-60667452D01*
X110167452Y-60667455D01*
X110081206Y-60782664D01*
X110081201Y-60782673D01*
X110058967Y-60842285D01*
X110017096Y-60898218D01*
X109951631Y-60922634D01*
X109883358Y-60907782D01*
X109855105Y-60886631D01*
X108556829Y-59588355D01*
X108556827Y-59588352D01*
X108437956Y-59469481D01*
X108437955Y-59469480D01*
X108351143Y-59419360D01*
X108351143Y-59419359D01*
X108351139Y-59419358D01*
X108301024Y-59390423D01*
X108148296Y-59349499D01*
X107990182Y-59349499D01*
X107982586Y-59349499D01*
X107982570Y-59349500D01*
X107617431Y-59349500D01*
X107617415Y-59349499D01*
X107609819Y-59349499D01*
X107451704Y-59349499D01*
X107375340Y-59369961D01*
X107298975Y-59390423D01*
X107298970Y-59390426D01*
X107162051Y-59469475D01*
X107162043Y-59469481D01*
X104318345Y-62313181D01*
X104257022Y-62346666D01*
X104230664Y-62349500D01*
X100710180Y-62349500D01*
X100643141Y-62329815D01*
X100597386Y-62277011D01*
X100587442Y-62207853D01*
X100597798Y-62173095D01*
X100690894Y-61973450D01*
X100748070Y-61760068D01*
X100767323Y-61540000D01*
X100763146Y-61492261D01*
X100748070Y-61319937D01*
X100748070Y-61319932D01*
X100690894Y-61106550D01*
X100597534Y-60906339D01*
X100510940Y-60782669D01*
X100470827Y-60725381D01*
X100412898Y-60667452D01*
X100314620Y-60569174D01*
X100314616Y-60569171D01*
X100314615Y-60569170D01*
X100133666Y-60442468D01*
X100133658Y-60442464D01*
X100004811Y-60382382D01*
X99952371Y-60336210D01*
X99933219Y-60269017D01*
X99953435Y-60202135D01*
X100004811Y-60157618D01*
X100010802Y-60154824D01*
X100133662Y-60097534D01*
X100314620Y-59970826D01*
X100470826Y-59814620D01*
X100597534Y-59633662D01*
X100659864Y-59499994D01*
X101494357Y-59499994D01*
X101494357Y-59500005D01*
X101514890Y-59747812D01*
X101514892Y-59747824D01*
X101575936Y-59988881D01*
X101675826Y-60216606D01*
X101811833Y-60424782D01*
X101828112Y-60442466D01*
X101980256Y-60607738D01*
X102176491Y-60760474D01*
X102395190Y-60878828D01*
X102630386Y-60959571D01*
X102875665Y-61000500D01*
X103124335Y-61000500D01*
X103369614Y-60959571D01*
X103604810Y-60878828D01*
X103823509Y-60760474D01*
X104019744Y-60607738D01*
X104188164Y-60424785D01*
X104324173Y-60216607D01*
X104424063Y-59988881D01*
X104485108Y-59747821D01*
X104494567Y-59633666D01*
X104505643Y-59500005D01*
X104505643Y-59499994D01*
X104485109Y-59252187D01*
X104485107Y-59252175D01*
X104424063Y-59011118D01*
X104324173Y-58783393D01*
X104188166Y-58575217D01*
X104070813Y-58447738D01*
X104019744Y-58392262D01*
X103823509Y-58239526D01*
X103823507Y-58239525D01*
X103823506Y-58239524D01*
X103604811Y-58121172D01*
X103604802Y-58121169D01*
X103369616Y-58040429D01*
X103124335Y-57999500D01*
X102875665Y-57999500D01*
X102630383Y-58040429D01*
X102395197Y-58121169D01*
X102395188Y-58121172D01*
X102176493Y-58239524D01*
X101980257Y-58392261D01*
X101811833Y-58575217D01*
X101675826Y-58783393D01*
X101575936Y-59011118D01*
X101514892Y-59252175D01*
X101514890Y-59252187D01*
X101494357Y-59499994D01*
X100659864Y-59499994D01*
X100690894Y-59433450D01*
X100748070Y-59220068D01*
X100767323Y-59000000D01*
X100748070Y-58779932D01*
X100690894Y-58566550D01*
X100597534Y-58366339D01*
X100492691Y-58216606D01*
X100470827Y-58185381D01*
X100406615Y-58121169D01*
X100314620Y-58029174D01*
X100314616Y-58029171D01*
X100314615Y-58029170D01*
X100133666Y-57902468D01*
X100133662Y-57902466D01*
X100086457Y-57880454D01*
X99933450Y-57809106D01*
X99933447Y-57809105D01*
X99933445Y-57809104D01*
X99720070Y-57751930D01*
X99720062Y-57751929D01*
X99500002Y-57732677D01*
X99499998Y-57732677D01*
X99279937Y-57751929D01*
X99279929Y-57751930D01*
X99066554Y-57809104D01*
X99066548Y-57809107D01*
X98866340Y-57902465D01*
X98866338Y-57902466D01*
X98685377Y-58029175D01*
X98529175Y-58185377D01*
X98402466Y-58366338D01*
X98402465Y-58366340D01*
X98309107Y-58566548D01*
X98309104Y-58566554D01*
X98251930Y-58779929D01*
X98251929Y-58779937D01*
X98232677Y-58999997D01*
X98232677Y-59000002D01*
X98251929Y-59220062D01*
X98251930Y-59220070D01*
X98309104Y-59433445D01*
X98309105Y-59433447D01*
X98309106Y-59433450D01*
X98340136Y-59499994D01*
X98402466Y-59633662D01*
X98402468Y-59633666D01*
X98529170Y-59814615D01*
X98529175Y-59814621D01*
X98685378Y-59970824D01*
X98685384Y-59970829D01*
X98866333Y-60097531D01*
X98866335Y-60097532D01*
X98866338Y-60097534D01*
X98985748Y-60153215D01*
X98995189Y-60157618D01*
X99047628Y-60203790D01*
X99066780Y-60270984D01*
X99046564Y-60337865D01*
X98995189Y-60382382D01*
X98866340Y-60442465D01*
X98866338Y-60442466D01*
X98685377Y-60569175D01*
X98529175Y-60725377D01*
X98402466Y-60906338D01*
X98402465Y-60906340D01*
X98369456Y-60977129D01*
X98312394Y-61099500D01*
X98309107Y-61106548D01*
X98309104Y-61106554D01*
X98251930Y-61319929D01*
X98251929Y-61319937D01*
X98232677Y-61539997D01*
X98232677Y-61540002D01*
X98251929Y-61760062D01*
X98251930Y-61760070D01*
X98309104Y-61973445D01*
X98309105Y-61973447D01*
X98309106Y-61973450D01*
X98373302Y-62111119D01*
X98402202Y-62173095D01*
X98412694Y-62242173D01*
X98384174Y-62305957D01*
X98325698Y-62344196D01*
X98289820Y-62349500D01*
X93090180Y-62349500D01*
X93023141Y-62329815D01*
X92977386Y-62277011D01*
X92967442Y-62207853D01*
X92977798Y-62173095D01*
X93070894Y-61973450D01*
X93128070Y-61760068D01*
X93147323Y-61540000D01*
X93143146Y-61492261D01*
X93128070Y-61319937D01*
X93128070Y-61319932D01*
X93070894Y-61106550D01*
X92977534Y-60906339D01*
X92890940Y-60782669D01*
X92850827Y-60725381D01*
X92792898Y-60667452D01*
X92694620Y-60569174D01*
X92694616Y-60569171D01*
X92694615Y-60569170D01*
X92578797Y-60488074D01*
X92535172Y-60433497D01*
X92527978Y-60363999D01*
X92559501Y-60301644D01*
X92619730Y-60266230D01*
X92649919Y-60262499D01*
X92689872Y-60262499D01*
X92749483Y-60256091D01*
X92884331Y-60205796D01*
X92999546Y-60119546D01*
X93085796Y-60004331D01*
X93136091Y-59869483D01*
X93142500Y-59809873D01*
X93142499Y-58190128D01*
X93136091Y-58130517D01*
X93132604Y-58121169D01*
X93085797Y-57995671D01*
X93085793Y-57995664D01*
X92999547Y-57880455D01*
X92999544Y-57880452D01*
X92884335Y-57794206D01*
X92884328Y-57794202D01*
X92749482Y-57743908D01*
X92749483Y-57743908D01*
X92689883Y-57737501D01*
X92689881Y-57737500D01*
X92689873Y-57737500D01*
X92689864Y-57737500D01*
X91070129Y-57737500D01*
X91070123Y-57737501D01*
X91010516Y-57743908D01*
X90875671Y-57794202D01*
X90875664Y-57794206D01*
X90760455Y-57880452D01*
X90760452Y-57880455D01*
X90674206Y-57995664D01*
X90674202Y-57995671D01*
X90623908Y-58130517D01*
X90618010Y-58185380D01*
X90617501Y-58190123D01*
X90617500Y-58190135D01*
X90617500Y-59809870D01*
X90617501Y-59809876D01*
X90623908Y-59869483D01*
X90674202Y-60004328D01*
X90674206Y-60004335D01*
X90760452Y-60119544D01*
X90760455Y-60119547D01*
X90875664Y-60205793D01*
X90875671Y-60205797D01*
X91010517Y-60256091D01*
X91010516Y-60256091D01*
X91017444Y-60256835D01*
X91070127Y-60262500D01*
X91110079Y-60262499D01*
X91177116Y-60282182D01*
X91222872Y-60334985D01*
X91232817Y-60404143D01*
X91203794Y-60467700D01*
X91181203Y-60488074D01*
X91065375Y-60569177D01*
X90909175Y-60725377D01*
X90782466Y-60906338D01*
X90782465Y-60906340D01*
X90749456Y-60977129D01*
X90692394Y-61099500D01*
X90689107Y-61106548D01*
X90689104Y-61106554D01*
X90631930Y-61319929D01*
X90631929Y-61319937D01*
X90612677Y-61539997D01*
X90612677Y-61540002D01*
X90631929Y-61760062D01*
X90631930Y-61760070D01*
X90689104Y-61973445D01*
X90689105Y-61973447D01*
X90689106Y-61973450D01*
X90753302Y-62111119D01*
X90782466Y-62173662D01*
X90782468Y-62173666D01*
X90909170Y-62354615D01*
X90909175Y-62354621D01*
X91065378Y-62510824D01*
X91065384Y-62510829D01*
X91246333Y-62637531D01*
X91246335Y-62637532D01*
X91246338Y-62637534D01*
X91322093Y-62672859D01*
X91375189Y-62697618D01*
X91427628Y-62743790D01*
X91446780Y-62810984D01*
X91426564Y-62877865D01*
X91375189Y-62922382D01*
X91246340Y-62982465D01*
X91246338Y-62982466D01*
X91065377Y-63109175D01*
X90909174Y-63265378D01*
X90890837Y-63291566D01*
X90836259Y-63335189D01*
X90766761Y-63342381D01*
X90704407Y-63310857D01*
X90696503Y-63301896D01*
X90696207Y-63302164D01*
X90572235Y-63164478D01*
X90572232Y-63164476D01*
X90572231Y-63164475D01*
X90572230Y-63164474D01*
X90427593Y-63059388D01*
X90264267Y-62986671D01*
X90264265Y-62986670D01*
X90136594Y-62959533D01*
X90089391Y-62949500D01*
X90089390Y-62949500D01*
X90050097Y-62949500D01*
X89983058Y-62929815D01*
X89962416Y-62913181D01*
X89836819Y-62787584D01*
X89803334Y-62726261D01*
X89800500Y-62699903D01*
X89800500Y-61251728D01*
X89820185Y-61184689D01*
X89832350Y-61168756D01*
X89835387Y-61165383D01*
X89891859Y-61102665D01*
X89981250Y-60947835D01*
X90036497Y-60777803D01*
X90055185Y-60600000D01*
X90036497Y-60422197D01*
X89997327Y-60301644D01*
X89981252Y-60252170D01*
X89981249Y-60252164D01*
X89891859Y-60097335D01*
X89845003Y-60045296D01*
X89772235Y-59964478D01*
X89772232Y-59964476D01*
X89772231Y-59964475D01*
X89772230Y-59964474D01*
X89627593Y-59859388D01*
X89464267Y-59786671D01*
X89464265Y-59786670D01*
X89336594Y-59759533D01*
X89289391Y-59749500D01*
X89110609Y-59749500D01*
X89079954Y-59756015D01*
X88935733Y-59786670D01*
X88935728Y-59786672D01*
X88772408Y-59859387D01*
X88627768Y-59964475D01*
X88508140Y-60097336D01*
X88418750Y-60252164D01*
X88418747Y-60252170D01*
X88363504Y-60422192D01*
X88363503Y-60422194D01*
X88344815Y-60600000D01*
X88363503Y-60777805D01*
X88363504Y-60777807D01*
X88418747Y-60947829D01*
X88418750Y-60947835D01*
X88508141Y-61102665D01*
X88511643Y-61106554D01*
X88567650Y-61168756D01*
X88597880Y-61231747D01*
X88599500Y-61251728D01*
X88599500Y-62913330D01*
X88599499Y-62913348D01*
X88599499Y-63079054D01*
X88599498Y-63079054D01*
X88602240Y-63089286D01*
X88640423Y-63231785D01*
X88652190Y-63252165D01*
X88689395Y-63316606D01*
X88719479Y-63368715D01*
X88838349Y-63487585D01*
X88838355Y-63487590D01*
X89113066Y-63762301D01*
X89146551Y-63823624D01*
X89148706Y-63837020D01*
X89163503Y-63977804D01*
X89163504Y-63977807D01*
X89218747Y-64147829D01*
X89218750Y-64147835D01*
X89308141Y-64302665D01*
X89349812Y-64348946D01*
X89427764Y-64435521D01*
X89427767Y-64435523D01*
X89427770Y-64435526D01*
X89572407Y-64540612D01*
X89735733Y-64613329D01*
X89910609Y-64650500D01*
X89910610Y-64650500D01*
X90089389Y-64650500D01*
X90089391Y-64650500D01*
X90264267Y-64613329D01*
X90427593Y-64540612D01*
X90510694Y-64480234D01*
X90576497Y-64456755D01*
X90644551Y-64472580D01*
X90693247Y-64522685D01*
X90695956Y-64528140D01*
X90717908Y-64575217D01*
X90782466Y-64713662D01*
X90782468Y-64713666D01*
X90909170Y-64894615D01*
X90909175Y-64894621D01*
X91065378Y-65050824D01*
X91065384Y-65050829D01*
X91246333Y-65177531D01*
X91246335Y-65177532D01*
X91246338Y-65177534D01*
X91361125Y-65231060D01*
X91375189Y-65237618D01*
X91427628Y-65283790D01*
X91446780Y-65350984D01*
X91426564Y-65417865D01*
X91375189Y-65462382D01*
X91246340Y-65522465D01*
X91246338Y-65522466D01*
X91065377Y-65649175D01*
X90909175Y-65805377D01*
X90782466Y-65986338D01*
X90782465Y-65986340D01*
X90689107Y-66186548D01*
X90689104Y-66186554D01*
X90631930Y-66399929D01*
X90631929Y-66399937D01*
X90612677Y-66619997D01*
X90612677Y-66620002D01*
X90631929Y-66840062D01*
X90631930Y-66840070D01*
X90689104Y-67053445D01*
X90689105Y-67053447D01*
X90689106Y-67053450D01*
X90771998Y-67231214D01*
X90782465Y-67253660D01*
X90782466Y-67253662D01*
X90909170Y-67434615D01*
X90909175Y-67434621D01*
X91065378Y-67590824D01*
X91065384Y-67590829D01*
X91246333Y-67717531D01*
X91246335Y-67717532D01*
X91246338Y-67717534D01*
X91446550Y-67810894D01*
X91659932Y-67868070D01*
X91817123Y-67881822D01*
X91879998Y-67887323D01*
X91880000Y-67887323D01*
X91880002Y-67887323D01*
X91935017Y-67882509D01*
X92100068Y-67868070D01*
X92313450Y-67810894D01*
X92513662Y-67717534D01*
X92694620Y-67590826D01*
X92850826Y-67434620D01*
X92977534Y-67253662D01*
X92979009Y-67250500D01*
X92984127Y-67239524D01*
X93070894Y-67053450D01*
X93128070Y-66840068D01*
X93147323Y-66620000D01*
X93128070Y-66399932D01*
X93070894Y-66186550D01*
X92977534Y-65986339D01*
X92902256Y-65878830D01*
X92850827Y-65805381D01*
X92793258Y-65747812D01*
X92694620Y-65649174D01*
X92694616Y-65649171D01*
X92694615Y-65649170D01*
X92513666Y-65522468D01*
X92513658Y-65522464D01*
X92384811Y-65462382D01*
X92332371Y-65416210D01*
X92313219Y-65349017D01*
X92333435Y-65282135D01*
X92384811Y-65237618D01*
X92398875Y-65231060D01*
X92513662Y-65177534D01*
X92694620Y-65050826D01*
X92850826Y-64894620D01*
X92977534Y-64713662D01*
X93070894Y-64513450D01*
X93128070Y-64300068D01*
X93134903Y-64221963D01*
X93160355Y-64156895D01*
X93216946Y-64115916D01*
X93286708Y-64112038D01*
X93347492Y-64146492D01*
X93350581Y-64149799D01*
X93367650Y-64168756D01*
X93397880Y-64231747D01*
X93399500Y-64251728D01*
X93399500Y-67299903D01*
X93379815Y-67366942D01*
X93363181Y-67387584D01*
X92237584Y-68513181D01*
X92176261Y-68546666D01*
X92149903Y-68549500D01*
X92110609Y-68549500D01*
X92097968Y-68552187D01*
X91935733Y-68586670D01*
X91935728Y-68586672D01*
X91772408Y-68659387D01*
X91627768Y-68764475D01*
X91508140Y-68897336D01*
X91418750Y-69052164D01*
X91418747Y-69052170D01*
X91363504Y-69222192D01*
X91363503Y-69222194D01*
X91344815Y-69400000D01*
X91363503Y-69577805D01*
X91363504Y-69577807D01*
X91418747Y-69747829D01*
X91418750Y-69747835D01*
X91508141Y-69902665D01*
X91512709Y-69907738D01*
X91627764Y-70035521D01*
X91627767Y-70035523D01*
X91627770Y-70035526D01*
X91772407Y-70140612D01*
X91935733Y-70213329D01*
X92110609Y-70250500D01*
X92110610Y-70250500D01*
X92289389Y-70250500D01*
X92289391Y-70250500D01*
X92464267Y-70213329D01*
X92627593Y-70140612D01*
X92772230Y-70035526D01*
X92891859Y-69902665D01*
X92981250Y-69747835D01*
X93036497Y-69577803D01*
X93051294Y-69437016D01*
X93077877Y-69372405D01*
X93086924Y-69362309D01*
X94358506Y-68090728D01*
X94358511Y-68090724D01*
X94368714Y-68080520D01*
X94368716Y-68080520D01*
X94480520Y-67968716D01*
X94559577Y-67831784D01*
X94600500Y-67679057D01*
X94600500Y-64251728D01*
X94620185Y-64184689D01*
X94632350Y-64168756D01*
X94691859Y-64102665D01*
X94781250Y-63947835D01*
X94836497Y-63777803D01*
X94848717Y-63661537D01*
X94875302Y-63596923D01*
X94932600Y-63556939D01*
X94972038Y-63550500D01*
X98173243Y-63550500D01*
X98240282Y-63570185D01*
X98286037Y-63622989D01*
X98295981Y-63692147D01*
X98293020Y-63706580D01*
X98273936Y-63777807D01*
X98251930Y-63859930D01*
X98251929Y-63859937D01*
X98232677Y-64079997D01*
X98232677Y-64080002D01*
X98251929Y-64300062D01*
X98251930Y-64300070D01*
X98309104Y-64513445D01*
X98309105Y-64513447D01*
X98309106Y-64513450D01*
X98355680Y-64613329D01*
X98402466Y-64713662D01*
X98402468Y-64713666D01*
X98529170Y-64894615D01*
X98529175Y-64894621D01*
X98685378Y-65050824D01*
X98685384Y-65050829D01*
X98866333Y-65177531D01*
X98866335Y-65177532D01*
X98866338Y-65177534D01*
X98981125Y-65231060D01*
X98995189Y-65237618D01*
X99047628Y-65283790D01*
X99066780Y-65350984D01*
X99046564Y-65417865D01*
X98995189Y-65462382D01*
X98866340Y-65522465D01*
X98866338Y-65522466D01*
X98685377Y-65649175D01*
X98529175Y-65805377D01*
X98402466Y-65986338D01*
X98402465Y-65986340D01*
X98309107Y-66186548D01*
X98309104Y-66186554D01*
X98251930Y-66399929D01*
X98251929Y-66399937D01*
X98232677Y-66619997D01*
X98232677Y-66620002D01*
X98251929Y-66840062D01*
X98251930Y-66840070D01*
X98309104Y-67053445D01*
X98309105Y-67053447D01*
X98309106Y-67053450D01*
X98391998Y-67231214D01*
X98402465Y-67253660D01*
X98402466Y-67253662D01*
X98529170Y-67434615D01*
X98529175Y-67434621D01*
X98685378Y-67590824D01*
X98685384Y-67590829D01*
X98866333Y-67717531D01*
X98866335Y-67717532D01*
X98866338Y-67717534D01*
X99066550Y-67810894D01*
X99279932Y-67868070D01*
X99437123Y-67881822D01*
X99499998Y-67887323D01*
X99500000Y-67887323D01*
X99500002Y-67887323D01*
X99555017Y-67882509D01*
X99720068Y-67868070D01*
X99805407Y-67845203D01*
X99875255Y-67846864D01*
X99933118Y-67886026D01*
X99960623Y-67950254D01*
X99961500Y-67964977D01*
X99961500Y-70638269D01*
X99941815Y-70705308D01*
X99889011Y-70751063D01*
X99863282Y-70759559D01*
X99735732Y-70786671D01*
X99735728Y-70786672D01*
X99572408Y-70859387D01*
X99427768Y-70964475D01*
X99308140Y-71097336D01*
X99218750Y-71252164D01*
X99218747Y-71252170D01*
X99163504Y-71422192D01*
X99163503Y-71422194D01*
X99144815Y-71600000D01*
X99163503Y-71777805D01*
X99163504Y-71777807D01*
X99218747Y-71947829D01*
X99218750Y-71947835D01*
X99256662Y-72013500D01*
X99273135Y-72081400D01*
X99250282Y-72147427D01*
X99195361Y-72190618D01*
X99149275Y-72199500D01*
X91606013Y-72199500D01*
X91538974Y-72179815D01*
X91493219Y-72127011D01*
X91483275Y-72057853D01*
X91484285Y-72052751D01*
X91485107Y-72047824D01*
X91485108Y-72047821D01*
X91499003Y-71880135D01*
X91505643Y-71800005D01*
X91505643Y-71799994D01*
X91485109Y-71552187D01*
X91485107Y-71552175D01*
X91424063Y-71311118D01*
X91324173Y-71083393D01*
X91188166Y-70875217D01*
X91166557Y-70851744D01*
X91019744Y-70692262D01*
X90823509Y-70539526D01*
X90823507Y-70539525D01*
X90823506Y-70539524D01*
X90604811Y-70421172D01*
X90604802Y-70421169D01*
X90369616Y-70340429D01*
X90124335Y-70299500D01*
X89875665Y-70299500D01*
X89630382Y-70340429D01*
X89630380Y-70340429D01*
X89524393Y-70376815D01*
X89454595Y-70379965D01*
X89396450Y-70347215D01*
X88107715Y-69058480D01*
X88074230Y-68997157D01*
X88079214Y-68927465D01*
X88121086Y-68871532D01*
X88136378Y-68861744D01*
X88323509Y-68760474D01*
X88519744Y-68607738D01*
X88688164Y-68424785D01*
X88824173Y-68216607D01*
X88924063Y-67988881D01*
X88985108Y-67747821D01*
X88994824Y-67630567D01*
X89005643Y-67500005D01*
X89005643Y-67499994D01*
X88985109Y-67252187D01*
X88985107Y-67252175D01*
X88924063Y-67011118D01*
X88824173Y-66783393D01*
X88688166Y-66575217D01*
X88666557Y-66551744D01*
X88519744Y-66392262D01*
X88323509Y-66239526D01*
X88323507Y-66239525D01*
X88323506Y-66239524D01*
X88104811Y-66121172D01*
X88104802Y-66121169D01*
X87869616Y-66040429D01*
X87624335Y-65999500D01*
X87375665Y-65999500D01*
X87375662Y-65999500D01*
X87332407Y-66006717D01*
X87263042Y-65998334D01*
X87209221Y-65953780D01*
X87188031Y-65887201D01*
X87188000Y-65884408D01*
X87188000Y-65039228D01*
X87207685Y-64972189D01*
X87219850Y-64956256D01*
X87279359Y-64890165D01*
X87368750Y-64735335D01*
X87423997Y-64565303D01*
X87442685Y-64387500D01*
X87423997Y-64209697D01*
X87388517Y-64100500D01*
X87368752Y-64039670D01*
X87368749Y-64039664D01*
X87352268Y-64011118D01*
X87279359Y-63884835D01*
X87224244Y-63823624D01*
X87159735Y-63751978D01*
X87159732Y-63751976D01*
X87159731Y-63751975D01*
X87159730Y-63751974D01*
X87015093Y-63646888D01*
X86851767Y-63574171D01*
X86851765Y-63574170D01*
X86724094Y-63547033D01*
X86676891Y-63537000D01*
X86498109Y-63537000D01*
X86467454Y-63543515D01*
X86323233Y-63574170D01*
X86323228Y-63574172D01*
X86159908Y-63646887D01*
X86015268Y-63751975D01*
X85895640Y-63884836D01*
X85806250Y-64039664D01*
X85806247Y-64039670D01*
X85751004Y-64209692D01*
X85751003Y-64209694D01*
X85732315Y-64387500D01*
X85751003Y-64565305D01*
X85751004Y-64565307D01*
X85806247Y-64735329D01*
X85806250Y-64735335D01*
X85895641Y-64890165D01*
X85923353Y-64920942D01*
X85955150Y-64956256D01*
X85985380Y-65019247D01*
X85987000Y-65039228D01*
X85987000Y-66031641D01*
X85967315Y-66098680D01*
X85950681Y-66119322D01*
X84647300Y-67422702D01*
X84585977Y-67456187D01*
X84516285Y-67451203D01*
X84471938Y-67422702D01*
X84368717Y-67319481D01*
X84368709Y-67319475D01*
X84254716Y-67253662D01*
X84254716Y-67253661D01*
X84254711Y-67253660D01*
X84246711Y-67249040D01*
X84231786Y-67240423D01*
X84193603Y-67230192D01*
X84079057Y-67199499D01*
X83920943Y-67199499D01*
X83913347Y-67199499D01*
X83913331Y-67199500D01*
X81058729Y-67199500D01*
X80991690Y-67179815D01*
X80975755Y-67167649D01*
X80972233Y-67164477D01*
X80972230Y-67164474D01*
X80827593Y-67059388D01*
X80664267Y-66986671D01*
X80664265Y-66986670D01*
X80536594Y-66959533D01*
X80489391Y-66949500D01*
X80310609Y-66949500D01*
X80279954Y-66956015D01*
X80135733Y-66986670D01*
X80135728Y-66986672D01*
X79972408Y-67059387D01*
X79827768Y-67164475D01*
X79708140Y-67297336D01*
X79618750Y-67452164D01*
X79618747Y-67452170D01*
X79563504Y-67622192D01*
X79563503Y-67622194D01*
X79544815Y-67800000D01*
X79563503Y-67977805D01*
X79563504Y-67977807D01*
X79618747Y-68147829D01*
X79618750Y-68147835D01*
X79708141Y-68302665D01*
X79749812Y-68348946D01*
X79827764Y-68435521D01*
X79827767Y-68435523D01*
X79827770Y-68435526D01*
X79972407Y-68540612D01*
X80135733Y-68613329D01*
X80310609Y-68650500D01*
X80310610Y-68650500D01*
X80489389Y-68650500D01*
X80489391Y-68650500D01*
X80664267Y-68613329D01*
X80827593Y-68540612D01*
X80972230Y-68435526D01*
X80972238Y-68435517D01*
X80975755Y-68432351D01*
X81038747Y-68402121D01*
X81058729Y-68400500D01*
X83699903Y-68400500D01*
X83766942Y-68420185D01*
X83787584Y-68436819D01*
X83913066Y-68562301D01*
X83946551Y-68623624D01*
X83948706Y-68637020D01*
X83963503Y-68777804D01*
X83963504Y-68777807D01*
X84018747Y-68947829D01*
X84018750Y-68947835D01*
X84108141Y-69102665D01*
X84149812Y-69148946D01*
X84227764Y-69235521D01*
X84227767Y-69235523D01*
X84227770Y-69235526D01*
X84372407Y-69340612D01*
X84535733Y-69413329D01*
X84710609Y-69450500D01*
X84710610Y-69450500D01*
X84889389Y-69450500D01*
X84889391Y-69450500D01*
X85064267Y-69413329D01*
X85227593Y-69340612D01*
X85372230Y-69235526D01*
X85372238Y-69235517D01*
X85375755Y-69232351D01*
X85438747Y-69202121D01*
X85458729Y-69200500D01*
X86499903Y-69200500D01*
X86566942Y-69220185D01*
X86587584Y-69236819D01*
X88543482Y-71192717D01*
X88576967Y-71254040D01*
X88576007Y-71310838D01*
X88514892Y-71552174D01*
X88514890Y-71552187D01*
X88494357Y-71799994D01*
X88494357Y-71800005D01*
X88514890Y-72047812D01*
X88514892Y-72047824D01*
X88575936Y-72288881D01*
X88675826Y-72516606D01*
X88811833Y-72724782D01*
X88811836Y-72724785D01*
X88980256Y-72907738D01*
X89176491Y-73060474D01*
X89176493Y-73060475D01*
X89394332Y-73178364D01*
X89395190Y-73178828D01*
X89575498Y-73240728D01*
X89628964Y-73259083D01*
X89630386Y-73259571D01*
X89875665Y-73300500D01*
X90124334Y-73300500D01*
X90124335Y-73300500D01*
X90280092Y-73274509D01*
X90349455Y-73282891D01*
X90403278Y-73327444D01*
X90424468Y-73394022D01*
X90424500Y-73396818D01*
X90424500Y-75138306D01*
X90404815Y-75205345D01*
X90371623Y-75239881D01*
X90185859Y-75369953D01*
X90024954Y-75530858D01*
X89894433Y-75717264D01*
X89894432Y-75717266D01*
X89894315Y-75717518D01*
X89867106Y-75775867D01*
X89820933Y-75828306D01*
X89753739Y-75847457D01*
X89686858Y-75827241D01*
X89642342Y-75775865D01*
X89615135Y-75717520D01*
X89615134Y-75717518D01*
X89484657Y-75531179D01*
X89323820Y-75370342D01*
X89137482Y-75239865D01*
X88931328Y-75143734D01*
X88735000Y-75091127D01*
X88735000Y-75936988D01*
X88677993Y-75904075D01*
X88550826Y-75870000D01*
X88419174Y-75870000D01*
X88292007Y-75904075D01*
X88235000Y-75936988D01*
X88235000Y-75091127D01*
X88038671Y-75143734D01*
X87832517Y-75239865D01*
X87646179Y-75370342D01*
X87485342Y-75531179D01*
X87354867Y-75717515D01*
X87327657Y-75775867D01*
X87281484Y-75828306D01*
X87214290Y-75847457D01*
X87147409Y-75827241D01*
X87102893Y-75775865D01*
X87075685Y-75717518D01*
X87075568Y-75717266D01*
X86945047Y-75530861D01*
X86945045Y-75530858D01*
X86784141Y-75369954D01*
X86597734Y-75239432D01*
X86597732Y-75239431D01*
X86391497Y-75143261D01*
X86391488Y-75143258D01*
X86171697Y-75084366D01*
X86171693Y-75084365D01*
X86171692Y-75084365D01*
X86171691Y-75084364D01*
X86171686Y-75084364D01*
X85945002Y-75064532D01*
X85944998Y-75064532D01*
X85718313Y-75084364D01*
X85718302Y-75084366D01*
X85498511Y-75143258D01*
X85498502Y-75143261D01*
X85292267Y-75239431D01*
X85292265Y-75239432D01*
X85105858Y-75369954D01*
X84944954Y-75530858D01*
X84814432Y-75717265D01*
X84814431Y-75717267D01*
X84787382Y-75775275D01*
X84741209Y-75827714D01*
X84674016Y-75846866D01*
X84607135Y-75826650D01*
X84562618Y-75775275D01*
X84535686Y-75717520D01*
X84535568Y-75717266D01*
X84405047Y-75530861D01*
X84405045Y-75530858D01*
X84244141Y-75369954D01*
X84057734Y-75239432D01*
X84057732Y-75239431D01*
X83851497Y-75143261D01*
X83851488Y-75143258D01*
X83631697Y-75084366D01*
X83631693Y-75084365D01*
X83631692Y-75084365D01*
X83631691Y-75084364D01*
X83631686Y-75084364D01*
X83405002Y-75064532D01*
X83404998Y-75064532D01*
X83178313Y-75084364D01*
X83178302Y-75084366D01*
X82958511Y-75143258D01*
X82958502Y-75143261D01*
X82752267Y-75239431D01*
X82752265Y-75239432D01*
X82565858Y-75369954D01*
X82404954Y-75530858D01*
X82274432Y-75717265D01*
X82274431Y-75717267D01*
X82247382Y-75775275D01*
X82201209Y-75827714D01*
X82134016Y-75846866D01*
X82067135Y-75826650D01*
X82022618Y-75775275D01*
X81995686Y-75717520D01*
X81995568Y-75717266D01*
X81865047Y-75530861D01*
X81865045Y-75530858D01*
X81704141Y-75369954D01*
X81517734Y-75239432D01*
X81517732Y-75239431D01*
X81311497Y-75143261D01*
X81311488Y-75143258D01*
X81091697Y-75084366D01*
X81091693Y-75084365D01*
X81091692Y-75084365D01*
X81091691Y-75084364D01*
X81091686Y-75084364D01*
X80865002Y-75064532D01*
X80864998Y-75064532D01*
X80638313Y-75084364D01*
X80638302Y-75084366D01*
X80418511Y-75143258D01*
X80418502Y-75143261D01*
X80212267Y-75239431D01*
X80212265Y-75239432D01*
X80025858Y-75369954D01*
X79864954Y-75530858D01*
X79847725Y-75555464D01*
X79793147Y-75599088D01*
X79723648Y-75606280D01*
X79661294Y-75574757D01*
X79625882Y-75514526D01*
X79622861Y-75497591D01*
X79619091Y-75462516D01*
X79568797Y-75327671D01*
X79568793Y-75327664D01*
X79482547Y-75212455D01*
X79482544Y-75212452D01*
X79367335Y-75126206D01*
X79367328Y-75126202D01*
X79232482Y-75075908D01*
X79232483Y-75075908D01*
X79172883Y-75069501D01*
X79172881Y-75069500D01*
X79172873Y-75069500D01*
X79172864Y-75069500D01*
X77477129Y-75069500D01*
X77477123Y-75069501D01*
X77417516Y-75075908D01*
X77282671Y-75126202D01*
X77282664Y-75126206D01*
X77167455Y-75212452D01*
X77167452Y-75212455D01*
X77081206Y-75327664D01*
X77081202Y-75327671D01*
X77030908Y-75462517D01*
X77024501Y-75522116D01*
X77024500Y-75522135D01*
X40969281Y-75522135D01*
X41009820Y-71599994D01*
X78694357Y-71599994D01*
X78694357Y-71600005D01*
X78714890Y-71847812D01*
X78714892Y-71847824D01*
X78775936Y-72088881D01*
X78875826Y-72316606D01*
X79011833Y-72524782D01*
X79011836Y-72524785D01*
X79180256Y-72707738D01*
X79376491Y-72860474D01*
X79595190Y-72978828D01*
X79830386Y-73059571D01*
X80075665Y-73100500D01*
X80324335Y-73100500D01*
X80569614Y-73059571D01*
X80804810Y-72978828D01*
X81023509Y-72860474D01*
X81219744Y-72707738D01*
X81388164Y-72524785D01*
X81524173Y-72316607D01*
X81624063Y-72088881D01*
X81685108Y-71847821D01*
X81685109Y-71847812D01*
X81689071Y-71799994D01*
X85094859Y-71799994D01*
X85094859Y-71800005D01*
X85115385Y-72047729D01*
X85115387Y-72047738D01*
X85176412Y-72288717D01*
X85276267Y-72516367D01*
X85376562Y-72669881D01*
X86117037Y-71929408D01*
X86134075Y-71992993D01*
X86199901Y-72107007D01*
X86292993Y-72200099D01*
X86407007Y-72265925D01*
X86470591Y-72282962D01*
X85729943Y-73023609D01*
X85776768Y-73060055D01*
X85776771Y-73060057D01*
X85995385Y-73178364D01*
X85995396Y-73178369D01*
X86230506Y-73259083D01*
X86475707Y-73300000D01*
X86724293Y-73300000D01*
X86969493Y-73259083D01*
X87204603Y-73178369D01*
X87204614Y-73178364D01*
X87423230Y-73060056D01*
X87423236Y-73060051D01*
X87470055Y-73023610D01*
X87470056Y-73023609D01*
X86729408Y-72282962D01*
X86792993Y-72265925D01*
X86907007Y-72200099D01*
X87000099Y-72107007D01*
X87065925Y-71992993D01*
X87082962Y-71929409D01*
X87823435Y-72669882D01*
X87923733Y-72516364D01*
X88023587Y-72288717D01*
X88084612Y-72047738D01*
X88084614Y-72047729D01*
X88105141Y-71800005D01*
X88105141Y-71799994D01*
X88084614Y-71552270D01*
X88084612Y-71552261D01*
X88023587Y-71311282D01*
X87923732Y-71083632D01*
X87823435Y-70930116D01*
X87082962Y-71670590D01*
X87065925Y-71607007D01*
X87000099Y-71492993D01*
X86907007Y-71399901D01*
X86792993Y-71334075D01*
X86729409Y-71317037D01*
X87470055Y-70576389D01*
X87470055Y-70576388D01*
X87423236Y-70539947D01*
X87423231Y-70539944D01*
X87204614Y-70421635D01*
X87204603Y-70421630D01*
X86969493Y-70340916D01*
X86724293Y-70300000D01*
X86475707Y-70300000D01*
X86230506Y-70340916D01*
X85995396Y-70421630D01*
X85995385Y-70421635D01*
X85776770Y-70539943D01*
X85729943Y-70576389D01*
X86470591Y-71317037D01*
X86407007Y-71334075D01*
X86292993Y-71399901D01*
X86199901Y-71492993D01*
X86134075Y-71607007D01*
X86117037Y-71670591D01*
X85376563Y-70930117D01*
X85276267Y-71083633D01*
X85276265Y-71083637D01*
X85176412Y-71311282D01*
X85115387Y-71552261D01*
X85115385Y-71552270D01*
X85094859Y-71799994D01*
X81689071Y-71799994D01*
X81705643Y-71600005D01*
X81705643Y-71599994D01*
X81685109Y-71352187D01*
X81685107Y-71352175D01*
X81624063Y-71111118D01*
X81524173Y-70883393D01*
X81388166Y-70675217D01*
X81323604Y-70605084D01*
X81219744Y-70492262D01*
X81023509Y-70339526D01*
X81023507Y-70339525D01*
X81023506Y-70339524D01*
X80804811Y-70221172D01*
X80804802Y-70221169D01*
X80569616Y-70140429D01*
X80324335Y-70099500D01*
X80075665Y-70099500D01*
X79830383Y-70140429D01*
X79595197Y-70221169D01*
X79595188Y-70221172D01*
X79376493Y-70339524D01*
X79180257Y-70492261D01*
X79011833Y-70675217D01*
X78875826Y-70883393D01*
X78775936Y-71111118D01*
X78714892Y-71352175D01*
X78714890Y-71352187D01*
X78694357Y-71599994D01*
X41009820Y-71599994D01*
X41026357Y-69999998D01*
X49694532Y-69999998D01*
X49694532Y-70000001D01*
X49714364Y-70226686D01*
X49714366Y-70226697D01*
X49773258Y-70446488D01*
X49773261Y-70446497D01*
X49869431Y-70652732D01*
X49869432Y-70652734D01*
X49999954Y-70839141D01*
X50160858Y-71000045D01*
X50160861Y-71000047D01*
X50347266Y-71130568D01*
X50553504Y-71226739D01*
X50773308Y-71285635D01*
X50935230Y-71299801D01*
X50999998Y-71305468D01*
X51000000Y-71305468D01*
X51000002Y-71305468D01*
X51062499Y-71300000D01*
X51226692Y-71285635D01*
X51446496Y-71226739D01*
X51652734Y-71130568D01*
X51839139Y-71000047D01*
X52000047Y-70839139D01*
X52130568Y-70652734D01*
X52226739Y-70446496D01*
X52285635Y-70226692D01*
X52305468Y-70000000D01*
X52285635Y-69773308D01*
X52226739Y-69553504D01*
X52130568Y-69347266D01*
X52000047Y-69160861D01*
X52000045Y-69160858D01*
X51839141Y-68999954D01*
X51652734Y-68869432D01*
X51652732Y-68869431D01*
X51503825Y-68799994D01*
X72494357Y-68799994D01*
X72494357Y-68800005D01*
X72514890Y-69047812D01*
X72514892Y-69047824D01*
X72575936Y-69288881D01*
X72675826Y-69516606D01*
X72811833Y-69724782D01*
X72811836Y-69724785D01*
X72980256Y-69907738D01*
X73176491Y-70060474D01*
X73395190Y-70178828D01*
X73630386Y-70259571D01*
X73875665Y-70300500D01*
X74124335Y-70300500D01*
X74369614Y-70259571D01*
X74604810Y-70178828D01*
X74823509Y-70060474D01*
X75019744Y-69907738D01*
X75188164Y-69724785D01*
X75324173Y-69516607D01*
X75424063Y-69288881D01*
X75485108Y-69047821D01*
X75485109Y-69047812D01*
X75505643Y-68800005D01*
X75505643Y-68799994D01*
X75485109Y-68552187D01*
X75485107Y-68552175D01*
X75424063Y-68311118D01*
X75324173Y-68083393D01*
X75188166Y-67875217D01*
X75128952Y-67810894D01*
X75019744Y-67692262D01*
X74823509Y-67539526D01*
X74823507Y-67539525D01*
X74823506Y-67539524D01*
X74604811Y-67421172D01*
X74604802Y-67421169D01*
X74369616Y-67340429D01*
X74124335Y-67299500D01*
X73875665Y-67299500D01*
X73630383Y-67340429D01*
X73395197Y-67421169D01*
X73395188Y-67421172D01*
X73176493Y-67539524D01*
X72980257Y-67692261D01*
X72811833Y-67875217D01*
X72675826Y-68083393D01*
X72575936Y-68311118D01*
X72514892Y-68552175D01*
X72514890Y-68552187D01*
X72494357Y-68799994D01*
X51503825Y-68799994D01*
X51446497Y-68773261D01*
X51446488Y-68773258D01*
X51226697Y-68714366D01*
X51226693Y-68714365D01*
X51226692Y-68714365D01*
X51226691Y-68714364D01*
X51226686Y-68714364D01*
X51000002Y-68694532D01*
X50999998Y-68694532D01*
X50773313Y-68714364D01*
X50773302Y-68714366D01*
X50553511Y-68773258D01*
X50553502Y-68773261D01*
X50347267Y-68869431D01*
X50347265Y-68869432D01*
X50160858Y-68999954D01*
X49999954Y-69160858D01*
X49869432Y-69347265D01*
X49869431Y-69347267D01*
X49773261Y-69553502D01*
X49773258Y-69553511D01*
X49714366Y-69773302D01*
X49714364Y-69773313D01*
X49694532Y-69999998D01*
X41026357Y-69999998D01*
X41062533Y-66499998D01*
X49694532Y-66499998D01*
X49694532Y-66500001D01*
X49714364Y-66726686D01*
X49714366Y-66726697D01*
X49773258Y-66946488D01*
X49773261Y-66946497D01*
X49869431Y-67152732D01*
X49869432Y-67152734D01*
X49999954Y-67339141D01*
X50160858Y-67500045D01*
X50160861Y-67500047D01*
X50347266Y-67630568D01*
X50553504Y-67726739D01*
X50773308Y-67785635D01*
X50935230Y-67799801D01*
X50999998Y-67805468D01*
X51000000Y-67805468D01*
X51000002Y-67805468D01*
X51062499Y-67800000D01*
X51226692Y-67785635D01*
X51446496Y-67726739D01*
X51652734Y-67630568D01*
X51839139Y-67500047D01*
X52000047Y-67339139D01*
X52130568Y-67152734D01*
X52226739Y-66946496D01*
X52285635Y-66726692D01*
X52305468Y-66500000D01*
X52296719Y-66400000D01*
X65144815Y-66400000D01*
X65163503Y-66577805D01*
X65163504Y-66577807D01*
X65218747Y-66747829D01*
X65218750Y-66747835D01*
X65308141Y-66902665D01*
X65347600Y-66946488D01*
X65427764Y-67035521D01*
X65427767Y-67035523D01*
X65427770Y-67035526D01*
X65572407Y-67140612D01*
X65735733Y-67213329D01*
X65910609Y-67250500D01*
X65910610Y-67250500D01*
X66089389Y-67250500D01*
X66089391Y-67250500D01*
X66264267Y-67213329D01*
X66427593Y-67140612D01*
X66572230Y-67035526D01*
X66572238Y-67035517D01*
X66575755Y-67032351D01*
X66638747Y-67002121D01*
X66658729Y-67000500D01*
X75741271Y-67000500D01*
X75808310Y-67020185D01*
X75824245Y-67032351D01*
X75827766Y-67035521D01*
X75827770Y-67035526D01*
X75972407Y-67140612D01*
X76135733Y-67213329D01*
X76310609Y-67250500D01*
X76310610Y-67250500D01*
X76489389Y-67250500D01*
X76489391Y-67250500D01*
X76664267Y-67213329D01*
X76827593Y-67140612D01*
X76972230Y-67035526D01*
X77091859Y-66902665D01*
X77181250Y-66747835D01*
X77236497Y-66577803D01*
X77255185Y-66400000D01*
X77236497Y-66222197D01*
X77191270Y-66083003D01*
X77181252Y-66052170D01*
X77181249Y-66052164D01*
X77169400Y-66031641D01*
X77091859Y-65897335D01*
X77045003Y-65845296D01*
X76972235Y-65764478D01*
X76972232Y-65764476D01*
X76972231Y-65764475D01*
X76972230Y-65764474D01*
X76827593Y-65659388D01*
X76664267Y-65586671D01*
X76664265Y-65586670D01*
X76536594Y-65559533D01*
X76489391Y-65549500D01*
X76310609Y-65549500D01*
X76279954Y-65556015D01*
X76135733Y-65586670D01*
X76135728Y-65586672D01*
X75972408Y-65659387D01*
X75827772Y-65764472D01*
X75824245Y-65767649D01*
X75761253Y-65797879D01*
X75741271Y-65799500D01*
X66658729Y-65799500D01*
X66591690Y-65779815D01*
X66575755Y-65767649D01*
X66572233Y-65764477D01*
X66572230Y-65764474D01*
X66427593Y-65659388D01*
X66264267Y-65586671D01*
X66264265Y-65586670D01*
X66136594Y-65559533D01*
X66089391Y-65549500D01*
X65910609Y-65549500D01*
X65879954Y-65556015D01*
X65735733Y-65586670D01*
X65735728Y-65586672D01*
X65572408Y-65659387D01*
X65427768Y-65764475D01*
X65308140Y-65897336D01*
X65218750Y-66052164D01*
X65218747Y-66052170D01*
X65163504Y-66222192D01*
X65163503Y-66222194D01*
X65144815Y-66400000D01*
X52296719Y-66400000D01*
X52285635Y-66273308D01*
X52226739Y-66053504D01*
X52130568Y-65847266D01*
X52000047Y-65660861D01*
X52000045Y-65660858D01*
X51839141Y-65499954D01*
X51652734Y-65369432D01*
X51652732Y-65369431D01*
X51446497Y-65273261D01*
X51446488Y-65273258D01*
X51226697Y-65214366D01*
X51226693Y-65214365D01*
X51226692Y-65214365D01*
X51226691Y-65214364D01*
X51226686Y-65214364D01*
X51000002Y-65194532D01*
X50999998Y-65194532D01*
X50773313Y-65214364D01*
X50773302Y-65214366D01*
X50553511Y-65273258D01*
X50553502Y-65273261D01*
X50347267Y-65369431D01*
X50347265Y-65369432D01*
X50160858Y-65499954D01*
X49999954Y-65660858D01*
X49869432Y-65847265D01*
X49869431Y-65847267D01*
X49773261Y-66053502D01*
X49773258Y-66053511D01*
X49714366Y-66273302D01*
X49714364Y-66273313D01*
X49694532Y-66499998D01*
X41062533Y-66499998D01*
X41102843Y-62599994D01*
X53694357Y-62599994D01*
X53694357Y-62600005D01*
X53714890Y-62847812D01*
X53714892Y-62847824D01*
X53775936Y-63088881D01*
X53875826Y-63316606D01*
X54011833Y-63524782D01*
X54011836Y-63524785D01*
X54180256Y-63707738D01*
X54376491Y-63860474D01*
X54595190Y-63978828D01*
X54830386Y-64059571D01*
X55075665Y-64100500D01*
X55324335Y-64100500D01*
X55569614Y-64059571D01*
X55804810Y-63978828D01*
X56023509Y-63860474D01*
X56219744Y-63707738D01*
X56388164Y-63524785D01*
X56524173Y-63316607D01*
X56624063Y-63088881D01*
X56685108Y-62847821D01*
X56688020Y-62812677D01*
X56705643Y-62600005D01*
X56705643Y-62599994D01*
X56685109Y-62352187D01*
X56685107Y-62352175D01*
X56624063Y-62111118D01*
X56524173Y-61883393D01*
X56388166Y-61675217D01*
X56366557Y-61651744D01*
X56219744Y-61492262D01*
X56023509Y-61339526D01*
X56023507Y-61339525D01*
X56023506Y-61339524D01*
X55804811Y-61221172D01*
X55804802Y-61221169D01*
X55569616Y-61140429D01*
X55324335Y-61099500D01*
X55075665Y-61099500D01*
X54830383Y-61140429D01*
X54595197Y-61221169D01*
X54595188Y-61221172D01*
X54376493Y-61339524D01*
X54180257Y-61492261D01*
X54011833Y-61675217D01*
X53875826Y-61883393D01*
X53775936Y-62111118D01*
X53714892Y-62352175D01*
X53714890Y-62352187D01*
X53694357Y-62599994D01*
X41102843Y-62599994D01*
X41148321Y-58199994D01*
X53494859Y-58199994D01*
X53494859Y-58200005D01*
X53515385Y-58447729D01*
X53515387Y-58447738D01*
X53576412Y-58688717D01*
X53676267Y-58916367D01*
X53776562Y-59069881D01*
X54517037Y-58329408D01*
X54534075Y-58392993D01*
X54599901Y-58507007D01*
X54692993Y-58600099D01*
X54807007Y-58665925D01*
X54870591Y-58682962D01*
X54129943Y-59423609D01*
X54176768Y-59460055D01*
X54176771Y-59460057D01*
X54395385Y-59578364D01*
X54395396Y-59578369D01*
X54630506Y-59659083D01*
X54875707Y-59700000D01*
X55124293Y-59700000D01*
X55369493Y-59659083D01*
X55604603Y-59578369D01*
X55604614Y-59578364D01*
X55823230Y-59460056D01*
X55823236Y-59460051D01*
X55870055Y-59423610D01*
X55870056Y-59423609D01*
X55129408Y-58682962D01*
X55192993Y-58665925D01*
X55307007Y-58600099D01*
X55400099Y-58507007D01*
X55465925Y-58392993D01*
X55482962Y-58329409D01*
X56223435Y-59069882D01*
X56323733Y-58916364D01*
X56423587Y-58688717D01*
X56484612Y-58447738D01*
X56484614Y-58447729D01*
X56505141Y-58200005D01*
X56505141Y-58199994D01*
X56484614Y-57952270D01*
X56484612Y-57952261D01*
X56423587Y-57711282D01*
X56330909Y-57499994D01*
X72994357Y-57499994D01*
X72994357Y-57500005D01*
X73014890Y-57747812D01*
X73014892Y-57747824D01*
X73075936Y-57988881D01*
X73175826Y-58216606D01*
X73311833Y-58424782D01*
X73311836Y-58424785D01*
X73480256Y-58607738D01*
X73676491Y-58760474D01*
X73895190Y-58878828D01*
X74130386Y-58959571D01*
X74375665Y-59000500D01*
X74624335Y-59000500D01*
X74869614Y-58959571D01*
X75104810Y-58878828D01*
X75323509Y-58760474D01*
X75519744Y-58607738D01*
X75688164Y-58424785D01*
X75824173Y-58216607D01*
X75924063Y-57988881D01*
X75985108Y-57747821D01*
X76005643Y-57500000D01*
X76004287Y-57483637D01*
X75985109Y-57252187D01*
X75985107Y-57252175D01*
X75924063Y-57011118D01*
X75824173Y-56783393D01*
X75688166Y-56575217D01*
X75666557Y-56551744D01*
X75519744Y-56392262D01*
X75323509Y-56239526D01*
X75323507Y-56239525D01*
X75323506Y-56239524D01*
X75104811Y-56121172D01*
X75104802Y-56121169D01*
X74869616Y-56040429D01*
X74624335Y-55999500D01*
X74375665Y-55999500D01*
X74130383Y-56040429D01*
X73895197Y-56121169D01*
X73895188Y-56121172D01*
X73676493Y-56239524D01*
X73480257Y-56392261D01*
X73311833Y-56575217D01*
X73175826Y-56783393D01*
X73075936Y-57011118D01*
X73014892Y-57252175D01*
X73014890Y-57252187D01*
X72994357Y-57499994D01*
X56330909Y-57499994D01*
X56323732Y-57483632D01*
X56223435Y-57330116D01*
X55482962Y-58070590D01*
X55465925Y-58007007D01*
X55400099Y-57892993D01*
X55307007Y-57799901D01*
X55192993Y-57734075D01*
X55129409Y-57717037D01*
X55870055Y-56976389D01*
X55870055Y-56976388D01*
X55823236Y-56939947D01*
X55823231Y-56939944D01*
X55604614Y-56821635D01*
X55604603Y-56821630D01*
X55369493Y-56740916D01*
X55124293Y-56700000D01*
X54875707Y-56700000D01*
X54630506Y-56740916D01*
X54395396Y-56821630D01*
X54395385Y-56821635D01*
X54176770Y-56939943D01*
X54129943Y-56976389D01*
X54870591Y-57717037D01*
X54807007Y-57734075D01*
X54692993Y-57799901D01*
X54599901Y-57892993D01*
X54534075Y-58007007D01*
X54517037Y-58070591D01*
X53776563Y-57330117D01*
X53676267Y-57483633D01*
X53676265Y-57483637D01*
X53576412Y-57711282D01*
X53515387Y-57952261D01*
X53515385Y-57952270D01*
X53494859Y-58199994D01*
X41148321Y-58199994D01*
X41198732Y-53322718D01*
X41219108Y-53255886D01*
X41272382Y-53210679D01*
X41322725Y-53200000D01*
X138175500Y-53200000D01*
X138242539Y-53219685D01*
G37*
%TD.AperFunction*%
%TD*%
M02*
