%TF.GenerationSoftware,KiCad,Pcbnew,8.0.8*%
%TF.CreationDate,2025-03-06T15:39:58+05:30*%
%TF.ProjectId,bandara_ckt_pcb_naveen,62616e64-6172-4615-9f63-6b745f706362,v1*%
%TF.SameCoordinates,Original*%
%TF.FileFunction,Copper,L1,Top*%
%TF.FilePolarity,Positive*%
%FSLAX46Y46*%
G04 Gerber Fmt 4.6, Leading zero omitted, Abs format (unit mm)*
G04 Created by KiCad (PCBNEW 8.0.8) date 2025-03-06 15:39:58*
%MOMM*%
%LPD*%
G01*
G04 APERTURE LIST*
G04 Aperture macros list*
%AMRoundRect*
0 Rectangle with rounded corners*
0 $1 Rounding radius*
0 $2 $3 $4 $5 $6 $7 $8 $9 X,Y pos of 4 corners*
0 Add a 4 corners polygon primitive as box body*
4,1,4,$2,$3,$4,$5,$6,$7,$8,$9,$2,$3,0*
0 Add four circle primitives for the rounded corners*
1,1,$1+$1,$2,$3*
1,1,$1+$1,$4,$5*
1,1,$1+$1,$6,$7*
1,1,$1+$1,$8,$9*
0 Add four rect primitives between the rounded corners*
20,1,$1+$1,$2,$3,$4,$5,0*
20,1,$1+$1,$4,$5,$6,$7,0*
20,1,$1+$1,$6,$7,$8,$9,0*
20,1,$1+$1,$8,$9,$2,$3,0*%
G04 Aperture macros list end*
%TA.AperFunction,SMDPad,CuDef*%
%ADD10RoundRect,0.237500X0.250000X0.237500X-0.250000X0.237500X-0.250000X-0.237500X0.250000X-0.237500X0*%
%TD*%
%TA.AperFunction,ComponentPad*%
%ADD11R,1.500000X1.500000*%
%TD*%
%TA.AperFunction,SMDPad,CuDef*%
%ADD12RoundRect,0.237500X-0.237500X0.250000X-0.237500X-0.250000X0.237500X-0.250000X0.237500X0.250000X0*%
%TD*%
%TA.AperFunction,SMDPad,CuDef*%
%ADD13RoundRect,0.250000X0.337500X0.475000X-0.337500X0.475000X-0.337500X-0.475000X0.337500X-0.475000X0*%
%TD*%
%TA.AperFunction,SMDPad,CuDef*%
%ADD14RoundRect,0.300000X0.600000X0.300000X-0.600000X0.300000X-0.600000X-0.300000X0.600000X-0.300000X0*%
%TD*%
%TA.AperFunction,SMDPad,CuDef*%
%ADD15RoundRect,0.150000X-0.512500X-0.150000X0.512500X-0.150000X0.512500X0.150000X-0.512500X0.150000X0*%
%TD*%
%TA.AperFunction,SMDPad,CuDef*%
%ADD16RoundRect,0.250000X-0.475000X0.337500X-0.475000X-0.337500X0.475000X-0.337500X0.475000X0.337500X0*%
%TD*%
%TA.AperFunction,ComponentPad*%
%ADD17R,1.524000X1.524000*%
%TD*%
%TA.AperFunction,ComponentPad*%
%ADD18C,1.524000*%
%TD*%
%TA.AperFunction,ComponentPad*%
%ADD19R,1.600000X1.600000*%
%TD*%
%TA.AperFunction,ComponentPad*%
%ADD20O,1.600000X1.600000*%
%TD*%
%TA.AperFunction,SMDPad,CuDef*%
%ADD21RoundRect,0.250000X0.475000X-0.337500X0.475000X0.337500X-0.475000X0.337500X-0.475000X-0.337500X0*%
%TD*%
%TA.AperFunction,SMDPad,CuDef*%
%ADD22RoundRect,0.250000X-0.337500X-0.475000X0.337500X-0.475000X0.337500X0.475000X-0.337500X0.475000X0*%
%TD*%
%TA.AperFunction,ComponentPad*%
%ADD23R,1.950000X1.950000*%
%TD*%
%TA.AperFunction,ComponentPad*%
%ADD24C,1.950000*%
%TD*%
%TA.AperFunction,SMDPad,CuDef*%
%ADD25RoundRect,0.237500X-0.250000X-0.237500X0.250000X-0.237500X0.250000X0.237500X-0.250000X0.237500X0*%
%TD*%
%TA.AperFunction,ComponentPad*%
%ADD26C,1.600000*%
%TD*%
%TA.AperFunction,SMDPad,CuDef*%
%ADD27R,1.100000X0.250000*%
%TD*%
%TA.AperFunction,ViaPad*%
%ADD28C,0.700000*%
%TD*%
%TA.AperFunction,Conductor*%
%ADD29C,0.200000*%
%TD*%
G04 APERTURE END LIST*
D10*
%TO.P,R4,1*%
%TO.N,+5V*%
X59412500Y-52000000D03*
%TO.P,R4,2*%
%TO.N,Net-(U1-SDA)*%
X57587500Y-52000000D03*
%TD*%
D11*
%TO.P,TP3,1,1*%
%TO.N,Net-(U1-VOUT)*%
X46500000Y-51500000D03*
%TD*%
D10*
%TO.P,R5,1*%
%TO.N,Net-(U3--IN)*%
X101722500Y-55770000D03*
%TO.P,R5,2*%
%TO.N,GND*%
X99897500Y-55770000D03*
%TD*%
D12*
%TO.P,R6,1*%
%TO.N,Net-(J1-Pin_1)*%
X117310000Y-60857500D03*
%TO.P,R6,2*%
%TO.N,Net-(U3--IN)*%
X117310000Y-62682500D03*
%TD*%
D13*
%TO.P,C8,1*%
%TO.N,GND*%
X132537500Y-60000000D03*
%TO.P,C8,2*%
%TO.N,-VSW*%
X130462500Y-60000000D03*
%TD*%
D14*
%TO.P,U4,1,-Vin*%
%TO.N,GND*%
X76666000Y-49620000D03*
%TO.P,U4,2,+Vin*%
%TO.N,+5V*%
X76666000Y-52160000D03*
%TO.P,U4,3,NC*%
%TO.N,unconnected-(U4-NC-Pad3)*%
X76666000Y-54700000D03*
%TO.P,U4,5,Com*%
%TO.N,GND*%
X76666000Y-59772000D03*
%TO.P,U4,6,-Vout*%
%TO.N,-VSW*%
X76666000Y-62312000D03*
%TO.P,U4,7,NC*%
%TO.N,unconnected-(U4-NC-Pad7)*%
X87062000Y-62312000D03*
%TO.P,U4,8,+Vout*%
%TO.N,+VSW*%
X87062000Y-59772000D03*
%TO.P,U4,10,NC*%
%TO.N,unconnected-(U4-NC-Pad10)*%
X87062000Y-54700000D03*
%TO.P,U4,11,NC*%
%TO.N,unconnected-(U4-NC-Pad11)*%
X87062000Y-52160000D03*
%TO.P,U4,12,NC*%
%TO.N,unconnected-(U4-NC-Pad12)*%
X87062000Y-49620000D03*
%TD*%
D11*
%TO.P,TP12,1,1*%
%TO.N,+VSW*%
X136000000Y-80500000D03*
%TD*%
D15*
%TO.P,U1,1,VOUT*%
%TO.N,Net-(U1-VOUT)*%
X51362500Y-51500000D03*
%TO.P,U1,2,VSS*%
%TO.N,GND*%
X51362500Y-52450000D03*
%TO.P,U1,3,VDD*%
%TO.N,+5V*%
X51362500Y-53400000D03*
%TO.P,U1,4,SDA*%
%TO.N,Net-(U1-SDA)*%
X53637500Y-53400000D03*
%TO.P,U1,5,SCL*%
%TO.N,Net-(U1-SCL)*%
X53637500Y-52450000D03*
%TO.P,U1,6,A0*%
%TO.N,GND*%
X53637500Y-51500000D03*
%TD*%
D16*
%TO.P,C10,1*%
%TO.N,GND*%
X138500000Y-119462500D03*
%TO.P,C10,2*%
%TO.N,Net-(U2-AIN0)*%
X138500000Y-121537500D03*
%TD*%
D13*
%TO.P,C7,1*%
%TO.N,Net-(J1-Pin_2)*%
X138037500Y-64500000D03*
%TO.P,C7,2*%
%TO.N,GND*%
X135962500Y-64500000D03*
%TD*%
D17*
%TO.P,U3,1,NULL*%
%TO.N,unconnected-(U3-NULL-Pad1)*%
X105690000Y-54190000D03*
D18*
%TO.P,U3,2,-IN*%
%TO.N,Net-(U3--IN)*%
X105690000Y-56730000D03*
%TO.P,U3,3,+IN*%
%TO.N,Net-(U1-VOUT)*%
X105690000Y-59270000D03*
%TO.P,U3,4,-Vs*%
%TO.N,-VSW*%
X105690000Y-61810000D03*
%TO.P,U3,5,NULL*%
%TO.N,unconnected-(U3-NULL-Pad5)*%
X113310000Y-61810000D03*
%TO.P,U3,6,Vout*%
%TO.N,Net-(J1-Pin_1)*%
X113310000Y-59270000D03*
%TO.P,U3,7,+Vs*%
%TO.N,+VSW*%
X113310000Y-56730000D03*
%TO.P,U3,8,NC*%
%TO.N,unconnected-(U3-NC-Pad8)*%
X113310000Y-54190000D03*
%TD*%
D19*
%TO.P,A1,1,NC*%
%TO.N,unconnected-(A1-NC-Pad1)*%
X81325000Y-72370000D03*
D20*
%TO.P,A1,2,IOREF*%
%TO.N,unconnected-(A1-IOREF-Pad2)*%
X83865000Y-72370000D03*
%TO.P,A1,3,~{RESET}*%
%TO.N,unconnected-(A1-~{RESET}-Pad3)*%
X86405000Y-72370000D03*
%TO.P,A1,4,3V3*%
%TO.N,unconnected-(A1-3V3-Pad4)*%
X88945000Y-72370000D03*
%TO.P,A1,5,+5V*%
%TO.N,+5V*%
X91485000Y-72370000D03*
%TO.P,A1,6,GND*%
%TO.N,GND*%
X94025000Y-72370000D03*
%TO.P,A1,7,GND*%
X96565000Y-72370000D03*
%TO.P,A1,8,VIN*%
%TO.N,unconnected-(A1-VIN-Pad8)*%
X99105000Y-72370000D03*
%TO.P,A1,9,A0*%
%TO.N,unconnected-(A1-A0-Pad9)*%
X104185000Y-72370000D03*
%TO.P,A1,10,A1*%
%TO.N,unconnected-(A1-A1-Pad10)*%
X106725000Y-72370000D03*
%TO.P,A1,11,A2*%
%TO.N,unconnected-(A1-A2-Pad11)*%
X109265000Y-72370000D03*
%TO.P,A1,12,A3*%
%TO.N,unconnected-(A1-A3-Pad12)*%
X111805000Y-72370000D03*
%TO.P,A1,13,SDA/A4*%
%TO.N,Net-(U1-SDA)*%
X114345000Y-72370000D03*
%TO.P,A1,14,SCL/A5*%
%TO.N,Net-(U1-SCL)*%
X116885000Y-72370000D03*
%TO.P,A1,15,D0/RX*%
%TO.N,unconnected-(A1-D0{slash}RX-Pad15)*%
X116885000Y-120630000D03*
%TO.P,A1,16,D1/TX*%
%TO.N,unconnected-(A1-D1{slash}TX-Pad16)*%
X114345000Y-120630000D03*
%TO.P,A1,17,D2*%
%TO.N,unconnected-(A1-D2-Pad17)*%
X111805000Y-120630000D03*
%TO.P,A1,18,D3*%
%TO.N,unconnected-(A1-D3-Pad18)*%
X109265000Y-120630000D03*
%TO.P,A1,19,D4*%
%TO.N,unconnected-(A1-D4-Pad19)*%
X106725000Y-120630000D03*
%TO.P,A1,20,D5*%
%TO.N,unconnected-(A1-D5-Pad20)*%
X104185000Y-120630000D03*
%TO.P,A1,21,D6*%
%TO.N,unconnected-(A1-D6-Pad21)*%
X101645000Y-120630000D03*
%TO.P,A1,22,D7*%
%TO.N,unconnected-(A1-D7-Pad22)*%
X99105000Y-120630000D03*
%TO.P,A1,23,D8*%
%TO.N,unconnected-(A1-D8-Pad23)*%
X95045000Y-120630000D03*
%TO.P,A1,24,D9*%
%TO.N,unconnected-(A1-D9-Pad24)*%
X92505000Y-120630000D03*
%TO.P,A1,25,D10*%
%TO.N,unconnected-(A1-D10-Pad25)*%
X89965000Y-120630000D03*
%TO.P,A1,26,D11*%
%TO.N,unconnected-(A1-D11-Pad26)*%
X87425000Y-120630000D03*
%TO.P,A1,27,D12*%
%TO.N,unconnected-(A1-D12-Pad27)*%
X84885000Y-120630000D03*
%TO.P,A1,28,D13*%
%TO.N,unconnected-(A1-D13-Pad28)*%
X82345000Y-120630000D03*
%TO.P,A1,29,GND*%
%TO.N,GND*%
X79805000Y-120630000D03*
%TO.P,A1,30,AREF*%
%TO.N,unconnected-(A1-AREF-Pad30)*%
X77265000Y-120630000D03*
%TO.P,A1,31,SDA/A4*%
%TO.N,Net-(U2-SDA)*%
X74725000Y-120630000D03*
%TO.P,A1,32,SCL/A5*%
%TO.N,Net-(U2-SCL)*%
X72185000Y-120630000D03*
%TD*%
D11*
%TO.P,TP9,1,1*%
%TO.N,-VSW*%
X71500000Y-62500000D03*
%TD*%
D10*
%TO.P,R11,1*%
%TO.N,Net-(U2-AIN0)*%
X129412500Y-120500000D03*
%TO.P,R11,2*%
%TO.N,Net-(R11-Pad2)*%
X127587500Y-120500000D03*
%TD*%
D21*
%TO.P,C1,1*%
%TO.N,GND*%
X58500000Y-64537500D03*
%TO.P,C1,2*%
%TO.N,+5V*%
X58500000Y-62462500D03*
%TD*%
D12*
%TO.P,R10,1*%
%TO.N,Net-(U5-Vout)*%
X129000000Y-84500000D03*
%TO.P,R10,2*%
%TO.N,Net-(U6--IN)*%
X129000000Y-86325000D03*
%TD*%
D11*
%TO.P,TP5,1,1*%
%TO.N,+VSW*%
X92000000Y-60000000D03*
%TD*%
D10*
%TO.P,R12,1*%
%TO.N,Net-(R11-Pad2)*%
X124412500Y-120500000D03*
%TO.P,R12,2*%
%TO.N,Net-(R12-Pad2)*%
X122587500Y-120500000D03*
%TD*%
D11*
%TO.P,TP6,1,1*%
%TO.N,-VSW*%
X101310000Y-61770000D03*
%TD*%
D21*
%TO.P,C2,1*%
%TO.N,GND*%
X58500000Y-59537500D03*
%TO.P,C2,2*%
%TO.N,Net-(U1-VOUT)*%
X58500000Y-57462500D03*
%TD*%
D11*
%TO.P,TP1,1,1*%
%TO.N,GND*%
X96500000Y-67000000D03*
%TD*%
%TO.P,TP2,1,1*%
%TO.N,+5V*%
X89500000Y-67000000D03*
%TD*%
D22*
%TO.P,C11,1*%
%TO.N,GND*%
X127962500Y-89500000D03*
%TO.P,C11,2*%
%TO.N,-VSW*%
X130037500Y-89500000D03*
%TD*%
D12*
%TO.P,R9,1*%
%TO.N,GND*%
X133500000Y-119587500D03*
%TO.P,R9,2*%
%TO.N,Net-(U2-AIN0)*%
X133500000Y-121412500D03*
%TD*%
D11*
%TO.P,TP15,1,1*%
%TO.N,Net-(U6-Vout)*%
X128000000Y-110000000D03*
%TD*%
D12*
%TO.P,R8,1*%
%TO.N,Net-(J1-Pin_2)*%
X127000000Y-72087500D03*
%TO.P,R8,2*%
%TO.N,Net-(U5-Vout)*%
X127000000Y-73912500D03*
%TD*%
D10*
%TO.P,R1,1*%
%TO.N,Net-(U2-SDA)*%
X50412500Y-57500000D03*
%TO.P,R1,2*%
%TO.N,+5V*%
X48587500Y-57500000D03*
%TD*%
D11*
%TO.P,TP10,1,1*%
%TO.N,+5V*%
X72000000Y-49500000D03*
%TD*%
%TO.P,TP13,1,1*%
%TO.N,Net-(U5-Vout)*%
X129000000Y-80500000D03*
%TD*%
D22*
%TO.P,C9,1*%
%TO.N,+VSW*%
X135462500Y-85000000D03*
%TO.P,C9,2*%
%TO.N,GND*%
X137537500Y-85000000D03*
%TD*%
D11*
%TO.P,TP8,1,1*%
%TO.N,+VSW*%
X116810000Y-56770000D03*
%TD*%
D12*
%TO.P,R7,1*%
%TO.N,Net-(J1-Pin_1)*%
X121810000Y-60857500D03*
%TO.P,R7,2*%
%TO.N,Net-(U3--IN)*%
X121810000Y-62682500D03*
%TD*%
D11*
%TO.P,TP4,1,1*%
%TO.N,Net-(U2-AIN0)*%
X46500000Y-66500000D03*
%TD*%
D23*
%TO.P,J1,1,Pin_1*%
%TO.N,Net-(J1-Pin_1)*%
X131052500Y-50500000D03*
D24*
%TO.P,J1,2,Pin_2*%
%TO.N,Net-(J1-Pin_2)*%
X136052500Y-50500000D03*
%TD*%
D25*
%TO.P,R13,1*%
%TO.N,Net-(R12-Pad2)*%
X126087500Y-115500000D03*
%TO.P,R13,2*%
%TO.N,Net-(U6-Vout)*%
X127912500Y-115500000D03*
%TD*%
D16*
%TO.P,C5,1*%
%TO.N,GND*%
X116810000Y-50732500D03*
%TO.P,C5,2*%
%TO.N,+VSW*%
X116810000Y-52807500D03*
%TD*%
D21*
%TO.P,C3,1*%
%TO.N,Net-(U2-AIN0)*%
X46500000Y-62537500D03*
%TO.P,C3,2*%
%TO.N,GND*%
X46500000Y-60462500D03*
%TD*%
D11*
%TO.P,TP7,1,1*%
%TO.N,Net-(J1-Pin_1)*%
X121810000Y-57270000D03*
%TD*%
D17*
%TO.P,U6,1,NULL*%
%TO.N,unconnected-(U6-NULL-Pad1)*%
X138040000Y-98190000D03*
D18*
%TO.P,U6,2,-IN*%
%TO.N,Net-(U6--IN)*%
X135500000Y-98190000D03*
%TO.P,U6,3,+IN*%
%TO.N,GND*%
X132960000Y-98190000D03*
%TO.P,U6,4,-Vs*%
%TO.N,-VSW*%
X130420000Y-98190000D03*
%TO.P,U6,5,NULL*%
%TO.N,unconnected-(U6-NULL-Pad5)*%
X130420000Y-105810000D03*
%TO.P,U6,6,Vout*%
%TO.N,Net-(U6-Vout)*%
X132960000Y-105810000D03*
%TO.P,U6,7,+Vs*%
%TO.N,+VSW*%
X135500000Y-105810000D03*
%TO.P,U6,8,NC*%
%TO.N,unconnected-(U6-NC-Pad8)*%
X138040000Y-105810000D03*
%TD*%
D11*
%TO.P,TP11,1,1*%
%TO.N,-VSW*%
X130500000Y-65000000D03*
%TD*%
D17*
%TO.P,U5,1,NULL*%
%TO.N,unconnected-(U5-NULL-Pad1)*%
X138310000Y-68690000D03*
D18*
%TO.P,U5,2,-IN*%
%TO.N,Net-(J1-Pin_2)*%
X135770000Y-68690000D03*
%TO.P,U5,3,+IN*%
%TO.N,GND*%
X133230000Y-68690000D03*
%TO.P,U5,4,-Vs*%
%TO.N,-VSW*%
X130690000Y-68690000D03*
%TO.P,U5,5,NULL*%
%TO.N,unconnected-(U5-NULL-Pad5)*%
X130690000Y-76310000D03*
%TO.P,U5,6,Vout*%
%TO.N,Net-(U5-Vout)*%
X133230000Y-76310000D03*
%TO.P,U5,7,+Vs*%
%TO.N,+VSW*%
X135770000Y-76310000D03*
%TO.P,U5,8,NC*%
%TO.N,unconnected-(U5-NC-Pad8)*%
X138310000Y-76310000D03*
%TD*%
D25*
%TO.P,R3,1*%
%TO.N,Net-(U2-SCL)*%
X53087500Y-57500000D03*
%TO.P,R3,2*%
%TO.N,+5V*%
X54912500Y-57500000D03*
%TD*%
D10*
%TO.P,R2,1*%
%TO.N,+5V*%
X59412500Y-47500000D03*
%TO.P,R2,2*%
%TO.N,Net-(U1-SCL)*%
X57587500Y-47500000D03*
%TD*%
D11*
%TO.P,TP16,1,1*%
%TO.N,-VSW*%
X130500000Y-94500000D03*
%TD*%
%TO.P,TP14,1,1*%
%TO.N,+VSW*%
X135500000Y-110000000D03*
%TD*%
D26*
%TO.P,C6,1*%
%TO.N,-VSW*%
X68000000Y-57250000D03*
%TO.P,C6,2*%
%TO.N,GND*%
X68000000Y-53750000D03*
%TD*%
D16*
%TO.P,C4,1*%
%TO.N,GND*%
X97000000Y-59462500D03*
%TO.P,C4,2*%
%TO.N,-VSW*%
X97000000Y-61537500D03*
%TD*%
D27*
%TO.P,U2,1,ADDR*%
%TO.N,GND*%
X50850000Y-62500000D03*
%TO.P,U2,2,ALERT/RDY*%
%TO.N,unconnected-(U2-ALERT{slash}RDY-Pad2)*%
X50850000Y-63000000D03*
%TO.P,U2,3,GND*%
%TO.N,GND*%
X50850000Y-63500000D03*
%TO.P,U2,4,AIN0*%
%TO.N,Net-(U2-AIN0)*%
X50850000Y-64000000D03*
%TO.P,U2,5,AIN1*%
%TO.N,GND*%
X50850000Y-64500000D03*
%TO.P,U2,6,AIN2*%
%TO.N,Net-(U1-VOUT)*%
X55150000Y-64500000D03*
%TO.P,U2,7,AIN3*%
%TO.N,GND*%
X55150000Y-64000000D03*
%TO.P,U2,8,VDD*%
%TO.N,+5V*%
X55150000Y-63500000D03*
%TO.P,U2,9,SDA*%
%TO.N,Net-(U2-SDA)*%
X55150000Y-63000000D03*
%TO.P,U2,10,SCL*%
%TO.N,Net-(U2-SCL)*%
X55150000Y-62500000D03*
%TD*%
D22*
%TO.P,C12,1*%
%TO.N,GND*%
X133462500Y-115000000D03*
%TO.P,C12,2*%
%TO.N,+VSW*%
X135537500Y-115000000D03*
%TD*%
D28*
%TO.N,GND*%
X140000000Y-82000000D03*
X74500000Y-49500000D03*
X132000000Y-70500000D03*
X72000000Y-52500000D03*
X61000000Y-61500000D03*
X53500000Y-67000000D03*
X60500000Y-65500000D03*
%TO.N,+5V*%
X61000000Y-53000000D03*
X57500000Y-55500000D03*
%TO.N,Net-(U1-VOUT)*%
X60000000Y-55500000D03*
X56000000Y-67500000D03*
X68500000Y-65500000D03*
X63000000Y-60000000D03*
X61500000Y-54000000D03*
%TD*%
D29*
%TO.N,Net-(U1-VOUT)*%
X60153186Y-54000000D02*
X61500000Y-54000000D01*
X52315552Y-50900000D02*
X52315552Y-50118762D01*
X55934314Y-46500000D02*
X58000000Y-46500000D01*
X58000000Y-46500000D02*
X58500000Y-47000000D01*
X51715552Y-51500000D02*
X52315552Y-50900000D01*
X52315552Y-50118762D02*
X55934314Y-46500000D01*
X51362500Y-51500000D02*
X51715552Y-51500000D01*
X58500000Y-47000000D02*
X58500000Y-52346814D01*
X58500000Y-52346814D02*
X60153186Y-54000000D01*
%TO.N,Net-(U1-SCL)*%
X53150000Y-52450000D02*
X53637500Y-52450000D01*
X52500000Y-53100000D02*
X53150000Y-52450000D01*
%TO.N,Net-(U2-SCL)*%
X78500000Y-104500000D02*
X78500000Y-121500000D01*
X56940256Y-62500000D02*
X58040256Y-63600000D01*
X78500000Y-121500000D02*
X77500000Y-122500000D01*
X53087500Y-60437500D02*
X55150000Y-62500000D01*
X68500000Y-94500000D02*
X78500000Y-104500000D01*
X77500000Y-122500000D02*
X74055000Y-122500000D01*
X53087500Y-57500000D02*
X53087500Y-60437500D01*
X55150000Y-62500000D02*
X56940256Y-62500000D01*
X74055000Y-122500000D02*
X72185000Y-120630000D01*
X68500000Y-70000000D02*
X68500000Y-94500000D01*
X62100000Y-63600000D02*
X68500000Y-70000000D01*
X58040256Y-63600000D02*
X62100000Y-63600000D01*
%TO.N,Net-(U1-SDA)*%
X70000000Y-64412500D02*
X70000000Y-75500000D01*
X70500000Y-76000000D02*
X110715000Y-76000000D01*
X70000000Y-75500000D02*
X70500000Y-76000000D01*
X53637500Y-53400000D02*
X56187500Y-53400000D01*
X57587500Y-52000000D02*
X70000000Y-64412500D01*
X56187500Y-53400000D02*
X57587500Y-52000000D01*
X110715000Y-76000000D02*
X114345000Y-72370000D01*
%TO.N,GND*%
X116810000Y-50732500D02*
X118317500Y-49225000D01*
X134000000Y-106271895D02*
X134022000Y-106249895D01*
X132000000Y-69920000D02*
X132000000Y-70500000D01*
X76666000Y-59772000D02*
X87505000Y-70611000D01*
X133500000Y-115037500D02*
X133462500Y-115000000D01*
X133500000Y-119587500D02*
X133500000Y-115037500D01*
X140000000Y-82000000D02*
X140000000Y-82537500D01*
X52000000Y-64125000D02*
X51625000Y-64500000D01*
X140000000Y-82537500D02*
X137537500Y-85000000D01*
X91895000Y-74500000D02*
X94025000Y-72370000D01*
X132960000Y-101040000D02*
X132250000Y-101750000D01*
X50850000Y-63500000D02*
X51625000Y-63500000D01*
X138375000Y-119587500D02*
X138500000Y-119462500D01*
X99897500Y-55770000D02*
X99897500Y-56565000D01*
X48812500Y-60462500D02*
X50850000Y-62500000D01*
X96500000Y-72305000D02*
X96565000Y-72370000D01*
X52000000Y-62875000D02*
X52000000Y-63125000D01*
X125775000Y-49225000D02*
X126500000Y-48500000D01*
X132537500Y-61075000D02*
X135962500Y-64500000D01*
X74500000Y-49500000D02*
X74620000Y-49620000D01*
X133940256Y-115000000D02*
X134438000Y-115497744D01*
X137537500Y-85000000D02*
X139102000Y-86564500D01*
X134438000Y-115497744D02*
X134000000Y-115059744D01*
X137500000Y-117000000D02*
X135940256Y-117000000D01*
X52000000Y-63125000D02*
X51625000Y-63500000D01*
X70750000Y-53750000D02*
X72000000Y-52500000D01*
X133500000Y-49500000D02*
X133500000Y-52000000D01*
X132960000Y-98190000D02*
X132960000Y-101040000D01*
X52334448Y-52450000D02*
X53284448Y-51500000D01*
X52000000Y-63875000D02*
X52000000Y-64125000D01*
X51625000Y-63500000D02*
X52000000Y-63875000D01*
X135962500Y-64500000D02*
X135962500Y-65957500D01*
X54375000Y-64000000D02*
X55150000Y-64000000D01*
X50850000Y-62500000D02*
X51625000Y-62500000D01*
X118317500Y-49225000D02*
X125775000Y-49225000D01*
X133500000Y-52000000D02*
X132537500Y-52962500D01*
X116810000Y-50732500D02*
X104935000Y-50732500D01*
X89500000Y-74500000D02*
X91895000Y-74500000D01*
X87505000Y-72505000D02*
X89500000Y-74500000D01*
X134022000Y-103522000D02*
X132250000Y-101750000D01*
X133462500Y-115000000D02*
X133940256Y-115000000D01*
X53875000Y-64500000D02*
X54375000Y-64000000D01*
X51625000Y-64500000D02*
X50850000Y-64500000D01*
X46500000Y-56650001D02*
X46500000Y-60462500D01*
X96500000Y-67000000D02*
X95975000Y-66475000D01*
X51362500Y-52450000D02*
X50700001Y-52450000D01*
X135940256Y-117000000D02*
X134438000Y-115497744D01*
X74620000Y-49620000D02*
X76666000Y-49620000D01*
X59537500Y-64537500D02*
X60500000Y-65500000D01*
X51625000Y-62500000D02*
X52000000Y-62875000D01*
X127962500Y-97462500D02*
X127962500Y-89500000D01*
X94025000Y-72370000D02*
X96565000Y-72370000D01*
X134000000Y-115059744D02*
X134000000Y-106271895D01*
X58500000Y-64537500D02*
X59537500Y-64537500D01*
X53284448Y-51500000D02*
X53637500Y-51500000D01*
X46500000Y-60462500D02*
X48812500Y-60462500D01*
X70644000Y-53750000D02*
X76666000Y-59772000D01*
X68000000Y-53750000D02*
X70750000Y-53750000D01*
X51362500Y-52450000D02*
X52334448Y-52450000D01*
X132537500Y-60000000D02*
X132537500Y-61075000D01*
X61000000Y-61500000D02*
X60462500Y-61500000D01*
X54375000Y-64000000D02*
X53500000Y-64875000D01*
X60462500Y-61500000D02*
X58500000Y-59537500D01*
X68000000Y-53750000D02*
X70644000Y-53750000D01*
X99897500Y-56565000D02*
X97000000Y-59462500D01*
X139102000Y-86564500D02*
X139102000Y-115398000D01*
X133500000Y-119587500D02*
X138375000Y-119587500D01*
X104935000Y-50732500D02*
X99897500Y-55770000D01*
X87505000Y-70611000D02*
X87505000Y-72505000D01*
X50700001Y-52450000D02*
X46500000Y-56650001D01*
X132537500Y-52962500D02*
X132537500Y-60000000D01*
X97000000Y-59462500D02*
X95975000Y-60487500D01*
X139102000Y-115398000D02*
X137500000Y-117000000D01*
X96500000Y-67000000D02*
X96500000Y-72305000D01*
X134022000Y-106249895D02*
X134022000Y-103522000D01*
X126500000Y-48500000D02*
X132500000Y-48500000D01*
X132500000Y-48500000D02*
X133500000Y-49500000D01*
X133230000Y-68690000D02*
X132000000Y-69920000D01*
X50850000Y-64500000D02*
X53875000Y-64500000D01*
X135962500Y-65957500D02*
X133230000Y-68690000D01*
X53500000Y-64875000D02*
X53500000Y-67000000D01*
X132250000Y-101750000D02*
X127962500Y-97462500D01*
X95975000Y-66475000D02*
X95975000Y-60487500D01*
%TO.N,Net-(U2-SDA)*%
X66500000Y-72000000D02*
X67000000Y-72500000D01*
X74725000Y-102725000D02*
X74725000Y-120630000D01*
X50412500Y-59037500D02*
X54375000Y-63000000D01*
X56500000Y-63000000D02*
X57000000Y-63500000D01*
X57000000Y-66500000D02*
X62500000Y-72000000D01*
X67000000Y-72500000D02*
X67000000Y-95000000D01*
X62500000Y-72000000D02*
X66500000Y-72000000D01*
X67000000Y-95000000D02*
X74725000Y-102725000D01*
X55150000Y-63000000D02*
X56500000Y-63000000D01*
X54375000Y-63000000D02*
X55150000Y-63000000D01*
X50412500Y-57500000D02*
X50412500Y-59037500D01*
X57000000Y-63500000D02*
X57000000Y-66500000D01*
%TO.N,+5V*%
X85862000Y-61356000D02*
X85862000Y-63362000D01*
X89500000Y-70385000D02*
X91485000Y-72370000D01*
X48587500Y-56175000D02*
X48587500Y-57500000D01*
X60000000Y-52000000D02*
X59412500Y-52000000D01*
X54912500Y-58875000D02*
X58500000Y-62462500D01*
X72000000Y-49500000D02*
X74660000Y-52160000D01*
X51362500Y-53400000D02*
X48587500Y-56175000D01*
X59412500Y-47500000D02*
X70000000Y-47500000D01*
X50500000Y-55500000D02*
X52500000Y-55500000D01*
X51362500Y-53400000D02*
X54912500Y-56950000D01*
X49625000Y-59625000D02*
X49625000Y-56375000D01*
X61000000Y-53000000D02*
X60000000Y-52000000D01*
X76666000Y-52160000D02*
X85862000Y-61356000D01*
X54912500Y-56950000D02*
X54912500Y-57500000D01*
X52500000Y-55500000D02*
X58500000Y-61500000D01*
X85862000Y-63362000D02*
X89500000Y-67000000D01*
X70000000Y-47500000D02*
X72000000Y-49500000D01*
X74660000Y-52160000D02*
X76666000Y-52160000D01*
X53500000Y-63500000D02*
X49625000Y-59625000D01*
X49625000Y-56375000D02*
X50500000Y-55500000D01*
X58500000Y-61500000D02*
X58500000Y-62462500D01*
X59412500Y-47500000D02*
X59412500Y-52000000D01*
X89500000Y-67000000D02*
X89500000Y-70385000D01*
X54912500Y-57500000D02*
X55500000Y-57500000D01*
X54912500Y-57500000D02*
X54912500Y-58875000D01*
X55150000Y-63500000D02*
X53500000Y-63500000D01*
X55500000Y-57500000D02*
X57500000Y-55500000D01*
%TO.N,Net-(U1-SCL)*%
X116885000Y-72370000D02*
X116304314Y-72370000D01*
X116304314Y-72370000D02*
X111674314Y-77000000D01*
X62000000Y-62000000D02*
X62000000Y-60970128D01*
X70467157Y-77000000D02*
X69000000Y-75532843D01*
X55550000Y-52450000D02*
X56000000Y-52000000D01*
X59529872Y-58500000D02*
X57500000Y-58500000D01*
X56000000Y-48000000D02*
X56500000Y-47500000D01*
X57000000Y-58000000D02*
X57000000Y-56919239D01*
X53637500Y-52450000D02*
X55550000Y-52450000D01*
X69000000Y-69000000D02*
X62000000Y-62000000D01*
X62000000Y-60970128D02*
X59529872Y-58500000D01*
X58500000Y-55419239D02*
X58500000Y-54500000D01*
X52528186Y-54000000D02*
X52500000Y-53971814D01*
X52500000Y-53971814D02*
X52500000Y-53100000D01*
X58500000Y-54500000D02*
X58000000Y-54000000D01*
X56500000Y-47500000D02*
X57587500Y-47500000D01*
X57000000Y-56919239D02*
X58500000Y-55419239D01*
X111674314Y-77000000D02*
X70467157Y-77000000D01*
X58000000Y-54000000D02*
X52528186Y-54000000D01*
X56000000Y-52000000D02*
X56000000Y-48000000D01*
X57500000Y-58500000D02*
X57000000Y-58000000D01*
X69000000Y-75532843D02*
X69000000Y-69000000D01*
%TO.N,Net-(U1-VOUT)*%
X63000000Y-60000000D02*
X60462500Y-57462500D01*
X58500000Y-57000000D02*
X58500000Y-57462500D01*
X60462500Y-57462500D02*
X58500000Y-57462500D01*
X46500000Y-51500000D02*
X51362500Y-51500000D01*
X55150000Y-64500000D02*
X55150000Y-66650000D01*
X60000000Y-55500000D02*
X58500000Y-57000000D01*
X55150000Y-66650000D02*
X56000000Y-67500000D01*
X63000000Y-60000000D02*
X68500000Y-65500000D01*
%TO.N,Net-(U2-AIN0)*%
X129412500Y-120500000D02*
X130000000Y-120500000D01*
X133500000Y-121412500D02*
X134412500Y-121412500D01*
X46500000Y-62537500D02*
X47962500Y-64000000D01*
X47962500Y-64000000D02*
X50850000Y-64000000D01*
X50000000Y-122000000D02*
X53500000Y-125500000D01*
X50850000Y-64000000D02*
X50100000Y-64000000D01*
X124412500Y-125500000D02*
X129412500Y-120500000D01*
X130912500Y-121412500D02*
X133500000Y-121412500D01*
X50100000Y-64000000D02*
X50000000Y-64100000D01*
X134537500Y-121537500D02*
X138500000Y-121537500D01*
X50000000Y-64100000D02*
X50000000Y-122000000D01*
X46500000Y-62537500D02*
X46500000Y-66500000D01*
X53500000Y-125500000D02*
X124412500Y-125500000D01*
X130000000Y-120500000D02*
X130912500Y-121412500D01*
X134412500Y-121412500D02*
X134537500Y-121537500D01*
%TO.N,-VSW*%
X85000000Y-70646000D02*
X85000000Y-73000000D01*
X105690000Y-61810000D02*
X106310000Y-61810000D01*
X106310000Y-61810000D02*
X107970000Y-63470000D01*
X76478000Y-62500000D02*
X76666000Y-62312000D01*
X87000000Y-75000000D02*
X99500000Y-75000000D01*
X105650000Y-61770000D02*
X105690000Y-61810000D01*
X101310000Y-61770000D02*
X105650000Y-61770000D01*
X76666000Y-62312000D02*
X85000000Y-70646000D01*
X126225000Y-85687500D02*
X130037500Y-89500000D01*
X130462500Y-64962500D02*
X130500000Y-65000000D01*
X101310000Y-73190000D02*
X101310000Y-61770000D01*
X126992500Y-63470000D02*
X130462500Y-60000000D01*
X130037500Y-94037500D02*
X130500000Y-94500000D01*
X107970000Y-63470000D02*
X126992500Y-63470000D01*
X71500000Y-62500000D02*
X76478000Y-62500000D01*
X130462500Y-60000000D02*
X130462500Y-64962500D01*
X130690000Y-68690000D02*
X129143278Y-68690000D01*
X126225000Y-71608278D02*
X126225000Y-85687500D01*
X129143278Y-68690000D02*
X126225000Y-71608278D01*
X130037500Y-89500000D02*
X130037500Y-94037500D01*
X99500000Y-75000000D02*
X101310000Y-73190000D01*
X101077500Y-61537500D02*
X101310000Y-61770000D01*
X130500000Y-68500000D02*
X130690000Y-68690000D01*
X130420000Y-98190000D02*
X130420000Y-94580000D01*
X130420000Y-94580000D02*
X130500000Y-94500000D01*
X85000000Y-73000000D02*
X87000000Y-75000000D01*
X97000000Y-61537500D02*
X101077500Y-61537500D01*
X130500000Y-65000000D02*
X130500000Y-68500000D01*
%TO.N,+VSW*%
X136000000Y-80500000D02*
X136000000Y-84462500D01*
X136978000Y-86515500D02*
X136978000Y-104332000D01*
X135770000Y-76310000D02*
X135770000Y-80270000D01*
X87062000Y-59772000D02*
X91772000Y-59772000D01*
X135770000Y-80270000D02*
X136000000Y-80500000D01*
X136978000Y-104332000D02*
X135500000Y-105810000D01*
X113350000Y-56770000D02*
X113310000Y-56730000D01*
X135500000Y-105810000D02*
X135500000Y-110000000D01*
X116810000Y-52807500D02*
X116810000Y-56770000D01*
X135462500Y-85000000D02*
X136978000Y-86515500D01*
X136000000Y-84462500D02*
X135462500Y-85000000D01*
X91772000Y-59772000D02*
X92000000Y-60000000D01*
X135500000Y-110000000D02*
X135500000Y-110500000D01*
X135500000Y-110500000D02*
X135537500Y-110537500D01*
X135537500Y-110537500D02*
X135537500Y-115000000D01*
X116810000Y-56770000D02*
X113350000Y-56770000D01*
%TO.N,Net-(J1-Pin_2)*%
X138037500Y-52485000D02*
X136052500Y-50500000D01*
X132372500Y-72087500D02*
X135770000Y-68690000D01*
X127000000Y-72087500D02*
X132372500Y-72087500D01*
X138037500Y-66422500D02*
X135770000Y-68690000D01*
X138037500Y-64500000D02*
X138037500Y-52485000D01*
X138037500Y-64500000D02*
X138037500Y-66422500D01*
%TO.N,Net-(J1-Pin_1)*%
X121810000Y-57270000D02*
X124282500Y-57270000D01*
X114897500Y-60857500D02*
X113310000Y-59270000D01*
X121810000Y-60857500D02*
X121810000Y-57270000D01*
X124282500Y-57270000D02*
X131052500Y-50500000D01*
X117310000Y-60857500D02*
X114897500Y-60857500D01*
X121810000Y-60857500D02*
X117310000Y-60857500D01*
%TO.N,Net-(U3--IN)*%
X113501895Y-60500000D02*
X109460000Y-60500000D01*
X109460000Y-60500000D02*
X105690000Y-56730000D01*
X115684395Y-62682500D02*
X113501895Y-60500000D01*
X101722500Y-55770000D02*
X104730000Y-55770000D01*
X117310000Y-62682500D02*
X115684395Y-62682500D01*
X121810000Y-62682500D02*
X117310000Y-62682500D01*
X104730000Y-55770000D02*
X105690000Y-56730000D01*
%TO.N,Net-(U5-Vout)*%
X127000000Y-73912500D02*
X130832500Y-73912500D01*
X129000000Y-80500000D02*
X129000000Y-84500000D01*
X133230000Y-76310000D02*
X129540000Y-80000000D01*
X130832500Y-73912500D02*
X133230000Y-76310000D01*
X129540000Y-80000000D02*
X128500000Y-80000000D01*
X128500000Y-80000000D02*
X129000000Y-80500000D01*
%TO.N,Net-(U6--IN)*%
X135500000Y-92825000D02*
X129000000Y-86325000D01*
X135500000Y-98190000D02*
X135500000Y-92825000D01*
%TO.N,Net-(R11-Pad2)*%
X124412500Y-120500000D02*
X127587500Y-120500000D01*
%TO.N,Net-(R12-Pad2)*%
X126087500Y-115500000D02*
X125500000Y-115500000D01*
X125500000Y-115500000D02*
X122587500Y-118412500D01*
X122587500Y-118412500D02*
X122587500Y-120500000D01*
%TO.N,Net-(U6-Vout)*%
X127912500Y-110587500D02*
X127912500Y-115500000D01*
X128000000Y-110000000D02*
X128000000Y-110500000D01*
X128000000Y-110000000D02*
X128500000Y-109500000D01*
X129270000Y-109500000D02*
X132960000Y-105810000D01*
X128500000Y-109500000D02*
X129270000Y-109500000D01*
X128000000Y-110500000D02*
X127912500Y-110587500D01*
%TD*%
%TA.AperFunction,Conductor*%
%TO.N,+VSW*%
G36*
X136551741Y-106508188D02*
G01*
X136597094Y-106443417D01*
X136597095Y-106443416D01*
X136657340Y-106314219D01*
X136703512Y-106261780D01*
X136770706Y-106242627D01*
X136837587Y-106262842D01*
X136882105Y-106314218D01*
X136942466Y-106443662D01*
X136942468Y-106443666D01*
X137069170Y-106624615D01*
X137069175Y-106624621D01*
X137225378Y-106780824D01*
X137225384Y-106780829D01*
X137406333Y-106907531D01*
X137406335Y-106907532D01*
X137406338Y-106907534D01*
X137606550Y-107000894D01*
X137819932Y-107058070D01*
X137966743Y-107070914D01*
X138039998Y-107077323D01*
X138040000Y-107077323D01*
X138040002Y-107077323D01*
X138095017Y-107072509D01*
X138260068Y-107058070D01*
X138345407Y-107035203D01*
X138415255Y-107036864D01*
X138473118Y-107076026D01*
X138500623Y-107140254D01*
X138501500Y-107154977D01*
X138501500Y-115097903D01*
X138481815Y-115164942D01*
X138465181Y-115185584D01*
X137287584Y-116363181D01*
X137226261Y-116396666D01*
X137199903Y-116399500D01*
X136240353Y-116399500D01*
X136173314Y-116379815D01*
X136152672Y-116363181D01*
X136152047Y-116362556D01*
X136118562Y-116301233D01*
X136123546Y-116231541D01*
X136165418Y-116175608D01*
X136188204Y-116163750D01*
X136187579Y-116162408D01*
X136194124Y-116159356D01*
X136343345Y-116067315D01*
X136467315Y-115943345D01*
X136559356Y-115794124D01*
X136559358Y-115794119D01*
X136614505Y-115627697D01*
X136614506Y-115627690D01*
X136624999Y-115524986D01*
X136625000Y-115524973D01*
X136625000Y-115250000D01*
X135661500Y-115250000D01*
X135594461Y-115230315D01*
X135548706Y-115177511D01*
X135537500Y-115126000D01*
X135537500Y-115000000D01*
X135411500Y-115000000D01*
X135344461Y-114980315D01*
X135298706Y-114927511D01*
X135287500Y-114876000D01*
X135287500Y-114750000D01*
X135787500Y-114750000D01*
X136624999Y-114750000D01*
X136624999Y-114475028D01*
X136624998Y-114475013D01*
X136614505Y-114372302D01*
X136559358Y-114205880D01*
X136559356Y-114205875D01*
X136467315Y-114056654D01*
X136343345Y-113932684D01*
X136194124Y-113840643D01*
X136194119Y-113840641D01*
X136027697Y-113785494D01*
X136027690Y-113785493D01*
X135924986Y-113775000D01*
X135787500Y-113775000D01*
X135787500Y-114750000D01*
X135287500Y-114750000D01*
X135287500Y-113775000D01*
X135150027Y-113775000D01*
X135150012Y-113775001D01*
X135047302Y-113785494D01*
X134880880Y-113840641D01*
X134880875Y-113840643D01*
X134789597Y-113896945D01*
X134722204Y-113915385D01*
X134655541Y-113894462D01*
X134610771Y-113840820D01*
X134600500Y-113791406D01*
X134600500Y-111374000D01*
X134620185Y-111306961D01*
X134672989Y-111261206D01*
X134724500Y-111250000D01*
X135250000Y-111250000D01*
X135750000Y-111250000D01*
X136297828Y-111250000D01*
X136297844Y-111249999D01*
X136357372Y-111243598D01*
X136357379Y-111243596D01*
X136492086Y-111193354D01*
X136492093Y-111193350D01*
X136607187Y-111107190D01*
X136607190Y-111107187D01*
X136693350Y-110992093D01*
X136693354Y-110992086D01*
X136743596Y-110857379D01*
X136743598Y-110857372D01*
X136749999Y-110797844D01*
X136750000Y-110797827D01*
X136750000Y-110250000D01*
X135750000Y-110250000D01*
X135750000Y-111250000D01*
X135250000Y-111250000D01*
X135250000Y-110244975D01*
X135285095Y-110280070D01*
X135364905Y-110326148D01*
X135453922Y-110350000D01*
X135546078Y-110350000D01*
X135635095Y-110326148D01*
X135714905Y-110280070D01*
X135780070Y-110214905D01*
X135826148Y-110135095D01*
X135850000Y-110046078D01*
X135850000Y-109953922D01*
X135826148Y-109864905D01*
X135780070Y-109785095D01*
X135744975Y-109750000D01*
X135750000Y-109750000D01*
X136750000Y-109750000D01*
X136750000Y-109202172D01*
X136749999Y-109202155D01*
X136743598Y-109142627D01*
X136743596Y-109142620D01*
X136693354Y-109007913D01*
X136693350Y-109007906D01*
X136607190Y-108892812D01*
X136607187Y-108892809D01*
X136492093Y-108806649D01*
X136492086Y-108806645D01*
X136357379Y-108756403D01*
X136357372Y-108756401D01*
X136297844Y-108750000D01*
X135750000Y-108750000D01*
X135750000Y-109750000D01*
X135744975Y-109750000D01*
X135714905Y-109719930D01*
X135635095Y-109673852D01*
X135546078Y-109650000D01*
X135453922Y-109650000D01*
X135364905Y-109673852D01*
X135285095Y-109719930D01*
X135250000Y-109755025D01*
X135250000Y-108750000D01*
X134724500Y-108750000D01*
X134657461Y-108730315D01*
X134611706Y-108677511D01*
X134600500Y-108626000D01*
X134600500Y-106958982D01*
X134620185Y-106891943D01*
X134672989Y-106846188D01*
X134742147Y-106836244D01*
X134795625Y-106857408D01*
X134866588Y-106907098D01*
X134866592Y-106907100D01*
X135066715Y-107000419D01*
X135066729Y-107000424D01*
X135280013Y-107057573D01*
X135280023Y-107057575D01*
X135499999Y-107076821D01*
X135500001Y-107076821D01*
X135719976Y-107057575D01*
X135719986Y-107057573D01*
X135933270Y-107000424D01*
X135933284Y-107000419D01*
X136133407Y-106907100D01*
X136133417Y-106907094D01*
X136198188Y-106861741D01*
X135552847Y-106216400D01*
X135553504Y-106216400D01*
X135656865Y-106188705D01*
X135749536Y-106135201D01*
X135825201Y-106059536D01*
X135878705Y-105966865D01*
X135906400Y-105863504D01*
X135906400Y-105862847D01*
X136551741Y-106508188D01*
G37*
%TD.AperFunction*%
%TA.AperFunction,Conductor*%
G36*
X134297865Y-98643435D02*
G01*
X134342382Y-98694811D01*
X134402464Y-98823658D01*
X134402468Y-98823666D01*
X134529170Y-99004615D01*
X134529175Y-99004621D01*
X134685378Y-99160824D01*
X134685384Y-99160829D01*
X134866333Y-99287531D01*
X134866335Y-99287532D01*
X134866338Y-99287534D01*
X135066550Y-99380894D01*
X135279932Y-99438070D01*
X135437123Y-99451822D01*
X135499998Y-99457323D01*
X135500000Y-99457323D01*
X135500002Y-99457323D01*
X135555151Y-99452498D01*
X135720068Y-99438070D01*
X135933450Y-99380894D01*
X136133662Y-99287534D01*
X136314620Y-99160826D01*
X136470826Y-99004620D01*
X136551927Y-98888795D01*
X136606501Y-98845172D01*
X136675999Y-98837978D01*
X136738354Y-98869500D01*
X136773769Y-98929730D01*
X136777500Y-98959917D01*
X136777500Y-98999868D01*
X136777501Y-98999876D01*
X136783908Y-99059483D01*
X136834202Y-99194328D01*
X136834206Y-99194335D01*
X136920452Y-99309544D01*
X136920455Y-99309547D01*
X137035664Y-99395793D01*
X137035671Y-99395797D01*
X137170517Y-99446091D01*
X137170516Y-99446091D01*
X137177444Y-99446835D01*
X137230127Y-99452500D01*
X138377500Y-99452499D01*
X138444539Y-99472184D01*
X138490294Y-99524987D01*
X138501500Y-99576499D01*
X138501500Y-104465021D01*
X138481815Y-104532060D01*
X138429011Y-104577815D01*
X138359853Y-104587759D01*
X138345407Y-104584796D01*
X138260073Y-104561931D01*
X138260069Y-104561930D01*
X138260068Y-104561930D01*
X138260067Y-104561929D01*
X138260062Y-104561929D01*
X138040002Y-104542677D01*
X138039998Y-104542677D01*
X137819937Y-104561929D01*
X137819929Y-104561930D01*
X137606554Y-104619104D01*
X137606548Y-104619107D01*
X137406340Y-104712465D01*
X137406338Y-104712466D01*
X137225377Y-104839175D01*
X137069175Y-104995377D01*
X136942467Y-105176337D01*
X136882105Y-105305782D01*
X136835932Y-105358221D01*
X136768738Y-105377372D01*
X136701857Y-105357156D01*
X136657341Y-105305780D01*
X136597098Y-105176589D01*
X136597097Y-105176587D01*
X136551741Y-105111811D01*
X136551740Y-105111810D01*
X135906400Y-105757151D01*
X135906400Y-105756496D01*
X135878705Y-105653135D01*
X135825201Y-105560464D01*
X135749536Y-105484799D01*
X135656865Y-105431295D01*
X135553504Y-105403600D01*
X135552846Y-105403600D01*
X136198188Y-104758258D01*
X136133411Y-104712901D01*
X136133405Y-104712898D01*
X135933284Y-104619580D01*
X135933270Y-104619575D01*
X135719986Y-104562426D01*
X135719976Y-104562424D01*
X135500001Y-104543179D01*
X135499999Y-104543179D01*
X135280023Y-104562424D01*
X135280013Y-104562426D01*
X135066729Y-104619575D01*
X135066720Y-104619579D01*
X134866591Y-104712900D01*
X134866589Y-104712901D01*
X134817623Y-104747188D01*
X134751417Y-104769515D01*
X134683649Y-104752505D01*
X134635837Y-104701556D01*
X134622500Y-104645613D01*
X134622500Y-103442945D01*
X134622500Y-103442943D01*
X134581577Y-103290216D01*
X134581573Y-103290209D01*
X134502524Y-103153290D01*
X134502521Y-103153286D01*
X134502520Y-103153284D01*
X134390716Y-103041480D01*
X134390715Y-103041479D01*
X134386385Y-103037149D01*
X134386374Y-103037139D01*
X133186916Y-101837681D01*
X133153431Y-101776358D01*
X133158415Y-101706666D01*
X133186916Y-101662319D01*
X133440520Y-101408716D01*
X133519577Y-101271784D01*
X133560501Y-101119057D01*
X133560501Y-100960942D01*
X133560501Y-100953347D01*
X133560500Y-100953329D01*
X133560500Y-99375304D01*
X133580185Y-99308265D01*
X133613375Y-99273730D01*
X133774620Y-99160826D01*
X133930826Y-99004620D01*
X134057534Y-98823662D01*
X134117618Y-98694811D01*
X134163790Y-98642371D01*
X134230983Y-98623219D01*
X134297865Y-98643435D01*
G37*
%TD.AperFunction*%
%TA.AperFunction,Conductor*%
G36*
X129591224Y-49120185D02*
G01*
X129636979Y-49172989D01*
X129646923Y-49242147D01*
X129636266Y-49274159D01*
X129636803Y-49274359D01*
X129583408Y-49417517D01*
X129577001Y-49477116D01*
X129577000Y-49477135D01*
X129577000Y-51074902D01*
X129557315Y-51141941D01*
X129540681Y-51162583D01*
X124070084Y-56633181D01*
X124008761Y-56666666D01*
X123982403Y-56669500D01*
X123184499Y-56669500D01*
X123117460Y-56649815D01*
X123071705Y-56597011D01*
X123060499Y-56545500D01*
X123060499Y-56472129D01*
X123060498Y-56472123D01*
X123060497Y-56472116D01*
X123054091Y-56412517D01*
X123053473Y-56410861D01*
X123003797Y-56277671D01*
X123003793Y-56277664D01*
X122917547Y-56162455D01*
X122917544Y-56162452D01*
X122802335Y-56076206D01*
X122802328Y-56076202D01*
X122667482Y-56025908D01*
X122667483Y-56025908D01*
X122607883Y-56019501D01*
X122607881Y-56019500D01*
X122607873Y-56019500D01*
X122607864Y-56019500D01*
X121012129Y-56019500D01*
X121012123Y-56019501D01*
X120952516Y-56025908D01*
X120817671Y-56076202D01*
X120817664Y-56076206D01*
X120702455Y-56162452D01*
X120702452Y-56162455D01*
X120616206Y-56277664D01*
X120616202Y-56277671D01*
X120565908Y-56412517D01*
X120559501Y-56472116D01*
X120559501Y-56472123D01*
X120559500Y-56472135D01*
X120559501Y-58067865D01*
X120559501Y-58067876D01*
X120565908Y-58127483D01*
X120616202Y-58262328D01*
X120616206Y-58262335D01*
X120702452Y-58377544D01*
X120702455Y-58377547D01*
X120817664Y-58463793D01*
X120817671Y-58463797D01*
X120849044Y-58475498D01*
X120952517Y-58514091D01*
X121012127Y-58520500D01*
X121085500Y-58520499D01*
X121152538Y-58540183D01*
X121198294Y-58592986D01*
X121209500Y-58644499D01*
X121209500Y-59895098D01*
X121189815Y-59962137D01*
X121150598Y-60000636D01*
X121111650Y-60024659D01*
X120989659Y-60146650D01*
X120957928Y-60198096D01*
X120905980Y-60244821D01*
X120852389Y-60257000D01*
X118267611Y-60257000D01*
X118200572Y-60237315D01*
X118162072Y-60198096D01*
X118130340Y-60146650D01*
X118008351Y-60024661D01*
X118008350Y-60024660D01*
X117891842Y-59952797D01*
X117861518Y-59934093D01*
X117861513Y-59934091D01*
X117842899Y-59927923D01*
X117697753Y-59879826D01*
X117697751Y-59879825D01*
X117596678Y-59869500D01*
X117023330Y-59869500D01*
X117023312Y-59869501D01*
X116922247Y-59879825D01*
X116758484Y-59934092D01*
X116758481Y-59934093D01*
X116611648Y-60024661D01*
X116489659Y-60146650D01*
X116457928Y-60198096D01*
X116405980Y-60244821D01*
X116352389Y-60257000D01*
X115197597Y-60257000D01*
X115130558Y-60237315D01*
X115109916Y-60220681D01*
X114570914Y-59681679D01*
X114537429Y-59620356D01*
X114538821Y-59561902D01*
X114543098Y-59545943D01*
X114558070Y-59490068D01*
X114577323Y-59270000D01*
X114576511Y-59260724D01*
X114566342Y-59144480D01*
X114558070Y-59049932D01*
X114500894Y-58836550D01*
X114407534Y-58636339D01*
X114295781Y-58476738D01*
X114280827Y-58455381D01*
X114202990Y-58377544D01*
X114124620Y-58299174D01*
X114124616Y-58299171D01*
X114124615Y-58299170D01*
X113943666Y-58172468D01*
X113943662Y-58172466D01*
X113814218Y-58112105D01*
X113761779Y-58065932D01*
X113742627Y-57998739D01*
X113762843Y-57931858D01*
X113814219Y-57887340D01*
X113943416Y-57827095D01*
X113943417Y-57827094D01*
X114008188Y-57781741D01*
X113794291Y-57567844D01*
X115560000Y-57567844D01*
X115566401Y-57627372D01*
X115566403Y-57627379D01*
X115616645Y-57762086D01*
X115616649Y-57762093D01*
X115702809Y-57877187D01*
X115702812Y-57877190D01*
X115817906Y-57963350D01*
X115817913Y-57963354D01*
X115952620Y-58013596D01*
X115952627Y-58013598D01*
X116012155Y-58019999D01*
X116012172Y-58020000D01*
X116560000Y-58020000D01*
X117060000Y-58020000D01*
X117607828Y-58020000D01*
X117607844Y-58019999D01*
X117667372Y-58013598D01*
X117667379Y-58013596D01*
X117802086Y-57963354D01*
X117802093Y-57963350D01*
X117917187Y-57877190D01*
X117917190Y-57877187D01*
X118003350Y-57762093D01*
X118003354Y-57762086D01*
X118053596Y-57627379D01*
X118053598Y-57627372D01*
X118059999Y-57567844D01*
X118060000Y-57567827D01*
X118060000Y-57020000D01*
X117060000Y-57020000D01*
X117060000Y-58020000D01*
X116560000Y-58020000D01*
X116560000Y-57020000D01*
X115560000Y-57020000D01*
X115560000Y-57567844D01*
X113794291Y-57567844D01*
X113362848Y-57136400D01*
X113363504Y-57136400D01*
X113466865Y-57108705D01*
X113559536Y-57055201D01*
X113635201Y-56979536D01*
X113688705Y-56886865D01*
X113716400Y-56783504D01*
X113716400Y-56782847D01*
X114361741Y-57428188D01*
X114407094Y-57363417D01*
X114407100Y-57363407D01*
X114500419Y-57163284D01*
X114500424Y-57163270D01*
X114557573Y-56949986D01*
X114557575Y-56949976D01*
X114576821Y-56730000D01*
X114576821Y-56729999D01*
X114576289Y-56723922D01*
X116460000Y-56723922D01*
X116460000Y-56816078D01*
X116483852Y-56905095D01*
X116529930Y-56984905D01*
X116595095Y-57050070D01*
X116674905Y-57096148D01*
X116763922Y-57120000D01*
X116856078Y-57120000D01*
X116945095Y-57096148D01*
X117024905Y-57050070D01*
X117090070Y-56984905D01*
X117136148Y-56905095D01*
X117160000Y-56816078D01*
X117160000Y-56723922D01*
X117136148Y-56634905D01*
X117090070Y-56555095D01*
X117054975Y-56520000D01*
X117060000Y-56520000D01*
X118060000Y-56520000D01*
X118060000Y-55972172D01*
X118059999Y-55972155D01*
X118053598Y-55912627D01*
X118053596Y-55912620D01*
X118003354Y-55777913D01*
X118003350Y-55777906D01*
X117917190Y-55662812D01*
X117917187Y-55662809D01*
X117802093Y-55576649D01*
X117802086Y-55576645D01*
X117667379Y-55526403D01*
X117667372Y-55526401D01*
X117607844Y-55520000D01*
X117060000Y-55520000D01*
X117060000Y-56520000D01*
X117054975Y-56520000D01*
X117024905Y-56489930D01*
X116945095Y-56443852D01*
X116856078Y-56420000D01*
X116763922Y-56420000D01*
X116674905Y-56443852D01*
X116595095Y-56489930D01*
X116529930Y-56555095D01*
X116483852Y-56634905D01*
X116460000Y-56723922D01*
X114576289Y-56723922D01*
X114557575Y-56510023D01*
X114557573Y-56510013D01*
X114500424Y-56296729D01*
X114500420Y-56296720D01*
X114407096Y-56096586D01*
X114361741Y-56031811D01*
X114361740Y-56031810D01*
X113716400Y-56677151D01*
X113716400Y-56676496D01*
X113688705Y-56573135D01*
X113635201Y-56480464D01*
X113559536Y-56404799D01*
X113466865Y-56351295D01*
X113363504Y-56323600D01*
X113362847Y-56323600D01*
X113714291Y-55972155D01*
X115560000Y-55972155D01*
X115560000Y-56520000D01*
X116560000Y-56520000D01*
X116560000Y-55520000D01*
X116012155Y-55520000D01*
X115952627Y-55526401D01*
X115952620Y-55526403D01*
X115817913Y-55576645D01*
X115817906Y-55576649D01*
X115702812Y-55662809D01*
X115702809Y-55662812D01*
X115616649Y-55777906D01*
X115616645Y-55777913D01*
X115566403Y-55912620D01*
X115566401Y-55912627D01*
X115560000Y-55972155D01*
X113714291Y-55972155D01*
X114008188Y-55678258D01*
X113943411Y-55632901D01*
X113943405Y-55632898D01*
X113814219Y-55572658D01*
X113761779Y-55526486D01*
X113742627Y-55459293D01*
X113762843Y-55392411D01*
X113814219Y-55347894D01*
X113943662Y-55287534D01*
X114124620Y-55160826D01*
X114280826Y-55004620D01*
X114407534Y-54823662D01*
X114500894Y-54623450D01*
X114558070Y-54410068D01*
X114576755Y-54196496D01*
X114577323Y-54190002D01*
X114577323Y-54189997D01*
X114565117Y-54050478D01*
X114558070Y-53969932D01*
X114500894Y-53756550D01*
X114407534Y-53556339D01*
X114288836Y-53386819D01*
X114280827Y-53375381D01*
X114203136Y-53297690D01*
X114124620Y-53219174D01*
X114124616Y-53219171D01*
X114124615Y-53219170D01*
X114090077Y-53194986D01*
X115585001Y-53194986D01*
X115595494Y-53297697D01*
X115650641Y-53464119D01*
X115650643Y-53464124D01*
X115742684Y-53613345D01*
X115866654Y-53737315D01*
X116015875Y-53829356D01*
X116015880Y-53829358D01*
X116182302Y-53884505D01*
X116182309Y-53884506D01*
X116285019Y-53894999D01*
X116559999Y-53894999D01*
X117060000Y-53894999D01*
X117334972Y-53894999D01*
X117334986Y-53894998D01*
X117437697Y-53884505D01*
X117604119Y-53829358D01*
X117604124Y-53829356D01*
X117753345Y-53737315D01*
X117877315Y-53613345D01*
X117969356Y-53464124D01*
X117969358Y-53464119D01*
X118024505Y-53297697D01*
X118024506Y-53297690D01*
X118034999Y-53194986D01*
X118035000Y-53194973D01*
X118035000Y-53057500D01*
X117060000Y-53057500D01*
X117060000Y-53894999D01*
X116559999Y-53894999D01*
X116560000Y-53894998D01*
X116560000Y-53057500D01*
X115585001Y-53057500D01*
X115585001Y-53194986D01*
X114090077Y-53194986D01*
X113943666Y-53092468D01*
X113943662Y-53092466D01*
X113896457Y-53070454D01*
X113743450Y-52999106D01*
X113743447Y-52999105D01*
X113743445Y-52999104D01*
X113530070Y-52941930D01*
X113530062Y-52941929D01*
X113310002Y-52922677D01*
X113309998Y-52922677D01*
X113089937Y-52941929D01*
X113089929Y-52941930D01*
X112876554Y-52999104D01*
X112876548Y-52999107D01*
X112676340Y-53092465D01*
X112676338Y-53092466D01*
X112495377Y-53219175D01*
X112339175Y-53375377D01*
X112212466Y-53556338D01*
X112212465Y-53556340D01*
X112119107Y-53756548D01*
X112119104Y-53756554D01*
X112061930Y-53969929D01*
X112061929Y-53969937D01*
X112042677Y-54189997D01*
X112042677Y-54190002D01*
X112061929Y-54410062D01*
X112061930Y-54410070D01*
X112119104Y-54623445D01*
X112119105Y-54623447D01*
X112119106Y-54623450D01*
X112174455Y-54742147D01*
X112212466Y-54823662D01*
X112212468Y-54823666D01*
X112339170Y-55004615D01*
X112339175Y-55004621D01*
X112495378Y-55160824D01*
X112495384Y-55160829D01*
X112676333Y-55287531D01*
X112676335Y-55287532D01*
X112676338Y-55287534D01*
X112805781Y-55347894D01*
X112858220Y-55394066D01*
X112877372Y-55461260D01*
X112857156Y-55528141D01*
X112805781Y-55572658D01*
X112676590Y-55632901D01*
X112611811Y-55678258D01*
X113257154Y-56323600D01*
X113256496Y-56323600D01*
X113153135Y-56351295D01*
X113060464Y-56404799D01*
X112984799Y-56480464D01*
X112931295Y-56573135D01*
X112903600Y-56676496D01*
X112903600Y-56677153D01*
X112258258Y-56031811D01*
X112212901Y-56096590D01*
X112119579Y-56296720D01*
X112119575Y-56296729D01*
X112062426Y-56510013D01*
X112062424Y-56510023D01*
X112043179Y-56729999D01*
X112043179Y-56730000D01*
X112062424Y-56949976D01*
X112062426Y-56949986D01*
X112119575Y-57163270D01*
X112119580Y-57163284D01*
X112212898Y-57363405D01*
X112212901Y-57363411D01*
X112258258Y-57428187D01*
X112258258Y-57428188D01*
X112903600Y-56782846D01*
X112903600Y-56783504D01*
X112931295Y-56886865D01*
X112984799Y-56979536D01*
X113060464Y-57055201D01*
X113153135Y-57108705D01*
X113256496Y-57136400D01*
X113257153Y-57136400D01*
X112611810Y-57781740D01*
X112676589Y-57827098D01*
X112805781Y-57887342D01*
X112858220Y-57933514D01*
X112877372Y-58000708D01*
X112857156Y-58067589D01*
X112805781Y-58112106D01*
X112676340Y-58172465D01*
X112676338Y-58172466D01*
X112495377Y-58299175D01*
X112339175Y-58455377D01*
X112212466Y-58636338D01*
X112212465Y-58636340D01*
X112119107Y-58836548D01*
X112119104Y-58836554D01*
X112061930Y-59049929D01*
X112061929Y-59049937D01*
X112042677Y-59269997D01*
X112042677Y-59270002D01*
X112061929Y-59490062D01*
X112061930Y-59490070D01*
X112119104Y-59703445D01*
X112119106Y-59703451D01*
X112121667Y-59708942D01*
X112127516Y-59721486D01*
X112128267Y-59723095D01*
X112138759Y-59792172D01*
X112110240Y-59855956D01*
X112051763Y-59894196D01*
X112015885Y-59899500D01*
X109760097Y-59899500D01*
X109693058Y-59879815D01*
X109672416Y-59863181D01*
X106950914Y-57141679D01*
X106917429Y-57080356D01*
X106918821Y-57021902D01*
X106929519Y-56981981D01*
X106938070Y-56950068D01*
X106956870Y-56735174D01*
X106957323Y-56730002D01*
X106957323Y-56729997D01*
X106946774Y-56609427D01*
X106938070Y-56509932D01*
X106880894Y-56296550D01*
X106787534Y-56096339D01*
X106695126Y-55964366D01*
X106660827Y-55915381D01*
X106658066Y-55912620D01*
X106504620Y-55759174D01*
X106388796Y-55678073D01*
X106345173Y-55623497D01*
X106337980Y-55553998D01*
X106369502Y-55491644D01*
X106429732Y-55456230D01*
X106459921Y-55452499D01*
X106499871Y-55452499D01*
X106499872Y-55452499D01*
X106559483Y-55446091D01*
X106694331Y-55395796D01*
X106809546Y-55309546D01*
X106895796Y-55194331D01*
X106946091Y-55059483D01*
X106952500Y-54999873D01*
X106952499Y-53380128D01*
X106946091Y-53320517D01*
X106945463Y-53318834D01*
X106895797Y-53185671D01*
X106895793Y-53185664D01*
X106809547Y-53070455D01*
X106809544Y-53070452D01*
X106694335Y-52984206D01*
X106694328Y-52984202D01*
X106559482Y-52933908D01*
X106559483Y-52933908D01*
X106499883Y-52927501D01*
X106499881Y-52927500D01*
X106499873Y-52927500D01*
X106499864Y-52927500D01*
X104880129Y-52927500D01*
X104880123Y-52927501D01*
X104820516Y-52933908D01*
X104685671Y-52984202D01*
X104685664Y-52984206D01*
X104570455Y-53070452D01*
X104570452Y-53070455D01*
X104484206Y-53185664D01*
X104484202Y-53185671D01*
X104433908Y-53320517D01*
X104427501Y-53380116D01*
X104427501Y-53380123D01*
X104427500Y-53380135D01*
X104427500Y-54999870D01*
X104427501Y-54999876D01*
X104430981Y-55032247D01*
X104418574Y-55101006D01*
X104370963Y-55152143D01*
X104307691Y-55169500D01*
X102684901Y-55169500D01*
X102617862Y-55149815D01*
X102579362Y-55110596D01*
X102555340Y-55071650D01*
X102433351Y-54949661D01*
X102433350Y-54949660D01*
X102321334Y-54880568D01*
X102286518Y-54859093D01*
X102286513Y-54859091D01*
X102260587Y-54850500D01*
X102122753Y-54804826D01*
X102122751Y-54804825D01*
X102021684Y-54794500D01*
X102021677Y-54794500D01*
X102021596Y-54794500D01*
X102021580Y-54794495D01*
X102018529Y-54794340D01*
X102018537Y-54794179D01*
X102018536Y-54794179D01*
X102018538Y-54794155D01*
X102018566Y-54793610D01*
X101954557Y-54774815D01*
X101908802Y-54722011D01*
X101898858Y-54652853D01*
X101927883Y-54589297D01*
X101933915Y-54582819D01*
X103459235Y-53057500D01*
X105147416Y-51369319D01*
X105208739Y-51335834D01*
X105235097Y-51333000D01*
X115546232Y-51333000D01*
X115613271Y-51352685D01*
X115651769Y-51391901D01*
X115742288Y-51538656D01*
X115866344Y-51662712D01*
X115869628Y-51664737D01*
X115869653Y-51664753D01*
X115871445Y-51666746D01*
X115872011Y-51667193D01*
X115871934Y-51667289D01*
X115916379Y-51716699D01*
X115927603Y-51785661D01*
X115899761Y-51849744D01*
X115869665Y-51875826D01*
X115866660Y-51877679D01*
X115866655Y-51877683D01*
X115742684Y-52001654D01*
X115650643Y-52150875D01*
X115650641Y-52150880D01*
X115595494Y-52317302D01*
X115595493Y-52317309D01*
X115585000Y-52420013D01*
X115585000Y-52557500D01*
X118034999Y-52557500D01*
X118034999Y-52420028D01*
X118034998Y-52420013D01*
X118024505Y-52317302D01*
X117969358Y-52150880D01*
X117969356Y-52150875D01*
X117877315Y-52001654D01*
X117753344Y-51877683D01*
X117753341Y-51877681D01*
X117750339Y-51875829D01*
X117748713Y-51874021D01*
X117747677Y-51873202D01*
X117747817Y-51873024D01*
X117703617Y-51823880D01*
X117692397Y-51754917D01*
X117720243Y-51690836D01*
X117750344Y-51664754D01*
X117753656Y-51662712D01*
X117877712Y-51538656D01*
X117969814Y-51389334D01*
X118024999Y-51222797D01*
X118035500Y-51120009D01*
X118035499Y-50407596D01*
X118055183Y-50340558D01*
X118071818Y-50319916D01*
X118529916Y-49861819D01*
X118591239Y-49828334D01*
X118617597Y-49825500D01*
X125688331Y-49825500D01*
X125688347Y-49825501D01*
X125695943Y-49825501D01*
X125854054Y-49825501D01*
X125854057Y-49825501D01*
X126006785Y-49784577D01*
X126069996Y-49748082D01*
X126143716Y-49705520D01*
X126255520Y-49593716D01*
X126255520Y-49593714D01*
X126265724Y-49583511D01*
X126265727Y-49583506D01*
X126712416Y-49136819D01*
X126773739Y-49103334D01*
X126800097Y-49100500D01*
X129524185Y-49100500D01*
X129591224Y-49120185D01*
G37*
%TD.AperFunction*%
%TA.AperFunction,Conductor*%
G36*
X143442539Y-38520185D02*
G01*
X143488294Y-38572989D01*
X143499500Y-38624500D01*
X143499500Y-127375500D01*
X143479815Y-127442539D01*
X143427011Y-127488294D01*
X143375500Y-127499500D01*
X42124500Y-127499500D01*
X42057461Y-127479815D01*
X42011706Y-127427011D01*
X42000500Y-127375500D01*
X42000500Y-50702135D01*
X45249500Y-50702135D01*
X45249500Y-52297870D01*
X45249501Y-52297876D01*
X45255908Y-52357483D01*
X45306202Y-52492328D01*
X45306206Y-52492335D01*
X45392452Y-52607544D01*
X45392455Y-52607547D01*
X45507664Y-52693793D01*
X45507671Y-52693797D01*
X45642517Y-52744091D01*
X45642516Y-52744091D01*
X45649444Y-52744835D01*
X45702127Y-52750500D01*
X47297872Y-52750499D01*
X47357483Y-52744091D01*
X47492331Y-52693796D01*
X47607546Y-52607546D01*
X47693796Y-52492331D01*
X47744091Y-52357483D01*
X47750500Y-52297873D01*
X47750500Y-52224500D01*
X47770185Y-52157461D01*
X47822989Y-52111706D01*
X47874500Y-52100500D01*
X49900904Y-52100500D01*
X49967943Y-52120185D01*
X50013698Y-52172989D01*
X50023642Y-52242147D01*
X49994617Y-52305703D01*
X49988585Y-52312180D01*
X48051530Y-54249235D01*
X46131286Y-56169479D01*
X46019481Y-56281283D01*
X46019479Y-56281286D01*
X45973294Y-56361283D01*
X45973292Y-56361285D01*
X45940425Y-56418210D01*
X45940424Y-56418211D01*
X45927850Y-56465139D01*
X45899499Y-56570944D01*
X45899499Y-56570946D01*
X45899499Y-56739047D01*
X45899500Y-56739060D01*
X45899500Y-59286414D01*
X45879815Y-59353453D01*
X45827011Y-59399208D01*
X45814505Y-59404120D01*
X45705666Y-59440186D01*
X45705663Y-59440187D01*
X45556342Y-59532289D01*
X45432289Y-59656342D01*
X45340187Y-59805663D01*
X45340185Y-59805668D01*
X45321127Y-59863181D01*
X45285001Y-59972203D01*
X45285001Y-59972204D01*
X45285000Y-59972204D01*
X45274500Y-60074983D01*
X45274500Y-60850001D01*
X45274501Y-60850019D01*
X45285000Y-60952796D01*
X45285001Y-60952799D01*
X45340185Y-61119331D01*
X45340187Y-61119336D01*
X45364176Y-61158228D01*
X45429272Y-61263767D01*
X45432289Y-61268657D01*
X45556346Y-61392714D01*
X45559182Y-61394463D01*
X45560717Y-61396170D01*
X45562011Y-61397193D01*
X45561836Y-61397414D01*
X45605905Y-61446411D01*
X45617126Y-61515374D01*
X45589282Y-61579456D01*
X45559182Y-61605537D01*
X45556346Y-61607285D01*
X45432289Y-61731342D01*
X45340187Y-61880663D01*
X45340185Y-61880668D01*
X45333945Y-61899499D01*
X45285001Y-62047203D01*
X45285001Y-62047204D01*
X45285000Y-62047204D01*
X45274500Y-62149983D01*
X45274500Y-62925001D01*
X45274501Y-62925019D01*
X45285000Y-63027796D01*
X45285001Y-63027799D01*
X45340185Y-63194331D01*
X45340186Y-63194334D01*
X45432288Y-63343656D01*
X45556344Y-63467712D01*
X45705666Y-63559814D01*
X45814505Y-63595879D01*
X45871949Y-63635652D01*
X45898772Y-63700167D01*
X45899500Y-63713585D01*
X45899500Y-65125500D01*
X45879815Y-65192539D01*
X45827011Y-65238294D01*
X45775502Y-65249500D01*
X45702130Y-65249500D01*
X45702123Y-65249501D01*
X45642516Y-65255908D01*
X45507671Y-65306202D01*
X45507664Y-65306206D01*
X45392455Y-65392452D01*
X45392452Y-65392455D01*
X45306206Y-65507664D01*
X45306202Y-65507671D01*
X45255908Y-65642517D01*
X45252042Y-65678481D01*
X45249501Y-65702123D01*
X45249500Y-65702135D01*
X45249500Y-67297870D01*
X45249501Y-67297876D01*
X45255908Y-67357483D01*
X45306202Y-67492328D01*
X45306206Y-67492335D01*
X45392452Y-67607544D01*
X45392455Y-67607547D01*
X45507664Y-67693793D01*
X45507671Y-67693797D01*
X45642517Y-67744091D01*
X45642516Y-67744091D01*
X45649444Y-67744835D01*
X45702127Y-67750500D01*
X47297872Y-67750499D01*
X47357483Y-67744091D01*
X47492331Y-67693796D01*
X47607546Y-67607546D01*
X47693796Y-67492331D01*
X47744091Y-67357483D01*
X47750500Y-67297873D01*
X47750499Y-65702128D01*
X47744091Y-65642517D01*
X47739290Y-65629646D01*
X47693797Y-65507671D01*
X47693793Y-65507664D01*
X47607547Y-65392455D01*
X47607544Y-65392452D01*
X47492335Y-65306206D01*
X47492328Y-65306202D01*
X47357482Y-65255908D01*
X47357483Y-65255908D01*
X47297883Y-65249501D01*
X47297881Y-65249500D01*
X47297873Y-65249500D01*
X47297865Y-65249500D01*
X47224500Y-65249500D01*
X47157461Y-65229815D01*
X47111706Y-65177011D01*
X47100500Y-65125500D01*
X47100500Y-64286597D01*
X47120185Y-64219558D01*
X47172989Y-64173803D01*
X47242147Y-64163859D01*
X47305703Y-64192884D01*
X47312181Y-64198916D01*
X47477639Y-64364374D01*
X47477649Y-64364385D01*
X47481979Y-64368715D01*
X47481980Y-64368716D01*
X47593784Y-64480520D01*
X47593786Y-64480521D01*
X47593790Y-64480524D01*
X47730709Y-64559573D01*
X47730716Y-64559577D01*
X47842519Y-64589534D01*
X47883442Y-64600500D01*
X47883443Y-64600500D01*
X49275500Y-64600500D01*
X49342539Y-64620185D01*
X49388294Y-64672989D01*
X49399500Y-64724500D01*
X49399500Y-121913330D01*
X49399499Y-121913348D01*
X49399499Y-122079054D01*
X49399498Y-122079054D01*
X49399499Y-122079057D01*
X49431076Y-122196903D01*
X49440424Y-122231787D01*
X49448248Y-122245338D01*
X49448249Y-122245340D01*
X49519477Y-122368712D01*
X49519481Y-122368717D01*
X49638349Y-122487585D01*
X49638355Y-122487590D01*
X53015139Y-125864374D01*
X53015149Y-125864385D01*
X53019479Y-125868715D01*
X53019480Y-125868716D01*
X53131284Y-125980520D01*
X53131286Y-125980521D01*
X53131290Y-125980524D01*
X53268209Y-126059573D01*
X53268216Y-126059577D01*
X53380019Y-126089534D01*
X53420942Y-126100500D01*
X53420943Y-126100500D01*
X124325831Y-126100500D01*
X124325847Y-126100501D01*
X124333443Y-126100501D01*
X124491554Y-126100501D01*
X124491557Y-126100501D01*
X124644285Y-126059577D01*
X124694404Y-126030639D01*
X124781216Y-125980520D01*
X124893020Y-125868716D01*
X124893020Y-125868714D01*
X124903228Y-125858507D01*
X124903230Y-125858504D01*
X129249916Y-121511818D01*
X129311239Y-121478333D01*
X129337597Y-121475499D01*
X129711670Y-121475499D01*
X129711676Y-121475499D01*
X129812753Y-121465174D01*
X129967879Y-121413769D01*
X130037702Y-121411368D01*
X130094560Y-121443795D01*
X130427639Y-121776874D01*
X130427649Y-121776885D01*
X130431979Y-121781215D01*
X130431980Y-121781216D01*
X130543784Y-121893020D01*
X130617307Y-121935468D01*
X130680715Y-121972077D01*
X130833443Y-122013001D01*
X130833446Y-122013001D01*
X130999153Y-122013001D01*
X130999169Y-122013000D01*
X132542389Y-122013000D01*
X132609428Y-122032685D01*
X132647928Y-122071904D01*
X132679659Y-122123349D01*
X132801648Y-122245338D01*
X132801647Y-122245338D01*
X132801649Y-122245339D01*
X132801650Y-122245340D01*
X132948484Y-122335908D01*
X133112247Y-122390174D01*
X133213323Y-122400500D01*
X133786676Y-122400499D01*
X133786684Y-122400498D01*
X133786687Y-122400498D01*
X133842030Y-122394844D01*
X133887753Y-122390174D01*
X134051516Y-122335908D01*
X134198350Y-122245340D01*
X134287347Y-122156343D01*
X134348670Y-122122858D01*
X134407120Y-122124248D01*
X134458443Y-122138001D01*
X134458445Y-122138001D01*
X134624154Y-122138001D01*
X134624170Y-122138000D01*
X137236232Y-122138000D01*
X137303271Y-122157685D01*
X137341769Y-122196901D01*
X137432288Y-122343656D01*
X137556344Y-122467712D01*
X137705666Y-122559814D01*
X137872203Y-122614999D01*
X137974991Y-122625500D01*
X139025008Y-122625499D01*
X139025016Y-122625498D01*
X139025019Y-122625498D01*
X139081302Y-122619748D01*
X139127797Y-122614999D01*
X139294334Y-122559814D01*
X139443656Y-122467712D01*
X139567712Y-122343656D01*
X139659814Y-122194334D01*
X139714999Y-122027797D01*
X139725500Y-121925009D01*
X139725499Y-121149992D01*
X139721687Y-121112679D01*
X139714999Y-121047203D01*
X139714998Y-121047200D01*
X139678481Y-120937000D01*
X139659814Y-120880666D01*
X139567712Y-120731344D01*
X139443656Y-120607288D01*
X139440819Y-120605538D01*
X139439283Y-120603830D01*
X139437989Y-120602807D01*
X139438163Y-120602585D01*
X139394096Y-120553594D01*
X139382872Y-120484632D01*
X139410713Y-120420549D01*
X139440817Y-120394462D01*
X139443656Y-120392712D01*
X139567712Y-120268656D01*
X139659814Y-120119334D01*
X139714999Y-119952797D01*
X139725500Y-119850009D01*
X139725499Y-119074992D01*
X139720237Y-119023484D01*
X139714999Y-118972203D01*
X139714998Y-118972200D01*
X139691737Y-118902004D01*
X139659814Y-118805666D01*
X139567712Y-118656344D01*
X139443656Y-118532288D01*
X139294334Y-118440186D01*
X139127797Y-118385001D01*
X139127795Y-118385000D01*
X139025010Y-118374500D01*
X137974998Y-118374500D01*
X137974980Y-118374501D01*
X137872203Y-118385000D01*
X137872200Y-118385001D01*
X137705668Y-118440185D01*
X137705663Y-118440187D01*
X137556342Y-118532289D01*
X137432289Y-118656342D01*
X137340187Y-118805663D01*
X137340185Y-118805668D01*
X137308263Y-118902004D01*
X137268490Y-118959449D01*
X137203974Y-118986272D01*
X137190557Y-118987000D01*
X134457611Y-118987000D01*
X134390572Y-118967315D01*
X134352072Y-118928096D01*
X134320340Y-118876650D01*
X134198349Y-118754659D01*
X134159402Y-118730636D01*
X134112678Y-118678687D01*
X134100500Y-118625098D01*
X134100500Y-116308841D01*
X134120185Y-116241802D01*
X134172989Y-116196047D01*
X134242147Y-116186103D01*
X134305703Y-116215128D01*
X134312181Y-116221160D01*
X135455395Y-117364374D01*
X135455405Y-117364385D01*
X135459735Y-117368715D01*
X135459736Y-117368716D01*
X135571540Y-117480520D01*
X135658351Y-117530639D01*
X135658353Y-117530641D01*
X135696407Y-117552611D01*
X135708471Y-117559577D01*
X135861199Y-117600501D01*
X135861202Y-117600501D01*
X136026910Y-117600501D01*
X136026926Y-117600500D01*
X137413331Y-117600500D01*
X137413347Y-117600501D01*
X137420943Y-117600501D01*
X137579054Y-117600501D01*
X137579057Y-117600501D01*
X137731785Y-117559577D01*
X137781904Y-117530639D01*
X137868716Y-117480520D01*
X137980520Y-117368716D01*
X137980520Y-117368714D01*
X137990728Y-117358507D01*
X137990730Y-117358504D01*
X139460506Y-115888728D01*
X139460511Y-115888724D01*
X139470714Y-115878520D01*
X139470716Y-115878520D01*
X139582520Y-115766716D01*
X139656833Y-115638001D01*
X139661577Y-115629785D01*
X139702500Y-115477057D01*
X139702500Y-115318943D01*
X139702500Y-86485443D01*
X139661577Y-86332716D01*
X139661577Y-86332715D01*
X139661577Y-86332714D01*
X139632639Y-86282595D01*
X139632637Y-86282592D01*
X139582520Y-86195784D01*
X139470716Y-86083980D01*
X139470715Y-86083979D01*
X139466385Y-86079649D01*
X139466374Y-86079639D01*
X138661818Y-85275083D01*
X138628333Y-85213760D01*
X138625499Y-85187402D01*
X138625499Y-84812597D01*
X138645184Y-84745558D01*
X138661818Y-84724916D01*
X139454446Y-83932288D01*
X140358506Y-83028228D01*
X140358511Y-83028224D01*
X140368714Y-83018020D01*
X140368716Y-83018020D01*
X140480520Y-82906216D01*
X140484114Y-82899990D01*
X140534148Y-82813330D01*
X140534149Y-82813328D01*
X140559574Y-82769290D01*
X140559573Y-82769290D01*
X140559577Y-82769285D01*
X140597538Y-82627611D01*
X140625158Y-82576742D01*
X140691859Y-82502665D01*
X140781250Y-82347835D01*
X140836497Y-82177803D01*
X140855185Y-82000000D01*
X140836497Y-81822197D01*
X140781250Y-81652165D01*
X140691859Y-81497335D01*
X140645003Y-81445296D01*
X140572235Y-81364478D01*
X140572232Y-81364476D01*
X140572231Y-81364475D01*
X140572230Y-81364474D01*
X140427593Y-81259388D01*
X140264267Y-81186671D01*
X140264265Y-81186670D01*
X140136594Y-81159533D01*
X140089391Y-81149500D01*
X139910609Y-81149500D01*
X139879954Y-81156015D01*
X139735733Y-81186670D01*
X139735728Y-81186672D01*
X139572408Y-81259387D01*
X139427768Y-81364475D01*
X139308140Y-81497336D01*
X139218750Y-81652164D01*
X139218747Y-81652170D01*
X139163504Y-81822192D01*
X139163503Y-81822194D01*
X139144815Y-82000000D01*
X139163503Y-82177805D01*
X139163504Y-82177807D01*
X139218750Y-82347836D01*
X139221393Y-82353772D01*
X139218719Y-82354962D01*
X139232185Y-82410486D01*
X139209327Y-82476511D01*
X139196007Y-82492256D01*
X137950082Y-83738181D01*
X137888759Y-83771666D01*
X137862401Y-83774500D01*
X137149998Y-83774500D01*
X137149980Y-83774501D01*
X137047203Y-83785000D01*
X137047200Y-83785001D01*
X136880668Y-83840185D01*
X136880663Y-83840187D01*
X136731342Y-83932289D01*
X136607288Y-84056343D01*
X136607283Y-84056349D01*
X136605241Y-84059661D01*
X136603247Y-84061453D01*
X136602807Y-84062011D01*
X136602711Y-84061935D01*
X136553291Y-84106383D01*
X136484328Y-84117602D01*
X136420247Y-84089755D01*
X136394168Y-84059656D01*
X136392319Y-84056659D01*
X136392316Y-84056655D01*
X136268345Y-83932684D01*
X136119124Y-83840643D01*
X136119119Y-83840641D01*
X135952697Y-83785494D01*
X135952690Y-83785493D01*
X135849986Y-83775000D01*
X135712500Y-83775000D01*
X135712500Y-86224999D01*
X135849972Y-86224999D01*
X135849986Y-86224998D01*
X135952697Y-86214505D01*
X136119119Y-86159358D01*
X136119124Y-86159356D01*
X136268345Y-86067315D01*
X136392318Y-85943342D01*
X136394165Y-85940348D01*
X136395969Y-85938724D01*
X136396798Y-85937677D01*
X136396976Y-85937818D01*
X136446110Y-85893621D01*
X136515073Y-85882396D01*
X136579156Y-85910236D01*
X136605243Y-85940341D01*
X136607288Y-85943656D01*
X136731344Y-86067712D01*
X136880666Y-86159814D01*
X137047203Y-86214999D01*
X137149991Y-86225500D01*
X137862402Y-86225499D01*
X137929441Y-86245183D01*
X137950083Y-86261818D01*
X138465181Y-86776916D01*
X138498666Y-86838239D01*
X138501500Y-86864597D01*
X138501500Y-96803500D01*
X138481815Y-96870539D01*
X138429011Y-96916294D01*
X138377500Y-96927500D01*
X137230129Y-96927500D01*
X137230123Y-96927501D01*
X137170516Y-96933908D01*
X137035671Y-96984202D01*
X137035664Y-96984206D01*
X136920455Y-97070452D01*
X136920452Y-97070455D01*
X136834206Y-97185664D01*
X136834202Y-97185671D01*
X136783908Y-97320517D01*
X136777501Y-97380116D01*
X136777500Y-97380135D01*
X136777500Y-97420079D01*
X136757815Y-97487118D01*
X136705011Y-97532873D01*
X136635853Y-97542817D01*
X136572297Y-97513792D01*
X136551925Y-97491202D01*
X136470827Y-97375381D01*
X136415963Y-97320517D01*
X136314620Y-97219174D01*
X136314616Y-97219171D01*
X136314615Y-97219170D01*
X136153377Y-97106270D01*
X136109752Y-97051693D01*
X136100500Y-97004695D01*
X136100500Y-92745945D01*
X136100500Y-92745943D01*
X136059577Y-92593216D01*
X136059577Y-92593215D01*
X136059577Y-92593214D01*
X136030639Y-92543095D01*
X136030637Y-92543092D01*
X135980520Y-92456284D01*
X135868716Y-92344480D01*
X135868715Y-92344479D01*
X135864385Y-92340149D01*
X135864374Y-92340139D01*
X130011818Y-86487583D01*
X129978333Y-86426260D01*
X129975499Y-86399902D01*
X129975499Y-86025830D01*
X129975498Y-86025813D01*
X129965174Y-85924747D01*
X129963364Y-85919285D01*
X129910908Y-85760984D01*
X129820340Y-85614150D01*
X129731176Y-85524986D01*
X134375001Y-85524986D01*
X134385494Y-85627697D01*
X134440641Y-85794119D01*
X134440643Y-85794124D01*
X134532684Y-85943345D01*
X134656654Y-86067315D01*
X134805875Y-86159356D01*
X134805880Y-86159358D01*
X134972302Y-86214505D01*
X134972309Y-86214506D01*
X135075019Y-86224999D01*
X135212499Y-86224999D01*
X135212500Y-86224998D01*
X135212500Y-85250000D01*
X134375001Y-85250000D01*
X134375001Y-85524986D01*
X129731176Y-85524986D01*
X129706371Y-85500181D01*
X129672886Y-85438858D01*
X129677870Y-85369166D01*
X129706371Y-85324819D01*
X129756107Y-85275083D01*
X129820340Y-85210850D01*
X129910908Y-85064016D01*
X129965174Y-84900253D01*
X129975500Y-84799177D01*
X129975499Y-84475013D01*
X134375000Y-84475013D01*
X134375000Y-84750000D01*
X135212500Y-84750000D01*
X135212500Y-83775000D01*
X135075027Y-83775000D01*
X135075012Y-83775001D01*
X134972302Y-83785494D01*
X134805880Y-83840641D01*
X134805875Y-83840643D01*
X134656654Y-83932684D01*
X134532684Y-84056654D01*
X134440643Y-84205875D01*
X134440641Y-84205880D01*
X134385494Y-84372302D01*
X134385493Y-84372309D01*
X134375000Y-84475013D01*
X129975499Y-84475013D01*
X129975499Y-84200824D01*
X129965174Y-84099747D01*
X129910908Y-83935984D01*
X129820340Y-83789150D01*
X129698350Y-83667160D01*
X129698349Y-83667159D01*
X129659402Y-83643136D01*
X129612678Y-83591187D01*
X129600500Y-83537598D01*
X129600500Y-81874499D01*
X129620185Y-81807460D01*
X129672989Y-81761705D01*
X129724500Y-81750499D01*
X129797871Y-81750499D01*
X129797872Y-81750499D01*
X129857483Y-81744091D01*
X129992331Y-81693796D01*
X130107546Y-81607546D01*
X130193796Y-81492331D01*
X130244091Y-81357483D01*
X130250500Y-81297873D01*
X130250500Y-81297844D01*
X134750000Y-81297844D01*
X134756401Y-81357372D01*
X134756403Y-81357379D01*
X134806645Y-81492086D01*
X134806649Y-81492093D01*
X134892809Y-81607187D01*
X134892812Y-81607190D01*
X135007906Y-81693350D01*
X135007913Y-81693354D01*
X135142620Y-81743596D01*
X135142627Y-81743598D01*
X135202155Y-81749999D01*
X135202172Y-81750000D01*
X135750000Y-81750000D01*
X136250000Y-81750000D01*
X136797828Y-81750000D01*
X136797844Y-81749999D01*
X136857372Y-81743598D01*
X136857379Y-81743596D01*
X136992086Y-81693354D01*
X136992093Y-81693350D01*
X137107187Y-81607190D01*
X137107190Y-81607187D01*
X137193350Y-81492093D01*
X137193354Y-81492086D01*
X137243596Y-81357379D01*
X137243598Y-81357372D01*
X137249999Y-81297844D01*
X137250000Y-81297827D01*
X137250000Y-80750000D01*
X136250000Y-80750000D01*
X136250000Y-81750000D01*
X135750000Y-81750000D01*
X135750000Y-80750000D01*
X134750000Y-80750000D01*
X134750000Y-81297844D01*
X130250500Y-81297844D01*
X130250499Y-80453922D01*
X135650000Y-80453922D01*
X135650000Y-80546078D01*
X135673852Y-80635095D01*
X135719930Y-80714905D01*
X135785095Y-80780070D01*
X135864905Y-80826148D01*
X135953922Y-80850000D01*
X136046078Y-80850000D01*
X136135095Y-80826148D01*
X136214905Y-80780070D01*
X136280070Y-80714905D01*
X136326148Y-80635095D01*
X136350000Y-80546078D01*
X136350000Y-80453922D01*
X136326148Y-80364905D01*
X136280070Y-80285095D01*
X136244975Y-80250000D01*
X136250000Y-80250000D01*
X137250000Y-80250000D01*
X137250000Y-79702172D01*
X137249999Y-79702155D01*
X137243598Y-79642627D01*
X137243596Y-79642620D01*
X137193354Y-79507913D01*
X137193350Y-79507906D01*
X137107190Y-79392812D01*
X137107187Y-79392809D01*
X136992093Y-79306649D01*
X136992086Y-79306645D01*
X136857379Y-79256403D01*
X136857372Y-79256401D01*
X136797844Y-79250000D01*
X136250000Y-79250000D01*
X136250000Y-80250000D01*
X136244975Y-80250000D01*
X136214905Y-80219930D01*
X136135095Y-80173852D01*
X136046078Y-80150000D01*
X135953922Y-80150000D01*
X135864905Y-80173852D01*
X135785095Y-80219930D01*
X135719930Y-80285095D01*
X135673852Y-80364905D01*
X135650000Y-80453922D01*
X130250499Y-80453922D01*
X130250499Y-80190095D01*
X130270184Y-80123057D01*
X130286813Y-80102420D01*
X130687078Y-79702155D01*
X134750000Y-79702155D01*
X134750000Y-80250000D01*
X135750000Y-80250000D01*
X135750000Y-79250000D01*
X135202155Y-79250000D01*
X135142627Y-79256401D01*
X135142620Y-79256403D01*
X135007913Y-79306645D01*
X135007906Y-79306649D01*
X134892812Y-79392809D01*
X134892809Y-79392812D01*
X134806649Y-79507906D01*
X134806645Y-79507913D01*
X134756403Y-79642620D01*
X134756401Y-79642627D01*
X134750000Y-79702155D01*
X130687078Y-79702155D01*
X132818321Y-77570912D01*
X132879642Y-77537429D01*
X132938095Y-77538821D01*
X133009924Y-77558068D01*
X133009925Y-77558068D01*
X133009932Y-77558070D01*
X133197226Y-77574455D01*
X133229998Y-77577323D01*
X133230000Y-77577323D01*
X133230002Y-77577323D01*
X133285017Y-77572509D01*
X133450068Y-77558070D01*
X133663450Y-77500894D01*
X133863662Y-77407534D01*
X134044620Y-77280826D01*
X134200826Y-77124620D01*
X134327534Y-76943662D01*
X134387894Y-76814218D01*
X134434066Y-76761779D01*
X134501259Y-76742627D01*
X134568141Y-76762843D01*
X134612658Y-76814219D01*
X134672898Y-76943405D01*
X134672901Y-76943411D01*
X134718258Y-77008187D01*
X134718258Y-77008188D01*
X135363600Y-76362846D01*
X135363600Y-76363504D01*
X135391295Y-76466865D01*
X135444799Y-76559536D01*
X135520464Y-76635201D01*
X135613135Y-76688705D01*
X135716496Y-76716400D01*
X135717153Y-76716400D01*
X135071810Y-77361740D01*
X135136590Y-77407099D01*
X135136592Y-77407100D01*
X135336715Y-77500419D01*
X135336729Y-77500424D01*
X135550013Y-77557573D01*
X135550023Y-77557575D01*
X135769999Y-77576821D01*
X135770001Y-77576821D01*
X135989976Y-77557575D01*
X135989986Y-77557573D01*
X136203270Y-77500424D01*
X136203284Y-77500419D01*
X136403407Y-77407100D01*
X136403417Y-77407094D01*
X136468188Y-77361741D01*
X135822848Y-76716400D01*
X135823504Y-76716400D01*
X135926865Y-76688705D01*
X136019536Y-76635201D01*
X136095201Y-76559536D01*
X136148705Y-76466865D01*
X136176400Y-76363504D01*
X136176400Y-76362847D01*
X136821741Y-77008188D01*
X136867094Y-76943417D01*
X136867095Y-76943416D01*
X136927340Y-76814219D01*
X136973512Y-76761780D01*
X137040706Y-76742627D01*
X137107587Y-76762842D01*
X137152105Y-76814218D01*
X137212466Y-76943662D01*
X137212468Y-76943666D01*
X137339170Y-77124615D01*
X137339175Y-77124621D01*
X137495378Y-77280824D01*
X137495384Y-77280829D01*
X137676333Y-77407531D01*
X137676335Y-77407532D01*
X137676338Y-77407534D01*
X137876550Y-77500894D01*
X138089932Y-77558070D01*
X138236743Y-77570914D01*
X138309998Y-77577323D01*
X138310000Y-77577323D01*
X138310002Y-77577323D01*
X138365017Y-77572509D01*
X138530068Y-77558070D01*
X138743450Y-77500894D01*
X138943662Y-77407534D01*
X139124620Y-77280826D01*
X139280826Y-77124620D01*
X139407534Y-76943662D01*
X139500894Y-76743450D01*
X139558070Y-76530068D01*
X139577323Y-76310000D01*
X139558070Y-76089932D01*
X139500894Y-75876550D01*
X139407534Y-75676339D01*
X139280826Y-75495380D01*
X139124620Y-75339174D01*
X139124616Y-75339171D01*
X139124615Y-75339170D01*
X138943666Y-75212468D01*
X138943662Y-75212466D01*
X138890806Y-75187819D01*
X138743450Y-75119106D01*
X138743447Y-75119105D01*
X138743445Y-75119104D01*
X138530070Y-75061930D01*
X138530062Y-75061929D01*
X138310002Y-75042677D01*
X138309998Y-75042677D01*
X138089937Y-75061929D01*
X138089929Y-75061930D01*
X137876554Y-75119104D01*
X137876548Y-75119107D01*
X137676340Y-75212465D01*
X137676338Y-75212466D01*
X137495377Y-75339175D01*
X137339175Y-75495377D01*
X137212467Y-75676337D01*
X137152105Y-75805782D01*
X137105932Y-75858221D01*
X137038738Y-75877372D01*
X136971857Y-75857156D01*
X136927341Y-75805780D01*
X136867098Y-75676589D01*
X136867097Y-75676587D01*
X136821741Y-75611811D01*
X136821740Y-75611810D01*
X136176400Y-76257151D01*
X136176400Y-76256496D01*
X136148705Y-76153135D01*
X136095201Y-76060464D01*
X136019536Y-75984799D01*
X135926865Y-75931295D01*
X135823504Y-75903600D01*
X135822847Y-75903600D01*
X136468188Y-75258258D01*
X136403411Y-75212901D01*
X136403405Y-75212898D01*
X136203284Y-75119580D01*
X136203270Y-75119575D01*
X135989986Y-75062426D01*
X135989976Y-75062424D01*
X135770001Y-75043179D01*
X135769999Y-75043179D01*
X135550023Y-75062424D01*
X135550013Y-75062426D01*
X135336729Y-75119575D01*
X135336720Y-75119579D01*
X135136590Y-75212901D01*
X135071811Y-75258258D01*
X135717154Y-75903600D01*
X135716496Y-75903600D01*
X135613135Y-75931295D01*
X135520464Y-75984799D01*
X135444799Y-76060464D01*
X135391295Y-76153135D01*
X135363600Y-76256496D01*
X135363600Y-76257153D01*
X134718258Y-75611811D01*
X134672901Y-75676590D01*
X134612658Y-75805781D01*
X134566485Y-75858220D01*
X134499292Y-75877372D01*
X134432411Y-75857156D01*
X134387894Y-75805781D01*
X134327651Y-75676590D01*
X134327534Y-75676339D01*
X134200826Y-75495380D01*
X134044620Y-75339174D01*
X134044616Y-75339171D01*
X134044615Y-75339170D01*
X133863666Y-75212468D01*
X133863662Y-75212466D01*
X133810806Y-75187819D01*
X133663450Y-75119106D01*
X133663447Y-75119105D01*
X133663445Y-75119104D01*
X133450070Y-75061930D01*
X133450062Y-75061929D01*
X133230002Y-75042677D01*
X133229998Y-75042677D01*
X133009937Y-75061929D01*
X133009923Y-75061932D01*
X132938092Y-75081178D01*
X132868242Y-75079514D01*
X132818319Y-75049084D01*
X131320090Y-73550855D01*
X131320088Y-73550852D01*
X131201217Y-73431981D01*
X131201212Y-73431977D01*
X131091639Y-73368716D01*
X131091637Y-73368715D01*
X131064286Y-73352923D01*
X131064287Y-73352923D01*
X131003193Y-73336553D01*
X130911557Y-73311999D01*
X130753443Y-73311999D01*
X130745847Y-73311999D01*
X130745831Y-73312000D01*
X127957611Y-73312000D01*
X127890572Y-73292315D01*
X127852072Y-73253096D01*
X127820340Y-73201650D01*
X127706371Y-73087681D01*
X127672886Y-73026358D01*
X127677870Y-72956666D01*
X127706371Y-72912319D01*
X127728788Y-72889902D01*
X127820340Y-72798350D01*
X127852072Y-72746904D01*
X127904020Y-72700179D01*
X127957611Y-72688000D01*
X132285831Y-72688000D01*
X132285847Y-72688001D01*
X132293443Y-72688001D01*
X132451554Y-72688001D01*
X132451557Y-72688001D01*
X132604285Y-72647077D01*
X132654404Y-72618139D01*
X132741216Y-72568020D01*
X132853020Y-72456216D01*
X132853020Y-72456214D01*
X132863228Y-72446007D01*
X132863229Y-72446004D01*
X135358321Y-69950913D01*
X135419642Y-69917430D01*
X135478093Y-69918821D01*
X135506641Y-69926470D01*
X135549932Y-69938070D01*
X135707123Y-69951822D01*
X135769998Y-69957323D01*
X135770000Y-69957323D01*
X135770002Y-69957323D01*
X135825151Y-69952498D01*
X135990068Y-69938070D01*
X136203450Y-69880894D01*
X136403662Y-69787534D01*
X136584620Y-69660826D01*
X136740826Y-69504620D01*
X136821927Y-69388795D01*
X136876501Y-69345172D01*
X136945999Y-69337978D01*
X137008354Y-69369500D01*
X137043769Y-69429730D01*
X137047500Y-69459917D01*
X137047500Y-69499868D01*
X137047501Y-69499876D01*
X137053908Y-69559483D01*
X137104202Y-69694328D01*
X137104206Y-69694335D01*
X137190452Y-69809544D01*
X137190455Y-69809547D01*
X137305664Y-69895793D01*
X137305671Y-69895797D01*
X137440517Y-69946091D01*
X137440516Y-69946091D01*
X137443549Y-69946417D01*
X137500127Y-69952500D01*
X139119872Y-69952499D01*
X139179483Y-69946091D01*
X139314331Y-69895796D01*
X139429546Y-69809546D01*
X139515796Y-69694331D01*
X139566091Y-69559483D01*
X139572500Y-69499873D01*
X139572499Y-67880128D01*
X139566091Y-67820517D01*
X139557646Y-67797876D01*
X139515797Y-67685671D01*
X139515793Y-67685664D01*
X139429547Y-67570455D01*
X139429544Y-67570452D01*
X139314335Y-67484206D01*
X139314328Y-67484202D01*
X139179482Y-67433908D01*
X139179483Y-67433908D01*
X139119883Y-67427501D01*
X139119881Y-67427500D01*
X139119873Y-67427500D01*
X139119865Y-67427500D01*
X138181096Y-67427500D01*
X138114057Y-67407815D01*
X138068302Y-67355011D01*
X138058358Y-67285853D01*
X138087383Y-67222297D01*
X138093415Y-67215819D01*
X138208365Y-67100869D01*
X138406213Y-66903021D01*
X138406216Y-66903020D01*
X138518020Y-66791216D01*
X138568139Y-66704404D01*
X138597077Y-66654285D01*
X138638000Y-66501558D01*
X138638000Y-66343443D01*
X138638000Y-65763767D01*
X138657685Y-65696728D01*
X138696901Y-65658230D01*
X138843656Y-65567712D01*
X138967712Y-65443656D01*
X139059814Y-65294334D01*
X139114999Y-65127797D01*
X139125500Y-65025009D01*
X139125499Y-63974992D01*
X139117067Y-63892452D01*
X139114999Y-63872203D01*
X139114998Y-63872200D01*
X139103901Y-63838713D01*
X139059814Y-63705666D01*
X138967712Y-63556344D01*
X138843656Y-63432288D01*
X138696902Y-63341770D01*
X138650179Y-63289823D01*
X138638000Y-63236232D01*
X138638000Y-52574059D01*
X138638001Y-52574046D01*
X138638001Y-52405945D01*
X138638001Y-52405943D01*
X138597077Y-52253215D01*
X138563742Y-52195477D01*
X138518020Y-52116284D01*
X138406216Y-52004480D01*
X138406215Y-52004479D01*
X138401885Y-52000149D01*
X138401874Y-52000139D01*
X137488438Y-51086703D01*
X137454953Y-51025380D01*
X137455914Y-50968581D01*
X137474126Y-50896666D01*
X137511140Y-50750499D01*
X137512861Y-50743704D01*
X137512863Y-50743695D01*
X137512864Y-50743692D01*
X137512865Y-50743683D01*
X137533057Y-50500005D01*
X137533057Y-50499994D01*
X137512865Y-50256316D01*
X137512863Y-50256304D01*
X137481385Y-50132000D01*
X137452836Y-50019264D01*
X137354611Y-49795333D01*
X137347584Y-49784577D01*
X137220867Y-49590621D01*
X137055257Y-49410722D01*
X137055247Y-49410713D01*
X136862291Y-49260529D01*
X136862287Y-49260526D01*
X136647234Y-49144145D01*
X136647229Y-49144143D01*
X136415958Y-49064748D01*
X136235061Y-49034562D01*
X136174763Y-49024500D01*
X135930237Y-49024500D01*
X135881998Y-49032549D01*
X135689041Y-49064748D01*
X135457770Y-49144143D01*
X135457765Y-49144145D01*
X135242712Y-49260526D01*
X135242708Y-49260529D01*
X135049752Y-49410713D01*
X135049742Y-49410722D01*
X134884132Y-49590621D01*
X134750388Y-49795333D01*
X134652163Y-50019265D01*
X134592136Y-50256304D01*
X134592134Y-50256316D01*
X134571943Y-50499994D01*
X134571943Y-50500005D01*
X134592134Y-50743683D01*
X134592136Y-50743695D01*
X134652163Y-50980734D01*
X134750388Y-51204666D01*
X134884132Y-51409378D01*
X135049742Y-51589277D01*
X135049752Y-51589286D01*
X135242708Y-51739470D01*
X135242712Y-51739473D01*
X135414697Y-51832547D01*
X135457767Y-51855855D01*
X135457770Y-51855856D01*
X135689041Y-51935251D01*
X135689043Y-51935251D01*
X135689045Y-51935252D01*
X135930237Y-51975500D01*
X135930238Y-51975500D01*
X136174762Y-51975500D01*
X136174763Y-51975500D01*
X136415955Y-51935252D01*
X136508428Y-51903505D01*
X136578225Y-51900356D01*
X136636371Y-51933106D01*
X137400681Y-52697416D01*
X137434166Y-52758739D01*
X137437000Y-52785097D01*
X137437000Y-63236232D01*
X137417315Y-63303271D01*
X137378098Y-63341769D01*
X137375039Y-63343657D01*
X137231342Y-63432289D01*
X137107285Y-63556346D01*
X137105537Y-63559182D01*
X137103829Y-63560717D01*
X137102807Y-63562011D01*
X137102585Y-63561836D01*
X137053589Y-63605905D01*
X136984626Y-63617126D01*
X136920544Y-63589282D01*
X136894463Y-63559182D01*
X136892714Y-63556346D01*
X136768657Y-63432289D01*
X136768656Y-63432288D01*
X136647377Y-63357483D01*
X136619336Y-63340187D01*
X136619331Y-63340185D01*
X136612097Y-63337788D01*
X136452797Y-63285001D01*
X136452795Y-63285000D01*
X136350016Y-63274500D01*
X136350009Y-63274500D01*
X135637597Y-63274500D01*
X135570558Y-63254815D01*
X135549916Y-63238181D01*
X133449232Y-61137497D01*
X133415747Y-61076174D01*
X133420731Y-61006482D01*
X133449231Y-60962136D01*
X133467712Y-60943656D01*
X133559814Y-60794334D01*
X133614999Y-60627797D01*
X133625500Y-60525009D01*
X133625499Y-59474992D01*
X133614999Y-59372203D01*
X133559814Y-59205666D01*
X133467712Y-59056344D01*
X133343656Y-58932288D01*
X133196902Y-58841770D01*
X133150179Y-58789823D01*
X133138000Y-58736232D01*
X133138000Y-53262597D01*
X133157685Y-53195558D01*
X133174319Y-53174916D01*
X133539713Y-52809522D01*
X133980520Y-52368716D01*
X134059577Y-52231784D01*
X134100501Y-52079057D01*
X134100501Y-51920942D01*
X134100501Y-51913347D01*
X134100500Y-51913329D01*
X134100500Y-49589060D01*
X134100501Y-49589047D01*
X134100501Y-49420944D01*
X134074041Y-49322197D01*
X134059577Y-49268216D01*
X134044526Y-49242147D01*
X133980524Y-49131290D01*
X133980518Y-49131282D01*
X132987590Y-48138355D01*
X132987588Y-48138352D01*
X132868717Y-48019481D01*
X132868716Y-48019480D01*
X132781904Y-47969360D01*
X132781904Y-47969359D01*
X132781900Y-47969358D01*
X132731785Y-47940423D01*
X132579057Y-47899499D01*
X132420943Y-47899499D01*
X132413347Y-47899499D01*
X132413331Y-47899500D01*
X126586669Y-47899500D01*
X126586653Y-47899499D01*
X126579057Y-47899499D01*
X126420943Y-47899499D01*
X126313587Y-47928265D01*
X126268210Y-47940424D01*
X126268209Y-47940425D01*
X126218096Y-47969359D01*
X126218095Y-47969360D01*
X126174689Y-47994420D01*
X126131285Y-48019479D01*
X126131282Y-48019481D01*
X126019478Y-48131286D01*
X125562584Y-48588181D01*
X125501261Y-48621666D01*
X125474903Y-48624500D01*
X118404169Y-48624500D01*
X118404153Y-48624499D01*
X118396557Y-48624499D01*
X118238443Y-48624499D01*
X118171204Y-48642516D01*
X118085716Y-48665422D01*
X118048911Y-48686672D01*
X118048910Y-48686671D01*
X117948787Y-48744477D01*
X117948782Y-48744481D01*
X117836978Y-48856286D01*
X117085082Y-49608181D01*
X117023759Y-49641666D01*
X116997401Y-49644500D01*
X116284998Y-49644500D01*
X116284980Y-49644501D01*
X116182203Y-49655000D01*
X116182200Y-49655001D01*
X116015668Y-49710185D01*
X116015663Y-49710187D01*
X115866342Y-49802289D01*
X115742289Y-49926342D01*
X115651771Y-50073097D01*
X115599823Y-50119821D01*
X115546232Y-50132000D01*
X105021669Y-50132000D01*
X105021653Y-50131999D01*
X105014057Y-50131999D01*
X104855943Y-50131999D01*
X104703215Y-50172923D01*
X104660094Y-50197819D01*
X104566287Y-50251977D01*
X104566282Y-50251981D01*
X104454478Y-50363786D01*
X100060082Y-54758181D01*
X99998759Y-54791666D01*
X99972401Y-54794500D01*
X99598330Y-54794500D01*
X99598312Y-54794501D01*
X99497247Y-54804825D01*
X99333484Y-54859092D01*
X99333481Y-54859093D01*
X99186648Y-54949661D01*
X99064661Y-55071648D01*
X98974093Y-55218481D01*
X98974092Y-55218484D01*
X98919826Y-55382247D01*
X98919826Y-55382248D01*
X98919825Y-55382248D01*
X98909500Y-55483315D01*
X98909500Y-56056669D01*
X98909501Y-56056687D01*
X98919825Y-56157752D01*
X98951738Y-56254057D01*
X98965878Y-56296729D01*
X98974092Y-56321515D01*
X98974093Y-56321518D01*
X98998620Y-56361283D01*
X99034837Y-56420000D01*
X99043805Y-56434538D01*
X99062245Y-56501931D01*
X99041322Y-56568594D01*
X99025947Y-56587316D01*
X97275082Y-58338181D01*
X97213759Y-58371666D01*
X97187401Y-58374500D01*
X96474998Y-58374500D01*
X96474980Y-58374501D01*
X96372203Y-58385000D01*
X96372200Y-58385001D01*
X96205668Y-58440185D01*
X96205663Y-58440187D01*
X96056342Y-58532289D01*
X95932289Y-58656342D01*
X95840187Y-58805663D01*
X95840185Y-58805668D01*
X95828747Y-58840186D01*
X95785001Y-58972203D01*
X95785001Y-58972204D01*
X95785000Y-58972204D01*
X95774500Y-59074983D01*
X95774500Y-59787402D01*
X95754815Y-59854441D01*
X95738181Y-59875083D01*
X95494481Y-60118782D01*
X95494480Y-60118784D01*
X95460927Y-60176900D01*
X95438985Y-60214905D01*
X95416159Y-60254441D01*
X95415423Y-60255715D01*
X95374499Y-60408443D01*
X95374499Y-60408445D01*
X95374499Y-60576546D01*
X95374500Y-60576559D01*
X95374500Y-65875165D01*
X95354815Y-65942204D01*
X95349767Y-65949476D01*
X95306204Y-66007668D01*
X95306202Y-66007671D01*
X95255908Y-66142517D01*
X95249739Y-66199902D01*
X95249501Y-66202123D01*
X95249500Y-66202135D01*
X95249500Y-67797870D01*
X95249501Y-67797876D01*
X95255908Y-67857483D01*
X95306202Y-67992328D01*
X95306206Y-67992335D01*
X95392452Y-68107544D01*
X95392455Y-68107547D01*
X95507664Y-68193793D01*
X95507671Y-68193797D01*
X95549707Y-68209475D01*
X95642517Y-68244091D01*
X95702127Y-68250500D01*
X95775500Y-68250499D01*
X95842538Y-68270183D01*
X95888294Y-68322986D01*
X95899500Y-68374499D01*
X95899500Y-71183819D01*
X95879815Y-71250858D01*
X95846624Y-71285394D01*
X95725856Y-71369956D01*
X95564954Y-71530858D01*
X95494637Y-71631284D01*
X95434881Y-71716624D01*
X95380307Y-71760248D01*
X95333308Y-71769500D01*
X95256692Y-71769500D01*
X95189653Y-71749815D01*
X95155119Y-71716625D01*
X95025047Y-71530861D01*
X95025045Y-71530858D01*
X94864141Y-71369954D01*
X94677734Y-71239432D01*
X94677732Y-71239431D01*
X94471497Y-71143261D01*
X94471488Y-71143258D01*
X94251697Y-71084366D01*
X94251693Y-71084365D01*
X94251692Y-71084365D01*
X94251691Y-71084364D01*
X94251686Y-71084364D01*
X94025002Y-71064532D01*
X94024998Y-71064532D01*
X93798313Y-71084364D01*
X93798302Y-71084366D01*
X93578511Y-71143258D01*
X93578502Y-71143261D01*
X93372267Y-71239431D01*
X93372265Y-71239432D01*
X93185858Y-71369954D01*
X93024954Y-71530858D01*
X92894432Y-71717265D01*
X92894431Y-71717267D01*
X92867382Y-71775275D01*
X92821209Y-71827714D01*
X92754016Y-71846866D01*
X92687135Y-71826650D01*
X92642618Y-71775275D01*
X92615568Y-71717267D01*
X92615567Y-71717265D01*
X92615117Y-71716623D01*
X92485047Y-71530861D01*
X92485045Y-71530858D01*
X92324141Y-71369954D01*
X92137734Y-71239432D01*
X92137732Y-71239431D01*
X91931497Y-71143261D01*
X91931488Y-71143258D01*
X91711697Y-71084366D01*
X91711693Y-71084365D01*
X91711692Y-71084365D01*
X91711691Y-71084364D01*
X91711686Y-71084364D01*
X91485002Y-71064532D01*
X91484998Y-71064532D01*
X91258313Y-71084364D01*
X91258302Y-71084366D01*
X91162067Y-71110152D01*
X91092217Y-71108489D01*
X91042293Y-71078058D01*
X90136819Y-70172584D01*
X90103334Y-70111261D01*
X90100500Y-70084903D01*
X90100500Y-68374499D01*
X90120185Y-68307460D01*
X90172989Y-68261705D01*
X90224500Y-68250499D01*
X90297871Y-68250499D01*
X90297872Y-68250499D01*
X90357483Y-68244091D01*
X90492331Y-68193796D01*
X90607546Y-68107546D01*
X90693796Y-67992331D01*
X90744091Y-67857483D01*
X90750500Y-67797873D01*
X90750499Y-66202128D01*
X90744091Y-66142517D01*
X90741482Y-66135523D01*
X90693797Y-66007671D01*
X90693793Y-66007664D01*
X90607547Y-65892455D01*
X90607544Y-65892452D01*
X90492335Y-65806206D01*
X90492328Y-65806202D01*
X90357482Y-65755908D01*
X90357483Y-65755908D01*
X90297883Y-65749501D01*
X90297881Y-65749500D01*
X90297873Y-65749500D01*
X90297865Y-65749500D01*
X89150097Y-65749500D01*
X89083058Y-65729815D01*
X89062416Y-65713181D01*
X86973416Y-63624181D01*
X86939931Y-63562858D01*
X86944915Y-63493166D01*
X86986787Y-63437233D01*
X87052251Y-63412816D01*
X87061097Y-63412500D01*
X87706957Y-63412500D01*
X87706958Y-63412499D01*
X87774104Y-63404934D01*
X87841249Y-63397369D01*
X87841252Y-63397368D01*
X87841255Y-63397368D01*
X88011522Y-63337789D01*
X88164262Y-63241816D01*
X88291816Y-63114262D01*
X88387789Y-62961522D01*
X88447368Y-62791255D01*
X88448295Y-62783033D01*
X88459626Y-62682460D01*
X88462500Y-62656954D01*
X88462500Y-61967046D01*
X88456611Y-61914777D01*
X88447369Y-61832750D01*
X88447368Y-61832745D01*
X88427337Y-61775500D01*
X88387789Y-61662478D01*
X88291816Y-61509738D01*
X88164262Y-61382184D01*
X88155284Y-61376543D01*
X88011523Y-61286211D01*
X87841254Y-61226631D01*
X87841249Y-61226630D01*
X87706960Y-61211500D01*
X87706954Y-61211500D01*
X86540113Y-61211500D01*
X86473074Y-61191815D01*
X86427319Y-61139011D01*
X86424695Y-61131714D01*
X86424685Y-61131719D01*
X86421575Y-61124211D01*
X86383348Y-61058000D01*
X86366875Y-60990100D01*
X86389727Y-60924073D01*
X86444648Y-60880883D01*
X86490735Y-60872000D01*
X87706929Y-60872000D01*
X87798166Y-60861719D01*
X87798167Y-60861718D01*
X87734293Y-60797844D01*
X90750000Y-60797844D01*
X90756401Y-60857372D01*
X90756403Y-60857379D01*
X90806645Y-60992086D01*
X90806649Y-60992093D01*
X90892809Y-61107187D01*
X90892812Y-61107190D01*
X91007906Y-61193350D01*
X91007913Y-61193354D01*
X91142620Y-61243596D01*
X91142627Y-61243598D01*
X91202155Y-61249999D01*
X91202172Y-61250000D01*
X91750000Y-61250000D01*
X92250000Y-61250000D01*
X92797828Y-61250000D01*
X92797844Y-61249999D01*
X92857372Y-61243598D01*
X92857379Y-61243596D01*
X92992086Y-61193354D01*
X92992093Y-61193350D01*
X93107187Y-61107190D01*
X93107190Y-61107187D01*
X93193350Y-60992093D01*
X93193354Y-60992086D01*
X93243596Y-60857379D01*
X93243598Y-60857372D01*
X93249999Y-60797844D01*
X93250000Y-60797827D01*
X93250000Y-60250000D01*
X92250000Y-60250000D01*
X92250000Y-61250000D01*
X91750000Y-61250000D01*
X91750000Y-60250000D01*
X90750000Y-60250000D01*
X90750000Y-60797844D01*
X87734293Y-60797844D01*
X86885224Y-59948776D01*
X86708446Y-59771998D01*
X87415551Y-59771998D01*
X87415551Y-59771999D01*
X88254460Y-60610909D01*
X88291424Y-60573946D01*
X88387336Y-60421301D01*
X88446877Y-60251141D01*
X88461999Y-60116930D01*
X88462000Y-60116930D01*
X88462000Y-59953922D01*
X91650000Y-59953922D01*
X91650000Y-60046078D01*
X91673852Y-60135095D01*
X91719930Y-60214905D01*
X91785095Y-60280070D01*
X91864905Y-60326148D01*
X91953922Y-60350000D01*
X92046078Y-60350000D01*
X92135095Y-60326148D01*
X92214905Y-60280070D01*
X92280070Y-60214905D01*
X92326148Y-60135095D01*
X92350000Y-60046078D01*
X92350000Y-59953922D01*
X92326148Y-59864905D01*
X92280070Y-59785095D01*
X92244975Y-59750000D01*
X92250000Y-59750000D01*
X93250000Y-59750000D01*
X93250000Y-59202172D01*
X93249999Y-59202155D01*
X93243598Y-59142627D01*
X93243596Y-59142620D01*
X93193354Y-59007913D01*
X93193350Y-59007906D01*
X93107190Y-58892812D01*
X93107187Y-58892809D01*
X92992093Y-58806649D01*
X92992086Y-58806645D01*
X92857379Y-58756403D01*
X92857372Y-58756401D01*
X92797844Y-58750000D01*
X92250000Y-58750000D01*
X92250000Y-59750000D01*
X92244975Y-59750000D01*
X92214905Y-59719930D01*
X92135095Y-59673852D01*
X92046078Y-59650000D01*
X91953922Y-59650000D01*
X91864905Y-59673852D01*
X91785095Y-59719930D01*
X91719930Y-59785095D01*
X91673852Y-59864905D01*
X91650000Y-59953922D01*
X88462000Y-59953922D01*
X88462000Y-59427070D01*
X88461999Y-59427069D01*
X88446877Y-59292858D01*
X88415139Y-59202155D01*
X90750000Y-59202155D01*
X90750000Y-59750000D01*
X91750000Y-59750000D01*
X91750000Y-58750000D01*
X91202155Y-58750000D01*
X91142627Y-58756401D01*
X91142620Y-58756403D01*
X91007913Y-58806645D01*
X91007906Y-58806649D01*
X90892812Y-58892809D01*
X90892809Y-58892812D01*
X90806649Y-59007906D01*
X90806645Y-59007913D01*
X90756403Y-59142620D01*
X90756401Y-59142627D01*
X90750000Y-59202155D01*
X88415139Y-59202155D01*
X88387336Y-59122698D01*
X88291422Y-58970051D01*
X88254461Y-58933090D01*
X87415551Y-59771998D01*
X86708446Y-59771998D01*
X85869538Y-58933090D01*
X85832576Y-58970053D01*
X85736663Y-59122698D01*
X85677122Y-59292858D01*
X85662000Y-59427069D01*
X85662000Y-60007403D01*
X85642315Y-60074442D01*
X85589511Y-60120197D01*
X85520353Y-60130141D01*
X85456797Y-60101116D01*
X85450319Y-60095084D01*
X84037514Y-58682279D01*
X86325832Y-58682279D01*
X86325832Y-58682280D01*
X87061999Y-59418447D01*
X87798165Y-58682280D01*
X87798165Y-58682279D01*
X87706932Y-58672000D01*
X86417067Y-58672000D01*
X86325832Y-58682279D01*
X84037514Y-58682279D01*
X79710274Y-54355039D01*
X85661500Y-54355039D01*
X85661500Y-55044960D01*
X85676630Y-55179249D01*
X85676631Y-55179254D01*
X85736211Y-55349523D01*
X85820279Y-55483315D01*
X85832184Y-55502262D01*
X85959738Y-55629816D01*
X86112478Y-55725789D01*
X86207887Y-55759174D01*
X86282745Y-55785368D01*
X86282750Y-55785369D01*
X86373246Y-55795565D01*
X86417040Y-55800499D01*
X86417043Y-55800500D01*
X86417046Y-55800500D01*
X87706957Y-55800500D01*
X87706958Y-55800499D01*
X87774104Y-55792934D01*
X87841249Y-55785369D01*
X87841252Y-55785368D01*
X87841255Y-55785368D01*
X88011522Y-55725789D01*
X88164262Y-55629816D01*
X88291816Y-55502262D01*
X88387789Y-55349522D01*
X88447368Y-55179255D01*
X88449445Y-55160826D01*
X88462499Y-55044960D01*
X88462500Y-55044956D01*
X88462500Y-54355043D01*
X88462499Y-54355039D01*
X88461687Y-54347835D01*
X88447368Y-54220745D01*
X88387789Y-54050478D01*
X88291816Y-53897738D01*
X88164262Y-53770184D01*
X88142564Y-53756550D01*
X88011523Y-53674211D01*
X87841254Y-53614631D01*
X87841249Y-53614630D01*
X87706960Y-53599500D01*
X87706954Y-53599500D01*
X86417046Y-53599500D01*
X86417039Y-53599500D01*
X86282750Y-53614630D01*
X86282745Y-53614631D01*
X86112476Y-53674211D01*
X85959737Y-53770184D01*
X85832184Y-53897737D01*
X85736211Y-54050476D01*
X85676631Y-54220745D01*
X85676630Y-54220750D01*
X85661500Y-54355039D01*
X79710274Y-54355039D01*
X78087833Y-52732598D01*
X78054348Y-52671275D01*
X78052294Y-52631033D01*
X78066500Y-52504954D01*
X78066500Y-51815046D01*
X78066499Y-51815039D01*
X85661500Y-51815039D01*
X85661500Y-52504960D01*
X85676630Y-52639249D01*
X85676631Y-52639254D01*
X85736211Y-52809523D01*
X85832184Y-52962262D01*
X85959738Y-53089816D01*
X85996923Y-53113181D01*
X86095173Y-53174916D01*
X86112478Y-53185789D01*
X86207887Y-53219174D01*
X86282745Y-53245368D01*
X86282750Y-53245369D01*
X86373246Y-53255565D01*
X86417040Y-53260499D01*
X86417043Y-53260500D01*
X86417046Y-53260500D01*
X87706957Y-53260500D01*
X87706958Y-53260499D01*
X87774104Y-53252934D01*
X87841249Y-53245369D01*
X87841252Y-53245368D01*
X87841255Y-53245368D01*
X88011522Y-53185789D01*
X88164262Y-53089816D01*
X88291816Y-52962262D01*
X88387789Y-52809522D01*
X88447368Y-52639255D01*
X88448295Y-52631033D01*
X88455841Y-52564057D01*
X88462500Y-52504954D01*
X88462500Y-51815046D01*
X88451583Y-51718152D01*
X88447369Y-51680750D01*
X88447368Y-51680745D01*
X88432534Y-51638351D01*
X88387789Y-51510478D01*
X88291816Y-51357738D01*
X88164262Y-51230184D01*
X88152506Y-51222797D01*
X88011523Y-51134211D01*
X87841254Y-51074631D01*
X87841249Y-51074630D01*
X87706960Y-51059500D01*
X87706954Y-51059500D01*
X86417046Y-51059500D01*
X86417039Y-51059500D01*
X86282750Y-51074630D01*
X86282745Y-51074631D01*
X86112476Y-51134211D01*
X85959737Y-51230184D01*
X85832184Y-51357737D01*
X85736211Y-51510476D01*
X85676631Y-51680745D01*
X85676630Y-51680750D01*
X85661500Y-51815039D01*
X78066499Y-51815039D01*
X78055583Y-51718152D01*
X78051369Y-51680750D01*
X78051368Y-51680745D01*
X78036534Y-51638351D01*
X77991789Y-51510478D01*
X77895816Y-51357738D01*
X77768262Y-51230184D01*
X77756506Y-51222797D01*
X77615523Y-51134211D01*
X77445254Y-51074631D01*
X77445249Y-51074630D01*
X77310960Y-51059500D01*
X77310954Y-51059500D01*
X76021046Y-51059500D01*
X76021039Y-51059500D01*
X75886750Y-51074630D01*
X75886745Y-51074631D01*
X75716476Y-51134211D01*
X75563737Y-51230184D01*
X75436184Y-51357737D01*
X75345870Y-51501472D01*
X75293535Y-51547763D01*
X75240876Y-51559500D01*
X74960097Y-51559500D01*
X74893058Y-51539815D01*
X74872416Y-51523181D01*
X73286818Y-49937583D01*
X73253333Y-49876260D01*
X73250499Y-49849902D01*
X73250499Y-49500000D01*
X73644815Y-49500000D01*
X73663503Y-49677805D01*
X73663504Y-49677807D01*
X73718747Y-49847829D01*
X73718750Y-49847835D01*
X73808141Y-50002665D01*
X73823087Y-50019264D01*
X73927764Y-50135521D01*
X73927767Y-50135523D01*
X73927770Y-50135526D01*
X74072407Y-50240612D01*
X74235733Y-50313329D01*
X74410609Y-50350500D01*
X74410610Y-50350500D01*
X74589389Y-50350500D01*
X74589391Y-50350500D01*
X74764267Y-50313329D01*
X74927593Y-50240612D01*
X74927596Y-50240610D01*
X74933219Y-50237364D01*
X74934684Y-50239901D01*
X74988470Y-50220703D01*
X74995565Y-50220500D01*
X75240876Y-50220500D01*
X75307915Y-50240185D01*
X75345869Y-50278527D01*
X75436184Y-50422262D01*
X75563738Y-50549816D01*
X75604614Y-50575500D01*
X75711305Y-50642539D01*
X75716478Y-50645789D01*
X75877506Y-50702135D01*
X75886745Y-50705368D01*
X75886750Y-50705369D01*
X75977246Y-50715565D01*
X76021040Y-50720499D01*
X76021043Y-50720500D01*
X76021046Y-50720500D01*
X77310957Y-50720500D01*
X77310958Y-50720499D01*
X77378104Y-50712934D01*
X77445249Y-50705369D01*
X77445252Y-50705368D01*
X77445255Y-50705368D01*
X77615522Y-50645789D01*
X77768262Y-50549816D01*
X77895816Y-50422262D01*
X77991789Y-50269522D01*
X78051368Y-50099255D01*
X78066500Y-49964954D01*
X78066500Y-49275046D01*
X78066499Y-49275039D01*
X85661500Y-49275039D01*
X85661500Y-49964960D01*
X85676630Y-50099249D01*
X85676631Y-50099254D01*
X85736211Y-50269523D01*
X85795440Y-50363784D01*
X85832184Y-50422262D01*
X85959738Y-50549816D01*
X86000614Y-50575500D01*
X86107305Y-50642539D01*
X86112478Y-50645789D01*
X86273506Y-50702135D01*
X86282745Y-50705368D01*
X86282750Y-50705369D01*
X86373246Y-50715565D01*
X86417040Y-50720499D01*
X86417043Y-50720500D01*
X86417046Y-50720500D01*
X87706957Y-50720500D01*
X87706958Y-50720499D01*
X87774104Y-50712934D01*
X87841249Y-50705369D01*
X87841252Y-50705368D01*
X87841255Y-50705368D01*
X88011522Y-50645789D01*
X88164262Y-50549816D01*
X88291816Y-50422262D01*
X88387789Y-50269522D01*
X88447368Y-50099255D01*
X88462500Y-49964954D01*
X88462500Y-49275046D01*
X88451001Y-49172989D01*
X88447369Y-49140750D01*
X88447368Y-49140745D01*
X88406692Y-49024500D01*
X88387789Y-48970478D01*
X88291816Y-48817738D01*
X88164262Y-48690184D01*
X88099514Y-48649500D01*
X88011523Y-48594211D01*
X87841254Y-48534631D01*
X87841249Y-48534630D01*
X87706960Y-48519500D01*
X87706954Y-48519500D01*
X86417046Y-48519500D01*
X86417039Y-48519500D01*
X86282750Y-48534630D01*
X86282745Y-48534631D01*
X86112476Y-48594211D01*
X85959737Y-48690184D01*
X85832184Y-48817737D01*
X85736211Y-48970476D01*
X85676631Y-49140745D01*
X85676630Y-49140750D01*
X85661500Y-49275039D01*
X78066499Y-49275039D01*
X78055001Y-49172989D01*
X78051369Y-49140750D01*
X78051368Y-49140745D01*
X78010692Y-49024500D01*
X77991789Y-48970478D01*
X77895816Y-48817738D01*
X77768262Y-48690184D01*
X77703514Y-48649500D01*
X77615523Y-48594211D01*
X77445254Y-48534631D01*
X77445249Y-48534630D01*
X77310960Y-48519500D01*
X77310954Y-48519500D01*
X76021046Y-48519500D01*
X76021039Y-48519500D01*
X75886750Y-48534630D01*
X75886745Y-48534631D01*
X75716476Y-48594211D01*
X75563737Y-48690184D01*
X75436182Y-48817739D01*
X75356616Y-48944368D01*
X75304282Y-48990658D01*
X75235228Y-49001306D01*
X75171380Y-48972931D01*
X75159473Y-48961367D01*
X75072235Y-48864478D01*
X75072232Y-48864476D01*
X75072231Y-48864475D01*
X75072230Y-48864474D01*
X74927593Y-48759388D01*
X74764267Y-48686671D01*
X74764265Y-48686670D01*
X74636594Y-48659533D01*
X74589391Y-48649500D01*
X74410609Y-48649500D01*
X74379954Y-48656015D01*
X74235733Y-48686670D01*
X74235728Y-48686672D01*
X74072408Y-48759387D01*
X73927768Y-48864475D01*
X73808140Y-48997336D01*
X73718750Y-49152164D01*
X73718747Y-49152170D01*
X73663504Y-49322192D01*
X73663503Y-49322194D01*
X73644815Y-49500000D01*
X73250499Y-49500000D01*
X73250499Y-48702129D01*
X73250498Y-48702123D01*
X73248837Y-48686672D01*
X73244091Y-48642517D01*
X73228046Y-48599499D01*
X73193797Y-48507671D01*
X73193793Y-48507664D01*
X73107547Y-48392455D01*
X73107544Y-48392452D01*
X72992335Y-48306206D01*
X72992328Y-48306202D01*
X72857482Y-48255908D01*
X72857483Y-48255908D01*
X72797883Y-48249501D01*
X72797881Y-48249500D01*
X72797873Y-48249500D01*
X72797865Y-48249500D01*
X71650097Y-48249500D01*
X71583058Y-48229815D01*
X71562416Y-48213181D01*
X70487590Y-47138355D01*
X70487588Y-47138352D01*
X70368717Y-47019481D01*
X70368716Y-47019480D01*
X70281904Y-46969360D01*
X70281904Y-46969359D01*
X70281900Y-46969358D01*
X70231785Y-46940423D01*
X70079057Y-46899499D01*
X69920943Y-46899499D01*
X69913347Y-46899499D01*
X69913331Y-46899500D01*
X60374901Y-46899500D01*
X60307862Y-46879815D01*
X60269362Y-46840596D01*
X60245340Y-46801650D01*
X60123351Y-46679661D01*
X60123350Y-46679660D01*
X59976516Y-46589092D01*
X59812753Y-46534826D01*
X59812751Y-46534825D01*
X59711678Y-46524500D01*
X59113330Y-46524500D01*
X59113312Y-46524501D01*
X59012247Y-46534825D01*
X59012241Y-46534827D01*
X58988567Y-46542672D01*
X58918739Y-46545074D01*
X58861883Y-46512647D01*
X58368717Y-46019481D01*
X58368716Y-46019480D01*
X58281904Y-45969360D01*
X58281904Y-45969359D01*
X58281900Y-45969358D01*
X58231785Y-45940423D01*
X58079057Y-45899499D01*
X57920943Y-45899499D01*
X57913347Y-45899499D01*
X57913331Y-45899500D01*
X56013371Y-45899500D01*
X55855256Y-45899500D01*
X55702529Y-45940423D01*
X55702528Y-45940423D01*
X55702526Y-45940424D01*
X55702523Y-45940425D01*
X55652410Y-45969359D01*
X55652409Y-45969360D01*
X55609003Y-45994420D01*
X55565599Y-46019479D01*
X55565596Y-46019481D01*
X51835033Y-49750044D01*
X51835032Y-49750046D01*
X51791469Y-49825501D01*
X51784913Y-49836856D01*
X51784911Y-49836858D01*
X51755977Y-49886971D01*
X51755976Y-49886972D01*
X51745427Y-49926342D01*
X51715051Y-50039705D01*
X51715051Y-50039707D01*
X51715051Y-50207808D01*
X51715052Y-50207821D01*
X51715052Y-50575500D01*
X51695367Y-50642539D01*
X51642563Y-50688294D01*
X51591052Y-50699500D01*
X50784298Y-50699500D01*
X50747432Y-50702401D01*
X50747426Y-50702402D01*
X50589606Y-50748254D01*
X50589603Y-50748255D01*
X50448137Y-50831917D01*
X50448129Y-50831923D01*
X50416874Y-50863180D01*
X50355552Y-50896666D01*
X50329192Y-50899500D01*
X47874499Y-50899500D01*
X47807460Y-50879815D01*
X47761705Y-50827011D01*
X47750499Y-50775500D01*
X47750499Y-50702129D01*
X47750498Y-50702123D01*
X47750497Y-50702116D01*
X47744091Y-50642517D01*
X47719095Y-50575500D01*
X47693797Y-50507671D01*
X47693793Y-50507664D01*
X47607547Y-50392455D01*
X47607544Y-50392452D01*
X47492335Y-50306206D01*
X47492328Y-50306202D01*
X47357482Y-50255908D01*
X47357483Y-50255908D01*
X47297883Y-50249501D01*
X47297881Y-50249500D01*
X47297873Y-50249500D01*
X47297864Y-50249500D01*
X45702129Y-50249500D01*
X45702123Y-50249501D01*
X45642516Y-50255908D01*
X45507671Y-50306202D01*
X45507664Y-50306206D01*
X45392455Y-50392452D01*
X45392452Y-50392455D01*
X45306206Y-50507664D01*
X45306202Y-50507671D01*
X45255908Y-50642517D01*
X45249782Y-50699500D01*
X45249501Y-50702123D01*
X45249500Y-50702135D01*
X42000500Y-50702135D01*
X42000500Y-38624500D01*
X42020185Y-38557461D01*
X42072989Y-38511706D01*
X42124500Y-38500500D01*
X143375500Y-38500500D01*
X143442539Y-38520185D01*
G37*
%TD.AperFunction*%
%TD*%
M02*
