%TF.GenerationSoftware,KiCad,Pcbnew,8.0.8*%
%TF.CreationDate,2025-04-20T19:53:29+05:30*%
%TF.ProjectId,bandara_ckt_pcb_naveen,62616e64-6172-4615-9f63-6b745f706362,v1*%
%TF.SameCoordinates,Original*%
%TF.FileFunction,Paste,Top*%
%TF.FilePolarity,Positive*%
%FSLAX46Y46*%
G04 Gerber Fmt 4.6, Leading zero omitted, Abs format (unit mm)*
G04 Created by KiCad (PCBNEW 8.0.8) date 2025-04-20 19:53:29*
%MOMM*%
%LPD*%
G01*
G04 APERTURE LIST*
G04 Aperture macros list*
%AMRoundRect*
0 Rectangle with rounded corners*
0 $1 Rounding radius*
0 $2 $3 $4 $5 $6 $7 $8 $9 X,Y pos of 4 corners*
0 Add a 4 corners polygon primitive as box body*
4,1,4,$2,$3,$4,$5,$6,$7,$8,$9,$2,$3,0*
0 Add four circle primitives for the rounded corners*
1,1,$1+$1,$2,$3*
1,1,$1+$1,$4,$5*
1,1,$1+$1,$6,$7*
1,1,$1+$1,$8,$9*
0 Add four rect primitives between the rounded corners*
20,1,$1+$1,$2,$3,$4,$5,0*
20,1,$1+$1,$4,$5,$6,$7,0*
20,1,$1+$1,$6,$7,$8,$9,0*
20,1,$1+$1,$8,$9,$2,$3,0*%
G04 Aperture macros list end*
%ADD10RoundRect,0.250000X-0.475000X0.337500X-0.475000X-0.337500X0.475000X-0.337500X0.475000X0.337500X0*%
%ADD11RoundRect,0.250000X0.337500X0.475000X-0.337500X0.475000X-0.337500X-0.475000X0.337500X-0.475000X0*%
%ADD12RoundRect,0.300000X0.600000X0.300000X-0.600000X0.300000X-0.600000X-0.300000X0.600000X-0.300000X0*%
%ADD13RoundRect,0.250000X-0.337500X-0.475000X0.337500X-0.475000X0.337500X0.475000X-0.337500X0.475000X0*%
%ADD14RoundRect,0.237500X0.250000X0.237500X-0.250000X0.237500X-0.250000X-0.237500X0.250000X-0.237500X0*%
%ADD15RoundRect,0.237500X0.237500X-0.250000X0.237500X0.250000X-0.237500X0.250000X-0.237500X-0.250000X0*%
%ADD16RoundRect,0.250000X0.475000X-0.337500X0.475000X0.337500X-0.475000X0.337500X-0.475000X-0.337500X0*%
%ADD17RoundRect,0.237500X-0.237500X0.250000X-0.237500X-0.250000X0.237500X-0.250000X0.237500X0.250000X0*%
%ADD18R,0.250000X1.100000*%
%ADD19RoundRect,0.237500X-0.250000X-0.237500X0.250000X-0.237500X0.250000X0.237500X-0.250000X0.237500X0*%
%ADD20RoundRect,0.150000X0.512500X0.150000X-0.512500X0.150000X-0.512500X-0.150000X0.512500X-0.150000X0*%
%ADD21RoundRect,0.250000X-0.375000X-0.275000X0.375000X-0.275000X0.375000X0.275000X-0.375000X0.275000X0*%
G04 APERTURE END LIST*
D10*
%TO.C,C5*%
X122600000Y-110162500D03*
X122600000Y-112237500D03*
%TD*%
D11*
%TO.C,C13*%
X121137500Y-81700000D03*
X119062500Y-81700000D03*
%TD*%
D12*
%TO.C,U4*%
X56700000Y-43760000D03*
X56700000Y-46300000D03*
X56700000Y-48840000D03*
X56700000Y-53912000D03*
X56700000Y-56452000D03*
X67096000Y-56452000D03*
X67096000Y-53912000D03*
X67096000Y-48840000D03*
X67096000Y-46300000D03*
X67096000Y-43760000D03*
%TD*%
D13*
%TO.C,C4*%
X120162500Y-115600000D03*
X122237500Y-115600000D03*
%TD*%
%TO.C,C11*%
X128662500Y-81100000D03*
X130737500Y-81100000D03*
%TD*%
D14*
%TO.C,R9*%
X127312500Y-106400000D03*
X125487500Y-106400000D03*
%TD*%
D15*
%TO.C,R13*%
X119800000Y-104012500D03*
X119800000Y-102187500D03*
%TD*%
D16*
%TO.C,C6*%
X82500000Y-56937500D03*
X82500000Y-54862500D03*
%TD*%
D11*
%TO.C,C9*%
X127437500Y-61400000D03*
X125362500Y-61400000D03*
%TD*%
D17*
%TO.C,R7*%
X102700000Y-51687500D03*
X102700000Y-53512500D03*
%TD*%
D18*
%TO.C,U2*%
X127200000Y-108750000D03*
X126700000Y-108750000D03*
X126200000Y-108750000D03*
X125700000Y-108750000D03*
X125200000Y-108750000D03*
X125200000Y-113050000D03*
X125700000Y-113050000D03*
X126200000Y-113050000D03*
X126700000Y-113050000D03*
X127200000Y-113050000D03*
%TD*%
D17*
%TO.C,R10*%
X126900000Y-84187500D03*
X126900000Y-86012500D03*
%TD*%
%TO.C,R1*%
X69000000Y-114387500D03*
X69000000Y-116212500D03*
%TD*%
D14*
%TO.C,R5*%
X89512500Y-47900000D03*
X87687500Y-47900000D03*
%TD*%
D13*
%TO.C,C1*%
X126562500Y-116200000D03*
X128637500Y-116200000D03*
%TD*%
D17*
%TO.C,R12*%
X117600000Y-91287500D03*
X117600000Y-93112500D03*
%TD*%
D10*
%TO.C,C7*%
X106600000Y-46962500D03*
X106600000Y-49037500D03*
%TD*%
D19*
%TO.C,R4*%
X71287500Y-44200000D03*
X73112500Y-44200000D03*
%TD*%
D17*
%TO.C,R3*%
X65800000Y-114387500D03*
X65800000Y-116212500D03*
%TD*%
D20*
%TO.C,U1*%
X79100000Y-48150000D03*
X79100000Y-47200000D03*
X79100000Y-46250000D03*
X76825000Y-46250000D03*
X76825000Y-47200000D03*
X76825000Y-48150000D03*
%TD*%
D13*
%TO.C,C10*%
X117362500Y-63500000D03*
X119437500Y-63500000D03*
%TD*%
D21*
%TO.C,C2*%
X82300000Y-47900000D03*
X83900000Y-47900000D03*
%TD*%
D15*
%TO.C,R14*%
X119700000Y-100312500D03*
X119700000Y-98487500D03*
%TD*%
D13*
%TO.C,C3*%
X82062500Y-44700000D03*
X84137500Y-44700000D03*
%TD*%
D19*
%TO.C,R2*%
X71287500Y-47100000D03*
X73112500Y-47100000D03*
%TD*%
D16*
%TO.C,C12*%
X122700000Y-108037500D03*
X122700000Y-105962500D03*
%TD*%
D11*
%TO.C,C14*%
X129537500Y-102100000D03*
X127462500Y-102100000D03*
%TD*%
D15*
%TO.C,R11*%
X122800000Y-103912500D03*
X122800000Y-102087500D03*
%TD*%
D17*
%TO.C,R6*%
X105600000Y-51687500D03*
X105600000Y-53512500D03*
%TD*%
%TO.C,R8*%
X118600000Y-68387500D03*
X118600000Y-70212500D03*
%TD*%
M02*
