%TF.GenerationSoftware,KiCad,Pcbnew,8.0.8*%
%TF.CreationDate,2025-03-06T15:39:58+05:30*%
%TF.ProjectId,bandara_ckt_pcb_naveen,62616e64-6172-4615-9f63-6b745f706362,v1*%
%TF.SameCoordinates,Original*%
%TF.FileFunction,Soldermask,Bot*%
%TF.FilePolarity,Negative*%
%FSLAX46Y46*%
G04 Gerber Fmt 4.6, Leading zero omitted, Abs format (unit mm)*
G04 Created by KiCad (PCBNEW 8.0.8) date 2025-03-06 15:39:58*
%MOMM*%
%LPD*%
G01*
G04 APERTURE LIST*
G04 Aperture macros list*
%AMRoundRect*
0 Rectangle with rounded corners*
0 $1 Rounding radius*
0 $2 $3 $4 $5 $6 $7 $8 $9 X,Y pos of 4 corners*
0 Add a 4 corners polygon primitive as box body*
4,1,4,$2,$3,$4,$5,$6,$7,$8,$9,$2,$3,0*
0 Add four circle primitives for the rounded corners*
1,1,$1+$1,$2,$3*
1,1,$1+$1,$4,$5*
1,1,$1+$1,$6,$7*
1,1,$1+$1,$8,$9*
0 Add four rect primitives between the rounded corners*
20,1,$1+$1,$2,$3,$4,$5,0*
20,1,$1+$1,$4,$5,$6,$7,0*
20,1,$1+$1,$6,$7,$8,$9,0*
20,1,$1+$1,$8,$9,$2,$3,0*%
G04 Aperture macros list end*
%ADD10R,1.500000X1.500000*%
%ADD11R,1.524000X1.524000*%
%ADD12C,1.524000*%
%ADD13R,1.600000X1.600000*%
%ADD14O,1.600000X1.600000*%
%ADD15RoundRect,0.102000X-0.975000X-0.975000X0.975000X-0.975000X0.975000X0.975000X-0.975000X0.975000X0*%
%ADD16C,2.154000*%
%ADD17C,1.600000*%
G04 APERTURE END LIST*
D10*
%TO.C,TP3*%
X46500000Y-51500000D03*
%TD*%
%TO.C,TP12*%
X136000000Y-80500000D03*
%TD*%
D11*
%TO.C,U3*%
X105690000Y-54190000D03*
D12*
X105690000Y-56730000D03*
X105690000Y-59270000D03*
X105690000Y-61810000D03*
X113310000Y-61810000D03*
X113310000Y-59270000D03*
X113310000Y-56730000D03*
X113310000Y-54190000D03*
%TD*%
D13*
%TO.C,A1*%
X81325000Y-72370000D03*
D14*
X83865000Y-72370000D03*
X86405000Y-72370000D03*
X88945000Y-72370000D03*
X91485000Y-72370000D03*
X94025000Y-72370000D03*
X96565000Y-72370000D03*
X99105000Y-72370000D03*
X104185000Y-72370000D03*
X106725000Y-72370000D03*
X109265000Y-72370000D03*
X111805000Y-72370000D03*
X114345000Y-72370000D03*
X116885000Y-72370000D03*
X116885000Y-120630000D03*
X114345000Y-120630000D03*
X111805000Y-120630000D03*
X109265000Y-120630000D03*
X106725000Y-120630000D03*
X104185000Y-120630000D03*
X101645000Y-120630000D03*
X99105000Y-120630000D03*
X95045000Y-120630000D03*
X92505000Y-120630000D03*
X89965000Y-120630000D03*
X87425000Y-120630000D03*
X84885000Y-120630000D03*
X82345000Y-120630000D03*
X79805000Y-120630000D03*
X77265000Y-120630000D03*
X74725000Y-120630000D03*
X72185000Y-120630000D03*
%TD*%
D10*
%TO.C,TP9*%
X71500000Y-62500000D03*
%TD*%
%TO.C,TP5*%
X92000000Y-60000000D03*
%TD*%
%TO.C,TP6*%
X101310000Y-61770000D03*
%TD*%
%TO.C,TP1*%
X96500000Y-67000000D03*
%TD*%
%TO.C,TP2*%
X89500000Y-67000000D03*
%TD*%
%TO.C,TP15*%
X128000000Y-110000000D03*
%TD*%
%TO.C,TP10*%
X72000000Y-49500000D03*
%TD*%
%TO.C,TP13*%
X129000000Y-80500000D03*
%TD*%
%TO.C,TP8*%
X116810000Y-56770000D03*
%TD*%
%TO.C,TP4*%
X46500000Y-66500000D03*
%TD*%
D15*
%TO.C,J1*%
X131052500Y-50500000D03*
D16*
X136052500Y-50500000D03*
%TD*%
D10*
%TO.C,TP7*%
X121810000Y-57270000D03*
%TD*%
D11*
%TO.C,U6*%
X138040000Y-98190000D03*
D12*
X135500000Y-98190000D03*
X132960000Y-98190000D03*
X130420000Y-98190000D03*
X130420000Y-105810000D03*
X132960000Y-105810000D03*
X135500000Y-105810000D03*
X138040000Y-105810000D03*
%TD*%
D10*
%TO.C,TP11*%
X130500000Y-65000000D03*
%TD*%
D11*
%TO.C,U5*%
X138310000Y-68690000D03*
D12*
X135770000Y-68690000D03*
X133230000Y-68690000D03*
X130690000Y-68690000D03*
X130690000Y-76310000D03*
X133230000Y-76310000D03*
X135770000Y-76310000D03*
X138310000Y-76310000D03*
%TD*%
D10*
%TO.C,TP16*%
X130500000Y-94500000D03*
%TD*%
%TO.C,TP14*%
X135500000Y-110000000D03*
%TD*%
D17*
%TO.C,C6*%
X68000000Y-57250000D03*
X68000000Y-53750000D03*
%TD*%
M02*
