%TF.GenerationSoftware,KiCad,Pcbnew,8.0.8*%
%TF.CreationDate,2025-04-21T11:41:09+05:30*%
%TF.ProjectId,bandara_ckt_pcb_naveen,62616e64-6172-4615-9f63-6b745f706362,v1*%
%TF.SameCoordinates,Original*%
%TF.FileFunction,Copper,L2,Bot*%
%TF.FilePolarity,Positive*%
%FSLAX46Y46*%
G04 Gerber Fmt 4.6, Leading zero omitted, Abs format (unit mm)*
G04 Created by KiCad (PCBNEW 8.0.8) date 2025-04-21 11:41:09*
%MOMM*%
%LPD*%
G01*
G04 APERTURE LIST*
%TA.AperFunction,ComponentPad*%
%ADD10C,2.000000*%
%TD*%
%TA.AperFunction,ComponentPad*%
%ADD11R,1.600000X1.600000*%
%TD*%
%TA.AperFunction,ComponentPad*%
%ADD12O,1.600000X1.600000*%
%TD*%
%TA.AperFunction,ComponentPad*%
%ADD13R,1.524000X1.524000*%
%TD*%
%TA.AperFunction,ComponentPad*%
%ADD14C,1.524000*%
%TD*%
%TA.AperFunction,ComponentPad*%
%ADD15C,1.600000*%
%TD*%
%TA.AperFunction,ComponentPad*%
%ADD16R,1.950000X1.950000*%
%TD*%
%TA.AperFunction,ComponentPad*%
%ADD17C,1.950000*%
%TD*%
%TA.AperFunction,ViaPad*%
%ADD18C,0.700000*%
%TD*%
%TA.AperFunction,Conductor*%
%ADD19C,0.200000*%
%TD*%
G04 APERTURE END LIST*
D10*
%TO.P,TP14,1,1*%
%TO.N,+VSW*%
X128600000Y-76600000D03*
%TD*%
%TO.P,TP12,1,1*%
%TO.N,Net-(J1-Pin_2)*%
X127300000Y-58500000D03*
%TD*%
%TO.P,TP4,1,1*%
%TO.N,Net-(U1-VOUT)*%
X84200000Y-51700000D03*
%TD*%
%TO.P,TP2,1,1*%
%TO.N,+5V*%
X75000000Y-57200000D03*
%TD*%
%TO.P,TP9,1,1*%
%TO.N,+VSW*%
X103500000Y-48900000D03*
%TD*%
%TO.P,TP8,1,1*%
%TO.N,Net-(J1-Pin_1)*%
X109400000Y-51900000D03*
%TD*%
%TO.P,TP7,1,1*%
%TO.N,Net-(U2-AIN0)*%
X117500000Y-110600000D03*
%TD*%
%TO.P,TP6,1,1*%
%TO.N,-VSW*%
X88600000Y-54200000D03*
%TD*%
%TO.P,TP3,1,1*%
%TO.N,+3.3V*%
X71300000Y-57300000D03*
%TD*%
%TO.P,TP16,1,1*%
%TO.N,-VSW*%
X122200000Y-85500000D03*
%TD*%
D11*
%TO.P,A1,1,NC*%
%TO.N,unconnected-(A1-NC-Pad1)*%
X74790000Y-62170000D03*
D12*
%TO.P,A1,2,IOREF*%
%TO.N,unconnected-(A1-IOREF-Pad2)*%
X77330000Y-62170000D03*
%TO.P,A1,3,~{RESET}*%
%TO.N,unconnected-(A1-~{RESET}-Pad3)*%
X79870000Y-62170000D03*
%TO.P,A1,4,3V3*%
%TO.N,+3.3V*%
X82410000Y-62170000D03*
%TO.P,A1,5,+5V*%
%TO.N,+5V*%
X84950000Y-62170000D03*
%TO.P,A1,6,GND*%
%TO.N,GND*%
X87490000Y-62170000D03*
%TO.P,A1,7,GND*%
X90030000Y-62170000D03*
%TO.P,A1,8,VIN*%
%TO.N,unconnected-(A1-VIN-Pad8)*%
X92570000Y-62170000D03*
%TO.P,A1,9,A0*%
%TO.N,unconnected-(A1-A0-Pad9)*%
X97650000Y-62170000D03*
%TO.P,A1,10,A1*%
%TO.N,unconnected-(A1-A1-Pad10)*%
X100190000Y-62170000D03*
%TO.P,A1,11,A2*%
%TO.N,unconnected-(A1-A2-Pad11)*%
X102730000Y-62170000D03*
%TO.P,A1,12,A3*%
%TO.N,unconnected-(A1-A3-Pad12)*%
X105270000Y-62170000D03*
%TO.P,A1,13,SDA/A4*%
%TO.N,Net-(U1-SDA)*%
X107810000Y-62170000D03*
%TO.P,A1,14,SCL/A5*%
%TO.N,Net-(U1-SCL)*%
X110350000Y-62170000D03*
%TO.P,A1,15,D0/RX*%
%TO.N,unconnected-(A1-D0{slash}RX-Pad15)*%
X110350000Y-110430000D03*
%TO.P,A1,16,D1/TX*%
%TO.N,unconnected-(A1-D1{slash}TX-Pad16)*%
X107810000Y-110430000D03*
%TO.P,A1,17,D2*%
%TO.N,unconnected-(A1-D2-Pad17)*%
X105270000Y-110430000D03*
%TO.P,A1,18,D3*%
%TO.N,unconnected-(A1-D3-Pad18)*%
X102730000Y-110430000D03*
%TO.P,A1,19,D4*%
%TO.N,unconnected-(A1-D4-Pad19)*%
X100190000Y-110430000D03*
%TO.P,A1,20,D5*%
%TO.N,unconnected-(A1-D5-Pad20)*%
X97650000Y-110430000D03*
%TO.P,A1,21,D6*%
%TO.N,unconnected-(A1-D6-Pad21)*%
X95110000Y-110430000D03*
%TO.P,A1,22,D7*%
%TO.N,unconnected-(A1-D7-Pad22)*%
X92570000Y-110430000D03*
%TO.P,A1,23,D8*%
%TO.N,unconnected-(A1-D8-Pad23)*%
X88510000Y-110430000D03*
%TO.P,A1,24,D9*%
%TO.N,unconnected-(A1-D9-Pad24)*%
X85970000Y-110430000D03*
%TO.P,A1,25,D10*%
%TO.N,unconnected-(A1-D10-Pad25)*%
X83430000Y-110430000D03*
%TO.P,A1,26,D11*%
%TO.N,unconnected-(A1-D11-Pad26)*%
X80890000Y-110430000D03*
%TO.P,A1,27,D12*%
%TO.N,unconnected-(A1-D12-Pad27)*%
X78350000Y-110430000D03*
%TO.P,A1,28,D13*%
%TO.N,unconnected-(A1-D13-Pad28)*%
X75810000Y-110430000D03*
%TO.P,A1,29,GND*%
%TO.N,GND*%
X73270000Y-110430000D03*
%TO.P,A1,30,AREF*%
%TO.N,unconnected-(A1-AREF-Pad30)*%
X70730000Y-110430000D03*
%TO.P,A1,31,SDA/A4*%
%TO.N,Net-(U2-SDA)*%
X68190000Y-110430000D03*
%TO.P,A1,32,SCL/A5*%
%TO.N,Net-(U2-SCL)*%
X65650000Y-110430000D03*
%TD*%
D10*
%TO.P,TP15,1,1*%
%TO.N,Net-(U5-Vout)*%
X125100000Y-76500000D03*
%TD*%
%TO.P,TP13,1,1*%
%TO.N,-VSW*%
X122000000Y-60600000D03*
%TD*%
%TO.P,TP5,1,1*%
%TO.N,+VSW*%
X71200000Y-52300000D03*
%TD*%
D13*
%TO.P,U6,1,NULL*%
%TO.N,unconnected-(U6-NULL-Pad1)*%
X129410000Y-88390000D03*
D14*
%TO.P,U6,2,-IN*%
%TO.N,Net-(U6--IN)*%
X126870000Y-88390000D03*
%TO.P,U6,3,+IN*%
%TO.N,GND*%
X124330000Y-88390000D03*
%TO.P,U6,4,-Vs*%
%TO.N,-VSW*%
X121790000Y-88390000D03*
%TO.P,U6,5,NULL*%
%TO.N,unconnected-(U6-NULL-Pad5)*%
X121790000Y-96010000D03*
%TO.P,U6,6,Vout*%
%TO.N,Net-(U6-Vout)*%
X124330000Y-96010000D03*
%TO.P,U6,7,+Vs*%
%TO.N,+VSW*%
X126870000Y-96010000D03*
%TO.P,U6,8,NC*%
%TO.N,unconnected-(U6-NC-Pad8)*%
X129410000Y-96010000D03*
%TD*%
D10*
%TO.P,TP11,1,1*%
%TO.N,+5V*%
X51900000Y-46300000D03*
%TD*%
%TO.P,TP10,1,1*%
%TO.N,-VSW*%
X44500000Y-59300000D03*
%TD*%
%TO.P,TP17,1,1*%
%TO.N,+VSW*%
X127400000Y-99000000D03*
%TD*%
D15*
%TO.P,C8,1*%
%TO.N,-VSW*%
X48600000Y-55050000D03*
%TO.P,C8,2*%
%TO.N,GND*%
X48600000Y-51550000D03*
%TD*%
D13*
%TO.P,U3,1,NULL*%
%TO.N,unconnected-(U3-NULL-Pad1)*%
X92390000Y-46390000D03*
D14*
%TO.P,U3,2,-IN*%
%TO.N,Net-(U3--IN)*%
X92390000Y-48930000D03*
%TO.P,U3,3,+IN*%
%TO.N,Net-(U1-VOUT)*%
X92390000Y-51470000D03*
%TO.P,U3,4,-Vs*%
%TO.N,-VSW*%
X92390000Y-54010000D03*
%TO.P,U3,5,NULL*%
%TO.N,unconnected-(U3-NULL-Pad5)*%
X100010000Y-54010000D03*
%TO.P,U3,6,Vout*%
%TO.N,Net-(J1-Pin_1)*%
X100010000Y-51470000D03*
%TO.P,U3,7,+Vs*%
%TO.N,+VSW*%
X100010000Y-48930000D03*
%TO.P,U3,8,NC*%
%TO.N,unconnected-(U3-NC-Pad8)*%
X100010000Y-46390000D03*
%TD*%
D10*
%TO.P,TP18,1,1*%
%TO.N,Net-(U6-Vout)*%
X124100000Y-99100000D03*
%TD*%
D13*
%TO.P,U5,1,NULL*%
%TO.N,unconnected-(U5-NULL-Pad1)*%
X130110000Y-65090000D03*
D14*
%TO.P,U5,2,-IN*%
%TO.N,Net-(J1-Pin_2)*%
X127570000Y-65090000D03*
%TO.P,U5,3,+IN*%
%TO.N,GND*%
X125030000Y-65090000D03*
%TO.P,U5,4,-Vs*%
%TO.N,-VSW*%
X122490000Y-65090000D03*
%TO.P,U5,5,NULL*%
%TO.N,unconnected-(U5-NULL-Pad5)*%
X122490000Y-72710000D03*
%TO.P,U5,6,Vout*%
%TO.N,Net-(U5-Vout)*%
X125030000Y-72710000D03*
%TO.P,U5,7,+Vs*%
%TO.N,+VSW*%
X127570000Y-72710000D03*
%TO.P,U5,8,NC*%
%TO.N,unconnected-(U5-NC-Pad8)*%
X130110000Y-72710000D03*
%TD*%
D16*
%TO.P,J1,1,Pin_1*%
%TO.N,Net-(J1-Pin_1)*%
X118152500Y-50300000D03*
D17*
%TO.P,J1,2,Pin_2*%
%TO.N,Net-(J1-Pin_2)*%
X123152500Y-50300000D03*
%TD*%
D10*
%TO.P,TP1,1,1*%
%TO.N,GND*%
X78500000Y-57200000D03*
%TD*%
D18*
%TO.N,GND*%
X122500000Y-113700000D03*
X118500000Y-114400000D03*
X133000000Y-89600000D03*
X80400000Y-50700000D03*
X116900000Y-66900000D03*
X84400000Y-56200000D03*
%TO.N,+3.3V*%
X82100000Y-49700000D03*
%TO.N,+5V*%
X69700000Y-43200000D03*
X64800000Y-47700000D03*
%TO.N,Net-(U1-SCL)*%
X80100000Y-44900000D03*
%TO.N,Net-(U1-VOUT)*%
X86500000Y-57300000D03*
%TO.N,+VSW*%
X127400000Y-70200000D03*
%TO.N,Net-(U3--IN)*%
X102200000Y-56000000D03*
%TD*%
D19*
%TO.N,Net-(U1-VOUT)*%
X86500000Y-54000000D02*
X86500000Y-57300000D01*
X84200000Y-51700000D02*
X86500000Y-54000000D01*
%TO.N,GND*%
X81400000Y-51700000D02*
X80400000Y-50700000D01*
X125030000Y-65090000D02*
X128050000Y-68110000D01*
X121800000Y-114400000D02*
X122500000Y-113700000D01*
X81400000Y-53200000D02*
X81400000Y-51700000D01*
X128050000Y-70650000D02*
X127850000Y-70850000D01*
X128050000Y-68110000D02*
X128050000Y-70650000D01*
X133000000Y-89600000D02*
X125540000Y-89600000D01*
X90030000Y-62170000D02*
X90030000Y-93670000D01*
X90030000Y-93670000D02*
X73270000Y-110430000D01*
X118500000Y-114400000D02*
X121800000Y-114400000D01*
X87490000Y-62170000D02*
X90030000Y-62170000D01*
X125540000Y-89600000D02*
X124330000Y-88390000D01*
X84400000Y-56200000D02*
X81400000Y-53200000D01*
X120850000Y-70850000D02*
X116900000Y-66900000D01*
X127850000Y-70850000D02*
X120850000Y-70850000D01*
%TO.N,+5V*%
X69300000Y-43200000D02*
X69700000Y-43200000D01*
X64800000Y-47700000D02*
X69300000Y-43200000D01*
%TO.N,Net-(U1-SCL)*%
X87900000Y-52700000D02*
X80100000Y-44900000D01*
X100880000Y-52700000D02*
X87900000Y-52700000D01*
X110350000Y-62170000D02*
X100880000Y-52700000D01*
%TO.N,+VSW*%
X124800000Y-70200000D02*
X127400000Y-70200000D01*
X103500000Y-48900000D02*
X124800000Y-70200000D01*
%TO.N,Net-(U3--IN)*%
X106710000Y-60510000D02*
X102200000Y-56000000D01*
X111450000Y-61408105D02*
X111450000Y-62625635D01*
X110805635Y-63270000D02*
X107354365Y-63270000D01*
X92390000Y-48930000D02*
X93868000Y-50408000D01*
X111450000Y-62625635D02*
X110805635Y-63270000D01*
X106710000Y-62625635D02*
X106710000Y-60510000D01*
X100449895Y-50408000D02*
X111450000Y-61408105D01*
X107354365Y-63270000D02*
X106710000Y-62625635D01*
X93868000Y-50408000D02*
X100449895Y-50408000D01*
%TO.N,+3.3V*%
X78900000Y-49700000D02*
X71300000Y-57300000D01*
X82100000Y-49700000D02*
X78900000Y-49700000D01*
%TD*%
%TA.AperFunction,Conductor*%
%TO.N,-VSW*%
G36*
X123541741Y-65788188D02*
G01*
X123587094Y-65723417D01*
X123587095Y-65723416D01*
X123647340Y-65594219D01*
X123693512Y-65541780D01*
X123760706Y-65522627D01*
X123827587Y-65542842D01*
X123872105Y-65594218D01*
X123932466Y-65723662D01*
X123932468Y-65723666D01*
X124059170Y-65904615D01*
X124059175Y-65904621D01*
X124215378Y-66060824D01*
X124215384Y-66060829D01*
X124396333Y-66187531D01*
X124396335Y-66187532D01*
X124396338Y-66187534D01*
X124596550Y-66280894D01*
X124809932Y-66338070D01*
X124956743Y-66350914D01*
X125029998Y-66357323D01*
X125030000Y-66357323D01*
X125030002Y-66357323D01*
X125060502Y-66354654D01*
X125250068Y-66338070D01*
X125251916Y-66337575D01*
X125260253Y-66335340D01*
X125321903Y-66318821D01*
X125391752Y-66320482D01*
X125441679Y-66350914D01*
X127413181Y-68322416D01*
X127446666Y-68383739D01*
X127449500Y-68410097D01*
X127449500Y-69225500D01*
X127429815Y-69292539D01*
X127377011Y-69338294D01*
X127325500Y-69349500D01*
X127310609Y-69349500D01*
X127279954Y-69356015D01*
X127135733Y-69386670D01*
X127135728Y-69386672D01*
X126972408Y-69459387D01*
X126827772Y-69564472D01*
X126824245Y-69567649D01*
X126761253Y-69597879D01*
X126741271Y-69599500D01*
X125100097Y-69599500D01*
X125033058Y-69579815D01*
X125012416Y-69563181D01*
X121937173Y-66487938D01*
X121903688Y-66426615D01*
X121908672Y-66356923D01*
X121950544Y-66300990D01*
X122016008Y-66276573D01*
X122056948Y-66280482D01*
X122270017Y-66337574D01*
X122270023Y-66337575D01*
X122489999Y-66356821D01*
X122490001Y-66356821D01*
X122709976Y-66337575D01*
X122709986Y-66337573D01*
X122923270Y-66280424D01*
X122923284Y-66280419D01*
X123123407Y-66187100D01*
X123123417Y-66187094D01*
X123188188Y-66141741D01*
X122542846Y-65496400D01*
X122543504Y-65496400D01*
X122646865Y-65468705D01*
X122739536Y-65415201D01*
X122815201Y-65339536D01*
X122868705Y-65246865D01*
X122896400Y-65143504D01*
X122896400Y-65142847D01*
X123541741Y-65788188D01*
G37*
%TD.AperFunction*%
%TA.AperFunction,Conductor*%
G36*
X135342539Y-39520185D02*
G01*
X135388294Y-39572989D01*
X135399500Y-39624500D01*
X135399500Y-119475500D01*
X135379815Y-119542539D01*
X135327011Y-119588294D01*
X135275500Y-119599500D01*
X37724500Y-119599500D01*
X37657461Y-119579815D01*
X37611706Y-119527011D01*
X37600500Y-119475500D01*
X37600500Y-114400000D01*
X117644815Y-114400000D01*
X117663503Y-114577805D01*
X117663504Y-114577807D01*
X117718747Y-114747829D01*
X117718750Y-114747835D01*
X117808141Y-114902665D01*
X117833329Y-114930639D01*
X117927764Y-115035521D01*
X117927767Y-115035523D01*
X117927770Y-115035526D01*
X118072407Y-115140612D01*
X118235733Y-115213329D01*
X118410609Y-115250500D01*
X118410610Y-115250500D01*
X118589389Y-115250500D01*
X118589391Y-115250500D01*
X118764267Y-115213329D01*
X118927593Y-115140612D01*
X119072230Y-115035526D01*
X119072238Y-115035517D01*
X119075755Y-115032351D01*
X119138747Y-115002121D01*
X119158729Y-115000500D01*
X121713331Y-115000500D01*
X121713347Y-115000501D01*
X121720943Y-115000501D01*
X121879054Y-115000501D01*
X121879057Y-115000501D01*
X122031785Y-114959577D01*
X122081904Y-114930639D01*
X122168716Y-114880520D01*
X122280520Y-114768716D01*
X122280521Y-114768713D01*
X122462417Y-114586816D01*
X122523740Y-114553334D01*
X122550097Y-114550500D01*
X122589389Y-114550500D01*
X122589391Y-114550500D01*
X122764267Y-114513329D01*
X122927593Y-114440612D01*
X123072230Y-114335526D01*
X123191859Y-114202665D01*
X123281250Y-114047835D01*
X123336497Y-113877803D01*
X123355185Y-113700000D01*
X123336497Y-113522197D01*
X123281250Y-113352165D01*
X123191859Y-113197335D01*
X123145003Y-113145296D01*
X123072235Y-113064478D01*
X123072232Y-113064476D01*
X123072231Y-113064475D01*
X123072230Y-113064474D01*
X122927593Y-112959388D01*
X122764267Y-112886671D01*
X122764265Y-112886670D01*
X122636594Y-112859533D01*
X122589391Y-112849500D01*
X122410609Y-112849500D01*
X122379954Y-112856015D01*
X122235733Y-112886670D01*
X122235728Y-112886672D01*
X122072408Y-112959387D01*
X121927768Y-113064475D01*
X121808140Y-113197336D01*
X121718750Y-113352164D01*
X121718747Y-113352170D01*
X121663504Y-113522192D01*
X121663503Y-113522194D01*
X121663503Y-113522197D01*
X121648706Y-113662979D01*
X121622122Y-113727591D01*
X121613069Y-113737695D01*
X121587585Y-113763180D01*
X121526262Y-113796666D01*
X121499902Y-113799500D01*
X119158729Y-113799500D01*
X119091690Y-113779815D01*
X119075755Y-113767649D01*
X119072233Y-113764477D01*
X119072230Y-113764474D01*
X118927593Y-113659388D01*
X118764267Y-113586671D01*
X118764265Y-113586670D01*
X118636594Y-113559533D01*
X118589391Y-113549500D01*
X118410609Y-113549500D01*
X118379954Y-113556015D01*
X118235733Y-113586670D01*
X118235728Y-113586672D01*
X118072408Y-113659387D01*
X117927768Y-113764475D01*
X117808140Y-113897336D01*
X117718750Y-114052164D01*
X117718747Y-114052170D01*
X117663504Y-114222192D01*
X117663503Y-114222194D01*
X117644815Y-114400000D01*
X37600500Y-114400000D01*
X37600500Y-110429998D01*
X64344532Y-110429998D01*
X64344532Y-110430001D01*
X64364364Y-110656686D01*
X64364366Y-110656697D01*
X64423258Y-110876488D01*
X64423261Y-110876497D01*
X64519431Y-111082732D01*
X64519432Y-111082734D01*
X64649954Y-111269141D01*
X64810858Y-111430045D01*
X64810861Y-111430047D01*
X64997266Y-111560568D01*
X65203504Y-111656739D01*
X65423308Y-111715635D01*
X65585230Y-111729801D01*
X65649998Y-111735468D01*
X65650000Y-111735468D01*
X65650002Y-111735468D01*
X65706673Y-111730509D01*
X65876692Y-111715635D01*
X66096496Y-111656739D01*
X66302734Y-111560568D01*
X66489139Y-111430047D01*
X66650047Y-111269139D01*
X66780568Y-111082734D01*
X66807618Y-111024724D01*
X66853790Y-110972285D01*
X66920983Y-110953133D01*
X66987865Y-110973348D01*
X67032382Y-111024725D01*
X67059429Y-111082728D01*
X67059432Y-111082734D01*
X67189954Y-111269141D01*
X67350858Y-111430045D01*
X67350861Y-111430047D01*
X67537266Y-111560568D01*
X67743504Y-111656739D01*
X67963308Y-111715635D01*
X68125230Y-111729801D01*
X68189998Y-111735468D01*
X68190000Y-111735468D01*
X68190002Y-111735468D01*
X68246673Y-111730509D01*
X68416692Y-111715635D01*
X68636496Y-111656739D01*
X68842734Y-111560568D01*
X69029139Y-111430047D01*
X69190047Y-111269139D01*
X69320568Y-111082734D01*
X69347618Y-111024724D01*
X69393790Y-110972285D01*
X69460983Y-110953133D01*
X69527865Y-110973348D01*
X69572382Y-111024725D01*
X69599429Y-111082728D01*
X69599432Y-111082734D01*
X69729954Y-111269141D01*
X69890858Y-111430045D01*
X69890861Y-111430047D01*
X70077266Y-111560568D01*
X70283504Y-111656739D01*
X70503308Y-111715635D01*
X70665230Y-111729801D01*
X70729998Y-111735468D01*
X70730000Y-111735468D01*
X70730002Y-111735468D01*
X70786673Y-111730509D01*
X70956692Y-111715635D01*
X71176496Y-111656739D01*
X71382734Y-111560568D01*
X71569139Y-111430047D01*
X71730047Y-111269139D01*
X71860568Y-111082734D01*
X71887618Y-111024724D01*
X71933790Y-110972285D01*
X72000983Y-110953133D01*
X72067865Y-110973348D01*
X72112382Y-111024725D01*
X72139429Y-111082728D01*
X72139432Y-111082734D01*
X72269954Y-111269141D01*
X72430858Y-111430045D01*
X72430861Y-111430047D01*
X72617266Y-111560568D01*
X72823504Y-111656739D01*
X73043308Y-111715635D01*
X73205230Y-111729801D01*
X73269998Y-111735468D01*
X73270000Y-111735468D01*
X73270002Y-111735468D01*
X73326673Y-111730509D01*
X73496692Y-111715635D01*
X73716496Y-111656739D01*
X73922734Y-111560568D01*
X74109139Y-111430047D01*
X74270047Y-111269139D01*
X74400568Y-111082734D01*
X74427618Y-111024724D01*
X74473790Y-110972285D01*
X74540983Y-110953133D01*
X74607865Y-110973348D01*
X74652382Y-111024725D01*
X74679429Y-111082728D01*
X74679432Y-111082734D01*
X74809954Y-111269141D01*
X74970858Y-111430045D01*
X74970861Y-111430047D01*
X75157266Y-111560568D01*
X75363504Y-111656739D01*
X75583308Y-111715635D01*
X75745230Y-111729801D01*
X75809998Y-111735468D01*
X75810000Y-111735468D01*
X75810002Y-111735468D01*
X75866673Y-111730509D01*
X76036692Y-111715635D01*
X76256496Y-111656739D01*
X76462734Y-111560568D01*
X76649139Y-111430047D01*
X76810047Y-111269139D01*
X76940568Y-111082734D01*
X76967618Y-111024724D01*
X77013790Y-110972285D01*
X77080983Y-110953133D01*
X77147865Y-110973348D01*
X77192382Y-111024725D01*
X77219429Y-111082728D01*
X77219432Y-111082734D01*
X77349954Y-111269141D01*
X77510858Y-111430045D01*
X77510861Y-111430047D01*
X77697266Y-111560568D01*
X77903504Y-111656739D01*
X78123308Y-111715635D01*
X78285230Y-111729801D01*
X78349998Y-111735468D01*
X78350000Y-111735468D01*
X78350002Y-111735468D01*
X78406673Y-111730509D01*
X78576692Y-111715635D01*
X78796496Y-111656739D01*
X79002734Y-111560568D01*
X79189139Y-111430047D01*
X79350047Y-111269139D01*
X79480568Y-111082734D01*
X79507618Y-111024724D01*
X79553790Y-110972285D01*
X79620983Y-110953133D01*
X79687865Y-110973348D01*
X79732382Y-111024725D01*
X79759429Y-111082728D01*
X79759432Y-111082734D01*
X79889954Y-111269141D01*
X80050858Y-111430045D01*
X80050861Y-111430047D01*
X80237266Y-111560568D01*
X80443504Y-111656739D01*
X80663308Y-111715635D01*
X80825230Y-111729801D01*
X80889998Y-111735468D01*
X80890000Y-111735468D01*
X80890002Y-111735468D01*
X80946673Y-111730509D01*
X81116692Y-111715635D01*
X81336496Y-111656739D01*
X81542734Y-111560568D01*
X81729139Y-111430047D01*
X81890047Y-111269139D01*
X82020568Y-111082734D01*
X82047618Y-111024724D01*
X82093790Y-110972285D01*
X82160983Y-110953133D01*
X82227865Y-110973348D01*
X82272382Y-111024725D01*
X82299429Y-111082728D01*
X82299432Y-111082734D01*
X82429954Y-111269141D01*
X82590858Y-111430045D01*
X82590861Y-111430047D01*
X82777266Y-111560568D01*
X82983504Y-111656739D01*
X83203308Y-111715635D01*
X83365230Y-111729801D01*
X83429998Y-111735468D01*
X83430000Y-111735468D01*
X83430002Y-111735468D01*
X83486673Y-111730509D01*
X83656692Y-111715635D01*
X83876496Y-111656739D01*
X84082734Y-111560568D01*
X84269139Y-111430047D01*
X84430047Y-111269139D01*
X84560568Y-111082734D01*
X84587618Y-111024724D01*
X84633790Y-110972285D01*
X84700983Y-110953133D01*
X84767865Y-110973348D01*
X84812382Y-111024725D01*
X84839429Y-111082728D01*
X84839432Y-111082734D01*
X84969954Y-111269141D01*
X85130858Y-111430045D01*
X85130861Y-111430047D01*
X85317266Y-111560568D01*
X85523504Y-111656739D01*
X85743308Y-111715635D01*
X85905230Y-111729801D01*
X85969998Y-111735468D01*
X85970000Y-111735468D01*
X85970002Y-111735468D01*
X86026673Y-111730509D01*
X86196692Y-111715635D01*
X86416496Y-111656739D01*
X86622734Y-111560568D01*
X86809139Y-111430047D01*
X86970047Y-111269139D01*
X87100568Y-111082734D01*
X87127618Y-111024724D01*
X87173790Y-110972285D01*
X87240983Y-110953133D01*
X87307865Y-110973348D01*
X87352382Y-111024725D01*
X87379429Y-111082728D01*
X87379432Y-111082734D01*
X87509954Y-111269141D01*
X87670858Y-111430045D01*
X87670861Y-111430047D01*
X87857266Y-111560568D01*
X88063504Y-111656739D01*
X88283308Y-111715635D01*
X88445230Y-111729801D01*
X88509998Y-111735468D01*
X88510000Y-111735468D01*
X88510002Y-111735468D01*
X88566673Y-111730509D01*
X88736692Y-111715635D01*
X88956496Y-111656739D01*
X89162734Y-111560568D01*
X89349139Y-111430047D01*
X89510047Y-111269139D01*
X89640568Y-111082734D01*
X89736739Y-110876496D01*
X89795635Y-110656692D01*
X89815468Y-110430000D01*
X89815468Y-110429998D01*
X91264532Y-110429998D01*
X91264532Y-110430001D01*
X91284364Y-110656686D01*
X91284366Y-110656697D01*
X91343258Y-110876488D01*
X91343261Y-110876497D01*
X91439431Y-111082732D01*
X91439432Y-111082734D01*
X91569954Y-111269141D01*
X91730858Y-111430045D01*
X91730861Y-111430047D01*
X91917266Y-111560568D01*
X92123504Y-111656739D01*
X92343308Y-111715635D01*
X92505230Y-111729801D01*
X92569998Y-111735468D01*
X92570000Y-111735468D01*
X92570002Y-111735468D01*
X92626673Y-111730509D01*
X92796692Y-111715635D01*
X93016496Y-111656739D01*
X93222734Y-111560568D01*
X93409139Y-111430047D01*
X93570047Y-111269139D01*
X93700568Y-111082734D01*
X93727618Y-111024724D01*
X93773790Y-110972285D01*
X93840983Y-110953133D01*
X93907865Y-110973348D01*
X93952382Y-111024725D01*
X93979429Y-111082728D01*
X93979432Y-111082734D01*
X94109954Y-111269141D01*
X94270858Y-111430045D01*
X94270861Y-111430047D01*
X94457266Y-111560568D01*
X94663504Y-111656739D01*
X94883308Y-111715635D01*
X95045230Y-111729801D01*
X95109998Y-111735468D01*
X95110000Y-111735468D01*
X95110002Y-111735468D01*
X95166673Y-111730509D01*
X95336692Y-111715635D01*
X95556496Y-111656739D01*
X95762734Y-111560568D01*
X95949139Y-111430047D01*
X96110047Y-111269139D01*
X96240568Y-111082734D01*
X96267618Y-111024724D01*
X96313790Y-110972285D01*
X96380983Y-110953133D01*
X96447865Y-110973348D01*
X96492382Y-111024725D01*
X96519429Y-111082728D01*
X96519432Y-111082734D01*
X96649954Y-111269141D01*
X96810858Y-111430045D01*
X96810861Y-111430047D01*
X96997266Y-111560568D01*
X97203504Y-111656739D01*
X97423308Y-111715635D01*
X97585230Y-111729801D01*
X97649998Y-111735468D01*
X97650000Y-111735468D01*
X97650002Y-111735468D01*
X97706673Y-111730509D01*
X97876692Y-111715635D01*
X98096496Y-111656739D01*
X98302734Y-111560568D01*
X98489139Y-111430047D01*
X98650047Y-111269139D01*
X98780568Y-111082734D01*
X98807618Y-111024724D01*
X98853790Y-110972285D01*
X98920983Y-110953133D01*
X98987865Y-110973348D01*
X99032382Y-111024725D01*
X99059429Y-111082728D01*
X99059432Y-111082734D01*
X99189954Y-111269141D01*
X99350858Y-111430045D01*
X99350861Y-111430047D01*
X99537266Y-111560568D01*
X99743504Y-111656739D01*
X99963308Y-111715635D01*
X100125230Y-111729801D01*
X100189998Y-111735468D01*
X100190000Y-111735468D01*
X100190002Y-111735468D01*
X100246673Y-111730509D01*
X100416692Y-111715635D01*
X100636496Y-111656739D01*
X100842734Y-111560568D01*
X101029139Y-111430047D01*
X101190047Y-111269139D01*
X101320568Y-111082734D01*
X101347618Y-111024724D01*
X101393790Y-110972285D01*
X101460983Y-110953133D01*
X101527865Y-110973348D01*
X101572382Y-111024725D01*
X101599429Y-111082728D01*
X101599432Y-111082734D01*
X101729954Y-111269141D01*
X101890858Y-111430045D01*
X101890861Y-111430047D01*
X102077266Y-111560568D01*
X102283504Y-111656739D01*
X102503308Y-111715635D01*
X102665230Y-111729801D01*
X102729998Y-111735468D01*
X102730000Y-111735468D01*
X102730002Y-111735468D01*
X102786673Y-111730509D01*
X102956692Y-111715635D01*
X103176496Y-111656739D01*
X103382734Y-111560568D01*
X103569139Y-111430047D01*
X103730047Y-111269139D01*
X103860568Y-111082734D01*
X103887618Y-111024724D01*
X103933790Y-110972285D01*
X104000983Y-110953133D01*
X104067865Y-110973348D01*
X104112382Y-111024725D01*
X104139429Y-111082728D01*
X104139432Y-111082734D01*
X104269954Y-111269141D01*
X104430858Y-111430045D01*
X104430861Y-111430047D01*
X104617266Y-111560568D01*
X104823504Y-111656739D01*
X105043308Y-111715635D01*
X105205230Y-111729801D01*
X105269998Y-111735468D01*
X105270000Y-111735468D01*
X105270002Y-111735468D01*
X105326673Y-111730509D01*
X105496692Y-111715635D01*
X105716496Y-111656739D01*
X105922734Y-111560568D01*
X106109139Y-111430047D01*
X106270047Y-111269139D01*
X106400568Y-111082734D01*
X106427618Y-111024724D01*
X106473790Y-110972285D01*
X106540983Y-110953133D01*
X106607865Y-110973348D01*
X106652382Y-111024725D01*
X106679429Y-111082728D01*
X106679432Y-111082734D01*
X106809954Y-111269141D01*
X106970858Y-111430045D01*
X106970861Y-111430047D01*
X107157266Y-111560568D01*
X107363504Y-111656739D01*
X107583308Y-111715635D01*
X107745230Y-111729801D01*
X107809998Y-111735468D01*
X107810000Y-111735468D01*
X107810002Y-111735468D01*
X107866673Y-111730509D01*
X108036692Y-111715635D01*
X108256496Y-111656739D01*
X108462734Y-111560568D01*
X108649139Y-111430047D01*
X108810047Y-111269139D01*
X108940568Y-111082734D01*
X108967618Y-111024724D01*
X109013790Y-110972285D01*
X109080983Y-110953133D01*
X109147865Y-110973348D01*
X109192382Y-111024725D01*
X109219429Y-111082728D01*
X109219432Y-111082734D01*
X109349954Y-111269141D01*
X109510858Y-111430045D01*
X109510861Y-111430047D01*
X109697266Y-111560568D01*
X109903504Y-111656739D01*
X110123308Y-111715635D01*
X110285230Y-111729801D01*
X110349998Y-111735468D01*
X110350000Y-111735468D01*
X110350002Y-111735468D01*
X110406673Y-111730509D01*
X110576692Y-111715635D01*
X110796496Y-111656739D01*
X111002734Y-111560568D01*
X111189139Y-111430047D01*
X111350047Y-111269139D01*
X111480568Y-111082734D01*
X111576739Y-110876496D01*
X111635635Y-110656692D01*
X111640595Y-110599994D01*
X115994357Y-110599994D01*
X115994357Y-110600005D01*
X116014890Y-110847812D01*
X116014892Y-110847824D01*
X116075936Y-111088881D01*
X116175826Y-111316606D01*
X116311833Y-111524782D01*
X116311836Y-111524785D01*
X116480256Y-111707738D01*
X116676491Y-111860474D01*
X116895190Y-111978828D01*
X117130386Y-112059571D01*
X117375665Y-112100500D01*
X117624335Y-112100500D01*
X117869614Y-112059571D01*
X118104810Y-111978828D01*
X118323509Y-111860474D01*
X118519744Y-111707738D01*
X118688164Y-111524785D01*
X118824173Y-111316607D01*
X118924063Y-111088881D01*
X118985108Y-110847821D01*
X118985109Y-110847812D01*
X119005643Y-110600005D01*
X119005643Y-110599994D01*
X118985109Y-110352187D01*
X118985107Y-110352175D01*
X118924063Y-110111118D01*
X118824173Y-109883393D01*
X118688166Y-109675217D01*
X118666557Y-109651744D01*
X118519744Y-109492262D01*
X118323509Y-109339526D01*
X118323507Y-109339525D01*
X118323506Y-109339524D01*
X118104811Y-109221172D01*
X118104802Y-109221169D01*
X117869616Y-109140429D01*
X117624335Y-109099500D01*
X117375665Y-109099500D01*
X117130383Y-109140429D01*
X116895197Y-109221169D01*
X116895188Y-109221172D01*
X116676493Y-109339524D01*
X116480257Y-109492261D01*
X116311833Y-109675217D01*
X116175826Y-109883393D01*
X116075936Y-110111118D01*
X116014892Y-110352175D01*
X116014890Y-110352187D01*
X115994357Y-110599994D01*
X111640595Y-110599994D01*
X111655468Y-110430000D01*
X111635635Y-110203308D01*
X111576739Y-109983504D01*
X111480568Y-109777266D01*
X111350047Y-109590861D01*
X111350045Y-109590858D01*
X111189141Y-109429954D01*
X111002734Y-109299432D01*
X111002732Y-109299431D01*
X110796497Y-109203261D01*
X110796488Y-109203258D01*
X110576697Y-109144366D01*
X110576693Y-109144365D01*
X110576692Y-109144365D01*
X110576691Y-109144364D01*
X110576686Y-109144364D01*
X110350002Y-109124532D01*
X110349998Y-109124532D01*
X110123313Y-109144364D01*
X110123302Y-109144366D01*
X109903511Y-109203258D01*
X109903502Y-109203261D01*
X109697267Y-109299431D01*
X109697265Y-109299432D01*
X109510858Y-109429954D01*
X109349954Y-109590858D01*
X109219432Y-109777265D01*
X109219431Y-109777267D01*
X109192382Y-109835275D01*
X109146209Y-109887714D01*
X109079016Y-109906866D01*
X109012135Y-109886650D01*
X108967618Y-109835275D01*
X108940568Y-109777267D01*
X108940567Y-109777265D01*
X108810045Y-109590858D01*
X108649141Y-109429954D01*
X108462734Y-109299432D01*
X108462732Y-109299431D01*
X108256497Y-109203261D01*
X108256488Y-109203258D01*
X108036697Y-109144366D01*
X108036693Y-109144365D01*
X108036692Y-109144365D01*
X108036691Y-109144364D01*
X108036686Y-109144364D01*
X107810002Y-109124532D01*
X107809998Y-109124532D01*
X107583313Y-109144364D01*
X107583302Y-109144366D01*
X107363511Y-109203258D01*
X107363502Y-109203261D01*
X107157267Y-109299431D01*
X107157265Y-109299432D01*
X106970858Y-109429954D01*
X106809954Y-109590858D01*
X106679432Y-109777265D01*
X106679431Y-109777267D01*
X106652382Y-109835275D01*
X106606209Y-109887714D01*
X106539016Y-109906866D01*
X106472135Y-109886650D01*
X106427618Y-109835275D01*
X106400568Y-109777267D01*
X106400567Y-109777265D01*
X106270045Y-109590858D01*
X106109141Y-109429954D01*
X105922734Y-109299432D01*
X105922732Y-109299431D01*
X105716497Y-109203261D01*
X105716488Y-109203258D01*
X105496697Y-109144366D01*
X105496693Y-109144365D01*
X105496692Y-109144365D01*
X105496691Y-109144364D01*
X105496686Y-109144364D01*
X105270002Y-109124532D01*
X105269998Y-109124532D01*
X105043313Y-109144364D01*
X105043302Y-109144366D01*
X104823511Y-109203258D01*
X104823502Y-109203261D01*
X104617267Y-109299431D01*
X104617265Y-109299432D01*
X104430858Y-109429954D01*
X104269954Y-109590858D01*
X104139432Y-109777265D01*
X104139431Y-109777267D01*
X104112382Y-109835275D01*
X104066209Y-109887714D01*
X103999016Y-109906866D01*
X103932135Y-109886650D01*
X103887618Y-109835275D01*
X103860568Y-109777267D01*
X103860567Y-109777265D01*
X103730045Y-109590858D01*
X103569141Y-109429954D01*
X103382734Y-109299432D01*
X103382732Y-109299431D01*
X103176497Y-109203261D01*
X103176488Y-109203258D01*
X102956697Y-109144366D01*
X102956693Y-109144365D01*
X102956692Y-109144365D01*
X102956691Y-109144364D01*
X102956686Y-109144364D01*
X102730002Y-109124532D01*
X102729998Y-109124532D01*
X102503313Y-109144364D01*
X102503302Y-109144366D01*
X102283511Y-109203258D01*
X102283502Y-109203261D01*
X102077267Y-109299431D01*
X102077265Y-109299432D01*
X101890858Y-109429954D01*
X101729954Y-109590858D01*
X101599432Y-109777265D01*
X101599431Y-109777267D01*
X101572382Y-109835275D01*
X101526209Y-109887714D01*
X101459016Y-109906866D01*
X101392135Y-109886650D01*
X101347618Y-109835275D01*
X101320568Y-109777267D01*
X101320567Y-109777265D01*
X101190045Y-109590858D01*
X101029141Y-109429954D01*
X100842734Y-109299432D01*
X100842732Y-109299431D01*
X100636497Y-109203261D01*
X100636488Y-109203258D01*
X100416697Y-109144366D01*
X100416693Y-109144365D01*
X100416692Y-109144365D01*
X100416691Y-109144364D01*
X100416686Y-109144364D01*
X100190002Y-109124532D01*
X100189998Y-109124532D01*
X99963313Y-109144364D01*
X99963302Y-109144366D01*
X99743511Y-109203258D01*
X99743502Y-109203261D01*
X99537267Y-109299431D01*
X99537265Y-109299432D01*
X99350858Y-109429954D01*
X99189954Y-109590858D01*
X99059432Y-109777265D01*
X99059431Y-109777267D01*
X99032382Y-109835275D01*
X98986209Y-109887714D01*
X98919016Y-109906866D01*
X98852135Y-109886650D01*
X98807618Y-109835275D01*
X98780568Y-109777267D01*
X98780567Y-109777265D01*
X98650045Y-109590858D01*
X98489141Y-109429954D01*
X98302734Y-109299432D01*
X98302732Y-109299431D01*
X98096497Y-109203261D01*
X98096488Y-109203258D01*
X97876697Y-109144366D01*
X97876693Y-109144365D01*
X97876692Y-109144365D01*
X97876691Y-109144364D01*
X97876686Y-109144364D01*
X97650002Y-109124532D01*
X97649998Y-109124532D01*
X97423313Y-109144364D01*
X97423302Y-109144366D01*
X97203511Y-109203258D01*
X97203502Y-109203261D01*
X96997267Y-109299431D01*
X96997265Y-109299432D01*
X96810858Y-109429954D01*
X96649954Y-109590858D01*
X96519432Y-109777265D01*
X96519431Y-109777267D01*
X96492382Y-109835275D01*
X96446209Y-109887714D01*
X96379016Y-109906866D01*
X96312135Y-109886650D01*
X96267618Y-109835275D01*
X96240568Y-109777267D01*
X96240567Y-109777265D01*
X96110045Y-109590858D01*
X95949141Y-109429954D01*
X95762734Y-109299432D01*
X95762732Y-109299431D01*
X95556497Y-109203261D01*
X95556488Y-109203258D01*
X95336697Y-109144366D01*
X95336693Y-109144365D01*
X95336692Y-109144365D01*
X95336691Y-109144364D01*
X95336686Y-109144364D01*
X95110002Y-109124532D01*
X95109998Y-109124532D01*
X94883313Y-109144364D01*
X94883302Y-109144366D01*
X94663511Y-109203258D01*
X94663502Y-109203261D01*
X94457267Y-109299431D01*
X94457265Y-109299432D01*
X94270858Y-109429954D01*
X94109954Y-109590858D01*
X93979432Y-109777265D01*
X93979431Y-109777267D01*
X93952382Y-109835275D01*
X93906209Y-109887714D01*
X93839016Y-109906866D01*
X93772135Y-109886650D01*
X93727618Y-109835275D01*
X93700568Y-109777267D01*
X93700567Y-109777265D01*
X93570045Y-109590858D01*
X93409141Y-109429954D01*
X93222734Y-109299432D01*
X93222732Y-109299431D01*
X93016497Y-109203261D01*
X93016488Y-109203258D01*
X92796697Y-109144366D01*
X92796693Y-109144365D01*
X92796692Y-109144365D01*
X92796691Y-109144364D01*
X92796686Y-109144364D01*
X92570002Y-109124532D01*
X92569998Y-109124532D01*
X92343313Y-109144364D01*
X92343302Y-109144366D01*
X92123511Y-109203258D01*
X92123502Y-109203261D01*
X91917267Y-109299431D01*
X91917265Y-109299432D01*
X91730858Y-109429954D01*
X91569954Y-109590858D01*
X91439432Y-109777265D01*
X91439431Y-109777267D01*
X91343261Y-109983502D01*
X91343258Y-109983511D01*
X91284366Y-110203302D01*
X91284364Y-110203313D01*
X91264532Y-110429998D01*
X89815468Y-110429998D01*
X89795635Y-110203308D01*
X89736739Y-109983504D01*
X89640568Y-109777266D01*
X89510047Y-109590861D01*
X89510045Y-109590858D01*
X89349141Y-109429954D01*
X89162734Y-109299432D01*
X89162732Y-109299431D01*
X88956497Y-109203261D01*
X88956488Y-109203258D01*
X88736697Y-109144366D01*
X88736693Y-109144365D01*
X88736692Y-109144365D01*
X88736691Y-109144364D01*
X88736686Y-109144364D01*
X88510002Y-109124532D01*
X88509998Y-109124532D01*
X88283313Y-109144364D01*
X88283302Y-109144366D01*
X88063511Y-109203258D01*
X88063502Y-109203261D01*
X87857267Y-109299431D01*
X87857265Y-109299432D01*
X87670858Y-109429954D01*
X87509954Y-109590858D01*
X87379432Y-109777265D01*
X87379431Y-109777267D01*
X87352382Y-109835275D01*
X87306209Y-109887714D01*
X87239016Y-109906866D01*
X87172135Y-109886650D01*
X87127618Y-109835275D01*
X87100568Y-109777267D01*
X87100567Y-109777265D01*
X86970045Y-109590858D01*
X86809141Y-109429954D01*
X86622734Y-109299432D01*
X86622732Y-109299431D01*
X86416497Y-109203261D01*
X86416488Y-109203258D01*
X86196697Y-109144366D01*
X86196693Y-109144365D01*
X86196692Y-109144365D01*
X86196691Y-109144364D01*
X86196686Y-109144364D01*
X85970002Y-109124532D01*
X85969998Y-109124532D01*
X85743313Y-109144364D01*
X85743302Y-109144366D01*
X85523511Y-109203258D01*
X85523502Y-109203261D01*
X85317267Y-109299431D01*
X85317265Y-109299432D01*
X85130858Y-109429954D01*
X84969954Y-109590858D01*
X84839432Y-109777265D01*
X84839431Y-109777267D01*
X84812382Y-109835275D01*
X84766209Y-109887714D01*
X84699016Y-109906866D01*
X84632135Y-109886650D01*
X84587618Y-109835275D01*
X84560568Y-109777267D01*
X84560567Y-109777265D01*
X84430045Y-109590858D01*
X84269141Y-109429954D01*
X84082734Y-109299432D01*
X84082732Y-109299431D01*
X83876497Y-109203261D01*
X83876488Y-109203258D01*
X83656697Y-109144366D01*
X83656693Y-109144365D01*
X83656692Y-109144365D01*
X83656691Y-109144364D01*
X83656686Y-109144364D01*
X83430002Y-109124532D01*
X83429998Y-109124532D01*
X83203313Y-109144364D01*
X83203302Y-109144366D01*
X82983511Y-109203258D01*
X82983502Y-109203261D01*
X82777267Y-109299431D01*
X82777265Y-109299432D01*
X82590858Y-109429954D01*
X82429954Y-109590858D01*
X82299432Y-109777265D01*
X82299431Y-109777267D01*
X82272382Y-109835275D01*
X82226209Y-109887714D01*
X82159016Y-109906866D01*
X82092135Y-109886650D01*
X82047618Y-109835275D01*
X82020568Y-109777267D01*
X82020567Y-109777265D01*
X81890045Y-109590858D01*
X81729141Y-109429954D01*
X81542734Y-109299432D01*
X81542732Y-109299431D01*
X81336497Y-109203261D01*
X81336488Y-109203258D01*
X81116697Y-109144366D01*
X81116693Y-109144365D01*
X81116692Y-109144365D01*
X81116691Y-109144364D01*
X81116686Y-109144364D01*
X80890002Y-109124532D01*
X80889998Y-109124532D01*
X80663313Y-109144364D01*
X80663302Y-109144366D01*
X80443511Y-109203258D01*
X80443502Y-109203261D01*
X80237267Y-109299431D01*
X80237265Y-109299432D01*
X80050858Y-109429954D01*
X79889954Y-109590858D01*
X79759432Y-109777265D01*
X79759431Y-109777267D01*
X79732382Y-109835275D01*
X79686209Y-109887714D01*
X79619016Y-109906866D01*
X79552135Y-109886650D01*
X79507618Y-109835275D01*
X79480568Y-109777267D01*
X79480567Y-109777265D01*
X79350045Y-109590858D01*
X79189141Y-109429954D01*
X79002734Y-109299432D01*
X79002732Y-109299431D01*
X78796497Y-109203261D01*
X78796488Y-109203258D01*
X78576697Y-109144366D01*
X78576693Y-109144365D01*
X78576692Y-109144365D01*
X78576691Y-109144364D01*
X78576686Y-109144364D01*
X78350002Y-109124532D01*
X78349998Y-109124532D01*
X78123313Y-109144364D01*
X78123302Y-109144366D01*
X77903511Y-109203258D01*
X77903502Y-109203261D01*
X77697267Y-109299431D01*
X77697265Y-109299432D01*
X77510858Y-109429954D01*
X77349954Y-109590858D01*
X77219432Y-109777265D01*
X77219431Y-109777267D01*
X77192382Y-109835275D01*
X77146209Y-109887714D01*
X77079016Y-109906866D01*
X77012135Y-109886650D01*
X76967618Y-109835275D01*
X76940568Y-109777267D01*
X76940567Y-109777265D01*
X76810045Y-109590858D01*
X76649141Y-109429954D01*
X76462734Y-109299432D01*
X76462732Y-109299431D01*
X76256497Y-109203261D01*
X76256488Y-109203258D01*
X76036697Y-109144366D01*
X76036693Y-109144365D01*
X76036692Y-109144365D01*
X76036691Y-109144364D01*
X76036686Y-109144364D01*
X75810002Y-109124532D01*
X75809998Y-109124532D01*
X75727150Y-109131780D01*
X75658650Y-109118013D01*
X75608467Y-109069398D01*
X75592534Y-109001369D01*
X75615910Y-108935526D01*
X75628656Y-108920577D01*
X85449240Y-99099994D01*
X122594357Y-99099994D01*
X122594357Y-99100005D01*
X122614890Y-99347812D01*
X122614892Y-99347824D01*
X122675936Y-99588881D01*
X122775826Y-99816606D01*
X122911833Y-100024782D01*
X122911836Y-100024785D01*
X123080256Y-100207738D01*
X123276491Y-100360474D01*
X123495190Y-100478828D01*
X123730386Y-100559571D01*
X123975665Y-100600500D01*
X124224335Y-100600500D01*
X124469614Y-100559571D01*
X124704810Y-100478828D01*
X124923509Y-100360474D01*
X125119744Y-100207738D01*
X125288164Y-100024785D01*
X125424173Y-99816607D01*
X125524063Y-99588881D01*
X125585108Y-99347821D01*
X125593394Y-99247824D01*
X125605643Y-99100005D01*
X125605643Y-99099994D01*
X125597357Y-98999994D01*
X125894357Y-98999994D01*
X125894357Y-99000005D01*
X125914890Y-99247812D01*
X125914892Y-99247824D01*
X125975936Y-99488881D01*
X126075826Y-99716606D01*
X126211833Y-99924782D01*
X126211836Y-99924785D01*
X126380256Y-100107738D01*
X126576491Y-100260474D01*
X126795190Y-100378828D01*
X127030386Y-100459571D01*
X127275665Y-100500500D01*
X127524335Y-100500500D01*
X127769614Y-100459571D01*
X128004810Y-100378828D01*
X128223509Y-100260474D01*
X128419744Y-100107738D01*
X128588164Y-99924785D01*
X128724173Y-99716607D01*
X128824063Y-99488881D01*
X128885108Y-99247821D01*
X128885109Y-99247812D01*
X128905643Y-99000005D01*
X128905643Y-98999994D01*
X128885109Y-98752187D01*
X128885107Y-98752175D01*
X128824063Y-98511118D01*
X128724173Y-98283393D01*
X128588166Y-98075217D01*
X128511800Y-97992262D01*
X128419744Y-97892262D01*
X128223509Y-97739526D01*
X128223507Y-97739525D01*
X128223506Y-97739524D01*
X128004811Y-97621172D01*
X128004802Y-97621169D01*
X127769616Y-97540429D01*
X127524335Y-97499500D01*
X127275665Y-97499500D01*
X127030383Y-97540429D01*
X126795197Y-97621169D01*
X126795188Y-97621172D01*
X126576493Y-97739524D01*
X126380257Y-97892261D01*
X126211833Y-98075217D01*
X126075826Y-98283393D01*
X125975936Y-98511118D01*
X125914892Y-98752175D01*
X125914890Y-98752187D01*
X125894357Y-98999994D01*
X125597357Y-98999994D01*
X125585109Y-98852187D01*
X125585107Y-98852175D01*
X125524063Y-98611118D01*
X125424173Y-98383393D01*
X125288166Y-98175217D01*
X125196109Y-98075217D01*
X125119744Y-97992262D01*
X124923509Y-97839526D01*
X124923507Y-97839525D01*
X124923506Y-97839524D01*
X124704811Y-97721172D01*
X124704802Y-97721169D01*
X124469616Y-97640429D01*
X124224335Y-97599500D01*
X123975665Y-97599500D01*
X123730383Y-97640429D01*
X123495197Y-97721169D01*
X123495188Y-97721172D01*
X123276493Y-97839524D01*
X123080257Y-97992261D01*
X122911833Y-98175217D01*
X122775826Y-98383393D01*
X122675936Y-98611118D01*
X122614892Y-98852175D01*
X122614890Y-98852187D01*
X122594357Y-99099994D01*
X85449240Y-99099994D01*
X88539237Y-96009997D01*
X120522677Y-96009997D01*
X120522677Y-96010002D01*
X120541929Y-96230062D01*
X120541930Y-96230070D01*
X120599104Y-96443445D01*
X120599105Y-96443447D01*
X120599106Y-96443450D01*
X120632382Y-96514811D01*
X120692466Y-96643662D01*
X120692468Y-96643666D01*
X120819170Y-96824615D01*
X120819175Y-96824621D01*
X120975378Y-96980824D01*
X120975384Y-96980829D01*
X121156333Y-97107531D01*
X121156335Y-97107532D01*
X121156338Y-97107534D01*
X121356550Y-97200894D01*
X121569932Y-97258070D01*
X121727123Y-97271822D01*
X121789998Y-97277323D01*
X121790000Y-97277323D01*
X121790002Y-97277323D01*
X121845017Y-97272509D01*
X122010068Y-97258070D01*
X122223450Y-97200894D01*
X122423662Y-97107534D01*
X122604620Y-96980826D01*
X122760826Y-96824620D01*
X122887534Y-96643662D01*
X122947618Y-96514811D01*
X122993790Y-96462371D01*
X123060983Y-96443219D01*
X123127865Y-96463435D01*
X123172382Y-96514811D01*
X123232464Y-96643658D01*
X123232468Y-96643666D01*
X123359170Y-96824615D01*
X123359175Y-96824621D01*
X123515378Y-96980824D01*
X123515384Y-96980829D01*
X123696333Y-97107531D01*
X123696335Y-97107532D01*
X123696338Y-97107534D01*
X123896550Y-97200894D01*
X124109932Y-97258070D01*
X124267123Y-97271822D01*
X124329998Y-97277323D01*
X124330000Y-97277323D01*
X124330002Y-97277323D01*
X124385017Y-97272509D01*
X124550068Y-97258070D01*
X124763450Y-97200894D01*
X124963662Y-97107534D01*
X125144620Y-96980826D01*
X125300826Y-96824620D01*
X125427534Y-96643662D01*
X125487618Y-96514811D01*
X125533790Y-96462371D01*
X125600983Y-96443219D01*
X125667865Y-96463435D01*
X125712382Y-96514811D01*
X125772464Y-96643658D01*
X125772468Y-96643666D01*
X125899170Y-96824615D01*
X125899175Y-96824621D01*
X126055378Y-96980824D01*
X126055384Y-96980829D01*
X126236333Y-97107531D01*
X126236335Y-97107532D01*
X126236338Y-97107534D01*
X126436550Y-97200894D01*
X126649932Y-97258070D01*
X126807123Y-97271822D01*
X126869998Y-97277323D01*
X126870000Y-97277323D01*
X126870002Y-97277323D01*
X126925017Y-97272509D01*
X127090068Y-97258070D01*
X127303450Y-97200894D01*
X127503662Y-97107534D01*
X127684620Y-96980826D01*
X127840826Y-96824620D01*
X127967534Y-96643662D01*
X128027618Y-96514811D01*
X128073790Y-96462371D01*
X128140983Y-96443219D01*
X128207865Y-96463435D01*
X128252382Y-96514811D01*
X128312464Y-96643658D01*
X128312468Y-96643666D01*
X128439170Y-96824615D01*
X128439175Y-96824621D01*
X128595378Y-96980824D01*
X128595384Y-96980829D01*
X128776333Y-97107531D01*
X128776335Y-97107532D01*
X128776338Y-97107534D01*
X128976550Y-97200894D01*
X129189932Y-97258070D01*
X129347123Y-97271822D01*
X129409998Y-97277323D01*
X129410000Y-97277323D01*
X129410002Y-97277323D01*
X129465017Y-97272509D01*
X129630068Y-97258070D01*
X129843450Y-97200894D01*
X130043662Y-97107534D01*
X130224620Y-96980826D01*
X130380826Y-96824620D01*
X130507534Y-96643662D01*
X130600894Y-96443450D01*
X130658070Y-96230068D01*
X130677323Y-96010000D01*
X130658070Y-95789932D01*
X130600894Y-95576550D01*
X130507534Y-95376339D01*
X130380826Y-95195380D01*
X130224620Y-95039174D01*
X130224616Y-95039171D01*
X130224615Y-95039170D01*
X130043666Y-94912468D01*
X130043662Y-94912466D01*
X130043660Y-94912465D01*
X129843450Y-94819106D01*
X129843447Y-94819105D01*
X129843445Y-94819104D01*
X129630070Y-94761930D01*
X129630062Y-94761929D01*
X129410002Y-94742677D01*
X129409998Y-94742677D01*
X129189937Y-94761929D01*
X129189929Y-94761930D01*
X128976554Y-94819104D01*
X128976548Y-94819107D01*
X128776340Y-94912465D01*
X128776338Y-94912466D01*
X128595377Y-95039175D01*
X128439175Y-95195377D01*
X128312466Y-95376338D01*
X128312465Y-95376340D01*
X128252382Y-95505189D01*
X128206209Y-95557628D01*
X128139016Y-95576780D01*
X128072135Y-95556564D01*
X128027618Y-95505189D01*
X127967534Y-95376340D01*
X127967533Y-95376338D01*
X127840827Y-95195381D01*
X127840823Y-95195377D01*
X127684620Y-95039174D01*
X127684616Y-95039171D01*
X127684615Y-95039170D01*
X127503666Y-94912468D01*
X127503662Y-94912466D01*
X127503660Y-94912465D01*
X127303450Y-94819106D01*
X127303447Y-94819105D01*
X127303445Y-94819104D01*
X127090070Y-94761930D01*
X127090062Y-94761929D01*
X126870002Y-94742677D01*
X126869998Y-94742677D01*
X126649937Y-94761929D01*
X126649929Y-94761930D01*
X126436554Y-94819104D01*
X126436548Y-94819107D01*
X126236340Y-94912465D01*
X126236338Y-94912466D01*
X126055377Y-95039175D01*
X125899175Y-95195377D01*
X125772466Y-95376338D01*
X125772465Y-95376340D01*
X125712382Y-95505189D01*
X125666209Y-95557628D01*
X125599016Y-95576780D01*
X125532135Y-95556564D01*
X125487618Y-95505189D01*
X125427534Y-95376340D01*
X125427533Y-95376338D01*
X125300827Y-95195381D01*
X125300823Y-95195377D01*
X125144620Y-95039174D01*
X125144616Y-95039171D01*
X125144615Y-95039170D01*
X124963666Y-94912468D01*
X124963662Y-94912466D01*
X124963660Y-94912465D01*
X124763450Y-94819106D01*
X124763447Y-94819105D01*
X124763445Y-94819104D01*
X124550070Y-94761930D01*
X124550062Y-94761929D01*
X124330002Y-94742677D01*
X124329998Y-94742677D01*
X124109937Y-94761929D01*
X124109929Y-94761930D01*
X123896554Y-94819104D01*
X123896548Y-94819107D01*
X123696340Y-94912465D01*
X123696338Y-94912466D01*
X123515377Y-95039175D01*
X123359175Y-95195377D01*
X123232466Y-95376338D01*
X123232465Y-95376340D01*
X123172382Y-95505189D01*
X123126209Y-95557628D01*
X123059016Y-95576780D01*
X122992135Y-95556564D01*
X122947618Y-95505189D01*
X122887534Y-95376340D01*
X122887533Y-95376338D01*
X122760827Y-95195381D01*
X122760823Y-95195377D01*
X122604620Y-95039174D01*
X122604616Y-95039171D01*
X122604615Y-95039170D01*
X122423666Y-94912468D01*
X122423662Y-94912466D01*
X122423660Y-94912465D01*
X122223450Y-94819106D01*
X122223447Y-94819105D01*
X122223445Y-94819104D01*
X122010070Y-94761930D01*
X122010062Y-94761929D01*
X121790002Y-94742677D01*
X121789998Y-94742677D01*
X121569937Y-94761929D01*
X121569929Y-94761930D01*
X121356554Y-94819104D01*
X121356548Y-94819107D01*
X121156340Y-94912465D01*
X121156338Y-94912466D01*
X120975377Y-95039175D01*
X120819175Y-95195377D01*
X120692466Y-95376338D01*
X120692465Y-95376340D01*
X120599107Y-95576548D01*
X120599104Y-95576554D01*
X120541930Y-95789929D01*
X120541929Y-95789937D01*
X120522677Y-96009997D01*
X88539237Y-96009997D01*
X90398713Y-94150521D01*
X90398716Y-94150520D01*
X90510520Y-94038716D01*
X90560639Y-93951904D01*
X90589577Y-93901785D01*
X90630500Y-93749058D01*
X90630500Y-93590943D01*
X90630500Y-88389999D01*
X120523179Y-88389999D01*
X120523179Y-88390000D01*
X120542424Y-88609976D01*
X120542426Y-88609986D01*
X120599575Y-88823270D01*
X120599580Y-88823284D01*
X120692898Y-89023405D01*
X120692901Y-89023411D01*
X120738258Y-89088187D01*
X120738258Y-89088188D01*
X121383600Y-88442846D01*
X121383600Y-88443504D01*
X121411295Y-88546865D01*
X121464799Y-88639536D01*
X121540464Y-88715201D01*
X121633135Y-88768705D01*
X121736496Y-88796400D01*
X121737153Y-88796400D01*
X121091810Y-89441740D01*
X121156590Y-89487099D01*
X121156592Y-89487100D01*
X121356715Y-89580419D01*
X121356729Y-89580424D01*
X121570013Y-89637573D01*
X121570023Y-89637575D01*
X121789999Y-89656821D01*
X121790001Y-89656821D01*
X122009976Y-89637575D01*
X122009986Y-89637573D01*
X122223270Y-89580424D01*
X122223284Y-89580419D01*
X122423407Y-89487100D01*
X122423417Y-89487094D01*
X122488188Y-89441741D01*
X121842848Y-88796400D01*
X121843504Y-88796400D01*
X121946865Y-88768705D01*
X122039536Y-88715201D01*
X122115201Y-88639536D01*
X122168705Y-88546865D01*
X122196400Y-88443504D01*
X122196400Y-88442847D01*
X122841741Y-89088188D01*
X122887094Y-89023417D01*
X122887095Y-89023416D01*
X122947340Y-88894219D01*
X122993512Y-88841780D01*
X123060706Y-88822627D01*
X123127587Y-88842842D01*
X123172105Y-88894218D01*
X123232466Y-89023662D01*
X123232468Y-89023666D01*
X123359170Y-89204615D01*
X123359175Y-89204621D01*
X123515378Y-89360824D01*
X123515384Y-89360829D01*
X123696333Y-89487531D01*
X123696335Y-89487532D01*
X123696338Y-89487534D01*
X123896550Y-89580894D01*
X124109932Y-89638070D01*
X124256743Y-89650914D01*
X124329998Y-89657323D01*
X124330000Y-89657323D01*
X124330002Y-89657323D01*
X124360502Y-89654654D01*
X124550068Y-89638070D01*
X124551916Y-89637575D01*
X124560253Y-89635340D01*
X124621903Y-89618821D01*
X124691752Y-89620482D01*
X124741679Y-89650914D01*
X125055139Y-89964374D01*
X125055149Y-89964385D01*
X125059479Y-89968715D01*
X125059480Y-89968716D01*
X125171284Y-90080520D01*
X125171286Y-90080521D01*
X125171290Y-90080524D01*
X125308209Y-90159573D01*
X125308216Y-90159577D01*
X125420019Y-90189534D01*
X125460942Y-90200500D01*
X125460943Y-90200500D01*
X132341271Y-90200500D01*
X132408310Y-90220185D01*
X132424245Y-90232351D01*
X132427766Y-90235521D01*
X132427770Y-90235526D01*
X132572407Y-90340612D01*
X132735733Y-90413329D01*
X132910609Y-90450500D01*
X132910610Y-90450500D01*
X133089389Y-90450500D01*
X133089391Y-90450500D01*
X133264267Y-90413329D01*
X133427593Y-90340612D01*
X133572230Y-90235526D01*
X133691859Y-90102665D01*
X133781250Y-89947835D01*
X133836497Y-89777803D01*
X133855185Y-89600000D01*
X133836497Y-89422197D01*
X133781250Y-89252165D01*
X133691859Y-89097335D01*
X133625527Y-89023666D01*
X133572235Y-88964478D01*
X133572232Y-88964476D01*
X133572231Y-88964475D01*
X133572230Y-88964474D01*
X133427593Y-88859388D01*
X133264267Y-88786671D01*
X133264265Y-88786670D01*
X133096711Y-88751056D01*
X133089391Y-88749500D01*
X132910609Y-88749500D01*
X132903289Y-88751056D01*
X132735733Y-88786670D01*
X132735728Y-88786672D01*
X132572408Y-88859387D01*
X132427772Y-88964472D01*
X132424245Y-88967649D01*
X132361253Y-88997879D01*
X132341271Y-88999500D01*
X130796500Y-88999500D01*
X130729461Y-88979815D01*
X130683706Y-88927011D01*
X130672500Y-88875500D01*
X130672499Y-87580129D01*
X130672498Y-87580123D01*
X130672497Y-87580116D01*
X130666091Y-87520517D01*
X130615796Y-87385669D01*
X130615795Y-87385668D01*
X130615793Y-87385664D01*
X130529547Y-87270455D01*
X130529544Y-87270452D01*
X130414335Y-87184206D01*
X130414328Y-87184202D01*
X130279482Y-87133908D01*
X130279483Y-87133908D01*
X130219883Y-87127501D01*
X130219881Y-87127500D01*
X130219873Y-87127500D01*
X130219864Y-87127500D01*
X128600129Y-87127500D01*
X128600123Y-87127501D01*
X128540516Y-87133908D01*
X128405671Y-87184202D01*
X128405664Y-87184206D01*
X128290455Y-87270452D01*
X128290452Y-87270455D01*
X128204206Y-87385664D01*
X128204202Y-87385671D01*
X128153908Y-87520517D01*
X128148010Y-87575380D01*
X128147501Y-87580123D01*
X128147500Y-87580135D01*
X128147500Y-87620079D01*
X128127815Y-87687118D01*
X128075011Y-87732873D01*
X128005853Y-87742817D01*
X127942297Y-87713792D01*
X127921925Y-87691202D01*
X127840827Y-87575381D01*
X127785962Y-87520516D01*
X127684620Y-87419174D01*
X127684616Y-87419171D01*
X127684615Y-87419170D01*
X127503666Y-87292468D01*
X127503662Y-87292466D01*
X127456457Y-87270454D01*
X127303450Y-87199106D01*
X127303447Y-87199105D01*
X127303445Y-87199104D01*
X127090070Y-87141930D01*
X127090062Y-87141929D01*
X126870002Y-87122677D01*
X126869998Y-87122677D01*
X126649937Y-87141929D01*
X126649929Y-87141930D01*
X126436554Y-87199104D01*
X126436548Y-87199107D01*
X126236340Y-87292465D01*
X126236338Y-87292466D01*
X126055377Y-87419175D01*
X125899175Y-87575377D01*
X125772466Y-87756338D01*
X125772465Y-87756340D01*
X125712382Y-87885189D01*
X125666209Y-87937628D01*
X125599016Y-87956780D01*
X125532135Y-87936564D01*
X125487618Y-87885189D01*
X125427651Y-87756590D01*
X125427534Y-87756339D01*
X125364180Y-87665859D01*
X125300827Y-87575381D01*
X125245962Y-87520516D01*
X125144620Y-87419174D01*
X125144616Y-87419171D01*
X125144615Y-87419170D01*
X124963666Y-87292468D01*
X124963662Y-87292466D01*
X124916457Y-87270454D01*
X124763450Y-87199106D01*
X124763447Y-87199105D01*
X124763445Y-87199104D01*
X124550070Y-87141930D01*
X124550062Y-87141929D01*
X124330002Y-87122677D01*
X124329998Y-87122677D01*
X124109937Y-87141929D01*
X124109929Y-87141930D01*
X123896554Y-87199104D01*
X123896548Y-87199107D01*
X123696340Y-87292465D01*
X123696338Y-87292466D01*
X123515377Y-87419175D01*
X123359175Y-87575377D01*
X123232467Y-87756337D01*
X123172105Y-87885782D01*
X123125932Y-87938221D01*
X123058738Y-87957372D01*
X122991857Y-87937156D01*
X122947341Y-87885780D01*
X122887098Y-87756589D01*
X122887097Y-87756587D01*
X122841741Y-87691811D01*
X122841740Y-87691810D01*
X122196400Y-88337151D01*
X122196400Y-88336496D01*
X122168705Y-88233135D01*
X122115201Y-88140464D01*
X122039536Y-88064799D01*
X121946865Y-88011295D01*
X121843504Y-87983600D01*
X121842847Y-87983600D01*
X122488188Y-87338258D01*
X122423411Y-87292901D01*
X122423405Y-87292898D01*
X122296923Y-87233919D01*
X122244483Y-87187747D01*
X122225331Y-87120554D01*
X122245546Y-87053672D01*
X122298712Y-87008338D01*
X122328918Y-86999228D01*
X122569492Y-86959083D01*
X122804603Y-86878369D01*
X122804614Y-86878364D01*
X123023230Y-86760056D01*
X123023236Y-86760051D01*
X123070055Y-86723610D01*
X123070056Y-86723609D01*
X122329408Y-85982962D01*
X122392993Y-85965925D01*
X122507007Y-85900099D01*
X122600099Y-85807007D01*
X122665925Y-85692993D01*
X122682962Y-85629409D01*
X123423435Y-86369882D01*
X123523733Y-86216364D01*
X123623587Y-85988717D01*
X123684612Y-85747738D01*
X123684614Y-85747729D01*
X123705141Y-85500005D01*
X123705141Y-85499994D01*
X123684614Y-85252270D01*
X123684612Y-85252261D01*
X123623587Y-85011282D01*
X123523732Y-84783632D01*
X123423435Y-84630116D01*
X122682962Y-85370590D01*
X122665925Y-85307007D01*
X122600099Y-85192993D01*
X122507007Y-85099901D01*
X122392993Y-85034075D01*
X122329409Y-85017037D01*
X123070055Y-84276389D01*
X123070055Y-84276388D01*
X123023236Y-84239947D01*
X123023231Y-84239944D01*
X122804614Y-84121635D01*
X122804603Y-84121630D01*
X122569493Y-84040916D01*
X122324293Y-84000000D01*
X122075707Y-84000000D01*
X121830506Y-84040916D01*
X121595396Y-84121630D01*
X121595385Y-84121635D01*
X121376770Y-84239943D01*
X121329943Y-84276389D01*
X122070591Y-85017037D01*
X122007007Y-85034075D01*
X121892993Y-85099901D01*
X121799901Y-85192993D01*
X121734075Y-85307007D01*
X121717037Y-85370591D01*
X120976563Y-84630117D01*
X120876267Y-84783633D01*
X120876265Y-84783637D01*
X120776412Y-85011282D01*
X120715387Y-85252261D01*
X120715385Y-85252270D01*
X120694859Y-85499994D01*
X120694859Y-85500005D01*
X120715385Y-85747729D01*
X120715387Y-85747738D01*
X120776412Y-85988717D01*
X120876267Y-86216367D01*
X120976562Y-86369881D01*
X121717037Y-85629408D01*
X121734075Y-85692993D01*
X121799901Y-85807007D01*
X121892993Y-85900099D01*
X122007007Y-85965925D01*
X122070591Y-85982962D01*
X121329943Y-86723609D01*
X121376768Y-86760055D01*
X121376771Y-86760057D01*
X121595385Y-86878364D01*
X121595396Y-86878369D01*
X121650186Y-86897179D01*
X121707201Y-86937565D01*
X121733332Y-87002364D01*
X121720280Y-87071004D01*
X121672192Y-87121692D01*
X121620731Y-87137988D01*
X121570023Y-87142424D01*
X121570013Y-87142426D01*
X121356729Y-87199575D01*
X121356720Y-87199579D01*
X121156590Y-87292901D01*
X121091811Y-87338258D01*
X121737154Y-87983600D01*
X121736496Y-87983600D01*
X121633135Y-88011295D01*
X121540464Y-88064799D01*
X121464799Y-88140464D01*
X121411295Y-88233135D01*
X121383600Y-88336496D01*
X121383600Y-88337153D01*
X120738258Y-87691811D01*
X120692901Y-87756590D01*
X120599579Y-87956720D01*
X120599575Y-87956729D01*
X120542426Y-88170013D01*
X120542424Y-88170023D01*
X120523179Y-88389999D01*
X90630500Y-88389999D01*
X90630500Y-76499994D01*
X123594357Y-76499994D01*
X123594357Y-76500005D01*
X123614890Y-76747812D01*
X123614892Y-76747824D01*
X123675936Y-76988881D01*
X123775826Y-77216606D01*
X123911833Y-77424782D01*
X123911836Y-77424785D01*
X124080256Y-77607738D01*
X124276491Y-77760474D01*
X124495190Y-77878828D01*
X124730386Y-77959571D01*
X124975665Y-78000500D01*
X125224335Y-78000500D01*
X125469614Y-77959571D01*
X125704810Y-77878828D01*
X125923509Y-77760474D01*
X126119744Y-77607738D01*
X126288164Y-77424785D01*
X126424173Y-77216607D01*
X126524063Y-76988881D01*
X126585108Y-76747821D01*
X126585109Y-76747812D01*
X126597358Y-76599994D01*
X127094357Y-76599994D01*
X127094357Y-76600005D01*
X127114890Y-76847812D01*
X127114892Y-76847824D01*
X127175936Y-77088881D01*
X127275826Y-77316606D01*
X127411833Y-77524782D01*
X127411836Y-77524785D01*
X127580256Y-77707738D01*
X127776491Y-77860474D01*
X127995190Y-77978828D01*
X128230386Y-78059571D01*
X128475665Y-78100500D01*
X128724335Y-78100500D01*
X128969614Y-78059571D01*
X129204810Y-77978828D01*
X129423509Y-77860474D01*
X129619744Y-77707738D01*
X129788164Y-77524785D01*
X129924173Y-77316607D01*
X130024063Y-77088881D01*
X130085108Y-76847821D01*
X130093394Y-76747824D01*
X130105643Y-76600005D01*
X130105643Y-76599994D01*
X130085109Y-76352187D01*
X130085107Y-76352175D01*
X130024063Y-76111118D01*
X129924173Y-75883393D01*
X129788166Y-75675217D01*
X129696109Y-75575217D01*
X129619744Y-75492262D01*
X129423509Y-75339526D01*
X129423507Y-75339525D01*
X129423506Y-75339524D01*
X129204811Y-75221172D01*
X129204802Y-75221169D01*
X128969616Y-75140429D01*
X128724335Y-75099500D01*
X128475665Y-75099500D01*
X128230383Y-75140429D01*
X127995197Y-75221169D01*
X127995188Y-75221172D01*
X127776493Y-75339524D01*
X127580257Y-75492261D01*
X127411833Y-75675217D01*
X127275826Y-75883393D01*
X127175936Y-76111118D01*
X127114892Y-76352175D01*
X127114890Y-76352187D01*
X127094357Y-76599994D01*
X126597358Y-76599994D01*
X126605643Y-76500005D01*
X126605643Y-76499994D01*
X126585109Y-76252187D01*
X126585107Y-76252175D01*
X126524063Y-76011118D01*
X126424173Y-75783393D01*
X126288166Y-75575217D01*
X126211800Y-75492262D01*
X126119744Y-75392262D01*
X125923509Y-75239526D01*
X125923507Y-75239525D01*
X125923506Y-75239524D01*
X125704811Y-75121172D01*
X125704802Y-75121169D01*
X125469616Y-75040429D01*
X125224335Y-74999500D01*
X124975665Y-74999500D01*
X124730383Y-75040429D01*
X124495197Y-75121169D01*
X124495188Y-75121172D01*
X124276493Y-75239524D01*
X124080257Y-75392261D01*
X123911833Y-75575217D01*
X123775826Y-75783393D01*
X123675936Y-76011118D01*
X123614892Y-76252175D01*
X123614890Y-76252187D01*
X123594357Y-76499994D01*
X90630500Y-76499994D01*
X90630500Y-63401692D01*
X90650185Y-63334653D01*
X90683374Y-63300119D01*
X90869139Y-63170047D01*
X91030047Y-63009139D01*
X91160568Y-62822734D01*
X91187618Y-62764724D01*
X91233790Y-62712285D01*
X91300983Y-62693133D01*
X91367865Y-62713348D01*
X91412382Y-62764725D01*
X91439429Y-62822728D01*
X91439432Y-62822734D01*
X91569954Y-63009141D01*
X91730858Y-63170045D01*
X91730861Y-63170047D01*
X91917266Y-63300568D01*
X92123504Y-63396739D01*
X92343308Y-63455635D01*
X92505230Y-63469801D01*
X92569998Y-63475468D01*
X92570000Y-63475468D01*
X92570002Y-63475468D01*
X92626807Y-63470498D01*
X92796692Y-63455635D01*
X93016496Y-63396739D01*
X93222734Y-63300568D01*
X93409139Y-63170047D01*
X93570047Y-63009139D01*
X93700568Y-62822734D01*
X93796739Y-62616496D01*
X93855635Y-62396692D01*
X93875468Y-62170000D01*
X93855635Y-61943308D01*
X93796739Y-61723504D01*
X93700568Y-61517266D01*
X93570047Y-61330861D01*
X93570045Y-61330858D01*
X93409141Y-61169954D01*
X93222734Y-61039432D01*
X93222732Y-61039431D01*
X93016497Y-60943261D01*
X93016488Y-60943258D01*
X92796697Y-60884366D01*
X92796693Y-60884365D01*
X92796692Y-60884365D01*
X92796691Y-60884364D01*
X92796686Y-60884364D01*
X92570002Y-60864532D01*
X92569998Y-60864532D01*
X92343313Y-60884364D01*
X92343302Y-60884366D01*
X92123511Y-60943258D01*
X92123502Y-60943261D01*
X91917267Y-61039431D01*
X91917265Y-61039432D01*
X91730858Y-61169954D01*
X91569954Y-61330858D01*
X91439432Y-61517265D01*
X91439431Y-61517267D01*
X91412382Y-61575275D01*
X91366209Y-61627714D01*
X91299016Y-61646866D01*
X91232135Y-61626650D01*
X91187618Y-61575275D01*
X91160568Y-61517267D01*
X91160567Y-61517265D01*
X91160117Y-61516623D01*
X91030047Y-61330861D01*
X91030045Y-61330858D01*
X90869141Y-61169954D01*
X90682734Y-61039432D01*
X90682732Y-61039431D01*
X90476497Y-60943261D01*
X90476488Y-60943258D01*
X90256697Y-60884366D01*
X90256693Y-60884365D01*
X90256692Y-60884365D01*
X90256691Y-60884364D01*
X90256686Y-60884364D01*
X90030002Y-60864532D01*
X90029998Y-60864532D01*
X89803313Y-60884364D01*
X89803302Y-60884366D01*
X89583511Y-60943258D01*
X89583502Y-60943261D01*
X89377267Y-61039431D01*
X89377265Y-61039432D01*
X89190858Y-61169954D01*
X89029954Y-61330858D01*
X88953450Y-61440118D01*
X88899881Y-61516624D01*
X88845307Y-61560248D01*
X88798308Y-61569500D01*
X88721692Y-61569500D01*
X88654653Y-61549815D01*
X88620119Y-61516625D01*
X88490047Y-61330861D01*
X88490045Y-61330858D01*
X88329141Y-61169954D01*
X88142734Y-61039432D01*
X88142732Y-61039431D01*
X87936497Y-60943261D01*
X87936488Y-60943258D01*
X87716697Y-60884366D01*
X87716693Y-60884365D01*
X87716692Y-60884365D01*
X87716691Y-60884364D01*
X87716686Y-60884364D01*
X87490002Y-60864532D01*
X87489998Y-60864532D01*
X87263313Y-60884364D01*
X87263302Y-60884366D01*
X87043511Y-60943258D01*
X87043502Y-60943261D01*
X86837267Y-61039431D01*
X86837265Y-61039432D01*
X86650858Y-61169954D01*
X86489954Y-61330858D01*
X86359432Y-61517265D01*
X86359431Y-61517267D01*
X86332382Y-61575275D01*
X86286209Y-61627714D01*
X86219016Y-61646866D01*
X86152135Y-61626650D01*
X86107618Y-61575275D01*
X86080568Y-61517267D01*
X86080567Y-61517265D01*
X86080117Y-61516623D01*
X85950047Y-61330861D01*
X85950045Y-61330858D01*
X85789141Y-61169954D01*
X85602734Y-61039432D01*
X85602732Y-61039431D01*
X85396497Y-60943261D01*
X85396488Y-60943258D01*
X85176697Y-60884366D01*
X85176693Y-60884365D01*
X85176692Y-60884365D01*
X85176691Y-60884364D01*
X85176686Y-60884364D01*
X84950002Y-60864532D01*
X84949998Y-60864532D01*
X84723313Y-60884364D01*
X84723302Y-60884366D01*
X84503511Y-60943258D01*
X84503502Y-60943261D01*
X84297267Y-61039431D01*
X84297265Y-61039432D01*
X84110858Y-61169954D01*
X83949954Y-61330858D01*
X83819432Y-61517265D01*
X83819431Y-61517267D01*
X83792382Y-61575275D01*
X83746209Y-61627714D01*
X83679016Y-61646866D01*
X83612135Y-61626650D01*
X83567618Y-61575275D01*
X83540568Y-61517267D01*
X83540567Y-61517265D01*
X83540117Y-61516623D01*
X83410047Y-61330861D01*
X83410045Y-61330858D01*
X83249141Y-61169954D01*
X83062734Y-61039432D01*
X83062732Y-61039431D01*
X82856497Y-60943261D01*
X82856488Y-60943258D01*
X82636697Y-60884366D01*
X82636693Y-60884365D01*
X82636692Y-60884365D01*
X82636691Y-60884364D01*
X82636686Y-60884364D01*
X82410002Y-60864532D01*
X82409998Y-60864532D01*
X82183313Y-60884364D01*
X82183302Y-60884366D01*
X81963511Y-60943258D01*
X81963502Y-60943261D01*
X81757267Y-61039431D01*
X81757265Y-61039432D01*
X81570858Y-61169954D01*
X81409954Y-61330858D01*
X81279432Y-61517265D01*
X81279431Y-61517267D01*
X81252382Y-61575275D01*
X81206209Y-61627714D01*
X81139016Y-61646866D01*
X81072135Y-61626650D01*
X81027618Y-61575275D01*
X81000568Y-61517267D01*
X81000567Y-61517265D01*
X81000117Y-61516623D01*
X80870047Y-61330861D01*
X80870045Y-61330858D01*
X80709141Y-61169954D01*
X80522734Y-61039432D01*
X80522732Y-61039431D01*
X80316497Y-60943261D01*
X80316488Y-60943258D01*
X80096697Y-60884366D01*
X80096693Y-60884365D01*
X80096692Y-60884365D01*
X80096691Y-60884364D01*
X80096686Y-60884364D01*
X79870002Y-60864532D01*
X79869998Y-60864532D01*
X79643313Y-60884364D01*
X79643302Y-60884366D01*
X79423511Y-60943258D01*
X79423502Y-60943261D01*
X79217267Y-61039431D01*
X79217265Y-61039432D01*
X79030858Y-61169954D01*
X78869954Y-61330858D01*
X78739432Y-61517265D01*
X78739431Y-61517267D01*
X78712382Y-61575275D01*
X78666209Y-61627714D01*
X78599016Y-61646866D01*
X78532135Y-61626650D01*
X78487618Y-61575275D01*
X78460568Y-61517267D01*
X78460567Y-61517265D01*
X78460117Y-61516623D01*
X78330047Y-61330861D01*
X78330045Y-61330858D01*
X78169141Y-61169954D01*
X77982734Y-61039432D01*
X77982732Y-61039431D01*
X77776497Y-60943261D01*
X77776488Y-60943258D01*
X77556697Y-60884366D01*
X77556693Y-60884365D01*
X77556692Y-60884365D01*
X77556691Y-60884364D01*
X77556686Y-60884364D01*
X77330002Y-60864532D01*
X77329998Y-60864532D01*
X77103313Y-60884364D01*
X77103302Y-60884366D01*
X76883511Y-60943258D01*
X76883502Y-60943261D01*
X76677267Y-61039431D01*
X76677265Y-61039432D01*
X76490858Y-61169954D01*
X76329954Y-61330858D01*
X76312725Y-61355464D01*
X76258147Y-61399088D01*
X76188648Y-61406280D01*
X76126294Y-61374757D01*
X76090882Y-61314526D01*
X76087861Y-61297591D01*
X76084091Y-61262516D01*
X76033797Y-61127671D01*
X76033793Y-61127664D01*
X75947547Y-61012455D01*
X75947544Y-61012452D01*
X75832335Y-60926206D01*
X75832328Y-60926202D01*
X75697482Y-60875908D01*
X75697483Y-60875908D01*
X75637883Y-60869501D01*
X75637881Y-60869500D01*
X75637873Y-60869500D01*
X75637864Y-60869500D01*
X73942129Y-60869500D01*
X73942123Y-60869501D01*
X73882516Y-60875908D01*
X73747671Y-60926202D01*
X73747664Y-60926206D01*
X73632455Y-61012452D01*
X73632452Y-61012455D01*
X73546206Y-61127664D01*
X73546202Y-61127671D01*
X73495908Y-61262517D01*
X73489501Y-61322116D01*
X73489500Y-61322135D01*
X73489500Y-63017870D01*
X73489501Y-63017876D01*
X73495908Y-63077483D01*
X73546202Y-63212328D01*
X73546206Y-63212335D01*
X73632452Y-63327544D01*
X73632455Y-63327547D01*
X73747664Y-63413793D01*
X73747671Y-63413797D01*
X73882517Y-63464091D01*
X73882516Y-63464091D01*
X73889444Y-63464835D01*
X73942127Y-63470500D01*
X75637872Y-63470499D01*
X75697483Y-63464091D01*
X75832331Y-63413796D01*
X75947546Y-63327546D01*
X76033796Y-63212331D01*
X76084091Y-63077483D01*
X76087862Y-63042401D01*
X76114599Y-62977855D01*
X76171990Y-62938006D01*
X76241816Y-62935511D01*
X76301905Y-62971163D01*
X76312725Y-62984535D01*
X76319598Y-62994351D01*
X76329956Y-63009143D01*
X76490858Y-63170045D01*
X76490861Y-63170047D01*
X76677266Y-63300568D01*
X76883504Y-63396739D01*
X77103308Y-63455635D01*
X77265230Y-63469801D01*
X77329998Y-63475468D01*
X77330000Y-63475468D01*
X77330002Y-63475468D01*
X77386807Y-63470498D01*
X77556692Y-63455635D01*
X77776496Y-63396739D01*
X77982734Y-63300568D01*
X78169139Y-63170047D01*
X78330047Y-63009139D01*
X78460568Y-62822734D01*
X78487618Y-62764724D01*
X78533790Y-62712285D01*
X78600983Y-62693133D01*
X78667865Y-62713348D01*
X78712382Y-62764725D01*
X78739429Y-62822728D01*
X78739432Y-62822734D01*
X78869954Y-63009141D01*
X79030858Y-63170045D01*
X79030861Y-63170047D01*
X79217266Y-63300568D01*
X79423504Y-63396739D01*
X79643308Y-63455635D01*
X79805230Y-63469801D01*
X79869998Y-63475468D01*
X79870000Y-63475468D01*
X79870002Y-63475468D01*
X79926807Y-63470498D01*
X80096692Y-63455635D01*
X80316496Y-63396739D01*
X80522734Y-63300568D01*
X80709139Y-63170047D01*
X80870047Y-63009139D01*
X81000568Y-62822734D01*
X81027618Y-62764724D01*
X81073790Y-62712285D01*
X81140983Y-62693133D01*
X81207865Y-62713348D01*
X81252382Y-62764725D01*
X81279429Y-62822728D01*
X81279432Y-62822734D01*
X81409954Y-63009141D01*
X81570858Y-63170045D01*
X81570861Y-63170047D01*
X81757266Y-63300568D01*
X81963504Y-63396739D01*
X82183308Y-63455635D01*
X82345230Y-63469801D01*
X82409998Y-63475468D01*
X82410000Y-63475468D01*
X82410002Y-63475468D01*
X82466807Y-63470498D01*
X82636692Y-63455635D01*
X82856496Y-63396739D01*
X83062734Y-63300568D01*
X83249139Y-63170047D01*
X83410047Y-63009139D01*
X83540568Y-62822734D01*
X83567618Y-62764724D01*
X83613790Y-62712285D01*
X83680983Y-62693133D01*
X83747865Y-62713348D01*
X83792382Y-62764725D01*
X83819429Y-62822728D01*
X83819432Y-62822734D01*
X83949954Y-63009141D01*
X84110858Y-63170045D01*
X84110861Y-63170047D01*
X84297266Y-63300568D01*
X84503504Y-63396739D01*
X84723308Y-63455635D01*
X84885230Y-63469801D01*
X84949998Y-63475468D01*
X84950000Y-63475468D01*
X84950002Y-63475468D01*
X85006807Y-63470498D01*
X85176692Y-63455635D01*
X85396496Y-63396739D01*
X85602734Y-63300568D01*
X85789139Y-63170047D01*
X85950047Y-63009139D01*
X86080568Y-62822734D01*
X86107618Y-62764724D01*
X86153790Y-62712285D01*
X86220983Y-62693133D01*
X86287865Y-62713348D01*
X86332382Y-62764725D01*
X86359429Y-62822728D01*
X86359432Y-62822734D01*
X86489954Y-63009141D01*
X86650858Y-63170045D01*
X86650861Y-63170047D01*
X86837266Y-63300568D01*
X87043504Y-63396739D01*
X87263308Y-63455635D01*
X87425230Y-63469801D01*
X87489998Y-63475468D01*
X87490000Y-63475468D01*
X87490002Y-63475468D01*
X87546807Y-63470498D01*
X87716692Y-63455635D01*
X87936496Y-63396739D01*
X88142734Y-63300568D01*
X88329139Y-63170047D01*
X88490047Y-63009139D01*
X88620118Y-62823375D01*
X88674693Y-62779752D01*
X88721692Y-62770500D01*
X88798308Y-62770500D01*
X88865347Y-62790185D01*
X88899880Y-62823374D01*
X88923723Y-62857425D01*
X89029954Y-63009141D01*
X89190858Y-63170045D01*
X89190861Y-63170047D01*
X89376624Y-63300118D01*
X89420248Y-63354693D01*
X89429500Y-63401692D01*
X89429500Y-93369902D01*
X89409815Y-93436941D01*
X89393181Y-93457583D01*
X73712705Y-109138058D01*
X73651382Y-109171543D01*
X73592931Y-109170152D01*
X73496697Y-109144366D01*
X73496693Y-109144365D01*
X73496692Y-109144365D01*
X73496691Y-109144364D01*
X73496686Y-109144364D01*
X73270002Y-109124532D01*
X73269998Y-109124532D01*
X73043313Y-109144364D01*
X73043302Y-109144366D01*
X72823511Y-109203258D01*
X72823502Y-109203261D01*
X72617267Y-109299431D01*
X72617265Y-109299432D01*
X72430858Y-109429954D01*
X72269954Y-109590858D01*
X72139432Y-109777265D01*
X72139431Y-109777267D01*
X72112382Y-109835275D01*
X72066209Y-109887714D01*
X71999016Y-109906866D01*
X71932135Y-109886650D01*
X71887618Y-109835275D01*
X71860568Y-109777267D01*
X71860567Y-109777265D01*
X71730045Y-109590858D01*
X71569141Y-109429954D01*
X71382734Y-109299432D01*
X71382732Y-109299431D01*
X71176497Y-109203261D01*
X71176488Y-109203258D01*
X70956697Y-109144366D01*
X70956693Y-109144365D01*
X70956692Y-109144365D01*
X70956691Y-109144364D01*
X70956686Y-109144364D01*
X70730002Y-109124532D01*
X70729998Y-109124532D01*
X70503313Y-109144364D01*
X70503302Y-109144366D01*
X70283511Y-109203258D01*
X70283502Y-109203261D01*
X70077267Y-109299431D01*
X70077265Y-109299432D01*
X69890858Y-109429954D01*
X69729954Y-109590858D01*
X69599432Y-109777265D01*
X69599431Y-109777267D01*
X69572382Y-109835275D01*
X69526209Y-109887714D01*
X69459016Y-109906866D01*
X69392135Y-109886650D01*
X69347618Y-109835275D01*
X69320568Y-109777267D01*
X69320567Y-109777265D01*
X69190045Y-109590858D01*
X69029141Y-109429954D01*
X68842734Y-109299432D01*
X68842732Y-109299431D01*
X68636497Y-109203261D01*
X68636488Y-109203258D01*
X68416697Y-109144366D01*
X68416693Y-109144365D01*
X68416692Y-109144365D01*
X68416691Y-109144364D01*
X68416686Y-109144364D01*
X68190002Y-109124532D01*
X68189998Y-109124532D01*
X67963313Y-109144364D01*
X67963302Y-109144366D01*
X67743511Y-109203258D01*
X67743502Y-109203261D01*
X67537267Y-109299431D01*
X67537265Y-109299432D01*
X67350858Y-109429954D01*
X67189954Y-109590858D01*
X67059432Y-109777265D01*
X67059431Y-109777267D01*
X67032382Y-109835275D01*
X66986209Y-109887714D01*
X66919016Y-109906866D01*
X66852135Y-109886650D01*
X66807618Y-109835275D01*
X66780568Y-109777267D01*
X66780567Y-109777265D01*
X66650045Y-109590858D01*
X66489141Y-109429954D01*
X66302734Y-109299432D01*
X66302732Y-109299431D01*
X66096497Y-109203261D01*
X66096488Y-109203258D01*
X65876697Y-109144366D01*
X65876693Y-109144365D01*
X65876692Y-109144365D01*
X65876691Y-109144364D01*
X65876686Y-109144364D01*
X65650002Y-109124532D01*
X65649998Y-109124532D01*
X65423313Y-109144364D01*
X65423302Y-109144366D01*
X65203511Y-109203258D01*
X65203502Y-109203261D01*
X64997267Y-109299431D01*
X64997265Y-109299432D01*
X64810858Y-109429954D01*
X64649954Y-109590858D01*
X64519432Y-109777265D01*
X64519431Y-109777267D01*
X64423261Y-109983502D01*
X64423258Y-109983511D01*
X64364366Y-110203302D01*
X64364364Y-110203313D01*
X64344532Y-110429998D01*
X37600500Y-110429998D01*
X37600500Y-59299994D01*
X42994859Y-59299994D01*
X42994859Y-59300005D01*
X43015385Y-59547729D01*
X43015387Y-59547738D01*
X43076412Y-59788717D01*
X43176267Y-60016367D01*
X43276562Y-60169881D01*
X44017037Y-59429408D01*
X44034075Y-59492993D01*
X44099901Y-59607007D01*
X44192993Y-59700099D01*
X44307007Y-59765925D01*
X44370591Y-59782962D01*
X43629943Y-60523609D01*
X43676768Y-60560055D01*
X43676771Y-60560057D01*
X43895385Y-60678364D01*
X43895396Y-60678369D01*
X44130506Y-60759083D01*
X44375707Y-60800000D01*
X44624293Y-60800000D01*
X44869493Y-60759083D01*
X45104603Y-60678369D01*
X45104614Y-60678364D01*
X45323230Y-60560056D01*
X45323236Y-60560051D01*
X45370055Y-60523610D01*
X45370056Y-60523609D01*
X44629408Y-59782962D01*
X44692993Y-59765925D01*
X44807007Y-59700099D01*
X44900099Y-59607007D01*
X44965925Y-59492993D01*
X44982962Y-59429409D01*
X45723435Y-60169882D01*
X45823733Y-60016364D01*
X45923587Y-59788717D01*
X45984612Y-59547738D01*
X45984614Y-59547729D01*
X46005141Y-59300005D01*
X46005141Y-59299994D01*
X45984614Y-59052270D01*
X45984612Y-59052261D01*
X45923587Y-58811282D01*
X45823732Y-58583632D01*
X45723435Y-58430116D01*
X44982962Y-59170590D01*
X44965925Y-59107007D01*
X44900099Y-58992993D01*
X44807007Y-58899901D01*
X44692993Y-58834075D01*
X44629409Y-58817037D01*
X45370055Y-58076389D01*
X45370055Y-58076388D01*
X45323236Y-58039947D01*
X45323231Y-58039944D01*
X45104614Y-57921635D01*
X45104603Y-57921630D01*
X44869493Y-57840916D01*
X44624293Y-57800000D01*
X44375707Y-57800000D01*
X44130506Y-57840916D01*
X43895396Y-57921630D01*
X43895385Y-57921635D01*
X43676770Y-58039943D01*
X43629943Y-58076389D01*
X44370591Y-58817037D01*
X44307007Y-58834075D01*
X44192993Y-58899901D01*
X44099901Y-58992993D01*
X44034075Y-59107007D01*
X44017037Y-59170591D01*
X43276563Y-58430117D01*
X43176267Y-58583633D01*
X43176265Y-58583637D01*
X43076412Y-58811282D01*
X43015387Y-59052261D01*
X43015385Y-59052270D01*
X42994859Y-59299994D01*
X37600500Y-59299994D01*
X37600500Y-57299994D01*
X69794357Y-57299994D01*
X69794357Y-57300005D01*
X69814890Y-57547812D01*
X69814892Y-57547824D01*
X69875936Y-57788881D01*
X69975826Y-58016606D01*
X70111833Y-58224782D01*
X70111836Y-58224785D01*
X70280256Y-58407738D01*
X70476491Y-58560474D01*
X70695190Y-58678828D01*
X70930386Y-58759571D01*
X71175665Y-58800500D01*
X71424335Y-58800500D01*
X71669614Y-58759571D01*
X71904810Y-58678828D01*
X72123509Y-58560474D01*
X72319744Y-58407738D01*
X72488164Y-58224785D01*
X72624173Y-58016607D01*
X72724063Y-57788881D01*
X72785108Y-57547821D01*
X72793394Y-57447824D01*
X72805643Y-57300005D01*
X72805643Y-57299994D01*
X72797357Y-57199994D01*
X73494357Y-57199994D01*
X73494357Y-57200005D01*
X73514890Y-57447812D01*
X73514892Y-57447824D01*
X73575936Y-57688881D01*
X73675826Y-57916606D01*
X73811833Y-58124782D01*
X73811836Y-58124785D01*
X73980256Y-58307738D01*
X74176491Y-58460474D01*
X74395190Y-58578828D01*
X74630386Y-58659571D01*
X74875665Y-58700500D01*
X75124335Y-58700500D01*
X75369614Y-58659571D01*
X75604810Y-58578828D01*
X75823509Y-58460474D01*
X76019744Y-58307738D01*
X76188164Y-58124785D01*
X76324173Y-57916607D01*
X76424063Y-57688881D01*
X76485108Y-57447821D01*
X76489712Y-57392261D01*
X76505643Y-57200005D01*
X76505643Y-57199994D01*
X76994357Y-57199994D01*
X76994357Y-57200005D01*
X77014890Y-57447812D01*
X77014892Y-57447824D01*
X77075936Y-57688881D01*
X77175826Y-57916606D01*
X77311833Y-58124782D01*
X77311836Y-58124785D01*
X77480256Y-58307738D01*
X77676491Y-58460474D01*
X77895190Y-58578828D01*
X78130386Y-58659571D01*
X78375665Y-58700500D01*
X78624335Y-58700500D01*
X78869614Y-58659571D01*
X79104810Y-58578828D01*
X79323509Y-58460474D01*
X79519744Y-58307738D01*
X79688164Y-58124785D01*
X79824173Y-57916607D01*
X79924063Y-57688881D01*
X79985108Y-57447821D01*
X79989712Y-57392261D01*
X80005643Y-57200005D01*
X80005643Y-57199994D01*
X79985109Y-56952187D01*
X79985107Y-56952175D01*
X79924063Y-56711118D01*
X79824173Y-56483393D01*
X79688166Y-56275217D01*
X79640672Y-56223625D01*
X79519744Y-56092262D01*
X79323509Y-55939526D01*
X79323507Y-55939525D01*
X79323506Y-55939524D01*
X79104811Y-55821172D01*
X79104802Y-55821169D01*
X78869616Y-55740429D01*
X78624335Y-55699500D01*
X78375665Y-55699500D01*
X78130383Y-55740429D01*
X77895197Y-55821169D01*
X77895188Y-55821172D01*
X77676493Y-55939524D01*
X77480257Y-56092261D01*
X77311833Y-56275217D01*
X77175826Y-56483393D01*
X77075936Y-56711118D01*
X77014892Y-56952175D01*
X77014890Y-56952187D01*
X76994357Y-57199994D01*
X76505643Y-57199994D01*
X76485109Y-56952187D01*
X76485107Y-56952175D01*
X76424063Y-56711118D01*
X76324173Y-56483393D01*
X76188166Y-56275217D01*
X76140672Y-56223625D01*
X76019744Y-56092262D01*
X75823509Y-55939526D01*
X75823507Y-55939525D01*
X75823506Y-55939524D01*
X75604811Y-55821172D01*
X75604802Y-55821169D01*
X75369616Y-55740429D01*
X75124335Y-55699500D01*
X74875665Y-55699500D01*
X74630383Y-55740429D01*
X74395197Y-55821169D01*
X74395188Y-55821172D01*
X74176493Y-55939524D01*
X73980257Y-56092261D01*
X73811833Y-56275217D01*
X73675826Y-56483393D01*
X73575936Y-56711118D01*
X73514892Y-56952175D01*
X73514890Y-56952187D01*
X73494357Y-57199994D01*
X72797357Y-57199994D01*
X72785109Y-57052187D01*
X72785108Y-57052183D01*
X72785108Y-57052179D01*
X72782132Y-57040429D01*
X72723992Y-56810839D01*
X72726616Y-56741018D01*
X72756514Y-56692719D01*
X79112416Y-50336819D01*
X79173739Y-50303334D01*
X79200097Y-50300500D01*
X79464865Y-50300500D01*
X79531904Y-50320185D01*
X79577659Y-50372989D01*
X79587603Y-50442147D01*
X79582796Y-50462817D01*
X79563505Y-50522189D01*
X79563503Y-50522194D01*
X79544815Y-50700000D01*
X79563503Y-50877805D01*
X79563504Y-50877807D01*
X79618747Y-51047829D01*
X79618750Y-51047835D01*
X79708141Y-51202665D01*
X79749812Y-51248946D01*
X79827764Y-51335521D01*
X79827767Y-51335523D01*
X79827770Y-51335526D01*
X79972407Y-51440612D01*
X80135733Y-51513329D01*
X80310609Y-51550500D01*
X80349903Y-51550500D01*
X80416942Y-51570185D01*
X80437584Y-51586819D01*
X80763181Y-51912416D01*
X80796666Y-51973739D01*
X80799500Y-52000097D01*
X80799500Y-53113330D01*
X80799499Y-53113348D01*
X80799499Y-53279054D01*
X80799498Y-53279054D01*
X80840423Y-53431785D01*
X80869358Y-53481900D01*
X80869359Y-53481904D01*
X80869360Y-53481904D01*
X80919479Y-53568714D01*
X80919481Y-53568717D01*
X81038349Y-53687585D01*
X81038355Y-53687590D01*
X83513066Y-56162302D01*
X83546551Y-56223625D01*
X83548706Y-56237021D01*
X83563503Y-56377804D01*
X83563504Y-56377807D01*
X83618747Y-56547829D01*
X83618750Y-56547835D01*
X83708141Y-56702665D01*
X83719526Y-56715309D01*
X83827764Y-56835521D01*
X83827767Y-56835523D01*
X83827770Y-56835526D01*
X83972407Y-56940612D01*
X84135733Y-57013329D01*
X84310609Y-57050500D01*
X84310610Y-57050500D01*
X84489389Y-57050500D01*
X84489391Y-57050500D01*
X84664267Y-57013329D01*
X84827593Y-56940612D01*
X84972230Y-56835526D01*
X85091859Y-56702665D01*
X85181250Y-56547835D01*
X85236497Y-56377803D01*
X85255185Y-56200000D01*
X85236497Y-56022197D01*
X85190522Y-55880700D01*
X85181252Y-55852170D01*
X85181249Y-55852164D01*
X85163354Y-55821169D01*
X85091859Y-55697335D01*
X85045003Y-55645296D01*
X84972235Y-55564478D01*
X84972232Y-55564476D01*
X84972231Y-55564475D01*
X84972230Y-55564474D01*
X84827593Y-55459388D01*
X84664267Y-55386671D01*
X84664265Y-55386670D01*
X84536594Y-55359533D01*
X84489391Y-55349500D01*
X84489390Y-55349500D01*
X84450098Y-55349500D01*
X84383059Y-55329815D01*
X84362417Y-55313181D01*
X82036819Y-52987583D01*
X82003334Y-52926260D01*
X82000500Y-52899902D01*
X82000500Y-51789060D01*
X82000501Y-51789047D01*
X82000501Y-51620944D01*
X82000501Y-51620943D01*
X81959577Y-51468216D01*
X81943639Y-51440610D01*
X81880524Y-51331290D01*
X81880518Y-51331282D01*
X81286933Y-50737697D01*
X81253448Y-50676374D01*
X81251295Y-50662992D01*
X81236497Y-50522197D01*
X81229016Y-50499174D01*
X81217204Y-50462817D01*
X81215209Y-50392976D01*
X81251290Y-50333144D01*
X81313991Y-50302316D01*
X81335135Y-50300500D01*
X81441271Y-50300500D01*
X81508310Y-50320185D01*
X81524245Y-50332351D01*
X81527766Y-50335521D01*
X81527770Y-50335526D01*
X81672407Y-50440612D01*
X81835733Y-50513329D01*
X82010609Y-50550500D01*
X82010610Y-50550500D01*
X82189389Y-50550500D01*
X82189391Y-50550500D01*
X82364267Y-50513329D01*
X82527593Y-50440612D01*
X82672230Y-50335526D01*
X82683274Y-50323261D01*
X82701216Y-50303334D01*
X82791859Y-50202665D01*
X82881250Y-50047835D01*
X82936497Y-49877803D01*
X82955185Y-49700000D01*
X82936497Y-49522197D01*
X82881250Y-49352165D01*
X82791859Y-49197335D01*
X82703768Y-49099500D01*
X82672235Y-49064478D01*
X82672232Y-49064476D01*
X82672231Y-49064475D01*
X82672230Y-49064474D01*
X82527593Y-48959388D01*
X82364267Y-48886671D01*
X82364265Y-48886670D01*
X82236594Y-48859533D01*
X82189391Y-48849500D01*
X82010609Y-48849500D01*
X81979954Y-48856015D01*
X81835733Y-48886670D01*
X81835728Y-48886672D01*
X81672408Y-48959387D01*
X81527772Y-49064472D01*
X81524245Y-49067649D01*
X81461253Y-49097879D01*
X81441271Y-49099500D01*
X78979057Y-49099500D01*
X78820943Y-49099500D01*
X78668215Y-49140423D01*
X78668214Y-49140423D01*
X78668212Y-49140424D01*
X78668209Y-49140425D01*
X78618096Y-49169359D01*
X78618095Y-49169360D01*
X78574689Y-49194420D01*
X78531285Y-49219479D01*
X78531282Y-49219481D01*
X78419478Y-49331286D01*
X71903548Y-55847215D01*
X71842225Y-55880700D01*
X71775604Y-55876815D01*
X71669616Y-55840429D01*
X71424335Y-55799500D01*
X71175665Y-55799500D01*
X70930383Y-55840429D01*
X70695197Y-55921169D01*
X70695188Y-55921172D01*
X70476493Y-56039524D01*
X70280257Y-56192261D01*
X70111833Y-56375217D01*
X69975826Y-56583393D01*
X69875936Y-56811118D01*
X69814892Y-57052175D01*
X69814890Y-57052187D01*
X69794357Y-57299994D01*
X37600500Y-57299994D01*
X37600500Y-55049997D01*
X47295034Y-55049997D01*
X47295034Y-55050002D01*
X47314858Y-55276599D01*
X47314860Y-55276610D01*
X47373730Y-55496317D01*
X47373735Y-55496331D01*
X47469863Y-55702478D01*
X47520974Y-55775472D01*
X48200000Y-55096446D01*
X48200000Y-55102661D01*
X48227259Y-55204394D01*
X48279920Y-55295606D01*
X48354394Y-55370080D01*
X48445606Y-55422741D01*
X48547339Y-55450000D01*
X48553553Y-55450000D01*
X47874526Y-56129025D01*
X47947513Y-56180132D01*
X47947521Y-56180136D01*
X48153668Y-56276264D01*
X48153682Y-56276269D01*
X48373389Y-56335139D01*
X48373400Y-56335141D01*
X48599998Y-56354966D01*
X48600002Y-56354966D01*
X48826599Y-56335141D01*
X48826610Y-56335139D01*
X49046317Y-56276269D01*
X49046331Y-56276264D01*
X49252478Y-56180136D01*
X49325471Y-56129024D01*
X48646447Y-55450000D01*
X48652661Y-55450000D01*
X48754394Y-55422741D01*
X48845606Y-55370080D01*
X48920080Y-55295606D01*
X48972741Y-55204394D01*
X49000000Y-55102661D01*
X49000000Y-55096447D01*
X49679024Y-55775471D01*
X49730136Y-55702478D01*
X49826264Y-55496331D01*
X49826269Y-55496317D01*
X49885139Y-55276610D01*
X49885141Y-55276599D01*
X49904966Y-55050002D01*
X49904966Y-55049997D01*
X49885141Y-54823400D01*
X49885139Y-54823389D01*
X49826269Y-54603682D01*
X49826264Y-54603668D01*
X49730136Y-54397521D01*
X49730132Y-54397513D01*
X49679025Y-54324526D01*
X49000000Y-55003551D01*
X49000000Y-54997339D01*
X48972741Y-54895606D01*
X48920080Y-54804394D01*
X48845606Y-54729920D01*
X48754394Y-54677259D01*
X48652661Y-54650000D01*
X48646445Y-54650000D01*
X49325472Y-53970974D01*
X49252478Y-53919863D01*
X49046331Y-53823735D01*
X49046317Y-53823730D01*
X48826610Y-53764860D01*
X48826599Y-53764858D01*
X48600002Y-53745034D01*
X48599998Y-53745034D01*
X48373400Y-53764858D01*
X48373389Y-53764860D01*
X48153682Y-53823730D01*
X48153673Y-53823734D01*
X47947516Y-53919866D01*
X47947512Y-53919868D01*
X47874526Y-53970973D01*
X47874526Y-53970974D01*
X48553553Y-54650000D01*
X48547339Y-54650000D01*
X48445606Y-54677259D01*
X48354394Y-54729920D01*
X48279920Y-54804394D01*
X48227259Y-54895606D01*
X48200000Y-54997339D01*
X48200000Y-55003552D01*
X47520974Y-54324526D01*
X47520973Y-54324526D01*
X47469868Y-54397512D01*
X47469866Y-54397516D01*
X47373734Y-54603673D01*
X47373730Y-54603682D01*
X47314860Y-54823389D01*
X47314858Y-54823400D01*
X47295034Y-55049997D01*
X37600500Y-55049997D01*
X37600500Y-51549998D01*
X47294532Y-51549998D01*
X47294532Y-51550001D01*
X47314364Y-51776686D01*
X47314366Y-51776697D01*
X47373258Y-51996488D01*
X47373261Y-51996497D01*
X47469431Y-52202732D01*
X47469432Y-52202734D01*
X47599954Y-52389141D01*
X47760858Y-52550045D01*
X47760861Y-52550047D01*
X47947266Y-52680568D01*
X48153504Y-52776739D01*
X48373308Y-52835635D01*
X48535230Y-52849801D01*
X48599998Y-52855468D01*
X48600000Y-52855468D01*
X48600002Y-52855468D01*
X48656673Y-52850509D01*
X48826692Y-52835635D01*
X49046496Y-52776739D01*
X49252734Y-52680568D01*
X49439139Y-52550047D01*
X49600047Y-52389139D01*
X49662466Y-52299994D01*
X69694357Y-52299994D01*
X69694357Y-52300005D01*
X69714890Y-52547812D01*
X69714892Y-52547824D01*
X69775936Y-52788881D01*
X69875826Y-53016606D01*
X70011833Y-53224782D01*
X70011836Y-53224785D01*
X70180256Y-53407738D01*
X70376491Y-53560474D01*
X70595190Y-53678828D01*
X70830386Y-53759571D01*
X71075665Y-53800500D01*
X71324335Y-53800500D01*
X71569614Y-53759571D01*
X71804810Y-53678828D01*
X72023509Y-53560474D01*
X72219744Y-53407738D01*
X72388164Y-53224785D01*
X72524173Y-53016607D01*
X72624063Y-52788881D01*
X72685108Y-52547821D01*
X72705643Y-52300000D01*
X72704972Y-52291905D01*
X72685109Y-52052187D01*
X72685107Y-52052175D01*
X72624063Y-51811118D01*
X72524173Y-51583393D01*
X72388164Y-51375215D01*
X72219744Y-51192262D01*
X72023509Y-51039526D01*
X72023507Y-51039525D01*
X72023506Y-51039524D01*
X71804811Y-50921172D01*
X71804802Y-50921169D01*
X71569616Y-50840429D01*
X71324335Y-50799500D01*
X71075665Y-50799500D01*
X70830383Y-50840429D01*
X70595197Y-50921169D01*
X70595188Y-50921172D01*
X70376493Y-51039524D01*
X70191651Y-51183393D01*
X70180256Y-51192262D01*
X70086246Y-51294384D01*
X70011836Y-51375215D01*
X69875826Y-51583393D01*
X69775936Y-51811118D01*
X69714892Y-52052175D01*
X69714890Y-52052187D01*
X69694357Y-52299994D01*
X49662466Y-52299994D01*
X49730568Y-52202734D01*
X49826739Y-51996496D01*
X49885635Y-51776692D01*
X49905468Y-51550000D01*
X49904804Y-51542415D01*
X49895898Y-51440612D01*
X49885635Y-51323308D01*
X49826739Y-51103504D01*
X49730568Y-50897266D01*
X49600047Y-50710861D01*
X49600045Y-50710858D01*
X49439141Y-50549954D01*
X49252734Y-50419432D01*
X49252732Y-50419431D01*
X49046497Y-50323261D01*
X49046488Y-50323258D01*
X48826697Y-50264366D01*
X48826693Y-50264365D01*
X48826692Y-50264365D01*
X48826691Y-50264364D01*
X48826686Y-50264364D01*
X48600002Y-50244532D01*
X48599998Y-50244532D01*
X48373313Y-50264364D01*
X48373302Y-50264366D01*
X48153511Y-50323258D01*
X48153502Y-50323261D01*
X47947267Y-50419431D01*
X47947265Y-50419432D01*
X47760858Y-50549954D01*
X47599954Y-50710858D01*
X47469432Y-50897265D01*
X47469431Y-50897267D01*
X47373261Y-51103502D01*
X47373258Y-51103511D01*
X47314366Y-51323302D01*
X47314364Y-51323313D01*
X47294532Y-51549998D01*
X37600500Y-51549998D01*
X37600500Y-46299994D01*
X50394357Y-46299994D01*
X50394357Y-46300005D01*
X50414890Y-46547812D01*
X50414892Y-46547824D01*
X50475936Y-46788881D01*
X50575826Y-47016606D01*
X50711833Y-47224782D01*
X50711836Y-47224785D01*
X50880256Y-47407738D01*
X51076491Y-47560474D01*
X51076493Y-47560475D01*
X51265345Y-47662677D01*
X51295190Y-47678828D01*
X51530386Y-47759571D01*
X51775665Y-47800500D01*
X52024335Y-47800500D01*
X52269614Y-47759571D01*
X52443138Y-47700000D01*
X63944815Y-47700000D01*
X63963503Y-47877805D01*
X63963504Y-47877807D01*
X64018747Y-48047829D01*
X64018750Y-48047835D01*
X64108141Y-48202665D01*
X64149812Y-48248946D01*
X64227764Y-48335521D01*
X64227767Y-48335523D01*
X64227770Y-48335526D01*
X64372407Y-48440612D01*
X64535733Y-48513329D01*
X64710609Y-48550500D01*
X64710610Y-48550500D01*
X64889389Y-48550500D01*
X64889391Y-48550500D01*
X65064267Y-48513329D01*
X65227593Y-48440612D01*
X65372230Y-48335526D01*
X65491859Y-48202665D01*
X65581250Y-48047835D01*
X65636497Y-47877803D01*
X65651294Y-47737016D01*
X65677877Y-47672405D01*
X65686924Y-47662309D01*
X68449233Y-44900000D01*
X79244815Y-44900000D01*
X79263503Y-45077805D01*
X79263504Y-45077807D01*
X79318747Y-45247829D01*
X79318750Y-45247835D01*
X79408141Y-45402665D01*
X79423006Y-45419174D01*
X79527764Y-45535521D01*
X79527767Y-45535523D01*
X79527770Y-45535526D01*
X79672407Y-45640612D01*
X79835733Y-45713329D01*
X80010609Y-45750500D01*
X80049903Y-45750500D01*
X80116942Y-45770185D01*
X80137584Y-45786819D01*
X84338584Y-49987819D01*
X84372069Y-50049142D01*
X84367085Y-50118834D01*
X84325213Y-50174767D01*
X84259749Y-50199184D01*
X84250903Y-50199500D01*
X84075665Y-50199500D01*
X83830383Y-50240429D01*
X83595197Y-50321169D01*
X83595188Y-50321172D01*
X83376493Y-50439524D01*
X83180257Y-50592261D01*
X83011833Y-50775217D01*
X82875826Y-50983393D01*
X82775936Y-51211118D01*
X82714892Y-51452175D01*
X82714890Y-51452187D01*
X82694357Y-51699994D01*
X82694357Y-51700005D01*
X82714890Y-51947812D01*
X82714892Y-51947824D01*
X82775936Y-52188881D01*
X82875826Y-52416606D01*
X83011833Y-52624782D01*
X83011836Y-52624785D01*
X83180256Y-52807738D01*
X83376491Y-52960474D01*
X83595190Y-53078828D01*
X83830386Y-53159571D01*
X84075665Y-53200500D01*
X84324335Y-53200500D01*
X84569608Y-53159572D01*
X84569607Y-53159572D01*
X84569614Y-53159571D01*
X84675607Y-53123182D01*
X84745402Y-53120033D01*
X84803548Y-53152783D01*
X85863181Y-54212416D01*
X85896666Y-54273739D01*
X85899500Y-54300097D01*
X85899500Y-56648270D01*
X85879815Y-56715309D01*
X85867650Y-56731242D01*
X85808144Y-56797329D01*
X85808139Y-56797336D01*
X85718750Y-56952164D01*
X85718747Y-56952170D01*
X85663504Y-57122192D01*
X85663503Y-57122194D01*
X85644815Y-57300000D01*
X85663503Y-57477805D01*
X85663504Y-57477807D01*
X85718747Y-57647829D01*
X85718750Y-57647835D01*
X85808141Y-57802665D01*
X85849812Y-57848946D01*
X85927764Y-57935521D01*
X85927767Y-57935523D01*
X85927770Y-57935526D01*
X86072407Y-58040612D01*
X86235733Y-58113329D01*
X86410609Y-58150500D01*
X86410610Y-58150500D01*
X86589389Y-58150500D01*
X86589391Y-58150500D01*
X86764267Y-58113329D01*
X86927593Y-58040612D01*
X87072230Y-57935526D01*
X87191859Y-57802665D01*
X87281250Y-57647835D01*
X87336497Y-57477803D01*
X87355185Y-57300000D01*
X87336497Y-57122197D01*
X87308873Y-57037181D01*
X87281252Y-56952170D01*
X87281249Y-56952164D01*
X87274578Y-56940610D01*
X87201093Y-56813329D01*
X87191860Y-56797336D01*
X87191855Y-56797329D01*
X87132350Y-56731242D01*
X87102120Y-56668250D01*
X87100500Y-56648270D01*
X87100500Y-55063844D01*
X87120185Y-54996805D01*
X87172989Y-54951050D01*
X87242147Y-54941106D01*
X87305703Y-54970131D01*
X87328309Y-54996023D01*
X87376563Y-55069881D01*
X88117036Y-54329407D01*
X88134075Y-54392993D01*
X88199901Y-54507007D01*
X88292993Y-54600099D01*
X88407007Y-54665925D01*
X88470591Y-54682962D01*
X87729943Y-55423609D01*
X87776768Y-55460055D01*
X87776771Y-55460057D01*
X87995385Y-55578364D01*
X87995396Y-55578369D01*
X88230506Y-55659083D01*
X88475707Y-55700000D01*
X88724293Y-55700000D01*
X88969493Y-55659083D01*
X89204603Y-55578369D01*
X89204614Y-55578364D01*
X89423230Y-55460056D01*
X89423236Y-55460051D01*
X89470055Y-55423610D01*
X89470056Y-55423609D01*
X88729408Y-54682962D01*
X88792993Y-54665925D01*
X88907007Y-54600099D01*
X89000099Y-54507007D01*
X89065925Y-54392993D01*
X89082962Y-54329409D01*
X89823435Y-55069882D01*
X89923733Y-54916364D01*
X90023587Y-54688717D01*
X90084612Y-54447738D01*
X90084614Y-54447729D01*
X90105141Y-54200000D01*
X90105141Y-54199994D01*
X90084614Y-53952270D01*
X90084612Y-53952261D01*
X90023587Y-53711282D01*
X89923732Y-53483633D01*
X89923671Y-53483519D01*
X89923659Y-53483466D01*
X89921672Y-53478935D01*
X89922604Y-53478526D01*
X89909075Y-53415191D01*
X89933737Y-53349818D01*
X89989827Y-53308157D01*
X90032725Y-53300500D01*
X91133742Y-53300500D01*
X91200781Y-53320185D01*
X91246536Y-53372989D01*
X91256480Y-53442147D01*
X91246124Y-53476905D01*
X91199578Y-53576720D01*
X91199575Y-53576729D01*
X91142426Y-53790013D01*
X91142424Y-53790023D01*
X91123179Y-54009999D01*
X91123179Y-54010000D01*
X91142424Y-54229976D01*
X91142426Y-54229986D01*
X91199575Y-54443270D01*
X91199580Y-54443284D01*
X91292898Y-54643405D01*
X91292901Y-54643411D01*
X91338258Y-54708187D01*
X91338258Y-54708188D01*
X91983600Y-54062846D01*
X91983600Y-54063504D01*
X92011295Y-54166865D01*
X92064799Y-54259536D01*
X92140464Y-54335201D01*
X92233135Y-54388705D01*
X92336496Y-54416400D01*
X92337153Y-54416400D01*
X91691810Y-55061740D01*
X91756590Y-55107099D01*
X91756592Y-55107100D01*
X91956715Y-55200419D01*
X91956729Y-55200424D01*
X92170013Y-55257573D01*
X92170023Y-55257575D01*
X92389999Y-55276821D01*
X92390001Y-55276821D01*
X92609976Y-55257575D01*
X92609986Y-55257573D01*
X92823270Y-55200424D01*
X92823284Y-55200419D01*
X93023407Y-55107100D01*
X93023417Y-55107094D01*
X93088188Y-55061741D01*
X92442848Y-54416400D01*
X92443504Y-54416400D01*
X92546865Y-54388705D01*
X92639536Y-54335201D01*
X92715201Y-54259536D01*
X92768705Y-54166865D01*
X92796400Y-54063504D01*
X92796400Y-54062847D01*
X93441741Y-54708188D01*
X93487094Y-54643417D01*
X93487100Y-54643407D01*
X93580419Y-54443284D01*
X93580424Y-54443270D01*
X93637573Y-54229986D01*
X93637575Y-54229976D01*
X93656821Y-54010000D01*
X93656821Y-54009999D01*
X93637575Y-53790023D01*
X93637573Y-53790013D01*
X93580424Y-53576729D01*
X93580421Y-53576720D01*
X93533876Y-53476905D01*
X93523384Y-53407828D01*
X93551904Y-53344044D01*
X93610380Y-53305804D01*
X93646258Y-53300500D01*
X98753189Y-53300500D01*
X98820228Y-53320185D01*
X98865983Y-53372989D01*
X98875927Y-53442147D01*
X98865571Y-53476904D01*
X98819108Y-53576543D01*
X98819104Y-53576554D01*
X98761930Y-53789929D01*
X98761929Y-53789937D01*
X98742677Y-54009997D01*
X98742677Y-54010000D01*
X98761929Y-54230062D01*
X98761930Y-54230070D01*
X98819104Y-54443445D01*
X98819105Y-54443447D01*
X98819106Y-54443450D01*
X98821106Y-54447738D01*
X98912466Y-54643662D01*
X98912468Y-54643666D01*
X99039170Y-54824615D01*
X99039175Y-54824621D01*
X99195378Y-54980824D01*
X99195384Y-54980829D01*
X99376333Y-55107531D01*
X99376335Y-55107532D01*
X99376338Y-55107534D01*
X99576550Y-55200894D01*
X99789932Y-55258070D01*
X99947123Y-55271822D01*
X100009998Y-55277323D01*
X100010000Y-55277323D01*
X100010002Y-55277323D01*
X100065017Y-55272509D01*
X100230068Y-55258070D01*
X100443450Y-55200894D01*
X100643662Y-55107534D01*
X100824620Y-54980826D01*
X100980826Y-54824620D01*
X101107534Y-54643662D01*
X101200894Y-54443450D01*
X101258070Y-54230068D01*
X101259250Y-54216568D01*
X101284698Y-54151504D01*
X101341287Y-54110523D01*
X101411049Y-54106641D01*
X101470459Y-54139694D01*
X102268584Y-54937819D01*
X102302069Y-54999142D01*
X102297085Y-55068834D01*
X102255213Y-55124767D01*
X102189749Y-55149184D01*
X102180903Y-55149500D01*
X102110609Y-55149500D01*
X102079954Y-55156015D01*
X101935733Y-55186670D01*
X101935728Y-55186672D01*
X101772408Y-55259387D01*
X101627768Y-55364475D01*
X101508140Y-55497336D01*
X101418750Y-55652164D01*
X101418747Y-55652170D01*
X101363504Y-55822192D01*
X101363503Y-55822194D01*
X101344815Y-56000000D01*
X101363503Y-56177805D01*
X101363504Y-56177807D01*
X101418747Y-56347829D01*
X101418750Y-56347835D01*
X101508141Y-56502665D01*
X101548807Y-56547829D01*
X101627764Y-56635521D01*
X101627767Y-56635523D01*
X101627770Y-56635526D01*
X101772407Y-56740612D01*
X101935733Y-56813329D01*
X102110609Y-56850500D01*
X102149903Y-56850500D01*
X102216942Y-56870185D01*
X102237584Y-56886819D01*
X106073181Y-60722416D01*
X106106666Y-60783739D01*
X106109500Y-60810097D01*
X106109500Y-60932487D01*
X106089815Y-60999526D01*
X106037011Y-61045281D01*
X105967853Y-61055225D01*
X105927805Y-61041365D01*
X105927640Y-61041720D01*
X105924216Y-61040123D01*
X105923507Y-61039878D01*
X105922738Y-61039434D01*
X105922654Y-61039395D01*
X105837156Y-60999526D01*
X105716497Y-60943261D01*
X105716488Y-60943258D01*
X105496697Y-60884366D01*
X105496693Y-60884365D01*
X105496692Y-60884365D01*
X105496691Y-60884364D01*
X105496686Y-60884364D01*
X105270002Y-60864532D01*
X105269998Y-60864532D01*
X105043313Y-60884364D01*
X105043302Y-60884366D01*
X104823511Y-60943258D01*
X104823502Y-60943261D01*
X104617267Y-61039431D01*
X104617265Y-61039432D01*
X104430858Y-61169954D01*
X104269954Y-61330858D01*
X104139432Y-61517265D01*
X104139431Y-61517267D01*
X104112382Y-61575275D01*
X104066209Y-61627714D01*
X103999016Y-61646866D01*
X103932135Y-61626650D01*
X103887618Y-61575275D01*
X103860568Y-61517267D01*
X103860567Y-61517265D01*
X103860117Y-61516623D01*
X103730047Y-61330861D01*
X103730045Y-61330858D01*
X103569141Y-61169954D01*
X103382734Y-61039432D01*
X103382732Y-61039431D01*
X103176497Y-60943261D01*
X103176488Y-60943258D01*
X102956697Y-60884366D01*
X102956693Y-60884365D01*
X102956692Y-60884365D01*
X102956691Y-60884364D01*
X102956686Y-60884364D01*
X102730002Y-60864532D01*
X102729998Y-60864532D01*
X102503313Y-60884364D01*
X102503302Y-60884366D01*
X102283511Y-60943258D01*
X102283502Y-60943261D01*
X102077267Y-61039431D01*
X102077265Y-61039432D01*
X101890858Y-61169954D01*
X101729954Y-61330858D01*
X101599432Y-61517265D01*
X101599431Y-61517267D01*
X101572382Y-61575275D01*
X101526209Y-61627714D01*
X101459016Y-61646866D01*
X101392135Y-61626650D01*
X101347618Y-61575275D01*
X101320568Y-61517267D01*
X101320567Y-61517265D01*
X101320117Y-61516623D01*
X101190047Y-61330861D01*
X101190045Y-61330858D01*
X101029141Y-61169954D01*
X100842734Y-61039432D01*
X100842732Y-61039431D01*
X100636497Y-60943261D01*
X100636488Y-60943258D01*
X100416697Y-60884366D01*
X100416693Y-60884365D01*
X100416692Y-60884365D01*
X100416691Y-60884364D01*
X100416686Y-60884364D01*
X100190002Y-60864532D01*
X100189998Y-60864532D01*
X99963313Y-60884364D01*
X99963302Y-60884366D01*
X99743511Y-60943258D01*
X99743502Y-60943261D01*
X99537267Y-61039431D01*
X99537265Y-61039432D01*
X99350858Y-61169954D01*
X99189954Y-61330858D01*
X99059432Y-61517265D01*
X99059431Y-61517267D01*
X99032382Y-61575275D01*
X98986209Y-61627714D01*
X98919016Y-61646866D01*
X98852135Y-61626650D01*
X98807618Y-61575275D01*
X98780568Y-61517267D01*
X98780567Y-61517265D01*
X98780117Y-61516623D01*
X98650047Y-61330861D01*
X98650045Y-61330858D01*
X98489141Y-61169954D01*
X98302734Y-61039432D01*
X98302732Y-61039431D01*
X98096497Y-60943261D01*
X98096488Y-60943258D01*
X97876697Y-60884366D01*
X97876693Y-60884365D01*
X97876692Y-60884365D01*
X97876691Y-60884364D01*
X97876686Y-60884364D01*
X97650002Y-60864532D01*
X97649998Y-60864532D01*
X97423313Y-60884364D01*
X97423302Y-60884366D01*
X97203511Y-60943258D01*
X97203502Y-60943261D01*
X96997267Y-61039431D01*
X96997265Y-61039432D01*
X96810858Y-61169954D01*
X96649954Y-61330858D01*
X96519432Y-61517265D01*
X96519431Y-61517267D01*
X96423261Y-61723502D01*
X96423258Y-61723511D01*
X96364366Y-61943302D01*
X96364364Y-61943313D01*
X96344532Y-62169998D01*
X96344532Y-62170001D01*
X96364364Y-62396686D01*
X96364366Y-62396697D01*
X96423258Y-62616488D01*
X96423261Y-62616497D01*
X96519431Y-62822732D01*
X96519432Y-62822734D01*
X96649954Y-63009141D01*
X96810858Y-63170045D01*
X96810861Y-63170047D01*
X96997266Y-63300568D01*
X97203504Y-63396739D01*
X97423308Y-63455635D01*
X97585230Y-63469801D01*
X97649998Y-63475468D01*
X97650000Y-63475468D01*
X97650002Y-63475468D01*
X97706807Y-63470498D01*
X97876692Y-63455635D01*
X98096496Y-63396739D01*
X98302734Y-63300568D01*
X98489139Y-63170047D01*
X98650047Y-63009139D01*
X98780568Y-62822734D01*
X98807618Y-62764724D01*
X98853790Y-62712285D01*
X98920983Y-62693133D01*
X98987865Y-62713348D01*
X99032382Y-62764725D01*
X99059429Y-62822728D01*
X99059432Y-62822734D01*
X99189954Y-63009141D01*
X99350858Y-63170045D01*
X99350861Y-63170047D01*
X99537266Y-63300568D01*
X99743504Y-63396739D01*
X99963308Y-63455635D01*
X100125230Y-63469801D01*
X100189998Y-63475468D01*
X100190000Y-63475468D01*
X100190002Y-63475468D01*
X100246807Y-63470498D01*
X100416692Y-63455635D01*
X100636496Y-63396739D01*
X100842734Y-63300568D01*
X101029139Y-63170047D01*
X101190047Y-63009139D01*
X101320568Y-62822734D01*
X101347618Y-62764724D01*
X101393790Y-62712285D01*
X101460983Y-62693133D01*
X101527865Y-62713348D01*
X101572382Y-62764725D01*
X101599429Y-62822728D01*
X101599432Y-62822734D01*
X101729954Y-63009141D01*
X101890858Y-63170045D01*
X101890861Y-63170047D01*
X102077266Y-63300568D01*
X102283504Y-63396739D01*
X102503308Y-63455635D01*
X102665230Y-63469801D01*
X102729998Y-63475468D01*
X102730000Y-63475468D01*
X102730002Y-63475468D01*
X102786807Y-63470498D01*
X102956692Y-63455635D01*
X103176496Y-63396739D01*
X103382734Y-63300568D01*
X103569139Y-63170047D01*
X103730047Y-63009139D01*
X103860568Y-62822734D01*
X103887618Y-62764724D01*
X103933790Y-62712285D01*
X104000983Y-62693133D01*
X104067865Y-62713348D01*
X104112382Y-62764725D01*
X104139429Y-62822728D01*
X104139432Y-62822734D01*
X104269954Y-63009141D01*
X104430858Y-63170045D01*
X104430861Y-63170047D01*
X104617266Y-63300568D01*
X104823504Y-63396739D01*
X105043308Y-63455635D01*
X105205230Y-63469801D01*
X105269998Y-63475468D01*
X105270000Y-63475468D01*
X105270002Y-63475468D01*
X105326807Y-63470498D01*
X105496692Y-63455635D01*
X105716496Y-63396739D01*
X105922734Y-63300568D01*
X106109139Y-63170047D01*
X106169478Y-63109707D01*
X106230798Y-63076224D01*
X106300490Y-63081208D01*
X106328477Y-63099194D01*
X106329454Y-63097730D01*
X106329457Y-63097732D01*
X106341266Y-63107413D01*
X106344838Y-63109709D01*
X106348349Y-63113220D01*
X106348354Y-63113224D01*
X106985649Y-63750520D01*
X106985651Y-63750521D01*
X106985655Y-63750524D01*
X107110630Y-63822677D01*
X107122581Y-63829577D01*
X107275308Y-63870501D01*
X107275310Y-63870501D01*
X107441019Y-63870501D01*
X107441035Y-63870500D01*
X110718966Y-63870500D01*
X110718982Y-63870501D01*
X110726578Y-63870501D01*
X110884689Y-63870501D01*
X110884692Y-63870501D01*
X111037420Y-63829577D01*
X111087539Y-63800639D01*
X111174351Y-63750520D01*
X111286155Y-63638716D01*
X111286155Y-63638714D01*
X111296363Y-63628507D01*
X111296364Y-63628504D01*
X111930520Y-62994351D01*
X112009577Y-62857419D01*
X112050501Y-62704692D01*
X112050501Y-62546577D01*
X112050501Y-62538982D01*
X112050500Y-62538964D01*
X112050500Y-61497165D01*
X112050501Y-61497152D01*
X112050501Y-61329049D01*
X112050501Y-61329048D01*
X112009577Y-61176321D01*
X112005901Y-61169954D01*
X111930524Y-61039395D01*
X111930518Y-61039387D01*
X100937485Y-50046355D01*
X100937483Y-50046352D01*
X100895969Y-50004838D01*
X100862484Y-49943515D01*
X100867468Y-49873823D01*
X100895965Y-49829480D01*
X100980826Y-49744620D01*
X101107534Y-49563662D01*
X101200894Y-49363450D01*
X101258070Y-49150068D01*
X101274046Y-48967454D01*
X101277323Y-48930002D01*
X101277323Y-48929997D01*
X101274698Y-48899994D01*
X101994357Y-48899994D01*
X101994357Y-48900005D01*
X102014890Y-49147812D01*
X102014892Y-49147824D01*
X102075936Y-49388881D01*
X102175826Y-49616606D01*
X102311833Y-49824782D01*
X102311836Y-49824785D01*
X102480256Y-50007738D01*
X102676491Y-50160474D01*
X102676493Y-50160475D01*
X102868466Y-50264366D01*
X102895190Y-50278828D01*
X103130386Y-50359571D01*
X103375665Y-50400500D01*
X103624335Y-50400500D01*
X103869608Y-50359572D01*
X103869607Y-50359572D01*
X103869614Y-50359571D01*
X103975607Y-50323182D01*
X104045402Y-50320033D01*
X104103548Y-50352783D01*
X123788584Y-70037819D01*
X123822069Y-70099142D01*
X123817085Y-70168834D01*
X123775213Y-70224767D01*
X123709749Y-70249184D01*
X123700903Y-70249500D01*
X121150098Y-70249500D01*
X121083059Y-70229815D01*
X121062417Y-70213181D01*
X117786933Y-66937697D01*
X117753448Y-66876374D01*
X117751295Y-66862992D01*
X117736497Y-66722197D01*
X117708873Y-66637181D01*
X117681252Y-66552170D01*
X117681249Y-66552164D01*
X117648998Y-66496303D01*
X117591859Y-66397335D01*
X117538496Y-66338070D01*
X117472235Y-66264478D01*
X117472232Y-66264476D01*
X117472231Y-66264475D01*
X117472230Y-66264474D01*
X117327593Y-66159388D01*
X117164267Y-66086671D01*
X117164265Y-66086670D01*
X117036594Y-66059533D01*
X116989391Y-66049500D01*
X116810609Y-66049500D01*
X116779954Y-66056015D01*
X116635733Y-66086670D01*
X116635728Y-66086672D01*
X116472408Y-66159387D01*
X116327768Y-66264475D01*
X116208140Y-66397336D01*
X116118750Y-66552164D01*
X116118747Y-66552170D01*
X116063504Y-66722192D01*
X116063503Y-66722194D01*
X116044815Y-66900000D01*
X116063503Y-67077805D01*
X116063504Y-67077807D01*
X116118747Y-67247829D01*
X116118750Y-67247835D01*
X116208141Y-67402665D01*
X116249812Y-67448946D01*
X116327764Y-67535521D01*
X116327767Y-67535523D01*
X116327770Y-67535526D01*
X116472407Y-67640612D01*
X116635733Y-67713329D01*
X116810609Y-67750500D01*
X116849903Y-67750500D01*
X116916942Y-67770185D01*
X116937583Y-67786818D01*
X120481284Y-71330520D01*
X120481286Y-71330521D01*
X120481290Y-71330524D01*
X120568093Y-71380639D01*
X120618216Y-71409577D01*
X120770943Y-71450501D01*
X120770945Y-71450501D01*
X120936654Y-71450501D01*
X120936670Y-71450500D01*
X121694372Y-71450500D01*
X121761411Y-71470185D01*
X121807166Y-71522989D01*
X121817110Y-71592147D01*
X121788085Y-71655703D01*
X121765495Y-71676075D01*
X121675377Y-71739175D01*
X121519175Y-71895377D01*
X121392466Y-72076338D01*
X121392465Y-72076340D01*
X121299107Y-72276548D01*
X121299104Y-72276554D01*
X121241930Y-72489929D01*
X121241929Y-72489937D01*
X121222677Y-72709997D01*
X121222677Y-72710002D01*
X121241929Y-72930062D01*
X121241930Y-72930070D01*
X121299104Y-73143445D01*
X121299105Y-73143447D01*
X121299106Y-73143450D01*
X121332382Y-73214811D01*
X121392466Y-73343662D01*
X121392468Y-73343666D01*
X121519170Y-73524615D01*
X121519175Y-73524621D01*
X121675378Y-73680824D01*
X121675384Y-73680829D01*
X121856333Y-73807531D01*
X121856335Y-73807532D01*
X121856338Y-73807534D01*
X122056550Y-73900894D01*
X122269932Y-73958070D01*
X122427123Y-73971822D01*
X122489998Y-73977323D01*
X122490000Y-73977323D01*
X122490002Y-73977323D01*
X122545017Y-73972509D01*
X122710068Y-73958070D01*
X122923450Y-73900894D01*
X123123662Y-73807534D01*
X123304620Y-73680826D01*
X123460826Y-73524620D01*
X123587534Y-73343662D01*
X123647618Y-73214811D01*
X123693790Y-73162371D01*
X123760983Y-73143219D01*
X123827865Y-73163435D01*
X123872382Y-73214811D01*
X123932464Y-73343658D01*
X123932468Y-73343666D01*
X124059170Y-73524615D01*
X124059175Y-73524621D01*
X124215378Y-73680824D01*
X124215384Y-73680829D01*
X124396333Y-73807531D01*
X124396335Y-73807532D01*
X124396338Y-73807534D01*
X124596550Y-73900894D01*
X124809932Y-73958070D01*
X124967123Y-73971822D01*
X125029998Y-73977323D01*
X125030000Y-73977323D01*
X125030002Y-73977323D01*
X125085017Y-73972509D01*
X125250068Y-73958070D01*
X125463450Y-73900894D01*
X125663662Y-73807534D01*
X125844620Y-73680826D01*
X126000826Y-73524620D01*
X126127534Y-73343662D01*
X126187618Y-73214811D01*
X126233790Y-73162371D01*
X126300983Y-73143219D01*
X126367865Y-73163435D01*
X126412382Y-73214811D01*
X126472464Y-73343658D01*
X126472468Y-73343666D01*
X126599170Y-73524615D01*
X126599175Y-73524621D01*
X126755378Y-73680824D01*
X126755384Y-73680829D01*
X126936333Y-73807531D01*
X126936335Y-73807532D01*
X126936338Y-73807534D01*
X127136550Y-73900894D01*
X127349932Y-73958070D01*
X127507123Y-73971822D01*
X127569998Y-73977323D01*
X127570000Y-73977323D01*
X127570002Y-73977323D01*
X127625017Y-73972509D01*
X127790068Y-73958070D01*
X128003450Y-73900894D01*
X128203662Y-73807534D01*
X128384620Y-73680826D01*
X128540826Y-73524620D01*
X128667534Y-73343662D01*
X128727618Y-73214811D01*
X128773790Y-73162371D01*
X128840983Y-73143219D01*
X128907865Y-73163435D01*
X128952382Y-73214811D01*
X129012464Y-73343658D01*
X129012468Y-73343666D01*
X129139170Y-73524615D01*
X129139175Y-73524621D01*
X129295378Y-73680824D01*
X129295384Y-73680829D01*
X129476333Y-73807531D01*
X129476335Y-73807532D01*
X129476338Y-73807534D01*
X129676550Y-73900894D01*
X129889932Y-73958070D01*
X130047123Y-73971822D01*
X130109998Y-73977323D01*
X130110000Y-73977323D01*
X130110002Y-73977323D01*
X130165017Y-73972509D01*
X130330068Y-73958070D01*
X130543450Y-73900894D01*
X130743662Y-73807534D01*
X130924620Y-73680826D01*
X131080826Y-73524620D01*
X131207534Y-73343662D01*
X131300894Y-73143450D01*
X131358070Y-72930068D01*
X131377323Y-72710000D01*
X131358070Y-72489932D01*
X131300894Y-72276550D01*
X131207534Y-72076339D01*
X131080826Y-71895380D01*
X130924620Y-71739174D01*
X130924616Y-71739171D01*
X130924615Y-71739170D01*
X130743666Y-71612468D01*
X130743662Y-71612466D01*
X130743658Y-71612464D01*
X130543450Y-71519106D01*
X130543447Y-71519105D01*
X130543445Y-71519104D01*
X130330070Y-71461930D01*
X130330062Y-71461929D01*
X130110002Y-71442677D01*
X130109998Y-71442677D01*
X129889937Y-71461929D01*
X129889929Y-71461930D01*
X129676554Y-71519104D01*
X129676548Y-71519107D01*
X129476340Y-71612465D01*
X129476338Y-71612466D01*
X129295377Y-71739175D01*
X129139175Y-71895377D01*
X129012466Y-72076338D01*
X129012465Y-72076340D01*
X128952382Y-72205189D01*
X128906209Y-72257628D01*
X128839016Y-72276780D01*
X128772135Y-72256564D01*
X128727618Y-72205189D01*
X128667534Y-72076340D01*
X128667533Y-72076338D01*
X128540827Y-71895381D01*
X128540823Y-71895377D01*
X128384620Y-71739174D01*
X128384616Y-71739171D01*
X128384615Y-71739170D01*
X128203666Y-71612468D01*
X128203658Y-71612464D01*
X128157720Y-71591043D01*
X128105280Y-71544871D01*
X128086128Y-71477678D01*
X128106343Y-71410797D01*
X128148124Y-71371274D01*
X128218716Y-71330520D01*
X128330520Y-71218716D01*
X128330520Y-71218714D01*
X128530520Y-71018716D01*
X128609577Y-70881784D01*
X128650501Y-70729057D01*
X128650501Y-70570942D01*
X128650501Y-70563347D01*
X128650500Y-70563329D01*
X128650500Y-68199059D01*
X128650501Y-68199046D01*
X128650501Y-68030945D01*
X128650501Y-68030943D01*
X128609577Y-67878215D01*
X128580639Y-67828095D01*
X128530520Y-67741284D01*
X128418716Y-67629480D01*
X128418715Y-67629479D01*
X128414385Y-67625149D01*
X128414374Y-67625139D01*
X127346861Y-66557626D01*
X127313376Y-66496303D01*
X127318360Y-66426611D01*
X127360232Y-66370678D01*
X127425696Y-66346261D01*
X127445339Y-66346416D01*
X127557654Y-66356242D01*
X127569999Y-66357323D01*
X127570000Y-66357323D01*
X127570002Y-66357323D01*
X127625151Y-66352498D01*
X127790068Y-66338070D01*
X128003450Y-66280894D01*
X128203662Y-66187534D01*
X128384620Y-66060826D01*
X128540826Y-65904620D01*
X128621927Y-65788795D01*
X128676501Y-65745172D01*
X128745999Y-65737978D01*
X128808354Y-65769500D01*
X128843769Y-65829730D01*
X128847500Y-65859917D01*
X128847500Y-65899868D01*
X128847501Y-65899876D01*
X128853908Y-65959483D01*
X128904202Y-66094328D01*
X128904206Y-66094335D01*
X128990452Y-66209544D01*
X128990455Y-66209547D01*
X129105664Y-66295793D01*
X129105671Y-66295797D01*
X129240517Y-66346091D01*
X129240516Y-66346091D01*
X129243549Y-66346417D01*
X129300127Y-66352500D01*
X130919872Y-66352499D01*
X130979483Y-66346091D01*
X131114331Y-66295796D01*
X131229546Y-66209546D01*
X131315796Y-66094331D01*
X131366091Y-65959483D01*
X131372500Y-65899873D01*
X131372499Y-64280128D01*
X131366091Y-64220517D01*
X131315796Y-64085669D01*
X131315795Y-64085668D01*
X131315793Y-64085664D01*
X131229547Y-63970455D01*
X131229544Y-63970452D01*
X131114335Y-63884206D01*
X131114328Y-63884202D01*
X130979482Y-63833908D01*
X130979483Y-63833908D01*
X130919883Y-63827501D01*
X130919881Y-63827500D01*
X130919873Y-63827500D01*
X130919864Y-63827500D01*
X129300129Y-63827500D01*
X129300123Y-63827501D01*
X129240516Y-63833908D01*
X129105671Y-63884202D01*
X129105664Y-63884206D01*
X128990455Y-63970452D01*
X128990452Y-63970455D01*
X128904206Y-64085664D01*
X128904202Y-64085671D01*
X128853908Y-64220517D01*
X128848010Y-64275380D01*
X128847501Y-64280123D01*
X128847500Y-64280135D01*
X128847500Y-64320079D01*
X128827815Y-64387118D01*
X128775011Y-64432873D01*
X128705853Y-64442817D01*
X128642297Y-64413792D01*
X128621925Y-64391202D01*
X128540827Y-64275381D01*
X128485962Y-64220516D01*
X128384620Y-64119174D01*
X128384616Y-64119171D01*
X128384615Y-64119170D01*
X128203666Y-63992468D01*
X128203662Y-63992466D01*
X128156457Y-63970454D01*
X128003450Y-63899106D01*
X128003447Y-63899105D01*
X128003445Y-63899104D01*
X127790070Y-63841930D01*
X127790062Y-63841929D01*
X127570002Y-63822677D01*
X127569998Y-63822677D01*
X127349937Y-63841929D01*
X127349929Y-63841930D01*
X127136554Y-63899104D01*
X127136548Y-63899107D01*
X126936340Y-63992465D01*
X126936338Y-63992466D01*
X126755377Y-64119175D01*
X126599175Y-64275377D01*
X126472466Y-64456338D01*
X126472465Y-64456340D01*
X126412382Y-64585189D01*
X126366209Y-64637628D01*
X126299016Y-64656780D01*
X126232135Y-64636564D01*
X126187618Y-64585189D01*
X126127651Y-64456590D01*
X126127534Y-64456339D01*
X126064180Y-64365859D01*
X126000827Y-64275381D01*
X125945962Y-64220516D01*
X125844620Y-64119174D01*
X125844616Y-64119171D01*
X125844615Y-64119170D01*
X125663666Y-63992468D01*
X125663662Y-63992466D01*
X125616457Y-63970454D01*
X125463450Y-63899106D01*
X125463447Y-63899105D01*
X125463445Y-63899104D01*
X125250070Y-63841930D01*
X125250062Y-63841929D01*
X125030002Y-63822677D01*
X125029998Y-63822677D01*
X124809937Y-63841929D01*
X124809929Y-63841930D01*
X124596554Y-63899104D01*
X124596548Y-63899107D01*
X124396340Y-63992465D01*
X124396338Y-63992466D01*
X124215377Y-64119175D01*
X124059175Y-64275377D01*
X123932467Y-64456337D01*
X123872105Y-64585782D01*
X123825932Y-64638221D01*
X123758738Y-64657372D01*
X123691857Y-64637156D01*
X123647341Y-64585780D01*
X123587098Y-64456589D01*
X123587097Y-64456587D01*
X123541741Y-64391811D01*
X123541740Y-64391810D01*
X122896400Y-65037151D01*
X122896400Y-65036496D01*
X122868705Y-64933135D01*
X122815201Y-64840464D01*
X122739536Y-64764799D01*
X122646865Y-64711295D01*
X122543504Y-64683600D01*
X122542847Y-64683600D01*
X123188188Y-64038258D01*
X123123411Y-63992901D01*
X123123405Y-63992898D01*
X122923284Y-63899580D01*
X122923270Y-63899575D01*
X122709986Y-63842426D01*
X122709976Y-63842424D01*
X122490001Y-63823179D01*
X122489999Y-63823179D01*
X122270023Y-63842424D01*
X122270013Y-63842426D01*
X122056729Y-63899575D01*
X122056720Y-63899579D01*
X121856590Y-63992901D01*
X121791811Y-64038258D01*
X122437154Y-64683600D01*
X122436496Y-64683600D01*
X122333135Y-64711295D01*
X122240464Y-64764799D01*
X122164799Y-64840464D01*
X122111295Y-64933135D01*
X122083600Y-65036496D01*
X122083600Y-65037153D01*
X121438258Y-64391811D01*
X121392901Y-64456590D01*
X121299579Y-64656720D01*
X121299575Y-64656729D01*
X121242426Y-64870013D01*
X121242424Y-64870023D01*
X121223179Y-65089999D01*
X121223179Y-65090000D01*
X121242424Y-65309976D01*
X121242426Y-65309986D01*
X121299517Y-65523052D01*
X121297854Y-65592901D01*
X121258691Y-65650764D01*
X121194463Y-65678268D01*
X121125561Y-65666681D01*
X121092061Y-65642826D01*
X116049229Y-60599994D01*
X120494859Y-60599994D01*
X120494859Y-60600005D01*
X120515385Y-60847729D01*
X120515387Y-60847738D01*
X120576412Y-61088717D01*
X120676267Y-61316367D01*
X120776562Y-61469881D01*
X121517037Y-60729408D01*
X121534075Y-60792993D01*
X121599901Y-60907007D01*
X121692993Y-61000099D01*
X121807007Y-61065925D01*
X121870591Y-61082962D01*
X121129943Y-61823609D01*
X121176768Y-61860055D01*
X121176771Y-61860057D01*
X121395385Y-61978364D01*
X121395396Y-61978369D01*
X121630506Y-62059083D01*
X121875707Y-62100000D01*
X122124293Y-62100000D01*
X122369493Y-62059083D01*
X122604603Y-61978369D01*
X122604614Y-61978364D01*
X122823230Y-61860056D01*
X122823236Y-61860051D01*
X122870055Y-61823610D01*
X122870056Y-61823609D01*
X122129408Y-61082962D01*
X122192993Y-61065925D01*
X122307007Y-61000099D01*
X122400099Y-60907007D01*
X122465925Y-60792993D01*
X122482962Y-60729409D01*
X123223435Y-61469882D01*
X123323733Y-61316364D01*
X123423587Y-61088717D01*
X123484612Y-60847738D01*
X123484614Y-60847729D01*
X123505141Y-60600005D01*
X123505141Y-60599994D01*
X123484614Y-60352270D01*
X123484612Y-60352261D01*
X123423587Y-60111282D01*
X123323732Y-59883632D01*
X123223435Y-59730116D01*
X122482962Y-60470590D01*
X122465925Y-60407007D01*
X122400099Y-60292993D01*
X122307007Y-60199901D01*
X122192993Y-60134075D01*
X122129409Y-60117037D01*
X122870055Y-59376389D01*
X122870055Y-59376388D01*
X122823236Y-59339947D01*
X122823231Y-59339944D01*
X122604614Y-59221635D01*
X122604603Y-59221630D01*
X122369493Y-59140916D01*
X122124293Y-59100000D01*
X121875707Y-59100000D01*
X121630506Y-59140916D01*
X121395396Y-59221630D01*
X121395385Y-59221635D01*
X121176770Y-59339943D01*
X121129943Y-59376389D01*
X121870591Y-60117037D01*
X121807007Y-60134075D01*
X121692993Y-60199901D01*
X121599901Y-60292993D01*
X121534075Y-60407007D01*
X121517037Y-60470591D01*
X120776563Y-59730117D01*
X120676267Y-59883633D01*
X120676265Y-59883637D01*
X120576412Y-60111282D01*
X120515387Y-60352261D01*
X120515385Y-60352270D01*
X120494859Y-60599994D01*
X116049229Y-60599994D01*
X113949229Y-58499994D01*
X125794357Y-58499994D01*
X125794357Y-58500005D01*
X125814890Y-58747812D01*
X125814892Y-58747824D01*
X125875936Y-58988881D01*
X125975826Y-59216606D01*
X126111833Y-59424782D01*
X126111836Y-59424785D01*
X126280256Y-59607738D01*
X126476491Y-59760474D01*
X126695190Y-59878828D01*
X126930386Y-59959571D01*
X127175665Y-60000500D01*
X127424335Y-60000500D01*
X127669614Y-59959571D01*
X127904810Y-59878828D01*
X128123509Y-59760474D01*
X128319744Y-59607738D01*
X128488164Y-59424785D01*
X128624173Y-59216607D01*
X128724063Y-58988881D01*
X128785108Y-58747821D01*
X128799111Y-58578828D01*
X128805643Y-58500005D01*
X128805643Y-58499994D01*
X128785109Y-58252187D01*
X128785107Y-58252175D01*
X128724063Y-58011118D01*
X128624173Y-57783393D01*
X128488166Y-57575217D01*
X128462938Y-57547812D01*
X128319744Y-57392262D01*
X128123509Y-57239526D01*
X128123507Y-57239525D01*
X128123506Y-57239524D01*
X127904811Y-57121172D01*
X127904802Y-57121169D01*
X127669616Y-57040429D01*
X127424335Y-56999500D01*
X127175665Y-56999500D01*
X126930383Y-57040429D01*
X126695197Y-57121169D01*
X126695188Y-57121172D01*
X126476493Y-57239524D01*
X126280257Y-57392261D01*
X126111833Y-57575217D01*
X125975826Y-57783393D01*
X125875936Y-58011118D01*
X125814892Y-58252175D01*
X125814890Y-58252187D01*
X125794357Y-58499994D01*
X113949229Y-58499994D01*
X109038123Y-53588888D01*
X109004638Y-53527565D01*
X109009622Y-53457873D01*
X109051494Y-53401940D01*
X109116958Y-53377523D01*
X109146206Y-53378897D01*
X109275665Y-53400500D01*
X109275666Y-53400500D01*
X109524335Y-53400500D01*
X109769614Y-53359571D01*
X110004810Y-53278828D01*
X110223509Y-53160474D01*
X110419744Y-53007738D01*
X110588164Y-52824785D01*
X110724173Y-52616607D01*
X110824063Y-52388881D01*
X110885108Y-52147821D01*
X110889112Y-52099500D01*
X110905643Y-51900005D01*
X110905643Y-51899994D01*
X110885109Y-51652187D01*
X110885107Y-51652175D01*
X110824063Y-51411118D01*
X110724173Y-51183393D01*
X110588166Y-50975217D01*
X110517506Y-50898460D01*
X110419744Y-50792262D01*
X110223509Y-50639526D01*
X110223507Y-50639525D01*
X110223506Y-50639524D01*
X110004811Y-50521172D01*
X110004802Y-50521169D01*
X109769616Y-50440429D01*
X109524335Y-50399500D01*
X109275665Y-50399500D01*
X109030383Y-50440429D01*
X108795197Y-50521169D01*
X108795188Y-50521172D01*
X108576493Y-50639524D01*
X108380257Y-50792261D01*
X108211833Y-50975217D01*
X108075826Y-51183393D01*
X107975936Y-51411118D01*
X107914892Y-51652175D01*
X107914890Y-51652187D01*
X107894357Y-51899994D01*
X107894357Y-51900005D01*
X107915315Y-52152932D01*
X107914183Y-52153025D01*
X107906450Y-52216914D01*
X107861887Y-52270727D01*
X107795304Y-52291905D01*
X107727841Y-52273724D01*
X107704852Y-52255617D01*
X104956516Y-49507281D01*
X104923031Y-49445958D01*
X104923992Y-49389159D01*
X104924061Y-49388884D01*
X104924063Y-49388881D01*
X104952361Y-49277135D01*
X116677000Y-49277135D01*
X116677000Y-51322870D01*
X116677001Y-51322876D01*
X116683408Y-51382483D01*
X116733702Y-51517328D01*
X116733706Y-51517335D01*
X116819952Y-51632544D01*
X116819955Y-51632547D01*
X116935164Y-51718793D01*
X116935171Y-51718797D01*
X117070017Y-51769091D01*
X117070016Y-51769091D01*
X117076944Y-51769835D01*
X117129627Y-51775500D01*
X119175372Y-51775499D01*
X119234983Y-51769091D01*
X119369831Y-51718796D01*
X119485046Y-51632546D01*
X119571296Y-51517331D01*
X119621591Y-51382483D01*
X119628000Y-51322873D01*
X119627999Y-50299994D01*
X121671943Y-50299994D01*
X121671943Y-50300005D01*
X121692134Y-50543683D01*
X121692136Y-50543695D01*
X121752163Y-50780734D01*
X121850388Y-51004666D01*
X121984132Y-51209378D01*
X122149742Y-51389277D01*
X122149752Y-51389286D01*
X122342708Y-51539470D01*
X122342712Y-51539473D01*
X122514697Y-51632547D01*
X122557767Y-51655855D01*
X122557770Y-51655856D01*
X122789041Y-51735251D01*
X122789043Y-51735251D01*
X122789045Y-51735252D01*
X123030237Y-51775500D01*
X123030238Y-51775500D01*
X123274762Y-51775500D01*
X123274763Y-51775500D01*
X123515955Y-51735252D01*
X123747233Y-51655855D01*
X123962288Y-51539473D01*
X124155254Y-51389281D01*
X124320868Y-51209377D01*
X124454611Y-51004667D01*
X124552836Y-50780736D01*
X124612864Y-50543692D01*
X124614645Y-50522197D01*
X124633057Y-50300005D01*
X124633057Y-50299994D01*
X124612865Y-50056316D01*
X124612863Y-50056304D01*
X124567661Y-49877807D01*
X124552836Y-49819264D01*
X124454611Y-49595333D01*
X124397084Y-49507281D01*
X124320867Y-49390621D01*
X124155257Y-49210722D01*
X124155247Y-49210713D01*
X123962291Y-49060529D01*
X123962287Y-49060526D01*
X123747234Y-48944145D01*
X123747229Y-48944143D01*
X123515958Y-48864748D01*
X123313164Y-48830908D01*
X123274763Y-48824500D01*
X123030237Y-48824500D01*
X122991836Y-48830908D01*
X122789041Y-48864748D01*
X122557770Y-48944143D01*
X122557765Y-48944145D01*
X122342712Y-49060526D01*
X122342708Y-49060529D01*
X122149752Y-49210713D01*
X122149742Y-49210722D01*
X121984132Y-49390621D01*
X121850388Y-49595333D01*
X121752163Y-49819265D01*
X121692136Y-50056304D01*
X121692134Y-50056316D01*
X121671943Y-50299994D01*
X119627999Y-50299994D01*
X119627999Y-49277128D01*
X119621591Y-49217517D01*
X119619053Y-49210713D01*
X119571297Y-49082671D01*
X119571293Y-49082664D01*
X119485047Y-48967455D01*
X119485044Y-48967452D01*
X119369835Y-48881206D01*
X119369828Y-48881202D01*
X119234982Y-48830908D01*
X119234983Y-48830908D01*
X119175383Y-48824501D01*
X119175381Y-48824500D01*
X119175373Y-48824500D01*
X119175364Y-48824500D01*
X117129629Y-48824500D01*
X117129623Y-48824501D01*
X117070016Y-48830908D01*
X116935171Y-48881202D01*
X116935164Y-48881206D01*
X116819955Y-48967452D01*
X116819952Y-48967455D01*
X116733706Y-49082664D01*
X116733702Y-49082671D01*
X116683408Y-49217517D01*
X116677001Y-49277116D01*
X116677001Y-49277123D01*
X116677000Y-49277135D01*
X104952361Y-49277135D01*
X104984538Y-49150072D01*
X104985105Y-49147833D01*
X104985107Y-49147824D01*
X104985108Y-49147821D01*
X104989112Y-49099500D01*
X105005643Y-48900005D01*
X105005643Y-48899994D01*
X104985109Y-48652187D01*
X104985107Y-48652175D01*
X104924063Y-48411118D01*
X104824173Y-48183393D01*
X104688166Y-47975217D01*
X104598739Y-47878074D01*
X104519744Y-47792262D01*
X104323509Y-47639526D01*
X104323507Y-47639525D01*
X104323506Y-47639524D01*
X104104811Y-47521172D01*
X104104802Y-47521169D01*
X103869616Y-47440429D01*
X103624335Y-47399500D01*
X103375665Y-47399500D01*
X103130383Y-47440429D01*
X102895197Y-47521169D01*
X102895188Y-47521172D01*
X102676493Y-47639524D01*
X102480257Y-47792261D01*
X102311833Y-47975217D01*
X102175826Y-48183393D01*
X102075936Y-48411118D01*
X102014892Y-48652175D01*
X102014890Y-48652187D01*
X101994357Y-48899994D01*
X101274698Y-48899994D01*
X101258070Y-48709937D01*
X101258070Y-48709932D01*
X101200894Y-48496550D01*
X101107534Y-48296339D01*
X100980826Y-48115380D01*
X100824620Y-47959174D01*
X100824616Y-47959171D01*
X100824615Y-47959170D01*
X100643666Y-47832468D01*
X100643658Y-47832464D01*
X100514811Y-47772382D01*
X100462371Y-47726210D01*
X100443219Y-47659017D01*
X100463435Y-47592135D01*
X100514811Y-47547618D01*
X100520802Y-47544824D01*
X100643662Y-47487534D01*
X100824620Y-47360826D01*
X100980826Y-47204620D01*
X101107534Y-47023662D01*
X101200894Y-46823450D01*
X101258070Y-46610068D01*
X101277323Y-46390000D01*
X101258070Y-46169932D01*
X101200894Y-45956550D01*
X101107534Y-45756339D01*
X100986437Y-45583393D01*
X100980827Y-45575381D01*
X100925962Y-45520516D01*
X100824620Y-45419174D01*
X100824616Y-45419171D01*
X100824615Y-45419170D01*
X100643666Y-45292468D01*
X100643662Y-45292466D01*
X100596457Y-45270454D01*
X100443450Y-45199106D01*
X100443447Y-45199105D01*
X100443445Y-45199104D01*
X100230070Y-45141930D01*
X100230062Y-45141929D01*
X100010002Y-45122677D01*
X100009998Y-45122677D01*
X99789937Y-45141929D01*
X99789929Y-45141930D01*
X99576554Y-45199104D01*
X99576548Y-45199107D01*
X99376340Y-45292465D01*
X99376338Y-45292466D01*
X99195377Y-45419175D01*
X99039175Y-45575377D01*
X98912466Y-45756338D01*
X98912465Y-45756340D01*
X98819107Y-45956548D01*
X98819104Y-45956554D01*
X98761930Y-46169929D01*
X98761929Y-46169937D01*
X98742677Y-46389997D01*
X98742677Y-46390002D01*
X98761929Y-46610062D01*
X98761930Y-46610070D01*
X98819104Y-46823445D01*
X98819105Y-46823447D01*
X98819106Y-46823450D01*
X98848587Y-46886672D01*
X98912466Y-47023662D01*
X98912468Y-47023666D01*
X99039170Y-47204615D01*
X99039175Y-47204621D01*
X99195378Y-47360824D01*
X99195384Y-47360829D01*
X99376333Y-47487531D01*
X99376335Y-47487532D01*
X99376338Y-47487534D01*
X99495748Y-47543215D01*
X99505189Y-47547618D01*
X99557628Y-47593790D01*
X99576780Y-47660984D01*
X99556564Y-47727865D01*
X99505189Y-47772382D01*
X99376340Y-47832465D01*
X99376338Y-47832466D01*
X99195377Y-47959175D01*
X99039175Y-48115377D01*
X98912466Y-48296338D01*
X98912465Y-48296340D01*
X98819107Y-48496548D01*
X98819104Y-48496554D01*
X98761930Y-48709929D01*
X98761929Y-48709937D01*
X98742677Y-48929997D01*
X98742677Y-48930002D01*
X98761929Y-49150062D01*
X98761930Y-49150070D01*
X98819104Y-49363445D01*
X98819105Y-49363447D01*
X98819106Y-49363450D01*
X98831776Y-49390621D01*
X98912466Y-49563662D01*
X98912468Y-49563666D01*
X98946576Y-49612377D01*
X98968903Y-49678583D01*
X98951893Y-49746350D01*
X98900944Y-49794163D01*
X98845001Y-49807500D01*
X94168098Y-49807500D01*
X94101059Y-49787815D01*
X94080417Y-49771181D01*
X93650914Y-49341679D01*
X93617429Y-49280356D01*
X93618821Y-49221902D01*
X93619471Y-49219479D01*
X93638070Y-49150068D01*
X93657323Y-48930000D01*
X93654698Y-48900000D01*
X93638070Y-48709937D01*
X93638070Y-48709932D01*
X93580894Y-48496550D01*
X93487534Y-48296339D01*
X93360826Y-48115380D01*
X93204620Y-47959174D01*
X93204616Y-47959171D01*
X93204615Y-47959170D01*
X93088797Y-47878074D01*
X93045172Y-47823497D01*
X93037978Y-47753999D01*
X93069501Y-47691644D01*
X93129730Y-47656230D01*
X93159919Y-47652499D01*
X93199872Y-47652499D01*
X93259483Y-47646091D01*
X93394331Y-47595796D01*
X93509546Y-47509546D01*
X93595796Y-47394331D01*
X93646091Y-47259483D01*
X93652500Y-47199873D01*
X93652499Y-45580128D01*
X93646091Y-45520517D01*
X93602134Y-45402663D01*
X93595797Y-45385671D01*
X93595793Y-45385664D01*
X93509547Y-45270455D01*
X93509544Y-45270452D01*
X93394335Y-45184206D01*
X93394328Y-45184202D01*
X93259482Y-45133908D01*
X93259483Y-45133908D01*
X93199883Y-45127501D01*
X93199881Y-45127500D01*
X93199873Y-45127500D01*
X93199864Y-45127500D01*
X91580129Y-45127500D01*
X91580123Y-45127501D01*
X91520516Y-45133908D01*
X91385671Y-45184202D01*
X91385664Y-45184206D01*
X91270455Y-45270452D01*
X91270452Y-45270455D01*
X91184206Y-45385664D01*
X91184202Y-45385671D01*
X91133908Y-45520517D01*
X91128010Y-45575380D01*
X91127501Y-45580123D01*
X91127500Y-45580135D01*
X91127500Y-47199870D01*
X91127501Y-47199876D01*
X91133908Y-47259483D01*
X91184202Y-47394328D01*
X91184206Y-47394335D01*
X91270452Y-47509544D01*
X91270455Y-47509547D01*
X91385664Y-47595793D01*
X91385671Y-47595797D01*
X91520517Y-47646091D01*
X91520516Y-47646091D01*
X91527444Y-47646835D01*
X91580127Y-47652500D01*
X91620079Y-47652499D01*
X91687116Y-47672182D01*
X91732872Y-47724985D01*
X91742817Y-47794143D01*
X91713794Y-47857700D01*
X91691203Y-47878074D01*
X91575375Y-47959177D01*
X91419175Y-48115377D01*
X91292466Y-48296338D01*
X91292465Y-48296340D01*
X91199107Y-48496548D01*
X91199104Y-48496554D01*
X91141930Y-48709929D01*
X91141929Y-48709937D01*
X91122677Y-48929997D01*
X91122677Y-48930002D01*
X91141929Y-49150062D01*
X91141930Y-49150070D01*
X91199104Y-49363445D01*
X91199105Y-49363447D01*
X91199106Y-49363450D01*
X91211776Y-49390621D01*
X91292466Y-49563662D01*
X91292468Y-49563666D01*
X91419170Y-49744615D01*
X91419175Y-49744621D01*
X91575378Y-49900824D01*
X91575384Y-49900829D01*
X91756333Y-50027531D01*
X91756335Y-50027532D01*
X91756338Y-50027534D01*
X91875748Y-50083215D01*
X91885189Y-50087618D01*
X91937628Y-50133790D01*
X91956780Y-50200984D01*
X91936564Y-50267865D01*
X91885189Y-50312382D01*
X91756340Y-50372465D01*
X91756338Y-50372466D01*
X91575377Y-50499175D01*
X91419175Y-50655377D01*
X91292466Y-50836338D01*
X91292465Y-50836340D01*
X91199107Y-51036548D01*
X91199104Y-51036554D01*
X91141930Y-51249929D01*
X91141929Y-51249937D01*
X91122677Y-51469997D01*
X91122677Y-51470002D01*
X91141929Y-51690062D01*
X91141930Y-51690070D01*
X91199104Y-51903445D01*
X91199106Y-51903451D01*
X91208267Y-51923095D01*
X91218759Y-51992172D01*
X91190240Y-52055956D01*
X91131763Y-52094196D01*
X91095885Y-52099500D01*
X88200098Y-52099500D01*
X88133059Y-52079815D01*
X88112417Y-52063181D01*
X80986933Y-44937698D01*
X80953448Y-44876375D01*
X80951295Y-44862992D01*
X80936497Y-44722197D01*
X80881250Y-44552165D01*
X80791859Y-44397335D01*
X80745003Y-44345296D01*
X80672235Y-44264478D01*
X80672232Y-44264476D01*
X80672231Y-44264475D01*
X80672230Y-44264474D01*
X80527593Y-44159388D01*
X80364267Y-44086671D01*
X80364265Y-44086670D01*
X80236594Y-44059533D01*
X80189391Y-44049500D01*
X80010609Y-44049500D01*
X79979954Y-44056015D01*
X79835733Y-44086670D01*
X79835728Y-44086672D01*
X79672408Y-44159387D01*
X79527768Y-44264475D01*
X79408140Y-44397336D01*
X79318750Y-44552164D01*
X79318747Y-44552170D01*
X79263504Y-44722192D01*
X79263503Y-44722194D01*
X79244815Y-44900000D01*
X68449233Y-44900000D01*
X69306657Y-44042576D01*
X69367978Y-44009093D01*
X69429336Y-44012163D01*
X69429376Y-44011978D01*
X69430530Y-44012223D01*
X69432661Y-44012330D01*
X69435722Y-44013324D01*
X69435733Y-44013329D01*
X69610609Y-44050500D01*
X69610610Y-44050500D01*
X69789389Y-44050500D01*
X69789391Y-44050500D01*
X69964267Y-44013329D01*
X70127593Y-43940612D01*
X70272230Y-43835526D01*
X70391859Y-43702665D01*
X70481250Y-43547835D01*
X70536497Y-43377803D01*
X70555185Y-43200000D01*
X70536497Y-43022197D01*
X70481250Y-42852165D01*
X70391859Y-42697335D01*
X70337036Y-42636448D01*
X70272235Y-42564478D01*
X70272232Y-42564476D01*
X70272231Y-42564475D01*
X70272230Y-42564474D01*
X70127593Y-42459388D01*
X69964267Y-42386671D01*
X69964265Y-42386670D01*
X69836594Y-42359533D01*
X69789391Y-42349500D01*
X69610609Y-42349500D01*
X69579954Y-42356015D01*
X69435733Y-42386670D01*
X69435728Y-42386672D01*
X69272408Y-42459387D01*
X69127770Y-42564474D01*
X69062963Y-42636448D01*
X69032814Y-42660861D01*
X68931287Y-42719477D01*
X68931282Y-42719481D01*
X68819478Y-42831286D01*
X64837584Y-46813181D01*
X64776261Y-46846666D01*
X64749903Y-46849500D01*
X64710609Y-46849500D01*
X64679954Y-46856015D01*
X64535733Y-46886670D01*
X64535728Y-46886672D01*
X64372408Y-46959387D01*
X64227768Y-47064475D01*
X64108140Y-47197336D01*
X64018750Y-47352164D01*
X64018747Y-47352170D01*
X63963504Y-47522192D01*
X63963503Y-47522194D01*
X63944815Y-47700000D01*
X52443138Y-47700000D01*
X52504810Y-47678828D01*
X52723509Y-47560474D01*
X52919744Y-47407738D01*
X53088164Y-47224785D01*
X53224173Y-47016607D01*
X53324063Y-46788881D01*
X53385108Y-46547821D01*
X53385109Y-46547812D01*
X53405643Y-46300005D01*
X53405643Y-46299994D01*
X53385109Y-46052187D01*
X53385107Y-46052175D01*
X53324063Y-45811118D01*
X53224173Y-45583393D01*
X53088166Y-45375217D01*
X53011987Y-45292465D01*
X52919744Y-45192262D01*
X52723509Y-45039526D01*
X52723507Y-45039525D01*
X52723506Y-45039524D01*
X52504811Y-44921172D01*
X52504802Y-44921169D01*
X52269616Y-44840429D01*
X52024335Y-44799500D01*
X51775665Y-44799500D01*
X51530383Y-44840429D01*
X51295197Y-44921169D01*
X51295188Y-44921172D01*
X51076493Y-45039524D01*
X50944922Y-45141930D01*
X50880256Y-45192262D01*
X50873956Y-45199106D01*
X50711833Y-45375217D01*
X50575826Y-45583393D01*
X50475936Y-45811118D01*
X50414892Y-46052175D01*
X50414890Y-46052187D01*
X50394357Y-46299994D01*
X37600500Y-46299994D01*
X37600500Y-39624500D01*
X37620185Y-39557461D01*
X37672989Y-39511706D01*
X37724500Y-39500500D01*
X135275500Y-39500500D01*
X135342539Y-39520185D01*
G37*
%TD.AperFunction*%
%TD*%
M02*
