%TF.GenerationSoftware,KiCad,Pcbnew,8.0.8*%
%TF.CreationDate,2025-03-06T15:40:06+05:30*%
%TF.ProjectId,bandara_ckt_pcb_naveen,62616e64-6172-4615-9f63-6b745f706362,v1*%
%TF.SameCoordinates,Original*%
%TF.FileFunction,Drillmap*%
%TF.FilePolarity,Positive*%
%FSLAX45Y45*%
G04 Gerber Fmt 4.5, Leading zero omitted, Abs format (unit mm)*
G04 Created by KiCad (PCBNEW 8.0.8) date 2025-03-06 15:40:06*
%MOMM*%
%LPD*%
G01*
G04 APERTURE LIST*
%ADD10C,0.050000*%
%ADD11C,0.200000*%
%ADD12C,0.100000*%
%ADD13C,0.130000*%
G04 APERTURE END LIST*
D10*
X4150000Y-3800000D02*
X14400000Y-3800000D01*
X14400000Y-12800000D01*
X4150000Y-12800000D01*
X4150000Y-3800000D01*
D11*
D12*
X5335000Y-6685000D02*
X5365000Y-6715000D01*
X5365000Y-6685000D02*
X5335000Y-6715000D01*
X5585000Y-6735000D02*
X5615000Y-6765000D01*
X5615000Y-6735000D02*
X5585000Y-6765000D01*
X5735000Y-5535000D02*
X5765000Y-5565000D01*
X5765000Y-5535000D02*
X5735000Y-5565000D01*
X5985000Y-5535000D02*
X6015000Y-5565000D01*
X6015000Y-5535000D02*
X5985000Y-5565000D01*
X6035000Y-6535000D02*
X6065000Y-6565000D01*
X6065000Y-6535000D02*
X6035000Y-6565000D01*
X6085000Y-5285000D02*
X6115000Y-5315000D01*
X6115000Y-5285000D02*
X6085000Y-5315000D01*
X6085000Y-6135000D02*
X6115000Y-6165000D01*
X6115000Y-6135000D02*
X6085000Y-6165000D01*
X6135000Y-5385000D02*
X6165000Y-5415000D01*
X6165000Y-5385000D02*
X6135000Y-5415000D01*
X6285000Y-5985000D02*
X6315000Y-6015000D01*
X6315000Y-5985000D02*
X6285000Y-6015000D01*
X6835000Y-6535000D02*
X6865000Y-6565000D01*
X6865000Y-6535000D02*
X6835000Y-6565000D01*
X7185000Y-5235000D02*
X7215000Y-5265000D01*
X7215000Y-5235000D02*
X7185000Y-5265000D01*
X7435000Y-4935000D02*
X7465000Y-4965000D01*
X7465000Y-4935000D02*
X7435000Y-4965000D01*
X13185000Y-7035000D02*
X13215000Y-7065000D01*
X13215000Y-7035000D02*
X13185000Y-7065000D01*
X13985000Y-8185000D02*
X14015000Y-8215000D01*
X14015000Y-8185000D02*
X13985000Y-8215000D01*
X4685000Y-5150000D02*
G75*
G02*
X4615000Y-5150000I-35000J0D01*
G01*
X4615000Y-5150000D02*
G75*
G02*
X4685000Y-5150000I35000J0D01*
G01*
X4685000Y-6650000D02*
G75*
G02*
X4615000Y-6650000I-35000J0D01*
G01*
X4615000Y-6650000D02*
G75*
G02*
X4685000Y-6650000I35000J0D01*
G01*
X7185000Y-6250000D02*
G75*
G02*
X7115000Y-6250000I-35000J0D01*
G01*
X7115000Y-6250000D02*
G75*
G02*
X7185000Y-6250000I35000J0D01*
G01*
X7235000Y-4950000D02*
G75*
G02*
X7165000Y-4950000I-35000J0D01*
G01*
X7165000Y-4950000D02*
G75*
G02*
X7235000Y-4950000I35000J0D01*
G01*
X8985000Y-6700000D02*
G75*
G02*
X8915000Y-6700000I-35000J0D01*
G01*
X8915000Y-6700000D02*
G75*
G02*
X8985000Y-6700000I35000J0D01*
G01*
X9235000Y-6000000D02*
G75*
G02*
X9165000Y-6000000I-35000J0D01*
G01*
X9165000Y-6000000D02*
G75*
G02*
X9235000Y-6000000I35000J0D01*
G01*
X9685000Y-6700000D02*
G75*
G02*
X9615000Y-6700000I-35000J0D01*
G01*
X9615000Y-6700000D02*
G75*
G02*
X9685000Y-6700000I35000J0D01*
G01*
X10166000Y-6177000D02*
G75*
G02*
X10096000Y-6177000I-35000J0D01*
G01*
X10096000Y-6177000D02*
G75*
G02*
X10166000Y-6177000I35000J0D01*
G01*
X11716000Y-5677000D02*
G75*
G02*
X11646000Y-5677000I-35000J0D01*
G01*
X11646000Y-5677000D02*
G75*
G02*
X11716000Y-5677000I35000J0D01*
G01*
X12216000Y-5727000D02*
G75*
G02*
X12146000Y-5727000I-35000J0D01*
G01*
X12146000Y-5727000D02*
G75*
G02*
X12216000Y-5727000I35000J0D01*
G01*
X12835000Y-11000000D02*
G75*
G02*
X12765000Y-11000000I-35000J0D01*
G01*
X12765000Y-11000000D02*
G75*
G02*
X12835000Y-11000000I35000J0D01*
G01*
X12935000Y-8050000D02*
G75*
G02*
X12865000Y-8050000I-35000J0D01*
G01*
X12865000Y-8050000D02*
G75*
G02*
X12935000Y-8050000I35000J0D01*
G01*
X13085000Y-6500000D02*
G75*
G02*
X13015000Y-6500000I-35000J0D01*
G01*
X13015000Y-6500000D02*
G75*
G02*
X13085000Y-6500000I35000J0D01*
G01*
X13085000Y-9450000D02*
G75*
G02*
X13015000Y-9450000I-35000J0D01*
G01*
X13015000Y-9450000D02*
G75*
G02*
X13085000Y-9450000I35000J0D01*
G01*
X13585000Y-11000000D02*
G75*
G02*
X13515000Y-11000000I-35000J0D01*
G01*
X13515000Y-11000000D02*
G75*
G02*
X13585000Y-11000000I35000J0D01*
G01*
X13635000Y-8050000D02*
G75*
G02*
X13565000Y-8050000I-35000J0D01*
G01*
X13565000Y-8050000D02*
G75*
G02*
X13635000Y-8050000I35000J0D01*
G01*
X6800000Y-5335000D02*
X6800000Y-5415000D01*
X6760000Y-5375000D02*
X6840000Y-5375000D01*
X6800000Y-5685000D02*
X6800000Y-5765000D01*
X6760000Y-5725000D02*
X6840000Y-5725000D01*
X10597737Y-5447737D02*
X10597737Y-5390263D01*
X10540263Y-5390263D01*
X10540263Y-5447737D01*
X10597737Y-5447737D01*
X10597737Y-5701737D02*
X10597737Y-5644263D01*
X10540263Y-5644263D01*
X10540263Y-5701737D01*
X10597737Y-5701737D01*
X10597737Y-5955737D02*
X10597737Y-5898263D01*
X10540263Y-5898263D01*
X10540263Y-5955737D01*
X10597737Y-5955737D01*
X10597737Y-6209737D02*
X10597737Y-6152263D01*
X10540263Y-6152263D01*
X10540263Y-6209737D01*
X10597737Y-6209737D01*
X11359737Y-5447737D02*
X11359737Y-5390263D01*
X11302263Y-5390263D01*
X11302263Y-5447737D01*
X11359737Y-5447737D01*
X11359737Y-5701737D02*
X11359737Y-5644263D01*
X11302263Y-5644263D01*
X11302263Y-5701737D01*
X11359737Y-5701737D01*
X11359737Y-5955737D02*
X11359737Y-5898263D01*
X11302263Y-5898263D01*
X11302263Y-5955737D01*
X11359737Y-5955737D01*
X11359737Y-6209737D02*
X11359737Y-6152263D01*
X11302263Y-6152263D01*
X11302263Y-6209737D01*
X11359737Y-6209737D01*
X13070737Y-9847737D02*
X13070737Y-9790263D01*
X13013263Y-9790263D01*
X13013263Y-9847737D01*
X13070737Y-9847737D01*
X13070737Y-10609737D02*
X13070737Y-10552263D01*
X13013263Y-10552263D01*
X13013263Y-10609737D01*
X13070737Y-10609737D01*
X13097737Y-6897737D02*
X13097737Y-6840263D01*
X13040263Y-6840263D01*
X13040263Y-6897737D01*
X13097737Y-6897737D01*
X13097737Y-7659737D02*
X13097737Y-7602263D01*
X13040263Y-7602263D01*
X13040263Y-7659737D01*
X13097737Y-7659737D01*
X13324737Y-9847737D02*
X13324737Y-9790263D01*
X13267263Y-9790263D01*
X13267263Y-9847737D01*
X13324737Y-9847737D01*
X13324737Y-10609737D02*
X13324737Y-10552263D01*
X13267263Y-10552263D01*
X13267263Y-10609737D01*
X13324737Y-10609737D01*
X13351737Y-6897737D02*
X13351737Y-6840263D01*
X13294263Y-6840263D01*
X13294263Y-6897737D01*
X13351737Y-6897737D01*
X13351737Y-7659737D02*
X13351737Y-7602263D01*
X13294263Y-7602263D01*
X13294263Y-7659737D01*
X13351737Y-7659737D01*
X13578737Y-9847737D02*
X13578737Y-9790263D01*
X13521263Y-9790263D01*
X13521263Y-9847737D01*
X13578737Y-9847737D01*
X13578737Y-10609737D02*
X13578737Y-10552263D01*
X13521263Y-10552263D01*
X13521263Y-10609737D01*
X13578737Y-10609737D01*
X13605737Y-6897737D02*
X13605737Y-6840263D01*
X13548263Y-6840263D01*
X13548263Y-6897737D01*
X13605737Y-6897737D01*
X13605737Y-7659737D02*
X13605737Y-7602263D01*
X13548263Y-7602263D01*
X13548263Y-7659737D01*
X13605737Y-7659737D01*
X13832737Y-9847737D02*
X13832737Y-9790263D01*
X13775263Y-9790263D01*
X13775263Y-9847737D01*
X13832737Y-9847737D01*
X13832737Y-10609737D02*
X13832737Y-10552263D01*
X13775263Y-10552263D01*
X13775263Y-10609737D01*
X13832737Y-10609737D01*
X13859737Y-6897737D02*
X13859737Y-6840263D01*
X13802263Y-6840263D01*
X13802263Y-6897737D01*
X13859737Y-6897737D01*
X13859737Y-7659737D02*
X13859737Y-7602263D01*
X13802263Y-7602263D01*
X13802263Y-7659737D01*
X13859737Y-7659737D01*
X7218500Y-12113000D02*
X7268500Y-12063000D01*
X7218500Y-12013000D01*
X7168500Y-12063000D01*
X7218500Y-12113000D01*
X7472500Y-12113000D02*
X7522500Y-12063000D01*
X7472500Y-12013000D01*
X7422500Y-12063000D01*
X7472500Y-12113000D01*
X7726500Y-12113000D02*
X7776500Y-12063000D01*
X7726500Y-12013000D01*
X7676500Y-12063000D01*
X7726500Y-12113000D01*
X7980500Y-12113000D02*
X8030500Y-12063000D01*
X7980500Y-12013000D01*
X7930500Y-12063000D01*
X7980500Y-12113000D01*
X8132500Y-7287000D02*
X8182500Y-7237000D01*
X8132500Y-7187000D01*
X8082500Y-7237000D01*
X8132500Y-7287000D01*
X8234500Y-12113000D02*
X8284500Y-12063000D01*
X8234500Y-12013000D01*
X8184500Y-12063000D01*
X8234500Y-12113000D01*
X8386500Y-7287000D02*
X8436500Y-7237000D01*
X8386500Y-7187000D01*
X8336500Y-7237000D01*
X8386500Y-7287000D01*
X8488500Y-12113000D02*
X8538500Y-12063000D01*
X8488500Y-12013000D01*
X8438500Y-12063000D01*
X8488500Y-12113000D01*
X8640500Y-7287000D02*
X8690500Y-7237000D01*
X8640500Y-7187000D01*
X8590500Y-7237000D01*
X8640500Y-7287000D01*
X8742500Y-12113000D02*
X8792500Y-12063000D01*
X8742500Y-12013000D01*
X8692500Y-12063000D01*
X8742500Y-12113000D01*
X8894500Y-7287000D02*
X8944500Y-7237000D01*
X8894500Y-7187000D01*
X8844500Y-7237000D01*
X8894500Y-7287000D01*
X8996500Y-12113000D02*
X9046500Y-12063000D01*
X8996500Y-12013000D01*
X8946500Y-12063000D01*
X8996500Y-12113000D01*
X9148500Y-7287000D02*
X9198500Y-7237000D01*
X9148500Y-7187000D01*
X9098500Y-7237000D01*
X9148500Y-7287000D01*
X9250500Y-12113000D02*
X9300500Y-12063000D01*
X9250500Y-12013000D01*
X9200500Y-12063000D01*
X9250500Y-12113000D01*
X9402500Y-7287000D02*
X9452500Y-7237000D01*
X9402500Y-7187000D01*
X9352500Y-7237000D01*
X9402500Y-7287000D01*
X9504500Y-12113000D02*
X9554500Y-12063000D01*
X9504500Y-12013000D01*
X9454500Y-12063000D01*
X9504500Y-12113000D01*
X9656500Y-7287000D02*
X9706500Y-7237000D01*
X9656500Y-7187000D01*
X9606500Y-7237000D01*
X9656500Y-7287000D01*
X9910500Y-7287000D02*
X9960500Y-7237000D01*
X9910500Y-7187000D01*
X9860500Y-7237000D01*
X9910500Y-7287000D01*
X9910500Y-12113000D02*
X9960500Y-12063000D01*
X9910500Y-12013000D01*
X9860500Y-12063000D01*
X9910500Y-12113000D01*
X10164500Y-12113000D02*
X10214500Y-12063000D01*
X10164500Y-12013000D01*
X10114500Y-12063000D01*
X10164500Y-12113000D01*
X10418500Y-7287000D02*
X10468500Y-7237000D01*
X10418500Y-7187000D01*
X10368500Y-7237000D01*
X10418500Y-7287000D01*
X10418500Y-12113000D02*
X10468500Y-12063000D01*
X10418500Y-12013000D01*
X10368500Y-12063000D01*
X10418500Y-12113000D01*
X10672500Y-7287000D02*
X10722500Y-7237000D01*
X10672500Y-7187000D01*
X10622500Y-7237000D01*
X10672500Y-7287000D01*
X10672500Y-12113000D02*
X10722500Y-12063000D01*
X10672500Y-12013000D01*
X10622500Y-12063000D01*
X10672500Y-12113000D01*
X10926500Y-7287000D02*
X10976500Y-7237000D01*
X10926500Y-7187000D01*
X10876500Y-7237000D01*
X10926500Y-7287000D01*
X10926500Y-12113000D02*
X10976500Y-12063000D01*
X10926500Y-12013000D01*
X10876500Y-12063000D01*
X10926500Y-12113000D01*
X11180500Y-7287000D02*
X11230500Y-7237000D01*
X11180500Y-7187000D01*
X11130500Y-7237000D01*
X11180500Y-7287000D01*
X11180500Y-12113000D02*
X11230500Y-12063000D01*
X11180500Y-12013000D01*
X11130500Y-12063000D01*
X11180500Y-12113000D01*
X11434500Y-7287000D02*
X11484500Y-7237000D01*
X11434500Y-7187000D01*
X11384500Y-7237000D01*
X11434500Y-7287000D01*
X11434500Y-12113000D02*
X11484500Y-12063000D01*
X11434500Y-12013000D01*
X11384500Y-12063000D01*
X11434500Y-12113000D01*
X11688500Y-7287000D02*
X11738500Y-7237000D01*
X11688500Y-7187000D01*
X11638500Y-7237000D01*
X11688500Y-7287000D01*
X11688500Y-12113000D02*
X11738500Y-12063000D01*
X11688500Y-12013000D01*
X11638500Y-12063000D01*
X11688500Y-12113000D01*
D13*
X13040250Y-4985000D02*
X13170250Y-5115000D01*
X13170250Y-4985000D02*
X13040250Y-5115000D01*
X13170250Y-5050000D02*
G75*
G02*
X13040250Y-5050000I-65000J0D01*
G01*
X13040250Y-5050000D02*
G75*
G02*
X13170250Y-5050000I65000J0D01*
G01*
X13540250Y-4985000D02*
X13670250Y-5115000D01*
X13670250Y-4985000D02*
X13540250Y-5115000D01*
X13670250Y-5050000D02*
G75*
G02*
X13540250Y-5050000I-65000J0D01*
G01*
X13540250Y-5050000D02*
G75*
G02*
X13670250Y-5050000I65000J0D01*
G01*
D11*
X4408277Y-13113984D02*
X4408277Y-12913984D01*
X4408277Y-12913984D02*
X4455896Y-12913984D01*
X4455896Y-12913984D02*
X4484467Y-12923508D01*
X4484467Y-12923508D02*
X4503515Y-12942555D01*
X4503515Y-12942555D02*
X4513039Y-12961603D01*
X4513039Y-12961603D02*
X4522563Y-12999698D01*
X4522563Y-12999698D02*
X4522563Y-13028269D01*
X4522563Y-13028269D02*
X4513039Y-13066365D01*
X4513039Y-13066365D02*
X4503515Y-13085412D01*
X4503515Y-13085412D02*
X4484467Y-13104460D01*
X4484467Y-13104460D02*
X4455896Y-13113984D01*
X4455896Y-13113984D02*
X4408277Y-13113984D01*
X4608277Y-13113984D02*
X4608277Y-12980650D01*
X4608277Y-13018746D02*
X4617801Y-12999698D01*
X4617801Y-12999698D02*
X4627324Y-12990174D01*
X4627324Y-12990174D02*
X4646372Y-12980650D01*
X4646372Y-12980650D02*
X4665420Y-12980650D01*
X4732086Y-13113984D02*
X4732086Y-12980650D01*
X4732086Y-12913984D02*
X4722563Y-12923508D01*
X4722563Y-12923508D02*
X4732086Y-12933031D01*
X4732086Y-12933031D02*
X4741610Y-12923508D01*
X4741610Y-12923508D02*
X4732086Y-12913984D01*
X4732086Y-12913984D02*
X4732086Y-12933031D01*
X4855896Y-13113984D02*
X4836848Y-13104460D01*
X4836848Y-13104460D02*
X4827324Y-13085412D01*
X4827324Y-13085412D02*
X4827324Y-12913984D01*
X4960658Y-13113984D02*
X4941610Y-13104460D01*
X4941610Y-13104460D02*
X4932086Y-13085412D01*
X4932086Y-13085412D02*
X4932086Y-12913984D01*
X5189229Y-13113984D02*
X5189229Y-12913984D01*
X5189229Y-12913984D02*
X5255896Y-13056841D01*
X5255896Y-13056841D02*
X5322563Y-12913984D01*
X5322563Y-12913984D02*
X5322563Y-13113984D01*
X5503515Y-13113984D02*
X5503515Y-13009222D01*
X5503515Y-13009222D02*
X5493991Y-12990174D01*
X5493991Y-12990174D02*
X5474944Y-12980650D01*
X5474944Y-12980650D02*
X5436848Y-12980650D01*
X5436848Y-12980650D02*
X5417801Y-12990174D01*
X5503515Y-13104460D02*
X5484467Y-13113984D01*
X5484467Y-13113984D02*
X5436848Y-13113984D01*
X5436848Y-13113984D02*
X5417801Y-13104460D01*
X5417801Y-13104460D02*
X5408277Y-13085412D01*
X5408277Y-13085412D02*
X5408277Y-13066365D01*
X5408277Y-13066365D02*
X5417801Y-13047317D01*
X5417801Y-13047317D02*
X5436848Y-13037793D01*
X5436848Y-13037793D02*
X5484467Y-13037793D01*
X5484467Y-13037793D02*
X5503515Y-13028269D01*
X5598753Y-12980650D02*
X5598753Y-13180650D01*
X5598753Y-12990174D02*
X5617801Y-12980650D01*
X5617801Y-12980650D02*
X5655896Y-12980650D01*
X5655896Y-12980650D02*
X5674943Y-12990174D01*
X5674943Y-12990174D02*
X5684467Y-12999698D01*
X5684467Y-12999698D02*
X5693991Y-13018746D01*
X5693991Y-13018746D02*
X5693991Y-13075888D01*
X5693991Y-13075888D02*
X5684467Y-13094936D01*
X5684467Y-13094936D02*
X5674943Y-13104460D01*
X5674943Y-13104460D02*
X5655896Y-13113984D01*
X5655896Y-13113984D02*
X5617801Y-13113984D01*
X5617801Y-13113984D02*
X5598753Y-13104460D01*
X5779705Y-13094936D02*
X5789229Y-13104460D01*
X5789229Y-13104460D02*
X5779705Y-13113984D01*
X5779705Y-13113984D02*
X5770182Y-13104460D01*
X5770182Y-13104460D02*
X5779705Y-13094936D01*
X5779705Y-13094936D02*
X5779705Y-13113984D01*
X5779705Y-12990174D02*
X5789229Y-12999698D01*
X5789229Y-12999698D02*
X5779705Y-13009222D01*
X5779705Y-13009222D02*
X5770182Y-12999698D01*
X5770182Y-12999698D02*
X5779705Y-12990174D01*
X5779705Y-12990174D02*
X5779705Y-13009222D01*
D12*
X4117500Y-13427500D02*
X4147500Y-13457500D01*
X4147500Y-13427500D02*
X4117500Y-13457500D01*
D11*
X4446372Y-13333984D02*
X4465420Y-13333984D01*
X4465420Y-13333984D02*
X4484467Y-13343508D01*
X4484467Y-13343508D02*
X4493991Y-13353031D01*
X4493991Y-13353031D02*
X4503515Y-13372079D01*
X4503515Y-13372079D02*
X4513039Y-13410174D01*
X4513039Y-13410174D02*
X4513039Y-13457793D01*
X4513039Y-13457793D02*
X4503515Y-13495888D01*
X4503515Y-13495888D02*
X4493991Y-13514936D01*
X4493991Y-13514936D02*
X4484467Y-13524460D01*
X4484467Y-13524460D02*
X4465420Y-13533984D01*
X4465420Y-13533984D02*
X4446372Y-13533984D01*
X4446372Y-13533984D02*
X4427324Y-13524460D01*
X4427324Y-13524460D02*
X4417801Y-13514936D01*
X4417801Y-13514936D02*
X4408277Y-13495888D01*
X4408277Y-13495888D02*
X4398753Y-13457793D01*
X4398753Y-13457793D02*
X4398753Y-13410174D01*
X4398753Y-13410174D02*
X4408277Y-13372079D01*
X4408277Y-13372079D02*
X4417801Y-13353031D01*
X4417801Y-13353031D02*
X4427324Y-13343508D01*
X4427324Y-13343508D02*
X4446372Y-13333984D01*
X4598753Y-13514936D02*
X4608277Y-13524460D01*
X4608277Y-13524460D02*
X4598753Y-13533984D01*
X4598753Y-13533984D02*
X4589229Y-13524460D01*
X4589229Y-13524460D02*
X4598753Y-13514936D01*
X4598753Y-13514936D02*
X4598753Y-13533984D01*
X4674944Y-13333984D02*
X4798753Y-13333984D01*
X4798753Y-13333984D02*
X4732086Y-13410174D01*
X4732086Y-13410174D02*
X4760658Y-13410174D01*
X4760658Y-13410174D02*
X4779705Y-13419698D01*
X4779705Y-13419698D02*
X4789229Y-13429222D01*
X4789229Y-13429222D02*
X4798753Y-13448269D01*
X4798753Y-13448269D02*
X4798753Y-13495888D01*
X4798753Y-13495888D02*
X4789229Y-13514936D01*
X4789229Y-13514936D02*
X4779705Y-13524460D01*
X4779705Y-13524460D02*
X4760658Y-13533984D01*
X4760658Y-13533984D02*
X4703515Y-13533984D01*
X4703515Y-13533984D02*
X4684467Y-13524460D01*
X4684467Y-13524460D02*
X4674944Y-13514936D01*
X4922563Y-13333984D02*
X4941610Y-13333984D01*
X4941610Y-13333984D02*
X4960658Y-13343508D01*
X4960658Y-13343508D02*
X4970182Y-13353031D01*
X4970182Y-13353031D02*
X4979705Y-13372079D01*
X4979705Y-13372079D02*
X4989229Y-13410174D01*
X4989229Y-13410174D02*
X4989229Y-13457793D01*
X4989229Y-13457793D02*
X4979705Y-13495888D01*
X4979705Y-13495888D02*
X4970182Y-13514936D01*
X4970182Y-13514936D02*
X4960658Y-13524460D01*
X4960658Y-13524460D02*
X4941610Y-13533984D01*
X4941610Y-13533984D02*
X4922563Y-13533984D01*
X4922563Y-13533984D02*
X4903515Y-13524460D01*
X4903515Y-13524460D02*
X4893991Y-13514936D01*
X4893991Y-13514936D02*
X4884467Y-13495888D01*
X4884467Y-13495888D02*
X4874944Y-13457793D01*
X4874944Y-13457793D02*
X4874944Y-13410174D01*
X4874944Y-13410174D02*
X4884467Y-13372079D01*
X4884467Y-13372079D02*
X4893991Y-13353031D01*
X4893991Y-13353031D02*
X4903515Y-13343508D01*
X4903515Y-13343508D02*
X4922563Y-13333984D01*
X5113039Y-13333984D02*
X5132086Y-13333984D01*
X5132086Y-13333984D02*
X5151134Y-13343508D01*
X5151134Y-13343508D02*
X5160658Y-13353031D01*
X5160658Y-13353031D02*
X5170182Y-13372079D01*
X5170182Y-13372079D02*
X5179705Y-13410174D01*
X5179705Y-13410174D02*
X5179705Y-13457793D01*
X5179705Y-13457793D02*
X5170182Y-13495888D01*
X5170182Y-13495888D02*
X5160658Y-13514936D01*
X5160658Y-13514936D02*
X5151134Y-13524460D01*
X5151134Y-13524460D02*
X5132086Y-13533984D01*
X5132086Y-13533984D02*
X5113039Y-13533984D01*
X5113039Y-13533984D02*
X5093991Y-13524460D01*
X5093991Y-13524460D02*
X5084467Y-13514936D01*
X5084467Y-13514936D02*
X5074944Y-13495888D01*
X5074944Y-13495888D02*
X5065420Y-13457793D01*
X5065420Y-13457793D02*
X5065420Y-13410174D01*
X5065420Y-13410174D02*
X5074944Y-13372079D01*
X5074944Y-13372079D02*
X5084467Y-13353031D01*
X5084467Y-13353031D02*
X5093991Y-13343508D01*
X5093991Y-13343508D02*
X5113039Y-13333984D01*
X5265420Y-13533984D02*
X5265420Y-13400650D01*
X5265420Y-13419698D02*
X5274944Y-13410174D01*
X5274944Y-13410174D02*
X5293991Y-13400650D01*
X5293991Y-13400650D02*
X5322563Y-13400650D01*
X5322563Y-13400650D02*
X5341610Y-13410174D01*
X5341610Y-13410174D02*
X5351134Y-13429222D01*
X5351134Y-13429222D02*
X5351134Y-13533984D01*
X5351134Y-13429222D02*
X5360658Y-13410174D01*
X5360658Y-13410174D02*
X5379705Y-13400650D01*
X5379705Y-13400650D02*
X5408277Y-13400650D01*
X5408277Y-13400650D02*
X5427325Y-13410174D01*
X5427325Y-13410174D02*
X5436848Y-13429222D01*
X5436848Y-13429222D02*
X5436848Y-13533984D01*
X5532086Y-13533984D02*
X5532086Y-13400650D01*
X5532086Y-13419698D02*
X5541610Y-13410174D01*
X5541610Y-13410174D02*
X5560658Y-13400650D01*
X5560658Y-13400650D02*
X5589229Y-13400650D01*
X5589229Y-13400650D02*
X5608277Y-13410174D01*
X5608277Y-13410174D02*
X5617801Y-13429222D01*
X5617801Y-13429222D02*
X5617801Y-13533984D01*
X5617801Y-13429222D02*
X5627324Y-13410174D01*
X5627324Y-13410174D02*
X5646372Y-13400650D01*
X5646372Y-13400650D02*
X5674943Y-13400650D01*
X5674943Y-13400650D02*
X5693991Y-13410174D01*
X5693991Y-13410174D02*
X5703515Y-13429222D01*
X5703515Y-13429222D02*
X5703515Y-13533984D01*
X6093991Y-13324460D02*
X5922563Y-13581603D01*
X6351134Y-13333984D02*
X6370182Y-13333984D01*
X6370182Y-13333984D02*
X6389229Y-13343508D01*
X6389229Y-13343508D02*
X6398753Y-13353031D01*
X6398753Y-13353031D02*
X6408277Y-13372079D01*
X6408277Y-13372079D02*
X6417801Y-13410174D01*
X6417801Y-13410174D02*
X6417801Y-13457793D01*
X6417801Y-13457793D02*
X6408277Y-13495888D01*
X6408277Y-13495888D02*
X6398753Y-13514936D01*
X6398753Y-13514936D02*
X6389229Y-13524460D01*
X6389229Y-13524460D02*
X6370182Y-13533984D01*
X6370182Y-13533984D02*
X6351134Y-13533984D01*
X6351134Y-13533984D02*
X6332086Y-13524460D01*
X6332086Y-13524460D02*
X6322563Y-13514936D01*
X6322563Y-13514936D02*
X6313039Y-13495888D01*
X6313039Y-13495888D02*
X6303515Y-13457793D01*
X6303515Y-13457793D02*
X6303515Y-13410174D01*
X6303515Y-13410174D02*
X6313039Y-13372079D01*
X6313039Y-13372079D02*
X6322563Y-13353031D01*
X6322563Y-13353031D02*
X6332086Y-13343508D01*
X6332086Y-13343508D02*
X6351134Y-13333984D01*
X6503515Y-13514936D02*
X6513039Y-13524460D01*
X6513039Y-13524460D02*
X6503515Y-13533984D01*
X6503515Y-13533984D02*
X6493991Y-13524460D01*
X6493991Y-13524460D02*
X6503515Y-13514936D01*
X6503515Y-13514936D02*
X6503515Y-13533984D01*
X6636848Y-13333984D02*
X6655896Y-13333984D01*
X6655896Y-13333984D02*
X6674944Y-13343508D01*
X6674944Y-13343508D02*
X6684467Y-13353031D01*
X6684467Y-13353031D02*
X6693991Y-13372079D01*
X6693991Y-13372079D02*
X6703515Y-13410174D01*
X6703515Y-13410174D02*
X6703515Y-13457793D01*
X6703515Y-13457793D02*
X6693991Y-13495888D01*
X6693991Y-13495888D02*
X6684467Y-13514936D01*
X6684467Y-13514936D02*
X6674944Y-13524460D01*
X6674944Y-13524460D02*
X6655896Y-13533984D01*
X6655896Y-13533984D02*
X6636848Y-13533984D01*
X6636848Y-13533984D02*
X6617801Y-13524460D01*
X6617801Y-13524460D02*
X6608277Y-13514936D01*
X6608277Y-13514936D02*
X6598753Y-13495888D01*
X6598753Y-13495888D02*
X6589229Y-13457793D01*
X6589229Y-13457793D02*
X6589229Y-13410174D01*
X6589229Y-13410174D02*
X6598753Y-13372079D01*
X6598753Y-13372079D02*
X6608277Y-13353031D01*
X6608277Y-13353031D02*
X6617801Y-13343508D01*
X6617801Y-13343508D02*
X6636848Y-13333984D01*
X6893991Y-13533984D02*
X6779706Y-13533984D01*
X6836848Y-13533984D02*
X6836848Y-13333984D01*
X6836848Y-13333984D02*
X6817801Y-13362555D01*
X6817801Y-13362555D02*
X6798753Y-13381603D01*
X6798753Y-13381603D02*
X6779706Y-13391127D01*
X7084467Y-13533984D02*
X6970182Y-13533984D01*
X7027325Y-13533984D02*
X7027325Y-13333984D01*
X7027325Y-13333984D02*
X7008277Y-13362555D01*
X7008277Y-13362555D02*
X6989229Y-13381603D01*
X6989229Y-13381603D02*
X6970182Y-13391127D01*
X7198753Y-13419698D02*
X7179706Y-13410174D01*
X7179706Y-13410174D02*
X7170182Y-13400650D01*
X7170182Y-13400650D02*
X7160658Y-13381603D01*
X7160658Y-13381603D02*
X7160658Y-13372079D01*
X7160658Y-13372079D02*
X7170182Y-13353031D01*
X7170182Y-13353031D02*
X7179706Y-13343508D01*
X7179706Y-13343508D02*
X7198753Y-13333984D01*
X7198753Y-13333984D02*
X7236848Y-13333984D01*
X7236848Y-13333984D02*
X7255896Y-13343508D01*
X7255896Y-13343508D02*
X7265420Y-13353031D01*
X7265420Y-13353031D02*
X7274944Y-13372079D01*
X7274944Y-13372079D02*
X7274944Y-13381603D01*
X7274944Y-13381603D02*
X7265420Y-13400650D01*
X7265420Y-13400650D02*
X7255896Y-13410174D01*
X7255896Y-13410174D02*
X7236848Y-13419698D01*
X7236848Y-13419698D02*
X7198753Y-13419698D01*
X7198753Y-13419698D02*
X7179706Y-13429222D01*
X7179706Y-13429222D02*
X7170182Y-13438746D01*
X7170182Y-13438746D02*
X7160658Y-13457793D01*
X7160658Y-13457793D02*
X7160658Y-13495888D01*
X7160658Y-13495888D02*
X7170182Y-13514936D01*
X7170182Y-13514936D02*
X7179706Y-13524460D01*
X7179706Y-13524460D02*
X7198753Y-13533984D01*
X7198753Y-13533984D02*
X7236848Y-13533984D01*
X7236848Y-13533984D02*
X7255896Y-13524460D01*
X7255896Y-13524460D02*
X7265420Y-13514936D01*
X7265420Y-13514936D02*
X7274944Y-13495888D01*
X7274944Y-13495888D02*
X7274944Y-13457793D01*
X7274944Y-13457793D02*
X7265420Y-13438746D01*
X7265420Y-13438746D02*
X7255896Y-13429222D01*
X7255896Y-13429222D02*
X7236848Y-13419698D01*
X7351134Y-13333984D02*
X7351134Y-13372079D01*
X7427325Y-13333984D02*
X7427325Y-13372079D01*
X7722563Y-13610174D02*
X7713039Y-13600650D01*
X7713039Y-13600650D02*
X7693991Y-13572079D01*
X7693991Y-13572079D02*
X7684468Y-13553031D01*
X7684468Y-13553031D02*
X7674944Y-13524460D01*
X7674944Y-13524460D02*
X7665420Y-13476841D01*
X7665420Y-13476841D02*
X7665420Y-13438746D01*
X7665420Y-13438746D02*
X7674944Y-13391127D01*
X7674944Y-13391127D02*
X7684468Y-13362555D01*
X7684468Y-13362555D02*
X7693991Y-13343508D01*
X7693991Y-13343508D02*
X7713039Y-13314936D01*
X7713039Y-13314936D02*
X7722563Y-13305412D01*
X7903515Y-13533984D02*
X7789229Y-13533984D01*
X7846372Y-13533984D02*
X7846372Y-13333984D01*
X7846372Y-13333984D02*
X7827325Y-13362555D01*
X7827325Y-13362555D02*
X7808277Y-13381603D01*
X7808277Y-13381603D02*
X7789229Y-13391127D01*
X8074944Y-13400650D02*
X8074944Y-13533984D01*
X8027325Y-13324460D02*
X7979706Y-13467317D01*
X7979706Y-13467317D02*
X8103515Y-13467317D01*
X8332087Y-13533984D02*
X8332087Y-13333984D01*
X8417801Y-13533984D02*
X8417801Y-13429222D01*
X8417801Y-13429222D02*
X8408277Y-13410174D01*
X8408277Y-13410174D02*
X8389230Y-13400650D01*
X8389230Y-13400650D02*
X8360658Y-13400650D01*
X8360658Y-13400650D02*
X8341610Y-13410174D01*
X8341610Y-13410174D02*
X8332087Y-13419698D01*
X8541611Y-13533984D02*
X8522563Y-13524460D01*
X8522563Y-13524460D02*
X8513039Y-13514936D01*
X8513039Y-13514936D02*
X8503515Y-13495888D01*
X8503515Y-13495888D02*
X8503515Y-13438746D01*
X8503515Y-13438746D02*
X8513039Y-13419698D01*
X8513039Y-13419698D02*
X8522563Y-13410174D01*
X8522563Y-13410174D02*
X8541611Y-13400650D01*
X8541611Y-13400650D02*
X8570182Y-13400650D01*
X8570182Y-13400650D02*
X8589230Y-13410174D01*
X8589230Y-13410174D02*
X8598753Y-13419698D01*
X8598753Y-13419698D02*
X8608277Y-13438746D01*
X8608277Y-13438746D02*
X8608277Y-13495888D01*
X8608277Y-13495888D02*
X8598753Y-13514936D01*
X8598753Y-13514936D02*
X8589230Y-13524460D01*
X8589230Y-13524460D02*
X8570182Y-13533984D01*
X8570182Y-13533984D02*
X8541611Y-13533984D01*
X8722563Y-13533984D02*
X8703515Y-13524460D01*
X8703515Y-13524460D02*
X8693992Y-13505412D01*
X8693992Y-13505412D02*
X8693992Y-13333984D01*
X8874944Y-13524460D02*
X8855896Y-13533984D01*
X8855896Y-13533984D02*
X8817801Y-13533984D01*
X8817801Y-13533984D02*
X8798753Y-13524460D01*
X8798753Y-13524460D02*
X8789230Y-13505412D01*
X8789230Y-13505412D02*
X8789230Y-13429222D01*
X8789230Y-13429222D02*
X8798753Y-13410174D01*
X8798753Y-13410174D02*
X8817801Y-13400650D01*
X8817801Y-13400650D02*
X8855896Y-13400650D01*
X8855896Y-13400650D02*
X8874944Y-13410174D01*
X8874944Y-13410174D02*
X8884468Y-13429222D01*
X8884468Y-13429222D02*
X8884468Y-13448269D01*
X8884468Y-13448269D02*
X8789230Y-13467317D01*
X8960658Y-13524460D02*
X8979706Y-13533984D01*
X8979706Y-13533984D02*
X9017801Y-13533984D01*
X9017801Y-13533984D02*
X9036849Y-13524460D01*
X9036849Y-13524460D02*
X9046373Y-13505412D01*
X9046373Y-13505412D02*
X9046373Y-13495888D01*
X9046373Y-13495888D02*
X9036849Y-13476841D01*
X9036849Y-13476841D02*
X9017801Y-13467317D01*
X9017801Y-13467317D02*
X8989230Y-13467317D01*
X8989230Y-13467317D02*
X8970182Y-13457793D01*
X8970182Y-13457793D02*
X8960658Y-13438746D01*
X8960658Y-13438746D02*
X8960658Y-13429222D01*
X8960658Y-13429222D02*
X8970182Y-13410174D01*
X8970182Y-13410174D02*
X8989230Y-13400650D01*
X8989230Y-13400650D02*
X9017801Y-13400650D01*
X9017801Y-13400650D02*
X9036849Y-13410174D01*
X9113039Y-13610174D02*
X9122563Y-13600650D01*
X9122563Y-13600650D02*
X9141611Y-13572079D01*
X9141611Y-13572079D02*
X9151134Y-13553031D01*
X9151134Y-13553031D02*
X9160658Y-13524460D01*
X9160658Y-13524460D02*
X9170182Y-13476841D01*
X9170182Y-13476841D02*
X9170182Y-13438746D01*
X9170182Y-13438746D02*
X9160658Y-13391127D01*
X9160658Y-13391127D02*
X9151134Y-13362555D01*
X9151134Y-13362555D02*
X9141611Y-13343508D01*
X9141611Y-13343508D02*
X9122563Y-13314936D01*
X9122563Y-13314936D02*
X9113039Y-13305412D01*
D12*
X4147500Y-13706500D02*
G75*
G02*
X4077500Y-13706500I-35000J0D01*
G01*
X4077500Y-13706500D02*
G75*
G02*
X4147500Y-13706500I35000J0D01*
G01*
D11*
X4446372Y-13597984D02*
X4465420Y-13597984D01*
X4465420Y-13597984D02*
X4484467Y-13607508D01*
X4484467Y-13607508D02*
X4493991Y-13617031D01*
X4493991Y-13617031D02*
X4503515Y-13636079D01*
X4503515Y-13636079D02*
X4513039Y-13674174D01*
X4513039Y-13674174D02*
X4513039Y-13721793D01*
X4513039Y-13721793D02*
X4503515Y-13759888D01*
X4503515Y-13759888D02*
X4493991Y-13778936D01*
X4493991Y-13778936D02*
X4484467Y-13788460D01*
X4484467Y-13788460D02*
X4465420Y-13797984D01*
X4465420Y-13797984D02*
X4446372Y-13797984D01*
X4446372Y-13797984D02*
X4427324Y-13788460D01*
X4427324Y-13788460D02*
X4417801Y-13778936D01*
X4417801Y-13778936D02*
X4408277Y-13759888D01*
X4408277Y-13759888D02*
X4398753Y-13721793D01*
X4398753Y-13721793D02*
X4398753Y-13674174D01*
X4398753Y-13674174D02*
X4408277Y-13636079D01*
X4408277Y-13636079D02*
X4417801Y-13617031D01*
X4417801Y-13617031D02*
X4427324Y-13607508D01*
X4427324Y-13607508D02*
X4446372Y-13597984D01*
X4598753Y-13778936D02*
X4608277Y-13788460D01*
X4608277Y-13788460D02*
X4598753Y-13797984D01*
X4598753Y-13797984D02*
X4589229Y-13788460D01*
X4589229Y-13788460D02*
X4598753Y-13778936D01*
X4598753Y-13778936D02*
X4598753Y-13797984D01*
X4674944Y-13597984D02*
X4808277Y-13597984D01*
X4808277Y-13597984D02*
X4722563Y-13797984D01*
X4922563Y-13597984D02*
X4941610Y-13597984D01*
X4941610Y-13597984D02*
X4960658Y-13607508D01*
X4960658Y-13607508D02*
X4970182Y-13617031D01*
X4970182Y-13617031D02*
X4979705Y-13636079D01*
X4979705Y-13636079D02*
X4989229Y-13674174D01*
X4989229Y-13674174D02*
X4989229Y-13721793D01*
X4989229Y-13721793D02*
X4979705Y-13759888D01*
X4979705Y-13759888D02*
X4970182Y-13778936D01*
X4970182Y-13778936D02*
X4960658Y-13788460D01*
X4960658Y-13788460D02*
X4941610Y-13797984D01*
X4941610Y-13797984D02*
X4922563Y-13797984D01*
X4922563Y-13797984D02*
X4903515Y-13788460D01*
X4903515Y-13788460D02*
X4893991Y-13778936D01*
X4893991Y-13778936D02*
X4884467Y-13759888D01*
X4884467Y-13759888D02*
X4874944Y-13721793D01*
X4874944Y-13721793D02*
X4874944Y-13674174D01*
X4874944Y-13674174D02*
X4884467Y-13636079D01*
X4884467Y-13636079D02*
X4893991Y-13617031D01*
X4893991Y-13617031D02*
X4903515Y-13607508D01*
X4903515Y-13607508D02*
X4922563Y-13597984D01*
X5113039Y-13597984D02*
X5132086Y-13597984D01*
X5132086Y-13597984D02*
X5151134Y-13607508D01*
X5151134Y-13607508D02*
X5160658Y-13617031D01*
X5160658Y-13617031D02*
X5170182Y-13636079D01*
X5170182Y-13636079D02*
X5179705Y-13674174D01*
X5179705Y-13674174D02*
X5179705Y-13721793D01*
X5179705Y-13721793D02*
X5170182Y-13759888D01*
X5170182Y-13759888D02*
X5160658Y-13778936D01*
X5160658Y-13778936D02*
X5151134Y-13788460D01*
X5151134Y-13788460D02*
X5132086Y-13797984D01*
X5132086Y-13797984D02*
X5113039Y-13797984D01*
X5113039Y-13797984D02*
X5093991Y-13788460D01*
X5093991Y-13788460D02*
X5084467Y-13778936D01*
X5084467Y-13778936D02*
X5074944Y-13759888D01*
X5074944Y-13759888D02*
X5065420Y-13721793D01*
X5065420Y-13721793D02*
X5065420Y-13674174D01*
X5065420Y-13674174D02*
X5074944Y-13636079D01*
X5074944Y-13636079D02*
X5084467Y-13617031D01*
X5084467Y-13617031D02*
X5093991Y-13607508D01*
X5093991Y-13607508D02*
X5113039Y-13597984D01*
X5265420Y-13797984D02*
X5265420Y-13664650D01*
X5265420Y-13683698D02*
X5274944Y-13674174D01*
X5274944Y-13674174D02*
X5293991Y-13664650D01*
X5293991Y-13664650D02*
X5322563Y-13664650D01*
X5322563Y-13664650D02*
X5341610Y-13674174D01*
X5341610Y-13674174D02*
X5351134Y-13693222D01*
X5351134Y-13693222D02*
X5351134Y-13797984D01*
X5351134Y-13693222D02*
X5360658Y-13674174D01*
X5360658Y-13674174D02*
X5379705Y-13664650D01*
X5379705Y-13664650D02*
X5408277Y-13664650D01*
X5408277Y-13664650D02*
X5427325Y-13674174D01*
X5427325Y-13674174D02*
X5436848Y-13693222D01*
X5436848Y-13693222D02*
X5436848Y-13797984D01*
X5532086Y-13797984D02*
X5532086Y-13664650D01*
X5532086Y-13683698D02*
X5541610Y-13674174D01*
X5541610Y-13674174D02*
X5560658Y-13664650D01*
X5560658Y-13664650D02*
X5589229Y-13664650D01*
X5589229Y-13664650D02*
X5608277Y-13674174D01*
X5608277Y-13674174D02*
X5617801Y-13693222D01*
X5617801Y-13693222D02*
X5617801Y-13797984D01*
X5617801Y-13693222D02*
X5627324Y-13674174D01*
X5627324Y-13674174D02*
X5646372Y-13664650D01*
X5646372Y-13664650D02*
X5674943Y-13664650D01*
X5674943Y-13664650D02*
X5693991Y-13674174D01*
X5693991Y-13674174D02*
X5703515Y-13693222D01*
X5703515Y-13693222D02*
X5703515Y-13797984D01*
X6093991Y-13588460D02*
X5922563Y-13845603D01*
X6351134Y-13597984D02*
X6370182Y-13597984D01*
X6370182Y-13597984D02*
X6389229Y-13607508D01*
X6389229Y-13607508D02*
X6398753Y-13617031D01*
X6398753Y-13617031D02*
X6408277Y-13636079D01*
X6408277Y-13636079D02*
X6417801Y-13674174D01*
X6417801Y-13674174D02*
X6417801Y-13721793D01*
X6417801Y-13721793D02*
X6408277Y-13759888D01*
X6408277Y-13759888D02*
X6398753Y-13778936D01*
X6398753Y-13778936D02*
X6389229Y-13788460D01*
X6389229Y-13788460D02*
X6370182Y-13797984D01*
X6370182Y-13797984D02*
X6351134Y-13797984D01*
X6351134Y-13797984D02*
X6332086Y-13788460D01*
X6332086Y-13788460D02*
X6322563Y-13778936D01*
X6322563Y-13778936D02*
X6313039Y-13759888D01*
X6313039Y-13759888D02*
X6303515Y-13721793D01*
X6303515Y-13721793D02*
X6303515Y-13674174D01*
X6303515Y-13674174D02*
X6313039Y-13636079D01*
X6313039Y-13636079D02*
X6322563Y-13617031D01*
X6322563Y-13617031D02*
X6332086Y-13607508D01*
X6332086Y-13607508D02*
X6351134Y-13597984D01*
X6503515Y-13778936D02*
X6513039Y-13788460D01*
X6513039Y-13788460D02*
X6503515Y-13797984D01*
X6503515Y-13797984D02*
X6493991Y-13788460D01*
X6493991Y-13788460D02*
X6503515Y-13778936D01*
X6503515Y-13778936D02*
X6503515Y-13797984D01*
X6636848Y-13597984D02*
X6655896Y-13597984D01*
X6655896Y-13597984D02*
X6674944Y-13607508D01*
X6674944Y-13607508D02*
X6684467Y-13617031D01*
X6684467Y-13617031D02*
X6693991Y-13636079D01*
X6693991Y-13636079D02*
X6703515Y-13674174D01*
X6703515Y-13674174D02*
X6703515Y-13721793D01*
X6703515Y-13721793D02*
X6693991Y-13759888D01*
X6693991Y-13759888D02*
X6684467Y-13778936D01*
X6684467Y-13778936D02*
X6674944Y-13788460D01*
X6674944Y-13788460D02*
X6655896Y-13797984D01*
X6655896Y-13797984D02*
X6636848Y-13797984D01*
X6636848Y-13797984D02*
X6617801Y-13788460D01*
X6617801Y-13788460D02*
X6608277Y-13778936D01*
X6608277Y-13778936D02*
X6598753Y-13759888D01*
X6598753Y-13759888D02*
X6589229Y-13721793D01*
X6589229Y-13721793D02*
X6589229Y-13674174D01*
X6589229Y-13674174D02*
X6598753Y-13636079D01*
X6598753Y-13636079D02*
X6608277Y-13617031D01*
X6608277Y-13617031D02*
X6617801Y-13607508D01*
X6617801Y-13607508D02*
X6636848Y-13597984D01*
X6779706Y-13617031D02*
X6789229Y-13607508D01*
X6789229Y-13607508D02*
X6808277Y-13597984D01*
X6808277Y-13597984D02*
X6855896Y-13597984D01*
X6855896Y-13597984D02*
X6874944Y-13607508D01*
X6874944Y-13607508D02*
X6884467Y-13617031D01*
X6884467Y-13617031D02*
X6893991Y-13636079D01*
X6893991Y-13636079D02*
X6893991Y-13655127D01*
X6893991Y-13655127D02*
X6884467Y-13683698D01*
X6884467Y-13683698D02*
X6770182Y-13797984D01*
X6770182Y-13797984D02*
X6893991Y-13797984D01*
X6960658Y-13597984D02*
X7093991Y-13597984D01*
X7093991Y-13597984D02*
X7008277Y-13797984D01*
X7255896Y-13597984D02*
X7217801Y-13597984D01*
X7217801Y-13597984D02*
X7198753Y-13607508D01*
X7198753Y-13607508D02*
X7189229Y-13617031D01*
X7189229Y-13617031D02*
X7170182Y-13645603D01*
X7170182Y-13645603D02*
X7160658Y-13683698D01*
X7160658Y-13683698D02*
X7160658Y-13759888D01*
X7160658Y-13759888D02*
X7170182Y-13778936D01*
X7170182Y-13778936D02*
X7179706Y-13788460D01*
X7179706Y-13788460D02*
X7198753Y-13797984D01*
X7198753Y-13797984D02*
X7236848Y-13797984D01*
X7236848Y-13797984D02*
X7255896Y-13788460D01*
X7255896Y-13788460D02*
X7265420Y-13778936D01*
X7265420Y-13778936D02*
X7274944Y-13759888D01*
X7274944Y-13759888D02*
X7274944Y-13712269D01*
X7274944Y-13712269D02*
X7265420Y-13693222D01*
X7265420Y-13693222D02*
X7255896Y-13683698D01*
X7255896Y-13683698D02*
X7236848Y-13674174D01*
X7236848Y-13674174D02*
X7198753Y-13674174D01*
X7198753Y-13674174D02*
X7179706Y-13683698D01*
X7179706Y-13683698D02*
X7170182Y-13693222D01*
X7170182Y-13693222D02*
X7160658Y-13712269D01*
X7351134Y-13597984D02*
X7351134Y-13636079D01*
X7427325Y-13597984D02*
X7427325Y-13636079D01*
X7722563Y-13874174D02*
X7713039Y-13864650D01*
X7713039Y-13864650D02*
X7693991Y-13836079D01*
X7693991Y-13836079D02*
X7684468Y-13817031D01*
X7684468Y-13817031D02*
X7674944Y-13788460D01*
X7674944Y-13788460D02*
X7665420Y-13740841D01*
X7665420Y-13740841D02*
X7665420Y-13702746D01*
X7665420Y-13702746D02*
X7674944Y-13655127D01*
X7674944Y-13655127D02*
X7684468Y-13626555D01*
X7684468Y-13626555D02*
X7693991Y-13607508D01*
X7693991Y-13607508D02*
X7713039Y-13578936D01*
X7713039Y-13578936D02*
X7722563Y-13569412D01*
X7903515Y-13797984D02*
X7789229Y-13797984D01*
X7846372Y-13797984D02*
X7846372Y-13597984D01*
X7846372Y-13597984D02*
X7827325Y-13626555D01*
X7827325Y-13626555D02*
X7808277Y-13645603D01*
X7808277Y-13645603D02*
X7789229Y-13655127D01*
X8074944Y-13597984D02*
X8036848Y-13597984D01*
X8036848Y-13597984D02*
X8017801Y-13607508D01*
X8017801Y-13607508D02*
X8008277Y-13617031D01*
X8008277Y-13617031D02*
X7989229Y-13645603D01*
X7989229Y-13645603D02*
X7979706Y-13683698D01*
X7979706Y-13683698D02*
X7979706Y-13759888D01*
X7979706Y-13759888D02*
X7989229Y-13778936D01*
X7989229Y-13778936D02*
X7998753Y-13788460D01*
X7998753Y-13788460D02*
X8017801Y-13797984D01*
X8017801Y-13797984D02*
X8055896Y-13797984D01*
X8055896Y-13797984D02*
X8074944Y-13788460D01*
X8074944Y-13788460D02*
X8084468Y-13778936D01*
X8084468Y-13778936D02*
X8093991Y-13759888D01*
X8093991Y-13759888D02*
X8093991Y-13712269D01*
X8093991Y-13712269D02*
X8084468Y-13693222D01*
X8084468Y-13693222D02*
X8074944Y-13683698D01*
X8074944Y-13683698D02*
X8055896Y-13674174D01*
X8055896Y-13674174D02*
X8017801Y-13674174D01*
X8017801Y-13674174D02*
X7998753Y-13683698D01*
X7998753Y-13683698D02*
X7989229Y-13693222D01*
X7989229Y-13693222D02*
X7979706Y-13712269D01*
X8332087Y-13797984D02*
X8332087Y-13597984D01*
X8417801Y-13797984D02*
X8417801Y-13693222D01*
X8417801Y-13693222D02*
X8408277Y-13674174D01*
X8408277Y-13674174D02*
X8389230Y-13664650D01*
X8389230Y-13664650D02*
X8360658Y-13664650D01*
X8360658Y-13664650D02*
X8341610Y-13674174D01*
X8341610Y-13674174D02*
X8332087Y-13683698D01*
X8541611Y-13797984D02*
X8522563Y-13788460D01*
X8522563Y-13788460D02*
X8513039Y-13778936D01*
X8513039Y-13778936D02*
X8503515Y-13759888D01*
X8503515Y-13759888D02*
X8503515Y-13702746D01*
X8503515Y-13702746D02*
X8513039Y-13683698D01*
X8513039Y-13683698D02*
X8522563Y-13674174D01*
X8522563Y-13674174D02*
X8541611Y-13664650D01*
X8541611Y-13664650D02*
X8570182Y-13664650D01*
X8570182Y-13664650D02*
X8589230Y-13674174D01*
X8589230Y-13674174D02*
X8598753Y-13683698D01*
X8598753Y-13683698D02*
X8608277Y-13702746D01*
X8608277Y-13702746D02*
X8608277Y-13759888D01*
X8608277Y-13759888D02*
X8598753Y-13778936D01*
X8598753Y-13778936D02*
X8589230Y-13788460D01*
X8589230Y-13788460D02*
X8570182Y-13797984D01*
X8570182Y-13797984D02*
X8541611Y-13797984D01*
X8722563Y-13797984D02*
X8703515Y-13788460D01*
X8703515Y-13788460D02*
X8693992Y-13769412D01*
X8693992Y-13769412D02*
X8693992Y-13597984D01*
X8874944Y-13788460D02*
X8855896Y-13797984D01*
X8855896Y-13797984D02*
X8817801Y-13797984D01*
X8817801Y-13797984D02*
X8798753Y-13788460D01*
X8798753Y-13788460D02*
X8789230Y-13769412D01*
X8789230Y-13769412D02*
X8789230Y-13693222D01*
X8789230Y-13693222D02*
X8798753Y-13674174D01*
X8798753Y-13674174D02*
X8817801Y-13664650D01*
X8817801Y-13664650D02*
X8855896Y-13664650D01*
X8855896Y-13664650D02*
X8874944Y-13674174D01*
X8874944Y-13674174D02*
X8884468Y-13693222D01*
X8884468Y-13693222D02*
X8884468Y-13712269D01*
X8884468Y-13712269D02*
X8789230Y-13731317D01*
X8960658Y-13788460D02*
X8979706Y-13797984D01*
X8979706Y-13797984D02*
X9017801Y-13797984D01*
X9017801Y-13797984D02*
X9036849Y-13788460D01*
X9036849Y-13788460D02*
X9046373Y-13769412D01*
X9046373Y-13769412D02*
X9046373Y-13759888D01*
X9046373Y-13759888D02*
X9036849Y-13740841D01*
X9036849Y-13740841D02*
X9017801Y-13731317D01*
X9017801Y-13731317D02*
X8989230Y-13731317D01*
X8989230Y-13731317D02*
X8970182Y-13721793D01*
X8970182Y-13721793D02*
X8960658Y-13702746D01*
X8960658Y-13702746D02*
X8960658Y-13693222D01*
X8960658Y-13693222D02*
X8970182Y-13674174D01*
X8970182Y-13674174D02*
X8989230Y-13664650D01*
X8989230Y-13664650D02*
X9017801Y-13664650D01*
X9017801Y-13664650D02*
X9036849Y-13674174D01*
X9113039Y-13874174D02*
X9122563Y-13864650D01*
X9122563Y-13864650D02*
X9141611Y-13836079D01*
X9141611Y-13836079D02*
X9151134Y-13817031D01*
X9151134Y-13817031D02*
X9160658Y-13788460D01*
X9160658Y-13788460D02*
X9170182Y-13740841D01*
X9170182Y-13740841D02*
X9170182Y-13702746D01*
X9170182Y-13702746D02*
X9160658Y-13655127D01*
X9160658Y-13655127D02*
X9151134Y-13626555D01*
X9151134Y-13626555D02*
X9141611Y-13607508D01*
X9141611Y-13607508D02*
X9122563Y-13578936D01*
X9122563Y-13578936D02*
X9113039Y-13569412D01*
D12*
X4107500Y-13930500D02*
X4107500Y-14010500D01*
X4067500Y-13970500D02*
X4147500Y-13970500D01*
D11*
X4446372Y-13861984D02*
X4465420Y-13861984D01*
X4465420Y-13861984D02*
X4484467Y-13871508D01*
X4484467Y-13871508D02*
X4493991Y-13881031D01*
X4493991Y-13881031D02*
X4503515Y-13900079D01*
X4503515Y-13900079D02*
X4513039Y-13938174D01*
X4513039Y-13938174D02*
X4513039Y-13985793D01*
X4513039Y-13985793D02*
X4503515Y-14023888D01*
X4503515Y-14023888D02*
X4493991Y-14042936D01*
X4493991Y-14042936D02*
X4484467Y-14052460D01*
X4484467Y-14052460D02*
X4465420Y-14061984D01*
X4465420Y-14061984D02*
X4446372Y-14061984D01*
X4446372Y-14061984D02*
X4427324Y-14052460D01*
X4427324Y-14052460D02*
X4417801Y-14042936D01*
X4417801Y-14042936D02*
X4408277Y-14023888D01*
X4408277Y-14023888D02*
X4398753Y-13985793D01*
X4398753Y-13985793D02*
X4398753Y-13938174D01*
X4398753Y-13938174D02*
X4408277Y-13900079D01*
X4408277Y-13900079D02*
X4417801Y-13881031D01*
X4417801Y-13881031D02*
X4427324Y-13871508D01*
X4427324Y-13871508D02*
X4446372Y-13861984D01*
X4598753Y-14042936D02*
X4608277Y-14052460D01*
X4608277Y-14052460D02*
X4598753Y-14061984D01*
X4598753Y-14061984D02*
X4589229Y-14052460D01*
X4589229Y-14052460D02*
X4598753Y-14042936D01*
X4598753Y-14042936D02*
X4598753Y-14061984D01*
X4722563Y-13947698D02*
X4703515Y-13938174D01*
X4703515Y-13938174D02*
X4693991Y-13928650D01*
X4693991Y-13928650D02*
X4684467Y-13909603D01*
X4684467Y-13909603D02*
X4684467Y-13900079D01*
X4684467Y-13900079D02*
X4693991Y-13881031D01*
X4693991Y-13881031D02*
X4703515Y-13871508D01*
X4703515Y-13871508D02*
X4722563Y-13861984D01*
X4722563Y-13861984D02*
X4760658Y-13861984D01*
X4760658Y-13861984D02*
X4779705Y-13871508D01*
X4779705Y-13871508D02*
X4789229Y-13881031D01*
X4789229Y-13881031D02*
X4798753Y-13900079D01*
X4798753Y-13900079D02*
X4798753Y-13909603D01*
X4798753Y-13909603D02*
X4789229Y-13928650D01*
X4789229Y-13928650D02*
X4779705Y-13938174D01*
X4779705Y-13938174D02*
X4760658Y-13947698D01*
X4760658Y-13947698D02*
X4722563Y-13947698D01*
X4722563Y-13947698D02*
X4703515Y-13957222D01*
X4703515Y-13957222D02*
X4693991Y-13966746D01*
X4693991Y-13966746D02*
X4684467Y-13985793D01*
X4684467Y-13985793D02*
X4684467Y-14023888D01*
X4684467Y-14023888D02*
X4693991Y-14042936D01*
X4693991Y-14042936D02*
X4703515Y-14052460D01*
X4703515Y-14052460D02*
X4722563Y-14061984D01*
X4722563Y-14061984D02*
X4760658Y-14061984D01*
X4760658Y-14061984D02*
X4779705Y-14052460D01*
X4779705Y-14052460D02*
X4789229Y-14042936D01*
X4789229Y-14042936D02*
X4798753Y-14023888D01*
X4798753Y-14023888D02*
X4798753Y-13985793D01*
X4798753Y-13985793D02*
X4789229Y-13966746D01*
X4789229Y-13966746D02*
X4779705Y-13957222D01*
X4779705Y-13957222D02*
X4760658Y-13947698D01*
X4922563Y-13861984D02*
X4941610Y-13861984D01*
X4941610Y-13861984D02*
X4960658Y-13871508D01*
X4960658Y-13871508D02*
X4970182Y-13881031D01*
X4970182Y-13881031D02*
X4979705Y-13900079D01*
X4979705Y-13900079D02*
X4989229Y-13938174D01*
X4989229Y-13938174D02*
X4989229Y-13985793D01*
X4989229Y-13985793D02*
X4979705Y-14023888D01*
X4979705Y-14023888D02*
X4970182Y-14042936D01*
X4970182Y-14042936D02*
X4960658Y-14052460D01*
X4960658Y-14052460D02*
X4941610Y-14061984D01*
X4941610Y-14061984D02*
X4922563Y-14061984D01*
X4922563Y-14061984D02*
X4903515Y-14052460D01*
X4903515Y-14052460D02*
X4893991Y-14042936D01*
X4893991Y-14042936D02*
X4884467Y-14023888D01*
X4884467Y-14023888D02*
X4874944Y-13985793D01*
X4874944Y-13985793D02*
X4874944Y-13938174D01*
X4874944Y-13938174D02*
X4884467Y-13900079D01*
X4884467Y-13900079D02*
X4893991Y-13881031D01*
X4893991Y-13881031D02*
X4903515Y-13871508D01*
X4903515Y-13871508D02*
X4922563Y-13861984D01*
X5113039Y-13861984D02*
X5132086Y-13861984D01*
X5132086Y-13861984D02*
X5151134Y-13871508D01*
X5151134Y-13871508D02*
X5160658Y-13881031D01*
X5160658Y-13881031D02*
X5170182Y-13900079D01*
X5170182Y-13900079D02*
X5179705Y-13938174D01*
X5179705Y-13938174D02*
X5179705Y-13985793D01*
X5179705Y-13985793D02*
X5170182Y-14023888D01*
X5170182Y-14023888D02*
X5160658Y-14042936D01*
X5160658Y-14042936D02*
X5151134Y-14052460D01*
X5151134Y-14052460D02*
X5132086Y-14061984D01*
X5132086Y-14061984D02*
X5113039Y-14061984D01*
X5113039Y-14061984D02*
X5093991Y-14052460D01*
X5093991Y-14052460D02*
X5084467Y-14042936D01*
X5084467Y-14042936D02*
X5074944Y-14023888D01*
X5074944Y-14023888D02*
X5065420Y-13985793D01*
X5065420Y-13985793D02*
X5065420Y-13938174D01*
X5065420Y-13938174D02*
X5074944Y-13900079D01*
X5074944Y-13900079D02*
X5084467Y-13881031D01*
X5084467Y-13881031D02*
X5093991Y-13871508D01*
X5093991Y-13871508D02*
X5113039Y-13861984D01*
X5265420Y-14061984D02*
X5265420Y-13928650D01*
X5265420Y-13947698D02*
X5274944Y-13938174D01*
X5274944Y-13938174D02*
X5293991Y-13928650D01*
X5293991Y-13928650D02*
X5322563Y-13928650D01*
X5322563Y-13928650D02*
X5341610Y-13938174D01*
X5341610Y-13938174D02*
X5351134Y-13957222D01*
X5351134Y-13957222D02*
X5351134Y-14061984D01*
X5351134Y-13957222D02*
X5360658Y-13938174D01*
X5360658Y-13938174D02*
X5379705Y-13928650D01*
X5379705Y-13928650D02*
X5408277Y-13928650D01*
X5408277Y-13928650D02*
X5427325Y-13938174D01*
X5427325Y-13938174D02*
X5436848Y-13957222D01*
X5436848Y-13957222D02*
X5436848Y-14061984D01*
X5532086Y-14061984D02*
X5532086Y-13928650D01*
X5532086Y-13947698D02*
X5541610Y-13938174D01*
X5541610Y-13938174D02*
X5560658Y-13928650D01*
X5560658Y-13928650D02*
X5589229Y-13928650D01*
X5589229Y-13928650D02*
X5608277Y-13938174D01*
X5608277Y-13938174D02*
X5617801Y-13957222D01*
X5617801Y-13957222D02*
X5617801Y-14061984D01*
X5617801Y-13957222D02*
X5627324Y-13938174D01*
X5627324Y-13938174D02*
X5646372Y-13928650D01*
X5646372Y-13928650D02*
X5674943Y-13928650D01*
X5674943Y-13928650D02*
X5693991Y-13938174D01*
X5693991Y-13938174D02*
X5703515Y-13957222D01*
X5703515Y-13957222D02*
X5703515Y-14061984D01*
X6093991Y-13852460D02*
X5922563Y-14109603D01*
X6351134Y-13861984D02*
X6370182Y-13861984D01*
X6370182Y-13861984D02*
X6389229Y-13871508D01*
X6389229Y-13871508D02*
X6398753Y-13881031D01*
X6398753Y-13881031D02*
X6408277Y-13900079D01*
X6408277Y-13900079D02*
X6417801Y-13938174D01*
X6417801Y-13938174D02*
X6417801Y-13985793D01*
X6417801Y-13985793D02*
X6408277Y-14023888D01*
X6408277Y-14023888D02*
X6398753Y-14042936D01*
X6398753Y-14042936D02*
X6389229Y-14052460D01*
X6389229Y-14052460D02*
X6370182Y-14061984D01*
X6370182Y-14061984D02*
X6351134Y-14061984D01*
X6351134Y-14061984D02*
X6332086Y-14052460D01*
X6332086Y-14052460D02*
X6322563Y-14042936D01*
X6322563Y-14042936D02*
X6313039Y-14023888D01*
X6313039Y-14023888D02*
X6303515Y-13985793D01*
X6303515Y-13985793D02*
X6303515Y-13938174D01*
X6303515Y-13938174D02*
X6313039Y-13900079D01*
X6313039Y-13900079D02*
X6322563Y-13881031D01*
X6322563Y-13881031D02*
X6332086Y-13871508D01*
X6332086Y-13871508D02*
X6351134Y-13861984D01*
X6503515Y-14042936D02*
X6513039Y-14052460D01*
X6513039Y-14052460D02*
X6503515Y-14061984D01*
X6503515Y-14061984D02*
X6493991Y-14052460D01*
X6493991Y-14052460D02*
X6503515Y-14042936D01*
X6503515Y-14042936D02*
X6503515Y-14061984D01*
X6636848Y-13861984D02*
X6655896Y-13861984D01*
X6655896Y-13861984D02*
X6674944Y-13871508D01*
X6674944Y-13871508D02*
X6684467Y-13881031D01*
X6684467Y-13881031D02*
X6693991Y-13900079D01*
X6693991Y-13900079D02*
X6703515Y-13938174D01*
X6703515Y-13938174D02*
X6703515Y-13985793D01*
X6703515Y-13985793D02*
X6693991Y-14023888D01*
X6693991Y-14023888D02*
X6684467Y-14042936D01*
X6684467Y-14042936D02*
X6674944Y-14052460D01*
X6674944Y-14052460D02*
X6655896Y-14061984D01*
X6655896Y-14061984D02*
X6636848Y-14061984D01*
X6636848Y-14061984D02*
X6617801Y-14052460D01*
X6617801Y-14052460D02*
X6608277Y-14042936D01*
X6608277Y-14042936D02*
X6598753Y-14023888D01*
X6598753Y-14023888D02*
X6589229Y-13985793D01*
X6589229Y-13985793D02*
X6589229Y-13938174D01*
X6589229Y-13938174D02*
X6598753Y-13900079D01*
X6598753Y-13900079D02*
X6608277Y-13881031D01*
X6608277Y-13881031D02*
X6617801Y-13871508D01*
X6617801Y-13871508D02*
X6636848Y-13861984D01*
X6770182Y-13861984D02*
X6893991Y-13861984D01*
X6893991Y-13861984D02*
X6827325Y-13938174D01*
X6827325Y-13938174D02*
X6855896Y-13938174D01*
X6855896Y-13938174D02*
X6874944Y-13947698D01*
X6874944Y-13947698D02*
X6884467Y-13957222D01*
X6884467Y-13957222D02*
X6893991Y-13976269D01*
X6893991Y-13976269D02*
X6893991Y-14023888D01*
X6893991Y-14023888D02*
X6884467Y-14042936D01*
X6884467Y-14042936D02*
X6874944Y-14052460D01*
X6874944Y-14052460D02*
X6855896Y-14061984D01*
X6855896Y-14061984D02*
X6798753Y-14061984D01*
X6798753Y-14061984D02*
X6779706Y-14052460D01*
X6779706Y-14052460D02*
X6770182Y-14042936D01*
X7084467Y-14061984D02*
X6970182Y-14061984D01*
X7027325Y-14061984D02*
X7027325Y-13861984D01*
X7027325Y-13861984D02*
X7008277Y-13890555D01*
X7008277Y-13890555D02*
X6989229Y-13909603D01*
X6989229Y-13909603D02*
X6970182Y-13919127D01*
X7265420Y-13861984D02*
X7170182Y-13861984D01*
X7170182Y-13861984D02*
X7160658Y-13957222D01*
X7160658Y-13957222D02*
X7170182Y-13947698D01*
X7170182Y-13947698D02*
X7189229Y-13938174D01*
X7189229Y-13938174D02*
X7236848Y-13938174D01*
X7236848Y-13938174D02*
X7255896Y-13947698D01*
X7255896Y-13947698D02*
X7265420Y-13957222D01*
X7265420Y-13957222D02*
X7274944Y-13976269D01*
X7274944Y-13976269D02*
X7274944Y-14023888D01*
X7274944Y-14023888D02*
X7265420Y-14042936D01*
X7265420Y-14042936D02*
X7255896Y-14052460D01*
X7255896Y-14052460D02*
X7236848Y-14061984D01*
X7236848Y-14061984D02*
X7189229Y-14061984D01*
X7189229Y-14061984D02*
X7170182Y-14052460D01*
X7170182Y-14052460D02*
X7160658Y-14042936D01*
X7351134Y-13861984D02*
X7351134Y-13900079D01*
X7427325Y-13861984D02*
X7427325Y-13900079D01*
X7722563Y-14138174D02*
X7713039Y-14128650D01*
X7713039Y-14128650D02*
X7693991Y-14100079D01*
X7693991Y-14100079D02*
X7684468Y-14081031D01*
X7684468Y-14081031D02*
X7674944Y-14052460D01*
X7674944Y-14052460D02*
X7665420Y-14004841D01*
X7665420Y-14004841D02*
X7665420Y-13966746D01*
X7665420Y-13966746D02*
X7674944Y-13919127D01*
X7674944Y-13919127D02*
X7684468Y-13890555D01*
X7684468Y-13890555D02*
X7693991Y-13871508D01*
X7693991Y-13871508D02*
X7713039Y-13842936D01*
X7713039Y-13842936D02*
X7722563Y-13833412D01*
X7789229Y-13881031D02*
X7798753Y-13871508D01*
X7798753Y-13871508D02*
X7817801Y-13861984D01*
X7817801Y-13861984D02*
X7865420Y-13861984D01*
X7865420Y-13861984D02*
X7884468Y-13871508D01*
X7884468Y-13871508D02*
X7893991Y-13881031D01*
X7893991Y-13881031D02*
X7903515Y-13900079D01*
X7903515Y-13900079D02*
X7903515Y-13919127D01*
X7903515Y-13919127D02*
X7893991Y-13947698D01*
X7893991Y-13947698D02*
X7779706Y-14061984D01*
X7779706Y-14061984D02*
X7903515Y-14061984D01*
X8141610Y-14061984D02*
X8141610Y-13861984D01*
X8227325Y-14061984D02*
X8227325Y-13957222D01*
X8227325Y-13957222D02*
X8217801Y-13938174D01*
X8217801Y-13938174D02*
X8198753Y-13928650D01*
X8198753Y-13928650D02*
X8170182Y-13928650D01*
X8170182Y-13928650D02*
X8151134Y-13938174D01*
X8151134Y-13938174D02*
X8141610Y-13947698D01*
X8351134Y-14061984D02*
X8332087Y-14052460D01*
X8332087Y-14052460D02*
X8322563Y-14042936D01*
X8322563Y-14042936D02*
X8313039Y-14023888D01*
X8313039Y-14023888D02*
X8313039Y-13966746D01*
X8313039Y-13966746D02*
X8322563Y-13947698D01*
X8322563Y-13947698D02*
X8332087Y-13938174D01*
X8332087Y-13938174D02*
X8351134Y-13928650D01*
X8351134Y-13928650D02*
X8379706Y-13928650D01*
X8379706Y-13928650D02*
X8398753Y-13938174D01*
X8398753Y-13938174D02*
X8408277Y-13947698D01*
X8408277Y-13947698D02*
X8417801Y-13966746D01*
X8417801Y-13966746D02*
X8417801Y-14023888D01*
X8417801Y-14023888D02*
X8408277Y-14042936D01*
X8408277Y-14042936D02*
X8398753Y-14052460D01*
X8398753Y-14052460D02*
X8379706Y-14061984D01*
X8379706Y-14061984D02*
X8351134Y-14061984D01*
X8532087Y-14061984D02*
X8513039Y-14052460D01*
X8513039Y-14052460D02*
X8503515Y-14033412D01*
X8503515Y-14033412D02*
X8503515Y-13861984D01*
X8684468Y-14052460D02*
X8665420Y-14061984D01*
X8665420Y-14061984D02*
X8627325Y-14061984D01*
X8627325Y-14061984D02*
X8608277Y-14052460D01*
X8608277Y-14052460D02*
X8598753Y-14033412D01*
X8598753Y-14033412D02*
X8598753Y-13957222D01*
X8598753Y-13957222D02*
X8608277Y-13938174D01*
X8608277Y-13938174D02*
X8627325Y-13928650D01*
X8627325Y-13928650D02*
X8665420Y-13928650D01*
X8665420Y-13928650D02*
X8684468Y-13938174D01*
X8684468Y-13938174D02*
X8693992Y-13957222D01*
X8693992Y-13957222D02*
X8693992Y-13976269D01*
X8693992Y-13976269D02*
X8598753Y-13995317D01*
X8770182Y-14052460D02*
X8789230Y-14061984D01*
X8789230Y-14061984D02*
X8827325Y-14061984D01*
X8827325Y-14061984D02*
X8846373Y-14052460D01*
X8846373Y-14052460D02*
X8855896Y-14033412D01*
X8855896Y-14033412D02*
X8855896Y-14023888D01*
X8855896Y-14023888D02*
X8846373Y-14004841D01*
X8846373Y-14004841D02*
X8827325Y-13995317D01*
X8827325Y-13995317D02*
X8798753Y-13995317D01*
X8798753Y-13995317D02*
X8779706Y-13985793D01*
X8779706Y-13985793D02*
X8770182Y-13966746D01*
X8770182Y-13966746D02*
X8770182Y-13957222D01*
X8770182Y-13957222D02*
X8779706Y-13938174D01*
X8779706Y-13938174D02*
X8798753Y-13928650D01*
X8798753Y-13928650D02*
X8827325Y-13928650D01*
X8827325Y-13928650D02*
X8846373Y-13938174D01*
X8922563Y-14138174D02*
X8932087Y-14128650D01*
X8932087Y-14128650D02*
X8951134Y-14100079D01*
X8951134Y-14100079D02*
X8960658Y-14081031D01*
X8960658Y-14081031D02*
X8970182Y-14052460D01*
X8970182Y-14052460D02*
X8979706Y-14004841D01*
X8979706Y-14004841D02*
X8979706Y-13966746D01*
X8979706Y-13966746D02*
X8970182Y-13919127D01*
X8970182Y-13919127D02*
X8960658Y-13890555D01*
X8960658Y-13890555D02*
X8951134Y-13871508D01*
X8951134Y-13871508D02*
X8932087Y-13842936D01*
X8932087Y-13842936D02*
X8922563Y-13833412D01*
D12*
X4135597Y-14263237D02*
X4135597Y-14205763D01*
X4078123Y-14205763D01*
X4078123Y-14263237D01*
X4135597Y-14263237D01*
D11*
X4446372Y-14125984D02*
X4465420Y-14125984D01*
X4465420Y-14125984D02*
X4484467Y-14135508D01*
X4484467Y-14135508D02*
X4493991Y-14145031D01*
X4493991Y-14145031D02*
X4503515Y-14164079D01*
X4503515Y-14164079D02*
X4513039Y-14202174D01*
X4513039Y-14202174D02*
X4513039Y-14249793D01*
X4513039Y-14249793D02*
X4503515Y-14287888D01*
X4503515Y-14287888D02*
X4493991Y-14306936D01*
X4493991Y-14306936D02*
X4484467Y-14316460D01*
X4484467Y-14316460D02*
X4465420Y-14325984D01*
X4465420Y-14325984D02*
X4446372Y-14325984D01*
X4446372Y-14325984D02*
X4427324Y-14316460D01*
X4427324Y-14316460D02*
X4417801Y-14306936D01*
X4417801Y-14306936D02*
X4408277Y-14287888D01*
X4408277Y-14287888D02*
X4398753Y-14249793D01*
X4398753Y-14249793D02*
X4398753Y-14202174D01*
X4398753Y-14202174D02*
X4408277Y-14164079D01*
X4408277Y-14164079D02*
X4417801Y-14145031D01*
X4417801Y-14145031D02*
X4427324Y-14135508D01*
X4427324Y-14135508D02*
X4446372Y-14125984D01*
X4598753Y-14306936D02*
X4608277Y-14316460D01*
X4608277Y-14316460D02*
X4598753Y-14325984D01*
X4598753Y-14325984D02*
X4589229Y-14316460D01*
X4589229Y-14316460D02*
X4598753Y-14306936D01*
X4598753Y-14306936D02*
X4598753Y-14325984D01*
X4722563Y-14211698D02*
X4703515Y-14202174D01*
X4703515Y-14202174D02*
X4693991Y-14192650D01*
X4693991Y-14192650D02*
X4684467Y-14173603D01*
X4684467Y-14173603D02*
X4684467Y-14164079D01*
X4684467Y-14164079D02*
X4693991Y-14145031D01*
X4693991Y-14145031D02*
X4703515Y-14135508D01*
X4703515Y-14135508D02*
X4722563Y-14125984D01*
X4722563Y-14125984D02*
X4760658Y-14125984D01*
X4760658Y-14125984D02*
X4779705Y-14135508D01*
X4779705Y-14135508D02*
X4789229Y-14145031D01*
X4789229Y-14145031D02*
X4798753Y-14164079D01*
X4798753Y-14164079D02*
X4798753Y-14173603D01*
X4798753Y-14173603D02*
X4789229Y-14192650D01*
X4789229Y-14192650D02*
X4779705Y-14202174D01*
X4779705Y-14202174D02*
X4760658Y-14211698D01*
X4760658Y-14211698D02*
X4722563Y-14211698D01*
X4722563Y-14211698D02*
X4703515Y-14221222D01*
X4703515Y-14221222D02*
X4693991Y-14230746D01*
X4693991Y-14230746D02*
X4684467Y-14249793D01*
X4684467Y-14249793D02*
X4684467Y-14287888D01*
X4684467Y-14287888D02*
X4693991Y-14306936D01*
X4693991Y-14306936D02*
X4703515Y-14316460D01*
X4703515Y-14316460D02*
X4722563Y-14325984D01*
X4722563Y-14325984D02*
X4760658Y-14325984D01*
X4760658Y-14325984D02*
X4779705Y-14316460D01*
X4779705Y-14316460D02*
X4789229Y-14306936D01*
X4789229Y-14306936D02*
X4798753Y-14287888D01*
X4798753Y-14287888D02*
X4798753Y-14249793D01*
X4798753Y-14249793D02*
X4789229Y-14230746D01*
X4789229Y-14230746D02*
X4779705Y-14221222D01*
X4779705Y-14221222D02*
X4760658Y-14211698D01*
X4989229Y-14325984D02*
X4874944Y-14325984D01*
X4932086Y-14325984D02*
X4932086Y-14125984D01*
X4932086Y-14125984D02*
X4913039Y-14154555D01*
X4913039Y-14154555D02*
X4893991Y-14173603D01*
X4893991Y-14173603D02*
X4874944Y-14183127D01*
X5055896Y-14125984D02*
X5179705Y-14125984D01*
X5179705Y-14125984D02*
X5113039Y-14202174D01*
X5113039Y-14202174D02*
X5141610Y-14202174D01*
X5141610Y-14202174D02*
X5160658Y-14211698D01*
X5160658Y-14211698D02*
X5170182Y-14221222D01*
X5170182Y-14221222D02*
X5179705Y-14240269D01*
X5179705Y-14240269D02*
X5179705Y-14287888D01*
X5179705Y-14287888D02*
X5170182Y-14306936D01*
X5170182Y-14306936D02*
X5160658Y-14316460D01*
X5160658Y-14316460D02*
X5141610Y-14325984D01*
X5141610Y-14325984D02*
X5084467Y-14325984D01*
X5084467Y-14325984D02*
X5065420Y-14316460D01*
X5065420Y-14316460D02*
X5055896Y-14306936D01*
X5265420Y-14325984D02*
X5265420Y-14192650D01*
X5265420Y-14211698D02*
X5274944Y-14202174D01*
X5274944Y-14202174D02*
X5293991Y-14192650D01*
X5293991Y-14192650D02*
X5322563Y-14192650D01*
X5322563Y-14192650D02*
X5341610Y-14202174D01*
X5341610Y-14202174D02*
X5351134Y-14221222D01*
X5351134Y-14221222D02*
X5351134Y-14325984D01*
X5351134Y-14221222D02*
X5360658Y-14202174D01*
X5360658Y-14202174D02*
X5379705Y-14192650D01*
X5379705Y-14192650D02*
X5408277Y-14192650D01*
X5408277Y-14192650D02*
X5427325Y-14202174D01*
X5427325Y-14202174D02*
X5436848Y-14221222D01*
X5436848Y-14221222D02*
X5436848Y-14325984D01*
X5532086Y-14325984D02*
X5532086Y-14192650D01*
X5532086Y-14211698D02*
X5541610Y-14202174D01*
X5541610Y-14202174D02*
X5560658Y-14192650D01*
X5560658Y-14192650D02*
X5589229Y-14192650D01*
X5589229Y-14192650D02*
X5608277Y-14202174D01*
X5608277Y-14202174D02*
X5617801Y-14221222D01*
X5617801Y-14221222D02*
X5617801Y-14325984D01*
X5617801Y-14221222D02*
X5627324Y-14202174D01*
X5627324Y-14202174D02*
X5646372Y-14192650D01*
X5646372Y-14192650D02*
X5674943Y-14192650D01*
X5674943Y-14192650D02*
X5693991Y-14202174D01*
X5693991Y-14202174D02*
X5703515Y-14221222D01*
X5703515Y-14221222D02*
X5703515Y-14325984D01*
X6093991Y-14116460D02*
X5922563Y-14373603D01*
X6351134Y-14125984D02*
X6370182Y-14125984D01*
X6370182Y-14125984D02*
X6389229Y-14135508D01*
X6389229Y-14135508D02*
X6398753Y-14145031D01*
X6398753Y-14145031D02*
X6408277Y-14164079D01*
X6408277Y-14164079D02*
X6417801Y-14202174D01*
X6417801Y-14202174D02*
X6417801Y-14249793D01*
X6417801Y-14249793D02*
X6408277Y-14287888D01*
X6408277Y-14287888D02*
X6398753Y-14306936D01*
X6398753Y-14306936D02*
X6389229Y-14316460D01*
X6389229Y-14316460D02*
X6370182Y-14325984D01*
X6370182Y-14325984D02*
X6351134Y-14325984D01*
X6351134Y-14325984D02*
X6332086Y-14316460D01*
X6332086Y-14316460D02*
X6322563Y-14306936D01*
X6322563Y-14306936D02*
X6313039Y-14287888D01*
X6313039Y-14287888D02*
X6303515Y-14249793D01*
X6303515Y-14249793D02*
X6303515Y-14202174D01*
X6303515Y-14202174D02*
X6313039Y-14164079D01*
X6313039Y-14164079D02*
X6322563Y-14145031D01*
X6322563Y-14145031D02*
X6332086Y-14135508D01*
X6332086Y-14135508D02*
X6351134Y-14125984D01*
X6503515Y-14306936D02*
X6513039Y-14316460D01*
X6513039Y-14316460D02*
X6503515Y-14325984D01*
X6503515Y-14325984D02*
X6493991Y-14316460D01*
X6493991Y-14316460D02*
X6503515Y-14306936D01*
X6503515Y-14306936D02*
X6503515Y-14325984D01*
X6636848Y-14125984D02*
X6655896Y-14125984D01*
X6655896Y-14125984D02*
X6674944Y-14135508D01*
X6674944Y-14135508D02*
X6684467Y-14145031D01*
X6684467Y-14145031D02*
X6693991Y-14164079D01*
X6693991Y-14164079D02*
X6703515Y-14202174D01*
X6703515Y-14202174D02*
X6703515Y-14249793D01*
X6703515Y-14249793D02*
X6693991Y-14287888D01*
X6693991Y-14287888D02*
X6684467Y-14306936D01*
X6684467Y-14306936D02*
X6674944Y-14316460D01*
X6674944Y-14316460D02*
X6655896Y-14325984D01*
X6655896Y-14325984D02*
X6636848Y-14325984D01*
X6636848Y-14325984D02*
X6617801Y-14316460D01*
X6617801Y-14316460D02*
X6608277Y-14306936D01*
X6608277Y-14306936D02*
X6598753Y-14287888D01*
X6598753Y-14287888D02*
X6589229Y-14249793D01*
X6589229Y-14249793D02*
X6589229Y-14202174D01*
X6589229Y-14202174D02*
X6598753Y-14164079D01*
X6598753Y-14164079D02*
X6608277Y-14145031D01*
X6608277Y-14145031D02*
X6617801Y-14135508D01*
X6617801Y-14135508D02*
X6636848Y-14125984D01*
X6770182Y-14125984D02*
X6893991Y-14125984D01*
X6893991Y-14125984D02*
X6827325Y-14202174D01*
X6827325Y-14202174D02*
X6855896Y-14202174D01*
X6855896Y-14202174D02*
X6874944Y-14211698D01*
X6874944Y-14211698D02*
X6884467Y-14221222D01*
X6884467Y-14221222D02*
X6893991Y-14240269D01*
X6893991Y-14240269D02*
X6893991Y-14287888D01*
X6893991Y-14287888D02*
X6884467Y-14306936D01*
X6884467Y-14306936D02*
X6874944Y-14316460D01*
X6874944Y-14316460D02*
X6855896Y-14325984D01*
X6855896Y-14325984D02*
X6798753Y-14325984D01*
X6798753Y-14325984D02*
X6779706Y-14316460D01*
X6779706Y-14316460D02*
X6770182Y-14306936D01*
X6970182Y-14145031D02*
X6979706Y-14135508D01*
X6979706Y-14135508D02*
X6998753Y-14125984D01*
X6998753Y-14125984D02*
X7046372Y-14125984D01*
X7046372Y-14125984D02*
X7065420Y-14135508D01*
X7065420Y-14135508D02*
X7074944Y-14145031D01*
X7074944Y-14145031D02*
X7084467Y-14164079D01*
X7084467Y-14164079D02*
X7084467Y-14183127D01*
X7084467Y-14183127D02*
X7074944Y-14211698D01*
X7074944Y-14211698D02*
X6960658Y-14325984D01*
X6960658Y-14325984D02*
X7084467Y-14325984D01*
X7208277Y-14125984D02*
X7227325Y-14125984D01*
X7227325Y-14125984D02*
X7246372Y-14135508D01*
X7246372Y-14135508D02*
X7255896Y-14145031D01*
X7255896Y-14145031D02*
X7265420Y-14164079D01*
X7265420Y-14164079D02*
X7274944Y-14202174D01*
X7274944Y-14202174D02*
X7274944Y-14249793D01*
X7274944Y-14249793D02*
X7265420Y-14287888D01*
X7265420Y-14287888D02*
X7255896Y-14306936D01*
X7255896Y-14306936D02*
X7246372Y-14316460D01*
X7246372Y-14316460D02*
X7227325Y-14325984D01*
X7227325Y-14325984D02*
X7208277Y-14325984D01*
X7208277Y-14325984D02*
X7189229Y-14316460D01*
X7189229Y-14316460D02*
X7179706Y-14306936D01*
X7179706Y-14306936D02*
X7170182Y-14287888D01*
X7170182Y-14287888D02*
X7160658Y-14249793D01*
X7160658Y-14249793D02*
X7160658Y-14202174D01*
X7160658Y-14202174D02*
X7170182Y-14164079D01*
X7170182Y-14164079D02*
X7179706Y-14145031D01*
X7179706Y-14145031D02*
X7189229Y-14135508D01*
X7189229Y-14135508D02*
X7208277Y-14125984D01*
X7351134Y-14125984D02*
X7351134Y-14164079D01*
X7427325Y-14125984D02*
X7427325Y-14164079D01*
X7722563Y-14402174D02*
X7713039Y-14392650D01*
X7713039Y-14392650D02*
X7693991Y-14364079D01*
X7693991Y-14364079D02*
X7684468Y-14345031D01*
X7684468Y-14345031D02*
X7674944Y-14316460D01*
X7674944Y-14316460D02*
X7665420Y-14268841D01*
X7665420Y-14268841D02*
X7665420Y-14230746D01*
X7665420Y-14230746D02*
X7674944Y-14183127D01*
X7674944Y-14183127D02*
X7684468Y-14154555D01*
X7684468Y-14154555D02*
X7693991Y-14135508D01*
X7693991Y-14135508D02*
X7713039Y-14106936D01*
X7713039Y-14106936D02*
X7722563Y-14097412D01*
X7789229Y-14145031D02*
X7798753Y-14135508D01*
X7798753Y-14135508D02*
X7817801Y-14125984D01*
X7817801Y-14125984D02*
X7865420Y-14125984D01*
X7865420Y-14125984D02*
X7884468Y-14135508D01*
X7884468Y-14135508D02*
X7893991Y-14145031D01*
X7893991Y-14145031D02*
X7903515Y-14164079D01*
X7903515Y-14164079D02*
X7903515Y-14183127D01*
X7903515Y-14183127D02*
X7893991Y-14211698D01*
X7893991Y-14211698D02*
X7779706Y-14325984D01*
X7779706Y-14325984D02*
X7903515Y-14325984D01*
X8074944Y-14192650D02*
X8074944Y-14325984D01*
X8027325Y-14116460D02*
X7979706Y-14259317D01*
X7979706Y-14259317D02*
X8103515Y-14259317D01*
X8332087Y-14325984D02*
X8332087Y-14125984D01*
X8417801Y-14325984D02*
X8417801Y-14221222D01*
X8417801Y-14221222D02*
X8408277Y-14202174D01*
X8408277Y-14202174D02*
X8389230Y-14192650D01*
X8389230Y-14192650D02*
X8360658Y-14192650D01*
X8360658Y-14192650D02*
X8341610Y-14202174D01*
X8341610Y-14202174D02*
X8332087Y-14211698D01*
X8541611Y-14325984D02*
X8522563Y-14316460D01*
X8522563Y-14316460D02*
X8513039Y-14306936D01*
X8513039Y-14306936D02*
X8503515Y-14287888D01*
X8503515Y-14287888D02*
X8503515Y-14230746D01*
X8503515Y-14230746D02*
X8513039Y-14211698D01*
X8513039Y-14211698D02*
X8522563Y-14202174D01*
X8522563Y-14202174D02*
X8541611Y-14192650D01*
X8541611Y-14192650D02*
X8570182Y-14192650D01*
X8570182Y-14192650D02*
X8589230Y-14202174D01*
X8589230Y-14202174D02*
X8598753Y-14211698D01*
X8598753Y-14211698D02*
X8608277Y-14230746D01*
X8608277Y-14230746D02*
X8608277Y-14287888D01*
X8608277Y-14287888D02*
X8598753Y-14306936D01*
X8598753Y-14306936D02*
X8589230Y-14316460D01*
X8589230Y-14316460D02*
X8570182Y-14325984D01*
X8570182Y-14325984D02*
X8541611Y-14325984D01*
X8722563Y-14325984D02*
X8703515Y-14316460D01*
X8703515Y-14316460D02*
X8693992Y-14297412D01*
X8693992Y-14297412D02*
X8693992Y-14125984D01*
X8874944Y-14316460D02*
X8855896Y-14325984D01*
X8855896Y-14325984D02*
X8817801Y-14325984D01*
X8817801Y-14325984D02*
X8798753Y-14316460D01*
X8798753Y-14316460D02*
X8789230Y-14297412D01*
X8789230Y-14297412D02*
X8789230Y-14221222D01*
X8789230Y-14221222D02*
X8798753Y-14202174D01*
X8798753Y-14202174D02*
X8817801Y-14192650D01*
X8817801Y-14192650D02*
X8855896Y-14192650D01*
X8855896Y-14192650D02*
X8874944Y-14202174D01*
X8874944Y-14202174D02*
X8884468Y-14221222D01*
X8884468Y-14221222D02*
X8884468Y-14240269D01*
X8884468Y-14240269D02*
X8789230Y-14259317D01*
X8960658Y-14316460D02*
X8979706Y-14325984D01*
X8979706Y-14325984D02*
X9017801Y-14325984D01*
X9017801Y-14325984D02*
X9036849Y-14316460D01*
X9036849Y-14316460D02*
X9046373Y-14297412D01*
X9046373Y-14297412D02*
X9046373Y-14287888D01*
X9046373Y-14287888D02*
X9036849Y-14268841D01*
X9036849Y-14268841D02*
X9017801Y-14259317D01*
X9017801Y-14259317D02*
X8989230Y-14259317D01*
X8989230Y-14259317D02*
X8970182Y-14249793D01*
X8970182Y-14249793D02*
X8960658Y-14230746D01*
X8960658Y-14230746D02*
X8960658Y-14221222D01*
X8960658Y-14221222D02*
X8970182Y-14202174D01*
X8970182Y-14202174D02*
X8989230Y-14192650D01*
X8989230Y-14192650D02*
X9017801Y-14192650D01*
X9017801Y-14192650D02*
X9036849Y-14202174D01*
X9113039Y-14402174D02*
X9122563Y-14392650D01*
X9122563Y-14392650D02*
X9141611Y-14364079D01*
X9141611Y-14364079D02*
X9151134Y-14345031D01*
X9151134Y-14345031D02*
X9160658Y-14316460D01*
X9160658Y-14316460D02*
X9170182Y-14268841D01*
X9170182Y-14268841D02*
X9170182Y-14230746D01*
X9170182Y-14230746D02*
X9160658Y-14183127D01*
X9160658Y-14183127D02*
X9151134Y-14154555D01*
X9151134Y-14154555D02*
X9141611Y-14135508D01*
X9141611Y-14135508D02*
X9122563Y-14106936D01*
X9122563Y-14106936D02*
X9113039Y-14097412D01*
D12*
X4097500Y-14548500D02*
X4147500Y-14498500D01*
X4097500Y-14448500D01*
X4047500Y-14498500D01*
X4097500Y-14548500D01*
D11*
X4513039Y-14589984D02*
X4398753Y-14589984D01*
X4455896Y-14589984D02*
X4455896Y-14389984D01*
X4455896Y-14389984D02*
X4436848Y-14418555D01*
X4436848Y-14418555D02*
X4417801Y-14437603D01*
X4417801Y-14437603D02*
X4398753Y-14447127D01*
X4598753Y-14570936D02*
X4608277Y-14580460D01*
X4608277Y-14580460D02*
X4598753Y-14589984D01*
X4598753Y-14589984D02*
X4589229Y-14580460D01*
X4589229Y-14580460D02*
X4598753Y-14570936D01*
X4598753Y-14570936D02*
X4598753Y-14589984D01*
X4732086Y-14389984D02*
X4751134Y-14389984D01*
X4751134Y-14389984D02*
X4770182Y-14399508D01*
X4770182Y-14399508D02*
X4779705Y-14409031D01*
X4779705Y-14409031D02*
X4789229Y-14428079D01*
X4789229Y-14428079D02*
X4798753Y-14466174D01*
X4798753Y-14466174D02*
X4798753Y-14513793D01*
X4798753Y-14513793D02*
X4789229Y-14551888D01*
X4789229Y-14551888D02*
X4779705Y-14570936D01*
X4779705Y-14570936D02*
X4770182Y-14580460D01*
X4770182Y-14580460D02*
X4751134Y-14589984D01*
X4751134Y-14589984D02*
X4732086Y-14589984D01*
X4732086Y-14589984D02*
X4713039Y-14580460D01*
X4713039Y-14580460D02*
X4703515Y-14570936D01*
X4703515Y-14570936D02*
X4693991Y-14551888D01*
X4693991Y-14551888D02*
X4684467Y-14513793D01*
X4684467Y-14513793D02*
X4684467Y-14466174D01*
X4684467Y-14466174D02*
X4693991Y-14428079D01*
X4693991Y-14428079D02*
X4703515Y-14409031D01*
X4703515Y-14409031D02*
X4713039Y-14399508D01*
X4713039Y-14399508D02*
X4732086Y-14389984D01*
X4922563Y-14389984D02*
X4941610Y-14389984D01*
X4941610Y-14389984D02*
X4960658Y-14399508D01*
X4960658Y-14399508D02*
X4970182Y-14409031D01*
X4970182Y-14409031D02*
X4979705Y-14428079D01*
X4979705Y-14428079D02*
X4989229Y-14466174D01*
X4989229Y-14466174D02*
X4989229Y-14513793D01*
X4989229Y-14513793D02*
X4979705Y-14551888D01*
X4979705Y-14551888D02*
X4970182Y-14570936D01*
X4970182Y-14570936D02*
X4960658Y-14580460D01*
X4960658Y-14580460D02*
X4941610Y-14589984D01*
X4941610Y-14589984D02*
X4922563Y-14589984D01*
X4922563Y-14589984D02*
X4903515Y-14580460D01*
X4903515Y-14580460D02*
X4893991Y-14570936D01*
X4893991Y-14570936D02*
X4884467Y-14551888D01*
X4884467Y-14551888D02*
X4874944Y-14513793D01*
X4874944Y-14513793D02*
X4874944Y-14466174D01*
X4874944Y-14466174D02*
X4884467Y-14428079D01*
X4884467Y-14428079D02*
X4893991Y-14409031D01*
X4893991Y-14409031D02*
X4903515Y-14399508D01*
X4903515Y-14399508D02*
X4922563Y-14389984D01*
X5113039Y-14389984D02*
X5132086Y-14389984D01*
X5132086Y-14389984D02*
X5151134Y-14399508D01*
X5151134Y-14399508D02*
X5160658Y-14409031D01*
X5160658Y-14409031D02*
X5170182Y-14428079D01*
X5170182Y-14428079D02*
X5179705Y-14466174D01*
X5179705Y-14466174D02*
X5179705Y-14513793D01*
X5179705Y-14513793D02*
X5170182Y-14551888D01*
X5170182Y-14551888D02*
X5160658Y-14570936D01*
X5160658Y-14570936D02*
X5151134Y-14580460D01*
X5151134Y-14580460D02*
X5132086Y-14589984D01*
X5132086Y-14589984D02*
X5113039Y-14589984D01*
X5113039Y-14589984D02*
X5093991Y-14580460D01*
X5093991Y-14580460D02*
X5084467Y-14570936D01*
X5084467Y-14570936D02*
X5074944Y-14551888D01*
X5074944Y-14551888D02*
X5065420Y-14513793D01*
X5065420Y-14513793D02*
X5065420Y-14466174D01*
X5065420Y-14466174D02*
X5074944Y-14428079D01*
X5074944Y-14428079D02*
X5084467Y-14409031D01*
X5084467Y-14409031D02*
X5093991Y-14399508D01*
X5093991Y-14399508D02*
X5113039Y-14389984D01*
X5265420Y-14589984D02*
X5265420Y-14456650D01*
X5265420Y-14475698D02*
X5274944Y-14466174D01*
X5274944Y-14466174D02*
X5293991Y-14456650D01*
X5293991Y-14456650D02*
X5322563Y-14456650D01*
X5322563Y-14456650D02*
X5341610Y-14466174D01*
X5341610Y-14466174D02*
X5351134Y-14485222D01*
X5351134Y-14485222D02*
X5351134Y-14589984D01*
X5351134Y-14485222D02*
X5360658Y-14466174D01*
X5360658Y-14466174D02*
X5379705Y-14456650D01*
X5379705Y-14456650D02*
X5408277Y-14456650D01*
X5408277Y-14456650D02*
X5427325Y-14466174D01*
X5427325Y-14466174D02*
X5436848Y-14485222D01*
X5436848Y-14485222D02*
X5436848Y-14589984D01*
X5532086Y-14589984D02*
X5532086Y-14456650D01*
X5532086Y-14475698D02*
X5541610Y-14466174D01*
X5541610Y-14466174D02*
X5560658Y-14456650D01*
X5560658Y-14456650D02*
X5589229Y-14456650D01*
X5589229Y-14456650D02*
X5608277Y-14466174D01*
X5608277Y-14466174D02*
X5617801Y-14485222D01*
X5617801Y-14485222D02*
X5617801Y-14589984D01*
X5617801Y-14485222D02*
X5627324Y-14466174D01*
X5627324Y-14466174D02*
X5646372Y-14456650D01*
X5646372Y-14456650D02*
X5674943Y-14456650D01*
X5674943Y-14456650D02*
X5693991Y-14466174D01*
X5693991Y-14466174D02*
X5703515Y-14485222D01*
X5703515Y-14485222D02*
X5703515Y-14589984D01*
X6093991Y-14380460D02*
X5922563Y-14637603D01*
X6351134Y-14389984D02*
X6370182Y-14389984D01*
X6370182Y-14389984D02*
X6389229Y-14399508D01*
X6389229Y-14399508D02*
X6398753Y-14409031D01*
X6398753Y-14409031D02*
X6408277Y-14428079D01*
X6408277Y-14428079D02*
X6417801Y-14466174D01*
X6417801Y-14466174D02*
X6417801Y-14513793D01*
X6417801Y-14513793D02*
X6408277Y-14551888D01*
X6408277Y-14551888D02*
X6398753Y-14570936D01*
X6398753Y-14570936D02*
X6389229Y-14580460D01*
X6389229Y-14580460D02*
X6370182Y-14589984D01*
X6370182Y-14589984D02*
X6351134Y-14589984D01*
X6351134Y-14589984D02*
X6332086Y-14580460D01*
X6332086Y-14580460D02*
X6322563Y-14570936D01*
X6322563Y-14570936D02*
X6313039Y-14551888D01*
X6313039Y-14551888D02*
X6303515Y-14513793D01*
X6303515Y-14513793D02*
X6303515Y-14466174D01*
X6303515Y-14466174D02*
X6313039Y-14428079D01*
X6313039Y-14428079D02*
X6322563Y-14409031D01*
X6322563Y-14409031D02*
X6332086Y-14399508D01*
X6332086Y-14399508D02*
X6351134Y-14389984D01*
X6503515Y-14570936D02*
X6513039Y-14580460D01*
X6513039Y-14580460D02*
X6503515Y-14589984D01*
X6503515Y-14589984D02*
X6493991Y-14580460D01*
X6493991Y-14580460D02*
X6503515Y-14570936D01*
X6503515Y-14570936D02*
X6503515Y-14589984D01*
X6636848Y-14389984D02*
X6655896Y-14389984D01*
X6655896Y-14389984D02*
X6674944Y-14399508D01*
X6674944Y-14399508D02*
X6684467Y-14409031D01*
X6684467Y-14409031D02*
X6693991Y-14428079D01*
X6693991Y-14428079D02*
X6703515Y-14466174D01*
X6703515Y-14466174D02*
X6703515Y-14513793D01*
X6703515Y-14513793D02*
X6693991Y-14551888D01*
X6693991Y-14551888D02*
X6684467Y-14570936D01*
X6684467Y-14570936D02*
X6674944Y-14580460D01*
X6674944Y-14580460D02*
X6655896Y-14589984D01*
X6655896Y-14589984D02*
X6636848Y-14589984D01*
X6636848Y-14589984D02*
X6617801Y-14580460D01*
X6617801Y-14580460D02*
X6608277Y-14570936D01*
X6608277Y-14570936D02*
X6598753Y-14551888D01*
X6598753Y-14551888D02*
X6589229Y-14513793D01*
X6589229Y-14513793D02*
X6589229Y-14466174D01*
X6589229Y-14466174D02*
X6598753Y-14428079D01*
X6598753Y-14428079D02*
X6608277Y-14409031D01*
X6608277Y-14409031D02*
X6617801Y-14399508D01*
X6617801Y-14399508D02*
X6636848Y-14389984D01*
X6770182Y-14389984D02*
X6893991Y-14389984D01*
X6893991Y-14389984D02*
X6827325Y-14466174D01*
X6827325Y-14466174D02*
X6855896Y-14466174D01*
X6855896Y-14466174D02*
X6874944Y-14475698D01*
X6874944Y-14475698D02*
X6884467Y-14485222D01*
X6884467Y-14485222D02*
X6893991Y-14504269D01*
X6893991Y-14504269D02*
X6893991Y-14551888D01*
X6893991Y-14551888D02*
X6884467Y-14570936D01*
X6884467Y-14570936D02*
X6874944Y-14580460D01*
X6874944Y-14580460D02*
X6855896Y-14589984D01*
X6855896Y-14589984D02*
X6798753Y-14589984D01*
X6798753Y-14589984D02*
X6779706Y-14580460D01*
X6779706Y-14580460D02*
X6770182Y-14570936D01*
X6989229Y-14589984D02*
X7027325Y-14589984D01*
X7027325Y-14589984D02*
X7046372Y-14580460D01*
X7046372Y-14580460D02*
X7055896Y-14570936D01*
X7055896Y-14570936D02*
X7074944Y-14542365D01*
X7074944Y-14542365D02*
X7084467Y-14504269D01*
X7084467Y-14504269D02*
X7084467Y-14428079D01*
X7084467Y-14428079D02*
X7074944Y-14409031D01*
X7074944Y-14409031D02*
X7065420Y-14399508D01*
X7065420Y-14399508D02*
X7046372Y-14389984D01*
X7046372Y-14389984D02*
X7008277Y-14389984D01*
X7008277Y-14389984D02*
X6989229Y-14399508D01*
X6989229Y-14399508D02*
X6979706Y-14409031D01*
X6979706Y-14409031D02*
X6970182Y-14428079D01*
X6970182Y-14428079D02*
X6970182Y-14475698D01*
X6970182Y-14475698D02*
X6979706Y-14494746D01*
X6979706Y-14494746D02*
X6989229Y-14504269D01*
X6989229Y-14504269D02*
X7008277Y-14513793D01*
X7008277Y-14513793D02*
X7046372Y-14513793D01*
X7046372Y-14513793D02*
X7065420Y-14504269D01*
X7065420Y-14504269D02*
X7074944Y-14494746D01*
X7074944Y-14494746D02*
X7084467Y-14475698D01*
X7255896Y-14456650D02*
X7255896Y-14589984D01*
X7208277Y-14380460D02*
X7160658Y-14523317D01*
X7160658Y-14523317D02*
X7284467Y-14523317D01*
X7351134Y-14389984D02*
X7351134Y-14428079D01*
X7427325Y-14389984D02*
X7427325Y-14428079D01*
X7722563Y-14666174D02*
X7713039Y-14656650D01*
X7713039Y-14656650D02*
X7693991Y-14628079D01*
X7693991Y-14628079D02*
X7684468Y-14609031D01*
X7684468Y-14609031D02*
X7674944Y-14580460D01*
X7674944Y-14580460D02*
X7665420Y-14532841D01*
X7665420Y-14532841D02*
X7665420Y-14494746D01*
X7665420Y-14494746D02*
X7674944Y-14447127D01*
X7674944Y-14447127D02*
X7684468Y-14418555D01*
X7684468Y-14418555D02*
X7693991Y-14399508D01*
X7693991Y-14399508D02*
X7713039Y-14370936D01*
X7713039Y-14370936D02*
X7722563Y-14361412D01*
X7779706Y-14389984D02*
X7903515Y-14389984D01*
X7903515Y-14389984D02*
X7836848Y-14466174D01*
X7836848Y-14466174D02*
X7865420Y-14466174D01*
X7865420Y-14466174D02*
X7884468Y-14475698D01*
X7884468Y-14475698D02*
X7893991Y-14485222D01*
X7893991Y-14485222D02*
X7903515Y-14504269D01*
X7903515Y-14504269D02*
X7903515Y-14551888D01*
X7903515Y-14551888D02*
X7893991Y-14570936D01*
X7893991Y-14570936D02*
X7884468Y-14580460D01*
X7884468Y-14580460D02*
X7865420Y-14589984D01*
X7865420Y-14589984D02*
X7808277Y-14589984D01*
X7808277Y-14589984D02*
X7789229Y-14580460D01*
X7789229Y-14580460D02*
X7779706Y-14570936D01*
X7979706Y-14409031D02*
X7989229Y-14399508D01*
X7989229Y-14399508D02*
X8008277Y-14389984D01*
X8008277Y-14389984D02*
X8055896Y-14389984D01*
X8055896Y-14389984D02*
X8074944Y-14399508D01*
X8074944Y-14399508D02*
X8084468Y-14409031D01*
X8084468Y-14409031D02*
X8093991Y-14428079D01*
X8093991Y-14428079D02*
X8093991Y-14447127D01*
X8093991Y-14447127D02*
X8084468Y-14475698D01*
X8084468Y-14475698D02*
X7970182Y-14589984D01*
X7970182Y-14589984D02*
X8093991Y-14589984D01*
X8332087Y-14589984D02*
X8332087Y-14389984D01*
X8417801Y-14589984D02*
X8417801Y-14485222D01*
X8417801Y-14485222D02*
X8408277Y-14466174D01*
X8408277Y-14466174D02*
X8389230Y-14456650D01*
X8389230Y-14456650D02*
X8360658Y-14456650D01*
X8360658Y-14456650D02*
X8341610Y-14466174D01*
X8341610Y-14466174D02*
X8332087Y-14475698D01*
X8541611Y-14589984D02*
X8522563Y-14580460D01*
X8522563Y-14580460D02*
X8513039Y-14570936D01*
X8513039Y-14570936D02*
X8503515Y-14551888D01*
X8503515Y-14551888D02*
X8503515Y-14494746D01*
X8503515Y-14494746D02*
X8513039Y-14475698D01*
X8513039Y-14475698D02*
X8522563Y-14466174D01*
X8522563Y-14466174D02*
X8541611Y-14456650D01*
X8541611Y-14456650D02*
X8570182Y-14456650D01*
X8570182Y-14456650D02*
X8589230Y-14466174D01*
X8589230Y-14466174D02*
X8598753Y-14475698D01*
X8598753Y-14475698D02*
X8608277Y-14494746D01*
X8608277Y-14494746D02*
X8608277Y-14551888D01*
X8608277Y-14551888D02*
X8598753Y-14570936D01*
X8598753Y-14570936D02*
X8589230Y-14580460D01*
X8589230Y-14580460D02*
X8570182Y-14589984D01*
X8570182Y-14589984D02*
X8541611Y-14589984D01*
X8722563Y-14589984D02*
X8703515Y-14580460D01*
X8703515Y-14580460D02*
X8693992Y-14561412D01*
X8693992Y-14561412D02*
X8693992Y-14389984D01*
X8874944Y-14580460D02*
X8855896Y-14589984D01*
X8855896Y-14589984D02*
X8817801Y-14589984D01*
X8817801Y-14589984D02*
X8798753Y-14580460D01*
X8798753Y-14580460D02*
X8789230Y-14561412D01*
X8789230Y-14561412D02*
X8789230Y-14485222D01*
X8789230Y-14485222D02*
X8798753Y-14466174D01*
X8798753Y-14466174D02*
X8817801Y-14456650D01*
X8817801Y-14456650D02*
X8855896Y-14456650D01*
X8855896Y-14456650D02*
X8874944Y-14466174D01*
X8874944Y-14466174D02*
X8884468Y-14485222D01*
X8884468Y-14485222D02*
X8884468Y-14504269D01*
X8884468Y-14504269D02*
X8789230Y-14523317D01*
X8960658Y-14580460D02*
X8979706Y-14589984D01*
X8979706Y-14589984D02*
X9017801Y-14589984D01*
X9017801Y-14589984D02*
X9036849Y-14580460D01*
X9036849Y-14580460D02*
X9046373Y-14561412D01*
X9046373Y-14561412D02*
X9046373Y-14551888D01*
X9046373Y-14551888D02*
X9036849Y-14532841D01*
X9036849Y-14532841D02*
X9017801Y-14523317D01*
X9017801Y-14523317D02*
X8989230Y-14523317D01*
X8989230Y-14523317D02*
X8970182Y-14513793D01*
X8970182Y-14513793D02*
X8960658Y-14494746D01*
X8960658Y-14494746D02*
X8960658Y-14485222D01*
X8960658Y-14485222D02*
X8970182Y-14466174D01*
X8970182Y-14466174D02*
X8989230Y-14456650D01*
X8989230Y-14456650D02*
X9017801Y-14456650D01*
X9017801Y-14456650D02*
X9036849Y-14466174D01*
X9113039Y-14666174D02*
X9122563Y-14656650D01*
X9122563Y-14656650D02*
X9141611Y-14628079D01*
X9141611Y-14628079D02*
X9151134Y-14609031D01*
X9151134Y-14609031D02*
X9160658Y-14580460D01*
X9160658Y-14580460D02*
X9170182Y-14532841D01*
X9170182Y-14532841D02*
X9170182Y-14494746D01*
X9170182Y-14494746D02*
X9160658Y-14447127D01*
X9160658Y-14447127D02*
X9151134Y-14418555D01*
X9151134Y-14418555D02*
X9141611Y-14399508D01*
X9141611Y-14399508D02*
X9122563Y-14370936D01*
X9122563Y-14370936D02*
X9113039Y-14361412D01*
D13*
X4017500Y-14697500D02*
X4147500Y-14827500D01*
X4147500Y-14697500D02*
X4017500Y-14827500D01*
X4147500Y-14762500D02*
G75*
G02*
X4017500Y-14762500I-65000J0D01*
G01*
X4017500Y-14762500D02*
G75*
G02*
X4147500Y-14762500I65000J0D01*
G01*
D11*
X4513039Y-14853984D02*
X4398753Y-14853984D01*
X4455896Y-14853984D02*
X4455896Y-14653984D01*
X4455896Y-14653984D02*
X4436848Y-14682555D01*
X4436848Y-14682555D02*
X4417801Y-14701603D01*
X4417801Y-14701603D02*
X4398753Y-14711127D01*
X4598753Y-14834936D02*
X4608277Y-14844460D01*
X4608277Y-14844460D02*
X4598753Y-14853984D01*
X4598753Y-14853984D02*
X4589229Y-14844460D01*
X4589229Y-14844460D02*
X4598753Y-14834936D01*
X4598753Y-14834936D02*
X4598753Y-14853984D01*
X4674944Y-14653984D02*
X4798753Y-14653984D01*
X4798753Y-14653984D02*
X4732086Y-14730174D01*
X4732086Y-14730174D02*
X4760658Y-14730174D01*
X4760658Y-14730174D02*
X4779705Y-14739698D01*
X4779705Y-14739698D02*
X4789229Y-14749222D01*
X4789229Y-14749222D02*
X4798753Y-14768269D01*
X4798753Y-14768269D02*
X4798753Y-14815888D01*
X4798753Y-14815888D02*
X4789229Y-14834936D01*
X4789229Y-14834936D02*
X4779705Y-14844460D01*
X4779705Y-14844460D02*
X4760658Y-14853984D01*
X4760658Y-14853984D02*
X4703515Y-14853984D01*
X4703515Y-14853984D02*
X4684467Y-14844460D01*
X4684467Y-14844460D02*
X4674944Y-14834936D01*
X4922563Y-14653984D02*
X4941610Y-14653984D01*
X4941610Y-14653984D02*
X4960658Y-14663508D01*
X4960658Y-14663508D02*
X4970182Y-14673031D01*
X4970182Y-14673031D02*
X4979705Y-14692079D01*
X4979705Y-14692079D02*
X4989229Y-14730174D01*
X4989229Y-14730174D02*
X4989229Y-14777793D01*
X4989229Y-14777793D02*
X4979705Y-14815888D01*
X4979705Y-14815888D02*
X4970182Y-14834936D01*
X4970182Y-14834936D02*
X4960658Y-14844460D01*
X4960658Y-14844460D02*
X4941610Y-14853984D01*
X4941610Y-14853984D02*
X4922563Y-14853984D01*
X4922563Y-14853984D02*
X4903515Y-14844460D01*
X4903515Y-14844460D02*
X4893991Y-14834936D01*
X4893991Y-14834936D02*
X4884467Y-14815888D01*
X4884467Y-14815888D02*
X4874944Y-14777793D01*
X4874944Y-14777793D02*
X4874944Y-14730174D01*
X4874944Y-14730174D02*
X4884467Y-14692079D01*
X4884467Y-14692079D02*
X4893991Y-14673031D01*
X4893991Y-14673031D02*
X4903515Y-14663508D01*
X4903515Y-14663508D02*
X4922563Y-14653984D01*
X5113039Y-14653984D02*
X5132086Y-14653984D01*
X5132086Y-14653984D02*
X5151134Y-14663508D01*
X5151134Y-14663508D02*
X5160658Y-14673031D01*
X5160658Y-14673031D02*
X5170182Y-14692079D01*
X5170182Y-14692079D02*
X5179705Y-14730174D01*
X5179705Y-14730174D02*
X5179705Y-14777793D01*
X5179705Y-14777793D02*
X5170182Y-14815888D01*
X5170182Y-14815888D02*
X5160658Y-14834936D01*
X5160658Y-14834936D02*
X5151134Y-14844460D01*
X5151134Y-14844460D02*
X5132086Y-14853984D01*
X5132086Y-14853984D02*
X5113039Y-14853984D01*
X5113039Y-14853984D02*
X5093991Y-14844460D01*
X5093991Y-14844460D02*
X5084467Y-14834936D01*
X5084467Y-14834936D02*
X5074944Y-14815888D01*
X5074944Y-14815888D02*
X5065420Y-14777793D01*
X5065420Y-14777793D02*
X5065420Y-14730174D01*
X5065420Y-14730174D02*
X5074944Y-14692079D01*
X5074944Y-14692079D02*
X5084467Y-14673031D01*
X5084467Y-14673031D02*
X5093991Y-14663508D01*
X5093991Y-14663508D02*
X5113039Y-14653984D01*
X5265420Y-14853984D02*
X5265420Y-14720650D01*
X5265420Y-14739698D02*
X5274944Y-14730174D01*
X5274944Y-14730174D02*
X5293991Y-14720650D01*
X5293991Y-14720650D02*
X5322563Y-14720650D01*
X5322563Y-14720650D02*
X5341610Y-14730174D01*
X5341610Y-14730174D02*
X5351134Y-14749222D01*
X5351134Y-14749222D02*
X5351134Y-14853984D01*
X5351134Y-14749222D02*
X5360658Y-14730174D01*
X5360658Y-14730174D02*
X5379705Y-14720650D01*
X5379705Y-14720650D02*
X5408277Y-14720650D01*
X5408277Y-14720650D02*
X5427325Y-14730174D01*
X5427325Y-14730174D02*
X5436848Y-14749222D01*
X5436848Y-14749222D02*
X5436848Y-14853984D01*
X5532086Y-14853984D02*
X5532086Y-14720650D01*
X5532086Y-14739698D02*
X5541610Y-14730174D01*
X5541610Y-14730174D02*
X5560658Y-14720650D01*
X5560658Y-14720650D02*
X5589229Y-14720650D01*
X5589229Y-14720650D02*
X5608277Y-14730174D01*
X5608277Y-14730174D02*
X5617801Y-14749222D01*
X5617801Y-14749222D02*
X5617801Y-14853984D01*
X5617801Y-14749222D02*
X5627324Y-14730174D01*
X5627324Y-14730174D02*
X5646372Y-14720650D01*
X5646372Y-14720650D02*
X5674943Y-14720650D01*
X5674943Y-14720650D02*
X5693991Y-14730174D01*
X5693991Y-14730174D02*
X5703515Y-14749222D01*
X5703515Y-14749222D02*
X5703515Y-14853984D01*
X6093991Y-14644460D02*
X5922563Y-14901603D01*
X6351134Y-14653984D02*
X6370182Y-14653984D01*
X6370182Y-14653984D02*
X6389229Y-14663508D01*
X6389229Y-14663508D02*
X6398753Y-14673031D01*
X6398753Y-14673031D02*
X6408277Y-14692079D01*
X6408277Y-14692079D02*
X6417801Y-14730174D01*
X6417801Y-14730174D02*
X6417801Y-14777793D01*
X6417801Y-14777793D02*
X6408277Y-14815888D01*
X6408277Y-14815888D02*
X6398753Y-14834936D01*
X6398753Y-14834936D02*
X6389229Y-14844460D01*
X6389229Y-14844460D02*
X6370182Y-14853984D01*
X6370182Y-14853984D02*
X6351134Y-14853984D01*
X6351134Y-14853984D02*
X6332086Y-14844460D01*
X6332086Y-14844460D02*
X6322563Y-14834936D01*
X6322563Y-14834936D02*
X6313039Y-14815888D01*
X6313039Y-14815888D02*
X6303515Y-14777793D01*
X6303515Y-14777793D02*
X6303515Y-14730174D01*
X6303515Y-14730174D02*
X6313039Y-14692079D01*
X6313039Y-14692079D02*
X6322563Y-14673031D01*
X6322563Y-14673031D02*
X6332086Y-14663508D01*
X6332086Y-14663508D02*
X6351134Y-14653984D01*
X6503515Y-14834936D02*
X6513039Y-14844460D01*
X6513039Y-14844460D02*
X6503515Y-14853984D01*
X6503515Y-14853984D02*
X6493991Y-14844460D01*
X6493991Y-14844460D02*
X6503515Y-14834936D01*
X6503515Y-14834936D02*
X6503515Y-14853984D01*
X6636848Y-14653984D02*
X6655896Y-14653984D01*
X6655896Y-14653984D02*
X6674944Y-14663508D01*
X6674944Y-14663508D02*
X6684467Y-14673031D01*
X6684467Y-14673031D02*
X6693991Y-14692079D01*
X6693991Y-14692079D02*
X6703515Y-14730174D01*
X6703515Y-14730174D02*
X6703515Y-14777793D01*
X6703515Y-14777793D02*
X6693991Y-14815888D01*
X6693991Y-14815888D02*
X6684467Y-14834936D01*
X6684467Y-14834936D02*
X6674944Y-14844460D01*
X6674944Y-14844460D02*
X6655896Y-14853984D01*
X6655896Y-14853984D02*
X6636848Y-14853984D01*
X6636848Y-14853984D02*
X6617801Y-14844460D01*
X6617801Y-14844460D02*
X6608277Y-14834936D01*
X6608277Y-14834936D02*
X6598753Y-14815888D01*
X6598753Y-14815888D02*
X6589229Y-14777793D01*
X6589229Y-14777793D02*
X6589229Y-14730174D01*
X6589229Y-14730174D02*
X6598753Y-14692079D01*
X6598753Y-14692079D02*
X6608277Y-14673031D01*
X6608277Y-14673031D02*
X6617801Y-14663508D01*
X6617801Y-14663508D02*
X6636848Y-14653984D01*
X6884467Y-14653984D02*
X6789229Y-14653984D01*
X6789229Y-14653984D02*
X6779706Y-14749222D01*
X6779706Y-14749222D02*
X6789229Y-14739698D01*
X6789229Y-14739698D02*
X6808277Y-14730174D01*
X6808277Y-14730174D02*
X6855896Y-14730174D01*
X6855896Y-14730174D02*
X6874944Y-14739698D01*
X6874944Y-14739698D02*
X6884467Y-14749222D01*
X6884467Y-14749222D02*
X6893991Y-14768269D01*
X6893991Y-14768269D02*
X6893991Y-14815888D01*
X6893991Y-14815888D02*
X6884467Y-14834936D01*
X6884467Y-14834936D02*
X6874944Y-14844460D01*
X6874944Y-14844460D02*
X6855896Y-14853984D01*
X6855896Y-14853984D02*
X6808277Y-14853984D01*
X6808277Y-14853984D02*
X6789229Y-14844460D01*
X6789229Y-14844460D02*
X6779706Y-14834936D01*
X7084467Y-14853984D02*
X6970182Y-14853984D01*
X7027325Y-14853984D02*
X7027325Y-14653984D01*
X7027325Y-14653984D02*
X7008277Y-14682555D01*
X7008277Y-14682555D02*
X6989229Y-14701603D01*
X6989229Y-14701603D02*
X6970182Y-14711127D01*
X7160658Y-14673031D02*
X7170182Y-14663508D01*
X7170182Y-14663508D02*
X7189229Y-14653984D01*
X7189229Y-14653984D02*
X7236848Y-14653984D01*
X7236848Y-14653984D02*
X7255896Y-14663508D01*
X7255896Y-14663508D02*
X7265420Y-14673031D01*
X7265420Y-14673031D02*
X7274944Y-14692079D01*
X7274944Y-14692079D02*
X7274944Y-14711127D01*
X7274944Y-14711127D02*
X7265420Y-14739698D01*
X7265420Y-14739698D02*
X7151134Y-14853984D01*
X7151134Y-14853984D02*
X7274944Y-14853984D01*
X7351134Y-14653984D02*
X7351134Y-14692079D01*
X7427325Y-14653984D02*
X7427325Y-14692079D01*
X7722563Y-14930174D02*
X7713039Y-14920650D01*
X7713039Y-14920650D02*
X7693991Y-14892079D01*
X7693991Y-14892079D02*
X7684468Y-14873031D01*
X7684468Y-14873031D02*
X7674944Y-14844460D01*
X7674944Y-14844460D02*
X7665420Y-14796841D01*
X7665420Y-14796841D02*
X7665420Y-14758746D01*
X7665420Y-14758746D02*
X7674944Y-14711127D01*
X7674944Y-14711127D02*
X7684468Y-14682555D01*
X7684468Y-14682555D02*
X7693991Y-14663508D01*
X7693991Y-14663508D02*
X7713039Y-14634936D01*
X7713039Y-14634936D02*
X7722563Y-14625412D01*
X7789229Y-14673031D02*
X7798753Y-14663508D01*
X7798753Y-14663508D02*
X7817801Y-14653984D01*
X7817801Y-14653984D02*
X7865420Y-14653984D01*
X7865420Y-14653984D02*
X7884468Y-14663508D01*
X7884468Y-14663508D02*
X7893991Y-14673031D01*
X7893991Y-14673031D02*
X7903515Y-14692079D01*
X7903515Y-14692079D02*
X7903515Y-14711127D01*
X7903515Y-14711127D02*
X7893991Y-14739698D01*
X7893991Y-14739698D02*
X7779706Y-14853984D01*
X7779706Y-14853984D02*
X7903515Y-14853984D01*
X8141610Y-14853984D02*
X8141610Y-14653984D01*
X8227325Y-14853984D02*
X8227325Y-14749222D01*
X8227325Y-14749222D02*
X8217801Y-14730174D01*
X8217801Y-14730174D02*
X8198753Y-14720650D01*
X8198753Y-14720650D02*
X8170182Y-14720650D01*
X8170182Y-14720650D02*
X8151134Y-14730174D01*
X8151134Y-14730174D02*
X8141610Y-14739698D01*
X8351134Y-14853984D02*
X8332087Y-14844460D01*
X8332087Y-14844460D02*
X8322563Y-14834936D01*
X8322563Y-14834936D02*
X8313039Y-14815888D01*
X8313039Y-14815888D02*
X8313039Y-14758746D01*
X8313039Y-14758746D02*
X8322563Y-14739698D01*
X8322563Y-14739698D02*
X8332087Y-14730174D01*
X8332087Y-14730174D02*
X8351134Y-14720650D01*
X8351134Y-14720650D02*
X8379706Y-14720650D01*
X8379706Y-14720650D02*
X8398753Y-14730174D01*
X8398753Y-14730174D02*
X8408277Y-14739698D01*
X8408277Y-14739698D02*
X8417801Y-14758746D01*
X8417801Y-14758746D02*
X8417801Y-14815888D01*
X8417801Y-14815888D02*
X8408277Y-14834936D01*
X8408277Y-14834936D02*
X8398753Y-14844460D01*
X8398753Y-14844460D02*
X8379706Y-14853984D01*
X8379706Y-14853984D02*
X8351134Y-14853984D01*
X8532087Y-14853984D02*
X8513039Y-14844460D01*
X8513039Y-14844460D02*
X8503515Y-14825412D01*
X8503515Y-14825412D02*
X8503515Y-14653984D01*
X8684468Y-14844460D02*
X8665420Y-14853984D01*
X8665420Y-14853984D02*
X8627325Y-14853984D01*
X8627325Y-14853984D02*
X8608277Y-14844460D01*
X8608277Y-14844460D02*
X8598753Y-14825412D01*
X8598753Y-14825412D02*
X8598753Y-14749222D01*
X8598753Y-14749222D02*
X8608277Y-14730174D01*
X8608277Y-14730174D02*
X8627325Y-14720650D01*
X8627325Y-14720650D02*
X8665420Y-14720650D01*
X8665420Y-14720650D02*
X8684468Y-14730174D01*
X8684468Y-14730174D02*
X8693992Y-14749222D01*
X8693992Y-14749222D02*
X8693992Y-14768269D01*
X8693992Y-14768269D02*
X8598753Y-14787317D01*
X8770182Y-14844460D02*
X8789230Y-14853984D01*
X8789230Y-14853984D02*
X8827325Y-14853984D01*
X8827325Y-14853984D02*
X8846373Y-14844460D01*
X8846373Y-14844460D02*
X8855896Y-14825412D01*
X8855896Y-14825412D02*
X8855896Y-14815888D01*
X8855896Y-14815888D02*
X8846373Y-14796841D01*
X8846373Y-14796841D02*
X8827325Y-14787317D01*
X8827325Y-14787317D02*
X8798753Y-14787317D01*
X8798753Y-14787317D02*
X8779706Y-14777793D01*
X8779706Y-14777793D02*
X8770182Y-14758746D01*
X8770182Y-14758746D02*
X8770182Y-14749222D01*
X8770182Y-14749222D02*
X8779706Y-14730174D01*
X8779706Y-14730174D02*
X8798753Y-14720650D01*
X8798753Y-14720650D02*
X8827325Y-14720650D01*
X8827325Y-14720650D02*
X8846373Y-14730174D01*
X8922563Y-14930174D02*
X8932087Y-14920650D01*
X8932087Y-14920650D02*
X8951134Y-14892079D01*
X8951134Y-14892079D02*
X8960658Y-14873031D01*
X8960658Y-14873031D02*
X8970182Y-14844460D01*
X8970182Y-14844460D02*
X8979706Y-14796841D01*
X8979706Y-14796841D02*
X8979706Y-14758746D01*
X8979706Y-14758746D02*
X8970182Y-14711127D01*
X8970182Y-14711127D02*
X8960658Y-14682555D01*
X8960658Y-14682555D02*
X8951134Y-14663508D01*
X8951134Y-14663508D02*
X8932087Y-14634936D01*
X8932087Y-14634936D02*
X8922563Y-14625412D01*
M02*
