%TF.GenerationSoftware,KiCad,Pcbnew,8.0.8*%
%TF.CreationDate,2025-03-06T15:39:58+05:30*%
%TF.ProjectId,bandara_ckt_pcb_naveen,62616e64-6172-4615-9f63-6b745f706362,v1*%
%TF.SameCoordinates,Original*%
%TF.FileFunction,Soldermask,Top*%
%TF.FilePolarity,Negative*%
%FSLAX46Y46*%
G04 Gerber Fmt 4.6, Leading zero omitted, Abs format (unit mm)*
G04 Created by KiCad (PCBNEW 8.0.8) date 2025-03-06 15:39:58*
%MOMM*%
%LPD*%
G01*
G04 APERTURE LIST*
G04 Aperture macros list*
%AMRoundRect*
0 Rectangle with rounded corners*
0 $1 Rounding radius*
0 $2 $3 $4 $5 $6 $7 $8 $9 X,Y pos of 4 corners*
0 Add a 4 corners polygon primitive as box body*
4,1,4,$2,$3,$4,$5,$6,$7,$8,$9,$2,$3,0*
0 Add four circle primitives for the rounded corners*
1,1,$1+$1,$2,$3*
1,1,$1+$1,$4,$5*
1,1,$1+$1,$6,$7*
1,1,$1+$1,$8,$9*
0 Add four rect primitives between the rounded corners*
20,1,$1+$1,$2,$3,$4,$5,0*
20,1,$1+$1,$4,$5,$6,$7,0*
20,1,$1+$1,$6,$7,$8,$9,0*
20,1,$1+$1,$8,$9,$2,$3,0*%
G04 Aperture macros list end*
%ADD10RoundRect,0.237500X0.250000X0.237500X-0.250000X0.237500X-0.250000X-0.237500X0.250000X-0.237500X0*%
%ADD11R,1.500000X1.500000*%
%ADD12RoundRect,0.237500X-0.237500X0.250000X-0.237500X-0.250000X0.237500X-0.250000X0.237500X0.250000X0*%
%ADD13RoundRect,0.250000X0.337500X0.475000X-0.337500X0.475000X-0.337500X-0.475000X0.337500X-0.475000X0*%
%ADD14RoundRect,0.300000X0.600000X0.300000X-0.600000X0.300000X-0.600000X-0.300000X0.600000X-0.300000X0*%
%ADD15RoundRect,0.150000X-0.512500X-0.150000X0.512500X-0.150000X0.512500X0.150000X-0.512500X0.150000X0*%
%ADD16RoundRect,0.250000X-0.475000X0.337500X-0.475000X-0.337500X0.475000X-0.337500X0.475000X0.337500X0*%
%ADD17R,1.524000X1.524000*%
%ADD18C,1.524000*%
%ADD19R,1.600000X1.600000*%
%ADD20O,1.600000X1.600000*%
%ADD21RoundRect,0.250000X0.475000X-0.337500X0.475000X0.337500X-0.475000X0.337500X-0.475000X-0.337500X0*%
%ADD22RoundRect,0.250000X-0.337500X-0.475000X0.337500X-0.475000X0.337500X0.475000X-0.337500X0.475000X0*%
%ADD23RoundRect,0.102000X-0.975000X-0.975000X0.975000X-0.975000X0.975000X0.975000X-0.975000X0.975000X0*%
%ADD24C,2.154000*%
%ADD25RoundRect,0.237500X-0.250000X-0.237500X0.250000X-0.237500X0.250000X0.237500X-0.250000X0.237500X0*%
%ADD26C,1.600000*%
%ADD27R,1.100000X0.250000*%
G04 APERTURE END LIST*
D10*
%TO.C,R4*%
X59412500Y-52000000D03*
X57587500Y-52000000D03*
%TD*%
D11*
%TO.C,TP3*%
X46500000Y-51500000D03*
%TD*%
D10*
%TO.C,R5*%
X101722500Y-55770000D03*
X99897500Y-55770000D03*
%TD*%
D12*
%TO.C,R6*%
X117310000Y-60857500D03*
X117310000Y-62682500D03*
%TD*%
D13*
%TO.C,C8*%
X132537500Y-60000000D03*
X130462500Y-60000000D03*
%TD*%
D14*
%TO.C,U4*%
X76666000Y-49620000D03*
X76666000Y-52160000D03*
X76666000Y-54700000D03*
X76666000Y-59772000D03*
X76666000Y-62312000D03*
X87062000Y-62312000D03*
X87062000Y-59772000D03*
X87062000Y-54700000D03*
X87062000Y-52160000D03*
X87062000Y-49620000D03*
%TD*%
D11*
%TO.C,TP12*%
X136000000Y-80500000D03*
%TD*%
D15*
%TO.C,U1*%
X51362500Y-51500000D03*
X51362500Y-52450000D03*
X51362500Y-53400000D03*
X53637500Y-53400000D03*
X53637500Y-52450000D03*
X53637500Y-51500000D03*
%TD*%
D16*
%TO.C,C10*%
X138500000Y-119462500D03*
X138500000Y-121537500D03*
%TD*%
D13*
%TO.C,C7*%
X138037500Y-64500000D03*
X135962500Y-64500000D03*
%TD*%
D17*
%TO.C,U3*%
X105690000Y-54190000D03*
D18*
X105690000Y-56730000D03*
X105690000Y-59270000D03*
X105690000Y-61810000D03*
X113310000Y-61810000D03*
X113310000Y-59270000D03*
X113310000Y-56730000D03*
X113310000Y-54190000D03*
%TD*%
D19*
%TO.C,A1*%
X81325000Y-72370000D03*
D20*
X83865000Y-72370000D03*
X86405000Y-72370000D03*
X88945000Y-72370000D03*
X91485000Y-72370000D03*
X94025000Y-72370000D03*
X96565000Y-72370000D03*
X99105000Y-72370000D03*
X104185000Y-72370000D03*
X106725000Y-72370000D03*
X109265000Y-72370000D03*
X111805000Y-72370000D03*
X114345000Y-72370000D03*
X116885000Y-72370000D03*
X116885000Y-120630000D03*
X114345000Y-120630000D03*
X111805000Y-120630000D03*
X109265000Y-120630000D03*
X106725000Y-120630000D03*
X104185000Y-120630000D03*
X101645000Y-120630000D03*
X99105000Y-120630000D03*
X95045000Y-120630000D03*
X92505000Y-120630000D03*
X89965000Y-120630000D03*
X87425000Y-120630000D03*
X84885000Y-120630000D03*
X82345000Y-120630000D03*
X79805000Y-120630000D03*
X77265000Y-120630000D03*
X74725000Y-120630000D03*
X72185000Y-120630000D03*
%TD*%
D11*
%TO.C,TP9*%
X71500000Y-62500000D03*
%TD*%
D10*
%TO.C,R11*%
X129412500Y-120500000D03*
X127587500Y-120500000D03*
%TD*%
D21*
%TO.C,C1*%
X58500000Y-64537500D03*
X58500000Y-62462500D03*
%TD*%
D12*
%TO.C,R10*%
X129000000Y-84500000D03*
X129000000Y-86325000D03*
%TD*%
D11*
%TO.C,TP5*%
X92000000Y-60000000D03*
%TD*%
D10*
%TO.C,R12*%
X124412500Y-120500000D03*
X122587500Y-120500000D03*
%TD*%
D11*
%TO.C,TP6*%
X101310000Y-61770000D03*
%TD*%
D21*
%TO.C,C2*%
X58500000Y-59537500D03*
X58500000Y-57462500D03*
%TD*%
D11*
%TO.C,TP1*%
X96500000Y-67000000D03*
%TD*%
%TO.C,TP2*%
X89500000Y-67000000D03*
%TD*%
D22*
%TO.C,C11*%
X127962500Y-89500000D03*
X130037500Y-89500000D03*
%TD*%
D12*
%TO.C,R9*%
X133500000Y-119587500D03*
X133500000Y-121412500D03*
%TD*%
D11*
%TO.C,TP15*%
X128000000Y-110000000D03*
%TD*%
D12*
%TO.C,R8*%
X127000000Y-72087500D03*
X127000000Y-73912500D03*
%TD*%
D10*
%TO.C,R1*%
X50412500Y-57500000D03*
X48587500Y-57500000D03*
%TD*%
D11*
%TO.C,TP10*%
X72000000Y-49500000D03*
%TD*%
%TO.C,TP13*%
X129000000Y-80500000D03*
%TD*%
D22*
%TO.C,C9*%
X135462500Y-85000000D03*
X137537500Y-85000000D03*
%TD*%
D11*
%TO.C,TP8*%
X116810000Y-56770000D03*
%TD*%
D12*
%TO.C,R7*%
X121810000Y-60857500D03*
X121810000Y-62682500D03*
%TD*%
D11*
%TO.C,TP4*%
X46500000Y-66500000D03*
%TD*%
D23*
%TO.C,J1*%
X131052500Y-50500000D03*
D24*
X136052500Y-50500000D03*
%TD*%
D25*
%TO.C,R13*%
X126087500Y-115500000D03*
X127912500Y-115500000D03*
%TD*%
D16*
%TO.C,C5*%
X116810000Y-50732500D03*
X116810000Y-52807500D03*
%TD*%
D21*
%TO.C,C3*%
X46500000Y-62537500D03*
X46500000Y-60462500D03*
%TD*%
D11*
%TO.C,TP7*%
X121810000Y-57270000D03*
%TD*%
D17*
%TO.C,U6*%
X138040000Y-98190000D03*
D18*
X135500000Y-98190000D03*
X132960000Y-98190000D03*
X130420000Y-98190000D03*
X130420000Y-105810000D03*
X132960000Y-105810000D03*
X135500000Y-105810000D03*
X138040000Y-105810000D03*
%TD*%
D11*
%TO.C,TP11*%
X130500000Y-65000000D03*
%TD*%
D17*
%TO.C,U5*%
X138310000Y-68690000D03*
D18*
X135770000Y-68690000D03*
X133230000Y-68690000D03*
X130690000Y-68690000D03*
X130690000Y-76310000D03*
X133230000Y-76310000D03*
X135770000Y-76310000D03*
X138310000Y-76310000D03*
%TD*%
D25*
%TO.C,R3*%
X53087500Y-57500000D03*
X54912500Y-57500000D03*
%TD*%
D10*
%TO.C,R2*%
X59412500Y-47500000D03*
X57587500Y-47500000D03*
%TD*%
D11*
%TO.C,TP16*%
X130500000Y-94500000D03*
%TD*%
%TO.C,TP14*%
X135500000Y-110000000D03*
%TD*%
D26*
%TO.C,C6*%
X68000000Y-57250000D03*
X68000000Y-53750000D03*
%TD*%
D16*
%TO.C,C4*%
X97000000Y-59462500D03*
X97000000Y-61537500D03*
%TD*%
D27*
%TO.C,U2*%
X50850000Y-62500000D03*
X50850000Y-63000000D03*
X50850000Y-63500000D03*
X50850000Y-64000000D03*
X50850000Y-64500000D03*
X55150000Y-64500000D03*
X55150000Y-64000000D03*
X55150000Y-63500000D03*
X55150000Y-63000000D03*
X55150000Y-62500000D03*
%TD*%
D22*
%TO.C,C12*%
X133462500Y-115000000D03*
X135537500Y-115000000D03*
%TD*%
M02*
