%TF.GenerationSoftware,KiCad,Pcbnew,8.0.8*%
%TF.CreationDate,2025-04-20T19:53:40+05:30*%
%TF.ProjectId,bandara_ckt_pcb_naveen,62616e64-6172-4615-9f63-6b745f706362,v1*%
%TF.SameCoordinates,Original*%
%TF.FileFunction,Drillmap*%
%TF.FilePolarity,Positive*%
%FSLAX45Y45*%
G04 Gerber Fmt 4.5, Leading zero omitted, Abs format (unit mm)*
G04 Created by KiCad (PCBNEW 8.0.8) date 2025-04-20 19:53:40*
%MOMM*%
%LPD*%
G01*
G04 APERTURE LIST*
%ADD10C,0.050000*%
%ADD11C,0.200000*%
G04 APERTURE END LIST*
D10*
X3710000Y-3900000D02*
X13590000Y-3900000D01*
X13590000Y-12010000D01*
X3710000Y-12010000D01*
X3710000Y-3900000D01*
D11*
X3968277Y-12323984D02*
X3968277Y-12123984D01*
X3968277Y-12123984D02*
X4015896Y-12123984D01*
X4015896Y-12123984D02*
X4044467Y-12133508D01*
X4044467Y-12133508D02*
X4063515Y-12152555D01*
X4063515Y-12152555D02*
X4073039Y-12171603D01*
X4073039Y-12171603D02*
X4082562Y-12209698D01*
X4082562Y-12209698D02*
X4082562Y-12238269D01*
X4082562Y-12238269D02*
X4073039Y-12276365D01*
X4073039Y-12276365D02*
X4063515Y-12295412D01*
X4063515Y-12295412D02*
X4044467Y-12314460D01*
X4044467Y-12314460D02*
X4015896Y-12323984D01*
X4015896Y-12323984D02*
X3968277Y-12323984D01*
X4168277Y-12323984D02*
X4168277Y-12190650D01*
X4168277Y-12228746D02*
X4177801Y-12209698D01*
X4177801Y-12209698D02*
X4187324Y-12200174D01*
X4187324Y-12200174D02*
X4206372Y-12190650D01*
X4206372Y-12190650D02*
X4225420Y-12190650D01*
X4292086Y-12323984D02*
X4292086Y-12190650D01*
X4292086Y-12123984D02*
X4282563Y-12133508D01*
X4282563Y-12133508D02*
X4292086Y-12143031D01*
X4292086Y-12143031D02*
X4301610Y-12133508D01*
X4301610Y-12133508D02*
X4292086Y-12123984D01*
X4292086Y-12123984D02*
X4292086Y-12143031D01*
X4415896Y-12323984D02*
X4396848Y-12314460D01*
X4396848Y-12314460D02*
X4387324Y-12295412D01*
X4387324Y-12295412D02*
X4387324Y-12123984D01*
X4520658Y-12323984D02*
X4501610Y-12314460D01*
X4501610Y-12314460D02*
X4492086Y-12295412D01*
X4492086Y-12295412D02*
X4492086Y-12123984D01*
X4749229Y-12323984D02*
X4749229Y-12123984D01*
X4749229Y-12123984D02*
X4815896Y-12266841D01*
X4815896Y-12266841D02*
X4882563Y-12123984D01*
X4882563Y-12123984D02*
X4882563Y-12323984D01*
X5063515Y-12323984D02*
X5063515Y-12219222D01*
X5063515Y-12219222D02*
X5053991Y-12200174D01*
X5053991Y-12200174D02*
X5034944Y-12190650D01*
X5034944Y-12190650D02*
X4996848Y-12190650D01*
X4996848Y-12190650D02*
X4977801Y-12200174D01*
X5063515Y-12314460D02*
X5044467Y-12323984D01*
X5044467Y-12323984D02*
X4996848Y-12323984D01*
X4996848Y-12323984D02*
X4977801Y-12314460D01*
X4977801Y-12314460D02*
X4968277Y-12295412D01*
X4968277Y-12295412D02*
X4968277Y-12276365D01*
X4968277Y-12276365D02*
X4977801Y-12257317D01*
X4977801Y-12257317D02*
X4996848Y-12247793D01*
X4996848Y-12247793D02*
X5044467Y-12247793D01*
X5044467Y-12247793D02*
X5063515Y-12238269D01*
X5158753Y-12190650D02*
X5158753Y-12390650D01*
X5158753Y-12200174D02*
X5177801Y-12190650D01*
X5177801Y-12190650D02*
X5215896Y-12190650D01*
X5215896Y-12190650D02*
X5234944Y-12200174D01*
X5234944Y-12200174D02*
X5244467Y-12209698D01*
X5244467Y-12209698D02*
X5253991Y-12228746D01*
X5253991Y-12228746D02*
X5253991Y-12285888D01*
X5253991Y-12285888D02*
X5244467Y-12304936D01*
X5244467Y-12304936D02*
X5234944Y-12314460D01*
X5234944Y-12314460D02*
X5215896Y-12323984D01*
X5215896Y-12323984D02*
X5177801Y-12323984D01*
X5177801Y-12323984D02*
X5158753Y-12314460D01*
X5339705Y-12304936D02*
X5349229Y-12314460D01*
X5349229Y-12314460D02*
X5339705Y-12323984D01*
X5339705Y-12323984D02*
X5330182Y-12314460D01*
X5330182Y-12314460D02*
X5339705Y-12304936D01*
X5339705Y-12304936D02*
X5339705Y-12323984D01*
X5339705Y-12200174D02*
X5349229Y-12209698D01*
X5349229Y-12209698D02*
X5339705Y-12219222D01*
X5339705Y-12219222D02*
X5330182Y-12209698D01*
X5330182Y-12209698D02*
X5339705Y-12200174D01*
X5339705Y-12200174D02*
X5339705Y-12219222D01*
M02*
