%TF.GenerationSoftware,KiCad,Pcbnew,8.0.8*%
%TF.CreationDate,2025-04-20T19:53:29+05:30*%
%TF.ProjectId,bandara_ckt_pcb_naveen,62616e64-6172-4615-9f63-6b745f706362,v1*%
%TF.SameCoordinates,Original*%
%TF.FileFunction,Soldermask,Top*%
%TF.FilePolarity,Negative*%
%FSLAX46Y46*%
G04 Gerber Fmt 4.6, Leading zero omitted, Abs format (unit mm)*
G04 Created by KiCad (PCBNEW 8.0.8) date 2025-04-20 19:53:29*
%MOMM*%
%LPD*%
G01*
G04 APERTURE LIST*
G04 Aperture macros list*
%AMRoundRect*
0 Rectangle with rounded corners*
0 $1 Rounding radius*
0 $2 $3 $4 $5 $6 $7 $8 $9 X,Y pos of 4 corners*
0 Add a 4 corners polygon primitive as box body*
4,1,4,$2,$3,$4,$5,$6,$7,$8,$9,$2,$3,0*
0 Add four circle primitives for the rounded corners*
1,1,$1+$1,$2,$3*
1,1,$1+$1,$4,$5*
1,1,$1+$1,$6,$7*
1,1,$1+$1,$8,$9*
0 Add four rect primitives between the rounded corners*
20,1,$1+$1,$2,$3,$4,$5,0*
20,1,$1+$1,$4,$5,$6,$7,0*
20,1,$1+$1,$6,$7,$8,$9,0*
20,1,$1+$1,$8,$9,$2,$3,0*%
G04 Aperture macros list end*
%ADD10RoundRect,0.250000X-0.475000X0.337500X-0.475000X-0.337500X0.475000X-0.337500X0.475000X0.337500X0*%
%ADD11C,2.000000*%
%ADD12RoundRect,0.250000X0.337500X0.475000X-0.337500X0.475000X-0.337500X-0.475000X0.337500X-0.475000X0*%
%ADD13RoundRect,0.300000X0.600000X0.300000X-0.600000X0.300000X-0.600000X-0.300000X0.600000X-0.300000X0*%
%ADD14RoundRect,0.250000X-0.337500X-0.475000X0.337500X-0.475000X0.337500X0.475000X-0.337500X0.475000X0*%
%ADD15RoundRect,0.237500X0.250000X0.237500X-0.250000X0.237500X-0.250000X-0.237500X0.250000X-0.237500X0*%
%ADD16RoundRect,0.237500X0.237500X-0.250000X0.237500X0.250000X-0.237500X0.250000X-0.237500X-0.250000X0*%
%ADD17RoundRect,0.250000X0.475000X-0.337500X0.475000X0.337500X-0.475000X0.337500X-0.475000X-0.337500X0*%
%ADD18R,1.600000X1.600000*%
%ADD19O,1.600000X1.600000*%
%ADD20RoundRect,0.237500X-0.237500X0.250000X-0.237500X-0.250000X0.237500X-0.250000X0.237500X0.250000X0*%
%ADD21R,0.250000X1.100000*%
%ADD22R,1.524000X1.524000*%
%ADD23C,1.524000*%
%ADD24RoundRect,0.237500X-0.250000X-0.237500X0.250000X-0.237500X0.250000X0.237500X-0.250000X0.237500X0*%
%ADD25RoundRect,0.150000X0.512500X0.150000X-0.512500X0.150000X-0.512500X-0.150000X0.512500X-0.150000X0*%
%ADD26RoundRect,0.250000X-0.375000X-0.275000X0.375000X-0.275000X0.375000X0.275000X-0.375000X0.275000X0*%
%ADD27C,1.600000*%
%ADD28RoundRect,0.102000X-0.975000X-0.975000X0.975000X-0.975000X0.975000X0.975000X-0.975000X0.975000X0*%
%ADD29C,2.154000*%
G04 APERTURE END LIST*
D10*
%TO.C,C5*%
X122600000Y-110162500D03*
X122600000Y-112237500D03*
%TD*%
D11*
%TO.C,TP14*%
X128600000Y-76600000D03*
%TD*%
%TO.C,TP12*%
X127300000Y-58500000D03*
%TD*%
%TO.C,TP4*%
X82700000Y-51800000D03*
%TD*%
D12*
%TO.C,C13*%
X121137500Y-81700000D03*
X119062500Y-81700000D03*
%TD*%
D11*
%TO.C,TP2*%
X75000000Y-57200000D03*
%TD*%
D13*
%TO.C,U4*%
X56700000Y-43760000D03*
X56700000Y-46300000D03*
X56700000Y-48840000D03*
X56700000Y-53912000D03*
X56700000Y-56452000D03*
X67096000Y-56452000D03*
X67096000Y-53912000D03*
X67096000Y-48840000D03*
X67096000Y-46300000D03*
X67096000Y-43760000D03*
%TD*%
D11*
%TO.C,TP9*%
X103500000Y-48900000D03*
%TD*%
%TO.C,TP8*%
X109400000Y-51900000D03*
%TD*%
%TO.C,TP7*%
X117500000Y-110600000D03*
%TD*%
D14*
%TO.C,C4*%
X120162500Y-115600000D03*
X122237500Y-115600000D03*
%TD*%
%TO.C,C11*%
X128662500Y-81100000D03*
X130737500Y-81100000D03*
%TD*%
D11*
%TO.C,TP6*%
X88600000Y-54200000D03*
%TD*%
%TO.C,TP3*%
X71300000Y-57300000D03*
%TD*%
D15*
%TO.C,R9*%
X127312500Y-106400000D03*
X125487500Y-106400000D03*
%TD*%
D16*
%TO.C,R13*%
X119800000Y-104012500D03*
X119800000Y-102187500D03*
%TD*%
D17*
%TO.C,C6*%
X82500000Y-56937500D03*
X82500000Y-54862500D03*
%TD*%
D11*
%TO.C,TP16*%
X122200000Y-85500000D03*
%TD*%
D18*
%TO.C,A1*%
X74790000Y-62170000D03*
D19*
X77330000Y-62170000D03*
X79870000Y-62170000D03*
X82410000Y-62170000D03*
X84950000Y-62170000D03*
X87490000Y-62170000D03*
X90030000Y-62170000D03*
X92570000Y-62170000D03*
X97650000Y-62170000D03*
X100190000Y-62170000D03*
X102730000Y-62170000D03*
X105270000Y-62170000D03*
X107810000Y-62170000D03*
X110350000Y-62170000D03*
X110350000Y-110430000D03*
X107810000Y-110430000D03*
X105270000Y-110430000D03*
X102730000Y-110430000D03*
X100190000Y-110430000D03*
X97650000Y-110430000D03*
X95110000Y-110430000D03*
X92570000Y-110430000D03*
X88510000Y-110430000D03*
X85970000Y-110430000D03*
X83430000Y-110430000D03*
X80890000Y-110430000D03*
X78350000Y-110430000D03*
X75810000Y-110430000D03*
X73270000Y-110430000D03*
X70730000Y-110430000D03*
X68190000Y-110430000D03*
X65650000Y-110430000D03*
%TD*%
D11*
%TO.C,TP15*%
X125100000Y-76500000D03*
%TD*%
D12*
%TO.C,C9*%
X127437500Y-61400000D03*
X125362500Y-61400000D03*
%TD*%
D20*
%TO.C,R7*%
X102700000Y-51687500D03*
X102700000Y-53512500D03*
%TD*%
D21*
%TO.C,U2*%
X127200000Y-108750000D03*
X126700000Y-108750000D03*
X126200000Y-108750000D03*
X125700000Y-108750000D03*
X125200000Y-108750000D03*
X125200000Y-113050000D03*
X125700000Y-113050000D03*
X126200000Y-113050000D03*
X126700000Y-113050000D03*
X127200000Y-113050000D03*
%TD*%
D11*
%TO.C,TP13*%
X122000000Y-60600000D03*
%TD*%
D20*
%TO.C,R10*%
X126900000Y-84187500D03*
X126900000Y-86012500D03*
%TD*%
%TO.C,R1*%
X69000000Y-114387500D03*
X69000000Y-116212500D03*
%TD*%
D15*
%TO.C,R5*%
X89512500Y-47900000D03*
X87687500Y-47900000D03*
%TD*%
D14*
%TO.C,C1*%
X126562500Y-116200000D03*
X128637500Y-116200000D03*
%TD*%
D11*
%TO.C,TP5*%
X71200000Y-52300000D03*
%TD*%
D22*
%TO.C,U6*%
X129410000Y-88390000D03*
D23*
X126870000Y-88390000D03*
X124330000Y-88390000D03*
X121790000Y-88390000D03*
X121790000Y-96010000D03*
X124330000Y-96010000D03*
X126870000Y-96010000D03*
X129410000Y-96010000D03*
%TD*%
D20*
%TO.C,R12*%
X117600000Y-91287500D03*
X117600000Y-93112500D03*
%TD*%
D10*
%TO.C,C7*%
X106600000Y-46962500D03*
X106600000Y-49037500D03*
%TD*%
D11*
%TO.C,TP11*%
X51900000Y-46300000D03*
%TD*%
D24*
%TO.C,R4*%
X71287500Y-44200000D03*
X73112500Y-44200000D03*
%TD*%
D20*
%TO.C,R3*%
X65800000Y-114387500D03*
X65800000Y-116212500D03*
%TD*%
D25*
%TO.C,U1*%
X79100000Y-48150000D03*
X79100000Y-47200000D03*
X79100000Y-46250000D03*
X76825000Y-46250000D03*
X76825000Y-47200000D03*
X76825000Y-48150000D03*
%TD*%
D14*
%TO.C,C10*%
X117362500Y-63500000D03*
X119437500Y-63500000D03*
%TD*%
D11*
%TO.C,TP10*%
X44500000Y-59300000D03*
%TD*%
%TO.C,TP17*%
X127400000Y-99000000D03*
%TD*%
D26*
%TO.C,C2*%
X82300000Y-47900000D03*
X83900000Y-47900000D03*
%TD*%
D27*
%TO.C,C8*%
X48600000Y-55050000D03*
X48600000Y-51550000D03*
%TD*%
D22*
%TO.C,U3*%
X92390000Y-46390000D03*
D23*
X92390000Y-48930000D03*
X92390000Y-51470000D03*
X92390000Y-54010000D03*
X100010000Y-54010000D03*
X100010000Y-51470000D03*
X100010000Y-48930000D03*
X100010000Y-46390000D03*
%TD*%
D16*
%TO.C,R14*%
X119700000Y-100312500D03*
X119700000Y-98487500D03*
%TD*%
D11*
%TO.C,TP18*%
X124100000Y-99100000D03*
%TD*%
D14*
%TO.C,C3*%
X82062500Y-44700000D03*
X84137500Y-44700000D03*
%TD*%
D24*
%TO.C,R2*%
X71287500Y-47100000D03*
X73112500Y-47100000D03*
%TD*%
D22*
%TO.C,U5*%
X130110000Y-65090000D03*
D23*
X127570000Y-65090000D03*
X125030000Y-65090000D03*
X122490000Y-65090000D03*
X122490000Y-72710000D03*
X125030000Y-72710000D03*
X127570000Y-72710000D03*
X130110000Y-72710000D03*
%TD*%
D17*
%TO.C,C12*%
X122700000Y-108037500D03*
X122700000Y-105962500D03*
%TD*%
D28*
%TO.C,J1*%
X118152500Y-50300000D03*
D29*
X123152500Y-50300000D03*
%TD*%
D11*
%TO.C,TP1*%
X78500000Y-57200000D03*
%TD*%
D12*
%TO.C,C14*%
X129537500Y-102100000D03*
X127462500Y-102100000D03*
%TD*%
D16*
%TO.C,R11*%
X122800000Y-103912500D03*
X122800000Y-102087500D03*
%TD*%
D20*
%TO.C,R6*%
X105600000Y-51687500D03*
X105600000Y-53512500D03*
%TD*%
%TO.C,R8*%
X118600000Y-68387500D03*
X118600000Y-70212500D03*
%TD*%
M02*
