%TF.GenerationSoftware,KiCad,Pcbnew,8.0.8*%
%TF.CreationDate,2025-04-18T15:33:52+05:30*%
%TF.ProjectId,bandara_ckt_pcb_naveen,62616e64-6172-4615-9f63-6b745f706362,v1*%
%TF.SameCoordinates,Original*%
%TF.FileFunction,Paste,Top*%
%TF.FilePolarity,Positive*%
%FSLAX46Y46*%
G04 Gerber Fmt 4.6, Leading zero omitted, Abs format (unit mm)*
G04 Created by KiCad (PCBNEW 8.0.8) date 2025-04-18 15:33:52*
%MOMM*%
%LPD*%
G01*
G04 APERTURE LIST*
G04 Aperture macros list*
%AMRoundRect*
0 Rectangle with rounded corners*
0 $1 Rounding radius*
0 $2 $3 $4 $5 $6 $7 $8 $9 X,Y pos of 4 corners*
0 Add a 4 corners polygon primitive as box body*
4,1,4,$2,$3,$4,$5,$6,$7,$8,$9,$2,$3,0*
0 Add four circle primitives for the rounded corners*
1,1,$1+$1,$2,$3*
1,1,$1+$1,$4,$5*
1,1,$1+$1,$6,$7*
1,1,$1+$1,$8,$9*
0 Add four rect primitives between the rounded corners*
20,1,$1+$1,$2,$3,$4,$5,0*
20,1,$1+$1,$4,$5,$6,$7,0*
20,1,$1+$1,$6,$7,$8,$9,0*
20,1,$1+$1,$8,$9,$2,$3,0*%
G04 Aperture macros list end*
%ADD10RoundRect,0.300000X0.600000X0.300000X-0.600000X0.300000X-0.600000X-0.300000X0.600000X-0.300000X0*%
%ADD11R,1.100000X0.250000*%
%ADD12RoundRect,0.150000X-0.512500X-0.150000X0.512500X-0.150000X0.512500X0.150000X-0.512500X0.150000X0*%
%ADD13RoundRect,0.237500X-0.250000X-0.237500X0.250000X-0.237500X0.250000X0.237500X-0.250000X0.237500X0*%
%ADD14RoundRect,0.237500X-0.237500X0.250000X-0.237500X-0.250000X0.237500X-0.250000X0.237500X0.250000X0*%
%ADD15RoundRect,0.237500X0.237500X-0.250000X0.237500X0.250000X-0.237500X0.250000X-0.237500X-0.250000X0*%
%ADD16RoundRect,0.237500X0.250000X0.237500X-0.250000X0.237500X-0.250000X-0.237500X0.250000X-0.237500X0*%
%ADD17RoundRect,0.250000X0.337500X0.475000X-0.337500X0.475000X-0.337500X-0.475000X0.337500X-0.475000X0*%
%ADD18RoundRect,0.250000X-0.337500X-0.475000X0.337500X-0.475000X0.337500X0.475000X-0.337500X0.475000X0*%
%ADD19RoundRect,0.250000X-0.475000X0.337500X-0.475000X-0.337500X0.475000X-0.337500X0.475000X0.337500X0*%
%ADD20RoundRect,0.250000X0.475000X-0.337500X0.475000X0.337500X-0.475000X0.337500X-0.475000X-0.337500X0*%
%ADD21RoundRect,0.250000X-0.375000X-0.275000X0.375000X-0.275000X0.375000X0.275000X-0.375000X0.275000X0*%
G04 APERTURE END LIST*
D10*
%TO.C,U4*%
X69062000Y-57620000D03*
X69062000Y-60160000D03*
X69062000Y-62700000D03*
X69062000Y-67772000D03*
X69062000Y-70312000D03*
X58666000Y-70312000D03*
X58666000Y-67772000D03*
X58666000Y-62700000D03*
X58666000Y-60160000D03*
X58666000Y-57620000D03*
%TD*%
D11*
%TO.C,U2*%
X122850000Y-118000000D03*
X122850000Y-118500000D03*
X122850000Y-119000000D03*
X122850000Y-119500000D03*
X122850000Y-120000000D03*
X127150000Y-120000000D03*
X127150000Y-119500000D03*
X127150000Y-119000000D03*
X127150000Y-118500000D03*
X127150000Y-118000000D03*
%TD*%
D12*
%TO.C,U1*%
X77862500Y-57550000D03*
X77862500Y-58500000D03*
X77862500Y-59450000D03*
X80137500Y-59450000D03*
X80137500Y-58500000D03*
X80137500Y-57550000D03*
%TD*%
D13*
%TO.C,R14*%
X127412500Y-114000000D03*
X125587500Y-114000000D03*
%TD*%
%TO.C,R13*%
X135912500Y-122000000D03*
X134087500Y-122000000D03*
%TD*%
D14*
%TO.C,R12*%
X121000000Y-102912500D03*
X121000000Y-101087500D03*
%TD*%
D13*
%TO.C,R11*%
X135912500Y-118500000D03*
X134087500Y-118500000D03*
%TD*%
D14*
%TO.C,R10*%
X130000000Y-95412500D03*
X130000000Y-93587500D03*
%TD*%
D13*
%TO.C,R9*%
X120412500Y-115500000D03*
X118587500Y-115500000D03*
%TD*%
D14*
%TO.C,R8*%
X121000000Y-77325000D03*
X121000000Y-75500000D03*
%TD*%
D15*
%TO.C,R7*%
X97000000Y-70000000D03*
X97000000Y-71825000D03*
%TD*%
%TO.C,R6*%
X94000000Y-70000000D03*
X94000000Y-71825000D03*
%TD*%
D16*
%TO.C,R5*%
X86587500Y-63000000D03*
X88412500Y-63000000D03*
%TD*%
%TO.C,R4*%
X82587500Y-60500000D03*
X84412500Y-60500000D03*
%TD*%
D13*
%TO.C,R3*%
X131112500Y-117600000D03*
X129287500Y-117600000D03*
%TD*%
D16*
%TO.C,R2*%
X82587500Y-57500000D03*
X84412500Y-57500000D03*
%TD*%
D14*
%TO.C,R1*%
X129400000Y-122312500D03*
X129400000Y-120487500D03*
%TD*%
D17*
%TO.C,C14*%
X130462500Y-109000000D03*
X132537500Y-109000000D03*
%TD*%
D18*
%TO.C,C13*%
X124537500Y-95000000D03*
X122462500Y-95000000D03*
%TD*%
%TO.C,C12*%
X123037500Y-111500000D03*
X120962500Y-111500000D03*
%TD*%
%TO.C,C11*%
X129962500Y-84500000D03*
X132037500Y-84500000D03*
%TD*%
D17*
%TO.C,C10*%
X124462500Y-70000000D03*
X126537500Y-70000000D03*
%TD*%
D19*
%TO.C,C9*%
X124500000Y-61537500D03*
X124500000Y-59462500D03*
%TD*%
D20*
%TO.C,C7*%
X106000000Y-61037500D03*
X106000000Y-58962500D03*
%TD*%
%TO.C,C6*%
X82600000Y-65562500D03*
X82600000Y-67637500D03*
%TD*%
D18*
%TO.C,C5*%
X121037500Y-123400000D03*
X118962500Y-123400000D03*
%TD*%
%TO.C,C4*%
X125837500Y-123400000D03*
X123762500Y-123400000D03*
%TD*%
%TO.C,C3*%
X75537500Y-61500000D03*
X73462500Y-61500000D03*
%TD*%
D21*
%TO.C,C2*%
X75100000Y-65000000D03*
X73500000Y-65000000D03*
%TD*%
D20*
%TO.C,C1*%
X131600000Y-120650000D03*
X131600000Y-122725000D03*
%TD*%
M02*
