%TF.GenerationSoftware,KiCad,Pcbnew,8.0.8*%
%TF.CreationDate,2025-04-18T15:34:03+05:30*%
%TF.ProjectId,bandara_ckt_pcb_naveen,62616e64-6172-4615-9f63-6b745f706362,v1*%
%TF.SameCoordinates,Original*%
%TF.FileFunction,Drillmap*%
%TF.FilePolarity,Positive*%
%FSLAX45Y45*%
G04 Gerber Fmt 4.5, Leading zero omitted, Abs format (unit mm)*
G04 Created by KiCad (PCBNEW 8.0.8) date 2025-04-18 15:34:03*
%MOMM*%
%LPD*%
G01*
G04 APERTURE LIST*
%ADD10C,0.050000*%
%ADD11C,0.200000*%
G04 APERTURE END LIST*
D10*
X4000000Y-5240000D02*
X13880000Y-5240000D01*
X13880000Y-13100000D01*
X4000000Y-13100000D01*
X4000000Y-5240000D01*
D11*
X4258277Y-13413984D02*
X4258277Y-13213984D01*
X4258277Y-13213984D02*
X4305896Y-13213984D01*
X4305896Y-13213984D02*
X4334467Y-13223508D01*
X4334467Y-13223508D02*
X4353515Y-13242555D01*
X4353515Y-13242555D02*
X4363039Y-13261603D01*
X4363039Y-13261603D02*
X4372563Y-13299698D01*
X4372563Y-13299698D02*
X4372563Y-13328269D01*
X4372563Y-13328269D02*
X4363039Y-13366365D01*
X4363039Y-13366365D02*
X4353515Y-13385412D01*
X4353515Y-13385412D02*
X4334467Y-13404460D01*
X4334467Y-13404460D02*
X4305896Y-13413984D01*
X4305896Y-13413984D02*
X4258277Y-13413984D01*
X4458277Y-13413984D02*
X4458277Y-13280650D01*
X4458277Y-13318746D02*
X4467801Y-13299698D01*
X4467801Y-13299698D02*
X4477324Y-13290174D01*
X4477324Y-13290174D02*
X4496372Y-13280650D01*
X4496372Y-13280650D02*
X4515420Y-13280650D01*
X4582086Y-13413984D02*
X4582086Y-13280650D01*
X4582086Y-13213984D02*
X4572563Y-13223508D01*
X4572563Y-13223508D02*
X4582086Y-13233031D01*
X4582086Y-13233031D02*
X4591610Y-13223508D01*
X4591610Y-13223508D02*
X4582086Y-13213984D01*
X4582086Y-13213984D02*
X4582086Y-13233031D01*
X4705896Y-13413984D02*
X4686848Y-13404460D01*
X4686848Y-13404460D02*
X4677324Y-13385412D01*
X4677324Y-13385412D02*
X4677324Y-13213984D01*
X4810658Y-13413984D02*
X4791610Y-13404460D01*
X4791610Y-13404460D02*
X4782086Y-13385412D01*
X4782086Y-13385412D02*
X4782086Y-13213984D01*
X5039229Y-13413984D02*
X5039229Y-13213984D01*
X5039229Y-13213984D02*
X5105896Y-13356841D01*
X5105896Y-13356841D02*
X5172563Y-13213984D01*
X5172563Y-13213984D02*
X5172563Y-13413984D01*
X5353515Y-13413984D02*
X5353515Y-13309222D01*
X5353515Y-13309222D02*
X5343991Y-13290174D01*
X5343991Y-13290174D02*
X5324944Y-13280650D01*
X5324944Y-13280650D02*
X5286848Y-13280650D01*
X5286848Y-13280650D02*
X5267801Y-13290174D01*
X5353515Y-13404460D02*
X5334467Y-13413984D01*
X5334467Y-13413984D02*
X5286848Y-13413984D01*
X5286848Y-13413984D02*
X5267801Y-13404460D01*
X5267801Y-13404460D02*
X5258277Y-13385412D01*
X5258277Y-13385412D02*
X5258277Y-13366365D01*
X5258277Y-13366365D02*
X5267801Y-13347317D01*
X5267801Y-13347317D02*
X5286848Y-13337793D01*
X5286848Y-13337793D02*
X5334467Y-13337793D01*
X5334467Y-13337793D02*
X5353515Y-13328269D01*
X5448753Y-13280650D02*
X5448753Y-13480650D01*
X5448753Y-13290174D02*
X5467801Y-13280650D01*
X5467801Y-13280650D02*
X5505896Y-13280650D01*
X5505896Y-13280650D02*
X5524944Y-13290174D01*
X5524944Y-13290174D02*
X5534467Y-13299698D01*
X5534467Y-13299698D02*
X5543991Y-13318746D01*
X5543991Y-13318746D02*
X5543991Y-13375888D01*
X5543991Y-13375888D02*
X5534467Y-13394936D01*
X5534467Y-13394936D02*
X5524944Y-13404460D01*
X5524944Y-13404460D02*
X5505896Y-13413984D01*
X5505896Y-13413984D02*
X5467801Y-13413984D01*
X5467801Y-13413984D02*
X5448753Y-13404460D01*
X5629705Y-13394936D02*
X5639229Y-13404460D01*
X5639229Y-13404460D02*
X5629705Y-13413984D01*
X5629705Y-13413984D02*
X5620182Y-13404460D01*
X5620182Y-13404460D02*
X5629705Y-13394936D01*
X5629705Y-13394936D02*
X5629705Y-13413984D01*
X5629705Y-13290174D02*
X5639229Y-13299698D01*
X5639229Y-13299698D02*
X5629705Y-13309222D01*
X5629705Y-13309222D02*
X5620182Y-13299698D01*
X5620182Y-13299698D02*
X5629705Y-13290174D01*
X5629705Y-13290174D02*
X5629705Y-13309222D01*
M02*
