%TF.GenerationSoftware,KiCad,Pcbnew,8.0.8*%
%TF.CreationDate,2025-04-20T19:53:40+05:30*%
%TF.ProjectId,bandara_ckt_pcb_naveen,62616e64-6172-4615-9f63-6b745f706362,v1*%
%TF.SameCoordinates,Original*%
%TF.FileFunction,Drillmap*%
%TF.FilePolarity,Positive*%
%FSLAX45Y45*%
G04 Gerber Fmt 4.5, Leading zero omitted, Abs format (unit mm)*
G04 Created by KiCad (PCBNEW 8.0.8) date 2025-04-20 19:53:40*
%MOMM*%
%LPD*%
G01*
G04 APERTURE LIST*
%ADD10C,0.050000*%
%ADD11C,0.200000*%
%ADD12C,0.100000*%
%ADD13C,0.130000*%
G04 APERTURE END LIST*
D10*
X3710000Y-3900000D02*
X13590000Y-3900000D01*
X13590000Y-12010000D01*
X3710000Y-12010000D01*
X3710000Y-3900000D01*
D11*
D12*
X6465000Y-4755000D02*
X6495000Y-4785000D01*
X6495000Y-4755000D02*
X6465000Y-4785000D01*
X6955000Y-4305000D02*
X6985000Y-4335000D01*
X6985000Y-4305000D02*
X6955000Y-4335000D01*
X7995000Y-4475000D02*
X8025000Y-4505000D01*
X8025000Y-4475000D02*
X7995000Y-4505000D01*
X8025000Y-5055000D02*
X8055000Y-5085000D01*
X8055000Y-5055000D02*
X8025000Y-5085000D01*
X8075000Y-4845000D02*
X8105000Y-4875000D01*
X8105000Y-4845000D02*
X8075000Y-4875000D01*
X8425000Y-5605000D02*
X8455000Y-5635000D01*
X8455000Y-5605000D02*
X8425000Y-5635000D01*
X8635000Y-5715000D02*
X8665000Y-5745000D01*
X8665000Y-5715000D02*
X8635000Y-5745000D01*
X10205000Y-5585000D02*
X10235000Y-5615000D01*
X10235000Y-5585000D02*
X10205000Y-5615000D01*
X11675000Y-6675000D02*
X11705000Y-6705000D01*
X11705000Y-6675000D02*
X11675000Y-6705000D01*
X11835000Y-11425000D02*
X11865000Y-11455000D01*
X11865000Y-11425000D02*
X11835000Y-11455000D01*
X12235000Y-11355000D02*
X12265000Y-11385000D01*
X12265000Y-11355000D02*
X12235000Y-11385000D01*
X12725000Y-7005000D02*
X12755000Y-7035000D01*
X12755000Y-7005000D02*
X12725000Y-7035000D01*
X13285000Y-8945000D02*
X13315000Y-8975000D01*
X13315000Y-8945000D02*
X13285000Y-8975000D01*
X4900000Y-5155000D02*
G75*
G02*
X4820000Y-5155000I-40000J0D01*
G01*
X4820000Y-5155000D02*
G75*
G02*
X4900000Y-5155000I40000J0D01*
G01*
X4900000Y-5505000D02*
G75*
G02*
X4820000Y-5505000I-40000J0D01*
G01*
X4820000Y-5505000D02*
G75*
G02*
X4900000Y-5505000I40000J0D01*
G01*
X9239000Y-4598360D02*
X9239000Y-4679640D01*
X9198360Y-4639000D02*
X9279640Y-4639000D01*
X9239000Y-4852360D02*
X9239000Y-4933640D01*
X9198360Y-4893000D02*
X9279640Y-4893000D01*
X9239000Y-5106360D02*
X9239000Y-5187640D01*
X9198360Y-5147000D02*
X9279640Y-5147000D01*
X9239000Y-5360360D02*
X9239000Y-5441640D01*
X9198360Y-5401000D02*
X9279640Y-5401000D01*
X10001000Y-4598360D02*
X10001000Y-4679640D01*
X9960360Y-4639000D02*
X10041640Y-4639000D01*
X10001000Y-4852360D02*
X10001000Y-4933640D01*
X9960360Y-4893000D02*
X10041640Y-4893000D01*
X10001000Y-5106360D02*
X10001000Y-5187640D01*
X9960360Y-5147000D02*
X10041640Y-5147000D01*
X10001000Y-5360360D02*
X10001000Y-5441640D01*
X9960360Y-5401000D02*
X10041640Y-5401000D01*
X12179000Y-8798360D02*
X12179000Y-8879640D01*
X12138360Y-8839000D02*
X12219640Y-8839000D01*
X12179000Y-9560360D02*
X12179000Y-9641640D01*
X12138360Y-9601000D02*
X12219640Y-9601000D01*
X12249000Y-6468360D02*
X12249000Y-6549640D01*
X12208360Y-6509000D02*
X12289640Y-6509000D01*
X12249000Y-7230360D02*
X12249000Y-7311640D01*
X12208360Y-7271000D02*
X12289640Y-7271000D01*
X12433000Y-8798360D02*
X12433000Y-8879640D01*
X12392360Y-8839000D02*
X12473640Y-8839000D01*
X12433000Y-9560360D02*
X12433000Y-9641640D01*
X12392360Y-9601000D02*
X12473640Y-9601000D01*
X12503000Y-6468360D02*
X12503000Y-6549640D01*
X12462360Y-6509000D02*
X12543640Y-6509000D01*
X12503000Y-7230360D02*
X12503000Y-7311640D01*
X12462360Y-7271000D02*
X12543640Y-7271000D01*
X12687000Y-8798360D02*
X12687000Y-8879640D01*
X12646360Y-8839000D02*
X12727640Y-8839000D01*
X12687000Y-9560360D02*
X12687000Y-9641640D01*
X12646360Y-9601000D02*
X12727640Y-9601000D01*
X12757000Y-6468360D02*
X12757000Y-6549640D01*
X12716360Y-6509000D02*
X12797640Y-6509000D01*
X12757000Y-7230360D02*
X12757000Y-7311640D01*
X12716360Y-7271000D02*
X12797640Y-7271000D01*
X12941000Y-8798360D02*
X12941000Y-8879640D01*
X12900360Y-8839000D02*
X12981640Y-8839000D01*
X12941000Y-9560360D02*
X12941000Y-9641640D01*
X12900360Y-9601000D02*
X12981640Y-9601000D01*
X13011000Y-6468360D02*
X13011000Y-6549640D01*
X12970360Y-6509000D02*
X13051640Y-6509000D01*
X13011000Y-7230360D02*
X13011000Y-7311640D01*
X12970360Y-7271000D02*
X13051640Y-7271000D01*
X4485356Y-5965356D02*
X4485356Y-5894644D01*
X4414644Y-5894644D01*
X4414644Y-5965356D01*
X4485356Y-5965356D01*
X5225356Y-4665356D02*
X5225356Y-4594644D01*
X5154644Y-4594644D01*
X5154644Y-4665356D01*
X5225356Y-4665356D01*
X6600356Y-11078356D02*
X6600356Y-11007644D01*
X6529644Y-11007644D01*
X6529644Y-11078356D01*
X6600356Y-11078356D01*
X6854356Y-11078356D02*
X6854356Y-11007644D01*
X6783644Y-11007644D01*
X6783644Y-11078356D01*
X6854356Y-11078356D01*
X7108356Y-11078356D02*
X7108356Y-11007644D01*
X7037644Y-11007644D01*
X7037644Y-11078356D01*
X7108356Y-11078356D01*
X7155356Y-5265356D02*
X7155356Y-5194644D01*
X7084644Y-5194644D01*
X7084644Y-5265356D01*
X7155356Y-5265356D01*
X7165356Y-5765356D02*
X7165356Y-5694644D01*
X7094644Y-5694644D01*
X7094644Y-5765356D01*
X7165356Y-5765356D01*
X7362356Y-11078356D02*
X7362356Y-11007644D01*
X7291644Y-11007644D01*
X7291644Y-11078356D01*
X7362356Y-11078356D01*
X7514356Y-6252356D02*
X7514356Y-6181644D01*
X7443644Y-6181644D01*
X7443644Y-6252356D01*
X7514356Y-6252356D01*
X7535356Y-5755356D02*
X7535356Y-5684644D01*
X7464644Y-5684644D01*
X7464644Y-5755356D01*
X7535356Y-5755356D01*
X7616356Y-11078356D02*
X7616356Y-11007644D01*
X7545644Y-11007644D01*
X7545644Y-11078356D01*
X7616356Y-11078356D01*
X7768356Y-6252356D02*
X7768356Y-6181644D01*
X7697644Y-6181644D01*
X7697644Y-6252356D01*
X7768356Y-6252356D01*
X7870356Y-11078356D02*
X7870356Y-11007644D01*
X7799644Y-11007644D01*
X7799644Y-11078356D01*
X7870356Y-11078356D01*
X7885356Y-5755356D02*
X7885356Y-5684644D01*
X7814644Y-5684644D01*
X7814644Y-5755356D01*
X7885356Y-5755356D01*
X8022356Y-6252356D02*
X8022356Y-6181644D01*
X7951644Y-6181644D01*
X7951644Y-6252356D01*
X8022356Y-6252356D01*
X8124356Y-11078356D02*
X8124356Y-11007644D01*
X8053644Y-11007644D01*
X8053644Y-11078356D01*
X8124356Y-11078356D01*
X8276356Y-6252356D02*
X8276356Y-6181644D01*
X8205644Y-6181644D01*
X8205644Y-6252356D01*
X8276356Y-6252356D01*
X8305356Y-5215356D02*
X8305356Y-5144644D01*
X8234644Y-5144644D01*
X8234644Y-5215356D01*
X8305356Y-5215356D01*
X8378356Y-11078356D02*
X8378356Y-11007644D01*
X8307644Y-11007644D01*
X8307644Y-11078356D01*
X8378356Y-11078356D01*
X8530356Y-6252356D02*
X8530356Y-6181644D01*
X8459644Y-6181644D01*
X8459644Y-6252356D01*
X8530356Y-6252356D01*
X8632356Y-11078356D02*
X8632356Y-11007644D01*
X8561644Y-11007644D01*
X8561644Y-11078356D01*
X8632356Y-11078356D01*
X8784356Y-6252356D02*
X8784356Y-6181644D01*
X8713644Y-6181644D01*
X8713644Y-6252356D01*
X8784356Y-6252356D01*
X8886356Y-11078356D02*
X8886356Y-11007644D01*
X8815644Y-11007644D01*
X8815644Y-11078356D01*
X8886356Y-11078356D01*
X8895356Y-5455356D02*
X8895356Y-5384644D01*
X8824644Y-5384644D01*
X8824644Y-5455356D01*
X8895356Y-5455356D01*
X9038356Y-6252356D02*
X9038356Y-6181644D01*
X8967644Y-6181644D01*
X8967644Y-6252356D01*
X9038356Y-6252356D01*
X9292356Y-6252356D02*
X9292356Y-6181644D01*
X9221644Y-6181644D01*
X9221644Y-6252356D01*
X9292356Y-6252356D01*
X9292356Y-11078356D02*
X9292356Y-11007644D01*
X9221644Y-11007644D01*
X9221644Y-11078356D01*
X9292356Y-11078356D01*
X9546356Y-11078356D02*
X9546356Y-11007644D01*
X9475644Y-11007644D01*
X9475644Y-11078356D01*
X9546356Y-11078356D01*
X9800356Y-6252356D02*
X9800356Y-6181644D01*
X9729644Y-6181644D01*
X9729644Y-6252356D01*
X9800356Y-6252356D01*
X9800356Y-11078356D02*
X9800356Y-11007644D01*
X9729644Y-11007644D01*
X9729644Y-11078356D01*
X9800356Y-11078356D01*
X10054356Y-6252356D02*
X10054356Y-6181644D01*
X9983644Y-6181644D01*
X9983644Y-6252356D01*
X10054356Y-6252356D01*
X10054356Y-11078356D02*
X10054356Y-11007644D01*
X9983644Y-11007644D01*
X9983644Y-11078356D01*
X10054356Y-11078356D01*
X10308356Y-6252356D02*
X10308356Y-6181644D01*
X10237644Y-6181644D01*
X10237644Y-6252356D01*
X10308356Y-6252356D01*
X10308356Y-11078356D02*
X10308356Y-11007644D01*
X10237644Y-11007644D01*
X10237644Y-11078356D01*
X10308356Y-11078356D01*
X10385356Y-4925356D02*
X10385356Y-4854644D01*
X10314644Y-4854644D01*
X10314644Y-4925356D01*
X10385356Y-4925356D01*
X10562356Y-6252356D02*
X10562356Y-6181644D01*
X10491644Y-6181644D01*
X10491644Y-6252356D01*
X10562356Y-6252356D01*
X10562356Y-11078356D02*
X10562356Y-11007644D01*
X10491644Y-11007644D01*
X10491644Y-11078356D01*
X10562356Y-11078356D01*
X10816356Y-6252356D02*
X10816356Y-6181644D01*
X10745644Y-6181644D01*
X10745644Y-6252356D01*
X10816356Y-6252356D01*
X10816356Y-11078356D02*
X10816356Y-11007644D01*
X10745644Y-11007644D01*
X10745644Y-11078356D01*
X10816356Y-11078356D01*
X10975356Y-5225356D02*
X10975356Y-5154644D01*
X10904644Y-5154644D01*
X10904644Y-5225356D01*
X10975356Y-5225356D01*
X11070356Y-6252356D02*
X11070356Y-6181644D01*
X10999644Y-6181644D01*
X10999644Y-6252356D01*
X11070356Y-6252356D01*
X11070356Y-11078356D02*
X11070356Y-11007644D01*
X10999644Y-11007644D01*
X10999644Y-11078356D01*
X11070356Y-11078356D01*
X11785356Y-11095356D02*
X11785356Y-11024644D01*
X11714644Y-11024644D01*
X11714644Y-11095356D01*
X11785356Y-11095356D01*
X12235356Y-6095356D02*
X12235356Y-6024644D01*
X12164644Y-6024644D01*
X12164644Y-6095356D01*
X12235356Y-6095356D01*
X12255356Y-8585356D02*
X12255356Y-8514644D01*
X12184644Y-8514644D01*
X12184644Y-8585356D01*
X12255356Y-8585356D01*
X12445356Y-9945356D02*
X12445356Y-9874644D01*
X12374644Y-9874644D01*
X12374644Y-9945356D01*
X12445356Y-9945356D01*
X12545356Y-7685356D02*
X12545356Y-7614644D01*
X12474644Y-7614644D01*
X12474644Y-7685356D01*
X12545356Y-7685356D01*
X12765356Y-5885356D02*
X12765356Y-5814644D01*
X12694644Y-5814644D01*
X12694644Y-5885356D01*
X12765356Y-5885356D01*
X12775356Y-9935356D02*
X12775356Y-9864644D01*
X12704644Y-9864644D01*
X12704644Y-9935356D01*
X12775356Y-9935356D01*
X12895356Y-7695356D02*
X12895356Y-7624644D01*
X12824644Y-7624644D01*
X12824644Y-7695356D01*
X12895356Y-7695356D01*
D13*
X11815250Y-5095000D02*
X11880250Y-5030000D01*
X11815250Y-4965000D01*
X11750250Y-5030000D01*
X11815250Y-5095000D01*
X12315250Y-5095000D02*
X12380250Y-5030000D01*
X12315250Y-4965000D01*
X12250250Y-5030000D01*
X12315250Y-5095000D01*
D11*
X3968277Y-12323984D02*
X3968277Y-12123984D01*
X3968277Y-12123984D02*
X4015896Y-12123984D01*
X4015896Y-12123984D02*
X4044467Y-12133508D01*
X4044467Y-12133508D02*
X4063515Y-12152555D01*
X4063515Y-12152555D02*
X4073039Y-12171603D01*
X4073039Y-12171603D02*
X4082562Y-12209698D01*
X4082562Y-12209698D02*
X4082562Y-12238269D01*
X4082562Y-12238269D02*
X4073039Y-12276365D01*
X4073039Y-12276365D02*
X4063515Y-12295412D01*
X4063515Y-12295412D02*
X4044467Y-12314460D01*
X4044467Y-12314460D02*
X4015896Y-12323984D01*
X4015896Y-12323984D02*
X3968277Y-12323984D01*
X4168277Y-12323984D02*
X4168277Y-12190650D01*
X4168277Y-12228746D02*
X4177801Y-12209698D01*
X4177801Y-12209698D02*
X4187324Y-12200174D01*
X4187324Y-12200174D02*
X4206372Y-12190650D01*
X4206372Y-12190650D02*
X4225420Y-12190650D01*
X4292086Y-12323984D02*
X4292086Y-12190650D01*
X4292086Y-12123984D02*
X4282563Y-12133508D01*
X4282563Y-12133508D02*
X4292086Y-12143031D01*
X4292086Y-12143031D02*
X4301610Y-12133508D01*
X4301610Y-12133508D02*
X4292086Y-12123984D01*
X4292086Y-12123984D02*
X4292086Y-12143031D01*
X4415896Y-12323984D02*
X4396848Y-12314460D01*
X4396848Y-12314460D02*
X4387324Y-12295412D01*
X4387324Y-12295412D02*
X4387324Y-12123984D01*
X4520658Y-12323984D02*
X4501610Y-12314460D01*
X4501610Y-12314460D02*
X4492086Y-12295412D01*
X4492086Y-12295412D02*
X4492086Y-12123984D01*
X4749229Y-12323984D02*
X4749229Y-12123984D01*
X4749229Y-12123984D02*
X4815896Y-12266841D01*
X4815896Y-12266841D02*
X4882563Y-12123984D01*
X4882563Y-12123984D02*
X4882563Y-12323984D01*
X5063515Y-12323984D02*
X5063515Y-12219222D01*
X5063515Y-12219222D02*
X5053991Y-12200174D01*
X5053991Y-12200174D02*
X5034944Y-12190650D01*
X5034944Y-12190650D02*
X4996848Y-12190650D01*
X4996848Y-12190650D02*
X4977801Y-12200174D01*
X5063515Y-12314460D02*
X5044467Y-12323984D01*
X5044467Y-12323984D02*
X4996848Y-12323984D01*
X4996848Y-12323984D02*
X4977801Y-12314460D01*
X4977801Y-12314460D02*
X4968277Y-12295412D01*
X4968277Y-12295412D02*
X4968277Y-12276365D01*
X4968277Y-12276365D02*
X4977801Y-12257317D01*
X4977801Y-12257317D02*
X4996848Y-12247793D01*
X4996848Y-12247793D02*
X5044467Y-12247793D01*
X5044467Y-12247793D02*
X5063515Y-12238269D01*
X5158753Y-12190650D02*
X5158753Y-12390650D01*
X5158753Y-12200174D02*
X5177801Y-12190650D01*
X5177801Y-12190650D02*
X5215896Y-12190650D01*
X5215896Y-12190650D02*
X5234944Y-12200174D01*
X5234944Y-12200174D02*
X5244467Y-12209698D01*
X5244467Y-12209698D02*
X5253991Y-12228746D01*
X5253991Y-12228746D02*
X5253991Y-12285888D01*
X5253991Y-12285888D02*
X5244467Y-12304936D01*
X5244467Y-12304936D02*
X5234944Y-12314460D01*
X5234944Y-12314460D02*
X5215896Y-12323984D01*
X5215896Y-12323984D02*
X5177801Y-12323984D01*
X5177801Y-12323984D02*
X5158753Y-12314460D01*
X5339705Y-12304936D02*
X5349229Y-12314460D01*
X5349229Y-12314460D02*
X5339705Y-12323984D01*
X5339705Y-12323984D02*
X5330182Y-12314460D01*
X5330182Y-12314460D02*
X5339705Y-12304936D01*
X5339705Y-12304936D02*
X5339705Y-12323984D01*
X5339705Y-12200174D02*
X5349229Y-12209698D01*
X5349229Y-12209698D02*
X5339705Y-12219222D01*
X5339705Y-12219222D02*
X5330182Y-12209698D01*
X5330182Y-12209698D02*
X5339705Y-12200174D01*
X5339705Y-12200174D02*
X5339705Y-12219222D01*
D12*
X3677500Y-12637500D02*
X3707500Y-12667500D01*
X3707500Y-12637500D02*
X3677500Y-12667500D01*
D11*
X4006372Y-12543984D02*
X4025420Y-12543984D01*
X4025420Y-12543984D02*
X4044467Y-12553508D01*
X4044467Y-12553508D02*
X4053991Y-12563031D01*
X4053991Y-12563031D02*
X4063515Y-12582079D01*
X4063515Y-12582079D02*
X4073039Y-12620174D01*
X4073039Y-12620174D02*
X4073039Y-12667793D01*
X4073039Y-12667793D02*
X4063515Y-12705888D01*
X4063515Y-12705888D02*
X4053991Y-12724936D01*
X4053991Y-12724936D02*
X4044467Y-12734460D01*
X4044467Y-12734460D02*
X4025420Y-12743984D01*
X4025420Y-12743984D02*
X4006372Y-12743984D01*
X4006372Y-12743984D02*
X3987324Y-12734460D01*
X3987324Y-12734460D02*
X3977801Y-12724936D01*
X3977801Y-12724936D02*
X3968277Y-12705888D01*
X3968277Y-12705888D02*
X3958753Y-12667793D01*
X3958753Y-12667793D02*
X3958753Y-12620174D01*
X3958753Y-12620174D02*
X3968277Y-12582079D01*
X3968277Y-12582079D02*
X3977801Y-12563031D01*
X3977801Y-12563031D02*
X3987324Y-12553508D01*
X3987324Y-12553508D02*
X4006372Y-12543984D01*
X4158753Y-12724936D02*
X4168277Y-12734460D01*
X4168277Y-12734460D02*
X4158753Y-12743984D01*
X4158753Y-12743984D02*
X4149229Y-12734460D01*
X4149229Y-12734460D02*
X4158753Y-12724936D01*
X4158753Y-12724936D02*
X4158753Y-12743984D01*
X4234944Y-12543984D02*
X4358753Y-12543984D01*
X4358753Y-12543984D02*
X4292086Y-12620174D01*
X4292086Y-12620174D02*
X4320658Y-12620174D01*
X4320658Y-12620174D02*
X4339705Y-12629698D01*
X4339705Y-12629698D02*
X4349229Y-12639222D01*
X4349229Y-12639222D02*
X4358753Y-12658269D01*
X4358753Y-12658269D02*
X4358753Y-12705888D01*
X4358753Y-12705888D02*
X4349229Y-12724936D01*
X4349229Y-12724936D02*
X4339705Y-12734460D01*
X4339705Y-12734460D02*
X4320658Y-12743984D01*
X4320658Y-12743984D02*
X4263515Y-12743984D01*
X4263515Y-12743984D02*
X4244467Y-12734460D01*
X4244467Y-12734460D02*
X4234944Y-12724936D01*
X4482563Y-12543984D02*
X4501610Y-12543984D01*
X4501610Y-12543984D02*
X4520658Y-12553508D01*
X4520658Y-12553508D02*
X4530182Y-12563031D01*
X4530182Y-12563031D02*
X4539705Y-12582079D01*
X4539705Y-12582079D02*
X4549229Y-12620174D01*
X4549229Y-12620174D02*
X4549229Y-12667793D01*
X4549229Y-12667793D02*
X4539705Y-12705888D01*
X4539705Y-12705888D02*
X4530182Y-12724936D01*
X4530182Y-12724936D02*
X4520658Y-12734460D01*
X4520658Y-12734460D02*
X4501610Y-12743984D01*
X4501610Y-12743984D02*
X4482563Y-12743984D01*
X4482563Y-12743984D02*
X4463515Y-12734460D01*
X4463515Y-12734460D02*
X4453991Y-12724936D01*
X4453991Y-12724936D02*
X4444467Y-12705888D01*
X4444467Y-12705888D02*
X4434944Y-12667793D01*
X4434944Y-12667793D02*
X4434944Y-12620174D01*
X4434944Y-12620174D02*
X4444467Y-12582079D01*
X4444467Y-12582079D02*
X4453991Y-12563031D01*
X4453991Y-12563031D02*
X4463515Y-12553508D01*
X4463515Y-12553508D02*
X4482563Y-12543984D01*
X4673039Y-12543984D02*
X4692086Y-12543984D01*
X4692086Y-12543984D02*
X4711134Y-12553508D01*
X4711134Y-12553508D02*
X4720658Y-12563031D01*
X4720658Y-12563031D02*
X4730182Y-12582079D01*
X4730182Y-12582079D02*
X4739705Y-12620174D01*
X4739705Y-12620174D02*
X4739705Y-12667793D01*
X4739705Y-12667793D02*
X4730182Y-12705888D01*
X4730182Y-12705888D02*
X4720658Y-12724936D01*
X4720658Y-12724936D02*
X4711134Y-12734460D01*
X4711134Y-12734460D02*
X4692086Y-12743984D01*
X4692086Y-12743984D02*
X4673039Y-12743984D01*
X4673039Y-12743984D02*
X4653991Y-12734460D01*
X4653991Y-12734460D02*
X4644467Y-12724936D01*
X4644467Y-12724936D02*
X4634944Y-12705888D01*
X4634944Y-12705888D02*
X4625420Y-12667793D01*
X4625420Y-12667793D02*
X4625420Y-12620174D01*
X4625420Y-12620174D02*
X4634944Y-12582079D01*
X4634944Y-12582079D02*
X4644467Y-12563031D01*
X4644467Y-12563031D02*
X4653991Y-12553508D01*
X4653991Y-12553508D02*
X4673039Y-12543984D01*
X4825420Y-12743984D02*
X4825420Y-12610650D01*
X4825420Y-12629698D02*
X4834944Y-12620174D01*
X4834944Y-12620174D02*
X4853991Y-12610650D01*
X4853991Y-12610650D02*
X4882563Y-12610650D01*
X4882563Y-12610650D02*
X4901610Y-12620174D01*
X4901610Y-12620174D02*
X4911134Y-12639222D01*
X4911134Y-12639222D02*
X4911134Y-12743984D01*
X4911134Y-12639222D02*
X4920658Y-12620174D01*
X4920658Y-12620174D02*
X4939705Y-12610650D01*
X4939705Y-12610650D02*
X4968277Y-12610650D01*
X4968277Y-12610650D02*
X4987325Y-12620174D01*
X4987325Y-12620174D02*
X4996848Y-12639222D01*
X4996848Y-12639222D02*
X4996848Y-12743984D01*
X5092086Y-12743984D02*
X5092086Y-12610650D01*
X5092086Y-12629698D02*
X5101610Y-12620174D01*
X5101610Y-12620174D02*
X5120658Y-12610650D01*
X5120658Y-12610650D02*
X5149229Y-12610650D01*
X5149229Y-12610650D02*
X5168277Y-12620174D01*
X5168277Y-12620174D02*
X5177801Y-12639222D01*
X5177801Y-12639222D02*
X5177801Y-12743984D01*
X5177801Y-12639222D02*
X5187325Y-12620174D01*
X5187325Y-12620174D02*
X5206372Y-12610650D01*
X5206372Y-12610650D02*
X5234944Y-12610650D01*
X5234944Y-12610650D02*
X5253991Y-12620174D01*
X5253991Y-12620174D02*
X5263515Y-12639222D01*
X5263515Y-12639222D02*
X5263515Y-12743984D01*
X5653991Y-12534460D02*
X5482563Y-12791603D01*
X5911134Y-12543984D02*
X5930182Y-12543984D01*
X5930182Y-12543984D02*
X5949229Y-12553508D01*
X5949229Y-12553508D02*
X5958753Y-12563031D01*
X5958753Y-12563031D02*
X5968277Y-12582079D01*
X5968277Y-12582079D02*
X5977801Y-12620174D01*
X5977801Y-12620174D02*
X5977801Y-12667793D01*
X5977801Y-12667793D02*
X5968277Y-12705888D01*
X5968277Y-12705888D02*
X5958753Y-12724936D01*
X5958753Y-12724936D02*
X5949229Y-12734460D01*
X5949229Y-12734460D02*
X5930182Y-12743984D01*
X5930182Y-12743984D02*
X5911134Y-12743984D01*
X5911134Y-12743984D02*
X5892086Y-12734460D01*
X5892086Y-12734460D02*
X5882563Y-12724936D01*
X5882563Y-12724936D02*
X5873039Y-12705888D01*
X5873039Y-12705888D02*
X5863515Y-12667793D01*
X5863515Y-12667793D02*
X5863515Y-12620174D01*
X5863515Y-12620174D02*
X5873039Y-12582079D01*
X5873039Y-12582079D02*
X5882563Y-12563031D01*
X5882563Y-12563031D02*
X5892086Y-12553508D01*
X5892086Y-12553508D02*
X5911134Y-12543984D01*
X6063515Y-12724936D02*
X6073039Y-12734460D01*
X6073039Y-12734460D02*
X6063515Y-12743984D01*
X6063515Y-12743984D02*
X6053991Y-12734460D01*
X6053991Y-12734460D02*
X6063515Y-12724936D01*
X6063515Y-12724936D02*
X6063515Y-12743984D01*
X6196848Y-12543984D02*
X6215896Y-12543984D01*
X6215896Y-12543984D02*
X6234944Y-12553508D01*
X6234944Y-12553508D02*
X6244467Y-12563031D01*
X6244467Y-12563031D02*
X6253991Y-12582079D01*
X6253991Y-12582079D02*
X6263515Y-12620174D01*
X6263515Y-12620174D02*
X6263515Y-12667793D01*
X6263515Y-12667793D02*
X6253991Y-12705888D01*
X6253991Y-12705888D02*
X6244467Y-12724936D01*
X6244467Y-12724936D02*
X6234944Y-12734460D01*
X6234944Y-12734460D02*
X6215896Y-12743984D01*
X6215896Y-12743984D02*
X6196848Y-12743984D01*
X6196848Y-12743984D02*
X6177801Y-12734460D01*
X6177801Y-12734460D02*
X6168277Y-12724936D01*
X6168277Y-12724936D02*
X6158753Y-12705888D01*
X6158753Y-12705888D02*
X6149229Y-12667793D01*
X6149229Y-12667793D02*
X6149229Y-12620174D01*
X6149229Y-12620174D02*
X6158753Y-12582079D01*
X6158753Y-12582079D02*
X6168277Y-12563031D01*
X6168277Y-12563031D02*
X6177801Y-12553508D01*
X6177801Y-12553508D02*
X6196848Y-12543984D01*
X6453991Y-12743984D02*
X6339706Y-12743984D01*
X6396848Y-12743984D02*
X6396848Y-12543984D01*
X6396848Y-12543984D02*
X6377801Y-12572555D01*
X6377801Y-12572555D02*
X6358753Y-12591603D01*
X6358753Y-12591603D02*
X6339706Y-12601127D01*
X6644467Y-12743984D02*
X6530182Y-12743984D01*
X6587325Y-12743984D02*
X6587325Y-12543984D01*
X6587325Y-12543984D02*
X6568277Y-12572555D01*
X6568277Y-12572555D02*
X6549229Y-12591603D01*
X6549229Y-12591603D02*
X6530182Y-12601127D01*
X6758753Y-12629698D02*
X6739706Y-12620174D01*
X6739706Y-12620174D02*
X6730182Y-12610650D01*
X6730182Y-12610650D02*
X6720658Y-12591603D01*
X6720658Y-12591603D02*
X6720658Y-12582079D01*
X6720658Y-12582079D02*
X6730182Y-12563031D01*
X6730182Y-12563031D02*
X6739706Y-12553508D01*
X6739706Y-12553508D02*
X6758753Y-12543984D01*
X6758753Y-12543984D02*
X6796848Y-12543984D01*
X6796848Y-12543984D02*
X6815896Y-12553508D01*
X6815896Y-12553508D02*
X6825420Y-12563031D01*
X6825420Y-12563031D02*
X6834944Y-12582079D01*
X6834944Y-12582079D02*
X6834944Y-12591603D01*
X6834944Y-12591603D02*
X6825420Y-12610650D01*
X6825420Y-12610650D02*
X6815896Y-12620174D01*
X6815896Y-12620174D02*
X6796848Y-12629698D01*
X6796848Y-12629698D02*
X6758753Y-12629698D01*
X6758753Y-12629698D02*
X6739706Y-12639222D01*
X6739706Y-12639222D02*
X6730182Y-12648746D01*
X6730182Y-12648746D02*
X6720658Y-12667793D01*
X6720658Y-12667793D02*
X6720658Y-12705888D01*
X6720658Y-12705888D02*
X6730182Y-12724936D01*
X6730182Y-12724936D02*
X6739706Y-12734460D01*
X6739706Y-12734460D02*
X6758753Y-12743984D01*
X6758753Y-12743984D02*
X6796848Y-12743984D01*
X6796848Y-12743984D02*
X6815896Y-12734460D01*
X6815896Y-12734460D02*
X6825420Y-12724936D01*
X6825420Y-12724936D02*
X6834944Y-12705888D01*
X6834944Y-12705888D02*
X6834944Y-12667793D01*
X6834944Y-12667793D02*
X6825420Y-12648746D01*
X6825420Y-12648746D02*
X6815896Y-12639222D01*
X6815896Y-12639222D02*
X6796848Y-12629698D01*
X6911134Y-12543984D02*
X6911134Y-12582079D01*
X6987325Y-12543984D02*
X6987325Y-12582079D01*
X7282563Y-12820174D02*
X7273039Y-12810650D01*
X7273039Y-12810650D02*
X7253991Y-12782079D01*
X7253991Y-12782079D02*
X7244468Y-12763031D01*
X7244468Y-12763031D02*
X7234944Y-12734460D01*
X7234944Y-12734460D02*
X7225420Y-12686841D01*
X7225420Y-12686841D02*
X7225420Y-12648746D01*
X7225420Y-12648746D02*
X7234944Y-12601127D01*
X7234944Y-12601127D02*
X7244468Y-12572555D01*
X7244468Y-12572555D02*
X7253991Y-12553508D01*
X7253991Y-12553508D02*
X7273039Y-12524936D01*
X7273039Y-12524936D02*
X7282563Y-12515412D01*
X7463515Y-12743984D02*
X7349229Y-12743984D01*
X7406372Y-12743984D02*
X7406372Y-12543984D01*
X7406372Y-12543984D02*
X7387325Y-12572555D01*
X7387325Y-12572555D02*
X7368277Y-12591603D01*
X7368277Y-12591603D02*
X7349229Y-12601127D01*
X7530182Y-12543984D02*
X7653991Y-12543984D01*
X7653991Y-12543984D02*
X7587325Y-12620174D01*
X7587325Y-12620174D02*
X7615896Y-12620174D01*
X7615896Y-12620174D02*
X7634944Y-12629698D01*
X7634944Y-12629698D02*
X7644468Y-12639222D01*
X7644468Y-12639222D02*
X7653991Y-12658269D01*
X7653991Y-12658269D02*
X7653991Y-12705888D01*
X7653991Y-12705888D02*
X7644468Y-12724936D01*
X7644468Y-12724936D02*
X7634944Y-12734460D01*
X7634944Y-12734460D02*
X7615896Y-12743984D01*
X7615896Y-12743984D02*
X7558753Y-12743984D01*
X7558753Y-12743984D02*
X7539706Y-12734460D01*
X7539706Y-12734460D02*
X7530182Y-12724936D01*
X7892087Y-12743984D02*
X7892087Y-12543984D01*
X7977801Y-12743984D02*
X7977801Y-12639222D01*
X7977801Y-12639222D02*
X7968277Y-12620174D01*
X7968277Y-12620174D02*
X7949230Y-12610650D01*
X7949230Y-12610650D02*
X7920658Y-12610650D01*
X7920658Y-12610650D02*
X7901610Y-12620174D01*
X7901610Y-12620174D02*
X7892087Y-12629698D01*
X8101610Y-12743984D02*
X8082563Y-12734460D01*
X8082563Y-12734460D02*
X8073039Y-12724936D01*
X8073039Y-12724936D02*
X8063515Y-12705888D01*
X8063515Y-12705888D02*
X8063515Y-12648746D01*
X8063515Y-12648746D02*
X8073039Y-12629698D01*
X8073039Y-12629698D02*
X8082563Y-12620174D01*
X8082563Y-12620174D02*
X8101610Y-12610650D01*
X8101610Y-12610650D02*
X8130182Y-12610650D01*
X8130182Y-12610650D02*
X8149230Y-12620174D01*
X8149230Y-12620174D02*
X8158753Y-12629698D01*
X8158753Y-12629698D02*
X8168277Y-12648746D01*
X8168277Y-12648746D02*
X8168277Y-12705888D01*
X8168277Y-12705888D02*
X8158753Y-12724936D01*
X8158753Y-12724936D02*
X8149230Y-12734460D01*
X8149230Y-12734460D02*
X8130182Y-12743984D01*
X8130182Y-12743984D02*
X8101610Y-12743984D01*
X8282563Y-12743984D02*
X8263515Y-12734460D01*
X8263515Y-12734460D02*
X8253991Y-12715412D01*
X8253991Y-12715412D02*
X8253991Y-12543984D01*
X8434944Y-12734460D02*
X8415896Y-12743984D01*
X8415896Y-12743984D02*
X8377801Y-12743984D01*
X8377801Y-12743984D02*
X8358753Y-12734460D01*
X8358753Y-12734460D02*
X8349230Y-12715412D01*
X8349230Y-12715412D02*
X8349230Y-12639222D01*
X8349230Y-12639222D02*
X8358753Y-12620174D01*
X8358753Y-12620174D02*
X8377801Y-12610650D01*
X8377801Y-12610650D02*
X8415896Y-12610650D01*
X8415896Y-12610650D02*
X8434944Y-12620174D01*
X8434944Y-12620174D02*
X8444468Y-12639222D01*
X8444468Y-12639222D02*
X8444468Y-12658269D01*
X8444468Y-12658269D02*
X8349230Y-12677317D01*
X8520658Y-12734460D02*
X8539706Y-12743984D01*
X8539706Y-12743984D02*
X8577801Y-12743984D01*
X8577801Y-12743984D02*
X8596849Y-12734460D01*
X8596849Y-12734460D02*
X8606373Y-12715412D01*
X8606373Y-12715412D02*
X8606373Y-12705888D01*
X8606373Y-12705888D02*
X8596849Y-12686841D01*
X8596849Y-12686841D02*
X8577801Y-12677317D01*
X8577801Y-12677317D02*
X8549230Y-12677317D01*
X8549230Y-12677317D02*
X8530182Y-12667793D01*
X8530182Y-12667793D02*
X8520658Y-12648746D01*
X8520658Y-12648746D02*
X8520658Y-12639222D01*
X8520658Y-12639222D02*
X8530182Y-12620174D01*
X8530182Y-12620174D02*
X8549230Y-12610650D01*
X8549230Y-12610650D02*
X8577801Y-12610650D01*
X8577801Y-12610650D02*
X8596849Y-12620174D01*
X8673039Y-12820174D02*
X8682563Y-12810650D01*
X8682563Y-12810650D02*
X8701611Y-12782079D01*
X8701611Y-12782079D02*
X8711134Y-12763031D01*
X8711134Y-12763031D02*
X8720658Y-12734460D01*
X8720658Y-12734460D02*
X8730182Y-12686841D01*
X8730182Y-12686841D02*
X8730182Y-12648746D01*
X8730182Y-12648746D02*
X8720658Y-12601127D01*
X8720658Y-12601127D02*
X8711134Y-12572555D01*
X8711134Y-12572555D02*
X8701611Y-12553508D01*
X8701611Y-12553508D02*
X8682563Y-12524936D01*
X8682563Y-12524936D02*
X8673039Y-12515412D01*
D12*
X3707500Y-12916500D02*
G75*
G02*
X3627500Y-12916500I-40000J0D01*
G01*
X3627500Y-12916500D02*
G75*
G02*
X3707500Y-12916500I40000J0D01*
G01*
D11*
X4006372Y-12807984D02*
X4025420Y-12807984D01*
X4025420Y-12807984D02*
X4044467Y-12817508D01*
X4044467Y-12817508D02*
X4053991Y-12827031D01*
X4053991Y-12827031D02*
X4063515Y-12846079D01*
X4063515Y-12846079D02*
X4073039Y-12884174D01*
X4073039Y-12884174D02*
X4073039Y-12931793D01*
X4073039Y-12931793D02*
X4063515Y-12969888D01*
X4063515Y-12969888D02*
X4053991Y-12988936D01*
X4053991Y-12988936D02*
X4044467Y-12998460D01*
X4044467Y-12998460D02*
X4025420Y-13007984D01*
X4025420Y-13007984D02*
X4006372Y-13007984D01*
X4006372Y-13007984D02*
X3987324Y-12998460D01*
X3987324Y-12998460D02*
X3977801Y-12988936D01*
X3977801Y-12988936D02*
X3968277Y-12969888D01*
X3968277Y-12969888D02*
X3958753Y-12931793D01*
X3958753Y-12931793D02*
X3958753Y-12884174D01*
X3958753Y-12884174D02*
X3968277Y-12846079D01*
X3968277Y-12846079D02*
X3977801Y-12827031D01*
X3977801Y-12827031D02*
X3987324Y-12817508D01*
X3987324Y-12817508D02*
X4006372Y-12807984D01*
X4158753Y-12988936D02*
X4168277Y-12998460D01*
X4168277Y-12998460D02*
X4158753Y-13007984D01*
X4158753Y-13007984D02*
X4149229Y-12998460D01*
X4149229Y-12998460D02*
X4158753Y-12988936D01*
X4158753Y-12988936D02*
X4158753Y-13007984D01*
X4282563Y-12893698D02*
X4263515Y-12884174D01*
X4263515Y-12884174D02*
X4253991Y-12874650D01*
X4253991Y-12874650D02*
X4244467Y-12855603D01*
X4244467Y-12855603D02*
X4244467Y-12846079D01*
X4244467Y-12846079D02*
X4253991Y-12827031D01*
X4253991Y-12827031D02*
X4263515Y-12817508D01*
X4263515Y-12817508D02*
X4282563Y-12807984D01*
X4282563Y-12807984D02*
X4320658Y-12807984D01*
X4320658Y-12807984D02*
X4339705Y-12817508D01*
X4339705Y-12817508D02*
X4349229Y-12827031D01*
X4349229Y-12827031D02*
X4358753Y-12846079D01*
X4358753Y-12846079D02*
X4358753Y-12855603D01*
X4358753Y-12855603D02*
X4349229Y-12874650D01*
X4349229Y-12874650D02*
X4339705Y-12884174D01*
X4339705Y-12884174D02*
X4320658Y-12893698D01*
X4320658Y-12893698D02*
X4282563Y-12893698D01*
X4282563Y-12893698D02*
X4263515Y-12903222D01*
X4263515Y-12903222D02*
X4253991Y-12912746D01*
X4253991Y-12912746D02*
X4244467Y-12931793D01*
X4244467Y-12931793D02*
X4244467Y-12969888D01*
X4244467Y-12969888D02*
X4253991Y-12988936D01*
X4253991Y-12988936D02*
X4263515Y-12998460D01*
X4263515Y-12998460D02*
X4282563Y-13007984D01*
X4282563Y-13007984D02*
X4320658Y-13007984D01*
X4320658Y-13007984D02*
X4339705Y-12998460D01*
X4339705Y-12998460D02*
X4349229Y-12988936D01*
X4349229Y-12988936D02*
X4358753Y-12969888D01*
X4358753Y-12969888D02*
X4358753Y-12931793D01*
X4358753Y-12931793D02*
X4349229Y-12912746D01*
X4349229Y-12912746D02*
X4339705Y-12903222D01*
X4339705Y-12903222D02*
X4320658Y-12893698D01*
X4482563Y-12807984D02*
X4501610Y-12807984D01*
X4501610Y-12807984D02*
X4520658Y-12817508D01*
X4520658Y-12817508D02*
X4530182Y-12827031D01*
X4530182Y-12827031D02*
X4539705Y-12846079D01*
X4539705Y-12846079D02*
X4549229Y-12884174D01*
X4549229Y-12884174D02*
X4549229Y-12931793D01*
X4549229Y-12931793D02*
X4539705Y-12969888D01*
X4539705Y-12969888D02*
X4530182Y-12988936D01*
X4530182Y-12988936D02*
X4520658Y-12998460D01*
X4520658Y-12998460D02*
X4501610Y-13007984D01*
X4501610Y-13007984D02*
X4482563Y-13007984D01*
X4482563Y-13007984D02*
X4463515Y-12998460D01*
X4463515Y-12998460D02*
X4453991Y-12988936D01*
X4453991Y-12988936D02*
X4444467Y-12969888D01*
X4444467Y-12969888D02*
X4434944Y-12931793D01*
X4434944Y-12931793D02*
X4434944Y-12884174D01*
X4434944Y-12884174D02*
X4444467Y-12846079D01*
X4444467Y-12846079D02*
X4453991Y-12827031D01*
X4453991Y-12827031D02*
X4463515Y-12817508D01*
X4463515Y-12817508D02*
X4482563Y-12807984D01*
X4673039Y-12807984D02*
X4692086Y-12807984D01*
X4692086Y-12807984D02*
X4711134Y-12817508D01*
X4711134Y-12817508D02*
X4720658Y-12827031D01*
X4720658Y-12827031D02*
X4730182Y-12846079D01*
X4730182Y-12846079D02*
X4739705Y-12884174D01*
X4739705Y-12884174D02*
X4739705Y-12931793D01*
X4739705Y-12931793D02*
X4730182Y-12969888D01*
X4730182Y-12969888D02*
X4720658Y-12988936D01*
X4720658Y-12988936D02*
X4711134Y-12998460D01*
X4711134Y-12998460D02*
X4692086Y-13007984D01*
X4692086Y-13007984D02*
X4673039Y-13007984D01*
X4673039Y-13007984D02*
X4653991Y-12998460D01*
X4653991Y-12998460D02*
X4644467Y-12988936D01*
X4644467Y-12988936D02*
X4634944Y-12969888D01*
X4634944Y-12969888D02*
X4625420Y-12931793D01*
X4625420Y-12931793D02*
X4625420Y-12884174D01*
X4625420Y-12884174D02*
X4634944Y-12846079D01*
X4634944Y-12846079D02*
X4644467Y-12827031D01*
X4644467Y-12827031D02*
X4653991Y-12817508D01*
X4653991Y-12817508D02*
X4673039Y-12807984D01*
X4825420Y-13007984D02*
X4825420Y-12874650D01*
X4825420Y-12893698D02*
X4834944Y-12884174D01*
X4834944Y-12884174D02*
X4853991Y-12874650D01*
X4853991Y-12874650D02*
X4882563Y-12874650D01*
X4882563Y-12874650D02*
X4901610Y-12884174D01*
X4901610Y-12884174D02*
X4911134Y-12903222D01*
X4911134Y-12903222D02*
X4911134Y-13007984D01*
X4911134Y-12903222D02*
X4920658Y-12884174D01*
X4920658Y-12884174D02*
X4939705Y-12874650D01*
X4939705Y-12874650D02*
X4968277Y-12874650D01*
X4968277Y-12874650D02*
X4987325Y-12884174D01*
X4987325Y-12884174D02*
X4996848Y-12903222D01*
X4996848Y-12903222D02*
X4996848Y-13007984D01*
X5092086Y-13007984D02*
X5092086Y-12874650D01*
X5092086Y-12893698D02*
X5101610Y-12884174D01*
X5101610Y-12884174D02*
X5120658Y-12874650D01*
X5120658Y-12874650D02*
X5149229Y-12874650D01*
X5149229Y-12874650D02*
X5168277Y-12884174D01*
X5168277Y-12884174D02*
X5177801Y-12903222D01*
X5177801Y-12903222D02*
X5177801Y-13007984D01*
X5177801Y-12903222D02*
X5187325Y-12884174D01*
X5187325Y-12884174D02*
X5206372Y-12874650D01*
X5206372Y-12874650D02*
X5234944Y-12874650D01*
X5234944Y-12874650D02*
X5253991Y-12884174D01*
X5253991Y-12884174D02*
X5263515Y-12903222D01*
X5263515Y-12903222D02*
X5263515Y-13007984D01*
X5653991Y-12798460D02*
X5482563Y-13055603D01*
X5911134Y-12807984D02*
X5930182Y-12807984D01*
X5930182Y-12807984D02*
X5949229Y-12817508D01*
X5949229Y-12817508D02*
X5958753Y-12827031D01*
X5958753Y-12827031D02*
X5968277Y-12846079D01*
X5968277Y-12846079D02*
X5977801Y-12884174D01*
X5977801Y-12884174D02*
X5977801Y-12931793D01*
X5977801Y-12931793D02*
X5968277Y-12969888D01*
X5968277Y-12969888D02*
X5958753Y-12988936D01*
X5958753Y-12988936D02*
X5949229Y-12998460D01*
X5949229Y-12998460D02*
X5930182Y-13007984D01*
X5930182Y-13007984D02*
X5911134Y-13007984D01*
X5911134Y-13007984D02*
X5892086Y-12998460D01*
X5892086Y-12998460D02*
X5882563Y-12988936D01*
X5882563Y-12988936D02*
X5873039Y-12969888D01*
X5873039Y-12969888D02*
X5863515Y-12931793D01*
X5863515Y-12931793D02*
X5863515Y-12884174D01*
X5863515Y-12884174D02*
X5873039Y-12846079D01*
X5873039Y-12846079D02*
X5882563Y-12827031D01*
X5882563Y-12827031D02*
X5892086Y-12817508D01*
X5892086Y-12817508D02*
X5911134Y-12807984D01*
X6063515Y-12988936D02*
X6073039Y-12998460D01*
X6073039Y-12998460D02*
X6063515Y-13007984D01*
X6063515Y-13007984D02*
X6053991Y-12998460D01*
X6053991Y-12998460D02*
X6063515Y-12988936D01*
X6063515Y-12988936D02*
X6063515Y-13007984D01*
X6196848Y-12807984D02*
X6215896Y-12807984D01*
X6215896Y-12807984D02*
X6234944Y-12817508D01*
X6234944Y-12817508D02*
X6244467Y-12827031D01*
X6244467Y-12827031D02*
X6253991Y-12846079D01*
X6253991Y-12846079D02*
X6263515Y-12884174D01*
X6263515Y-12884174D02*
X6263515Y-12931793D01*
X6263515Y-12931793D02*
X6253991Y-12969888D01*
X6253991Y-12969888D02*
X6244467Y-12988936D01*
X6244467Y-12988936D02*
X6234944Y-12998460D01*
X6234944Y-12998460D02*
X6215896Y-13007984D01*
X6215896Y-13007984D02*
X6196848Y-13007984D01*
X6196848Y-13007984D02*
X6177801Y-12998460D01*
X6177801Y-12998460D02*
X6168277Y-12988936D01*
X6168277Y-12988936D02*
X6158753Y-12969888D01*
X6158753Y-12969888D02*
X6149229Y-12931793D01*
X6149229Y-12931793D02*
X6149229Y-12884174D01*
X6149229Y-12884174D02*
X6158753Y-12846079D01*
X6158753Y-12846079D02*
X6168277Y-12827031D01*
X6168277Y-12827031D02*
X6177801Y-12817508D01*
X6177801Y-12817508D02*
X6196848Y-12807984D01*
X6330182Y-12807984D02*
X6453991Y-12807984D01*
X6453991Y-12807984D02*
X6387325Y-12884174D01*
X6387325Y-12884174D02*
X6415896Y-12884174D01*
X6415896Y-12884174D02*
X6434944Y-12893698D01*
X6434944Y-12893698D02*
X6444467Y-12903222D01*
X6444467Y-12903222D02*
X6453991Y-12922269D01*
X6453991Y-12922269D02*
X6453991Y-12969888D01*
X6453991Y-12969888D02*
X6444467Y-12988936D01*
X6444467Y-12988936D02*
X6434944Y-12998460D01*
X6434944Y-12998460D02*
X6415896Y-13007984D01*
X6415896Y-13007984D02*
X6358753Y-13007984D01*
X6358753Y-13007984D02*
X6339706Y-12998460D01*
X6339706Y-12998460D02*
X6330182Y-12988936D01*
X6644467Y-13007984D02*
X6530182Y-13007984D01*
X6587325Y-13007984D02*
X6587325Y-12807984D01*
X6587325Y-12807984D02*
X6568277Y-12836555D01*
X6568277Y-12836555D02*
X6549229Y-12855603D01*
X6549229Y-12855603D02*
X6530182Y-12865127D01*
X6825420Y-12807984D02*
X6730182Y-12807984D01*
X6730182Y-12807984D02*
X6720658Y-12903222D01*
X6720658Y-12903222D02*
X6730182Y-12893698D01*
X6730182Y-12893698D02*
X6749229Y-12884174D01*
X6749229Y-12884174D02*
X6796848Y-12884174D01*
X6796848Y-12884174D02*
X6815896Y-12893698D01*
X6815896Y-12893698D02*
X6825420Y-12903222D01*
X6825420Y-12903222D02*
X6834944Y-12922269D01*
X6834944Y-12922269D02*
X6834944Y-12969888D01*
X6834944Y-12969888D02*
X6825420Y-12988936D01*
X6825420Y-12988936D02*
X6815896Y-12998460D01*
X6815896Y-12998460D02*
X6796848Y-13007984D01*
X6796848Y-13007984D02*
X6749229Y-13007984D01*
X6749229Y-13007984D02*
X6730182Y-12998460D01*
X6730182Y-12998460D02*
X6720658Y-12988936D01*
X6911134Y-12807984D02*
X6911134Y-12846079D01*
X6987325Y-12807984D02*
X6987325Y-12846079D01*
X7282563Y-13084174D02*
X7273039Y-13074650D01*
X7273039Y-13074650D02*
X7253991Y-13046079D01*
X7253991Y-13046079D02*
X7244468Y-13027031D01*
X7244468Y-13027031D02*
X7234944Y-12998460D01*
X7234944Y-12998460D02*
X7225420Y-12950841D01*
X7225420Y-12950841D02*
X7225420Y-12912746D01*
X7225420Y-12912746D02*
X7234944Y-12865127D01*
X7234944Y-12865127D02*
X7244468Y-12836555D01*
X7244468Y-12836555D02*
X7253991Y-12817508D01*
X7253991Y-12817508D02*
X7273039Y-12788936D01*
X7273039Y-12788936D02*
X7282563Y-12779412D01*
X7349229Y-12827031D02*
X7358753Y-12817508D01*
X7358753Y-12817508D02*
X7377801Y-12807984D01*
X7377801Y-12807984D02*
X7425420Y-12807984D01*
X7425420Y-12807984D02*
X7444468Y-12817508D01*
X7444468Y-12817508D02*
X7453991Y-12827031D01*
X7453991Y-12827031D02*
X7463515Y-12846079D01*
X7463515Y-12846079D02*
X7463515Y-12865127D01*
X7463515Y-12865127D02*
X7453991Y-12893698D01*
X7453991Y-12893698D02*
X7339706Y-13007984D01*
X7339706Y-13007984D02*
X7463515Y-13007984D01*
X7701610Y-13007984D02*
X7701610Y-12807984D01*
X7787325Y-13007984D02*
X7787325Y-12903222D01*
X7787325Y-12903222D02*
X7777801Y-12884174D01*
X7777801Y-12884174D02*
X7758753Y-12874650D01*
X7758753Y-12874650D02*
X7730182Y-12874650D01*
X7730182Y-12874650D02*
X7711134Y-12884174D01*
X7711134Y-12884174D02*
X7701610Y-12893698D01*
X7911134Y-13007984D02*
X7892087Y-12998460D01*
X7892087Y-12998460D02*
X7882563Y-12988936D01*
X7882563Y-12988936D02*
X7873039Y-12969888D01*
X7873039Y-12969888D02*
X7873039Y-12912746D01*
X7873039Y-12912746D02*
X7882563Y-12893698D01*
X7882563Y-12893698D02*
X7892087Y-12884174D01*
X7892087Y-12884174D02*
X7911134Y-12874650D01*
X7911134Y-12874650D02*
X7939706Y-12874650D01*
X7939706Y-12874650D02*
X7958753Y-12884174D01*
X7958753Y-12884174D02*
X7968277Y-12893698D01*
X7968277Y-12893698D02*
X7977801Y-12912746D01*
X7977801Y-12912746D02*
X7977801Y-12969888D01*
X7977801Y-12969888D02*
X7968277Y-12988936D01*
X7968277Y-12988936D02*
X7958753Y-12998460D01*
X7958753Y-12998460D02*
X7939706Y-13007984D01*
X7939706Y-13007984D02*
X7911134Y-13007984D01*
X8092087Y-13007984D02*
X8073039Y-12998460D01*
X8073039Y-12998460D02*
X8063515Y-12979412D01*
X8063515Y-12979412D02*
X8063515Y-12807984D01*
X8244468Y-12998460D02*
X8225420Y-13007984D01*
X8225420Y-13007984D02*
X8187325Y-13007984D01*
X8187325Y-13007984D02*
X8168277Y-12998460D01*
X8168277Y-12998460D02*
X8158753Y-12979412D01*
X8158753Y-12979412D02*
X8158753Y-12903222D01*
X8158753Y-12903222D02*
X8168277Y-12884174D01*
X8168277Y-12884174D02*
X8187325Y-12874650D01*
X8187325Y-12874650D02*
X8225420Y-12874650D01*
X8225420Y-12874650D02*
X8244468Y-12884174D01*
X8244468Y-12884174D02*
X8253991Y-12903222D01*
X8253991Y-12903222D02*
X8253991Y-12922269D01*
X8253991Y-12922269D02*
X8158753Y-12941317D01*
X8330182Y-12998460D02*
X8349230Y-13007984D01*
X8349230Y-13007984D02*
X8387325Y-13007984D01*
X8387325Y-13007984D02*
X8406373Y-12998460D01*
X8406373Y-12998460D02*
X8415896Y-12979412D01*
X8415896Y-12979412D02*
X8415896Y-12969888D01*
X8415896Y-12969888D02*
X8406373Y-12950841D01*
X8406373Y-12950841D02*
X8387325Y-12941317D01*
X8387325Y-12941317D02*
X8358753Y-12941317D01*
X8358753Y-12941317D02*
X8339706Y-12931793D01*
X8339706Y-12931793D02*
X8330182Y-12912746D01*
X8330182Y-12912746D02*
X8330182Y-12903222D01*
X8330182Y-12903222D02*
X8339706Y-12884174D01*
X8339706Y-12884174D02*
X8358753Y-12874650D01*
X8358753Y-12874650D02*
X8387325Y-12874650D01*
X8387325Y-12874650D02*
X8406373Y-12884174D01*
X8482563Y-13084174D02*
X8492087Y-13074650D01*
X8492087Y-13074650D02*
X8511134Y-13046079D01*
X8511134Y-13046079D02*
X8520658Y-13027031D01*
X8520658Y-13027031D02*
X8530182Y-12998460D01*
X8530182Y-12998460D02*
X8539706Y-12950841D01*
X8539706Y-12950841D02*
X8539706Y-12912746D01*
X8539706Y-12912746D02*
X8530182Y-12865127D01*
X8530182Y-12865127D02*
X8520658Y-12836555D01*
X8520658Y-12836555D02*
X8511134Y-12817508D01*
X8511134Y-12817508D02*
X8492087Y-12788936D01*
X8492087Y-12788936D02*
X8482563Y-12779412D01*
D12*
X3666860Y-13139860D02*
X3666860Y-13221140D01*
X3626220Y-13180500D02*
X3707500Y-13180500D01*
D11*
X4006372Y-13071984D02*
X4025420Y-13071984D01*
X4025420Y-13071984D02*
X4044467Y-13081508D01*
X4044467Y-13081508D02*
X4053991Y-13091031D01*
X4053991Y-13091031D02*
X4063515Y-13110079D01*
X4063515Y-13110079D02*
X4073039Y-13148174D01*
X4073039Y-13148174D02*
X4073039Y-13195793D01*
X4073039Y-13195793D02*
X4063515Y-13233888D01*
X4063515Y-13233888D02*
X4053991Y-13252936D01*
X4053991Y-13252936D02*
X4044467Y-13262460D01*
X4044467Y-13262460D02*
X4025420Y-13271984D01*
X4025420Y-13271984D02*
X4006372Y-13271984D01*
X4006372Y-13271984D02*
X3987324Y-13262460D01*
X3987324Y-13262460D02*
X3977801Y-13252936D01*
X3977801Y-13252936D02*
X3968277Y-13233888D01*
X3968277Y-13233888D02*
X3958753Y-13195793D01*
X3958753Y-13195793D02*
X3958753Y-13148174D01*
X3958753Y-13148174D02*
X3968277Y-13110079D01*
X3968277Y-13110079D02*
X3977801Y-13091031D01*
X3977801Y-13091031D02*
X3987324Y-13081508D01*
X3987324Y-13081508D02*
X4006372Y-13071984D01*
X4158753Y-13252936D02*
X4168277Y-13262460D01*
X4168277Y-13262460D02*
X4158753Y-13271984D01*
X4158753Y-13271984D02*
X4149229Y-13262460D01*
X4149229Y-13262460D02*
X4158753Y-13252936D01*
X4158753Y-13252936D02*
X4158753Y-13271984D01*
X4282563Y-13157698D02*
X4263515Y-13148174D01*
X4263515Y-13148174D02*
X4253991Y-13138650D01*
X4253991Y-13138650D02*
X4244467Y-13119603D01*
X4244467Y-13119603D02*
X4244467Y-13110079D01*
X4244467Y-13110079D02*
X4253991Y-13091031D01*
X4253991Y-13091031D02*
X4263515Y-13081508D01*
X4263515Y-13081508D02*
X4282563Y-13071984D01*
X4282563Y-13071984D02*
X4320658Y-13071984D01*
X4320658Y-13071984D02*
X4339705Y-13081508D01*
X4339705Y-13081508D02*
X4349229Y-13091031D01*
X4349229Y-13091031D02*
X4358753Y-13110079D01*
X4358753Y-13110079D02*
X4358753Y-13119603D01*
X4358753Y-13119603D02*
X4349229Y-13138650D01*
X4349229Y-13138650D02*
X4339705Y-13148174D01*
X4339705Y-13148174D02*
X4320658Y-13157698D01*
X4320658Y-13157698D02*
X4282563Y-13157698D01*
X4282563Y-13157698D02*
X4263515Y-13167222D01*
X4263515Y-13167222D02*
X4253991Y-13176746D01*
X4253991Y-13176746D02*
X4244467Y-13195793D01*
X4244467Y-13195793D02*
X4244467Y-13233888D01*
X4244467Y-13233888D02*
X4253991Y-13252936D01*
X4253991Y-13252936D02*
X4263515Y-13262460D01*
X4263515Y-13262460D02*
X4282563Y-13271984D01*
X4282563Y-13271984D02*
X4320658Y-13271984D01*
X4320658Y-13271984D02*
X4339705Y-13262460D01*
X4339705Y-13262460D02*
X4349229Y-13252936D01*
X4349229Y-13252936D02*
X4358753Y-13233888D01*
X4358753Y-13233888D02*
X4358753Y-13195793D01*
X4358753Y-13195793D02*
X4349229Y-13176746D01*
X4349229Y-13176746D02*
X4339705Y-13167222D01*
X4339705Y-13167222D02*
X4320658Y-13157698D01*
X4549229Y-13271984D02*
X4434944Y-13271984D01*
X4492086Y-13271984D02*
X4492086Y-13071984D01*
X4492086Y-13071984D02*
X4473039Y-13100555D01*
X4473039Y-13100555D02*
X4453991Y-13119603D01*
X4453991Y-13119603D02*
X4434944Y-13129127D01*
X4615896Y-13071984D02*
X4739705Y-13071984D01*
X4739705Y-13071984D02*
X4673039Y-13148174D01*
X4673039Y-13148174D02*
X4701610Y-13148174D01*
X4701610Y-13148174D02*
X4720658Y-13157698D01*
X4720658Y-13157698D02*
X4730182Y-13167222D01*
X4730182Y-13167222D02*
X4739705Y-13186269D01*
X4739705Y-13186269D02*
X4739705Y-13233888D01*
X4739705Y-13233888D02*
X4730182Y-13252936D01*
X4730182Y-13252936D02*
X4720658Y-13262460D01*
X4720658Y-13262460D02*
X4701610Y-13271984D01*
X4701610Y-13271984D02*
X4644467Y-13271984D01*
X4644467Y-13271984D02*
X4625420Y-13262460D01*
X4625420Y-13262460D02*
X4615896Y-13252936D01*
X4825420Y-13271984D02*
X4825420Y-13138650D01*
X4825420Y-13157698D02*
X4834944Y-13148174D01*
X4834944Y-13148174D02*
X4853991Y-13138650D01*
X4853991Y-13138650D02*
X4882563Y-13138650D01*
X4882563Y-13138650D02*
X4901610Y-13148174D01*
X4901610Y-13148174D02*
X4911134Y-13167222D01*
X4911134Y-13167222D02*
X4911134Y-13271984D01*
X4911134Y-13167222D02*
X4920658Y-13148174D01*
X4920658Y-13148174D02*
X4939705Y-13138650D01*
X4939705Y-13138650D02*
X4968277Y-13138650D01*
X4968277Y-13138650D02*
X4987325Y-13148174D01*
X4987325Y-13148174D02*
X4996848Y-13167222D01*
X4996848Y-13167222D02*
X4996848Y-13271984D01*
X5092086Y-13271984D02*
X5092086Y-13138650D01*
X5092086Y-13157698D02*
X5101610Y-13148174D01*
X5101610Y-13148174D02*
X5120658Y-13138650D01*
X5120658Y-13138650D02*
X5149229Y-13138650D01*
X5149229Y-13138650D02*
X5168277Y-13148174D01*
X5168277Y-13148174D02*
X5177801Y-13167222D01*
X5177801Y-13167222D02*
X5177801Y-13271984D01*
X5177801Y-13167222D02*
X5187325Y-13148174D01*
X5187325Y-13148174D02*
X5206372Y-13138650D01*
X5206372Y-13138650D02*
X5234944Y-13138650D01*
X5234944Y-13138650D02*
X5253991Y-13148174D01*
X5253991Y-13148174D02*
X5263515Y-13167222D01*
X5263515Y-13167222D02*
X5263515Y-13271984D01*
X5653991Y-13062460D02*
X5482563Y-13319603D01*
X5911134Y-13071984D02*
X5930182Y-13071984D01*
X5930182Y-13071984D02*
X5949229Y-13081508D01*
X5949229Y-13081508D02*
X5958753Y-13091031D01*
X5958753Y-13091031D02*
X5968277Y-13110079D01*
X5968277Y-13110079D02*
X5977801Y-13148174D01*
X5977801Y-13148174D02*
X5977801Y-13195793D01*
X5977801Y-13195793D02*
X5968277Y-13233888D01*
X5968277Y-13233888D02*
X5958753Y-13252936D01*
X5958753Y-13252936D02*
X5949229Y-13262460D01*
X5949229Y-13262460D02*
X5930182Y-13271984D01*
X5930182Y-13271984D02*
X5911134Y-13271984D01*
X5911134Y-13271984D02*
X5892086Y-13262460D01*
X5892086Y-13262460D02*
X5882563Y-13252936D01*
X5882563Y-13252936D02*
X5873039Y-13233888D01*
X5873039Y-13233888D02*
X5863515Y-13195793D01*
X5863515Y-13195793D02*
X5863515Y-13148174D01*
X5863515Y-13148174D02*
X5873039Y-13110079D01*
X5873039Y-13110079D02*
X5882563Y-13091031D01*
X5882563Y-13091031D02*
X5892086Y-13081508D01*
X5892086Y-13081508D02*
X5911134Y-13071984D01*
X6063515Y-13252936D02*
X6073039Y-13262460D01*
X6073039Y-13262460D02*
X6063515Y-13271984D01*
X6063515Y-13271984D02*
X6053991Y-13262460D01*
X6053991Y-13262460D02*
X6063515Y-13252936D01*
X6063515Y-13252936D02*
X6063515Y-13271984D01*
X6196848Y-13071984D02*
X6215896Y-13071984D01*
X6215896Y-13071984D02*
X6234944Y-13081508D01*
X6234944Y-13081508D02*
X6244467Y-13091031D01*
X6244467Y-13091031D02*
X6253991Y-13110079D01*
X6253991Y-13110079D02*
X6263515Y-13148174D01*
X6263515Y-13148174D02*
X6263515Y-13195793D01*
X6263515Y-13195793D02*
X6253991Y-13233888D01*
X6253991Y-13233888D02*
X6244467Y-13252936D01*
X6244467Y-13252936D02*
X6234944Y-13262460D01*
X6234944Y-13262460D02*
X6215896Y-13271984D01*
X6215896Y-13271984D02*
X6196848Y-13271984D01*
X6196848Y-13271984D02*
X6177801Y-13262460D01*
X6177801Y-13262460D02*
X6168277Y-13252936D01*
X6168277Y-13252936D02*
X6158753Y-13233888D01*
X6158753Y-13233888D02*
X6149229Y-13195793D01*
X6149229Y-13195793D02*
X6149229Y-13148174D01*
X6149229Y-13148174D02*
X6158753Y-13110079D01*
X6158753Y-13110079D02*
X6168277Y-13091031D01*
X6168277Y-13091031D02*
X6177801Y-13081508D01*
X6177801Y-13081508D02*
X6196848Y-13071984D01*
X6330182Y-13071984D02*
X6453991Y-13071984D01*
X6453991Y-13071984D02*
X6387325Y-13148174D01*
X6387325Y-13148174D02*
X6415896Y-13148174D01*
X6415896Y-13148174D02*
X6434944Y-13157698D01*
X6434944Y-13157698D02*
X6444467Y-13167222D01*
X6444467Y-13167222D02*
X6453991Y-13186269D01*
X6453991Y-13186269D02*
X6453991Y-13233888D01*
X6453991Y-13233888D02*
X6444467Y-13252936D01*
X6444467Y-13252936D02*
X6434944Y-13262460D01*
X6434944Y-13262460D02*
X6415896Y-13271984D01*
X6415896Y-13271984D02*
X6358753Y-13271984D01*
X6358753Y-13271984D02*
X6339706Y-13262460D01*
X6339706Y-13262460D02*
X6330182Y-13252936D01*
X6530182Y-13091031D02*
X6539706Y-13081508D01*
X6539706Y-13081508D02*
X6558753Y-13071984D01*
X6558753Y-13071984D02*
X6606372Y-13071984D01*
X6606372Y-13071984D02*
X6625420Y-13081508D01*
X6625420Y-13081508D02*
X6634944Y-13091031D01*
X6634944Y-13091031D02*
X6644467Y-13110079D01*
X6644467Y-13110079D02*
X6644467Y-13129127D01*
X6644467Y-13129127D02*
X6634944Y-13157698D01*
X6634944Y-13157698D02*
X6520658Y-13271984D01*
X6520658Y-13271984D02*
X6644467Y-13271984D01*
X6768277Y-13071984D02*
X6787325Y-13071984D01*
X6787325Y-13071984D02*
X6806372Y-13081508D01*
X6806372Y-13081508D02*
X6815896Y-13091031D01*
X6815896Y-13091031D02*
X6825420Y-13110079D01*
X6825420Y-13110079D02*
X6834944Y-13148174D01*
X6834944Y-13148174D02*
X6834944Y-13195793D01*
X6834944Y-13195793D02*
X6825420Y-13233888D01*
X6825420Y-13233888D02*
X6815896Y-13252936D01*
X6815896Y-13252936D02*
X6806372Y-13262460D01*
X6806372Y-13262460D02*
X6787325Y-13271984D01*
X6787325Y-13271984D02*
X6768277Y-13271984D01*
X6768277Y-13271984D02*
X6749229Y-13262460D01*
X6749229Y-13262460D02*
X6739706Y-13252936D01*
X6739706Y-13252936D02*
X6730182Y-13233888D01*
X6730182Y-13233888D02*
X6720658Y-13195793D01*
X6720658Y-13195793D02*
X6720658Y-13148174D01*
X6720658Y-13148174D02*
X6730182Y-13110079D01*
X6730182Y-13110079D02*
X6739706Y-13091031D01*
X6739706Y-13091031D02*
X6749229Y-13081508D01*
X6749229Y-13081508D02*
X6768277Y-13071984D01*
X6911134Y-13071984D02*
X6911134Y-13110079D01*
X6987325Y-13071984D02*
X6987325Y-13110079D01*
X7282563Y-13348174D02*
X7273039Y-13338650D01*
X7273039Y-13338650D02*
X7253991Y-13310079D01*
X7253991Y-13310079D02*
X7244468Y-13291031D01*
X7244468Y-13291031D02*
X7234944Y-13262460D01*
X7234944Y-13262460D02*
X7225420Y-13214841D01*
X7225420Y-13214841D02*
X7225420Y-13176746D01*
X7225420Y-13176746D02*
X7234944Y-13129127D01*
X7234944Y-13129127D02*
X7244468Y-13100555D01*
X7244468Y-13100555D02*
X7253991Y-13081508D01*
X7253991Y-13081508D02*
X7273039Y-13052936D01*
X7273039Y-13052936D02*
X7282563Y-13043412D01*
X7349229Y-13091031D02*
X7358753Y-13081508D01*
X7358753Y-13081508D02*
X7377801Y-13071984D01*
X7377801Y-13071984D02*
X7425420Y-13071984D01*
X7425420Y-13071984D02*
X7444468Y-13081508D01*
X7444468Y-13081508D02*
X7453991Y-13091031D01*
X7453991Y-13091031D02*
X7463515Y-13110079D01*
X7463515Y-13110079D02*
X7463515Y-13129127D01*
X7463515Y-13129127D02*
X7453991Y-13157698D01*
X7453991Y-13157698D02*
X7339706Y-13271984D01*
X7339706Y-13271984D02*
X7463515Y-13271984D01*
X7634944Y-13138650D02*
X7634944Y-13271984D01*
X7587325Y-13062460D02*
X7539706Y-13205317D01*
X7539706Y-13205317D02*
X7663515Y-13205317D01*
X7892087Y-13271984D02*
X7892087Y-13071984D01*
X7977801Y-13271984D02*
X7977801Y-13167222D01*
X7977801Y-13167222D02*
X7968277Y-13148174D01*
X7968277Y-13148174D02*
X7949230Y-13138650D01*
X7949230Y-13138650D02*
X7920658Y-13138650D01*
X7920658Y-13138650D02*
X7901610Y-13148174D01*
X7901610Y-13148174D02*
X7892087Y-13157698D01*
X8101610Y-13271984D02*
X8082563Y-13262460D01*
X8082563Y-13262460D02*
X8073039Y-13252936D01*
X8073039Y-13252936D02*
X8063515Y-13233888D01*
X8063515Y-13233888D02*
X8063515Y-13176746D01*
X8063515Y-13176746D02*
X8073039Y-13157698D01*
X8073039Y-13157698D02*
X8082563Y-13148174D01*
X8082563Y-13148174D02*
X8101610Y-13138650D01*
X8101610Y-13138650D02*
X8130182Y-13138650D01*
X8130182Y-13138650D02*
X8149230Y-13148174D01*
X8149230Y-13148174D02*
X8158753Y-13157698D01*
X8158753Y-13157698D02*
X8168277Y-13176746D01*
X8168277Y-13176746D02*
X8168277Y-13233888D01*
X8168277Y-13233888D02*
X8158753Y-13252936D01*
X8158753Y-13252936D02*
X8149230Y-13262460D01*
X8149230Y-13262460D02*
X8130182Y-13271984D01*
X8130182Y-13271984D02*
X8101610Y-13271984D01*
X8282563Y-13271984D02*
X8263515Y-13262460D01*
X8263515Y-13262460D02*
X8253991Y-13243412D01*
X8253991Y-13243412D02*
X8253991Y-13071984D01*
X8434944Y-13262460D02*
X8415896Y-13271984D01*
X8415896Y-13271984D02*
X8377801Y-13271984D01*
X8377801Y-13271984D02*
X8358753Y-13262460D01*
X8358753Y-13262460D02*
X8349230Y-13243412D01*
X8349230Y-13243412D02*
X8349230Y-13167222D01*
X8349230Y-13167222D02*
X8358753Y-13148174D01*
X8358753Y-13148174D02*
X8377801Y-13138650D01*
X8377801Y-13138650D02*
X8415896Y-13138650D01*
X8415896Y-13138650D02*
X8434944Y-13148174D01*
X8434944Y-13148174D02*
X8444468Y-13167222D01*
X8444468Y-13167222D02*
X8444468Y-13186269D01*
X8444468Y-13186269D02*
X8349230Y-13205317D01*
X8520658Y-13262460D02*
X8539706Y-13271984D01*
X8539706Y-13271984D02*
X8577801Y-13271984D01*
X8577801Y-13271984D02*
X8596849Y-13262460D01*
X8596849Y-13262460D02*
X8606373Y-13243412D01*
X8606373Y-13243412D02*
X8606373Y-13233888D01*
X8606373Y-13233888D02*
X8596849Y-13214841D01*
X8596849Y-13214841D02*
X8577801Y-13205317D01*
X8577801Y-13205317D02*
X8549230Y-13205317D01*
X8549230Y-13205317D02*
X8530182Y-13195793D01*
X8530182Y-13195793D02*
X8520658Y-13176746D01*
X8520658Y-13176746D02*
X8520658Y-13167222D01*
X8520658Y-13167222D02*
X8530182Y-13148174D01*
X8530182Y-13148174D02*
X8549230Y-13138650D01*
X8549230Y-13138650D02*
X8577801Y-13138650D01*
X8577801Y-13138650D02*
X8596849Y-13148174D01*
X8673039Y-13348174D02*
X8682563Y-13338650D01*
X8682563Y-13338650D02*
X8701611Y-13310079D01*
X8701611Y-13310079D02*
X8711134Y-13291031D01*
X8711134Y-13291031D02*
X8720658Y-13262460D01*
X8720658Y-13262460D02*
X8730182Y-13214841D01*
X8730182Y-13214841D02*
X8730182Y-13176746D01*
X8730182Y-13176746D02*
X8720658Y-13129127D01*
X8720658Y-13129127D02*
X8711134Y-13100555D01*
X8711134Y-13100555D02*
X8701611Y-13081508D01*
X8701611Y-13081508D02*
X8682563Y-13052936D01*
X8682563Y-13052936D02*
X8673039Y-13043412D01*
D12*
X3692856Y-13479856D02*
X3692856Y-13409144D01*
X3622144Y-13409144D01*
X3622144Y-13479856D01*
X3692856Y-13479856D01*
D11*
X4073039Y-13535984D02*
X3958753Y-13535984D01*
X4015896Y-13535984D02*
X4015896Y-13335984D01*
X4015896Y-13335984D02*
X3996848Y-13364555D01*
X3996848Y-13364555D02*
X3977801Y-13383603D01*
X3977801Y-13383603D02*
X3958753Y-13393127D01*
X4158753Y-13516936D02*
X4168277Y-13526460D01*
X4168277Y-13526460D02*
X4158753Y-13535984D01*
X4158753Y-13535984D02*
X4149229Y-13526460D01*
X4149229Y-13526460D02*
X4158753Y-13516936D01*
X4158753Y-13516936D02*
X4158753Y-13535984D01*
X4292086Y-13335984D02*
X4311134Y-13335984D01*
X4311134Y-13335984D02*
X4330182Y-13345508D01*
X4330182Y-13345508D02*
X4339705Y-13355031D01*
X4339705Y-13355031D02*
X4349229Y-13374079D01*
X4349229Y-13374079D02*
X4358753Y-13412174D01*
X4358753Y-13412174D02*
X4358753Y-13459793D01*
X4358753Y-13459793D02*
X4349229Y-13497888D01*
X4349229Y-13497888D02*
X4339705Y-13516936D01*
X4339705Y-13516936D02*
X4330182Y-13526460D01*
X4330182Y-13526460D02*
X4311134Y-13535984D01*
X4311134Y-13535984D02*
X4292086Y-13535984D01*
X4292086Y-13535984D02*
X4273039Y-13526460D01*
X4273039Y-13526460D02*
X4263515Y-13516936D01*
X4263515Y-13516936D02*
X4253991Y-13497888D01*
X4253991Y-13497888D02*
X4244467Y-13459793D01*
X4244467Y-13459793D02*
X4244467Y-13412174D01*
X4244467Y-13412174D02*
X4253991Y-13374079D01*
X4253991Y-13374079D02*
X4263515Y-13355031D01*
X4263515Y-13355031D02*
X4273039Y-13345508D01*
X4273039Y-13345508D02*
X4292086Y-13335984D01*
X4482563Y-13335984D02*
X4501610Y-13335984D01*
X4501610Y-13335984D02*
X4520658Y-13345508D01*
X4520658Y-13345508D02*
X4530182Y-13355031D01*
X4530182Y-13355031D02*
X4539705Y-13374079D01*
X4539705Y-13374079D02*
X4549229Y-13412174D01*
X4549229Y-13412174D02*
X4549229Y-13459793D01*
X4549229Y-13459793D02*
X4539705Y-13497888D01*
X4539705Y-13497888D02*
X4530182Y-13516936D01*
X4530182Y-13516936D02*
X4520658Y-13526460D01*
X4520658Y-13526460D02*
X4501610Y-13535984D01*
X4501610Y-13535984D02*
X4482563Y-13535984D01*
X4482563Y-13535984D02*
X4463515Y-13526460D01*
X4463515Y-13526460D02*
X4453991Y-13516936D01*
X4453991Y-13516936D02*
X4444467Y-13497888D01*
X4444467Y-13497888D02*
X4434944Y-13459793D01*
X4434944Y-13459793D02*
X4434944Y-13412174D01*
X4434944Y-13412174D02*
X4444467Y-13374079D01*
X4444467Y-13374079D02*
X4453991Y-13355031D01*
X4453991Y-13355031D02*
X4463515Y-13345508D01*
X4463515Y-13345508D02*
X4482563Y-13335984D01*
X4673039Y-13335984D02*
X4692086Y-13335984D01*
X4692086Y-13335984D02*
X4711134Y-13345508D01*
X4711134Y-13345508D02*
X4720658Y-13355031D01*
X4720658Y-13355031D02*
X4730182Y-13374079D01*
X4730182Y-13374079D02*
X4739705Y-13412174D01*
X4739705Y-13412174D02*
X4739705Y-13459793D01*
X4739705Y-13459793D02*
X4730182Y-13497888D01*
X4730182Y-13497888D02*
X4720658Y-13516936D01*
X4720658Y-13516936D02*
X4711134Y-13526460D01*
X4711134Y-13526460D02*
X4692086Y-13535984D01*
X4692086Y-13535984D02*
X4673039Y-13535984D01*
X4673039Y-13535984D02*
X4653991Y-13526460D01*
X4653991Y-13526460D02*
X4644467Y-13516936D01*
X4644467Y-13516936D02*
X4634944Y-13497888D01*
X4634944Y-13497888D02*
X4625420Y-13459793D01*
X4625420Y-13459793D02*
X4625420Y-13412174D01*
X4625420Y-13412174D02*
X4634944Y-13374079D01*
X4634944Y-13374079D02*
X4644467Y-13355031D01*
X4644467Y-13355031D02*
X4653991Y-13345508D01*
X4653991Y-13345508D02*
X4673039Y-13335984D01*
X4825420Y-13535984D02*
X4825420Y-13402650D01*
X4825420Y-13421698D02*
X4834944Y-13412174D01*
X4834944Y-13412174D02*
X4853991Y-13402650D01*
X4853991Y-13402650D02*
X4882563Y-13402650D01*
X4882563Y-13402650D02*
X4901610Y-13412174D01*
X4901610Y-13412174D02*
X4911134Y-13431222D01*
X4911134Y-13431222D02*
X4911134Y-13535984D01*
X4911134Y-13431222D02*
X4920658Y-13412174D01*
X4920658Y-13412174D02*
X4939705Y-13402650D01*
X4939705Y-13402650D02*
X4968277Y-13402650D01*
X4968277Y-13402650D02*
X4987325Y-13412174D01*
X4987325Y-13412174D02*
X4996848Y-13431222D01*
X4996848Y-13431222D02*
X4996848Y-13535984D01*
X5092086Y-13535984D02*
X5092086Y-13402650D01*
X5092086Y-13421698D02*
X5101610Y-13412174D01*
X5101610Y-13412174D02*
X5120658Y-13402650D01*
X5120658Y-13402650D02*
X5149229Y-13402650D01*
X5149229Y-13402650D02*
X5168277Y-13412174D01*
X5168277Y-13412174D02*
X5177801Y-13431222D01*
X5177801Y-13431222D02*
X5177801Y-13535984D01*
X5177801Y-13431222D02*
X5187325Y-13412174D01*
X5187325Y-13412174D02*
X5206372Y-13402650D01*
X5206372Y-13402650D02*
X5234944Y-13402650D01*
X5234944Y-13402650D02*
X5253991Y-13412174D01*
X5253991Y-13412174D02*
X5263515Y-13431222D01*
X5263515Y-13431222D02*
X5263515Y-13535984D01*
X5653991Y-13326460D02*
X5482563Y-13583603D01*
X5911134Y-13335984D02*
X5930182Y-13335984D01*
X5930182Y-13335984D02*
X5949229Y-13345508D01*
X5949229Y-13345508D02*
X5958753Y-13355031D01*
X5958753Y-13355031D02*
X5968277Y-13374079D01*
X5968277Y-13374079D02*
X5977801Y-13412174D01*
X5977801Y-13412174D02*
X5977801Y-13459793D01*
X5977801Y-13459793D02*
X5968277Y-13497888D01*
X5968277Y-13497888D02*
X5958753Y-13516936D01*
X5958753Y-13516936D02*
X5949229Y-13526460D01*
X5949229Y-13526460D02*
X5930182Y-13535984D01*
X5930182Y-13535984D02*
X5911134Y-13535984D01*
X5911134Y-13535984D02*
X5892086Y-13526460D01*
X5892086Y-13526460D02*
X5882563Y-13516936D01*
X5882563Y-13516936D02*
X5873039Y-13497888D01*
X5873039Y-13497888D02*
X5863515Y-13459793D01*
X5863515Y-13459793D02*
X5863515Y-13412174D01*
X5863515Y-13412174D02*
X5873039Y-13374079D01*
X5873039Y-13374079D02*
X5882563Y-13355031D01*
X5882563Y-13355031D02*
X5892086Y-13345508D01*
X5892086Y-13345508D02*
X5911134Y-13335984D01*
X6063515Y-13516936D02*
X6073039Y-13526460D01*
X6073039Y-13526460D02*
X6063515Y-13535984D01*
X6063515Y-13535984D02*
X6053991Y-13526460D01*
X6053991Y-13526460D02*
X6063515Y-13516936D01*
X6063515Y-13516936D02*
X6063515Y-13535984D01*
X6196848Y-13335984D02*
X6215896Y-13335984D01*
X6215896Y-13335984D02*
X6234944Y-13345508D01*
X6234944Y-13345508D02*
X6244467Y-13355031D01*
X6244467Y-13355031D02*
X6253991Y-13374079D01*
X6253991Y-13374079D02*
X6263515Y-13412174D01*
X6263515Y-13412174D02*
X6263515Y-13459793D01*
X6263515Y-13459793D02*
X6253991Y-13497888D01*
X6253991Y-13497888D02*
X6244467Y-13516936D01*
X6244467Y-13516936D02*
X6234944Y-13526460D01*
X6234944Y-13526460D02*
X6215896Y-13535984D01*
X6215896Y-13535984D02*
X6196848Y-13535984D01*
X6196848Y-13535984D02*
X6177801Y-13526460D01*
X6177801Y-13526460D02*
X6168277Y-13516936D01*
X6168277Y-13516936D02*
X6158753Y-13497888D01*
X6158753Y-13497888D02*
X6149229Y-13459793D01*
X6149229Y-13459793D02*
X6149229Y-13412174D01*
X6149229Y-13412174D02*
X6158753Y-13374079D01*
X6158753Y-13374079D02*
X6168277Y-13355031D01*
X6168277Y-13355031D02*
X6177801Y-13345508D01*
X6177801Y-13345508D02*
X6196848Y-13335984D01*
X6330182Y-13335984D02*
X6453991Y-13335984D01*
X6453991Y-13335984D02*
X6387325Y-13412174D01*
X6387325Y-13412174D02*
X6415896Y-13412174D01*
X6415896Y-13412174D02*
X6434944Y-13421698D01*
X6434944Y-13421698D02*
X6444467Y-13431222D01*
X6444467Y-13431222D02*
X6453991Y-13450269D01*
X6453991Y-13450269D02*
X6453991Y-13497888D01*
X6453991Y-13497888D02*
X6444467Y-13516936D01*
X6444467Y-13516936D02*
X6434944Y-13526460D01*
X6434944Y-13526460D02*
X6415896Y-13535984D01*
X6415896Y-13535984D02*
X6358753Y-13535984D01*
X6358753Y-13535984D02*
X6339706Y-13526460D01*
X6339706Y-13526460D02*
X6330182Y-13516936D01*
X6549229Y-13535984D02*
X6587325Y-13535984D01*
X6587325Y-13535984D02*
X6606372Y-13526460D01*
X6606372Y-13526460D02*
X6615896Y-13516936D01*
X6615896Y-13516936D02*
X6634944Y-13488365D01*
X6634944Y-13488365D02*
X6644467Y-13450269D01*
X6644467Y-13450269D02*
X6644467Y-13374079D01*
X6644467Y-13374079D02*
X6634944Y-13355031D01*
X6634944Y-13355031D02*
X6625420Y-13345508D01*
X6625420Y-13345508D02*
X6606372Y-13335984D01*
X6606372Y-13335984D02*
X6568277Y-13335984D01*
X6568277Y-13335984D02*
X6549229Y-13345508D01*
X6549229Y-13345508D02*
X6539706Y-13355031D01*
X6539706Y-13355031D02*
X6530182Y-13374079D01*
X6530182Y-13374079D02*
X6530182Y-13421698D01*
X6530182Y-13421698D02*
X6539706Y-13440746D01*
X6539706Y-13440746D02*
X6549229Y-13450269D01*
X6549229Y-13450269D02*
X6568277Y-13459793D01*
X6568277Y-13459793D02*
X6606372Y-13459793D01*
X6606372Y-13459793D02*
X6625420Y-13450269D01*
X6625420Y-13450269D02*
X6634944Y-13440746D01*
X6634944Y-13440746D02*
X6644467Y-13421698D01*
X6815896Y-13402650D02*
X6815896Y-13535984D01*
X6768277Y-13326460D02*
X6720658Y-13469317D01*
X6720658Y-13469317D02*
X6844467Y-13469317D01*
X6911134Y-13335984D02*
X6911134Y-13374079D01*
X6987325Y-13335984D02*
X6987325Y-13374079D01*
X7282563Y-13612174D02*
X7273039Y-13602650D01*
X7273039Y-13602650D02*
X7253991Y-13574079D01*
X7253991Y-13574079D02*
X7244468Y-13555031D01*
X7244468Y-13555031D02*
X7234944Y-13526460D01*
X7234944Y-13526460D02*
X7225420Y-13478841D01*
X7225420Y-13478841D02*
X7225420Y-13440746D01*
X7225420Y-13440746D02*
X7234944Y-13393127D01*
X7234944Y-13393127D02*
X7244468Y-13364555D01*
X7244468Y-13364555D02*
X7253991Y-13345508D01*
X7253991Y-13345508D02*
X7273039Y-13316936D01*
X7273039Y-13316936D02*
X7282563Y-13307412D01*
X7453991Y-13335984D02*
X7358753Y-13335984D01*
X7358753Y-13335984D02*
X7349229Y-13431222D01*
X7349229Y-13431222D02*
X7358753Y-13421698D01*
X7358753Y-13421698D02*
X7377801Y-13412174D01*
X7377801Y-13412174D02*
X7425420Y-13412174D01*
X7425420Y-13412174D02*
X7444468Y-13421698D01*
X7444468Y-13421698D02*
X7453991Y-13431222D01*
X7453991Y-13431222D02*
X7463515Y-13450269D01*
X7463515Y-13450269D02*
X7463515Y-13497888D01*
X7463515Y-13497888D02*
X7453991Y-13516936D01*
X7453991Y-13516936D02*
X7444468Y-13526460D01*
X7444468Y-13526460D02*
X7425420Y-13535984D01*
X7425420Y-13535984D02*
X7377801Y-13535984D01*
X7377801Y-13535984D02*
X7358753Y-13526460D01*
X7358753Y-13526460D02*
X7349229Y-13516936D01*
X7587325Y-13335984D02*
X7606372Y-13335984D01*
X7606372Y-13335984D02*
X7625420Y-13345508D01*
X7625420Y-13345508D02*
X7634944Y-13355031D01*
X7634944Y-13355031D02*
X7644468Y-13374079D01*
X7644468Y-13374079D02*
X7653991Y-13412174D01*
X7653991Y-13412174D02*
X7653991Y-13459793D01*
X7653991Y-13459793D02*
X7644468Y-13497888D01*
X7644468Y-13497888D02*
X7634944Y-13516936D01*
X7634944Y-13516936D02*
X7625420Y-13526460D01*
X7625420Y-13526460D02*
X7606372Y-13535984D01*
X7606372Y-13535984D02*
X7587325Y-13535984D01*
X7587325Y-13535984D02*
X7568277Y-13526460D01*
X7568277Y-13526460D02*
X7558753Y-13516936D01*
X7558753Y-13516936D02*
X7549229Y-13497888D01*
X7549229Y-13497888D02*
X7539706Y-13459793D01*
X7539706Y-13459793D02*
X7539706Y-13412174D01*
X7539706Y-13412174D02*
X7549229Y-13374079D01*
X7549229Y-13374079D02*
X7558753Y-13355031D01*
X7558753Y-13355031D02*
X7568277Y-13345508D01*
X7568277Y-13345508D02*
X7587325Y-13335984D01*
X7892087Y-13535984D02*
X7892087Y-13335984D01*
X7977801Y-13535984D02*
X7977801Y-13431222D01*
X7977801Y-13431222D02*
X7968277Y-13412174D01*
X7968277Y-13412174D02*
X7949230Y-13402650D01*
X7949230Y-13402650D02*
X7920658Y-13402650D01*
X7920658Y-13402650D02*
X7901610Y-13412174D01*
X7901610Y-13412174D02*
X7892087Y-13421698D01*
X8101610Y-13535984D02*
X8082563Y-13526460D01*
X8082563Y-13526460D02*
X8073039Y-13516936D01*
X8073039Y-13516936D02*
X8063515Y-13497888D01*
X8063515Y-13497888D02*
X8063515Y-13440746D01*
X8063515Y-13440746D02*
X8073039Y-13421698D01*
X8073039Y-13421698D02*
X8082563Y-13412174D01*
X8082563Y-13412174D02*
X8101610Y-13402650D01*
X8101610Y-13402650D02*
X8130182Y-13402650D01*
X8130182Y-13402650D02*
X8149230Y-13412174D01*
X8149230Y-13412174D02*
X8158753Y-13421698D01*
X8158753Y-13421698D02*
X8168277Y-13440746D01*
X8168277Y-13440746D02*
X8168277Y-13497888D01*
X8168277Y-13497888D02*
X8158753Y-13516936D01*
X8158753Y-13516936D02*
X8149230Y-13526460D01*
X8149230Y-13526460D02*
X8130182Y-13535984D01*
X8130182Y-13535984D02*
X8101610Y-13535984D01*
X8282563Y-13535984D02*
X8263515Y-13526460D01*
X8263515Y-13526460D02*
X8253991Y-13507412D01*
X8253991Y-13507412D02*
X8253991Y-13335984D01*
X8434944Y-13526460D02*
X8415896Y-13535984D01*
X8415896Y-13535984D02*
X8377801Y-13535984D01*
X8377801Y-13535984D02*
X8358753Y-13526460D01*
X8358753Y-13526460D02*
X8349230Y-13507412D01*
X8349230Y-13507412D02*
X8349230Y-13431222D01*
X8349230Y-13431222D02*
X8358753Y-13412174D01*
X8358753Y-13412174D02*
X8377801Y-13402650D01*
X8377801Y-13402650D02*
X8415896Y-13402650D01*
X8415896Y-13402650D02*
X8434944Y-13412174D01*
X8434944Y-13412174D02*
X8444468Y-13431222D01*
X8444468Y-13431222D02*
X8444468Y-13450269D01*
X8444468Y-13450269D02*
X8349230Y-13469317D01*
X8520658Y-13526460D02*
X8539706Y-13535984D01*
X8539706Y-13535984D02*
X8577801Y-13535984D01*
X8577801Y-13535984D02*
X8596849Y-13526460D01*
X8596849Y-13526460D02*
X8606373Y-13507412D01*
X8606373Y-13507412D02*
X8606373Y-13497888D01*
X8606373Y-13497888D02*
X8596849Y-13478841D01*
X8596849Y-13478841D02*
X8577801Y-13469317D01*
X8577801Y-13469317D02*
X8549230Y-13469317D01*
X8549230Y-13469317D02*
X8530182Y-13459793D01*
X8530182Y-13459793D02*
X8520658Y-13440746D01*
X8520658Y-13440746D02*
X8520658Y-13431222D01*
X8520658Y-13431222D02*
X8530182Y-13412174D01*
X8530182Y-13412174D02*
X8549230Y-13402650D01*
X8549230Y-13402650D02*
X8577801Y-13402650D01*
X8577801Y-13402650D02*
X8596849Y-13412174D01*
X8673039Y-13612174D02*
X8682563Y-13602650D01*
X8682563Y-13602650D02*
X8701611Y-13574079D01*
X8701611Y-13574079D02*
X8711134Y-13555031D01*
X8711134Y-13555031D02*
X8720658Y-13526460D01*
X8720658Y-13526460D02*
X8730182Y-13478841D01*
X8730182Y-13478841D02*
X8730182Y-13440746D01*
X8730182Y-13440746D02*
X8720658Y-13393127D01*
X8720658Y-13393127D02*
X8711134Y-13364555D01*
X8711134Y-13364555D02*
X8701611Y-13345508D01*
X8701611Y-13345508D02*
X8682563Y-13316936D01*
X8682563Y-13316936D02*
X8673039Y-13307412D01*
D13*
X3642500Y-13773500D02*
X3707500Y-13708500D01*
X3642500Y-13643500D01*
X3577500Y-13708500D01*
X3642500Y-13773500D01*
D11*
X4073039Y-13799984D02*
X3958753Y-13799984D01*
X4015896Y-13799984D02*
X4015896Y-13599984D01*
X4015896Y-13599984D02*
X3996848Y-13628555D01*
X3996848Y-13628555D02*
X3977801Y-13647603D01*
X3977801Y-13647603D02*
X3958753Y-13657127D01*
X4158753Y-13780936D02*
X4168277Y-13790460D01*
X4168277Y-13790460D02*
X4158753Y-13799984D01*
X4158753Y-13799984D02*
X4149229Y-13790460D01*
X4149229Y-13790460D02*
X4158753Y-13780936D01*
X4158753Y-13780936D02*
X4158753Y-13799984D01*
X4234944Y-13599984D02*
X4358753Y-13599984D01*
X4358753Y-13599984D02*
X4292086Y-13676174D01*
X4292086Y-13676174D02*
X4320658Y-13676174D01*
X4320658Y-13676174D02*
X4339705Y-13685698D01*
X4339705Y-13685698D02*
X4349229Y-13695222D01*
X4349229Y-13695222D02*
X4358753Y-13714269D01*
X4358753Y-13714269D02*
X4358753Y-13761888D01*
X4358753Y-13761888D02*
X4349229Y-13780936D01*
X4349229Y-13780936D02*
X4339705Y-13790460D01*
X4339705Y-13790460D02*
X4320658Y-13799984D01*
X4320658Y-13799984D02*
X4263515Y-13799984D01*
X4263515Y-13799984D02*
X4244467Y-13790460D01*
X4244467Y-13790460D02*
X4234944Y-13780936D01*
X4482563Y-13599984D02*
X4501610Y-13599984D01*
X4501610Y-13599984D02*
X4520658Y-13609508D01*
X4520658Y-13609508D02*
X4530182Y-13619031D01*
X4530182Y-13619031D02*
X4539705Y-13638079D01*
X4539705Y-13638079D02*
X4549229Y-13676174D01*
X4549229Y-13676174D02*
X4549229Y-13723793D01*
X4549229Y-13723793D02*
X4539705Y-13761888D01*
X4539705Y-13761888D02*
X4530182Y-13780936D01*
X4530182Y-13780936D02*
X4520658Y-13790460D01*
X4520658Y-13790460D02*
X4501610Y-13799984D01*
X4501610Y-13799984D02*
X4482563Y-13799984D01*
X4482563Y-13799984D02*
X4463515Y-13790460D01*
X4463515Y-13790460D02*
X4453991Y-13780936D01*
X4453991Y-13780936D02*
X4444467Y-13761888D01*
X4444467Y-13761888D02*
X4434944Y-13723793D01*
X4434944Y-13723793D02*
X4434944Y-13676174D01*
X4434944Y-13676174D02*
X4444467Y-13638079D01*
X4444467Y-13638079D02*
X4453991Y-13619031D01*
X4453991Y-13619031D02*
X4463515Y-13609508D01*
X4463515Y-13609508D02*
X4482563Y-13599984D01*
X4673039Y-13599984D02*
X4692086Y-13599984D01*
X4692086Y-13599984D02*
X4711134Y-13609508D01*
X4711134Y-13609508D02*
X4720658Y-13619031D01*
X4720658Y-13619031D02*
X4730182Y-13638079D01*
X4730182Y-13638079D02*
X4739705Y-13676174D01*
X4739705Y-13676174D02*
X4739705Y-13723793D01*
X4739705Y-13723793D02*
X4730182Y-13761888D01*
X4730182Y-13761888D02*
X4720658Y-13780936D01*
X4720658Y-13780936D02*
X4711134Y-13790460D01*
X4711134Y-13790460D02*
X4692086Y-13799984D01*
X4692086Y-13799984D02*
X4673039Y-13799984D01*
X4673039Y-13799984D02*
X4653991Y-13790460D01*
X4653991Y-13790460D02*
X4644467Y-13780936D01*
X4644467Y-13780936D02*
X4634944Y-13761888D01*
X4634944Y-13761888D02*
X4625420Y-13723793D01*
X4625420Y-13723793D02*
X4625420Y-13676174D01*
X4625420Y-13676174D02*
X4634944Y-13638079D01*
X4634944Y-13638079D02*
X4644467Y-13619031D01*
X4644467Y-13619031D02*
X4653991Y-13609508D01*
X4653991Y-13609508D02*
X4673039Y-13599984D01*
X4825420Y-13799984D02*
X4825420Y-13666650D01*
X4825420Y-13685698D02*
X4834944Y-13676174D01*
X4834944Y-13676174D02*
X4853991Y-13666650D01*
X4853991Y-13666650D02*
X4882563Y-13666650D01*
X4882563Y-13666650D02*
X4901610Y-13676174D01*
X4901610Y-13676174D02*
X4911134Y-13695222D01*
X4911134Y-13695222D02*
X4911134Y-13799984D01*
X4911134Y-13695222D02*
X4920658Y-13676174D01*
X4920658Y-13676174D02*
X4939705Y-13666650D01*
X4939705Y-13666650D02*
X4968277Y-13666650D01*
X4968277Y-13666650D02*
X4987325Y-13676174D01*
X4987325Y-13676174D02*
X4996848Y-13695222D01*
X4996848Y-13695222D02*
X4996848Y-13799984D01*
X5092086Y-13799984D02*
X5092086Y-13666650D01*
X5092086Y-13685698D02*
X5101610Y-13676174D01*
X5101610Y-13676174D02*
X5120658Y-13666650D01*
X5120658Y-13666650D02*
X5149229Y-13666650D01*
X5149229Y-13666650D02*
X5168277Y-13676174D01*
X5168277Y-13676174D02*
X5177801Y-13695222D01*
X5177801Y-13695222D02*
X5177801Y-13799984D01*
X5177801Y-13695222D02*
X5187325Y-13676174D01*
X5187325Y-13676174D02*
X5206372Y-13666650D01*
X5206372Y-13666650D02*
X5234944Y-13666650D01*
X5234944Y-13666650D02*
X5253991Y-13676174D01*
X5253991Y-13676174D02*
X5263515Y-13695222D01*
X5263515Y-13695222D02*
X5263515Y-13799984D01*
X5653991Y-13590460D02*
X5482563Y-13847603D01*
X5911134Y-13599984D02*
X5930182Y-13599984D01*
X5930182Y-13599984D02*
X5949229Y-13609508D01*
X5949229Y-13609508D02*
X5958753Y-13619031D01*
X5958753Y-13619031D02*
X5968277Y-13638079D01*
X5968277Y-13638079D02*
X5977801Y-13676174D01*
X5977801Y-13676174D02*
X5977801Y-13723793D01*
X5977801Y-13723793D02*
X5968277Y-13761888D01*
X5968277Y-13761888D02*
X5958753Y-13780936D01*
X5958753Y-13780936D02*
X5949229Y-13790460D01*
X5949229Y-13790460D02*
X5930182Y-13799984D01*
X5930182Y-13799984D02*
X5911134Y-13799984D01*
X5911134Y-13799984D02*
X5892086Y-13790460D01*
X5892086Y-13790460D02*
X5882563Y-13780936D01*
X5882563Y-13780936D02*
X5873039Y-13761888D01*
X5873039Y-13761888D02*
X5863515Y-13723793D01*
X5863515Y-13723793D02*
X5863515Y-13676174D01*
X5863515Y-13676174D02*
X5873039Y-13638079D01*
X5873039Y-13638079D02*
X5882563Y-13619031D01*
X5882563Y-13619031D02*
X5892086Y-13609508D01*
X5892086Y-13609508D02*
X5911134Y-13599984D01*
X6063515Y-13780936D02*
X6073039Y-13790460D01*
X6073039Y-13790460D02*
X6063515Y-13799984D01*
X6063515Y-13799984D02*
X6053991Y-13790460D01*
X6053991Y-13790460D02*
X6063515Y-13780936D01*
X6063515Y-13780936D02*
X6063515Y-13799984D01*
X6196848Y-13599984D02*
X6215896Y-13599984D01*
X6215896Y-13599984D02*
X6234944Y-13609508D01*
X6234944Y-13609508D02*
X6244467Y-13619031D01*
X6244467Y-13619031D02*
X6253991Y-13638079D01*
X6253991Y-13638079D02*
X6263515Y-13676174D01*
X6263515Y-13676174D02*
X6263515Y-13723793D01*
X6263515Y-13723793D02*
X6253991Y-13761888D01*
X6253991Y-13761888D02*
X6244467Y-13780936D01*
X6244467Y-13780936D02*
X6234944Y-13790460D01*
X6234944Y-13790460D02*
X6215896Y-13799984D01*
X6215896Y-13799984D02*
X6196848Y-13799984D01*
X6196848Y-13799984D02*
X6177801Y-13790460D01*
X6177801Y-13790460D02*
X6168277Y-13780936D01*
X6168277Y-13780936D02*
X6158753Y-13761888D01*
X6158753Y-13761888D02*
X6149229Y-13723793D01*
X6149229Y-13723793D02*
X6149229Y-13676174D01*
X6149229Y-13676174D02*
X6158753Y-13638079D01*
X6158753Y-13638079D02*
X6168277Y-13619031D01*
X6168277Y-13619031D02*
X6177801Y-13609508D01*
X6177801Y-13609508D02*
X6196848Y-13599984D01*
X6444467Y-13599984D02*
X6349229Y-13599984D01*
X6349229Y-13599984D02*
X6339706Y-13695222D01*
X6339706Y-13695222D02*
X6349229Y-13685698D01*
X6349229Y-13685698D02*
X6368277Y-13676174D01*
X6368277Y-13676174D02*
X6415896Y-13676174D01*
X6415896Y-13676174D02*
X6434944Y-13685698D01*
X6434944Y-13685698D02*
X6444467Y-13695222D01*
X6444467Y-13695222D02*
X6453991Y-13714269D01*
X6453991Y-13714269D02*
X6453991Y-13761888D01*
X6453991Y-13761888D02*
X6444467Y-13780936D01*
X6444467Y-13780936D02*
X6434944Y-13790460D01*
X6434944Y-13790460D02*
X6415896Y-13799984D01*
X6415896Y-13799984D02*
X6368277Y-13799984D01*
X6368277Y-13799984D02*
X6349229Y-13790460D01*
X6349229Y-13790460D02*
X6339706Y-13780936D01*
X6644467Y-13799984D02*
X6530182Y-13799984D01*
X6587325Y-13799984D02*
X6587325Y-13599984D01*
X6587325Y-13599984D02*
X6568277Y-13628555D01*
X6568277Y-13628555D02*
X6549229Y-13647603D01*
X6549229Y-13647603D02*
X6530182Y-13657127D01*
X6720658Y-13619031D02*
X6730182Y-13609508D01*
X6730182Y-13609508D02*
X6749229Y-13599984D01*
X6749229Y-13599984D02*
X6796848Y-13599984D01*
X6796848Y-13599984D02*
X6815896Y-13609508D01*
X6815896Y-13609508D02*
X6825420Y-13619031D01*
X6825420Y-13619031D02*
X6834944Y-13638079D01*
X6834944Y-13638079D02*
X6834944Y-13657127D01*
X6834944Y-13657127D02*
X6825420Y-13685698D01*
X6825420Y-13685698D02*
X6711134Y-13799984D01*
X6711134Y-13799984D02*
X6834944Y-13799984D01*
X6911134Y-13599984D02*
X6911134Y-13638079D01*
X6987325Y-13599984D02*
X6987325Y-13638079D01*
X7282563Y-13876174D02*
X7273039Y-13866650D01*
X7273039Y-13866650D02*
X7253991Y-13838079D01*
X7253991Y-13838079D02*
X7244468Y-13819031D01*
X7244468Y-13819031D02*
X7234944Y-13790460D01*
X7234944Y-13790460D02*
X7225420Y-13742841D01*
X7225420Y-13742841D02*
X7225420Y-13704746D01*
X7225420Y-13704746D02*
X7234944Y-13657127D01*
X7234944Y-13657127D02*
X7244468Y-13628555D01*
X7244468Y-13628555D02*
X7253991Y-13609508D01*
X7253991Y-13609508D02*
X7273039Y-13580936D01*
X7273039Y-13580936D02*
X7282563Y-13571412D01*
X7349229Y-13619031D02*
X7358753Y-13609508D01*
X7358753Y-13609508D02*
X7377801Y-13599984D01*
X7377801Y-13599984D02*
X7425420Y-13599984D01*
X7425420Y-13599984D02*
X7444468Y-13609508D01*
X7444468Y-13609508D02*
X7453991Y-13619031D01*
X7453991Y-13619031D02*
X7463515Y-13638079D01*
X7463515Y-13638079D02*
X7463515Y-13657127D01*
X7463515Y-13657127D02*
X7453991Y-13685698D01*
X7453991Y-13685698D02*
X7339706Y-13799984D01*
X7339706Y-13799984D02*
X7463515Y-13799984D01*
X7701610Y-13799984D02*
X7701610Y-13599984D01*
X7787325Y-13799984D02*
X7787325Y-13695222D01*
X7787325Y-13695222D02*
X7777801Y-13676174D01*
X7777801Y-13676174D02*
X7758753Y-13666650D01*
X7758753Y-13666650D02*
X7730182Y-13666650D01*
X7730182Y-13666650D02*
X7711134Y-13676174D01*
X7711134Y-13676174D02*
X7701610Y-13685698D01*
X7911134Y-13799984D02*
X7892087Y-13790460D01*
X7892087Y-13790460D02*
X7882563Y-13780936D01*
X7882563Y-13780936D02*
X7873039Y-13761888D01*
X7873039Y-13761888D02*
X7873039Y-13704746D01*
X7873039Y-13704746D02*
X7882563Y-13685698D01*
X7882563Y-13685698D02*
X7892087Y-13676174D01*
X7892087Y-13676174D02*
X7911134Y-13666650D01*
X7911134Y-13666650D02*
X7939706Y-13666650D01*
X7939706Y-13666650D02*
X7958753Y-13676174D01*
X7958753Y-13676174D02*
X7968277Y-13685698D01*
X7968277Y-13685698D02*
X7977801Y-13704746D01*
X7977801Y-13704746D02*
X7977801Y-13761888D01*
X7977801Y-13761888D02*
X7968277Y-13780936D01*
X7968277Y-13780936D02*
X7958753Y-13790460D01*
X7958753Y-13790460D02*
X7939706Y-13799984D01*
X7939706Y-13799984D02*
X7911134Y-13799984D01*
X8092087Y-13799984D02*
X8073039Y-13790460D01*
X8073039Y-13790460D02*
X8063515Y-13771412D01*
X8063515Y-13771412D02*
X8063515Y-13599984D01*
X8244468Y-13790460D02*
X8225420Y-13799984D01*
X8225420Y-13799984D02*
X8187325Y-13799984D01*
X8187325Y-13799984D02*
X8168277Y-13790460D01*
X8168277Y-13790460D02*
X8158753Y-13771412D01*
X8158753Y-13771412D02*
X8158753Y-13695222D01*
X8158753Y-13695222D02*
X8168277Y-13676174D01*
X8168277Y-13676174D02*
X8187325Y-13666650D01*
X8187325Y-13666650D02*
X8225420Y-13666650D01*
X8225420Y-13666650D02*
X8244468Y-13676174D01*
X8244468Y-13676174D02*
X8253991Y-13695222D01*
X8253991Y-13695222D02*
X8253991Y-13714269D01*
X8253991Y-13714269D02*
X8158753Y-13733317D01*
X8330182Y-13790460D02*
X8349230Y-13799984D01*
X8349230Y-13799984D02*
X8387325Y-13799984D01*
X8387325Y-13799984D02*
X8406373Y-13790460D01*
X8406373Y-13790460D02*
X8415896Y-13771412D01*
X8415896Y-13771412D02*
X8415896Y-13761888D01*
X8415896Y-13761888D02*
X8406373Y-13742841D01*
X8406373Y-13742841D02*
X8387325Y-13733317D01*
X8387325Y-13733317D02*
X8358753Y-13733317D01*
X8358753Y-13733317D02*
X8339706Y-13723793D01*
X8339706Y-13723793D02*
X8330182Y-13704746D01*
X8330182Y-13704746D02*
X8330182Y-13695222D01*
X8330182Y-13695222D02*
X8339706Y-13676174D01*
X8339706Y-13676174D02*
X8358753Y-13666650D01*
X8358753Y-13666650D02*
X8387325Y-13666650D01*
X8387325Y-13666650D02*
X8406373Y-13676174D01*
X8482563Y-13876174D02*
X8492087Y-13866650D01*
X8492087Y-13866650D02*
X8511134Y-13838079D01*
X8511134Y-13838079D02*
X8520658Y-13819031D01*
X8520658Y-13819031D02*
X8530182Y-13790460D01*
X8530182Y-13790460D02*
X8539706Y-13742841D01*
X8539706Y-13742841D02*
X8539706Y-13704746D01*
X8539706Y-13704746D02*
X8530182Y-13657127D01*
X8530182Y-13657127D02*
X8520658Y-13628555D01*
X8520658Y-13628555D02*
X8511134Y-13609508D01*
X8511134Y-13609508D02*
X8492087Y-13580936D01*
X8492087Y-13580936D02*
X8482563Y-13571412D01*
M02*
