%TF.GenerationSoftware,KiCad,Pcbnew,8.0.8*%
%TF.CreationDate,2025-04-20T19:53:29+05:30*%
%TF.ProjectId,bandara_ckt_pcb_naveen,62616e64-6172-4615-9f63-6b745f706362,v1*%
%TF.SameCoordinates,Original*%
%TF.FileFunction,Soldermask,Bot*%
%TF.FilePolarity,Negative*%
%FSLAX46Y46*%
G04 Gerber Fmt 4.6, Leading zero omitted, Abs format (unit mm)*
G04 Created by KiCad (PCBNEW 8.0.8) date 2025-04-20 19:53:29*
%MOMM*%
%LPD*%
G01*
G04 APERTURE LIST*
G04 Aperture macros list*
%AMRoundRect*
0 Rectangle with rounded corners*
0 $1 Rounding radius*
0 $2 $3 $4 $5 $6 $7 $8 $9 X,Y pos of 4 corners*
0 Add a 4 corners polygon primitive as box body*
4,1,4,$2,$3,$4,$5,$6,$7,$8,$9,$2,$3,0*
0 Add four circle primitives for the rounded corners*
1,1,$1+$1,$2,$3*
1,1,$1+$1,$4,$5*
1,1,$1+$1,$6,$7*
1,1,$1+$1,$8,$9*
0 Add four rect primitives between the rounded corners*
20,1,$1+$1,$2,$3,$4,$5,0*
20,1,$1+$1,$4,$5,$6,$7,0*
20,1,$1+$1,$6,$7,$8,$9,0*
20,1,$1+$1,$8,$9,$2,$3,0*%
G04 Aperture macros list end*
%ADD10C,2.000000*%
%ADD11R,1.600000X1.600000*%
%ADD12O,1.600000X1.600000*%
%ADD13R,1.524000X1.524000*%
%ADD14C,1.524000*%
%ADD15C,1.600000*%
%ADD16RoundRect,0.102000X-0.975000X-0.975000X0.975000X-0.975000X0.975000X0.975000X-0.975000X0.975000X0*%
%ADD17C,2.154000*%
G04 APERTURE END LIST*
D10*
%TO.C,TP14*%
X128600000Y-76600000D03*
%TD*%
%TO.C,TP12*%
X127300000Y-58500000D03*
%TD*%
%TO.C,TP4*%
X82700000Y-51800000D03*
%TD*%
%TO.C,TP2*%
X75000000Y-57200000D03*
%TD*%
%TO.C,TP9*%
X103500000Y-48900000D03*
%TD*%
%TO.C,TP8*%
X109400000Y-51900000D03*
%TD*%
%TO.C,TP7*%
X117500000Y-110600000D03*
%TD*%
%TO.C,TP6*%
X88600000Y-54200000D03*
%TD*%
%TO.C,TP3*%
X71300000Y-57300000D03*
%TD*%
%TO.C,TP16*%
X122200000Y-85500000D03*
%TD*%
D11*
%TO.C,A1*%
X74790000Y-62170000D03*
D12*
X77330000Y-62170000D03*
X79870000Y-62170000D03*
X82410000Y-62170000D03*
X84950000Y-62170000D03*
X87490000Y-62170000D03*
X90030000Y-62170000D03*
X92570000Y-62170000D03*
X97650000Y-62170000D03*
X100190000Y-62170000D03*
X102730000Y-62170000D03*
X105270000Y-62170000D03*
X107810000Y-62170000D03*
X110350000Y-62170000D03*
X110350000Y-110430000D03*
X107810000Y-110430000D03*
X105270000Y-110430000D03*
X102730000Y-110430000D03*
X100190000Y-110430000D03*
X97650000Y-110430000D03*
X95110000Y-110430000D03*
X92570000Y-110430000D03*
X88510000Y-110430000D03*
X85970000Y-110430000D03*
X83430000Y-110430000D03*
X80890000Y-110430000D03*
X78350000Y-110430000D03*
X75810000Y-110430000D03*
X73270000Y-110430000D03*
X70730000Y-110430000D03*
X68190000Y-110430000D03*
X65650000Y-110430000D03*
%TD*%
D10*
%TO.C,TP15*%
X125100000Y-76500000D03*
%TD*%
%TO.C,TP13*%
X122000000Y-60600000D03*
%TD*%
%TO.C,TP5*%
X71200000Y-52300000D03*
%TD*%
D13*
%TO.C,U6*%
X129410000Y-88390000D03*
D14*
X126870000Y-88390000D03*
X124330000Y-88390000D03*
X121790000Y-88390000D03*
X121790000Y-96010000D03*
X124330000Y-96010000D03*
X126870000Y-96010000D03*
X129410000Y-96010000D03*
%TD*%
D10*
%TO.C,TP11*%
X51900000Y-46300000D03*
%TD*%
%TO.C,TP10*%
X44500000Y-59300000D03*
%TD*%
%TO.C,TP17*%
X127400000Y-99000000D03*
%TD*%
D15*
%TO.C,C8*%
X48600000Y-55050000D03*
X48600000Y-51550000D03*
%TD*%
D13*
%TO.C,U3*%
X92390000Y-46390000D03*
D14*
X92390000Y-48930000D03*
X92390000Y-51470000D03*
X92390000Y-54010000D03*
X100010000Y-54010000D03*
X100010000Y-51470000D03*
X100010000Y-48930000D03*
X100010000Y-46390000D03*
%TD*%
D10*
%TO.C,TP18*%
X124100000Y-99100000D03*
%TD*%
D13*
%TO.C,U5*%
X130110000Y-65090000D03*
D14*
X127570000Y-65090000D03*
X125030000Y-65090000D03*
X122490000Y-65090000D03*
X122490000Y-72710000D03*
X125030000Y-72710000D03*
X127570000Y-72710000D03*
X130110000Y-72710000D03*
%TD*%
D16*
%TO.C,J1*%
X118152500Y-50300000D03*
D17*
X123152500Y-50300000D03*
%TD*%
D10*
%TO.C,TP1*%
X78500000Y-57200000D03*
%TD*%
M02*
