%TF.GenerationSoftware,KiCad,Pcbnew,8.0.8*%
%TF.CreationDate,2025-03-06T15:40:06+05:30*%
%TF.ProjectId,bandara_ckt_pcb_naveen,62616e64-6172-4615-9f63-6b745f706362,v1*%
%TF.SameCoordinates,Original*%
%TF.FileFunction,Drillmap*%
%TF.FilePolarity,Positive*%
%FSLAX45Y45*%
G04 Gerber Fmt 4.5, Leading zero omitted, Abs format (unit mm)*
G04 Created by KiCad (PCBNEW 8.0.8) date 2025-03-06 15:40:06*
%MOMM*%
%LPD*%
G01*
G04 APERTURE LIST*
%ADD10C,0.050000*%
%ADD11C,0.200000*%
G04 APERTURE END LIST*
D10*
X4150000Y-3800000D02*
X14400000Y-3800000D01*
X14400000Y-12800000D01*
X4150000Y-12800000D01*
X4150000Y-3800000D01*
D11*
X4408277Y-13113984D02*
X4408277Y-12913984D01*
X4408277Y-12913984D02*
X4455896Y-12913984D01*
X4455896Y-12913984D02*
X4484467Y-12923508D01*
X4484467Y-12923508D02*
X4503515Y-12942555D01*
X4503515Y-12942555D02*
X4513039Y-12961603D01*
X4513039Y-12961603D02*
X4522563Y-12999698D01*
X4522563Y-12999698D02*
X4522563Y-13028269D01*
X4522563Y-13028269D02*
X4513039Y-13066365D01*
X4513039Y-13066365D02*
X4503515Y-13085412D01*
X4503515Y-13085412D02*
X4484467Y-13104460D01*
X4484467Y-13104460D02*
X4455896Y-13113984D01*
X4455896Y-13113984D02*
X4408277Y-13113984D01*
X4608277Y-13113984D02*
X4608277Y-12980650D01*
X4608277Y-13018746D02*
X4617801Y-12999698D01*
X4617801Y-12999698D02*
X4627324Y-12990174D01*
X4627324Y-12990174D02*
X4646372Y-12980650D01*
X4646372Y-12980650D02*
X4665420Y-12980650D01*
X4732086Y-13113984D02*
X4732086Y-12980650D01*
X4732086Y-12913984D02*
X4722563Y-12923508D01*
X4722563Y-12923508D02*
X4732086Y-12933031D01*
X4732086Y-12933031D02*
X4741610Y-12923508D01*
X4741610Y-12923508D02*
X4732086Y-12913984D01*
X4732086Y-12913984D02*
X4732086Y-12933031D01*
X4855896Y-13113984D02*
X4836848Y-13104460D01*
X4836848Y-13104460D02*
X4827324Y-13085412D01*
X4827324Y-13085412D02*
X4827324Y-12913984D01*
X4960658Y-13113984D02*
X4941610Y-13104460D01*
X4941610Y-13104460D02*
X4932086Y-13085412D01*
X4932086Y-13085412D02*
X4932086Y-12913984D01*
X5189229Y-13113984D02*
X5189229Y-12913984D01*
X5189229Y-12913984D02*
X5255896Y-13056841D01*
X5255896Y-13056841D02*
X5322563Y-12913984D01*
X5322563Y-12913984D02*
X5322563Y-13113984D01*
X5503515Y-13113984D02*
X5503515Y-13009222D01*
X5503515Y-13009222D02*
X5493991Y-12990174D01*
X5493991Y-12990174D02*
X5474944Y-12980650D01*
X5474944Y-12980650D02*
X5436848Y-12980650D01*
X5436848Y-12980650D02*
X5417801Y-12990174D01*
X5503515Y-13104460D02*
X5484467Y-13113984D01*
X5484467Y-13113984D02*
X5436848Y-13113984D01*
X5436848Y-13113984D02*
X5417801Y-13104460D01*
X5417801Y-13104460D02*
X5408277Y-13085412D01*
X5408277Y-13085412D02*
X5408277Y-13066365D01*
X5408277Y-13066365D02*
X5417801Y-13047317D01*
X5417801Y-13047317D02*
X5436848Y-13037793D01*
X5436848Y-13037793D02*
X5484467Y-13037793D01*
X5484467Y-13037793D02*
X5503515Y-13028269D01*
X5598753Y-12980650D02*
X5598753Y-13180650D01*
X5598753Y-12990174D02*
X5617801Y-12980650D01*
X5617801Y-12980650D02*
X5655896Y-12980650D01*
X5655896Y-12980650D02*
X5674943Y-12990174D01*
X5674943Y-12990174D02*
X5684467Y-12999698D01*
X5684467Y-12999698D02*
X5693991Y-13018746D01*
X5693991Y-13018746D02*
X5693991Y-13075888D01*
X5693991Y-13075888D02*
X5684467Y-13094936D01*
X5684467Y-13094936D02*
X5674943Y-13104460D01*
X5674943Y-13104460D02*
X5655896Y-13113984D01*
X5655896Y-13113984D02*
X5617801Y-13113984D01*
X5617801Y-13113984D02*
X5598753Y-13104460D01*
X5779705Y-13094936D02*
X5789229Y-13104460D01*
X5789229Y-13104460D02*
X5779705Y-13113984D01*
X5779705Y-13113984D02*
X5770182Y-13104460D01*
X5770182Y-13104460D02*
X5779705Y-13094936D01*
X5779705Y-13094936D02*
X5779705Y-13113984D01*
X5779705Y-12990174D02*
X5789229Y-12999698D01*
X5789229Y-12999698D02*
X5779705Y-13009222D01*
X5779705Y-13009222D02*
X5770182Y-12999698D01*
X5770182Y-12999698D02*
X5779705Y-12990174D01*
X5779705Y-12990174D02*
X5779705Y-13009222D01*
M02*
