%TF.GenerationSoftware,KiCad,Pcbnew,8.0.8*%
%TF.CreationDate,2025-04-18T15:34:03+05:30*%
%TF.ProjectId,bandara_ckt_pcb_naveen,62616e64-6172-4615-9f63-6b745f706362,v1*%
%TF.SameCoordinates,Original*%
%TF.FileFunction,Drillmap*%
%TF.FilePolarity,Positive*%
%FSLAX45Y45*%
G04 Gerber Fmt 4.5, Leading zero omitted, Abs format (unit mm)*
G04 Created by KiCad (PCBNEW 8.0.8) date 2025-04-18 15:34:03*
%MOMM*%
%LPD*%
G01*
G04 APERTURE LIST*
%ADD10C,0.050000*%
%ADD11C,0.200000*%
%ADD12C,0.100000*%
%ADD13C,0.130000*%
G04 APERTURE END LIST*
D10*
X4000000Y-5240000D02*
X13880000Y-5240000D01*
X13880000Y-13100000D01*
X4000000Y-13100000D01*
X4000000Y-5240000D01*
D11*
D12*
X6585000Y-6625000D02*
X6615000Y-6655000D01*
X6615000Y-6625000D02*
X6585000Y-6655000D01*
X7625000Y-6625000D02*
X7655000Y-6655000D01*
X7655000Y-6625000D02*
X7625000Y-6655000D01*
X8025000Y-6765000D02*
X8055000Y-6795000D01*
X8055000Y-6765000D02*
X8025000Y-6795000D01*
X8465000Y-6845000D02*
X8495000Y-6875000D01*
X8495000Y-6845000D02*
X8465000Y-6875000D01*
X8485000Y-6685000D02*
X8515000Y-6715000D01*
X8515000Y-6685000D02*
X8485000Y-6715000D01*
X8565000Y-6142500D02*
X8595000Y-6172500D01*
X8595000Y-6142500D02*
X8565000Y-6172500D01*
X8585000Y-5805000D02*
X8615000Y-5835000D01*
X8615000Y-5805000D02*
X8585000Y-5835000D01*
X8585000Y-5965000D02*
X8615000Y-5995000D01*
X8615000Y-5965000D02*
X8585000Y-5995000D01*
X8643750Y-6423750D02*
X8673750Y-6453750D01*
X8673750Y-6423750D02*
X8643750Y-6453750D01*
X8905000Y-6045000D02*
X8935000Y-6075000D01*
X8935000Y-6045000D02*
X8905000Y-6075000D01*
X8985000Y-6365000D02*
X9015000Y-6395000D01*
X9015000Y-6365000D02*
X8985000Y-6395000D01*
X9205000Y-6925000D02*
X9235000Y-6955000D01*
X9235000Y-6925000D02*
X9205000Y-6955000D01*
X9385000Y-6345000D02*
X9415000Y-6375000D01*
X9415000Y-6345000D02*
X9385000Y-6375000D01*
X9985000Y-7145000D02*
X10015000Y-7175000D01*
X10015000Y-7145000D02*
X9985000Y-7175000D01*
X10765000Y-6045000D02*
X10795000Y-6075000D01*
X10795000Y-6045000D02*
X10765000Y-6075000D01*
X11725000Y-11785000D02*
X11755000Y-11815000D01*
X11755000Y-11785000D02*
X11725000Y-11815000D01*
X12145000Y-11625000D02*
X12175000Y-11655000D01*
X12175000Y-11625000D02*
X12145000Y-11655000D01*
X12205000Y-9165000D02*
X12235000Y-9195000D01*
X12235000Y-9165000D02*
X12205000Y-9195000D01*
X12325000Y-11545000D02*
X12355000Y-11575000D01*
X12355000Y-11545000D02*
X12325000Y-11575000D01*
X12525000Y-11885000D02*
X12555000Y-11915000D01*
X12555000Y-11885000D02*
X12525000Y-11915000D01*
X12565000Y-7405000D02*
X12595000Y-7435000D01*
X12595000Y-7405000D02*
X12565000Y-7435000D01*
X12585000Y-12105000D02*
X12615000Y-12135000D01*
X12615000Y-12105000D02*
X12585000Y-12135000D01*
X12645000Y-12745000D02*
X12675000Y-12775000D01*
X12675000Y-12745000D02*
X12645000Y-12775000D01*
X12725000Y-9505000D02*
X12755000Y-9535000D01*
X12755000Y-9505000D02*
X12725000Y-9535000D01*
X12744663Y-12304663D02*
X12774663Y-12334663D01*
X12774663Y-12304663D02*
X12744663Y-12334663D01*
X12952500Y-11905000D02*
X12982500Y-11935000D01*
X12982500Y-11905000D02*
X12952500Y-11935000D01*
X13345000Y-8325000D02*
X13375000Y-8355000D01*
X13375000Y-8325000D02*
X13345000Y-8355000D01*
X13425000Y-8785000D02*
X13455000Y-8815000D01*
X13455000Y-8785000D02*
X13425000Y-8815000D01*
X13505000Y-10785000D02*
X13535000Y-10815000D01*
X13535000Y-10785000D02*
X13505000Y-10815000D01*
X5140000Y-6650000D02*
G75*
G02*
X5060000Y-6650000I-40000J0D01*
G01*
X5060000Y-6650000D02*
G75*
G02*
X5140000Y-6650000I40000J0D01*
G01*
X5140000Y-7000000D02*
G75*
G02*
X5060000Y-7000000I-40000J0D01*
G01*
X5060000Y-7000000D02*
G75*
G02*
X5140000Y-7000000I40000J0D01*
G01*
X9188000Y-5859360D02*
X9188000Y-5940640D01*
X9147360Y-5900000D02*
X9228640Y-5900000D01*
X9188000Y-6113360D02*
X9188000Y-6194640D01*
X9147360Y-6154000D02*
X9228640Y-6154000D01*
X9188000Y-6367360D02*
X9188000Y-6448640D01*
X9147360Y-6408000D02*
X9228640Y-6408000D01*
X9188000Y-6621360D02*
X9188000Y-6702640D01*
X9147360Y-6662000D02*
X9228640Y-6662000D01*
X9950000Y-5859360D02*
X9950000Y-5940640D01*
X9909360Y-5900000D02*
X9990640Y-5900000D01*
X9950000Y-6113360D02*
X9950000Y-6194640D01*
X9909360Y-6154000D02*
X9990640Y-6154000D01*
X9950000Y-6367360D02*
X9950000Y-6448640D01*
X9909360Y-6408000D02*
X9990640Y-6408000D01*
X9950000Y-6621360D02*
X9950000Y-6702640D01*
X9909360Y-6662000D02*
X9990640Y-6662000D01*
X12469000Y-7228360D02*
X12469000Y-7309640D01*
X12428360Y-7269000D02*
X12509640Y-7269000D01*
X12469000Y-7990360D02*
X12469000Y-8071640D01*
X12428360Y-8031000D02*
X12509640Y-8031000D01*
X12519000Y-9778360D02*
X12519000Y-9859640D01*
X12478360Y-9819000D02*
X12559640Y-9819000D01*
X12519000Y-10540360D02*
X12519000Y-10621640D01*
X12478360Y-10581000D02*
X12559640Y-10581000D01*
X12723000Y-7228360D02*
X12723000Y-7309640D01*
X12682360Y-7269000D02*
X12763640Y-7269000D01*
X12723000Y-7990360D02*
X12723000Y-8071640D01*
X12682360Y-8031000D02*
X12763640Y-8031000D01*
X12773000Y-9778360D02*
X12773000Y-9859640D01*
X12732360Y-9819000D02*
X12813640Y-9819000D01*
X12773000Y-10540360D02*
X12773000Y-10621640D01*
X12732360Y-10581000D02*
X12813640Y-10581000D01*
X12977000Y-7228360D02*
X12977000Y-7309640D01*
X12936360Y-7269000D02*
X13017640Y-7269000D01*
X12977000Y-7990360D02*
X12977000Y-8071640D01*
X12936360Y-8031000D02*
X13017640Y-8031000D01*
X13027000Y-9778360D02*
X13027000Y-9859640D01*
X12986360Y-9819000D02*
X13067640Y-9819000D01*
X13027000Y-10540360D02*
X13027000Y-10621640D01*
X12986360Y-10581000D02*
X13067640Y-10581000D01*
X13231000Y-7228360D02*
X13231000Y-7309640D01*
X13190360Y-7269000D02*
X13271640Y-7269000D01*
X13231000Y-7990360D02*
X13231000Y-8071640D01*
X13190360Y-8031000D02*
X13271640Y-8031000D01*
X13281000Y-9778360D02*
X13281000Y-9859640D01*
X13240360Y-9819000D02*
X13321640Y-9819000D01*
X13281000Y-10540360D02*
X13281000Y-10621640D01*
X13240360Y-10581000D02*
X13321640Y-10581000D01*
X5535356Y-5855356D02*
X5535356Y-5784644D01*
X5464644Y-5784644D01*
X5464644Y-5855356D01*
X5535356Y-5855356D01*
X5555356Y-6295356D02*
X5555356Y-6224644D01*
X5484644Y-6224644D01*
X5484644Y-6295356D01*
X5555356Y-6295356D01*
X6953856Y-12498356D02*
X6953856Y-12427644D01*
X6883144Y-12427644D01*
X6883144Y-12498356D01*
X6953856Y-12498356D01*
X7207856Y-12498356D02*
X7207856Y-12427644D01*
X7137144Y-12427644D01*
X7137144Y-12498356D01*
X7207856Y-12498356D01*
X7435356Y-6915356D02*
X7435356Y-6844644D01*
X7364644Y-6844644D01*
X7364644Y-6915356D01*
X7435356Y-6915356D01*
X7461856Y-12498356D02*
X7461856Y-12427644D01*
X7391144Y-12427644D01*
X7391144Y-12498356D01*
X7461856Y-12498356D01*
X7485356Y-5785356D02*
X7485356Y-5714644D01*
X7414644Y-5714644D01*
X7414644Y-5785356D01*
X7485356Y-5785356D01*
X7715856Y-12498356D02*
X7715856Y-12427644D01*
X7645144Y-12427644D01*
X7645144Y-12498356D01*
X7715856Y-12498356D01*
X7867856Y-7672356D02*
X7867856Y-7601644D01*
X7797144Y-7601644D01*
X7797144Y-7672356D01*
X7867856Y-7672356D01*
X7969856Y-12498356D02*
X7969856Y-12427644D01*
X7899144Y-12427644D01*
X7899144Y-12498356D01*
X7969856Y-12498356D01*
X8055356Y-7195356D02*
X8055356Y-7124644D01*
X7984644Y-7124644D01*
X7984644Y-7195356D01*
X8055356Y-7195356D01*
X8121856Y-7672356D02*
X8121856Y-7601644D01*
X8051144Y-7601644D01*
X8051144Y-7672356D01*
X8121856Y-7672356D01*
X8223856Y-12498356D02*
X8223856Y-12427644D01*
X8153144Y-12427644D01*
X8153144Y-12498356D01*
X8223856Y-12498356D01*
X8375856Y-7672356D02*
X8375856Y-7601644D01*
X8305144Y-7601644D01*
X8305144Y-7672356D01*
X8375856Y-7672356D01*
X8477856Y-12498356D02*
X8477856Y-12427644D01*
X8407144Y-12427644D01*
X8407144Y-12498356D01*
X8477856Y-12498356D01*
X8629856Y-7672356D02*
X8629856Y-7601644D01*
X8559144Y-7601644D01*
X8559144Y-7672356D01*
X8629856Y-7672356D01*
X8695356Y-7215356D02*
X8695356Y-7144644D01*
X8624644Y-7144644D01*
X8624644Y-7215356D01*
X8695356Y-7215356D01*
X8731856Y-12498356D02*
X8731856Y-12427644D01*
X8661144Y-12427644D01*
X8661144Y-12498356D01*
X8731856Y-12498356D01*
X8785356Y-6785356D02*
X8785356Y-6714644D01*
X8714644Y-6714644D01*
X8714644Y-6785356D01*
X8785356Y-6785356D01*
X8883856Y-7672356D02*
X8883856Y-7601644D01*
X8813144Y-7601644D01*
X8813144Y-7672356D01*
X8883856Y-7672356D01*
X8985856Y-12498356D02*
X8985856Y-12427644D01*
X8915144Y-12427644D01*
X8915144Y-12498356D01*
X8985856Y-12498356D01*
X9035356Y-7215356D02*
X9035356Y-7144644D01*
X8964644Y-7144644D01*
X8964644Y-7215356D01*
X9035356Y-7215356D01*
X9137856Y-7672356D02*
X9137856Y-7601644D01*
X9067144Y-7601644D01*
X9067144Y-7672356D01*
X9137856Y-7672356D01*
X9239856Y-12498356D02*
X9239856Y-12427644D01*
X9169144Y-12427644D01*
X9169144Y-12498356D01*
X9239856Y-12498356D01*
X9391856Y-7672356D02*
X9391856Y-7601644D01*
X9321144Y-7601644D01*
X9321144Y-7672356D01*
X9391856Y-7672356D01*
X9645856Y-7672356D02*
X9645856Y-7601644D01*
X9575144Y-7601644D01*
X9575144Y-7672356D01*
X9645856Y-7672356D01*
X9645856Y-12498356D02*
X9645856Y-12427644D01*
X9575144Y-12427644D01*
X9575144Y-12498356D01*
X9645856Y-12498356D01*
X9899856Y-12498356D02*
X9899856Y-12427644D01*
X9829144Y-12427644D01*
X9829144Y-12498356D01*
X9899856Y-12498356D01*
X10153856Y-7672356D02*
X10153856Y-7601644D01*
X10083144Y-7601644D01*
X10083144Y-7672356D01*
X10153856Y-7672356D01*
X10153856Y-12498356D02*
X10153856Y-12427644D01*
X10083144Y-12427644D01*
X10083144Y-12498356D01*
X10153856Y-12498356D01*
X10335356Y-5985356D02*
X10335356Y-5914644D01*
X10264644Y-5914644D01*
X10264644Y-5985356D01*
X10335356Y-5985356D01*
X10335356Y-6485356D02*
X10335356Y-6414644D01*
X10264644Y-6414644D01*
X10264644Y-6485356D01*
X10335356Y-6485356D01*
X10407856Y-7672356D02*
X10407856Y-7601644D01*
X10337144Y-7601644D01*
X10337144Y-7672356D01*
X10407856Y-7672356D01*
X10407856Y-12498356D02*
X10407856Y-12427644D01*
X10337144Y-12427644D01*
X10337144Y-12498356D01*
X10407856Y-12498356D01*
X10661856Y-7672356D02*
X10661856Y-7601644D01*
X10591144Y-7601644D01*
X10591144Y-7672356D01*
X10661856Y-7672356D01*
X10661856Y-12498356D02*
X10661856Y-12427644D01*
X10591144Y-12427644D01*
X10591144Y-12498356D01*
X10661856Y-12498356D01*
X10915856Y-7672356D02*
X10915856Y-7601644D01*
X10845144Y-7601644D01*
X10845144Y-7672356D01*
X10915856Y-7672356D01*
X10915856Y-12498356D02*
X10915856Y-12427644D01*
X10845144Y-12427644D01*
X10845144Y-12498356D01*
X10915856Y-12498356D01*
X11169856Y-7672356D02*
X11169856Y-7601644D01*
X11099144Y-7601644D01*
X11099144Y-7672356D01*
X11169856Y-7672356D01*
X11169856Y-12498356D02*
X11169856Y-12427644D01*
X11099144Y-12427644D01*
X11099144Y-12498356D01*
X11169856Y-12498356D01*
X11423856Y-7672356D02*
X11423856Y-7601644D01*
X11353144Y-7601644D01*
X11353144Y-7672356D01*
X11423856Y-7672356D01*
X11423856Y-12498356D02*
X11423856Y-12427644D01*
X11353144Y-12427644D01*
X11353144Y-12498356D01*
X11423856Y-12498356D01*
X11935356Y-11985356D02*
X11935356Y-11914644D01*
X11864644Y-11914644D01*
X11864644Y-11985356D01*
X11935356Y-11985356D01*
X12485356Y-6585356D02*
X12485356Y-6514644D01*
X12414644Y-6514644D01*
X12414644Y-6585356D01*
X12485356Y-6585356D01*
X12535356Y-9085356D02*
X12535356Y-9014644D01*
X12464644Y-9014644D01*
X12464644Y-9085356D01*
X12535356Y-9085356D01*
X12585356Y-8485356D02*
X12585356Y-8414644D01*
X12514644Y-8414644D01*
X12514644Y-8485356D01*
X12585356Y-8485356D01*
X12685356Y-10935356D02*
X12685356Y-10864644D01*
X12614644Y-10864644D01*
X12614644Y-10935356D01*
X12685356Y-10935356D01*
X13035356Y-6885356D02*
X13035356Y-6814644D01*
X12964644Y-6814644D01*
X12964644Y-6885356D01*
X13035356Y-6885356D01*
X13035356Y-8785356D02*
X13035356Y-8714644D01*
X12964644Y-8714644D01*
X12964644Y-8785356D01*
X13035356Y-8785356D01*
X13135356Y-11385356D02*
X13135356Y-11314644D01*
X13064644Y-11314644D01*
X13064644Y-11385356D01*
X13135356Y-11385356D01*
D13*
X11150000Y-6265000D02*
X11215000Y-6200000D01*
X11150000Y-6135000D01*
X11085000Y-6200000D01*
X11150000Y-6265000D01*
X11650000Y-6265000D02*
X11715000Y-6200000D01*
X11650000Y-6135000D01*
X11585000Y-6200000D01*
X11650000Y-6265000D01*
D11*
X4258277Y-13413984D02*
X4258277Y-13213984D01*
X4258277Y-13213984D02*
X4305896Y-13213984D01*
X4305896Y-13213984D02*
X4334467Y-13223508D01*
X4334467Y-13223508D02*
X4353515Y-13242555D01*
X4353515Y-13242555D02*
X4363039Y-13261603D01*
X4363039Y-13261603D02*
X4372563Y-13299698D01*
X4372563Y-13299698D02*
X4372563Y-13328269D01*
X4372563Y-13328269D02*
X4363039Y-13366365D01*
X4363039Y-13366365D02*
X4353515Y-13385412D01*
X4353515Y-13385412D02*
X4334467Y-13404460D01*
X4334467Y-13404460D02*
X4305896Y-13413984D01*
X4305896Y-13413984D02*
X4258277Y-13413984D01*
X4458277Y-13413984D02*
X4458277Y-13280650D01*
X4458277Y-13318746D02*
X4467801Y-13299698D01*
X4467801Y-13299698D02*
X4477324Y-13290174D01*
X4477324Y-13290174D02*
X4496372Y-13280650D01*
X4496372Y-13280650D02*
X4515420Y-13280650D01*
X4582086Y-13413984D02*
X4582086Y-13280650D01*
X4582086Y-13213984D02*
X4572563Y-13223508D01*
X4572563Y-13223508D02*
X4582086Y-13233031D01*
X4582086Y-13233031D02*
X4591610Y-13223508D01*
X4591610Y-13223508D02*
X4582086Y-13213984D01*
X4582086Y-13213984D02*
X4582086Y-13233031D01*
X4705896Y-13413984D02*
X4686848Y-13404460D01*
X4686848Y-13404460D02*
X4677324Y-13385412D01*
X4677324Y-13385412D02*
X4677324Y-13213984D01*
X4810658Y-13413984D02*
X4791610Y-13404460D01*
X4791610Y-13404460D02*
X4782086Y-13385412D01*
X4782086Y-13385412D02*
X4782086Y-13213984D01*
X5039229Y-13413984D02*
X5039229Y-13213984D01*
X5039229Y-13213984D02*
X5105896Y-13356841D01*
X5105896Y-13356841D02*
X5172563Y-13213984D01*
X5172563Y-13213984D02*
X5172563Y-13413984D01*
X5353515Y-13413984D02*
X5353515Y-13309222D01*
X5353515Y-13309222D02*
X5343991Y-13290174D01*
X5343991Y-13290174D02*
X5324944Y-13280650D01*
X5324944Y-13280650D02*
X5286848Y-13280650D01*
X5286848Y-13280650D02*
X5267801Y-13290174D01*
X5353515Y-13404460D02*
X5334467Y-13413984D01*
X5334467Y-13413984D02*
X5286848Y-13413984D01*
X5286848Y-13413984D02*
X5267801Y-13404460D01*
X5267801Y-13404460D02*
X5258277Y-13385412D01*
X5258277Y-13385412D02*
X5258277Y-13366365D01*
X5258277Y-13366365D02*
X5267801Y-13347317D01*
X5267801Y-13347317D02*
X5286848Y-13337793D01*
X5286848Y-13337793D02*
X5334467Y-13337793D01*
X5334467Y-13337793D02*
X5353515Y-13328269D01*
X5448753Y-13280650D02*
X5448753Y-13480650D01*
X5448753Y-13290174D02*
X5467801Y-13280650D01*
X5467801Y-13280650D02*
X5505896Y-13280650D01*
X5505896Y-13280650D02*
X5524944Y-13290174D01*
X5524944Y-13290174D02*
X5534467Y-13299698D01*
X5534467Y-13299698D02*
X5543991Y-13318746D01*
X5543991Y-13318746D02*
X5543991Y-13375888D01*
X5543991Y-13375888D02*
X5534467Y-13394936D01*
X5534467Y-13394936D02*
X5524944Y-13404460D01*
X5524944Y-13404460D02*
X5505896Y-13413984D01*
X5505896Y-13413984D02*
X5467801Y-13413984D01*
X5467801Y-13413984D02*
X5448753Y-13404460D01*
X5629705Y-13394936D02*
X5639229Y-13404460D01*
X5639229Y-13404460D02*
X5629705Y-13413984D01*
X5629705Y-13413984D02*
X5620182Y-13404460D01*
X5620182Y-13404460D02*
X5629705Y-13394936D01*
X5629705Y-13394936D02*
X5629705Y-13413984D01*
X5629705Y-13290174D02*
X5639229Y-13299698D01*
X5639229Y-13299698D02*
X5629705Y-13309222D01*
X5629705Y-13309222D02*
X5620182Y-13299698D01*
X5620182Y-13299698D02*
X5629705Y-13290174D01*
X5629705Y-13290174D02*
X5629705Y-13309222D01*
D12*
X3967500Y-13727500D02*
X3997500Y-13757500D01*
X3997500Y-13727500D02*
X3967500Y-13757500D01*
D11*
X4296372Y-13633984D02*
X4315420Y-13633984D01*
X4315420Y-13633984D02*
X4334467Y-13643508D01*
X4334467Y-13643508D02*
X4343991Y-13653031D01*
X4343991Y-13653031D02*
X4353515Y-13672079D01*
X4353515Y-13672079D02*
X4363039Y-13710174D01*
X4363039Y-13710174D02*
X4363039Y-13757793D01*
X4363039Y-13757793D02*
X4353515Y-13795888D01*
X4353515Y-13795888D02*
X4343991Y-13814936D01*
X4343991Y-13814936D02*
X4334467Y-13824460D01*
X4334467Y-13824460D02*
X4315420Y-13833984D01*
X4315420Y-13833984D02*
X4296372Y-13833984D01*
X4296372Y-13833984D02*
X4277324Y-13824460D01*
X4277324Y-13824460D02*
X4267801Y-13814936D01*
X4267801Y-13814936D02*
X4258277Y-13795888D01*
X4258277Y-13795888D02*
X4248753Y-13757793D01*
X4248753Y-13757793D02*
X4248753Y-13710174D01*
X4248753Y-13710174D02*
X4258277Y-13672079D01*
X4258277Y-13672079D02*
X4267801Y-13653031D01*
X4267801Y-13653031D02*
X4277324Y-13643508D01*
X4277324Y-13643508D02*
X4296372Y-13633984D01*
X4448753Y-13814936D02*
X4458277Y-13824460D01*
X4458277Y-13824460D02*
X4448753Y-13833984D01*
X4448753Y-13833984D02*
X4439229Y-13824460D01*
X4439229Y-13824460D02*
X4448753Y-13814936D01*
X4448753Y-13814936D02*
X4448753Y-13833984D01*
X4524944Y-13633984D02*
X4648753Y-13633984D01*
X4648753Y-13633984D02*
X4582086Y-13710174D01*
X4582086Y-13710174D02*
X4610658Y-13710174D01*
X4610658Y-13710174D02*
X4629705Y-13719698D01*
X4629705Y-13719698D02*
X4639229Y-13729222D01*
X4639229Y-13729222D02*
X4648753Y-13748269D01*
X4648753Y-13748269D02*
X4648753Y-13795888D01*
X4648753Y-13795888D02*
X4639229Y-13814936D01*
X4639229Y-13814936D02*
X4629705Y-13824460D01*
X4629705Y-13824460D02*
X4610658Y-13833984D01*
X4610658Y-13833984D02*
X4553515Y-13833984D01*
X4553515Y-13833984D02*
X4534467Y-13824460D01*
X4534467Y-13824460D02*
X4524944Y-13814936D01*
X4772563Y-13633984D02*
X4791610Y-13633984D01*
X4791610Y-13633984D02*
X4810658Y-13643508D01*
X4810658Y-13643508D02*
X4820182Y-13653031D01*
X4820182Y-13653031D02*
X4829705Y-13672079D01*
X4829705Y-13672079D02*
X4839229Y-13710174D01*
X4839229Y-13710174D02*
X4839229Y-13757793D01*
X4839229Y-13757793D02*
X4829705Y-13795888D01*
X4829705Y-13795888D02*
X4820182Y-13814936D01*
X4820182Y-13814936D02*
X4810658Y-13824460D01*
X4810658Y-13824460D02*
X4791610Y-13833984D01*
X4791610Y-13833984D02*
X4772563Y-13833984D01*
X4772563Y-13833984D02*
X4753515Y-13824460D01*
X4753515Y-13824460D02*
X4743991Y-13814936D01*
X4743991Y-13814936D02*
X4734467Y-13795888D01*
X4734467Y-13795888D02*
X4724944Y-13757793D01*
X4724944Y-13757793D02*
X4724944Y-13710174D01*
X4724944Y-13710174D02*
X4734467Y-13672079D01*
X4734467Y-13672079D02*
X4743991Y-13653031D01*
X4743991Y-13653031D02*
X4753515Y-13643508D01*
X4753515Y-13643508D02*
X4772563Y-13633984D01*
X4963039Y-13633984D02*
X4982086Y-13633984D01*
X4982086Y-13633984D02*
X5001134Y-13643508D01*
X5001134Y-13643508D02*
X5010658Y-13653031D01*
X5010658Y-13653031D02*
X5020182Y-13672079D01*
X5020182Y-13672079D02*
X5029705Y-13710174D01*
X5029705Y-13710174D02*
X5029705Y-13757793D01*
X5029705Y-13757793D02*
X5020182Y-13795888D01*
X5020182Y-13795888D02*
X5010658Y-13814936D01*
X5010658Y-13814936D02*
X5001134Y-13824460D01*
X5001134Y-13824460D02*
X4982086Y-13833984D01*
X4982086Y-13833984D02*
X4963039Y-13833984D01*
X4963039Y-13833984D02*
X4943991Y-13824460D01*
X4943991Y-13824460D02*
X4934467Y-13814936D01*
X4934467Y-13814936D02*
X4924944Y-13795888D01*
X4924944Y-13795888D02*
X4915420Y-13757793D01*
X4915420Y-13757793D02*
X4915420Y-13710174D01*
X4915420Y-13710174D02*
X4924944Y-13672079D01*
X4924944Y-13672079D02*
X4934467Y-13653031D01*
X4934467Y-13653031D02*
X4943991Y-13643508D01*
X4943991Y-13643508D02*
X4963039Y-13633984D01*
X5115420Y-13833984D02*
X5115420Y-13700650D01*
X5115420Y-13719698D02*
X5124944Y-13710174D01*
X5124944Y-13710174D02*
X5143991Y-13700650D01*
X5143991Y-13700650D02*
X5172563Y-13700650D01*
X5172563Y-13700650D02*
X5191610Y-13710174D01*
X5191610Y-13710174D02*
X5201134Y-13729222D01*
X5201134Y-13729222D02*
X5201134Y-13833984D01*
X5201134Y-13729222D02*
X5210658Y-13710174D01*
X5210658Y-13710174D02*
X5229705Y-13700650D01*
X5229705Y-13700650D02*
X5258277Y-13700650D01*
X5258277Y-13700650D02*
X5277325Y-13710174D01*
X5277325Y-13710174D02*
X5286848Y-13729222D01*
X5286848Y-13729222D02*
X5286848Y-13833984D01*
X5382086Y-13833984D02*
X5382086Y-13700650D01*
X5382086Y-13719698D02*
X5391610Y-13710174D01*
X5391610Y-13710174D02*
X5410658Y-13700650D01*
X5410658Y-13700650D02*
X5439229Y-13700650D01*
X5439229Y-13700650D02*
X5458277Y-13710174D01*
X5458277Y-13710174D02*
X5467801Y-13729222D01*
X5467801Y-13729222D02*
X5467801Y-13833984D01*
X5467801Y-13729222D02*
X5477325Y-13710174D01*
X5477325Y-13710174D02*
X5496372Y-13700650D01*
X5496372Y-13700650D02*
X5524944Y-13700650D01*
X5524944Y-13700650D02*
X5543991Y-13710174D01*
X5543991Y-13710174D02*
X5553515Y-13729222D01*
X5553515Y-13729222D02*
X5553515Y-13833984D01*
X5943991Y-13624460D02*
X5772563Y-13881603D01*
X6201134Y-13633984D02*
X6220182Y-13633984D01*
X6220182Y-13633984D02*
X6239229Y-13643508D01*
X6239229Y-13643508D02*
X6248753Y-13653031D01*
X6248753Y-13653031D02*
X6258277Y-13672079D01*
X6258277Y-13672079D02*
X6267801Y-13710174D01*
X6267801Y-13710174D02*
X6267801Y-13757793D01*
X6267801Y-13757793D02*
X6258277Y-13795888D01*
X6258277Y-13795888D02*
X6248753Y-13814936D01*
X6248753Y-13814936D02*
X6239229Y-13824460D01*
X6239229Y-13824460D02*
X6220182Y-13833984D01*
X6220182Y-13833984D02*
X6201134Y-13833984D01*
X6201134Y-13833984D02*
X6182086Y-13824460D01*
X6182086Y-13824460D02*
X6172563Y-13814936D01*
X6172563Y-13814936D02*
X6163039Y-13795888D01*
X6163039Y-13795888D02*
X6153515Y-13757793D01*
X6153515Y-13757793D02*
X6153515Y-13710174D01*
X6153515Y-13710174D02*
X6163039Y-13672079D01*
X6163039Y-13672079D02*
X6172563Y-13653031D01*
X6172563Y-13653031D02*
X6182086Y-13643508D01*
X6182086Y-13643508D02*
X6201134Y-13633984D01*
X6353515Y-13814936D02*
X6363039Y-13824460D01*
X6363039Y-13824460D02*
X6353515Y-13833984D01*
X6353515Y-13833984D02*
X6343991Y-13824460D01*
X6343991Y-13824460D02*
X6353515Y-13814936D01*
X6353515Y-13814936D02*
X6353515Y-13833984D01*
X6486848Y-13633984D02*
X6505896Y-13633984D01*
X6505896Y-13633984D02*
X6524944Y-13643508D01*
X6524944Y-13643508D02*
X6534467Y-13653031D01*
X6534467Y-13653031D02*
X6543991Y-13672079D01*
X6543991Y-13672079D02*
X6553515Y-13710174D01*
X6553515Y-13710174D02*
X6553515Y-13757793D01*
X6553515Y-13757793D02*
X6543991Y-13795888D01*
X6543991Y-13795888D02*
X6534467Y-13814936D01*
X6534467Y-13814936D02*
X6524944Y-13824460D01*
X6524944Y-13824460D02*
X6505896Y-13833984D01*
X6505896Y-13833984D02*
X6486848Y-13833984D01*
X6486848Y-13833984D02*
X6467801Y-13824460D01*
X6467801Y-13824460D02*
X6458277Y-13814936D01*
X6458277Y-13814936D02*
X6448753Y-13795888D01*
X6448753Y-13795888D02*
X6439229Y-13757793D01*
X6439229Y-13757793D02*
X6439229Y-13710174D01*
X6439229Y-13710174D02*
X6448753Y-13672079D01*
X6448753Y-13672079D02*
X6458277Y-13653031D01*
X6458277Y-13653031D02*
X6467801Y-13643508D01*
X6467801Y-13643508D02*
X6486848Y-13633984D01*
X6743991Y-13833984D02*
X6629706Y-13833984D01*
X6686848Y-13833984D02*
X6686848Y-13633984D01*
X6686848Y-13633984D02*
X6667801Y-13662555D01*
X6667801Y-13662555D02*
X6648753Y-13681603D01*
X6648753Y-13681603D02*
X6629706Y-13691127D01*
X6934467Y-13833984D02*
X6820182Y-13833984D01*
X6877325Y-13833984D02*
X6877325Y-13633984D01*
X6877325Y-13633984D02*
X6858277Y-13662555D01*
X6858277Y-13662555D02*
X6839229Y-13681603D01*
X6839229Y-13681603D02*
X6820182Y-13691127D01*
X7048753Y-13719698D02*
X7029706Y-13710174D01*
X7029706Y-13710174D02*
X7020182Y-13700650D01*
X7020182Y-13700650D02*
X7010658Y-13681603D01*
X7010658Y-13681603D02*
X7010658Y-13672079D01*
X7010658Y-13672079D02*
X7020182Y-13653031D01*
X7020182Y-13653031D02*
X7029706Y-13643508D01*
X7029706Y-13643508D02*
X7048753Y-13633984D01*
X7048753Y-13633984D02*
X7086848Y-13633984D01*
X7086848Y-13633984D02*
X7105896Y-13643508D01*
X7105896Y-13643508D02*
X7115420Y-13653031D01*
X7115420Y-13653031D02*
X7124944Y-13672079D01*
X7124944Y-13672079D02*
X7124944Y-13681603D01*
X7124944Y-13681603D02*
X7115420Y-13700650D01*
X7115420Y-13700650D02*
X7105896Y-13710174D01*
X7105896Y-13710174D02*
X7086848Y-13719698D01*
X7086848Y-13719698D02*
X7048753Y-13719698D01*
X7048753Y-13719698D02*
X7029706Y-13729222D01*
X7029706Y-13729222D02*
X7020182Y-13738746D01*
X7020182Y-13738746D02*
X7010658Y-13757793D01*
X7010658Y-13757793D02*
X7010658Y-13795888D01*
X7010658Y-13795888D02*
X7020182Y-13814936D01*
X7020182Y-13814936D02*
X7029706Y-13824460D01*
X7029706Y-13824460D02*
X7048753Y-13833984D01*
X7048753Y-13833984D02*
X7086848Y-13833984D01*
X7086848Y-13833984D02*
X7105896Y-13824460D01*
X7105896Y-13824460D02*
X7115420Y-13814936D01*
X7115420Y-13814936D02*
X7124944Y-13795888D01*
X7124944Y-13795888D02*
X7124944Y-13757793D01*
X7124944Y-13757793D02*
X7115420Y-13738746D01*
X7115420Y-13738746D02*
X7105896Y-13729222D01*
X7105896Y-13729222D02*
X7086848Y-13719698D01*
X7201134Y-13633984D02*
X7201134Y-13672079D01*
X7277325Y-13633984D02*
X7277325Y-13672079D01*
X7572563Y-13910174D02*
X7563039Y-13900650D01*
X7563039Y-13900650D02*
X7543991Y-13872079D01*
X7543991Y-13872079D02*
X7534468Y-13853031D01*
X7534468Y-13853031D02*
X7524944Y-13824460D01*
X7524944Y-13824460D02*
X7515420Y-13776841D01*
X7515420Y-13776841D02*
X7515420Y-13738746D01*
X7515420Y-13738746D02*
X7524944Y-13691127D01*
X7524944Y-13691127D02*
X7534468Y-13662555D01*
X7534468Y-13662555D02*
X7543991Y-13643508D01*
X7543991Y-13643508D02*
X7563039Y-13614936D01*
X7563039Y-13614936D02*
X7572563Y-13605412D01*
X7639229Y-13653031D02*
X7648753Y-13643508D01*
X7648753Y-13643508D02*
X7667801Y-13633984D01*
X7667801Y-13633984D02*
X7715420Y-13633984D01*
X7715420Y-13633984D02*
X7734468Y-13643508D01*
X7734468Y-13643508D02*
X7743991Y-13653031D01*
X7743991Y-13653031D02*
X7753515Y-13672079D01*
X7753515Y-13672079D02*
X7753515Y-13691127D01*
X7753515Y-13691127D02*
X7743991Y-13719698D01*
X7743991Y-13719698D02*
X7629706Y-13833984D01*
X7629706Y-13833984D02*
X7753515Y-13833984D01*
X7848753Y-13833984D02*
X7886848Y-13833984D01*
X7886848Y-13833984D02*
X7905896Y-13824460D01*
X7905896Y-13824460D02*
X7915420Y-13814936D01*
X7915420Y-13814936D02*
X7934468Y-13786365D01*
X7934468Y-13786365D02*
X7943991Y-13748269D01*
X7943991Y-13748269D02*
X7943991Y-13672079D01*
X7943991Y-13672079D02*
X7934468Y-13653031D01*
X7934468Y-13653031D02*
X7924944Y-13643508D01*
X7924944Y-13643508D02*
X7905896Y-13633984D01*
X7905896Y-13633984D02*
X7867801Y-13633984D01*
X7867801Y-13633984D02*
X7848753Y-13643508D01*
X7848753Y-13643508D02*
X7839229Y-13653031D01*
X7839229Y-13653031D02*
X7829706Y-13672079D01*
X7829706Y-13672079D02*
X7829706Y-13719698D01*
X7829706Y-13719698D02*
X7839229Y-13738746D01*
X7839229Y-13738746D02*
X7848753Y-13748269D01*
X7848753Y-13748269D02*
X7867801Y-13757793D01*
X7867801Y-13757793D02*
X7905896Y-13757793D01*
X7905896Y-13757793D02*
X7924944Y-13748269D01*
X7924944Y-13748269D02*
X7934468Y-13738746D01*
X7934468Y-13738746D02*
X7943991Y-13719698D01*
X8182087Y-13833984D02*
X8182087Y-13633984D01*
X8267801Y-13833984D02*
X8267801Y-13729222D01*
X8267801Y-13729222D02*
X8258277Y-13710174D01*
X8258277Y-13710174D02*
X8239230Y-13700650D01*
X8239230Y-13700650D02*
X8210658Y-13700650D01*
X8210658Y-13700650D02*
X8191610Y-13710174D01*
X8191610Y-13710174D02*
X8182087Y-13719698D01*
X8391611Y-13833984D02*
X8372563Y-13824460D01*
X8372563Y-13824460D02*
X8363039Y-13814936D01*
X8363039Y-13814936D02*
X8353515Y-13795888D01*
X8353515Y-13795888D02*
X8353515Y-13738746D01*
X8353515Y-13738746D02*
X8363039Y-13719698D01*
X8363039Y-13719698D02*
X8372563Y-13710174D01*
X8372563Y-13710174D02*
X8391611Y-13700650D01*
X8391611Y-13700650D02*
X8420182Y-13700650D01*
X8420182Y-13700650D02*
X8439230Y-13710174D01*
X8439230Y-13710174D02*
X8448753Y-13719698D01*
X8448753Y-13719698D02*
X8458277Y-13738746D01*
X8458277Y-13738746D02*
X8458277Y-13795888D01*
X8458277Y-13795888D02*
X8448753Y-13814936D01*
X8448753Y-13814936D02*
X8439230Y-13824460D01*
X8439230Y-13824460D02*
X8420182Y-13833984D01*
X8420182Y-13833984D02*
X8391611Y-13833984D01*
X8572563Y-13833984D02*
X8553515Y-13824460D01*
X8553515Y-13824460D02*
X8543992Y-13805412D01*
X8543992Y-13805412D02*
X8543992Y-13633984D01*
X8724944Y-13824460D02*
X8705896Y-13833984D01*
X8705896Y-13833984D02*
X8667801Y-13833984D01*
X8667801Y-13833984D02*
X8648753Y-13824460D01*
X8648753Y-13824460D02*
X8639230Y-13805412D01*
X8639230Y-13805412D02*
X8639230Y-13729222D01*
X8639230Y-13729222D02*
X8648753Y-13710174D01*
X8648753Y-13710174D02*
X8667801Y-13700650D01*
X8667801Y-13700650D02*
X8705896Y-13700650D01*
X8705896Y-13700650D02*
X8724944Y-13710174D01*
X8724944Y-13710174D02*
X8734468Y-13729222D01*
X8734468Y-13729222D02*
X8734468Y-13748269D01*
X8734468Y-13748269D02*
X8639230Y-13767317D01*
X8810658Y-13824460D02*
X8829706Y-13833984D01*
X8829706Y-13833984D02*
X8867801Y-13833984D01*
X8867801Y-13833984D02*
X8886849Y-13824460D01*
X8886849Y-13824460D02*
X8896373Y-13805412D01*
X8896373Y-13805412D02*
X8896373Y-13795888D01*
X8896373Y-13795888D02*
X8886849Y-13776841D01*
X8886849Y-13776841D02*
X8867801Y-13767317D01*
X8867801Y-13767317D02*
X8839230Y-13767317D01*
X8839230Y-13767317D02*
X8820182Y-13757793D01*
X8820182Y-13757793D02*
X8810658Y-13738746D01*
X8810658Y-13738746D02*
X8810658Y-13729222D01*
X8810658Y-13729222D02*
X8820182Y-13710174D01*
X8820182Y-13710174D02*
X8839230Y-13700650D01*
X8839230Y-13700650D02*
X8867801Y-13700650D01*
X8867801Y-13700650D02*
X8886849Y-13710174D01*
X8963039Y-13910174D02*
X8972563Y-13900650D01*
X8972563Y-13900650D02*
X8991611Y-13872079D01*
X8991611Y-13872079D02*
X9001134Y-13853031D01*
X9001134Y-13853031D02*
X9010658Y-13824460D01*
X9010658Y-13824460D02*
X9020182Y-13776841D01*
X9020182Y-13776841D02*
X9020182Y-13738746D01*
X9020182Y-13738746D02*
X9010658Y-13691127D01*
X9010658Y-13691127D02*
X9001134Y-13662555D01*
X9001134Y-13662555D02*
X8991611Y-13643508D01*
X8991611Y-13643508D02*
X8972563Y-13614936D01*
X8972563Y-13614936D02*
X8963039Y-13605412D01*
D12*
X3997500Y-14006500D02*
G75*
G02*
X3917500Y-14006500I-40000J0D01*
G01*
X3917500Y-14006500D02*
G75*
G02*
X3997500Y-14006500I40000J0D01*
G01*
D11*
X4296372Y-13897984D02*
X4315420Y-13897984D01*
X4315420Y-13897984D02*
X4334467Y-13907508D01*
X4334467Y-13907508D02*
X4343991Y-13917031D01*
X4343991Y-13917031D02*
X4353515Y-13936079D01*
X4353515Y-13936079D02*
X4363039Y-13974174D01*
X4363039Y-13974174D02*
X4363039Y-14021793D01*
X4363039Y-14021793D02*
X4353515Y-14059888D01*
X4353515Y-14059888D02*
X4343991Y-14078936D01*
X4343991Y-14078936D02*
X4334467Y-14088460D01*
X4334467Y-14088460D02*
X4315420Y-14097984D01*
X4315420Y-14097984D02*
X4296372Y-14097984D01*
X4296372Y-14097984D02*
X4277324Y-14088460D01*
X4277324Y-14088460D02*
X4267801Y-14078936D01*
X4267801Y-14078936D02*
X4258277Y-14059888D01*
X4258277Y-14059888D02*
X4248753Y-14021793D01*
X4248753Y-14021793D02*
X4248753Y-13974174D01*
X4248753Y-13974174D02*
X4258277Y-13936079D01*
X4258277Y-13936079D02*
X4267801Y-13917031D01*
X4267801Y-13917031D02*
X4277324Y-13907508D01*
X4277324Y-13907508D02*
X4296372Y-13897984D01*
X4448753Y-14078936D02*
X4458277Y-14088460D01*
X4458277Y-14088460D02*
X4448753Y-14097984D01*
X4448753Y-14097984D02*
X4439229Y-14088460D01*
X4439229Y-14088460D02*
X4448753Y-14078936D01*
X4448753Y-14078936D02*
X4448753Y-14097984D01*
X4572563Y-13983698D02*
X4553515Y-13974174D01*
X4553515Y-13974174D02*
X4543991Y-13964650D01*
X4543991Y-13964650D02*
X4534467Y-13945603D01*
X4534467Y-13945603D02*
X4534467Y-13936079D01*
X4534467Y-13936079D02*
X4543991Y-13917031D01*
X4543991Y-13917031D02*
X4553515Y-13907508D01*
X4553515Y-13907508D02*
X4572563Y-13897984D01*
X4572563Y-13897984D02*
X4610658Y-13897984D01*
X4610658Y-13897984D02*
X4629705Y-13907508D01*
X4629705Y-13907508D02*
X4639229Y-13917031D01*
X4639229Y-13917031D02*
X4648753Y-13936079D01*
X4648753Y-13936079D02*
X4648753Y-13945603D01*
X4648753Y-13945603D02*
X4639229Y-13964650D01*
X4639229Y-13964650D02*
X4629705Y-13974174D01*
X4629705Y-13974174D02*
X4610658Y-13983698D01*
X4610658Y-13983698D02*
X4572563Y-13983698D01*
X4572563Y-13983698D02*
X4553515Y-13993222D01*
X4553515Y-13993222D02*
X4543991Y-14002746D01*
X4543991Y-14002746D02*
X4534467Y-14021793D01*
X4534467Y-14021793D02*
X4534467Y-14059888D01*
X4534467Y-14059888D02*
X4543991Y-14078936D01*
X4543991Y-14078936D02*
X4553515Y-14088460D01*
X4553515Y-14088460D02*
X4572563Y-14097984D01*
X4572563Y-14097984D02*
X4610658Y-14097984D01*
X4610658Y-14097984D02*
X4629705Y-14088460D01*
X4629705Y-14088460D02*
X4639229Y-14078936D01*
X4639229Y-14078936D02*
X4648753Y-14059888D01*
X4648753Y-14059888D02*
X4648753Y-14021793D01*
X4648753Y-14021793D02*
X4639229Y-14002746D01*
X4639229Y-14002746D02*
X4629705Y-13993222D01*
X4629705Y-13993222D02*
X4610658Y-13983698D01*
X4772563Y-13897984D02*
X4791610Y-13897984D01*
X4791610Y-13897984D02*
X4810658Y-13907508D01*
X4810658Y-13907508D02*
X4820182Y-13917031D01*
X4820182Y-13917031D02*
X4829705Y-13936079D01*
X4829705Y-13936079D02*
X4839229Y-13974174D01*
X4839229Y-13974174D02*
X4839229Y-14021793D01*
X4839229Y-14021793D02*
X4829705Y-14059888D01*
X4829705Y-14059888D02*
X4820182Y-14078936D01*
X4820182Y-14078936D02*
X4810658Y-14088460D01*
X4810658Y-14088460D02*
X4791610Y-14097984D01*
X4791610Y-14097984D02*
X4772563Y-14097984D01*
X4772563Y-14097984D02*
X4753515Y-14088460D01*
X4753515Y-14088460D02*
X4743991Y-14078936D01*
X4743991Y-14078936D02*
X4734467Y-14059888D01*
X4734467Y-14059888D02*
X4724944Y-14021793D01*
X4724944Y-14021793D02*
X4724944Y-13974174D01*
X4724944Y-13974174D02*
X4734467Y-13936079D01*
X4734467Y-13936079D02*
X4743991Y-13917031D01*
X4743991Y-13917031D02*
X4753515Y-13907508D01*
X4753515Y-13907508D02*
X4772563Y-13897984D01*
X4963039Y-13897984D02*
X4982086Y-13897984D01*
X4982086Y-13897984D02*
X5001134Y-13907508D01*
X5001134Y-13907508D02*
X5010658Y-13917031D01*
X5010658Y-13917031D02*
X5020182Y-13936079D01*
X5020182Y-13936079D02*
X5029705Y-13974174D01*
X5029705Y-13974174D02*
X5029705Y-14021793D01*
X5029705Y-14021793D02*
X5020182Y-14059888D01*
X5020182Y-14059888D02*
X5010658Y-14078936D01*
X5010658Y-14078936D02*
X5001134Y-14088460D01*
X5001134Y-14088460D02*
X4982086Y-14097984D01*
X4982086Y-14097984D02*
X4963039Y-14097984D01*
X4963039Y-14097984D02*
X4943991Y-14088460D01*
X4943991Y-14088460D02*
X4934467Y-14078936D01*
X4934467Y-14078936D02*
X4924944Y-14059888D01*
X4924944Y-14059888D02*
X4915420Y-14021793D01*
X4915420Y-14021793D02*
X4915420Y-13974174D01*
X4915420Y-13974174D02*
X4924944Y-13936079D01*
X4924944Y-13936079D02*
X4934467Y-13917031D01*
X4934467Y-13917031D02*
X4943991Y-13907508D01*
X4943991Y-13907508D02*
X4963039Y-13897984D01*
X5115420Y-14097984D02*
X5115420Y-13964650D01*
X5115420Y-13983698D02*
X5124944Y-13974174D01*
X5124944Y-13974174D02*
X5143991Y-13964650D01*
X5143991Y-13964650D02*
X5172563Y-13964650D01*
X5172563Y-13964650D02*
X5191610Y-13974174D01*
X5191610Y-13974174D02*
X5201134Y-13993222D01*
X5201134Y-13993222D02*
X5201134Y-14097984D01*
X5201134Y-13993222D02*
X5210658Y-13974174D01*
X5210658Y-13974174D02*
X5229705Y-13964650D01*
X5229705Y-13964650D02*
X5258277Y-13964650D01*
X5258277Y-13964650D02*
X5277325Y-13974174D01*
X5277325Y-13974174D02*
X5286848Y-13993222D01*
X5286848Y-13993222D02*
X5286848Y-14097984D01*
X5382086Y-14097984D02*
X5382086Y-13964650D01*
X5382086Y-13983698D02*
X5391610Y-13974174D01*
X5391610Y-13974174D02*
X5410658Y-13964650D01*
X5410658Y-13964650D02*
X5439229Y-13964650D01*
X5439229Y-13964650D02*
X5458277Y-13974174D01*
X5458277Y-13974174D02*
X5467801Y-13993222D01*
X5467801Y-13993222D02*
X5467801Y-14097984D01*
X5467801Y-13993222D02*
X5477325Y-13974174D01*
X5477325Y-13974174D02*
X5496372Y-13964650D01*
X5496372Y-13964650D02*
X5524944Y-13964650D01*
X5524944Y-13964650D02*
X5543991Y-13974174D01*
X5543991Y-13974174D02*
X5553515Y-13993222D01*
X5553515Y-13993222D02*
X5553515Y-14097984D01*
X5943991Y-13888460D02*
X5772563Y-14145603D01*
X6201134Y-13897984D02*
X6220182Y-13897984D01*
X6220182Y-13897984D02*
X6239229Y-13907508D01*
X6239229Y-13907508D02*
X6248753Y-13917031D01*
X6248753Y-13917031D02*
X6258277Y-13936079D01*
X6258277Y-13936079D02*
X6267801Y-13974174D01*
X6267801Y-13974174D02*
X6267801Y-14021793D01*
X6267801Y-14021793D02*
X6258277Y-14059888D01*
X6258277Y-14059888D02*
X6248753Y-14078936D01*
X6248753Y-14078936D02*
X6239229Y-14088460D01*
X6239229Y-14088460D02*
X6220182Y-14097984D01*
X6220182Y-14097984D02*
X6201134Y-14097984D01*
X6201134Y-14097984D02*
X6182086Y-14088460D01*
X6182086Y-14088460D02*
X6172563Y-14078936D01*
X6172563Y-14078936D02*
X6163039Y-14059888D01*
X6163039Y-14059888D02*
X6153515Y-14021793D01*
X6153515Y-14021793D02*
X6153515Y-13974174D01*
X6153515Y-13974174D02*
X6163039Y-13936079D01*
X6163039Y-13936079D02*
X6172563Y-13917031D01*
X6172563Y-13917031D02*
X6182086Y-13907508D01*
X6182086Y-13907508D02*
X6201134Y-13897984D01*
X6353515Y-14078936D02*
X6363039Y-14088460D01*
X6363039Y-14088460D02*
X6353515Y-14097984D01*
X6353515Y-14097984D02*
X6343991Y-14088460D01*
X6343991Y-14088460D02*
X6353515Y-14078936D01*
X6353515Y-14078936D02*
X6353515Y-14097984D01*
X6486848Y-13897984D02*
X6505896Y-13897984D01*
X6505896Y-13897984D02*
X6524944Y-13907508D01*
X6524944Y-13907508D02*
X6534467Y-13917031D01*
X6534467Y-13917031D02*
X6543991Y-13936079D01*
X6543991Y-13936079D02*
X6553515Y-13974174D01*
X6553515Y-13974174D02*
X6553515Y-14021793D01*
X6553515Y-14021793D02*
X6543991Y-14059888D01*
X6543991Y-14059888D02*
X6534467Y-14078936D01*
X6534467Y-14078936D02*
X6524944Y-14088460D01*
X6524944Y-14088460D02*
X6505896Y-14097984D01*
X6505896Y-14097984D02*
X6486848Y-14097984D01*
X6486848Y-14097984D02*
X6467801Y-14088460D01*
X6467801Y-14088460D02*
X6458277Y-14078936D01*
X6458277Y-14078936D02*
X6448753Y-14059888D01*
X6448753Y-14059888D02*
X6439229Y-14021793D01*
X6439229Y-14021793D02*
X6439229Y-13974174D01*
X6439229Y-13974174D02*
X6448753Y-13936079D01*
X6448753Y-13936079D02*
X6458277Y-13917031D01*
X6458277Y-13917031D02*
X6467801Y-13907508D01*
X6467801Y-13907508D02*
X6486848Y-13897984D01*
X6620182Y-13897984D02*
X6743991Y-13897984D01*
X6743991Y-13897984D02*
X6677325Y-13974174D01*
X6677325Y-13974174D02*
X6705896Y-13974174D01*
X6705896Y-13974174D02*
X6724944Y-13983698D01*
X6724944Y-13983698D02*
X6734467Y-13993222D01*
X6734467Y-13993222D02*
X6743991Y-14012269D01*
X6743991Y-14012269D02*
X6743991Y-14059888D01*
X6743991Y-14059888D02*
X6734467Y-14078936D01*
X6734467Y-14078936D02*
X6724944Y-14088460D01*
X6724944Y-14088460D02*
X6705896Y-14097984D01*
X6705896Y-14097984D02*
X6648753Y-14097984D01*
X6648753Y-14097984D02*
X6629706Y-14088460D01*
X6629706Y-14088460D02*
X6620182Y-14078936D01*
X6934467Y-14097984D02*
X6820182Y-14097984D01*
X6877325Y-14097984D02*
X6877325Y-13897984D01*
X6877325Y-13897984D02*
X6858277Y-13926555D01*
X6858277Y-13926555D02*
X6839229Y-13945603D01*
X6839229Y-13945603D02*
X6820182Y-13955127D01*
X7115420Y-13897984D02*
X7020182Y-13897984D01*
X7020182Y-13897984D02*
X7010658Y-13993222D01*
X7010658Y-13993222D02*
X7020182Y-13983698D01*
X7020182Y-13983698D02*
X7039229Y-13974174D01*
X7039229Y-13974174D02*
X7086848Y-13974174D01*
X7086848Y-13974174D02*
X7105896Y-13983698D01*
X7105896Y-13983698D02*
X7115420Y-13993222D01*
X7115420Y-13993222D02*
X7124944Y-14012269D01*
X7124944Y-14012269D02*
X7124944Y-14059888D01*
X7124944Y-14059888D02*
X7115420Y-14078936D01*
X7115420Y-14078936D02*
X7105896Y-14088460D01*
X7105896Y-14088460D02*
X7086848Y-14097984D01*
X7086848Y-14097984D02*
X7039229Y-14097984D01*
X7039229Y-14097984D02*
X7020182Y-14088460D01*
X7020182Y-14088460D02*
X7010658Y-14078936D01*
X7201134Y-13897984D02*
X7201134Y-13936079D01*
X7277325Y-13897984D02*
X7277325Y-13936079D01*
X7572563Y-14174174D02*
X7563039Y-14164650D01*
X7563039Y-14164650D02*
X7543991Y-14136079D01*
X7543991Y-14136079D02*
X7534468Y-14117031D01*
X7534468Y-14117031D02*
X7524944Y-14088460D01*
X7524944Y-14088460D02*
X7515420Y-14040841D01*
X7515420Y-14040841D02*
X7515420Y-14002746D01*
X7515420Y-14002746D02*
X7524944Y-13955127D01*
X7524944Y-13955127D02*
X7534468Y-13926555D01*
X7534468Y-13926555D02*
X7543991Y-13907508D01*
X7543991Y-13907508D02*
X7563039Y-13878936D01*
X7563039Y-13878936D02*
X7572563Y-13869412D01*
X7639229Y-13917031D02*
X7648753Y-13907508D01*
X7648753Y-13907508D02*
X7667801Y-13897984D01*
X7667801Y-13897984D02*
X7715420Y-13897984D01*
X7715420Y-13897984D02*
X7734468Y-13907508D01*
X7734468Y-13907508D02*
X7743991Y-13917031D01*
X7743991Y-13917031D02*
X7753515Y-13936079D01*
X7753515Y-13936079D02*
X7753515Y-13955127D01*
X7753515Y-13955127D02*
X7743991Y-13983698D01*
X7743991Y-13983698D02*
X7629706Y-14097984D01*
X7629706Y-14097984D02*
X7753515Y-14097984D01*
X7991610Y-14097984D02*
X7991610Y-13897984D01*
X8077325Y-14097984D02*
X8077325Y-13993222D01*
X8077325Y-13993222D02*
X8067801Y-13974174D01*
X8067801Y-13974174D02*
X8048753Y-13964650D01*
X8048753Y-13964650D02*
X8020182Y-13964650D01*
X8020182Y-13964650D02*
X8001134Y-13974174D01*
X8001134Y-13974174D02*
X7991610Y-13983698D01*
X8201134Y-14097984D02*
X8182087Y-14088460D01*
X8182087Y-14088460D02*
X8172563Y-14078936D01*
X8172563Y-14078936D02*
X8163039Y-14059888D01*
X8163039Y-14059888D02*
X8163039Y-14002746D01*
X8163039Y-14002746D02*
X8172563Y-13983698D01*
X8172563Y-13983698D02*
X8182087Y-13974174D01*
X8182087Y-13974174D02*
X8201134Y-13964650D01*
X8201134Y-13964650D02*
X8229706Y-13964650D01*
X8229706Y-13964650D02*
X8248753Y-13974174D01*
X8248753Y-13974174D02*
X8258277Y-13983698D01*
X8258277Y-13983698D02*
X8267801Y-14002746D01*
X8267801Y-14002746D02*
X8267801Y-14059888D01*
X8267801Y-14059888D02*
X8258277Y-14078936D01*
X8258277Y-14078936D02*
X8248753Y-14088460D01*
X8248753Y-14088460D02*
X8229706Y-14097984D01*
X8229706Y-14097984D02*
X8201134Y-14097984D01*
X8382087Y-14097984D02*
X8363039Y-14088460D01*
X8363039Y-14088460D02*
X8353515Y-14069412D01*
X8353515Y-14069412D02*
X8353515Y-13897984D01*
X8534468Y-14088460D02*
X8515420Y-14097984D01*
X8515420Y-14097984D02*
X8477325Y-14097984D01*
X8477325Y-14097984D02*
X8458277Y-14088460D01*
X8458277Y-14088460D02*
X8448753Y-14069412D01*
X8448753Y-14069412D02*
X8448753Y-13993222D01*
X8448753Y-13993222D02*
X8458277Y-13974174D01*
X8458277Y-13974174D02*
X8477325Y-13964650D01*
X8477325Y-13964650D02*
X8515420Y-13964650D01*
X8515420Y-13964650D02*
X8534468Y-13974174D01*
X8534468Y-13974174D02*
X8543992Y-13993222D01*
X8543992Y-13993222D02*
X8543992Y-14012269D01*
X8543992Y-14012269D02*
X8448753Y-14031317D01*
X8620182Y-14088460D02*
X8639230Y-14097984D01*
X8639230Y-14097984D02*
X8677325Y-14097984D01*
X8677325Y-14097984D02*
X8696373Y-14088460D01*
X8696373Y-14088460D02*
X8705896Y-14069412D01*
X8705896Y-14069412D02*
X8705896Y-14059888D01*
X8705896Y-14059888D02*
X8696373Y-14040841D01*
X8696373Y-14040841D02*
X8677325Y-14031317D01*
X8677325Y-14031317D02*
X8648753Y-14031317D01*
X8648753Y-14031317D02*
X8629706Y-14021793D01*
X8629706Y-14021793D02*
X8620182Y-14002746D01*
X8620182Y-14002746D02*
X8620182Y-13993222D01*
X8620182Y-13993222D02*
X8629706Y-13974174D01*
X8629706Y-13974174D02*
X8648753Y-13964650D01*
X8648753Y-13964650D02*
X8677325Y-13964650D01*
X8677325Y-13964650D02*
X8696373Y-13974174D01*
X8772563Y-14174174D02*
X8782087Y-14164650D01*
X8782087Y-14164650D02*
X8801134Y-14136079D01*
X8801134Y-14136079D02*
X8810658Y-14117031D01*
X8810658Y-14117031D02*
X8820182Y-14088460D01*
X8820182Y-14088460D02*
X8829706Y-14040841D01*
X8829706Y-14040841D02*
X8829706Y-14002746D01*
X8829706Y-14002746D02*
X8820182Y-13955127D01*
X8820182Y-13955127D02*
X8810658Y-13926555D01*
X8810658Y-13926555D02*
X8801134Y-13907508D01*
X8801134Y-13907508D02*
X8782087Y-13878936D01*
X8782087Y-13878936D02*
X8772563Y-13869412D01*
D12*
X3956860Y-14229860D02*
X3956860Y-14311140D01*
X3916220Y-14270500D02*
X3997500Y-14270500D01*
D11*
X4296372Y-14161984D02*
X4315420Y-14161984D01*
X4315420Y-14161984D02*
X4334467Y-14171508D01*
X4334467Y-14171508D02*
X4343991Y-14181031D01*
X4343991Y-14181031D02*
X4353515Y-14200079D01*
X4353515Y-14200079D02*
X4363039Y-14238174D01*
X4363039Y-14238174D02*
X4363039Y-14285793D01*
X4363039Y-14285793D02*
X4353515Y-14323888D01*
X4353515Y-14323888D02*
X4343991Y-14342936D01*
X4343991Y-14342936D02*
X4334467Y-14352460D01*
X4334467Y-14352460D02*
X4315420Y-14361984D01*
X4315420Y-14361984D02*
X4296372Y-14361984D01*
X4296372Y-14361984D02*
X4277324Y-14352460D01*
X4277324Y-14352460D02*
X4267801Y-14342936D01*
X4267801Y-14342936D02*
X4258277Y-14323888D01*
X4258277Y-14323888D02*
X4248753Y-14285793D01*
X4248753Y-14285793D02*
X4248753Y-14238174D01*
X4248753Y-14238174D02*
X4258277Y-14200079D01*
X4258277Y-14200079D02*
X4267801Y-14181031D01*
X4267801Y-14181031D02*
X4277324Y-14171508D01*
X4277324Y-14171508D02*
X4296372Y-14161984D01*
X4448753Y-14342936D02*
X4458277Y-14352460D01*
X4458277Y-14352460D02*
X4448753Y-14361984D01*
X4448753Y-14361984D02*
X4439229Y-14352460D01*
X4439229Y-14352460D02*
X4448753Y-14342936D01*
X4448753Y-14342936D02*
X4448753Y-14361984D01*
X4572563Y-14247698D02*
X4553515Y-14238174D01*
X4553515Y-14238174D02*
X4543991Y-14228650D01*
X4543991Y-14228650D02*
X4534467Y-14209603D01*
X4534467Y-14209603D02*
X4534467Y-14200079D01*
X4534467Y-14200079D02*
X4543991Y-14181031D01*
X4543991Y-14181031D02*
X4553515Y-14171508D01*
X4553515Y-14171508D02*
X4572563Y-14161984D01*
X4572563Y-14161984D02*
X4610658Y-14161984D01*
X4610658Y-14161984D02*
X4629705Y-14171508D01*
X4629705Y-14171508D02*
X4639229Y-14181031D01*
X4639229Y-14181031D02*
X4648753Y-14200079D01*
X4648753Y-14200079D02*
X4648753Y-14209603D01*
X4648753Y-14209603D02*
X4639229Y-14228650D01*
X4639229Y-14228650D02*
X4629705Y-14238174D01*
X4629705Y-14238174D02*
X4610658Y-14247698D01*
X4610658Y-14247698D02*
X4572563Y-14247698D01*
X4572563Y-14247698D02*
X4553515Y-14257222D01*
X4553515Y-14257222D02*
X4543991Y-14266746D01*
X4543991Y-14266746D02*
X4534467Y-14285793D01*
X4534467Y-14285793D02*
X4534467Y-14323888D01*
X4534467Y-14323888D02*
X4543991Y-14342936D01*
X4543991Y-14342936D02*
X4553515Y-14352460D01*
X4553515Y-14352460D02*
X4572563Y-14361984D01*
X4572563Y-14361984D02*
X4610658Y-14361984D01*
X4610658Y-14361984D02*
X4629705Y-14352460D01*
X4629705Y-14352460D02*
X4639229Y-14342936D01*
X4639229Y-14342936D02*
X4648753Y-14323888D01*
X4648753Y-14323888D02*
X4648753Y-14285793D01*
X4648753Y-14285793D02*
X4639229Y-14266746D01*
X4639229Y-14266746D02*
X4629705Y-14257222D01*
X4629705Y-14257222D02*
X4610658Y-14247698D01*
X4839229Y-14361984D02*
X4724944Y-14361984D01*
X4782086Y-14361984D02*
X4782086Y-14161984D01*
X4782086Y-14161984D02*
X4763039Y-14190555D01*
X4763039Y-14190555D02*
X4743991Y-14209603D01*
X4743991Y-14209603D02*
X4724944Y-14219127D01*
X4905896Y-14161984D02*
X5029705Y-14161984D01*
X5029705Y-14161984D02*
X4963039Y-14238174D01*
X4963039Y-14238174D02*
X4991610Y-14238174D01*
X4991610Y-14238174D02*
X5010658Y-14247698D01*
X5010658Y-14247698D02*
X5020182Y-14257222D01*
X5020182Y-14257222D02*
X5029705Y-14276269D01*
X5029705Y-14276269D02*
X5029705Y-14323888D01*
X5029705Y-14323888D02*
X5020182Y-14342936D01*
X5020182Y-14342936D02*
X5010658Y-14352460D01*
X5010658Y-14352460D02*
X4991610Y-14361984D01*
X4991610Y-14361984D02*
X4934467Y-14361984D01*
X4934467Y-14361984D02*
X4915420Y-14352460D01*
X4915420Y-14352460D02*
X4905896Y-14342936D01*
X5115420Y-14361984D02*
X5115420Y-14228650D01*
X5115420Y-14247698D02*
X5124944Y-14238174D01*
X5124944Y-14238174D02*
X5143991Y-14228650D01*
X5143991Y-14228650D02*
X5172563Y-14228650D01*
X5172563Y-14228650D02*
X5191610Y-14238174D01*
X5191610Y-14238174D02*
X5201134Y-14257222D01*
X5201134Y-14257222D02*
X5201134Y-14361984D01*
X5201134Y-14257222D02*
X5210658Y-14238174D01*
X5210658Y-14238174D02*
X5229705Y-14228650D01*
X5229705Y-14228650D02*
X5258277Y-14228650D01*
X5258277Y-14228650D02*
X5277325Y-14238174D01*
X5277325Y-14238174D02*
X5286848Y-14257222D01*
X5286848Y-14257222D02*
X5286848Y-14361984D01*
X5382086Y-14361984D02*
X5382086Y-14228650D01*
X5382086Y-14247698D02*
X5391610Y-14238174D01*
X5391610Y-14238174D02*
X5410658Y-14228650D01*
X5410658Y-14228650D02*
X5439229Y-14228650D01*
X5439229Y-14228650D02*
X5458277Y-14238174D01*
X5458277Y-14238174D02*
X5467801Y-14257222D01*
X5467801Y-14257222D02*
X5467801Y-14361984D01*
X5467801Y-14257222D02*
X5477325Y-14238174D01*
X5477325Y-14238174D02*
X5496372Y-14228650D01*
X5496372Y-14228650D02*
X5524944Y-14228650D01*
X5524944Y-14228650D02*
X5543991Y-14238174D01*
X5543991Y-14238174D02*
X5553515Y-14257222D01*
X5553515Y-14257222D02*
X5553515Y-14361984D01*
X5943991Y-14152460D02*
X5772563Y-14409603D01*
X6201134Y-14161984D02*
X6220182Y-14161984D01*
X6220182Y-14161984D02*
X6239229Y-14171508D01*
X6239229Y-14171508D02*
X6248753Y-14181031D01*
X6248753Y-14181031D02*
X6258277Y-14200079D01*
X6258277Y-14200079D02*
X6267801Y-14238174D01*
X6267801Y-14238174D02*
X6267801Y-14285793D01*
X6267801Y-14285793D02*
X6258277Y-14323888D01*
X6258277Y-14323888D02*
X6248753Y-14342936D01*
X6248753Y-14342936D02*
X6239229Y-14352460D01*
X6239229Y-14352460D02*
X6220182Y-14361984D01*
X6220182Y-14361984D02*
X6201134Y-14361984D01*
X6201134Y-14361984D02*
X6182086Y-14352460D01*
X6182086Y-14352460D02*
X6172563Y-14342936D01*
X6172563Y-14342936D02*
X6163039Y-14323888D01*
X6163039Y-14323888D02*
X6153515Y-14285793D01*
X6153515Y-14285793D02*
X6153515Y-14238174D01*
X6153515Y-14238174D02*
X6163039Y-14200079D01*
X6163039Y-14200079D02*
X6172563Y-14181031D01*
X6172563Y-14181031D02*
X6182086Y-14171508D01*
X6182086Y-14171508D02*
X6201134Y-14161984D01*
X6353515Y-14342936D02*
X6363039Y-14352460D01*
X6363039Y-14352460D02*
X6353515Y-14361984D01*
X6353515Y-14361984D02*
X6343991Y-14352460D01*
X6343991Y-14352460D02*
X6353515Y-14342936D01*
X6353515Y-14342936D02*
X6353515Y-14361984D01*
X6486848Y-14161984D02*
X6505896Y-14161984D01*
X6505896Y-14161984D02*
X6524944Y-14171508D01*
X6524944Y-14171508D02*
X6534467Y-14181031D01*
X6534467Y-14181031D02*
X6543991Y-14200079D01*
X6543991Y-14200079D02*
X6553515Y-14238174D01*
X6553515Y-14238174D02*
X6553515Y-14285793D01*
X6553515Y-14285793D02*
X6543991Y-14323888D01*
X6543991Y-14323888D02*
X6534467Y-14342936D01*
X6534467Y-14342936D02*
X6524944Y-14352460D01*
X6524944Y-14352460D02*
X6505896Y-14361984D01*
X6505896Y-14361984D02*
X6486848Y-14361984D01*
X6486848Y-14361984D02*
X6467801Y-14352460D01*
X6467801Y-14352460D02*
X6458277Y-14342936D01*
X6458277Y-14342936D02*
X6448753Y-14323888D01*
X6448753Y-14323888D02*
X6439229Y-14285793D01*
X6439229Y-14285793D02*
X6439229Y-14238174D01*
X6439229Y-14238174D02*
X6448753Y-14200079D01*
X6448753Y-14200079D02*
X6458277Y-14181031D01*
X6458277Y-14181031D02*
X6467801Y-14171508D01*
X6467801Y-14171508D02*
X6486848Y-14161984D01*
X6620182Y-14161984D02*
X6743991Y-14161984D01*
X6743991Y-14161984D02*
X6677325Y-14238174D01*
X6677325Y-14238174D02*
X6705896Y-14238174D01*
X6705896Y-14238174D02*
X6724944Y-14247698D01*
X6724944Y-14247698D02*
X6734467Y-14257222D01*
X6734467Y-14257222D02*
X6743991Y-14276269D01*
X6743991Y-14276269D02*
X6743991Y-14323888D01*
X6743991Y-14323888D02*
X6734467Y-14342936D01*
X6734467Y-14342936D02*
X6724944Y-14352460D01*
X6724944Y-14352460D02*
X6705896Y-14361984D01*
X6705896Y-14361984D02*
X6648753Y-14361984D01*
X6648753Y-14361984D02*
X6629706Y-14352460D01*
X6629706Y-14352460D02*
X6620182Y-14342936D01*
X6820182Y-14181031D02*
X6829706Y-14171508D01*
X6829706Y-14171508D02*
X6848753Y-14161984D01*
X6848753Y-14161984D02*
X6896372Y-14161984D01*
X6896372Y-14161984D02*
X6915420Y-14171508D01*
X6915420Y-14171508D02*
X6924944Y-14181031D01*
X6924944Y-14181031D02*
X6934467Y-14200079D01*
X6934467Y-14200079D02*
X6934467Y-14219127D01*
X6934467Y-14219127D02*
X6924944Y-14247698D01*
X6924944Y-14247698D02*
X6810658Y-14361984D01*
X6810658Y-14361984D02*
X6934467Y-14361984D01*
X7058277Y-14161984D02*
X7077325Y-14161984D01*
X7077325Y-14161984D02*
X7096372Y-14171508D01*
X7096372Y-14171508D02*
X7105896Y-14181031D01*
X7105896Y-14181031D02*
X7115420Y-14200079D01*
X7115420Y-14200079D02*
X7124944Y-14238174D01*
X7124944Y-14238174D02*
X7124944Y-14285793D01*
X7124944Y-14285793D02*
X7115420Y-14323888D01*
X7115420Y-14323888D02*
X7105896Y-14342936D01*
X7105896Y-14342936D02*
X7096372Y-14352460D01*
X7096372Y-14352460D02*
X7077325Y-14361984D01*
X7077325Y-14361984D02*
X7058277Y-14361984D01*
X7058277Y-14361984D02*
X7039229Y-14352460D01*
X7039229Y-14352460D02*
X7029706Y-14342936D01*
X7029706Y-14342936D02*
X7020182Y-14323888D01*
X7020182Y-14323888D02*
X7010658Y-14285793D01*
X7010658Y-14285793D02*
X7010658Y-14238174D01*
X7010658Y-14238174D02*
X7020182Y-14200079D01*
X7020182Y-14200079D02*
X7029706Y-14181031D01*
X7029706Y-14181031D02*
X7039229Y-14171508D01*
X7039229Y-14171508D02*
X7058277Y-14161984D01*
X7201134Y-14161984D02*
X7201134Y-14200079D01*
X7277325Y-14161984D02*
X7277325Y-14200079D01*
X7572563Y-14438174D02*
X7563039Y-14428650D01*
X7563039Y-14428650D02*
X7543991Y-14400079D01*
X7543991Y-14400079D02*
X7534468Y-14381031D01*
X7534468Y-14381031D02*
X7524944Y-14352460D01*
X7524944Y-14352460D02*
X7515420Y-14304841D01*
X7515420Y-14304841D02*
X7515420Y-14266746D01*
X7515420Y-14266746D02*
X7524944Y-14219127D01*
X7524944Y-14219127D02*
X7534468Y-14190555D01*
X7534468Y-14190555D02*
X7543991Y-14171508D01*
X7543991Y-14171508D02*
X7563039Y-14142936D01*
X7563039Y-14142936D02*
X7572563Y-14133412D01*
X7639229Y-14181031D02*
X7648753Y-14171508D01*
X7648753Y-14171508D02*
X7667801Y-14161984D01*
X7667801Y-14161984D02*
X7715420Y-14161984D01*
X7715420Y-14161984D02*
X7734468Y-14171508D01*
X7734468Y-14171508D02*
X7743991Y-14181031D01*
X7743991Y-14181031D02*
X7753515Y-14200079D01*
X7753515Y-14200079D02*
X7753515Y-14219127D01*
X7753515Y-14219127D02*
X7743991Y-14247698D01*
X7743991Y-14247698D02*
X7629706Y-14361984D01*
X7629706Y-14361984D02*
X7753515Y-14361984D01*
X7924944Y-14228650D02*
X7924944Y-14361984D01*
X7877325Y-14152460D02*
X7829706Y-14295317D01*
X7829706Y-14295317D02*
X7953515Y-14295317D01*
X8182087Y-14361984D02*
X8182087Y-14161984D01*
X8267801Y-14361984D02*
X8267801Y-14257222D01*
X8267801Y-14257222D02*
X8258277Y-14238174D01*
X8258277Y-14238174D02*
X8239230Y-14228650D01*
X8239230Y-14228650D02*
X8210658Y-14228650D01*
X8210658Y-14228650D02*
X8191610Y-14238174D01*
X8191610Y-14238174D02*
X8182087Y-14247698D01*
X8391611Y-14361984D02*
X8372563Y-14352460D01*
X8372563Y-14352460D02*
X8363039Y-14342936D01*
X8363039Y-14342936D02*
X8353515Y-14323888D01*
X8353515Y-14323888D02*
X8353515Y-14266746D01*
X8353515Y-14266746D02*
X8363039Y-14247698D01*
X8363039Y-14247698D02*
X8372563Y-14238174D01*
X8372563Y-14238174D02*
X8391611Y-14228650D01*
X8391611Y-14228650D02*
X8420182Y-14228650D01*
X8420182Y-14228650D02*
X8439230Y-14238174D01*
X8439230Y-14238174D02*
X8448753Y-14247698D01*
X8448753Y-14247698D02*
X8458277Y-14266746D01*
X8458277Y-14266746D02*
X8458277Y-14323888D01*
X8458277Y-14323888D02*
X8448753Y-14342936D01*
X8448753Y-14342936D02*
X8439230Y-14352460D01*
X8439230Y-14352460D02*
X8420182Y-14361984D01*
X8420182Y-14361984D02*
X8391611Y-14361984D01*
X8572563Y-14361984D02*
X8553515Y-14352460D01*
X8553515Y-14352460D02*
X8543992Y-14333412D01*
X8543992Y-14333412D02*
X8543992Y-14161984D01*
X8724944Y-14352460D02*
X8705896Y-14361984D01*
X8705896Y-14361984D02*
X8667801Y-14361984D01*
X8667801Y-14361984D02*
X8648753Y-14352460D01*
X8648753Y-14352460D02*
X8639230Y-14333412D01*
X8639230Y-14333412D02*
X8639230Y-14257222D01*
X8639230Y-14257222D02*
X8648753Y-14238174D01*
X8648753Y-14238174D02*
X8667801Y-14228650D01*
X8667801Y-14228650D02*
X8705896Y-14228650D01*
X8705896Y-14228650D02*
X8724944Y-14238174D01*
X8724944Y-14238174D02*
X8734468Y-14257222D01*
X8734468Y-14257222D02*
X8734468Y-14276269D01*
X8734468Y-14276269D02*
X8639230Y-14295317D01*
X8810658Y-14352460D02*
X8829706Y-14361984D01*
X8829706Y-14361984D02*
X8867801Y-14361984D01*
X8867801Y-14361984D02*
X8886849Y-14352460D01*
X8886849Y-14352460D02*
X8896373Y-14333412D01*
X8896373Y-14333412D02*
X8896373Y-14323888D01*
X8896373Y-14323888D02*
X8886849Y-14304841D01*
X8886849Y-14304841D02*
X8867801Y-14295317D01*
X8867801Y-14295317D02*
X8839230Y-14295317D01*
X8839230Y-14295317D02*
X8820182Y-14285793D01*
X8820182Y-14285793D02*
X8810658Y-14266746D01*
X8810658Y-14266746D02*
X8810658Y-14257222D01*
X8810658Y-14257222D02*
X8820182Y-14238174D01*
X8820182Y-14238174D02*
X8839230Y-14228650D01*
X8839230Y-14228650D02*
X8867801Y-14228650D01*
X8867801Y-14228650D02*
X8886849Y-14238174D01*
X8963039Y-14438174D02*
X8972563Y-14428650D01*
X8972563Y-14428650D02*
X8991611Y-14400079D01*
X8991611Y-14400079D02*
X9001134Y-14381031D01*
X9001134Y-14381031D02*
X9010658Y-14352460D01*
X9010658Y-14352460D02*
X9020182Y-14304841D01*
X9020182Y-14304841D02*
X9020182Y-14266746D01*
X9020182Y-14266746D02*
X9010658Y-14219127D01*
X9010658Y-14219127D02*
X9001134Y-14190555D01*
X9001134Y-14190555D02*
X8991611Y-14171508D01*
X8991611Y-14171508D02*
X8972563Y-14142936D01*
X8972563Y-14142936D02*
X8963039Y-14133412D01*
D12*
X3982856Y-14569856D02*
X3982856Y-14499144D01*
X3912144Y-14499144D01*
X3912144Y-14569856D01*
X3982856Y-14569856D01*
D11*
X4363039Y-14625984D02*
X4248753Y-14625984D01*
X4305896Y-14625984D02*
X4305896Y-14425984D01*
X4305896Y-14425984D02*
X4286848Y-14454555D01*
X4286848Y-14454555D02*
X4267801Y-14473603D01*
X4267801Y-14473603D02*
X4248753Y-14483127D01*
X4448753Y-14606936D02*
X4458277Y-14616460D01*
X4458277Y-14616460D02*
X4448753Y-14625984D01*
X4448753Y-14625984D02*
X4439229Y-14616460D01*
X4439229Y-14616460D02*
X4448753Y-14606936D01*
X4448753Y-14606936D02*
X4448753Y-14625984D01*
X4582086Y-14425984D02*
X4601134Y-14425984D01*
X4601134Y-14425984D02*
X4620182Y-14435508D01*
X4620182Y-14435508D02*
X4629705Y-14445031D01*
X4629705Y-14445031D02*
X4639229Y-14464079D01*
X4639229Y-14464079D02*
X4648753Y-14502174D01*
X4648753Y-14502174D02*
X4648753Y-14549793D01*
X4648753Y-14549793D02*
X4639229Y-14587888D01*
X4639229Y-14587888D02*
X4629705Y-14606936D01*
X4629705Y-14606936D02*
X4620182Y-14616460D01*
X4620182Y-14616460D02*
X4601134Y-14625984D01*
X4601134Y-14625984D02*
X4582086Y-14625984D01*
X4582086Y-14625984D02*
X4563039Y-14616460D01*
X4563039Y-14616460D02*
X4553515Y-14606936D01*
X4553515Y-14606936D02*
X4543991Y-14587888D01*
X4543991Y-14587888D02*
X4534467Y-14549793D01*
X4534467Y-14549793D02*
X4534467Y-14502174D01*
X4534467Y-14502174D02*
X4543991Y-14464079D01*
X4543991Y-14464079D02*
X4553515Y-14445031D01*
X4553515Y-14445031D02*
X4563039Y-14435508D01*
X4563039Y-14435508D02*
X4582086Y-14425984D01*
X4772563Y-14425984D02*
X4791610Y-14425984D01*
X4791610Y-14425984D02*
X4810658Y-14435508D01*
X4810658Y-14435508D02*
X4820182Y-14445031D01*
X4820182Y-14445031D02*
X4829705Y-14464079D01*
X4829705Y-14464079D02*
X4839229Y-14502174D01*
X4839229Y-14502174D02*
X4839229Y-14549793D01*
X4839229Y-14549793D02*
X4829705Y-14587888D01*
X4829705Y-14587888D02*
X4820182Y-14606936D01*
X4820182Y-14606936D02*
X4810658Y-14616460D01*
X4810658Y-14616460D02*
X4791610Y-14625984D01*
X4791610Y-14625984D02*
X4772563Y-14625984D01*
X4772563Y-14625984D02*
X4753515Y-14616460D01*
X4753515Y-14616460D02*
X4743991Y-14606936D01*
X4743991Y-14606936D02*
X4734467Y-14587888D01*
X4734467Y-14587888D02*
X4724944Y-14549793D01*
X4724944Y-14549793D02*
X4724944Y-14502174D01*
X4724944Y-14502174D02*
X4734467Y-14464079D01*
X4734467Y-14464079D02*
X4743991Y-14445031D01*
X4743991Y-14445031D02*
X4753515Y-14435508D01*
X4753515Y-14435508D02*
X4772563Y-14425984D01*
X4963039Y-14425984D02*
X4982086Y-14425984D01*
X4982086Y-14425984D02*
X5001134Y-14435508D01*
X5001134Y-14435508D02*
X5010658Y-14445031D01*
X5010658Y-14445031D02*
X5020182Y-14464079D01*
X5020182Y-14464079D02*
X5029705Y-14502174D01*
X5029705Y-14502174D02*
X5029705Y-14549793D01*
X5029705Y-14549793D02*
X5020182Y-14587888D01*
X5020182Y-14587888D02*
X5010658Y-14606936D01*
X5010658Y-14606936D02*
X5001134Y-14616460D01*
X5001134Y-14616460D02*
X4982086Y-14625984D01*
X4982086Y-14625984D02*
X4963039Y-14625984D01*
X4963039Y-14625984D02*
X4943991Y-14616460D01*
X4943991Y-14616460D02*
X4934467Y-14606936D01*
X4934467Y-14606936D02*
X4924944Y-14587888D01*
X4924944Y-14587888D02*
X4915420Y-14549793D01*
X4915420Y-14549793D02*
X4915420Y-14502174D01*
X4915420Y-14502174D02*
X4924944Y-14464079D01*
X4924944Y-14464079D02*
X4934467Y-14445031D01*
X4934467Y-14445031D02*
X4943991Y-14435508D01*
X4943991Y-14435508D02*
X4963039Y-14425984D01*
X5115420Y-14625984D02*
X5115420Y-14492650D01*
X5115420Y-14511698D02*
X5124944Y-14502174D01*
X5124944Y-14502174D02*
X5143991Y-14492650D01*
X5143991Y-14492650D02*
X5172563Y-14492650D01*
X5172563Y-14492650D02*
X5191610Y-14502174D01*
X5191610Y-14502174D02*
X5201134Y-14521222D01*
X5201134Y-14521222D02*
X5201134Y-14625984D01*
X5201134Y-14521222D02*
X5210658Y-14502174D01*
X5210658Y-14502174D02*
X5229705Y-14492650D01*
X5229705Y-14492650D02*
X5258277Y-14492650D01*
X5258277Y-14492650D02*
X5277325Y-14502174D01*
X5277325Y-14502174D02*
X5286848Y-14521222D01*
X5286848Y-14521222D02*
X5286848Y-14625984D01*
X5382086Y-14625984D02*
X5382086Y-14492650D01*
X5382086Y-14511698D02*
X5391610Y-14502174D01*
X5391610Y-14502174D02*
X5410658Y-14492650D01*
X5410658Y-14492650D02*
X5439229Y-14492650D01*
X5439229Y-14492650D02*
X5458277Y-14502174D01*
X5458277Y-14502174D02*
X5467801Y-14521222D01*
X5467801Y-14521222D02*
X5467801Y-14625984D01*
X5467801Y-14521222D02*
X5477325Y-14502174D01*
X5477325Y-14502174D02*
X5496372Y-14492650D01*
X5496372Y-14492650D02*
X5524944Y-14492650D01*
X5524944Y-14492650D02*
X5543991Y-14502174D01*
X5543991Y-14502174D02*
X5553515Y-14521222D01*
X5553515Y-14521222D02*
X5553515Y-14625984D01*
X5943991Y-14416460D02*
X5772563Y-14673603D01*
X6201134Y-14425984D02*
X6220182Y-14425984D01*
X6220182Y-14425984D02*
X6239229Y-14435508D01*
X6239229Y-14435508D02*
X6248753Y-14445031D01*
X6248753Y-14445031D02*
X6258277Y-14464079D01*
X6258277Y-14464079D02*
X6267801Y-14502174D01*
X6267801Y-14502174D02*
X6267801Y-14549793D01*
X6267801Y-14549793D02*
X6258277Y-14587888D01*
X6258277Y-14587888D02*
X6248753Y-14606936D01*
X6248753Y-14606936D02*
X6239229Y-14616460D01*
X6239229Y-14616460D02*
X6220182Y-14625984D01*
X6220182Y-14625984D02*
X6201134Y-14625984D01*
X6201134Y-14625984D02*
X6182086Y-14616460D01*
X6182086Y-14616460D02*
X6172563Y-14606936D01*
X6172563Y-14606936D02*
X6163039Y-14587888D01*
X6163039Y-14587888D02*
X6153515Y-14549793D01*
X6153515Y-14549793D02*
X6153515Y-14502174D01*
X6153515Y-14502174D02*
X6163039Y-14464079D01*
X6163039Y-14464079D02*
X6172563Y-14445031D01*
X6172563Y-14445031D02*
X6182086Y-14435508D01*
X6182086Y-14435508D02*
X6201134Y-14425984D01*
X6353515Y-14606936D02*
X6363039Y-14616460D01*
X6363039Y-14616460D02*
X6353515Y-14625984D01*
X6353515Y-14625984D02*
X6343991Y-14616460D01*
X6343991Y-14616460D02*
X6353515Y-14606936D01*
X6353515Y-14606936D02*
X6353515Y-14625984D01*
X6486848Y-14425984D02*
X6505896Y-14425984D01*
X6505896Y-14425984D02*
X6524944Y-14435508D01*
X6524944Y-14435508D02*
X6534467Y-14445031D01*
X6534467Y-14445031D02*
X6543991Y-14464079D01*
X6543991Y-14464079D02*
X6553515Y-14502174D01*
X6553515Y-14502174D02*
X6553515Y-14549793D01*
X6553515Y-14549793D02*
X6543991Y-14587888D01*
X6543991Y-14587888D02*
X6534467Y-14606936D01*
X6534467Y-14606936D02*
X6524944Y-14616460D01*
X6524944Y-14616460D02*
X6505896Y-14625984D01*
X6505896Y-14625984D02*
X6486848Y-14625984D01*
X6486848Y-14625984D02*
X6467801Y-14616460D01*
X6467801Y-14616460D02*
X6458277Y-14606936D01*
X6458277Y-14606936D02*
X6448753Y-14587888D01*
X6448753Y-14587888D02*
X6439229Y-14549793D01*
X6439229Y-14549793D02*
X6439229Y-14502174D01*
X6439229Y-14502174D02*
X6448753Y-14464079D01*
X6448753Y-14464079D02*
X6458277Y-14445031D01*
X6458277Y-14445031D02*
X6467801Y-14435508D01*
X6467801Y-14435508D02*
X6486848Y-14425984D01*
X6620182Y-14425984D02*
X6743991Y-14425984D01*
X6743991Y-14425984D02*
X6677325Y-14502174D01*
X6677325Y-14502174D02*
X6705896Y-14502174D01*
X6705896Y-14502174D02*
X6724944Y-14511698D01*
X6724944Y-14511698D02*
X6734467Y-14521222D01*
X6734467Y-14521222D02*
X6743991Y-14540269D01*
X6743991Y-14540269D02*
X6743991Y-14587888D01*
X6743991Y-14587888D02*
X6734467Y-14606936D01*
X6734467Y-14606936D02*
X6724944Y-14616460D01*
X6724944Y-14616460D02*
X6705896Y-14625984D01*
X6705896Y-14625984D02*
X6648753Y-14625984D01*
X6648753Y-14625984D02*
X6629706Y-14616460D01*
X6629706Y-14616460D02*
X6620182Y-14606936D01*
X6839229Y-14625984D02*
X6877325Y-14625984D01*
X6877325Y-14625984D02*
X6896372Y-14616460D01*
X6896372Y-14616460D02*
X6905896Y-14606936D01*
X6905896Y-14606936D02*
X6924944Y-14578365D01*
X6924944Y-14578365D02*
X6934467Y-14540269D01*
X6934467Y-14540269D02*
X6934467Y-14464079D01*
X6934467Y-14464079D02*
X6924944Y-14445031D01*
X6924944Y-14445031D02*
X6915420Y-14435508D01*
X6915420Y-14435508D02*
X6896372Y-14425984D01*
X6896372Y-14425984D02*
X6858277Y-14425984D01*
X6858277Y-14425984D02*
X6839229Y-14435508D01*
X6839229Y-14435508D02*
X6829706Y-14445031D01*
X6829706Y-14445031D02*
X6820182Y-14464079D01*
X6820182Y-14464079D02*
X6820182Y-14511698D01*
X6820182Y-14511698D02*
X6829706Y-14530746D01*
X6829706Y-14530746D02*
X6839229Y-14540269D01*
X6839229Y-14540269D02*
X6858277Y-14549793D01*
X6858277Y-14549793D02*
X6896372Y-14549793D01*
X6896372Y-14549793D02*
X6915420Y-14540269D01*
X6915420Y-14540269D02*
X6924944Y-14530746D01*
X6924944Y-14530746D02*
X6934467Y-14511698D01*
X7105896Y-14492650D02*
X7105896Y-14625984D01*
X7058277Y-14416460D02*
X7010658Y-14559317D01*
X7010658Y-14559317D02*
X7134467Y-14559317D01*
X7201134Y-14425984D02*
X7201134Y-14464079D01*
X7277325Y-14425984D02*
X7277325Y-14464079D01*
X7572563Y-14702174D02*
X7563039Y-14692650D01*
X7563039Y-14692650D02*
X7543991Y-14664079D01*
X7543991Y-14664079D02*
X7534468Y-14645031D01*
X7534468Y-14645031D02*
X7524944Y-14616460D01*
X7524944Y-14616460D02*
X7515420Y-14568841D01*
X7515420Y-14568841D02*
X7515420Y-14530746D01*
X7515420Y-14530746D02*
X7524944Y-14483127D01*
X7524944Y-14483127D02*
X7534468Y-14454555D01*
X7534468Y-14454555D02*
X7543991Y-14435508D01*
X7543991Y-14435508D02*
X7563039Y-14406936D01*
X7563039Y-14406936D02*
X7572563Y-14397412D01*
X7743991Y-14425984D02*
X7648753Y-14425984D01*
X7648753Y-14425984D02*
X7639229Y-14521222D01*
X7639229Y-14521222D02*
X7648753Y-14511698D01*
X7648753Y-14511698D02*
X7667801Y-14502174D01*
X7667801Y-14502174D02*
X7715420Y-14502174D01*
X7715420Y-14502174D02*
X7734468Y-14511698D01*
X7734468Y-14511698D02*
X7743991Y-14521222D01*
X7743991Y-14521222D02*
X7753515Y-14540269D01*
X7753515Y-14540269D02*
X7753515Y-14587888D01*
X7753515Y-14587888D02*
X7743991Y-14606936D01*
X7743991Y-14606936D02*
X7734468Y-14616460D01*
X7734468Y-14616460D02*
X7715420Y-14625984D01*
X7715420Y-14625984D02*
X7667801Y-14625984D01*
X7667801Y-14625984D02*
X7648753Y-14616460D01*
X7648753Y-14616460D02*
X7639229Y-14606936D01*
X7877325Y-14425984D02*
X7896372Y-14425984D01*
X7896372Y-14425984D02*
X7915420Y-14435508D01*
X7915420Y-14435508D02*
X7924944Y-14445031D01*
X7924944Y-14445031D02*
X7934468Y-14464079D01*
X7934468Y-14464079D02*
X7943991Y-14502174D01*
X7943991Y-14502174D02*
X7943991Y-14549793D01*
X7943991Y-14549793D02*
X7934468Y-14587888D01*
X7934468Y-14587888D02*
X7924944Y-14606936D01*
X7924944Y-14606936D02*
X7915420Y-14616460D01*
X7915420Y-14616460D02*
X7896372Y-14625984D01*
X7896372Y-14625984D02*
X7877325Y-14625984D01*
X7877325Y-14625984D02*
X7858277Y-14616460D01*
X7858277Y-14616460D02*
X7848753Y-14606936D01*
X7848753Y-14606936D02*
X7839229Y-14587888D01*
X7839229Y-14587888D02*
X7829706Y-14549793D01*
X7829706Y-14549793D02*
X7829706Y-14502174D01*
X7829706Y-14502174D02*
X7839229Y-14464079D01*
X7839229Y-14464079D02*
X7848753Y-14445031D01*
X7848753Y-14445031D02*
X7858277Y-14435508D01*
X7858277Y-14435508D02*
X7877325Y-14425984D01*
X8182087Y-14625984D02*
X8182087Y-14425984D01*
X8267801Y-14625984D02*
X8267801Y-14521222D01*
X8267801Y-14521222D02*
X8258277Y-14502174D01*
X8258277Y-14502174D02*
X8239230Y-14492650D01*
X8239230Y-14492650D02*
X8210658Y-14492650D01*
X8210658Y-14492650D02*
X8191610Y-14502174D01*
X8191610Y-14502174D02*
X8182087Y-14511698D01*
X8391611Y-14625984D02*
X8372563Y-14616460D01*
X8372563Y-14616460D02*
X8363039Y-14606936D01*
X8363039Y-14606936D02*
X8353515Y-14587888D01*
X8353515Y-14587888D02*
X8353515Y-14530746D01*
X8353515Y-14530746D02*
X8363039Y-14511698D01*
X8363039Y-14511698D02*
X8372563Y-14502174D01*
X8372563Y-14502174D02*
X8391611Y-14492650D01*
X8391611Y-14492650D02*
X8420182Y-14492650D01*
X8420182Y-14492650D02*
X8439230Y-14502174D01*
X8439230Y-14502174D02*
X8448753Y-14511698D01*
X8448753Y-14511698D02*
X8458277Y-14530746D01*
X8458277Y-14530746D02*
X8458277Y-14587888D01*
X8458277Y-14587888D02*
X8448753Y-14606936D01*
X8448753Y-14606936D02*
X8439230Y-14616460D01*
X8439230Y-14616460D02*
X8420182Y-14625984D01*
X8420182Y-14625984D02*
X8391611Y-14625984D01*
X8572563Y-14625984D02*
X8553515Y-14616460D01*
X8553515Y-14616460D02*
X8543992Y-14597412D01*
X8543992Y-14597412D02*
X8543992Y-14425984D01*
X8724944Y-14616460D02*
X8705896Y-14625984D01*
X8705896Y-14625984D02*
X8667801Y-14625984D01*
X8667801Y-14625984D02*
X8648753Y-14616460D01*
X8648753Y-14616460D02*
X8639230Y-14597412D01*
X8639230Y-14597412D02*
X8639230Y-14521222D01*
X8639230Y-14521222D02*
X8648753Y-14502174D01*
X8648753Y-14502174D02*
X8667801Y-14492650D01*
X8667801Y-14492650D02*
X8705896Y-14492650D01*
X8705896Y-14492650D02*
X8724944Y-14502174D01*
X8724944Y-14502174D02*
X8734468Y-14521222D01*
X8734468Y-14521222D02*
X8734468Y-14540269D01*
X8734468Y-14540269D02*
X8639230Y-14559317D01*
X8810658Y-14616460D02*
X8829706Y-14625984D01*
X8829706Y-14625984D02*
X8867801Y-14625984D01*
X8867801Y-14625984D02*
X8886849Y-14616460D01*
X8886849Y-14616460D02*
X8896373Y-14597412D01*
X8896373Y-14597412D02*
X8896373Y-14587888D01*
X8896373Y-14587888D02*
X8886849Y-14568841D01*
X8886849Y-14568841D02*
X8867801Y-14559317D01*
X8867801Y-14559317D02*
X8839230Y-14559317D01*
X8839230Y-14559317D02*
X8820182Y-14549793D01*
X8820182Y-14549793D02*
X8810658Y-14530746D01*
X8810658Y-14530746D02*
X8810658Y-14521222D01*
X8810658Y-14521222D02*
X8820182Y-14502174D01*
X8820182Y-14502174D02*
X8839230Y-14492650D01*
X8839230Y-14492650D02*
X8867801Y-14492650D01*
X8867801Y-14492650D02*
X8886849Y-14502174D01*
X8963039Y-14702174D02*
X8972563Y-14692650D01*
X8972563Y-14692650D02*
X8991611Y-14664079D01*
X8991611Y-14664079D02*
X9001134Y-14645031D01*
X9001134Y-14645031D02*
X9010658Y-14616460D01*
X9010658Y-14616460D02*
X9020182Y-14568841D01*
X9020182Y-14568841D02*
X9020182Y-14530746D01*
X9020182Y-14530746D02*
X9010658Y-14483127D01*
X9010658Y-14483127D02*
X9001134Y-14454555D01*
X9001134Y-14454555D02*
X8991611Y-14435508D01*
X8991611Y-14435508D02*
X8972563Y-14406936D01*
X8972563Y-14406936D02*
X8963039Y-14397412D01*
D13*
X3932500Y-14863500D02*
X3997500Y-14798500D01*
X3932500Y-14733500D01*
X3867500Y-14798500D01*
X3932500Y-14863500D01*
D11*
X4363039Y-14889984D02*
X4248753Y-14889984D01*
X4305896Y-14889984D02*
X4305896Y-14689984D01*
X4305896Y-14689984D02*
X4286848Y-14718555D01*
X4286848Y-14718555D02*
X4267801Y-14737603D01*
X4267801Y-14737603D02*
X4248753Y-14747127D01*
X4448753Y-14870936D02*
X4458277Y-14880460D01*
X4458277Y-14880460D02*
X4448753Y-14889984D01*
X4448753Y-14889984D02*
X4439229Y-14880460D01*
X4439229Y-14880460D02*
X4448753Y-14870936D01*
X4448753Y-14870936D02*
X4448753Y-14889984D01*
X4524944Y-14689984D02*
X4648753Y-14689984D01*
X4648753Y-14689984D02*
X4582086Y-14766174D01*
X4582086Y-14766174D02*
X4610658Y-14766174D01*
X4610658Y-14766174D02*
X4629705Y-14775698D01*
X4629705Y-14775698D02*
X4639229Y-14785222D01*
X4639229Y-14785222D02*
X4648753Y-14804269D01*
X4648753Y-14804269D02*
X4648753Y-14851888D01*
X4648753Y-14851888D02*
X4639229Y-14870936D01*
X4639229Y-14870936D02*
X4629705Y-14880460D01*
X4629705Y-14880460D02*
X4610658Y-14889984D01*
X4610658Y-14889984D02*
X4553515Y-14889984D01*
X4553515Y-14889984D02*
X4534467Y-14880460D01*
X4534467Y-14880460D02*
X4524944Y-14870936D01*
X4772563Y-14689984D02*
X4791610Y-14689984D01*
X4791610Y-14689984D02*
X4810658Y-14699508D01*
X4810658Y-14699508D02*
X4820182Y-14709031D01*
X4820182Y-14709031D02*
X4829705Y-14728079D01*
X4829705Y-14728079D02*
X4839229Y-14766174D01*
X4839229Y-14766174D02*
X4839229Y-14813793D01*
X4839229Y-14813793D02*
X4829705Y-14851888D01*
X4829705Y-14851888D02*
X4820182Y-14870936D01*
X4820182Y-14870936D02*
X4810658Y-14880460D01*
X4810658Y-14880460D02*
X4791610Y-14889984D01*
X4791610Y-14889984D02*
X4772563Y-14889984D01*
X4772563Y-14889984D02*
X4753515Y-14880460D01*
X4753515Y-14880460D02*
X4743991Y-14870936D01*
X4743991Y-14870936D02*
X4734467Y-14851888D01*
X4734467Y-14851888D02*
X4724944Y-14813793D01*
X4724944Y-14813793D02*
X4724944Y-14766174D01*
X4724944Y-14766174D02*
X4734467Y-14728079D01*
X4734467Y-14728079D02*
X4743991Y-14709031D01*
X4743991Y-14709031D02*
X4753515Y-14699508D01*
X4753515Y-14699508D02*
X4772563Y-14689984D01*
X4963039Y-14689984D02*
X4982086Y-14689984D01*
X4982086Y-14689984D02*
X5001134Y-14699508D01*
X5001134Y-14699508D02*
X5010658Y-14709031D01*
X5010658Y-14709031D02*
X5020182Y-14728079D01*
X5020182Y-14728079D02*
X5029705Y-14766174D01*
X5029705Y-14766174D02*
X5029705Y-14813793D01*
X5029705Y-14813793D02*
X5020182Y-14851888D01*
X5020182Y-14851888D02*
X5010658Y-14870936D01*
X5010658Y-14870936D02*
X5001134Y-14880460D01*
X5001134Y-14880460D02*
X4982086Y-14889984D01*
X4982086Y-14889984D02*
X4963039Y-14889984D01*
X4963039Y-14889984D02*
X4943991Y-14880460D01*
X4943991Y-14880460D02*
X4934467Y-14870936D01*
X4934467Y-14870936D02*
X4924944Y-14851888D01*
X4924944Y-14851888D02*
X4915420Y-14813793D01*
X4915420Y-14813793D02*
X4915420Y-14766174D01*
X4915420Y-14766174D02*
X4924944Y-14728079D01*
X4924944Y-14728079D02*
X4934467Y-14709031D01*
X4934467Y-14709031D02*
X4943991Y-14699508D01*
X4943991Y-14699508D02*
X4963039Y-14689984D01*
X5115420Y-14889984D02*
X5115420Y-14756650D01*
X5115420Y-14775698D02*
X5124944Y-14766174D01*
X5124944Y-14766174D02*
X5143991Y-14756650D01*
X5143991Y-14756650D02*
X5172563Y-14756650D01*
X5172563Y-14756650D02*
X5191610Y-14766174D01*
X5191610Y-14766174D02*
X5201134Y-14785222D01*
X5201134Y-14785222D02*
X5201134Y-14889984D01*
X5201134Y-14785222D02*
X5210658Y-14766174D01*
X5210658Y-14766174D02*
X5229705Y-14756650D01*
X5229705Y-14756650D02*
X5258277Y-14756650D01*
X5258277Y-14756650D02*
X5277325Y-14766174D01*
X5277325Y-14766174D02*
X5286848Y-14785222D01*
X5286848Y-14785222D02*
X5286848Y-14889984D01*
X5382086Y-14889984D02*
X5382086Y-14756650D01*
X5382086Y-14775698D02*
X5391610Y-14766174D01*
X5391610Y-14766174D02*
X5410658Y-14756650D01*
X5410658Y-14756650D02*
X5439229Y-14756650D01*
X5439229Y-14756650D02*
X5458277Y-14766174D01*
X5458277Y-14766174D02*
X5467801Y-14785222D01*
X5467801Y-14785222D02*
X5467801Y-14889984D01*
X5467801Y-14785222D02*
X5477325Y-14766174D01*
X5477325Y-14766174D02*
X5496372Y-14756650D01*
X5496372Y-14756650D02*
X5524944Y-14756650D01*
X5524944Y-14756650D02*
X5543991Y-14766174D01*
X5543991Y-14766174D02*
X5553515Y-14785222D01*
X5553515Y-14785222D02*
X5553515Y-14889984D01*
X5943991Y-14680460D02*
X5772563Y-14937603D01*
X6201134Y-14689984D02*
X6220182Y-14689984D01*
X6220182Y-14689984D02*
X6239229Y-14699508D01*
X6239229Y-14699508D02*
X6248753Y-14709031D01*
X6248753Y-14709031D02*
X6258277Y-14728079D01*
X6258277Y-14728079D02*
X6267801Y-14766174D01*
X6267801Y-14766174D02*
X6267801Y-14813793D01*
X6267801Y-14813793D02*
X6258277Y-14851888D01*
X6258277Y-14851888D02*
X6248753Y-14870936D01*
X6248753Y-14870936D02*
X6239229Y-14880460D01*
X6239229Y-14880460D02*
X6220182Y-14889984D01*
X6220182Y-14889984D02*
X6201134Y-14889984D01*
X6201134Y-14889984D02*
X6182086Y-14880460D01*
X6182086Y-14880460D02*
X6172563Y-14870936D01*
X6172563Y-14870936D02*
X6163039Y-14851888D01*
X6163039Y-14851888D02*
X6153515Y-14813793D01*
X6153515Y-14813793D02*
X6153515Y-14766174D01*
X6153515Y-14766174D02*
X6163039Y-14728079D01*
X6163039Y-14728079D02*
X6172563Y-14709031D01*
X6172563Y-14709031D02*
X6182086Y-14699508D01*
X6182086Y-14699508D02*
X6201134Y-14689984D01*
X6353515Y-14870936D02*
X6363039Y-14880460D01*
X6363039Y-14880460D02*
X6353515Y-14889984D01*
X6353515Y-14889984D02*
X6343991Y-14880460D01*
X6343991Y-14880460D02*
X6353515Y-14870936D01*
X6353515Y-14870936D02*
X6353515Y-14889984D01*
X6486848Y-14689984D02*
X6505896Y-14689984D01*
X6505896Y-14689984D02*
X6524944Y-14699508D01*
X6524944Y-14699508D02*
X6534467Y-14709031D01*
X6534467Y-14709031D02*
X6543991Y-14728079D01*
X6543991Y-14728079D02*
X6553515Y-14766174D01*
X6553515Y-14766174D02*
X6553515Y-14813793D01*
X6553515Y-14813793D02*
X6543991Y-14851888D01*
X6543991Y-14851888D02*
X6534467Y-14870936D01*
X6534467Y-14870936D02*
X6524944Y-14880460D01*
X6524944Y-14880460D02*
X6505896Y-14889984D01*
X6505896Y-14889984D02*
X6486848Y-14889984D01*
X6486848Y-14889984D02*
X6467801Y-14880460D01*
X6467801Y-14880460D02*
X6458277Y-14870936D01*
X6458277Y-14870936D02*
X6448753Y-14851888D01*
X6448753Y-14851888D02*
X6439229Y-14813793D01*
X6439229Y-14813793D02*
X6439229Y-14766174D01*
X6439229Y-14766174D02*
X6448753Y-14728079D01*
X6448753Y-14728079D02*
X6458277Y-14709031D01*
X6458277Y-14709031D02*
X6467801Y-14699508D01*
X6467801Y-14699508D02*
X6486848Y-14689984D01*
X6734467Y-14689984D02*
X6639229Y-14689984D01*
X6639229Y-14689984D02*
X6629706Y-14785222D01*
X6629706Y-14785222D02*
X6639229Y-14775698D01*
X6639229Y-14775698D02*
X6658277Y-14766174D01*
X6658277Y-14766174D02*
X6705896Y-14766174D01*
X6705896Y-14766174D02*
X6724944Y-14775698D01*
X6724944Y-14775698D02*
X6734467Y-14785222D01*
X6734467Y-14785222D02*
X6743991Y-14804269D01*
X6743991Y-14804269D02*
X6743991Y-14851888D01*
X6743991Y-14851888D02*
X6734467Y-14870936D01*
X6734467Y-14870936D02*
X6724944Y-14880460D01*
X6724944Y-14880460D02*
X6705896Y-14889984D01*
X6705896Y-14889984D02*
X6658277Y-14889984D01*
X6658277Y-14889984D02*
X6639229Y-14880460D01*
X6639229Y-14880460D02*
X6629706Y-14870936D01*
X6934467Y-14889984D02*
X6820182Y-14889984D01*
X6877325Y-14889984D02*
X6877325Y-14689984D01*
X6877325Y-14689984D02*
X6858277Y-14718555D01*
X6858277Y-14718555D02*
X6839229Y-14737603D01*
X6839229Y-14737603D02*
X6820182Y-14747127D01*
X7010658Y-14709031D02*
X7020182Y-14699508D01*
X7020182Y-14699508D02*
X7039229Y-14689984D01*
X7039229Y-14689984D02*
X7086848Y-14689984D01*
X7086848Y-14689984D02*
X7105896Y-14699508D01*
X7105896Y-14699508D02*
X7115420Y-14709031D01*
X7115420Y-14709031D02*
X7124944Y-14728079D01*
X7124944Y-14728079D02*
X7124944Y-14747127D01*
X7124944Y-14747127D02*
X7115420Y-14775698D01*
X7115420Y-14775698D02*
X7001134Y-14889984D01*
X7001134Y-14889984D02*
X7124944Y-14889984D01*
X7201134Y-14689984D02*
X7201134Y-14728079D01*
X7277325Y-14689984D02*
X7277325Y-14728079D01*
X7572563Y-14966174D02*
X7563039Y-14956650D01*
X7563039Y-14956650D02*
X7543991Y-14928079D01*
X7543991Y-14928079D02*
X7534468Y-14909031D01*
X7534468Y-14909031D02*
X7524944Y-14880460D01*
X7524944Y-14880460D02*
X7515420Y-14832841D01*
X7515420Y-14832841D02*
X7515420Y-14794746D01*
X7515420Y-14794746D02*
X7524944Y-14747127D01*
X7524944Y-14747127D02*
X7534468Y-14718555D01*
X7534468Y-14718555D02*
X7543991Y-14699508D01*
X7543991Y-14699508D02*
X7563039Y-14670936D01*
X7563039Y-14670936D02*
X7572563Y-14661412D01*
X7639229Y-14709031D02*
X7648753Y-14699508D01*
X7648753Y-14699508D02*
X7667801Y-14689984D01*
X7667801Y-14689984D02*
X7715420Y-14689984D01*
X7715420Y-14689984D02*
X7734468Y-14699508D01*
X7734468Y-14699508D02*
X7743991Y-14709031D01*
X7743991Y-14709031D02*
X7753515Y-14728079D01*
X7753515Y-14728079D02*
X7753515Y-14747127D01*
X7753515Y-14747127D02*
X7743991Y-14775698D01*
X7743991Y-14775698D02*
X7629706Y-14889984D01*
X7629706Y-14889984D02*
X7753515Y-14889984D01*
X7991610Y-14889984D02*
X7991610Y-14689984D01*
X8077325Y-14889984D02*
X8077325Y-14785222D01*
X8077325Y-14785222D02*
X8067801Y-14766174D01*
X8067801Y-14766174D02*
X8048753Y-14756650D01*
X8048753Y-14756650D02*
X8020182Y-14756650D01*
X8020182Y-14756650D02*
X8001134Y-14766174D01*
X8001134Y-14766174D02*
X7991610Y-14775698D01*
X8201134Y-14889984D02*
X8182087Y-14880460D01*
X8182087Y-14880460D02*
X8172563Y-14870936D01*
X8172563Y-14870936D02*
X8163039Y-14851888D01*
X8163039Y-14851888D02*
X8163039Y-14794746D01*
X8163039Y-14794746D02*
X8172563Y-14775698D01*
X8172563Y-14775698D02*
X8182087Y-14766174D01*
X8182087Y-14766174D02*
X8201134Y-14756650D01*
X8201134Y-14756650D02*
X8229706Y-14756650D01*
X8229706Y-14756650D02*
X8248753Y-14766174D01*
X8248753Y-14766174D02*
X8258277Y-14775698D01*
X8258277Y-14775698D02*
X8267801Y-14794746D01*
X8267801Y-14794746D02*
X8267801Y-14851888D01*
X8267801Y-14851888D02*
X8258277Y-14870936D01*
X8258277Y-14870936D02*
X8248753Y-14880460D01*
X8248753Y-14880460D02*
X8229706Y-14889984D01*
X8229706Y-14889984D02*
X8201134Y-14889984D01*
X8382087Y-14889984D02*
X8363039Y-14880460D01*
X8363039Y-14880460D02*
X8353515Y-14861412D01*
X8353515Y-14861412D02*
X8353515Y-14689984D01*
X8534468Y-14880460D02*
X8515420Y-14889984D01*
X8515420Y-14889984D02*
X8477325Y-14889984D01*
X8477325Y-14889984D02*
X8458277Y-14880460D01*
X8458277Y-14880460D02*
X8448753Y-14861412D01*
X8448753Y-14861412D02*
X8448753Y-14785222D01*
X8448753Y-14785222D02*
X8458277Y-14766174D01*
X8458277Y-14766174D02*
X8477325Y-14756650D01*
X8477325Y-14756650D02*
X8515420Y-14756650D01*
X8515420Y-14756650D02*
X8534468Y-14766174D01*
X8534468Y-14766174D02*
X8543992Y-14785222D01*
X8543992Y-14785222D02*
X8543992Y-14804269D01*
X8543992Y-14804269D02*
X8448753Y-14823317D01*
X8620182Y-14880460D02*
X8639230Y-14889984D01*
X8639230Y-14889984D02*
X8677325Y-14889984D01*
X8677325Y-14889984D02*
X8696373Y-14880460D01*
X8696373Y-14880460D02*
X8705896Y-14861412D01*
X8705896Y-14861412D02*
X8705896Y-14851888D01*
X8705896Y-14851888D02*
X8696373Y-14832841D01*
X8696373Y-14832841D02*
X8677325Y-14823317D01*
X8677325Y-14823317D02*
X8648753Y-14823317D01*
X8648753Y-14823317D02*
X8629706Y-14813793D01*
X8629706Y-14813793D02*
X8620182Y-14794746D01*
X8620182Y-14794746D02*
X8620182Y-14785222D01*
X8620182Y-14785222D02*
X8629706Y-14766174D01*
X8629706Y-14766174D02*
X8648753Y-14756650D01*
X8648753Y-14756650D02*
X8677325Y-14756650D01*
X8677325Y-14756650D02*
X8696373Y-14766174D01*
X8772563Y-14966174D02*
X8782087Y-14956650D01*
X8782087Y-14956650D02*
X8801134Y-14928079D01*
X8801134Y-14928079D02*
X8810658Y-14909031D01*
X8810658Y-14909031D02*
X8820182Y-14880460D01*
X8820182Y-14880460D02*
X8829706Y-14832841D01*
X8829706Y-14832841D02*
X8829706Y-14794746D01*
X8829706Y-14794746D02*
X8820182Y-14747127D01*
X8820182Y-14747127D02*
X8810658Y-14718555D01*
X8810658Y-14718555D02*
X8801134Y-14699508D01*
X8801134Y-14699508D02*
X8782087Y-14670936D01*
X8782087Y-14670936D02*
X8772563Y-14661412D01*
M02*
